<?xml version="1.0" encoding="UTF-8"?>
<svg id="Layer_2" data-name="Layer 2" xmlns="http://www.w3.org/2000/svg" viewBox="0 0 460.91 512">
  <defs>
    <style>
      .cls-1 {
        fill: #fff;
      }

      .cls-2 {
        fill: #f8bdff;
      }

      .cls-3 {
        fill: #96ddea;
      }

      .cls-4 {
        opacity: .3;
      }

      .cls-4, .cls-5 {
        fill: #977bff;
      }

      .cls-6 {
        fill: #2b0335;
      }

      .cls-7 {
        fill: #ffc063;
      }

      .cls-8 {
        fill: #ff5e5c;
      }

      .cls-9 {
        fill: #f7ede5;
      }

      .cls-10 {
        fill: none;
        stroke: #2b0335;
        stroke-linecap: round;
        stroke-linejoin: round;
        stroke-width: 1.06px;
      }
    </style>
  </defs>
  <g id="_01" data-name="01">
    <g>
      <path class="cls-1" d="m120.15,512c-66.25,0-120.15-53.9-120.15-120.15,0-33.22,13.71-64.77,37.8-87.46.28-3.89.96-7.72,2.03-11.44l-1.08-.26c-7.24-1.76-13.25-6.92-16.09-13.81-2.78-6.74-2.24-14.46,1.44-20.74-.6-.14-1.23-.22-1.88-.22,0,0-.58.01-.73.01-6.77,0-12.4-5.32-12.73-12.14-.33-6.97,4.99-12.91,11.96-13.33.36-.16,2.39-1.89,4.35-7.1,2.31-6.12,3.32-11.71,3.18-17.6-.14-6.17,4.16-11.56,10.21-12.79.85-.17,1.71-.26,2.55-.26,2.42,0,4.74.69,6.72,1.93l-28.01-39.33c-3.9-5.47-2.88-13.03,2.33-17.28l29.29-23.87c2.36-1.92,5.21-2.87,8.05-2.87,3.44,0,6.86,1.38,9.36,4.09l46.58,50.36-9.08-31.72c-1.18-4.12-.19-8.39,2.34-11.53l-6.54-19.9c-1.4-2.03-2.26-4.48-2.34-7.15-.06-1.88.28-3.68.93-5.33,1.21-10.94,4.73-30.63,14.81-42.03.21-.38.44-.74.68-1.1,2.01-2.93,5.05-4.9,8.54-5.54.77-.14,1.63-.22,2.4-.22,6.39,0,11.87,4.56,13.05,10.84,0,.05.03.14.05.28,3.57,7.35,12.71,25.67,25.3,47.41,4.61.33,8.88,3.16,10.82,7.68l8.87,20.62-12.91-47.59c-.8.13-1.6.19-2.41.19-7.27,0-13.29-5.02-14.76-11.86-1.66-2.36-2.65-5.23-2.73-8.35-.01-.47,0-.94.03-1.4-.14-.46-.27-.92-.37-1.4-1.66-2.36-2.65-5.23-2.73-8.35-.02-.78.02-1.55.11-2.3-.12-.39-.22-.8-.31-1.2-1.66-2.36-2.65-5.23-2.73-8.36,0-.31,0-.62,0-.93-.33-.8-.58-1.64-.77-2.5-1.65-2.36-2.65-5.22-2.73-8.34-.18-7.14,4.53-13.33,11.46-15.05l1.25-.31c1.42-5.25,5.37-9.68,10.89-11.49,1.68-.55,3.42-.83,5.18-.83,4.71,0,9.08,2.01,12.16,5.3l.41-.1c1.2-.3,2.42-.45,3.65-.45,7.17,0,13.26,4.96,14.77,11.89,1.26,1.8,2.14,3.9,2.53,6.2l.05.3c.16.98.23,1.96.2,2.92.3.76.54,1.55.72,2.37,1.26,1.8,2.14,3.9,2.53,6.2l.05.3c.24,1.46.27,2.92.09,4.33.1.34.19.69.26,1.04,1.26,1.8,2.14,3.91,2.53,6.21l.04.24c.19,1.16.25,2.32.18,3.45.13.41.23.82.33,1.25,1.26,1.8,2.15,3.91,2.53,6.21l.04.23c1.2,7.17-2.9,14.11-9.51,16.64l7.99,28.44c5.29-3.71,10.96-6.89,16.9-9.46,3.91-12.34,8.99-24.01,15.14-34.75,4.66-8.14,11.5-17.95,23.24-21.69,2.92-.93,5.91-1.4,8.88-1.4,13.88,0,23.52,9.74,31.27,17.57,2.62,2.64,6.85,6.92,9.04,8,.36-.24.93-.7,1.72-1.51,2.77-2.87,5.02-6.03,7.4-9.37,5.2-7.3,11.1-15.57,22.87-21.4,8.28-4.1,17.21-6.26,25.84-6.26,7.1,0,13.86,1.44,20.06,4.27,23.09,10.54,35.86,37.63,34.15,72.48-1.59,32.46-13.25,64.96-33.06,92.59,3.29,4.55,6.33,9.83,9.2,15.92.05.11.5,1.07.62,1.35.15.35.29.71.41,1.07l32.06,96.39,10.51,31.54,10.82,32.54c1.1,3.29.8,6.89-.82,9.96-1.62,3.07-4.42,5.35-7.75,6.31l-227.97,65.67c-21.58,36.68-60.76,59.24-103.56,59.24Z"/>
      <g>
        <circle class="cls-7" cx="119.52" cy="391.91" r="107.41"/>
        <path class="cls-3" d="m271.7,49.25c-7.34,2.34-12.22,9.18-16.04,15.87-22.38,39.1-27.11,86.56-19.96,131.04,2.88,17.92,8.87,37.33,24.41,46.71,14.88,8.98,34.07,5.94,50.39-.06,59.23-21.75,102.75-80.94,105.84-143.96,1.14-23.33-5.46-50.55-26.71-60.25-11.22-5.12-24.14-3.53-34.96,1.82-13.7,6.78-16.95,18.04-26.76,28.2-20.8,21.55-32.57-26.89-56.21-19.37Z"/>
        <g>
          <g>
            <g>
              <circle class="cls-6" cx="267.34" cy="181.17" r="82.72"/>
              <g>
                <path class="cls-2" d="m337.41,203.38c-12.28,38.7-53.6,60.12-92.3,47.85-19.28-6.12-34.28-19.46-42.97-36.07-8.71-16.74-11.04-36.8-4.88-56.22,12.27-38.68,53.59-60.1,92.29-47.83,9.84,3.12,18.6,8.13,25.93,14.51,21.48,18.63,31.07,48.93,21.92,77.76Z"/>
                <path class="cls-4" d="m337.41,203.38c-12.28,38.7-53.6,60.12-92.3,47.85-19.28-6.12-34.28-19.46-42.97-36.07,11-8.61,21.85-17.43,32.64-26.31,17.47-14.32,34.86-28.75,52.73-42.56,8.92-6.89,17.96-13.63,27.19-20.1.26-.19.52-.37.78-.56,21.48,18.63,31.07,48.93,21.92,77.76Z"/>
                <g>
                  <g>
                    <g>
                      <path class="cls-8" d="m123.5,131l-11.15-33.91s2.17-30.86,14.1-40.51c0,0,12.91,27.55,32.37,60.15l-35.33,14.27Z"/>
                      <polygon class="cls-5" points="148.24 194.49 181.89 194.49 184.09 161.3 163.97 114.55 117.88 132.58 131.52 180.21 148.24 194.49"/>
                      <polygon class="cls-9" points="200.77 200.11 142.75 219.53 131.52 180.21 184.09 161.3 200.77 200.11"/>
                      <polygon class="cls-6" points="133.13 205.11 200.4 182.76 247.66 282.66 159.98 307.22 133.13 205.11"/>
                      <path class="cls-9" d="m193.9,197.02h0c3.5-1.31,7.43.2,9.15,3.53l7.21,13.97c1.98,3.83.26,8.54-3.73,10.2l-2.09.87c-3.93,1.63-8.42-.39-9.81-4.41l-5.12-14.84c-1.3-3.78.64-7.91,4.39-9.32Z"/>
                    </g>
                    <path class="cls-10" d="m112.35,97.09s9.07-.28,13.41-10.58c4.34-10.31.69-29.93.69-29.93"/>
                  </g>
                  <g>
                    <g>
                      <path class="cls-6" d="m216.78,200.23L167.26,17.72c-.54-2,.58-4.08,2.55-4.72h0c2.11-.69,4.37.51,4.96,2.65l51.06,181.81-9.06,2.77Z"/>
                      <g>
                        <g>
                          <path class="cls-6" d="m156.77,25.06l29.89-7.43c1.34-.33,2.68.55,2.91,1.91l.04.26c.21,1.23-.57,2.4-1.78,2.69l-29.94,7.17c-1.46.35-2.88-.74-2.92-2.24h0c-.03-1.11.72-2.09,1.8-2.36Z"/>
                          <path class="cls-6" d="m159.16,30.53l29.89-7.43c1.34-.33,2.68.55,2.91,1.91l.04.26c.21,1.23-.57,2.4-1.78,2.69l-29.94,7.17c-1.46.35-2.88-.74-2.92-2.24h0c-.03-1.11.72-2.09,1.8-2.36Z"/>
                        </g>
                        <g>
                          <path class="cls-6" d="m160.27,36.85l29.89-7.43c1.34-.33,2.68.55,2.91,1.91l.04.26c.21,1.23-.57,2.4-1.78,2.69l-29.94,7.17c-1.46.35-2.88-.74-2.92-2.24h0c-.03-1.11.72-2.09,1.8-2.36Z"/>
                          <path class="cls-6" d="m162.66,42.32l29.89-7.43c1.34-.33,2.68.55,2.91,1.91l.04.26c.2,1.23-.57,2.4-1.78,2.69l-29.94,7.17c-1.46.35-2.88-.74-2.92-2.24h0c-.03-1.11.72-2.09,1.8-2.36Z"/>
                        </g>
                        <g>
                          <path class="cls-6" d="m163.2,48.7l29.89-7.43c1.34-.33,2.68.55,2.91,1.91l.04.26c.21,1.23-.57,2.4-1.78,2.69l-29.94,7.17c-1.46.35-2.88-.74-2.92-2.24h0c-.03-1.11.72-2.09,1.8-2.36Z"/>
                          <path class="cls-6" d="m165.59,54.17l29.89-7.43c1.34-.33,2.68.55,2.91,1.91l.04.26c.21,1.23-.57,2.4-1.78,2.69l-29.94,7.17c-1.46.35-2.88-.74-2.92-2.24h0c-.03-1.11.72-2.09,1.8-2.36Z"/>
                        </g>
                        <g>
                          <path class="cls-6" d="m166.27,59.85l29.89-7.43c1.34-.33,2.68.55,2.91,1.91l.04.26c.2,1.23-.57,2.4-1.78,2.69l-29.94,7.17c-1.46.35-2.88-.74-2.92-2.24h0c-.03-1.11.72-2.09,1.8-2.36Z"/>
                          <path class="cls-6" d="m168.66,65.32l29.89-7.43c1.34-.33,2.68.55,2.91,1.91l.04.26c.21,1.23-.57,2.4-1.78,2.69l-29.94,7.17c-1.46.35-2.88-.74-2.92-2.24h0c-.03-1.11.72-2.09,1.8-2.36Z"/>
                        </g>
                      </g>
                    </g>
                    <g>
                      <polygon class="cls-3" points="194.7 195.32 242.19 182.82 278.51 280.76 217.83 300.56 194.7 195.32"/>
                      <path class="cls-9" d="m236.07,191.99h0c2.7-.56,5.4.95,6.33,3.55l11.78,33.02c1.02,2.86-.46,6.01-3.32,7.04l-4.78,1.73c-3.17,1.15-6.63-.79-7.29-4.1l-7.01-34.76c-.6-2.97,1.31-5.87,4.28-6.49Z"/>
                    </g>
                  </g>
                </g>
              </g>
            </g>
            <g>
              <g>
                <polygon class="cls-6" points="80.47 221.58 29.48 149.97 45.75 142.2 58.77 126.11 118.98 191.2 80.47 221.58"/>
                <path class="cls-2" d="m29.48,149.97s12.48,5.42,21.7-1.63c9.22-7.05,7.59-22.24,7.59-22.24l-29.29,23.87Z"/>
              </g>
              <polygon class="cls-5" points="72.33 222.66 122.78 184.69 206.32 264.43 130.37 328.98 72.33 222.66"/>
              <polygon class="cls-7" points="83 228.99 123.86 197.89 186.43 260.45 131.82 307.47 83 228.99"/>
              <g>
                <path class="cls-9" d="m126.25,202.17h0c1.97-1.43,4.68-1.26,6.46.41l18.02,16.97c2.11,1.99,2.13,5.34.03,7.34l-1.43,1.37c-2.06,1.98-5.35,1.86-7.27-.26l-16.59-18.35c-2.02-2.23-1.66-5.73.78-7.5Z"/>
                <path class="cls-9" d="m155.72,231.67h0c2.02-1.72,5.03-1.6,6.9.28l4.86,4.86c2.3,2.3,1.89,6.13-.85,7.89l-.82.53c-2.25,1.44-5.23.91-6.83-1.23l-4.04-5.39c-1.62-2.15-1.28-5.19.78-6.94Z"/>
              </g>
            </g>
          </g>
          <g>
            <g>
              <g>
                <g>
                  <path class="cls-5" d="m444.53,371.9l-68.83,23.69-139.86,40.28-58.78,12.94-42.75,16.32-2.89.83-25.98-14.38s-13.98-52.5-22.41-98.05c0,0-.02,0,0-.02-1.89-10.11-3.48-19.87-4.59-28.62,0,0-.02-.04,0-.04-2.55-19.93-2.59-34.69,2.4-36.73,6.48-2.63,11.13-26.39,20.27-29.96,21.16-8.24,48.78-18.59,80.05-29.23,16.29-5.53,33.55-7.14,51.41-12.57s36.3-14.68,54.93-19.49c19.82-5.14,39.88-9.77,59.64-13.62,21.2-4.12,35.61,6.9,46.55,30.17.15.34.32.68.47,1.02l12.72,53.27,19.34,43.12,10.52,31.55,7.81,29.53Z"/>
                  <g>
                    <path class="cls-2" d="m290.76,215.71c0,30.7-24.9,55.6-55.6,55.6-26.15,0-48.08-18.06-54.01-42.39,32.57-11.07,69.07-22.44,106.34-32.06,2.12,5.89,3.27,12.24,3.27,18.85Z"/>
                    <path class="cls-2" d="m426.2,310.83c-9.75,8.5-22.5,13.64-36.44,13.64-30.72,0-55.6-24.9-55.6-55.6s24.88-55.6,55.6-55.6c1.32,0,2.61.04,3.91.15.15.34.32.68.47,1.02l32.06,96.39Z"/>
                    <circle class="cls-2" cx="275.3" cy="359.99" r="55.6" transform="translate(-124.76 572.93) rotate(-80.62)"/>
                    <path class="cls-2" d="m447.53,374.9l-71.83,20.69c1.1-29.74,25.54-53.5,55.56-53.5,1.85,0,3.65.09,5.46.28l10.81,32.53Z"/>
                    <path class="cls-2" d="m235.84,435.88l-101.53,29.26c1.04-29.79,25.52-53.6,55.56-53.6,19.12,0,35.99,9.65,45.98,24.35Z"/>
                    <circle class="cls-2" cx="133.72" cy="330.7" r="55.6"/>
                  </g>
                  <path class="cls-6" d="m131.41,465.97l-17.17,4.95-1.04.3-22.24,6.4s-39.62-108.4-41.17-167.97c-.42-16.93,8.97-32.42,23.73-40.22.49-.25,1-.51,1.51-.76.81-.38,1.66-.76,2.51-1.1,6.48-2.63,14.43-5.82,23.56-9.39-1.38,2.44-2.61,4.97-3.7,7.58-3.93,9.45-5.86,19.36-6.48,29.47-1.1,18.23,2.17,37.14,6.12,55.15,1.98,9.01,4.1,18,6.37,26.94,7.65,30.06,17,59.68,28,88.66Z"/>
                </g>
                <path class="cls-2" d="m114.25,470.92l-1.04.3c-18.53-40.54-32.44-83.18-41.37-126.86-3.53-17.25-6.46-35.74-4.04-53.88,1-7.52,2.95-14.62,5.72-21.05.49-.25,1-.51,1.51-.76-3.02,6.65-5.14,14.06-6.18,21.97-2.4,18,.53,36.35,4.04,53.52,7.31,35.78,17.97,70.88,31.81,104.66,0,.02.02.02.02.04.38,1.02.81,2.04,1.25,3.04,2.63,6.4,5.4,12.75,8.29,19.04Z"/>
              </g>
              <path class="cls-2" d="m71.06,277.27l-21.02-15.77c-5.02-3.76-12.19-2.39-15.46,2.95h0c-3.77,6.15-.46,14.2,6.56,15.91l27.4,6.67,2.53-9.76Z"/>
            </g>
            <g>
              <path class="cls-9" d="m362.21,205.85l3.39-1.15c4.35-1.48,9.08.77,10.69,5.06l10.27,27.38c1.7,4.53-.72,9.56-5.31,11.06l-4.5,1.47c-4.45,1.46-9.24-.96-10.71-5.41l-9.16-27.71c-1.46-4.43.92-9.21,5.34-10.71Z"/>
              <path class="cls-9" d="m381.47,257.73l.45-.18c5.6-2.26,11.96.6,13.99,6.29l.21.59c2.01,5.64-1.04,11.83-6.75,13.67l-.55.18c-6.08,1.96-12.51-1.85-13.7-8.13l-.11-.58c-.94-4.98,1.76-9.93,6.46-11.83Z"/>
            </g>
          </g>
        </g>
        <g>
          <path class="cls-7" d="m51.67,230.52c-4.42-6.51-7.46-13.14-9.13-20.83h0c.18,7.87-1.22,15.03-3.99,22.39-2.77,7.36-7.65,14.85-15.51,15.33,7.19-.25,13.76,3.27,18.57,8.62,4.11,4.57,5.97,11.66,8.34,17.36v.05s0-.02,0-.02c.03.08.06.16.09.24l-.06-.49c.98-6.1,1.38-13.23,4.31-18.65,3.43-6.33,8.98-11.29,16.04-12.73-7.75,1.37-14.25-4.76-18.67-11.27Z"/>
          <path class="cls-7" d="m373.88,124.2c-4.42-6.51-7.46-13.14-9.13-20.83h0c.18,7.87-1.22,15.03-3.99,22.39-2.77,7.36-7.65,14.85-15.51,15.33,7.19-.25,13.76,3.27,18.57,8.62,4.11,4.57,5.97,11.66,8.34,17.36v.05s0-.02,0-.02c.03.08.06.16.09.24l-.06-.49c.98-6.1,1.38-13.23,4.31-18.65,3.43-6.33,8.98-11.29,16.04-12.73-7.75,1.37-14.25-4.76-18.67-11.27Z"/>
        </g>
      </g>
    </g>
  </g>
</svg>