<?xml version="1.0" encoding="UTF-8"?>
<svg xmlns="http://www.w3.org/2000/svg" viewBox="0 0 78.28 57.98">
  <defs>
    <style>
      .cls-1 {
        fill: #8196fc;
      }

      .cls-2 {
        fill: #1d1b3a;
      }

      .cls-3 {
        isolation: isolate;
      }

      .cls-4 {
        fill: #ad3915;
      }

      .cls-5 {
        fill: #dd50a4;
      }

      .cls-6 {
        fill: #7585f8;
      }

      .cls-7 {
        fill: #f42a5e;
      }

      .cls-8 {
        fill: #b38cff;
      }

      .cls-9 {
        mix-blend-mode: overlay;
        opacity: .3;
      }

      .cls-10 {
        fill: #f4a517;
      }

      .cls-11 {
        fill: #a4dcff;
      }

      .cls-12 {
        fill: #be4719;
      }

      .cls-13 {
        fill: #f268b4;
      }
    </style>
  </defs>
  <g class="cls-3">
    <g id="Layer_2" data-name="Layer 2">
      <g id="Layer_1-2" data-name="Layer 1">
        <g>
          <g>
            <g>
              <polygon class="cls-11" points="36.5 20.97 36.84 21 36.93 20.14 36.59 20.1 36.5 20.97"/>
              <polygon class="cls-11" points="36.41 22.26 36.75 22.28 36.81 21.42 36.47 21.39 36.41 22.26"/>
              <path class="cls-11" d="m36.39,23.56h.34s0-.22,0-.43c0-.21,0-.43,0-.43h-.34s0,.21,0,.43c0,.22,0,.44,0,.44Z"/>
              <path class="cls-11" d="m36.45,24.87l.34-.03s-.02-.21-.03-.43c-.02-.21-.02-.43-.02-.43h-.34s0,.23.02.45c.02.22.03.44.03.44Z"/>
              <polygon class="cls-11" points="36.59 26.16 36.92 26.11 36.82 25.26 36.48 25.29 36.59 26.16"/>
              <path class="cls-11" d="m36.83,27.44l.33-.08s-.17-.84-.17-.84l-.33.06s.16.86.17.86Z"/>
              <path class="cls-11" d="m37.2,28.7l.32-.11s-.07-.2-.14-.4c-.06-.2-.11-.41-.11-.41l-.33.09s.05.22.12.43c.07.21.14.41.14.41Z"/>
            </g>
            <g>
              <polygon class="cls-11" points="37.69 29.91 38 29.76 37.65 28.99 37.34 29.11 37.69 29.91"/>
              <path class="cls-11" d="m38.35,31.05l.28-.19s-.44-.73-.44-.73l-.3.16s.11.19.22.39c.1.2.24.37.24.37Z"/>
              <path class="cls-11" d="m39.15,32.09l.25-.23s-.14-.16-.28-.32c-.15-.15-.26-.34-.26-.34l-.27.2s.11.19.27.35c.15.17.29.33.29.33Z"/>
              <polygon class="cls-11" points="40.09 33.01 40.31 32.75 39.68 32.17 39.44 32.41 40.09 33.01"/>
              <path class="cls-11" d="m41.18,33.76l.18-.29s-.2-.09-.36-.23c-.17-.12-.35-.25-.35-.25l-.2.27s.18.13.36.26c.17.14.37.24.37.24Z"/>
              <path class="cls-11" d="m42.35,34.36l.13-.31s-.19-.08-.39-.17c-.19-.09-.37-.2-.37-.2l-.16.3s.19.11.39.21c.2.09.41.17.41.17Z"/>
              <path class="cls-11" d="m43.57,34.8l.11-.32s-.82-.25-.81-.27l-.12.32s.83.28.83.28Z"/>
            </g>
            <g>
              <polygon class="cls-11" points="44.81 35.19 44.9 34.86 44.08 34.6 43.98 34.93 44.81 35.19"/>
              <polygon class="cls-11" points="46.09 35.46 46.15 35.13 45.31 34.96 45.23 35.29 46.09 35.46"/>
              <path class="cls-11" d="m47.38,35.66l.04-.34s-.21-.02-.43-.04c-.21-.02-.42-.07-.42-.07l-.05.34s.21.05.43.07c.22.02.44.04.44.04Z"/>
              <path class="cls-11" d="m48.68,35.75v-.34s-.05,0-.13,0c-.08,0-.19-.02-.29-.02-.21-.02-.43-.04-.43-.04l-.03.34s.87.09.87.06Z"/>
              <polygon class="cls-11" points="49.99 35.71 49.96 35.37 49.1 35.4 49.11 35.74 49.99 35.71"/>
              <polygon class="cls-11" points="51.28 35.54 51.22 35.2 50.38 35.33 50.41 35.66 51.28 35.54"/>
              <polygon class="cls-11" points="52.56 35.27 52.47 34.94 51.64 35.13 51.7 35.47 52.56 35.27"/>
            </g>
            <g>
              <polygon class="cls-11" points="53.81 34.9 53.7 34.58 52.88 34.84 52.97 35.17 53.81 34.9"/>
              <rect class="cls-11" x="54.13" y="34.3" width=".87" height=".34" transform="translate(-8.44 20.5) rotate(-19.78)"/>
              <rect class="cls-11" x="55.34" y="33.85" width=".87" height=".34" transform="translate(-8.42 21.88) rotate(-20.67)"/>
              <polygon class="cls-11" points="57.45 33.58 57.34 33.26 56.52 33.56 56.64 33.88 57.45 33.58"/>
              <path class="cls-11" d="m58.67,33.17l-.1-.33s-.21.06-.42.13c-.21.06-.41.14-.41.14l.11.32s.2-.08.41-.14c.21-.06.41-.13.41-.13Z"/>
              <path class="cls-11" d="m59.9,32.84l-.08-.33s-.21.05-.43.1c-.21.05-.42.12-.42.12l.09.33s.2-.07.41-.12c.21-.05.42-.09.42-.09Z"/>
              <path class="cls-11" d="m61.15,32.6l-.05-.34s-.22.03-.44.05c-.21.05-.43.09-.43.09l.07.34s.21-.05.42-.09c.21-.03.42-.05.42-.05Z"/>
            </g>
            <g>
              <path class="cls-11" d="m62.42,32.48l-.02-.34h-.13c-.08,0-.19,0-.3.02-.22.03-.44.05-.44.05l.04.34s.21-.03.43-.05c.11-.02.21-.02.29-.02.08,0,.13,0,.13,0Z"/>
              <path class="cls-11" d="m63.69,32.48l.02-.34s-.22,0-.44,0c-.22,0-.44,0-.44,0v.34s.22,0,.43,0c.21,0,.43,0,.43,0Z"/>
              <polygon class="cls-11" points="64.96 32.62 65.01 32.29 64.14 32.19 64.11 32.52 64.96 32.62"/>
              <polygon class="cls-11" points="66.21 32.88 66.29 32.55 65.44 32.35 65.37 32.68 66.21 32.88"/>
              <polygon class="cls-11" points="67.47 33.17 67.54 32.84 66.7 32.65 66.62 32.98 67.47 33.17"/>
              <path class="cls-11" d="m68.8,33.32l-.03-.34s-.05,0-.13,0c-.08,0-.18,0-.29-.01-.21-.02-.41-.04-.41-.04l-.04.34s.22.02.45.05c.11.01.23.02.31.01.08,0,.14,0,.14,0Z"/>
              <path class="cls-11" d="m70.11,33.09l-.12-.32s-.05.02-.12.04c-.08.02-.17.06-.28.08-.2.04-.41.07-.41.07l.06.34s.22-.04.44-.08c.11-.01.22-.05.3-.08.08-.03.13-.04.13-.04Z"/>
            </g>
            <g>
              <path class="cls-11" d="m71.28,32.45l-.2-.28s-.17.12-.34.24c-.18.1-.37.2-.37.2l.15.31s.2-.11.4-.21c.18-.13.36-.26.36-.26Z"/>
              <path class="cls-11" d="m72.18,31.47l-.27-.21s-.52.66-.54.63l.23.26s.6-.67.58-.68Z"/>
              <path class="cls-11" d="m72.8,30.28l-.32-.13s-.34.76-.35.75l.29.18s.4-.8.38-.81Z"/>
              <path class="cls-11" d="m73.15,29l-.33-.06s-.19.82-.19.82l.32.1s.06-.21.11-.43c.07-.21.09-.43.09-.43Z"/>
              <path class="cls-11" d="m73.28,27.69h-.34s0,.21-.01.42c-.02.21-.04.42-.04.42l.34.04s.02-.22.04-.44c.02-.22.01-.44.01-.44Z"/>
              <path class="cls-11" d="m73.17,26.38l-.34.05s.04.21.06.42c.02.21.03.42.03.42l.34-.02s-.02-.22-.03-.44c-.01-.22-.06-.44-.06-.44Z"/>
              <path class="cls-11" d="m72.86,25.1l-.32.11s.08.2.13.4c.05.21.1.41.1.41l.33-.07s-.05-.21-.11-.43c-.05-.22-.13-.42-.13-.42Z"/>
            </g>
            <g>
              <path class="cls-11" d="m72.31,23.89l-.29.17s.11.18.2.37c.09.19.17.38.17.38l.31-.13s-.09-.2-.18-.41c-.09-.2-.21-.39-.21-.39Z"/>
              <path class="cls-11" d="m71.53,22.83l-.25.23s.15.15.28.32c.12.17.25.34.25.34l.28-.19s-.13-.18-.26-.36c-.13-.18-.29-.34-.29-.34Z"/>
              <path class="cls-11" d="m70.51,21.96l-.19.28s.18.11.34.24c.16.14.32.28.32.28l.23-.25s-.17-.15-.34-.29c-.17-.14-.37-.26-.37-.26Z"/>
              <path class="cls-11" d="m69.32,21.38l-.11.32s.2.06.39.15c.19.09.37.19.37.19l.16-.3s-.2-.1-.4-.2c-.2-.1-.42-.16-.42-.16Z"/>
              <path class="cls-11" d="m68.03,21.08l-.04.34s.83.15.83.15l.09-.33s-.87-.19-.88-.16Z"/>
              <path class="cls-11" d="m66.71,21.04l.02.34s.21,0,.42,0c.11,0,.21,0,.29,0,.08,0,.13.01.13.01l.02-.34s-.89,0-.89,0Z"/>
              <polygon class="cls-11" points="65.41 21.21 65.47 21.55 66.32 21.43 66.28 21.09 65.41 21.21"/>
            </g>
            <g>
              <path class="cls-11" d="m64.15,21.36l.02.34s.22-.02.44-.03c.22-.03.43-.06.43-.06l-.04-.34s-.21.03-.43.06c-.21.02-.43.03-.43.03Z"/>
              <path class="cls-11" d="m62.87,21.39v.34s.87.02.87,0v-.34s-.87,0-.87,0Z"/>
              <polygon class="cls-11" points="61.61 21.29 61.56 21.63 62.43 21.72 62.46 21.38 61.61 21.29"/>
              <path class="cls-11" d="m60.38,21l-.1.33s.21.06.42.13c.22.04.43.09.43.09l.07-.34s-.21-.04-.42-.08c-.2-.06-.41-.12-.41-.12Z"/>
              <path class="cls-11" d="m59.21,20.53l-.16.3s.81.36.81.36l.12-.32s-.78-.32-.77-.35Z"/>
              <path class="cls-11" d="m58.15,19.86l-.21.27s.72.51.74.49l.17-.3s-.71-.47-.71-.47Z"/>
              <path class="cls-11" d="m57.22,19.01l-.25.23s.15.16.3.32c.16.15.33.29.33.29l.22-.26s-.16-.14-.32-.28l-.29-.31Z"/>
            </g>
          </g>
          <g>
            <g>
              <polygon class="cls-6" points="23.1 46.48 22.96 46.14 23.81 45.77 23.96 46.11 23.1 46.48"/>
              <polygon class="cls-6" points="21.8 46.98 21.67 46.64 22.54 46.31 22.67 46.65 21.8 46.98"/>
              <path class="cls-6" d="m20.47,47.41l-.11-.35s.22-.06.44-.13c.22-.07.44-.15.44-.15l.12.34s-.22.08-.44.15c-.22.08-.45.14-.45.14Z"/>
              <path class="cls-6" d="m19.12,47.77l-.08-.36s.22-.05.45-.1c.22-.05.44-.12.44-.12l.1.35s-.22.07-.45.12c-.23.05-.46.11-.46.11Z"/>
              <polygon class="cls-6" points="17.75 48.04 17.69 47.68 18.6 47.52 18.68 47.88 17.75 48.04"/>
              <path class="cls-6" d="m16.36,48.2l-.03-.36s.91-.09.91-.09l.05.36s-.93.12-.93.1Z"/>
              <path class="cls-6" d="m14.96,48.22v-.36s.24,0,.47.01c.23,0,.46-.02.46-.02v.36s-.22.02-.46.02c-.24,0-.47-.01-.47-.01Z"/>
            </g>
            <g>
              <polygon class="cls-6" points="13.56 48.1 13.61 47.74 14.52 47.84 14.49 48.21 13.56 48.1"/>
              <path class="cls-6" d="m12.18,47.79l.1-.35s.89.21.89.21l-.07.36s-.23-.05-.46-.09c-.23-.04-.46-.13-.46-.13Z"/>
              <path class="cls-6" d="m10.86,47.3l.15-.33s.21.09.42.19c.2.1.43.16.43.16l-.12.35s-.23-.05-.44-.16c-.22-.09-.43-.19-.43-.19Z"/>
              <polygon class="cls-6" points="9.62 46.62 9.82 46.32 10.61 46.78 10.44 47.1 9.62 46.62"/>
              <path class="cls-6" d="m8.51,45.75l.24-.27s.16.17.35.3c.18.14.36.27.36.27l-.22.29s-.19-.14-.38-.28c-.2-.13-.36-.31-.36-.31Z"/>
              <path class="cls-6" d="m7.53,44.74l.28-.24s.15.17.29.35c.15.17.33.32.33.32l-.25.26s-.18-.16-.34-.33c-.15-.18-.31-.36-.31-.36Z"/>
              <path class="cls-6" d="m6.68,43.63l.3-.21s.52.76.54.75l-.29.23s-.55-.76-.55-.76Z"/>
            </g>
            <g>
              <polygon class="cls-6" points="5.89 42.48 6.2 42.29 6.72 43.05 6.42 43.25 5.89 42.48"/>
              <polygon class="cls-6" points="5.2 41.26 5.53 41.09 5.97 41.9 5.65 42.09 5.2 41.26"/>
              <path class="cls-6" d="m4.6,40l.34-.14s.08.21.17.43c.09.21.21.41.21.41l-.33.16s-.12-.2-.21-.42c-.09-.22-.18-.44-.18-.44Z"/>
              <path class="cls-6" d="m4.09,38.7l.35-.12s.02.06.04.14c.03.08.07.19.12.29.09.21.17.43.17.43l-.34.13s-.37-.87-.34-.88Z"/>
              <polygon class="cls-6" points="3.71 37.35 4.07 37.27 4.32 38.15 3.96 38.26 3.71 37.35"/>
              <polygon class="cls-6" points="3.48 35.97 3.84 35.92 3.98 36.83 3.63 36.9 3.48 35.97"/>
              <polygon class="cls-6" points="3.35 34.57 3.72 34.56 3.78 35.47 3.41 35.51 3.35 34.57"/>
            </g>
            <g>
              <polygon class="cls-6" points="3.33 33.18 3.69 33.18 3.69 34.11 3.32 34.12 3.33 33.18"/>
              <polygon class="cls-6" points="3.37 31.79 3.73 31.81 3.69 32.73 3.33 32.72 3.37 31.79"/>
              <rect class="cls-6" x="3.14" y="30.7" width=".93" height=".37" transform="translate(-27.44 32.51) rotate(-86.35)"/>
              <polygon class="cls-6" points="3.52 29.03 3.89 29.04 3.84 29.97 3.48 29.95 3.52 29.03"/>
              <path class="cls-6" d="m3.55,27.65h.37s0,.23,0,.47c0,.23-.01.47-.01.47h-.36s.02-.24.01-.47c0-.23,0-.46,0-.46Z"/>
              <path class="cls-6" d="m3.51,26.28l.36-.03s.02.23.04.47c.02.23.01.47.01.47h-.37s0-.22-.01-.45c-.02-.23-.04-.46-.04-.46Z"/>
              <path class="cls-6" d="m3.35,24.92l.36-.06s.04.23.08.46c.02.23.04.47.04.47l-.36.04s-.02-.23-.04-.46c-.04-.23-.08-.45-.08-.45Z"/>
            </g>
            <g>
              <path class="cls-6" d="m3.08,23.58l.35-.09s.02.06.04.14c.03.08.06.2.07.31.04.23.09.46.09.46l-.36.07s-.04-.23-.08-.45c-.02-.11-.05-.23-.07-.31-.03-.08-.04-.14-.04-.14Z"/>
              <path class="cls-6" d="m2.67,22.28l.34-.13s.08.22.14.45c.07.23.14.45.14.45l-.35.1s-.07-.22-.13-.44c-.07-.22-.14-.44-.14-.44Z"/>
              <polygon class="cls-6" points="2.12 21.03 2.45 20.87 2.83 21.73 2.49 21.87 2.12 21.03"/>
              <polygon class="cls-6" points="1.46 19.83 1.78 19.64 2.25 20.45 1.93 20.62 1.46 19.83"/>
              <polygon class="cls-6" points=".75 18.63 1.08 18.46 1.54 19.25 1.23 19.44 .75 18.63"/>
              <path class="cls-6" d="m.19,17.32l.36-.08s.01.06.04.13c.02.08.06.19.1.29.09.21.18.41.18.41l-.33.15s-.1-.22-.19-.44c-.05-.11-.09-.22-.11-.31-.02-.09-.04-.15-.04-.15Z"/>
              <path class="cls-6" d="m0,15.9l.37.02s0,.06,0,.14c0,.08-.01.19,0,.31.03.22.05.44.05.44l-.37.05s-.03-.24-.06-.48c-.02-.12-.01-.24-.01-.33,0-.09,0-.15,0-.15Z"/>
            </g>
            <g>
              <path class="cls-6" d="m.3,14.5l.35.12s-.07.21-.14.42c-.04.22-.08.44-.08.44l-.37-.05s.05-.24.09-.47c.08-.23.15-.46.15-.46Z"/>
              <path class="cls-6" d="m1.01,13.26l.3.21s-.51.74-.48.75l-.33-.15s.5-.82.51-.81Z"/>
              <path class="cls-6" d="m2.03,12.25l.23.28s-.67.59-.66.6l-.28-.24s.7-.67.71-.65Z"/>
              <path class="cls-6" d="m3.22,11.49l.17.32s-.78.46-.78.46l-.21-.3s.21-.13.41-.25c.2-.13.42-.23.42-.23Z"/>
              <path class="cls-6" d="m4.53,10.94l.11.35s-.22.06-.43.15c-.21.09-.42.17-.42.17l-.15-.33s.22-.09.44-.18c.22-.1.45-.16.45-.16Z"/>
              <path class="cls-6" d="m5.91,10.63l.05.36s-.23.02-.45.07c-.22.05-.44.1-.44.1l-.09-.35s.23-.05.46-.1c.23-.06.47-.08.47-.08Z"/>
              <path class="cls-6" d="m7.32,10.55v.36s-.24-.02-.47,0c-.23.01-.45.03-.45.03l-.03-.37s.24-.01.47-.03c.24-.01.48,0,.48,0Z"/>
            </g>
            <g>
              <path class="cls-6" d="m8.73,10.73l-.08.36s-.22-.06-.44-.09c-.23-.03-.45-.06-.45-.06l.03-.36s.24.03.47.06c.24.03.47.09.47.09Z"/>
              <path class="cls-6" d="m10.07,11.19l-.16.33s-.2-.1-.41-.18c-.21-.07-.43-.14-.43-.14l.11-.35s.23.08.45.15c.22.08.44.19.44.19Z"/>
              <path class="cls-6" d="m11.27,11.95l-.23.28s-.17-.15-.36-.28c-.19-.12-.38-.24-.38-.24l.18-.32s.2.13.41.25c.2.14.38.29.38.29Z"/>
              <path class="cls-6" d="m12.26,12.99l-.29.22s-.13-.19-.28-.35c-.16-.16-.31-.32-.31-.32l.26-.26s.17.17.33.34c.16.18.3.38.3.38Z"/>
              <path class="cls-6" d="m12.97,14.22l-.33.15s-.42-.8-.42-.8l.31-.19s.47.83.44.84Z"/>
              <path class="cls-6" d="m13.42,15.56l-.36.08s-.06-.22-.13-.44c-.03-.11-.06-.22-.08-.3-.03-.08-.05-.13-.05-.13l.34-.13s.28.91.28.91Z"/>
              <polygon class="cls-6" points="13.67 16.94 13.3 16.99 13.15 16.08 13.51 16.02 13.67 16.94"/>
            </g>
            <g>
              <path class="cls-6" d="m13.92,18.28l-.36.08s-.05-.23-.11-.46c-.04-.23-.07-.46-.07-.46l.36-.06s.04.23.07.46c.05.22.1.45.1.45Z"/>
              <path class="cls-6" d="m14.28,19.6l-.34.12s-.3-.9-.27-.9l.35-.09s.27.88.27.88Z"/>
              <polygon class="cls-6" points="14.79 20.86 14.47 21.02 14.09 20.15 14.43 20.02 14.79 20.86"/>
              <path class="cls-6" d="m15.49,22.03l-.3.21s-.13-.2-.27-.39c-.12-.21-.23-.41-.23-.41l.32-.18s.11.2.22.4c.13.19.26.38.26.38Z"/>
              <path class="cls-6" d="m16.34,23.07l-.26.25s-.63-.71-.63-.71l.29-.22s.58.7.6.68Z"/>
              <path class="cls-6" d="m17.36,23.95l-.21.3s-.76-.58-.74-.6l.25-.27s.7.57.7.57Z"/>
              <path class="cls-6" d="m18.52,24.63l-.16.33s-.21-.11-.43-.21c-.2-.12-.41-.25-.41-.25l.19-.31s.19.12.39.24c.2.1.41.2.41.2Z"/>
            </g>
          </g>
          <g>
            <path class="cls-5" d="m47.35,32.13v19.37c0,.88,2.41,1.59,5.37,1.59s5.37-.71,5.37-1.59v-19.37h-10.74Z"/>
            <path class="cls-9" d="m58.09,51.5v-19.37h-5.5v20.96s.08,0,.13,0c2.97,0,5.37-.71,5.37-1.59Z"/>
            <path class="cls-10" d="m42.59,12.37c-7.22,3.49,4.75,19.76,4.75,19.76,0,.88,2.41,1.58,5.37,1.58s5.37-.71,5.37-1.58l4.23-9.88c4.84-12.24-12.51-13.37-19.73-9.88Z"/>
            <path class="cls-9" d="m47.35,32.13c0,.88,2.41,1.58,5.37,1.58s5.37-.71,5.37-1.58l2.8-6.54c-4.17,4.25-8.59,1.49-8.17-.74.44-2.35-1.5-5.17-6.78-5.4-4.07-.18-5.23-2.94-5.55-4.19-1.16,5.84,6.96,16.88,6.96,16.88Z"/>
            <path class="cls-9" d="m46.41,12.87s-3.88,1.36-2.11,2.38c1.76,1.03,9.04.44,9.27,2.43.24,2,4.93,5.87,6.58,2,1.64-3.88-8.92-8.45-13.74-6.81Z"/>
          </g>
          <path class="cls-13" d="m9.57,34.47c-.68,0-1.23-.54-1.23-1.21s.55-1.21,1.23-1.21,1.23.54,1.23,1.21-.55,1.21-1.23,1.21Zm0-2.09c-.49,0-.89.39-.89.88s.4.88.89.88.89-.39.89-.88-.4-.88-.89-.88Z"/>
          <path class="cls-1" d="m42.74,8.39c-.67,0-1.21-.54-1.21-1.19s.55-1.19,1.21-1.19,1.21.54,1.21,1.19-.54,1.19-1.21,1.19Zm0-2.06c-.48,0-.88.39-.88.87s.4.87.88.87.88-.39.88-.87-.39-.87-.88-.87Z"/>
          <g>
            <path class="cls-5" d="m35.36,17.76c0,1.47-1.25,2.67-2.78,2.67h-16.2c-1.53,0-2.78-1.19-2.78-2.67V6.88c0-1.47,1.24-2.66,2.78-2.66h16.2c1.53,0,2.78,1.19,2.78,2.66v10.88Z"/>
            <path class="cls-5" d="m18.05,13.32h13.76c1.47,0,2.66,1.19,2.66,2.66v39.08c0,1.47-1.19,2.67-2.67,2.67h-13.77c-1.47,0-2.66-1.19-2.66-2.66V15.99c0-1.47,1.19-2.67,2.67-2.67Z"/>
            <path class="cls-9" d="m20.26,21.76h9.1c1.47,0,2.67,1.19,2.67,2.67v25.31c0,1.47-1.19,2.66-2.66,2.66h-9.1c-1.47,0-2.66-1.19-2.66-2.66v-25.31c0-1.47,1.19-2.67,2.67-2.67Z"/>
            <path class="cls-13" d="m29.48,28.75c0,.8-.65,1.44-1.44,1.44h-6.33c-.8,0-1.44-.65-1.44-1.44h0c0-.8.65-1.44,1.44-1.44h6.33c.8,0,1.44.65,1.44,1.44h0Z"/>
            <path class="cls-13" d="m29.48,34.08c0,.8-.65,1.44-1.44,1.44h-6.33c-.8,0-1.44-.65-1.44-1.44h0c0-.8.65-1.44,1.44-1.44h6.33c.8,0,1.44.64,1.44,1.44h0Z"/>
            <path class="cls-10" d="m14.16,12.07c0,.14-.12.26-.28.26h0c-.15,0-.28-.12-.28-.26V.26c0-.14.12-.26.28-.26h0c.15,0,.28.12.28.26v11.81Z"/>
            <path class="cls-10" d="m15.93,12.07c0,.14-.12.26-.28.26h0c-.15,0-.28-.12-.28-.26V.26c0-.14.12-.26.28-.26h0c.15,0,.28.12.28.26v11.81Z"/>
            <path class="cls-10" d="m17.71,12.07c0,.14-.12.26-.28.26h0c-.15,0-.28-.12-.28-.26V.26c0-.14.12-.26.28-.26h0c.15,0,.28.12.28.26v11.81Z"/>
            <path class="cls-10" d="m19.49,12.07c0,.14-.12.26-.28.26h0c-.15,0-.28-.12-.28-.26V.26c0-.14.12-.26.28-.26h0c.15,0,.28.12.28.26v11.81Z"/>
            <path class="cls-10" d="m21.26,12.07c0,.14-.12.26-.28.26h0c-.15,0-.28-.12-.28-.26V.26c0-.14.12-.26.28-.26h0c.15,0,.28.12.28.26v11.81Z"/>
            <path class="cls-10" d="m23.04,12.07c0,.14-.12.26-.28.26h0c-.15,0-.28-.12-.28-.26V.26c0-.14.12-.26.28-.26h0c.15,0,.28.12.28.26v11.81Z"/>
            <path class="cls-10" d="m24.82,12.07c0,.14-.12.26-.28.26h0c-.15,0-.28-.12-.28-.26V.26c0-.14.12-.26.28-.26h0c.15,0,.28.12.28.26v11.81Z"/>
            <path class="cls-10" d="m26.59,12.07c0,.14-.12.26-.28.26h0c-.15,0-.28-.12-.28-.26V.26c0-.14.12-.26.28-.26h0c.15,0,.28.12.28.26v11.81Z"/>
            <path class="cls-10" d="m28.37,12.07c0,.14-.12.26-.28.26h0c-.15,0-.28-.12-.28-.26V.26c0-.14.12-.26.28-.26h0c.15,0,.28.12.28.26v11.81Z"/>
            <path class="cls-10" d="m30.15,12.07c0,.14-.12.26-.28.26h0c-.15,0-.28-.12-.28-.26V.26c0-.14.12-.26.28-.26h0c.15,0,.28.12.28.26v11.81Z"/>
            <path class="cls-10" d="m31.92,12.07c0,.14-.12.26-.28.26h0c-.15,0-.28-.12-.28-.26V.26c0-.14.12-.26.28-.26h0c.15,0,.28.12.28.26v11.81Z"/>
            <path class="cls-10" d="m33.7,12.07c0,.14-.12.26-.28.26h0c-.15,0-.28-.12-.28-.26V.26c0-.14.13-.26.28-.26h0c.15,0,.28.12.28.26v11.81Z"/>
            <path class="cls-10" d="m35.47,12.07c0,.14-.12.26-.28.26h0c-.15,0-.28-.12-.28-.26V.26c0-.14.13-.26.28-.26h0c.15,0,.28.12.28.26v11.81Z"/>
            <path class="cls-13" d="m14.71,6.88h20.21c1.47,0,2.66,1.19,2.66,2.66v12.88c0,1.47-1.19,2.67-2.67,2.67H14.71c-1.47,0-2.67-1.19-2.67-2.67v-12.88c0-1.47,1.19-2.66,2.66-2.66Z"/>
            <path class="cls-9" d="m34.92,25.09c1.47,0,2.67-1.19,2.67-2.66v-12.88c0-1.31-.95-2.39-2.19-2.62-3.76,4.42-12.05,13.12-22.31,17.59.45.35,1.01.57,1.63.57h20.21Z"/>
          </g>
          <g>
            <path class="cls-8" d="m69.29,49.72v-7.92c1.84.23,3.23,1.28,3.23,2.53v10.77c.01,1.43-1.8,2.6-4.04,2.6l-41.91.1c-2.23,0-4.05-1.15-4.05-2.58v-10.77c-.01-1.26,1.38-2.31,3.23-2.55v7.93s3.85,0,3.85,0v-7.92s2.02,0,2.02,0v7.93s3.65,0,3.65,0v-7.93s2.02,0,2.02,0v7.93s3.65-.01,3.65-.01v-7.92s2.02,0,2.02,0v7.93s3.65,0,3.65,0v-7.93s2.02,0,2.02,0v7.93s3.65,0,3.65,0v-7.93s2.02,0,2.02,0v7.93s3.65,0,3.65,0v-7.93s2.02,0,2.02,0v7.93s3.65,0,3.65,0v-7.93s2.02,0,2.02,0v7.93s3.65,0,3.65,0Z"/>
            <path class="cls-9" d="m68.49,57.7l-41.91.1c-2.23,0-4.05-1.15-4.05-2.58v-1.01l50.02-.12v1.01c0,1.43-1.81,2.6-4.05,2.6Z"/>
          </g>
          <path class="cls-1" d="m4.78,17.21c-.67,0-1.21-.54-1.21-1.19s.55-1.19,1.21-1.19,1.21.54,1.21,1.19-.54,1.19-1.21,1.19Zm0-2.06c-.49,0-.88.39-.88.87s.39.87.88.87.88-.39.88-.87-.4-.87-.88-.87Z"/>
          <path class="cls-10" d="m67.43,15.85c.14-.17.2-.78.43-.78s.27.62.42.78c.16.16.79.2.78.43-.01.22-.64.25-.78.43-.14.17-.21.79-.42.78-.22-.02-.25-.64-.43-.78-.18-.14-.8-.21-.78-.43.01-.22.64-.25.78-.43Z"/>
          <path class="cls-13" d="m64.66,13.64c.03.38-.25.71-.63.74-.38.03-.71-.25-.74-.62-.04-.38.25-.71.63-.74.38-.03.71.25.74.63Z"/>
          <g>
            <path class="cls-12" d="m65.44,29.83s-2.54.82-4.94-4.91c-1.98-4.74-.91-4.28-.77-4.17.21.16,1,.26,1.03,1.55.03,1.3,1.26,2.45,2.12,3.24,1.2,1.1,2.31,1.44,4.74.1.73-.4-1.88,3.3-2.18,4.2Z"/>
            <path class="cls-12" d="m72.3,26.11s-.55-3.24-2.86-1.77c-2.3,1.47-6.07,4.6-4.95,5.38,1.31.92,6.95-2.82,7.81-3.61Z"/>
            <path class="cls-12" d="m75.99,25.27c-.44-.27-1.48-.89-1.8-1.02-1.53-.63-5.04-1.24-5.49,1.23-.39,2.09.72,5.18-.48,8.38-.07.19-2.23,3.74-1.88,8.55.3,4.16,1.84,10.64,2.06,14.15.02.24.05.29-.83.5-1.03.24-.24.72,1.37.71,1.51-.01,2.19-6.57,2.33-10.04.04-.98-.34-3.93.17-6.71.06,1.04.16,2.22.29,3.52.38,3.8,4.92,8.78,5.26,11.97.03.24,0,.34-.8.59-.8.25-.02.7,1.36.67,1.38-.04.53-6.65-.18-9.75-.62-2.71-1-5.27-1.8-12.42,0,0,0,0,0,0,0,0,0,0,0,0,0-.06-.02-.12-.02-.19-.14-2.52-.33-4.13.92-6.36.04-.06.06-.12.1-.18,1.06-2,.22-3.13-.56-3.6Z"/>
            <path class="cls-11" d="m67.82,34.7c2.75,2.02,6.29,1.39,7.78,1.07.41,3.6,1.37,8.71,1.65,10.57-1.21.44-4.6,1.02-4.95,1.02-1.01-3.87-1.01-4.1-1.07-5.14-.22,1.2,0,0,.06,4.92-.43.3-3.54-.11-4.46-.79-.04-.37-.46-3.59-.49-3.92-.25-3.53.85-6.38,1.47-7.72Z"/>
            <path class="cls-10" d="m69.79,56.98s-1.2.53-1.94,0c0,0-1.35.2-.5.57.85.36,2.49.66,2.44-.57Z"/>
            <path class="cls-10" d="m78.13,57.1s-1.2.53-1.94,0c0,0-1.35.21-.5.57.85.36,2.49.66,2.44-.57Z"/>
            <path class="cls-7" d="m67.82,34.7s2.71,1.92,7.78,1.07l.1.79s-5.02,1.64-8.3-1.09c0,0,.08-.31.42-.78Z"/>
            <path class="cls-10" d="m74.44,24.35s-1.53,3.81-4.19,3.35c-.8-.14-1.46-1.28.78-3.99l-.73.12s-2.01,1.81-3.01,6.44c-.83,3.85-1.39,7.65-1.39,7.65,0,0,3.76,2.19,10.5.53,0,0-.69-6.1-.49-7.62,0,0-2.15.08-2.11-2.72.03-2.32,1.43-3.3,1.43-3.3,0,0-.7-.41-.78-.46h0Z"/>
            <path class="cls-4" d="m74.2,21.73s-.72,1.58.02,2.46c.75.9-3.52,1.47-3.15.8.37-.67.7-1.4.49-2.61l2.64-.65Z"/>
            <path class="cls-12" d="m72.74,18.85c-.99.58-2.65,3.75-1.97,4.69.3.41,1.92.4,3.23-.86.54-.52,1.3-1.54.95-2.83-.16-.59-1.05-1.67-2.21-1Z"/>
            <path class="cls-2" d="m71.81,19.07c-.28.38-.25.49.98.98,1.22.49,1.46.46,1.27.73-.59.81.36.84-.35,1.8-.71.96.51.56,1.18-.21.14-.15.87-.88.56-2.35-.37-1.71-2.6-2.35-3.63-.95Z"/>
            <path class="cls-12" d="m75.03,34.6s-1.15,2.4-6.97.2c-4.81-1.81-3.73-2.28-3.56-2.31.26-.04.87-.55,1.83.32.96.87,2.65.77,3.81.69,1.62-.12,2.63-.69,3.33-3.38.21-.81,1.1,3.64,1.55,4.48Z"/>
            <path class="cls-2" d="m75.97,38.56l.15,1s-4.06.91-7.14-.68c0,0,4.11.44,6.99-.32Z"/>
            <path class="cls-12" d="m77.05,27.06s-2.73-1.83-3.25.86c-.51,2.69-.83,7.57.5,7.3,1.56-.32,2.73-6.98,2.74-8.15Z"/>
          </g>
        </g>
      </g>
    </g>
  </g>
</svg>