<?xml version="1.0" encoding="UTF-8"?>
<svg xmlns="http://www.w3.org/2000/svg" viewBox="0 0 73.7 63.27">
  <defs>
    <style>
      .cls-1 {
        fill: #fff;
      }

      .cls-2 {
        fill: #f9d483;
      }

      .cls-3 {
        fill: #8196fc;
      }

      .cls-4 {
        fill: #1d1b3a;
      }

      .cls-5 {
        isolation: isolate;
      }

      .cls-6 {
        fill: #ad3915;
      }

      .cls-7 {
        fill: #e23db3;
      }

      .cls-8 {
        fill: #f28f19;
      }

      .cls-9 {
        fill: #b38cff;
      }

      .cls-10 {
        mix-blend-mode: overlay;
        opacity: .3;
      }

      .cls-11 {
        fill: #ffe3ab;
      }

      .cls-12 {
        fill: #ef60ae;
      }

      .cls-13 {
        fill: #f4a517;
      }

      .cls-14 {
        fill: #fe71b7;
      }

      .cls-15 {
        fill: #a4dcff;
      }

      .cls-16 {
        fill: #be4719;
      }
    </style>
  </defs>
  <g class="cls-5">
    <g id="Layer_2" data-name="Layer 2">
      <g id="Layer_1-2" data-name="Layer 1">
        <g>
          <g>
            <path class="cls-12" d="m14.49,18.45c.11.13.05.36-.14.52l-9.96,8.52c-.19.16-.43.18-.54.06L.06,23.11c-.11-.13-.05-.36.14-.52l9.96-8.52c.19-.16.43-.18.54-.05l3.8,4.44Z"/>
            <path class="cls-10" d="m14.56,18.54c.07.08-.02.28-.21.44l-9.96,8.52c-.19.16-.39.22-.46.14l-2.44-2.85c-.07-.08.02-.28.21-.44l9.96-8.52c.19-.16.4-.22.47-.14l2.44,2.85Z"/>
            <path class="cls-15" d="m38.73,57.43L15.12,27.42l.12-.11s3.14-6.71-2.06-11.68l-6.66,5.7h0s-5.37,4.59-5.37,4.59c4.1,5.91,11.22,3.85,11.22,3.85l.24-.2,9.37,9.81,16.74,18.05Z"/>
            <path class="cls-10" d="m15.25,27.32s3.14-6.71-2.06-11.68l-1.45,1.24c1.65,1.93,4.15,5.97,1.62,10.8l25.37,29.76L15.12,27.42l.12-.11Z"/>
          </g>
          <g>
            <g>
              <polygon class="cls-3" points="33.34 40.33 33.5 40 34.33 40.39 34.19 40.73 33.34 40.33"/>
              <polygon class="cls-3" points="32.1 39.69 32.27 39.37 33.09 39.8 32.93 40.13 32.1 39.69"/>
              <polygon class="cls-3" points="30.88 39.02 31.06 38.71 31.87 39.16 31.7 39.48 30.88 39.02"/>
              <polygon class="cls-3" points="29.68 38.31 29.88 38 30.67 38.48 30.49 38.79 29.68 38.31"/>
              <path class="cls-3" d="m28.51,37.57l.2-.31s.19.13.39.26c.2.12.39.25.39.25l-.2.31s-.2-.12-.4-.25c-.19-.13-.39-.26-.39-.26Z"/>
              <polygon class="cls-3" points="27.36 36.78 27.57 36.49 28.33 37.01 28.13 37.32 27.36 36.78"/>
              <path class="cls-3" d="m26.24,35.96l.22-.29s.19.14.37.28c.19.14.37.27.37.27l-.22.3s-.19-.14-.38-.28c-.19-.14-.37-.28-.37-.28Z"/>
            </g>
            <g>
              <polygon class="cls-3" points="25.15 35.09 25.39 34.81 26.11 35.39 25.88 35.68 25.15 35.09"/>
              <polygon class="cls-3" points="24.1 34.18 24.35 33.91 25.04 34.52 24.8 34.8 24.1 34.18"/>
              <path class="cls-3" d="m23.1,33.2l.26-.26s.16.17.32.33c.17.16.33.32.33.32l-.25.27s-.17-.16-.34-.32c-.17-.16-.33-.33-.33-.33Z"/>
              <path class="cls-3" d="m22.16,32.18l.28-.24s.15.17.3.35c.15.17.31.34.31.34l-.27.25s-.17-.17-.32-.34c-.15-.18-.31-.35-.31-.35Z"/>
              <polygon class="cls-3" points="21.28 31.09 21.58 30.87 22.14 31.59 21.86 31.83 21.28 31.09"/>
              <path class="cls-3" d="m20.5,29.93l.31-.19s.51.77.51.77l-.3.21s-.54-.77-.52-.78Z"/>
              <path class="cls-3" d="m19.82,28.7l.33-.16s.1.21.2.41c.1.2.23.4.23.4l-.32.18s-.12-.2-.23-.41c-.1-.21-.21-.42-.21-.42Z"/>
            </g>
            <g>
              <polygon class="cls-3" points="19.28 27.4 19.62 27.28 19.96 28.13 19.62 28.28 19.28 27.4"/>
              <path class="cls-3" d="m18.91,26.04l.36-.07s.22.88.22.88l-.35.11s-.06-.23-.13-.45c-.07-.23-.1-.46-.1-.46Z"/>
              <path class="cls-3" d="m18.74,24.64l.36-.02s.02.23.03.46c0,.23.06.45.06.45l-.36.06s-.06-.23-.06-.47c-.02-.24-.03-.47-.03-.47Z"/>
              <polygon class="cls-3" points="18.76 23.23 19.12 23.27 19.08 24.18 18.71 24.18 18.76 23.23"/>
              <path class="cls-3" d="m19.01,21.84l.35.09s-.08.22-.1.45c-.04.22-.07.45-.07.45l-.36-.05s.04-.23.08-.47c.03-.24.11-.46.11-.46Z"/>
              <path class="cls-3" d="m19.44,20.5l.34.13s-.08.21-.17.42c-.08.21-.13.44-.13.44l-.35-.1s.06-.23.14-.45c.09-.22.17-.44.17-.44Z"/>
              <path class="cls-3" d="m20.04,19.24l.32.16s-.43.81-.41.83l-.33-.15s.42-.84.42-.84Z"/>
            </g>
            <g>
              <polygon class="cls-3" points="20.68 18 21 18.18 20.57 19 20.25 18.83 20.68 18"/>
              <polygon class="cls-3" points="21.45 16.83 21.75 17.03 21.24 17.8 20.93 17.61 21.45 16.83"/>
              <path class="cls-3" d="m22.28,15.7l.28.23s-.15.17-.3.35c-.15.18-.26.37-.26.37l-.3-.22s.12-.2.27-.38c.15-.18.3-.36.3-.36Z"/>
              <path class="cls-3" d="m23.19,14.64l.26.25s-.04.04-.1.1c-.06.07-.13.15-.2.24-.15.18-.29.35-.29.35l-.28-.24s.6-.73.62-.71Z"/>
              <polygon class="cls-3" points="24.22 13.69 24.46 13.96 23.78 14.59 23.53 14.33 24.22 13.69"/>
              <polygon class="cls-3" points="25.33 12.83 25.54 13.13 24.81 13.68 24.58 13.4 25.33 12.83"/>
              <polygon class="cls-3" points="26.5 12.07 26.69 12.39 25.9 12.87 25.7 12.57 26.5 12.07"/>
            </g>
            <g>
              <polygon class="cls-3" points="27.73 11.4 27.89 11.73 27.08 12.15 26.9 11.83 27.73 11.4"/>
              <polygon class="cls-3" points="28.98 10.8 29.13 11.13 28.29 11.52 28.13 11.19 28.98 10.8"/>
              <rect class="cls-3" x="29.43" y="10.39" width=".93" height=".37" transform="translate(-1.71 13.19) rotate(-24.21)"/>
              <polygon class="cls-3" points="31.5 9.64 31.65 9.97 30.81 10.37 30.66 10.03 31.5 9.64"/>
              <path class="cls-3" d="m32.73,9.03l.17.32s-.21.11-.41.22c-.21.11-.42.2-.42.2l-.16-.33s.21-.09.42-.2c.2-.11.41-.22.41-.22Z"/>
              <path class="cls-3" d="m33.92,8.35l.19.31s-.2.13-.4.25c-.2.12-.41.23-.41.23l-.18-.32s.21-.1.4-.22c.2-.12.39-.25.39-.25Z"/>
              <path class="cls-3" d="m35.05,7.58l.22.29s-.18.15-.37.29c-.2.12-.4.25-.4.25l-.2-.31s.2-.12.39-.25c.18-.14.36-.28.36-.28Z"/>
            </g>
            <g>
              <path class="cls-3" d="m36.1,6.72l.25.27s-.04.04-.1.1c-.06.06-.15.14-.24.21-.19.15-.37.29-.37.29l-.23-.28s.18-.14.36-.28c.09-.07.17-.15.24-.21.06-.06.1-.1.1-.1Z"/>
              <path class="cls-3" d="m37.07,5.75l.27.24s-.16.17-.33.34c-.17.17-.33.33-.33.33l-.26-.26s.16-.16.33-.32c.16-.16.32-.33.32-.33Z"/>
              <polygon class="cls-3" points="37.92 4.68 38.22 4.9 37.63 5.64 37.35 5.4 37.92 4.68"/>
              <polygon class="cls-3" points="38.67 3.54 38.99 3.73 38.49 4.53 38.19 4.32 38.67 3.54"/>
              <polygon class="cls-3" points="39.41 2.36 39.71 2.56 39.23 3.34 38.91 3.16 39.41 2.36"/>
              <path class="cls-3" d="m40.31,1.25l.24.28s-.04.04-.1.1c-.06.05-.14.14-.21.23-.14.17-.28.35-.28.35l-.28-.23s.15-.19.3-.38c.07-.1.15-.18.22-.24.07-.06.11-.1.11-.1Z"/>
              <path class="cls-3" d="m41.48.43l.15.34s-.05.02-.13.06c-.08.04-.18.08-.27.15-.18.13-.37.25-.37.25l-.21-.3s.2-.14.4-.27c.09-.08.21-.13.29-.17.08-.04.14-.06.14-.06Z"/>
            </g>
            <g>
              <path class="cls-3" d="m42.85.03l.06.37s-.22.04-.44.07c-.21.06-.43.13-.43.13l-.12-.35s.23-.07.46-.14c.24-.04.48-.08.48-.08Z"/>
              <path class="cls-3" d="m44.28.09l-.05.37s-.89-.1-.89-.08l-.02-.37s.96.06.96.08Z"/>
              <path class="cls-3" d="m45.65.52l-.14.34s-.84-.32-.84-.31l.08-.36s.92.3.91.33Z"/>
              <path class="cls-3" d="m46.88,1.22l-.21.3s-.77-.48-.77-.48l.17-.32s.21.12.41.24c.21.11.4.26.4.26Z"/>
              <path class="cls-3" d="m47.97,2.12l-.26.26s-.16-.17-.33-.31c-.17-.15-.35-.29-.35-.29l.23-.29s.18.15.36.3c.19.15.35.33.35.33Z"/>
              <path class="cls-3" d="m48.89,3.2l-.3.21s-.12-.19-.27-.36c-.15-.17-.3-.35-.3-.35l.27-.25s.15.18.31.36c.16.18.29.38.29.38Z"/>
              <path class="cls-3" d="m49.62,4.41l-.33.16s-.09-.21-.21-.4c-.12-.2-.23-.39-.23-.39l.31-.2s.12.2.24.41c.12.2.22.42.22.42Z"/>
            </g>
            <g>
              <path class="cls-3" d="m50.11,5.74l-.35.09s-.05-.22-.13-.43c-.08-.21-.16-.42-.16-.42l.34-.14s.08.23.17.45c.08.22.13.46.13.46Z"/>
              <path class="cls-3" d="m50.33,7.14h-.37s0-.21-.03-.44c-.04-.22-.07-.44-.07-.44l.36-.07s.04.24.07.47c.03.24.03.48.03.48Z"/>
              <path class="cls-3" d="m50.21,8.56l-.36-.07s.05-.22.08-.44c.02-.22.03-.45.03-.45h.37s-.02.25-.04.49c-.03.24-.08.47-.08.47Z"/>
              <path class="cls-3" d="m49.75,9.91l-.33-.16s.11-.2.18-.41c.07-.21.14-.43.14-.43l.35.1s-.08.23-.15.45c-.08.23-.2.44-.2.44Z"/>
              <path class="cls-3" d="m49,11.12l-.29-.23s.51-.74.51-.74l.32.18s-.52.81-.54.78Z"/>
              <path class="cls-3" d="m48.02,12.14l-.24-.28s.16-.16.33-.31c.08-.08.17-.15.23-.21.06-.07.09-.11.09-.11l.27.24s-.68.67-.68.67Z"/>
              <polygon class="cls-3" points="46.91 13 46.7 12.7 47.43 12.15 47.66 12.43 46.91 13"/>
            </g>
            <g>
              <path class="cls-3" d="m45.84,13.85l-.24-.28s.18-.15.36-.31c.19-.14.38-.28.38-.28l.22.29s-.18.14-.37.28c-.17.15-.35.3-.35.3Z"/>
              <path class="cls-3" d="m44.85,14.79l-.27-.25s.66-.68.67-.66l.25.27s-.65.64-.65.64Z"/>
              <polygon class="cls-3" points="43.97 15.82 43.67 15.61 44.27 14.87 44.54 15.11 43.97 15.82"/>
              <path class="cls-3" d="m43.26,16.98l-.32-.17s.11-.21.22-.42c.13-.2.26-.39.26-.39l.31.2s-.13.19-.25.38c-.11.2-.21.4-.21.4Z"/>
              <path class="cls-3" d="m42.73,18.22l-.35-.11s.34-.89.34-.89l.33.15s-.35.84-.33.85Z"/>
              <path class="cls-3" d="m42.42,19.53l-.36-.05s.16-.94.19-.93l.35.09s-.18.89-.18.89Z"/>
              <path class="cls-3" d="m42.36,20.88h-.37s0-.22-.01-.46c.02-.24.03-.48.03-.48l.36.03s-.01.23-.03.45c0,.23.01.45.01.45Z"/>
            </g>
            <g>
              <path class="cls-3" d="m42.52,22.22l-.36.07s-.06-.23-.08-.47c-.03-.23-.06-.47-.06-.47l.36-.03s.03.23.05.45c.02.23.08.45.08.45Z"/>
              <path class="cls-3" d="m42.88,23.53l-.35.12s-.27-.91-.27-.91l.36-.09s.25.88.26.87Z"/>
              <path class="cls-3" d="m43.4,24.79l-.33.16s-.1-.21-.19-.43c-.1-.21-.18-.43-.18-.43l.34-.13s.36.84.36.84Z"/>
              <path class="cls-3" d="m44.05,25.99l-.31.19s-.12-.2-.24-.4c-.11-.21-.22-.41-.22-.41l.32-.17s.11.2.22.41c.12.2.23.39.23.39Z"/>
              <path class="cls-3" d="m44.81,27.13l-.29.22s-.15-.19-.27-.38c-.13-.19-.26-.39-.26-.39l.31-.2s.13.19.26.38c.13.19.27.37.27.37Z"/>
              <path class="cls-3" d="m45.66,28.21l-.28.24s-.15-.18-.3-.36c-.15-.18-.3-.37-.3-.37l.29-.22s.15.18.29.36c.14.18.29.36.29.36Z"/>
              <path class="cls-3" d="m46.59,29.22l-.26.26s-.16-.17-.32-.34c-.17-.17-.32-.34-.32-.35l.27-.25s.15.18.31.34c.16.17.32.33.32.33Z"/>
            </g>
            <g>
              <path class="cls-3" d="m47.58,30.16l-.24.27s-.17-.16-.35-.32c-.17-.16-.34-.32-.34-.32l.25-.26s.16.16.33.32c.17.16.34.31.34.31Z"/>
              <path class="cls-3" d="m48.64,31.03l-.22.29s-.19-.15-.37-.29c-.18-.15-.36-.3-.36-.3l.24-.28s.18.15.35.3c.18.14.36.28.36.28Z"/>
              <path class="cls-3" d="m49.76,31.81l-.19.31s-.2-.13-.39-.26c-.2-.13-.38-.27-.38-.27l.21-.3s.18.14.38.26c.19.13.38.25.38.25Z"/>
              <path class="cls-3" d="m51,32.48l-.23.29-.12-.06c-.23-.1-.46-.23-.68-.35l.18-.32c.24.13.47.26.73.37l.13.06Z"/>
              <path class="cls-3" d="m51.91,33.59l-.3.21s-.13-.19-.27-.36c-.13-.18-.28-.35-.28-.35l.25-.27s.16.18.31.37c.15.19.29.39.29.39Z"/>
              <path class="cls-3" d="m52.65,34.79l-.32.17s-.46-.79-.46-.79l.31-.2s.49.81.48.82Z"/>
              <path class="cls-3" d="m53.23,36.07l-.34.13s-.34-.85-.36-.84l.33-.16s.37.87.37.87Z"/>
            </g>
            <g>
              <path class="cls-3" d="m53.62,37.43l-.36.08s-.04-.23-.1-.44c-.07-.22-.13-.43-.13-.43l.35-.11s.07.23.14.45c.07.23.11.46.11.46Z"/>
              <path class="cls-3" d="m53.81,38.82l-.36.02s-.07-.91-.1-.91l.36-.06s.1.94.1.94Z"/>
              <polygon class="cls-3" points="53.8 40.24 53.44 40.2 53.47 39.29 53.83 39.29 53.8 40.24"/>
              <path class="cls-3" d="m53.56,41.62l-.35-.09s.17-.9.17-.9l.36.05s-.14.94-.17.93Z"/>
              <path class="cls-3" d="m53.13,42.96l-.34-.13s.02-.05.06-.13c.04-.08.08-.18.1-.3.06-.22.13-.44.13-.44l.35.1s-.06.23-.13.45c-.03.12-.07.22-.11.31-.03.08-.06.13-.06.13Z"/>
              <path class="cls-3" d="m52.54,44.24l-.32-.17s.03-.05.07-.12c.04-.07.1-.17.14-.28.09-.21.18-.42.18-.42l.33.15s-.09.22-.19.43c-.04.11-.1.21-.15.29-.04.08-.07.13-.07.13Z"/>
              <path class="cls-3" d="m51.82,45.44l-.3-.2s.47-.79.47-.79l.31.18s-.47.82-.49.81Z"/>
            </g>
            <g>
              <polygon class="cls-3" points="51.02 46.59 50.72 46.37 51.25 45.61 51.55 45.82 51.02 46.59"/>
              <polygon class="cls-3" points="50.17 47.69 49.89 47.46 50.45 46.73 50.74 46.95 50.17 47.69"/>
              <path class="cls-3" d="m49.27,48.76l-.27-.24s.16-.17.3-.35c.15-.18.3-.35.3-.35l.28.23s-.15.18-.3.36c-.15.18-.31.35-.31.35Z"/>
              <path class="cls-3" d="m48.32,49.77l-.26-.26s.16-.16.33-.33c.16-.17.31-.34.31-.34l.27.25s-.16.17-.32.34c-.17.16-.33.33-.33.33Z"/>
              <path class="cls-3" d="m47.32,50.71l-.28-.24s.18-.16.36-.32c.17-.16.34-.32.34-.32l.25.26s-.17.16-.34.31c-.17.15-.33.3-.33.3Z"/>
              <polygon class="cls-3" points="46.31 51.58 45.95 51.41 46.69 50.78 46.99 51 46.31 51.58"/>
              <path class="cls-3" d="m45.36,52.5l-.4-.09s.03-.05.08-.12c.05-.07.14-.15.22-.24.16-.17.34-.33.34-.33l.37.15s-.17.14-.33.3c-.08.08-.16.16-.21.22-.05.07-.08.12-.08.12Z"/>
            </g>
          </g>
          <path class="cls-15" d="m42.52,9.14c-.67,0-1.21-.54-1.21-1.19s.54-1.19,1.21-1.19,1.21.54,1.21,1.19-.55,1.19-1.21,1.19Zm0-2.06c-.49,0-.88.39-.88.87s.39.86.88.86.88-.39.88-.86-.39-.87-.88-.87Z"/>
          <path class="cls-3" d="m54.75,56.68c-.67,0-1.21-.54-1.21-1.19s.54-1.19,1.21-1.19,1.21.54,1.21,1.19-.54,1.19-1.21,1.19Zm0-2.06c-.48,0-.88.39-.88.87s.39.87.88.87.88-.39.88-.87-.4-.87-.88-.87Z"/>
          <path class="cls-9" d="m55.81,9.22c.14-.17.2-.78.43-.78s.27.62.42.78c.16.16.79.2.78.43-.01.22-.64.25-.78.43-.14.17-.21.79-.42.78-.22-.01-.25-.64-.43-.78-.18-.14-.79-.21-.78-.43.02-.22.64-.25.78-.43Z"/>
          <path class="cls-13" d="m53.03,50.78c.03.38-.25.71-.63.74-.38.03-.71-.25-.74-.62-.04-.38.25-.71.62-.74.38-.03.71.25.75.63Z"/>
          <path class="cls-13" d="m15.89,12.77c.14-.17.21-.78.43-.78s.27.62.42.78c.16.16.79.2.78.43-.01.22-.64.25-.78.43-.14.17-.21.79-.42.78-.22-.02-.25-.64-.43-.78-.17-.14-.79-.21-.78-.43.01-.22.64-.25.78-.43Z"/>
          <g>
            <path class="cls-13" d="m2.58,40.23s1.04,17.75,13.7,19.41c12.66,1.66,31.75,1.45,30.92-19.41H2.58Z"/>
            <path class="cls-8" d="m47.2,40.23c0,3.73-9.99,6.74-22.31,6.74s-22.31-3.02-22.31-6.74,9.99-6.75,22.31-6.75,22.31,3.02,22.31,6.75Z"/>
            <path class="cls-13" d="m44.72,40.23c0,3.09-9.01,5.6-20.13,5.6s-20.13-2.51-20.13-5.6,9.01-5.6,20.13-5.6,20.13,2.51,20.13,5.6Z"/>
            <path class="cls-11" d="m24.58,45.84c9.58,0,17.59-1.86,19.63-4.36-2.04-2.49-10.05-4.36-19.63-4.36s-17.59,1.86-19.62,4.36c2.04,2.5,10.05,4.36,19.62,4.36Z"/>
            <path class="cls-10" d="m47.03,44.89c-3.98,5.25-19.14,15.74-37.89,11.35,1.83,1.73,4.16,3.01,7.14,3.4,11.64,1.53,28.71,1.47,30.75-14.75Z"/>
          </g>
          <g>
            <path class="cls-6" d="m56.07,24.22c.13.23.69,1.06.14,2.29-.56,1.23.34,4.97,1.3,5.24,1.61.46,2.85-.96,2.85-.96l1.48,3.12s-3.85,1.72-5.61.69c-.45-.27-1.85-1-1.44-5.74.45-5.24,1.19-4.8,1.28-4.64Z"/>
            <path class="cls-8" d="m64.03,31.3c.18.53.97,1.51-.4,2.56-1.07.82-4.4.98-4.4.98,0,0-1.42-1.65-.8-3.33,0,0,4.92-2.2,5.59-.2Z"/>
            <g>
              <path class="cls-2" d="m29.42,28.54s-3.29,1.32-3.36,3.49c-.07,2.18-2.28,5.85-5.15,6.64-2.87.8-10.61,2.48-8,3.23,3.29.94,8.74,1.1,13.68-.58,4.95-1.68,1-2.61,1.12-4.99.12-2.37,2.21-3.27,3.2-3.21,1,.06-1.49-4.59-1.49-4.59Z"/>
              <g>
                <path class="cls-9" d="m31.08,33.7c-.3.09-.94-1.08-1.41-2.63-.48-1.54-.62-2.87-.31-2.96.3-.09.93,1.08,1.41,2.63.48,1.54.62,2.87.31,2.96Z"/>
                <path class="cls-7" d="m33.19,33.07c-.3.09-.93-1.09-1.41-2.63-.48-1.54-.62-2.87-.31-2.96s.93,1.09,1.41,2.63c.47,1.54.62,2.87.31,2.96Z"/>
                <polygon class="cls-9" points="31.08 33.7 29.36 28.12 31.46 27.48 33.19 33.07 31.08 33.7"/>
              </g>
              <path class="cls-9" d="m35.23,35.39c-3.12.18-6-10.07-3.51-11.94,7.73-5.82,33.89-13.4,33.89-13.4l5.33,17.3s-26.75,7.53-35.71,8.05Z"/>
              <polygon class="cls-10" points="65.61 10.05 70.95 27.35 68.56 28.01 63.75 10.61 65.61 10.05"/>
              <path class="cls-2" d="m39.26,31.68c-1.75.3-3.71-6.98-2.08-7.69,6.67-2.92,16.05-6.09,21.53-7.74l3.04,9.84c-5.21,1.42-16.94,4.65-22.49,5.59Z"/>
              <path class="cls-11" d="m42.82,29.32c-1.24.21-2.61-4.91-1.47-5.41,4.7-2.06,11.3-4.29,15.16-5.45l2.14,6.93c-3.66,1-11.93,3.27-15.83,3.93Z"/>
              <path class="cls-10" d="m35.23,35.39c8.96-.52,35.71-8.05,35.71-8.05l-.07-.23c-6.04.73-29.56,3.13-40.01-1.92-.58,3.52,1.82,10.35,4.37,10.2Z"/>
              <g>
                <g>
                  <path class="cls-10" d="m64.34,11.07c-.07.02-.14-.02-.16-.08h0c-.02-.07.02-.13.08-.15l1.1-.33c.07-.02.13.02.16.08h0c.02.06-.02.13-.08.15l-1.1.33Z"/>
                  <path class="cls-10" d="m64.53,11.69c-.07.02-.13-.02-.15-.08h0c-.02-.06.02-.13.08-.15l1.1-.33c.07-.02.14.02.16.08h0c.02.06-.02.13-.08.16l-1.1.33Z"/>
                  <path class="cls-10" d="m64.72,12.31c-.07.02-.14-.02-.16-.08h0c-.02-.06.02-.13.08-.15l1.1-.33c.07-.02.13.02.16.08h0c.02.06-.02.13-.08.15l-1.1.33Z"/>
                  <path class="cls-10" d="m64.91,12.93c-.07.02-.13-.02-.15-.08h0c-.02-.07.02-.13.08-.15l1.1-.33c.07-.02.13.02.15.08h0c.02.06-.02.13-.08.15l-1.1.33Z"/>
                  <path class="cls-10" d="m65.1,13.56c-.07.02-.13-.02-.15-.08h0c-.02-.07.02-.13.08-.15l1.1-.33c.06-.02.14.02.16.08h0c.02.06-.02.13-.08.15l-1.1.33Z"/>
                  <path class="cls-10" d="m65.3,14.18c-.07.02-.14-.02-.16-.08h0c-.02-.06.02-.13.08-.15l1.1-.33c.07-.02.14.02.16.08h0c.02.06-.02.13-.08.15l-1.1.33Z"/>
                  <path class="cls-10" d="m65.49,14.8c-.07.02-.13-.02-.16-.08h0c-.02-.07.02-.13.08-.15l1.1-.33c.07-.02.14.02.15.08h0c.02.06-.02.13-.08.15l-1.1.33Z"/>
                  <path class="cls-10" d="m65.68,15.43c-.06.02-.13-.02-.15-.08h0c-.02-.06.02-.13.08-.15l1.11-.33c.06-.02.13.01.15.08h0c.02.06-.02.13-.08.15l-1.11.33Z"/>
                </g>
                <g>
                  <path class="cls-10" d="m65.87,16.05c-.06.02-.13-.02-.15-.08h0c-.02-.06.02-.13.08-.15l1.1-.33c.07-.02.14.02.16.08h0c.02.06-.02.13-.08.15l-1.1.33Z"/>
                  <path class="cls-10" d="m66.06,16.67c-.07.02-.14-.02-.15-.08h0c-.02-.07.02-.13.08-.16l1.1-.33c.06-.02.13.02.15.08h0c.02.06-.02.13-.08.15l-1.1.33Z"/>
                  <path class="cls-10" d="m66.25,17.29c-.07.02-.13-.02-.15-.08h0c-.02-.07.02-.13.08-.15l1.1-.33c.07-.02.13.02.15.08h0c.02.06-.02.13-.08.15l-1.1.33Z"/>
                  <path class="cls-10" d="m66.45,17.92c-.07.02-.13-.02-.16-.08h0c-.02-.06.02-.13.08-.15l1.1-.34c.07-.02.14.02.16.08h0c.02.06-.02.13-.08.15l-1.1.33Z"/>
                  <path class="cls-10" d="m66.64,18.54c-.06.02-.14-.02-.16-.08h0c-.02-.07.02-.13.08-.15l1.1-.33c.07-.02.13.02.15.08h0c.02.07-.02.13-.08.15l-1.1.33Z"/>
                  <path class="cls-10" d="m66.83,19.16c-.07.02-.13-.02-.15-.08h0c-.02-.06.02-.13.08-.15l1.11-.33c.06-.02.13.02.15.08h0c.02.06-.02.13-.08.15l-1.11.33Z"/>
                  <path class="cls-10" d="m67.02,19.78c-.07.02-.13-.02-.16-.08h0c-.02-.06.02-.13.08-.15l1.11-.33c.06-.02.13.02.15.08h0c.02.07-.02.13-.08.15l-1.1.33Z"/>
                  <path class="cls-10" d="m67.21,20.41c-.07.02-.14-.02-.15-.08h0c-.02-.07.02-.13.08-.15l1.1-.34c.06-.02.13.02.16.08h0c.02.06-.02.13-.08.15l-1.1.33Z"/>
                </g>
                <path class="cls-10" d="m67.4,21.03c-.07.02-.13-.02-.15-.08h0c-.02-.06.02-.13.08-.15l1.1-.33c.07-.02.14.01.16.08h0c.02.06-.02.13-.08.15l-1.11.33Z"/>
                <path class="cls-10" d="m67.6,21.65c-.07.02-.13-.02-.15-.08h0c-.02-.07.02-.13.08-.15l1.1-.33c.07-.02.14.02.16.08h0c.02.06-.02.13-.08.15l-1.11.33Z"/>
                <path class="cls-10" d="m67.79,22.27c-.06.02-.13-.02-.15-.08h0c-.02-.06.02-.13.08-.15l1.11-.33c.06-.02.13.02.15.08h0c.02.07-.02.13-.08.15l-1.11.33Z"/>
                <path class="cls-10" d="m67.98,22.9c-.07.02-.13-.02-.15-.08h0c-.02-.07.01-.13.08-.15l1.1-.33c.06-.02.14.02.15.08h0c.02.06-.01.13-.08.15l-1.1.33Z"/>
                <path class="cls-10" d="m68.17,23.52c-.07.02-.13-.02-.16-.08h0c-.02-.06.02-.13.08-.15l1.1-.33c.07-.02.14.02.16.08h0c.02.06-.02.13-.08.15l-1.1.33Z"/>
                <path class="cls-10" d="m68.36,24.14c-.07.02-.13-.02-.15-.08h0c-.02-.06.02-.13.08-.15l1.1-.33c.07-.02.14.02.15.08h0c.02.06-.02.13-.08.15l-1.11.33Z"/>
                <path class="cls-10" d="m68.56,24.76c-.06.02-.13-.02-.16-.08h0c-.02-.07.02-.13.08-.15l1.1-.33c.07-.02.14.02.16.08h0c.02.06-.02.13-.08.15l-1.1.33Z"/>
                <path class="cls-10" d="m68.75,25.39c-.07.02-.13-.02-.15-.08h0c-.02-.07.02-.13.08-.15l1.11-.33c.06-.02.13.02.15.08h0c.02.06-.02.13-.08.15l-1.1.33Z"/>
                <path class="cls-10" d="m68.94,26.01c-.07.02-.14-.02-.15-.08h0c-.02-.06.02-.13.08-.15l1.1-.33c.07-.02.13.02.15.08h0c.02.07-.02.13-.08.15l-1.1.33Z"/>
                <path class="cls-10" d="m69.13,26.63c-.07.02-.14-.02-.16-.08h0c-.02-.06.02-.13.08-.15l1.1-.33c.07-.02.14.02.15.08h0c.02.06-.02.13-.08.15l-1.1.33Z"/>
                <path class="cls-10" d="m69.32,27.25c-.06.02-.13-.02-.15-.08h0c-.02-.06.02-.13.09-.15l1.1-.33c.06-.02.14.02.16.08h0c.02.07-.02.13-.08.15l-1.1.33Z"/>
              </g>
            </g>
            <path class="cls-16" d="m61.11,40.81s-2.04,3.52-1.19,10.03c.86,6.51,4.29,8.53,2.41,11.25-.21.29-1.05.69-.99,1.02.07.33,2.44.2,2.86-1.37,0,0,.96-3.36.09-7.93-1.05-5.57,4.05-9.92.16-13.06-.69-.56-1.63-1.26-3.34.06Z"/>
            <path class="cls-12" d="m66.32,43.16s-2.1,6.69-1.89,8.58c.21,1.9.75,6.41.3,8.21,0,0-.94.81-2.11.24,0,0-2.49-6.28-2.63-7.46-.14-1.18-.48-3.81-.23-6.65,1.18-13.33,6.56-2.92,6.56-2.92Z"/>
            <path class="cls-16" d="m64.16,40.38s-.82,4.03,2.04,9.83c2.87,5.81,6.76,6.49,5.84,9.71-.1.35-.78,1.02-.61,1.31.17.29,2.37-.67,2.27-2.3,0,0-.15-3.49-2.42-7.47-2.76-4.86.69-10.75-3.98-12.32-.83-.28-1.94-.6-3.15,1.24Z"/>
            <path class="cls-14" d="m69.83,40.74s.12,7.02.93,8.72c.8,1.7,2.74,5.75,2.87,7.6,0,0-.64,1.09-1.91.96,0,0-4.35-5.01-4.85-6.07-.5-1.06-1.66-3.4-2.32-6.15-3.09-12.92,5.29-5.06,5.29-5.06Z"/>
            <path class="cls-4" d="m61.82,25.15c.63-.85,3.24-2.37,5.07.54.9,1.42,2.23.93,3.13,2.04,1.77,2.17-.24,3.62,1.89,6.74,1.78,2.61-1.29,4.34-3.16,4.83-5.56,1.47-4.41-2.88-6.04-5.68-2.55-4.4-2.17-6.77-.89-8.46Z"/>
            <path class="cls-13" d="m70.02,40.55c-.01-2.01-2.34-3.23-1.42-6.14,1.04-3.31-1.94-4.37-3.82-4.4-1.57-.02-4.48-.36-4.29,3.16.1,2.01.44,5.15-.01,7.43-.46,2.32,9.56,2.18,9.55-.05Z"/>
            <path class="cls-6" d="m64.59,27.73s-.15,1.69.42,2.37c.36.44-2.22,1.7-2.22,1.07,0-.81.42-1.34-.19-2.2l1.98-1.24Z"/>
            <path class="cls-16" d="m62.01,25.63c-.4.89-.75,4.59.98,4.64.78.02,1.96-1.11,2.24-2.63.12-.62-.33-1.7-1.21-2.41-.4-.33-1.55-.63-2.01.41Z"/>
            <path class="cls-4" d="m61.51,27.03c.08.42.65-1.25,1.17-.51.55.79,1.4.23,2.09,1.77.47,1.05,1.03-1.3,1.07-1.48q.17-.76-.96-1.84c-1.13-1.08-3.77-.04-3.37,2.05Z"/>
            <path class="cls-1" d="m68.84,44.29c-1.48,0-1.98-1.3-1.98-1.31l.25-.09s.45,1.14,1.73,1.14h.04v.27s-.02,0-.04,0Z"/>
            <path class="cls-16" d="m57.39,29.18c.22.14,1.11.61,1.2,1.95.09,1.34,2.64,4.22,3.62,4.01,1.63-.35,2.05-2.19,2.05-2.19l2.78,2.05s-2.58,3.33-4.62,3.26c-.53-.02-2.1-.01-3.98-4.38-2.08-4.83-1.21-4.8-1.06-4.69Z"/>
            <path class="cls-8" d="m68.26,31.17c.55.4,1.09,1.05.1,2.74-.82,1.41-1.93,2.46-1.93,2.46,0,0-2.56-.62-3.13-2.72,0,0,2.89-3.97,4.95-2.48Z"/>
            <path class="cls-4" d="m60.65,41.25s.94,1.31,5.97.93c0,0,2.51-.29,3.21-1.14v1.1s-6.33,2.26-9.18-.89Z"/>
          </g>
        </g>
      </g>
    </g>
  </g>
</svg>