<?xml version="1.0" encoding="UTF-8"?>
<svg xmlns="http://www.w3.org/2000/svg" viewBox="0 0 71.21 53.57">
  <defs>
    <style>
      .cls-1 {
        fill: #f67986;
      }

      .cls-2 {
        fill: #8196fc;
      }

      .cls-3 {
        fill: #8861e5;
      }

      .cls-4 {
        opacity: .2;
      }

      .cls-4, .cls-5 {
        mix-blend-mode: overlay;
      }

      .cls-6 {
        fill: #1d1b3a;
      }

      .cls-7 {
        isolation: isolate;
      }

      .cls-8 {
        fill: #ad3915;
      }

      .cls-9 {
        fill: #89cdef;
      }

      .cls-10 {
        fill: #f28f19;
      }

      .cls-11 {
        fill: #b38cff;
      }

      .cls-5 {
        opacity: .3;
      }

      .cls-12 {
        fill: #ef60ae;
      }

      .cls-13 {
        fill: #f4a517;
      }

      .cls-14 {
        fill: #a4dcff;
      }

      .cls-15 {
        fill: #be4719;
      }

      .cls-16 {
        fill: #f268b4;
      }
    </style>
  </defs>
  <g class="cls-7">
    <g id="Layer_2" data-name="Layer 2">
      <g id="Layer_1-2" data-name="Layer 1">
        <g>
          <g>
            <g>
              <polygon class="cls-16" points="54.5 31.64 54.81 31.53 54.54 30.75 54.23 30.85 54.5 31.64"/>
              <polygon class="cls-16" points="54.94 32.8 55.24 32.68 54.94 31.91 54.64 32.02 54.94 32.8"/>
              <rect class="cls-16" x="55.23" y="33.08" width=".33" height=".83" transform="translate(-8.55 23.38) rotate(-22.17)"/>
              <polygon class="cls-16" points="55.86 35.08 56.16 34.97 55.86 34.19 55.55 34.31 55.86 35.08"/>
              <path class="cls-16" d="m56.28,36.23l.31-.1s-.07-.2-.13-.4c-.06-.2-.15-.39-.15-.39l-.3.11s.08.19.14.38c.07.2.13.39.13.39Z"/>
              <path class="cls-16" d="m56.63,37.4l.32-.08s-.05-.21-.1-.41c-.05-.2-.13-.4-.13-.4l-.31.1s.07.19.12.39c.05.2.1.4.1.4Z"/>
              <path class="cls-16" d="m56.89,38.59l.32-.06s-.03-.21-.06-.41c-.05-.2-.1-.41-.1-.41l-.32.07s.05.2.1.4c.03.2.06.4.06.4Z"/>
            </g>
            <g>
              <path class="cls-16" d="m57.04,39.79l.32-.02s0-.05,0-.13c0-.08,0-.18-.02-.29-.03-.21-.06-.41-.06-.41l-.32.04s.03.2.06.4c.02.1.02.2.02.28,0,.07,0,.13,0,.13Z"/>
              <path class="cls-16" d="m57.07,41.01h.33s0-.2,0-.41c0-.21-.01-.42-.01-.42h-.33s0,.21.01.42c0,.21,0,.41,0,.41Z"/>
              <polygon class="cls-16" points="56.97 42.22 57.29 42.26 57.36 41.43 57.04 41.41 56.97 42.22"/>
              <polygon class="cls-16" points="56.75 43.42 57.07 43.49 57.24 42.67 56.92 42.62 56.75 43.42"/>
              <polygon class="cls-16" points="56.5 44.63 56.82 44.69 56.99 43.89 56.67 43.81 56.5 44.63"/>
              <path class="cls-16" d="m56.4,45.9l.33-.04s0-.05,0-.12c0-.08,0-.17,0-.27.01-.2.03-.4.03-.4l-.32-.03s-.01.21-.04.43c0,.11-.01.21,0,.29,0,.08,0,.13,0,.13Z"/>
              <path class="cls-16" d="m56.65,47.14l.31-.12s-.02-.05-.04-.12c-.02-.07-.06-.16-.08-.26-.04-.19-.08-.39-.08-.39l-.32.06s.04.21.09.42c.02.11.06.21.09.28.03.08.04.12.04.12Z"/>
            </g>
            <g>
              <path class="cls-16" d="m57.29,48.24l.26-.2s-.12-.16-.24-.32c-.1-.17-.2-.34-.2-.34l-.29.15s.11.19.21.37c.13.17.26.34.26.34Z"/>
              <path class="cls-16" d="m58.25,49.09l.19-.26s-.64-.48-.62-.5l-.24.22s.65.55.67.54Z"/>
              <path class="cls-16" d="m59.4,49.64l.11-.3s-.74-.3-.73-.32l-.17.28s.78.36.78.34Z"/>
              <path class="cls-16" d="m60.62,49.95l.05-.32s-.79-.16-.79-.16l-.09.31s.21.05.42.1c.21.06.42.08.42.08Z"/>
              <path class="cls-16" d="m61.88,50.03v-.33s-.21.01-.41,0c-.2-.01-.41-.03-.41-.03l-.03.33s.21,0,.42.02c.21.01.42,0,.42,0Z"/>
              <path class="cls-16" d="m63.13,49.9l-.06-.32s-.2.04-.4.07c-.2.02-.4.04-.4.04l.02.32s.21-.02.42-.04c.21-.02.42-.07.42-.07Z"/>
              <path class="cls-16" d="m64.34,49.56l-.11-.31s-.18.08-.38.13c-.2.05-.39.11-.39.11l.08.32s.2-.06.41-.11c.21-.05.4-.14.4-.14Z"/>
            </g>
            <g>
              <path class="cls-16" d="m65.48,49.01l-.17-.28s-.17.11-.35.2c-.18.09-.36.17-.36.17l.13.3s.19-.09.38-.18c.19-.1.37-.22.37-.22Z"/>
              <path class="cls-16" d="m66.48,48.24l-.23-.23s-.14.15-.29.27c-.16.12-.32.25-.32.25l.19.26s.17-.13.34-.26c.16-.14.31-.29.31-.29Z"/>
              <path class="cls-16" d="m67.27,47.25l-.27-.17s-.1.17-.22.33c-.13.15-.26.31-.26.31l.25.21s.13-.16.27-.33c.13-.17.23-.36.23-.36Z"/>
              <path class="cls-16" d="m67.81,46.1l-.31-.1s-.05.19-.13.38c-.09.18-.17.36-.17.36l.29.15.18-.39c.09-.19.14-.4.14-.4Z"/>
              <path class="cls-16" d="m68.05,44.86l-.32-.03s-.12.79-.12.79l.32.08s.16-.84.13-.84Z"/>
              <path class="cls-16" d="m68.05,43.6l-.32.03s.01.2.02.4c0,.1,0,.2.01.28,0,.08,0,.13,0,.13h.33s-.03-.84-.03-.84Z"/>
              <polygon class="cls-16" points="67.86 42.36 67.54 42.42 67.68 43.23 68 43.19 67.86 42.36"/>
            </g>
            <g>
              <path class="cls-16" d="m67.69,41.16l-.32.03s.02.21.04.42c.03.21.07.41.07.41l.32-.05s-.04-.2-.07-.4c-.02-.2-.04-.41-.04-.41Z"/>
              <path class="cls-16" d="m67.62,39.95h-.32s0,.84.03.84l.32-.02s-.03-.82-.03-.82Z"/>
              <polygon class="cls-16" points="67.69 38.74 67.37 38.7 67.3 39.53 67.63 39.55 67.69 38.74"/>
              <path class="cls-16" d="m67.94,37.56l-.31-.09s-.05.2-.11.41c-.04.21-.08.42-.08.42l.32.05s.04-.2.07-.4c.05-.19.11-.39.11-.39Z"/>
              <path class="cls-16" d="m68.36,36.43l-.29-.14s-.32.78-.32.78l.31.1s.28-.76.31-.74Z"/>
              <path class="cls-16" d="m68.97,35.4l-.26-.19s-.47.7-.45.72l.29.16s.43-.68.43-.68Z"/>
              <path class="cls-16" d="m69.76,34.49l-.23-.23s-.15.15-.3.3c-.13.16-.27.33-.27.33l.25.2s.13-.16.26-.31c.14-.14.29-.29.29-.29Z"/>
            </g>
          </g>
          <g>
            <g>
              <path class="cls-13" d="m17.12,41.15l.02.38s.25-.02.49-.03c.25-.02.49-.04.49-.04l-.04-.38s-.24.02-.48.04c-.24.01-.48.03-.48.03Z"/>
              <polygon class="cls-13" points="15.69 41.19 15.69 41.57 16.67 41.55 16.65 41.17 15.69 41.19"/>
              <polygon class="cls-13" points="14.25 41.16 14.23 41.53 15.21 41.56 15.21 41.19 14.25 41.16"/>
              <polygon class="cls-13" points="12.82 41.05 12.78 41.43 13.75 41.51 13.78 41.13 12.82 41.05"/>
              <polygon class="cls-13" points="11.39 40.86 11.33 41.23 12.3 41.37 12.35 41 11.39 40.86"/>
              <path class="cls-13" d="m9.99,40.57l-.09.36s.24.05.48.11c.24.06.48.1.48.1l.07-.37s-.24-.04-.47-.1c-.23-.05-.47-.11-.47-.11Z"/>
              <path class="cls-13" d="m8.63,40.14l-.13.35s.23.08.47.16c.23.08.47.15.47.15l.11-.36s-.23-.06-.46-.14c-.23-.08-.45-.16-.45-.16Z"/>
            </g>
            <g>
              <path class="cls-13" d="m7.34,39.56l-.18.33s.89.45.89.43l.15-.35s-.86-.41-.86-.41Z"/>
              <path class="cls-13" d="m6.18,38.76l-.24.28s.19.16.39.31c.2.16.41.28.41.28l.2-.32s-.21-.12-.39-.27c-.19-.14-.37-.29-.37-.29Z"/>
              <path class="cls-13" d="m5.26,37.72l-.31.21s.62.8.63.78l.27-.26s-.62-.7-.59-.72Z"/>
              <path class="cls-13" d="m4.67,36.47l-.36.11s.05.25.17.48l.21.46.33-.18s-.1-.21-.19-.43c-.11-.21-.14-.44-.15-.44Z"/>
              <path class="cls-13" d="m4.45,35.09h-.37s-.02.27.03.51c.04.25.07.5.07.5l.37-.08s-.03-.23-.07-.46c-.05-.23-.03-.47-.03-.47Z"/>
              <path class="cls-13" d="m4.54,33.69l-.37-.06s-.03.25-.05.5c-.03.25-.05.5-.05.5h.38s.02-.22.04-.46c.03-.24.05-.47.05-.47Z"/>
              <path class="cls-13" d="m4.88,32.31l-.36-.11s-.07.23-.15.47c-.05.24-.11.48-.11.48l.37.08s.05-.23.1-.47c.07-.23.14-.46.14-.46Z"/>
            </g>
            <g>
              <polygon class="cls-13" points="5.33 30.94 4.97 30.82 4.67 31.74 5.02 31.86 5.33 30.94"/>
              <polygon class="cls-13" points="5.79 29.56 5.43 29.45 5.12 30.37 5.48 30.48 5.79 29.56"/>
              <polygon class="cls-13" points="6.16 28.15 5.8 28.06 5.55 28.99 5.91 29.1 6.16 28.15"/>
              <path class="cls-13" d="m6.48,26.73l-.37-.07s-.17.95-.19.95l.37.09s.2-.96.2-.96Z"/>
              <path class="cls-13" d="m6.72,25.29l-.37-.05s-.03.24-.06.48c-.04.24-.09.47-.09.47l.37.06s.05-.24.09-.48c.03-.24.06-.49.06-.49Z"/>
              <path class="cls-13" d="m6.86,23.83l-.37-.02s-.08.96-.08.96l.37.04s.11-.98.08-.98Z"/>
              <path class="cls-13" d="m6.86,22.37l-.37.02s0,.96,0,.96h.38s.02-.98,0-.98Z"/>
            </g>
            <g>
              <path class="cls-13" d="m6.7,20.9l-.37.06s.01.06.03.15c.02.09.04.21.04.33.02.24.04.48.04.48l.38-.03s-.02-.25-.04-.49c0-.12-.02-.25-.04-.34-.02-.09-.03-.15-.03-.15Z"/>
              <path class="cls-13" d="m6.36,19.47l-.36.11s.07.23.14.46c.04.23.09.47.09.47l.37-.08s-.05-.24-.09-.49c-.07-.24-.14-.47-.14-.47Z"/>
              <path class="cls-13" d="m5.87,18.09l-.35.15s.37.88.35.89l.36-.12s-.36-.92-.36-.92Z"/>
              <polygon class="cls-13" points="5.24 16.77 4.91 16.95 5.34 17.81 5.68 17.65 5.24 16.77"/>
              <path class="cls-13" d="m4.5,15.51l-.32.2s.13.2.25.41c.12.21.24.42.24.42l.33-.19s-.12-.21-.25-.42c-.12-.21-.25-.42-.25-.42Z"/>
              <polygon class="cls-13" points="3.71 14.29 3.4 14.49 3.93 15.31 4.24 15.11 3.71 14.29"/>
              <rect class="cls-13" x="2.84" y="13.1" width=".38" height=".97" transform="translate(-6.97 3.9) rotate(-33.35)"/>
            </g>
            <g>
              <polygon class="cls-13" points="2.14 11.86 1.82 12.06 2.34 12.89 2.65 12.68 2.14 11.86"/>
              <polygon class="cls-13" points="1.42 10.62 1.09 10.8 1.57 11.65 1.89 11.46 1.42 10.62"/>
              <path class="cls-13" d="m.82,9.34l-.35.13s.07.24.18.46c.11.23.22.45.22.45l.33-.17s-.1-.21-.2-.43c-.1-.21-.17-.44-.17-.44Z"/>
              <path class="cls-13" d="m.46,7.98l-.37.06s.22.97.22.97l.36-.11s-.23-.92-.2-.92Z"/>
              <path class="cls-13" d="m.39,6.57l-.37-.02s0,1,0,1l.37-.03s-.04-.95,0-.95Z"/>
              <path class="cls-13" d="m.62,5.19l-.36-.1s-.08.24-.12.49c-.04.24-.09.49-.09.49l.37.05s.04-.23.08-.46c.04-.23.11-.46.11-.46Z"/>
              <path class="cls-13" d="m1.14,3.89l-.33-.18s-.11.22-.22.45c-.09.23-.18.46-.18.46l.35.13s.09-.22.17-.44c.1-.21.21-.42.21-.42Z"/>
            </g>
            <g>
              <path class="cls-13" d="m1.91,2.72l-.29-.24s-.15.2-.3.4c-.15.2-.28.42-.28.42l.32.2s.11-.21.26-.39c.14-.19.29-.38.29-.38Z"/>
              <path class="cls-13" d="m2.92,1.74l-.23-.29s-.75.66-.73.67l.27.26s.68-.66.7-.64Z"/>
              <path class="cls-13" d="m4.11,1l-.17-.34s-.23.1-.44.23c-.21.13-.42.26-.42.26l.21.31s.2-.12.4-.25c.2-.13.42-.22.42-.22Z"/>
              <path class="cls-13" d="m5.43.52l-.09-.37s-.24.07-.48.13c-.24.08-.47.17-.47.17l.14.35s.22-.09.44-.16c.23-.06.46-.12.46-.12Z"/>
              <path class="cls-13" d="m6.82.38V0s-.99.04-.99.06l.05.37s.94-.09.93-.06Z"/>
              <path class="cls-13" d="m8.19.61l.11-.36s-.24-.09-.49-.13c-.25-.04-.49-.09-.49-.09l-.04.37s.23.04.46.08c.23.04.45.12.45.12Z"/>
              <path class="cls-13" d="m9.46,1.19l.2-.32s-.22-.13-.43-.25c-.23-.1-.46-.2-.46-.2l-.14.35s.21.09.43.19c.2.12.41.24.41.24Z"/>
            </g>
            <g>
              <path class="cls-13" d="m10.54,2.07l.27-.26s-.18-.17-.36-.34c-.18-.17-.39-.31-.39-.31l-.22.3s.19.13.37.29c.17.16.34.32.34.32Z"/>
              <path class="cls-13" d="m11.43,3.17l.31-.21s-.14-.21-.28-.41c-.16-.19-.32-.38-.32-.38l-.28.25s.15.18.31.36c.13.2.27.39.27.39Z"/>
              <path class="cls-13" d="m12.13,4.4l.34-.16s-.47-.87-.47-.87l-.32.2s.47.83.45.84Z"/>
              <polygon class="cls-13" points="12.72 5.72 13.06 5.57 12.67 4.68 12.32 4.83 12.72 5.72"/>
              <path class="cls-13" d="m13.37,7.03l.33-.18s-.11-.21-.23-.42c-.12-.21-.22-.43-.22-.43l-.34.16s.1.22.22.44c.12.22.23.43.23.43Z"/>
              <path class="cls-13" d="m14.15,8.28l.3-.22s-.13-.2-.26-.4c-.13-.2-.26-.4-.26-.4l-.32.2s.13.21.27.41c.13.21.27.41.27.41Z"/>
              <path class="cls-13" d="m15.09,9.41l.27-.26s-.16-.17-.33-.35c-.15-.19-.29-.38-.29-.38l-.3.23s.15.19.31.39c.17.18.34.36.34.36Z"/>
            </g>
            <g>
              <path class="cls-13" d="m16.19,10.4l.22-.3s-.73-.61-.73-.61l-.26.27s.74.66.76.64Z"/>
              <path class="cls-13" d="m17.45,11.17l.17-.34s-.84-.45-.82-.47l-.21.31s.86.5.86.5Z"/>
              <path class="cls-13" d="m18.84,11.68l.1-.36s-.23-.07-.46-.13c-.23-.07-.44-.17-.44-.17l-.14.35s.23.11.46.18c.24.07.48.14.48.14Z"/>
              <path class="cls-13" d="m20.3,11.93l.03-.38s-.24-.02-.47-.04c-.23-.04-.47-.09-.47-.09l-.07.37s.24.04.49.09c.25.02.5.04.5.04Z"/>
              <path class="cls-13" d="m21.78,11.92l-.03-.37s-.24.03-.48.03h-.48v.38s.24,0,.49,0c.25,0,.49-.03.49-.03Z"/>
              <path class="cls-13" d="m23.24,11.71l-.08-.37s-.23.06-.47.09c-.24.04-.47.07-.47.07l.05.37s.25-.04.49-.07c.25-.03.48-.09.48-.09Z"/>
              <path class="cls-13" d="m24.65,11.33l-.11-.36s-.23.07-.46.13c-.23.07-.46.13-.46.13l.09.36s.24-.06.48-.13c.24-.07.47-.14.47-.14Z"/>
            </g>
            <g>
              <path class="cls-13" d="m26.03,10.82l-.15-.35s-.22.09-.45.18c-.22.09-.45.17-.45.17l.12.35s.23-.08.46-.17c.23-.09.46-.18.46-.18Z"/>
              <path class="cls-13" d="m27.35,10.21l-.17-.33s-.22.11-.43.21c-.22.1-.44.2-.44.2l.15.34s.22-.1.44-.21c.22-.11.44-.22.44-.22Z"/>
              <path class="cls-13" d="m28.63,9.51l-.19-.33s-.21.12-.42.24c-.21.11-.42.23-.42.23l.17.33s.22-.12.43-.23c.21-.12.42-.25.42-.25Z"/>
              <path class="cls-13" d="m29.87,8.74l-.21-.31s-.2.13-.4.26c-.2.13-.41.25-.41.25l.2.32s.21-.13.41-.26c.21-.13.41-.27.41-.27Z"/>
              <polygon class="cls-13" points="31.06 7.9 30.84 7.6 30.06 8.16 30.27 8.47 31.06 7.9"/>
              <path class="cls-13" d="m32.22,7.01l-.24-.29s-.19.15-.37.3c-.19.15-.38.3-.38.3l.23.3s.19-.15.39-.3c.19-.15.38-.31.38-.31Z"/>
              <path class="cls-13" d="m33.32,6.05l-.26-.27s-.18.16-.36.32c-.18.16-.36.32-.36.32l.25.29s.18-.16.37-.32c.18-.17.36-.33.36-.33Z"/>
            </g>
            <g>
              <path class="cls-13" d="m34.4,5.11l-.23-.3s-.19.15-.38.31c-.19.16-.37.33-.37.33l.25.28s.17-.16.36-.32c.19-.15.37-.3.37-.3Z"/>
              <path class="cls-13" d="m35.57,4.31l-.19-.32s-.21.13-.42.26c-.21.14-.41.28-.41.28l.22.31s.19-.14.39-.27c.2-.12.41-.25.41-.25Z"/>
              <path class="cls-13" d="m36.84,3.67l-.14-.35s-.24.09-.45.2c-.22.11-.44.23-.44.23l.18.33s.21-.11.42-.22c.21-.11.44-.19.44-.19Z"/>
              <path class="cls-13" d="m38.18,3.23l-.08-.37s-.96.27-.96.27l.12.35s.91-.28.91-.26Z"/>
              <path class="cls-13" d="m39.57,3.09v-.38s-.25,0-.5.01c-.25,0-.5.07-.5.06l.05.37s.23-.06.47-.05c.24,0,.47-.01.47-.01Z"/>
              <path class="cls-13" d="m40.95,3.28l.1-.36s-.23-.1-.49-.12c-.25-.03-.5-.06-.5-.06l-.04.38s.24.03.47.06c.24.01.45.12.46.11Z"/>
              <path class="cls-13" d="m42.24,3.81l.18-.33s-.22-.11-.45-.22c-.11-.05-.23-.11-.31-.15-.09-.03-.15-.05-.15-.05l-.13.35s.06.02.14.04c.08.04.18.09.29.14.21.11.42.21.42.21Z"/>
            </g>
            <g>
              <path class="cls-13" d="m43.39,4.62l.25-.28s-.18-.17-.39-.31c-.2-.15-.4-.29-.4-.29l-.21.31s.19.14.38.28c.2.13.38.28.37.29Z"/>
              <path class="cls-13" d="m44.37,5.64l.29-.24s-.13-.21-.32-.38c-.18-.17-.36-.35-.36-.35l-.26.27s.17.17.34.33c.18.16.3.37.31.36Z"/>
              <path class="cls-13" d="m45.21,6.79l.31-.21s-.12-.22-.27-.41c-.15-.19-.3-.39-.3-.39l-.3.23s.15.19.29.38c.15.19.26.4.26.4Z"/>
              <polygon class="cls-13" points="45.96 8.01 46.29 7.83 45.78 6.99 45.46 7.19 45.96 8.01"/>
              <path class="cls-13" d="m46.74,9.26l.31-.22s-.52-.81-.52-.81l-.32.19s.51.85.53.83Z"/>
              <path class="cls-13" d="m47.69,10.39l.27-.26s-.62-.73-.62-.73l-.29.23s.61.78.64.75Z"/>
              <path class="cls-13" d="m48.81,11.36l.22-.3s-.2-.13-.38-.28c-.17-.16-.35-.33-.35-.33l-.25.28s.18.17.36.34c.19.16.4.29.4.29Z"/>
            </g>
            <g>
              <path class="cls-13" d="m50.09,12.1l.15-.34s-.86-.4-.83-.44l-.2.32s.88.46.88.46Z"/>
              <path class="cls-13" d="m51.5,12.56l.08-.37s-.91-.26-.91-.26l-.13.35s.95.31.96.27Z"/>
              <path class="cls-13" d="m52.98,12.71v-.38s-.24,0-.47-.01c-.24,0-.47-.06-.47-.05l-.05.37s.06,0,.15.02c.09.02.22.03.34.03l.5.02Z"/>
              <path class="cls-13" d="m54.45,12.6l-.06-.37s-.95.1-.95.1l.02.38s.99-.08.99-.1Z"/>
              <path class="cls-13" d="m55.88,12.28l-.1-.36s-.23.06-.46.12c-.23.06-.47.11-.47.11l.08.37s.24-.05.48-.11c.24-.06.48-.12.48-.12Z"/>
              <path class="cls-13" d="m57.27,11.8l-.13-.35s-.23.08-.45.17c-.23.08-.45.15-.45.15l.12.36s.24-.07.47-.16c.23-.09.46-.17.46-.17Z"/>
              <polygon class="cls-13" points="58.62 11.24 58.46 10.9 57.57 11.28 57.72 11.62 58.62 11.24"/>
            </g>
            <g>
              <path class="cls-13" d="m59.95,10.8l-.08-.37s-.24.04-.48.11c-.24.08-.48.16-.48.16l.14.35s.22-.08.44-.15c.22-.07.46-.11.46-.11Z"/>
              <path class="cls-13" d="m61.36,10.62l-.03-.37s-.25,0-.49.04c-.24.03-.49.06-.49.06l.06.37s.24-.03.47-.06c.24-.03.48-.04.48-.04Z"/>
              <polygon class="cls-13" points="62.78 10.6 62.8 10.22 61.81 10.22 61.82 10.6 62.78 10.6"/>
              <path class="cls-13" d="m64.2,10.75l.06-.37s-.24-.05-.49-.07c-.25-.02-.49-.04-.49-.04l-.03.38s.24.02.48.04c.24.02.47.07.47.07Z"/>
              <path class="cls-13" d="m65.59,11.05l.1-.36s-.95-.26-.96-.24l-.07.37s.93.23.93.23Z"/>
              <path class="cls-13" d="m66.92,11.54l.16-.34s-.92-.36-.92-.36l-.12.35s.89.33.88.35Z"/>
              <path class="cls-13" d="m68.12,12.26l.22-.3s-.2-.15-.4-.29c-.22-.12-.44-.23-.44-.23l-.18.33s.21.11.42.22c.19.14.38.28.38.28Z"/>
            </g>
            <g>
              <path class="cls-13" d="m69.17,13.2l.28-.25s-.17-.18-.35-.36c-.17-.19-.36-.35-.36-.34l-.24.29s.19.14.34.32c.16.17.33.34.33.34Z"/>
              <polygon class="cls-13" points="69.98 14.34 70.31 14.16 69.76 13.33 69.46 13.55 69.98 14.34"/>
              <path class="cls-13" d="m70.5,15.65l.36-.11c.05-.01-.35-.93-.35-.93l-.34.15s.38.87.33.88Z"/>
              <path class="cls-13" d="m70.76,17.03l.37-.04s.01-.25-.06-.49c-.06-.24-.11-.49-.11-.49l-.37.08s.05.23.11.46c.07.23.04.47.06.47Z"/>
              <path class="cls-13" d="m70.82,18.45l.38.02s-.03-.99-.03-.99l-.37.02s.07.95.03.95Z"/>
              <path class="cls-13" d="m70.62,19.84l.36.09s.05-.24.11-.49c.07-.24.05-.49.06-.49l-.37-.04s0,.24-.06.47c-.05.23-.1.46-.1.46Z"/>
              <polygon class="cls-13" points="70.2 21.19 70.54 21.34 70.88 20.4 70.52 20.29 70.2 21.19"/>
            </g>
            <g>
              <path class="cls-13" d="m69.53,22.44l.32.2s.16-.19.26-.42c.11-.22.23-.44.23-.44l-.34-.16s-.43.85-.46.83Z"/>
              <path class="cls-13" d="m68.67,23.55l.28.25s.17-.18.34-.37c.16-.19.29-.4.29-.4l-.31-.22s-.12.2-.28.39c-.16.17-.32.35-.32.35Z"/>
              <path class="cls-13" d="m67.63,24.51l.23.3s.19-.16.38-.31c.1-.08.19-.16.27-.22.06-.07.11-.11.11-.11l-.26-.27s-.04.04-.1.11c-.07.06-.16.13-.25.21-.18.15-.37.3-.37.3Z"/>
              <polygon class="cls-13" points="66.45 25.28 66.62 25.61 67.48 25.1 67.26 24.79 66.45 25.28"/>
              <polygon class="cls-13" points="65.15 25.84 65.27 26.2 66.19 25.82 66.03 25.48 65.15 25.84"/>
              <polygon class="cls-13" points="63.77 26.18 63.83 26.55 64.8 26.32 64.7 25.96 63.77 26.18"/>
              <polygon class="cls-13" points="62.36 26.32 62.37 26.69 63.35 26.6 63.31 26.23 62.36 26.32"/>
            </g>
            <g>
              <polygon class="cls-13" points="60.93 26.26 60.9 26.64 61.89 26.69 61.89 26.31 60.93 26.26"/>
              <polygon class="cls-13" points="59.52 26.06 59.45 26.43 60.42 26.61 60.47 26.23 59.52 26.06"/>
              <path class="cls-13" d="m58.13,25.74l-.1.36s.24.07.47.14c.12.04.24.06.33.08.09.02.15.03.15.03l.08-.37s-.06,0-.15-.03c-.09-.01-.21-.04-.32-.07-.23-.07-.46-.14-.46-.14Z"/>
              <polygon class="cls-13" points="56.76 25.32 56.63 25.68 57.57 25.96 57.68 25.6 56.76 25.32"/>
              <polygon class="cls-13" points="55.43 24.77 55.28 25.12 56.19 25.49 56.32 25.14 55.43 24.77"/>
              <path class="cls-13" d="m54.13,24.17l-.17.33s.21.11.43.23c.21.12.44.2.45.2l.15-.34s-.23-.08-.44-.2c-.21-.11-.43-.22-.43-.22Z"/>
              <polygon class="cls-13" points="52.86 23.5 52.67 23.83 53.54 24.29 53.71 23.95 52.86 23.5"/>
            </g>
          </g>
          <g>
            <path class="cls-11" d="m39.6,44.72h12.8c.63,0,1.14.51,1.14,1.14v6.57c0,.63-.51,1.14-1.14,1.14h-12.8c-.63,0-1.14-.51-1.14-1.14v-6.57c0-.63.51-1.14,1.14-1.14Z"/>
            <rect class="cls-5" x="38.45" y="47.77" width="15.08" height="2.62"/>
            <path class="cls-11" d="m47.07,49.79h-2.34c-6.42,0-11.62-5.21-11.62-11.62V1.79h25.59v36.38c0,6.42-5.21,11.62-11.62,11.62h0Z"/>
            <rect class="cls-5" x="33.11" y="1.79" width="25.59" height="2.85"/>
            <g>
              <g>
                <path class="cls-2" d="m34.35,4c0,.09-.08.17-.17.17h0c-.1,0-.17-.08-.17-.17v-1.57c0-.09.07-.17.17-.17h0c.09,0,.17.08.17.17v1.57Z"/>
                <path class="cls-2" d="m35.24,4c0,.09-.08.17-.17.17h0c-.09,0-.17-.08-.17-.17v-1.57c0-.09.07-.17.17-.17h0c.09,0,.17.08.17.17v1.57Z"/>
                <path class="cls-2" d="m36.14,4c0,.09-.08.17-.17.17h0c-.09,0-.17-.08-.17-.17v-1.57c0-.09.07-.17.17-.17h0c.09,0,.17.08.17.17v1.57Z"/>
                <path class="cls-2" d="m37.03,4c0,.09-.07.17-.17.17h0c-.09,0-.17-.08-.17-.17v-1.57c0-.09.08-.17.17-.17h0c.09,0,.17.08.17.17v1.57Z"/>
                <path class="cls-2" d="m37.93,4c0,.09-.08.17-.17.17h0c-.09,0-.17-.08-.17-.17v-1.57c0-.09.08-.17.17-.17h0c.09,0,.17.08.17.17v1.57Z"/>
                <path class="cls-2" d="m38.83,4c0,.09-.07.17-.17.17h0c-.09,0-.17-.08-.17-.17v-1.57c0-.09.08-.17.17-.17h0c.09,0,.17.08.17.17v1.57Z"/>
                <path class="cls-2" d="m39.72,4c0,.09-.07.17-.17.17h0c-.09,0-.17-.08-.17-.17v-1.57c0-.09.07-.17.17-.17h0c.09,0,.17.08.17.17v1.57Z"/>
                <path class="cls-2" d="m40.62,4c0,.09-.08.17-.17.17h0c-.09,0-.17-.08-.17-.17v-1.57c0-.09.08-.17.17-.17h0c.09,0,.17.08.17.17v1.57Z"/>
              </g>
              <g>
                <path class="cls-2" d="m41.51,4c0,.09-.07.17-.17.17h0c-.09,0-.17-.08-.17-.17v-1.57c0-.09.07-.17.17-.17h0c.09,0,.17.08.17.17v1.57Z"/>
                <path class="cls-2" d="m42.41,4c0,.09-.08.17-.17.17h0c-.1,0-.17-.08-.17-.17v-1.57c0-.09.07-.17.17-.17h0c.09,0,.17.08.17.17v1.57Z"/>
                <path class="cls-2" d="m43.31,4c0,.09-.07.17-.17.17h0c-.09,0-.17-.08-.17-.17v-1.57c0-.09.07-.17.17-.17h0c.09,0,.17.08.17.17v1.57Z"/>
                <path class="cls-2" d="m44.21,4c0,.09-.08.17-.17.17h0c-.09,0-.17-.08-.17-.17v-1.57c0-.09.07-.17.17-.17h0c.09,0,.17.08.17.17v1.57Z"/>
                <path class="cls-2" d="m45.1,4c0,.09-.07.17-.17.17h0c-.09,0-.17-.08-.17-.17v-1.57c0-.09.08-.17.17-.17h0c.1,0,.17.08.17.17v1.57Z"/>
                <path class="cls-2" d="m46,4c0,.09-.08.17-.17.17h0c-.09,0-.17-.08-.17-.17v-1.57c0-.09.08-.17.17-.17h0c.09,0,.17.08.17.17v1.57Z"/>
                <path class="cls-2" d="m46.89,4c0,.09-.08.17-.17.17h0c-.09,0-.17-.08-.17-.17v-1.57c0-.09.08-.17.17-.17h0c.09,0,.17.08.17.17v1.57Z"/>
                <path class="cls-2" d="m47.79,4c0,.09-.08.17-.17.17h0c-.09,0-.17-.08-.17-.17v-1.57c0-.09.07-.17.17-.17h0c.09,0,.17.08.17.17v1.57Z"/>
              </g>
              <path class="cls-2" d="m48.69,4c0,.09-.08.17-.17.17h0c-.09,0-.17-.08-.17-.17v-1.57c0-.09.08-.17.17-.17h0c.09,0,.17.08.17.17v1.57Z"/>
              <path class="cls-2" d="m49.58,4c0,.09-.07.17-.17.17h0c-.09,0-.17-.08-.17-.17v-1.57c0-.09.08-.17.17-.17h0c.09,0,.17.08.17.17v1.57Z"/>
              <path class="cls-2" d="m50.48,4c0,.09-.07.17-.17.17h0c-.09,0-.17-.08-.17-.17v-1.57c0-.09.08-.17.17-.17h0c.09,0,.17.08.17.17v1.57Z"/>
              <path class="cls-2" d="m51.37,4c0,.09-.08.17-.17.17h0c-.09,0-.17-.08-.17-.17v-1.57c0-.09.08-.17.17-.17h0c.09,0,.17.08.17.17v1.57Z"/>
              <path class="cls-2" d="m52.27,4c0,.09-.07.17-.17.17h0c-.09,0-.17-.08-.17-.17v-1.57c0-.09.07-.17.17-.17h0c.09,0,.17.08.17.17v1.57Z"/>
              <path class="cls-2" d="m53.17,4c0,.09-.07.17-.17.17h0c-.09,0-.17-.08-.17-.17v-1.57c0-.09.08-.17.17-.17h0c.1,0,.17.08.17.17v1.57Z"/>
              <path class="cls-2" d="m54.06,4c0,.09-.08.17-.17.17h0c-.09,0-.17-.08-.17-.17v-1.57c0-.09.07-.17.17-.17h0c.09,0,.17.08.17.17v1.57Z"/>
              <path class="cls-2" d="m54.96,4c0,.09-.08.17-.17.17h0c-.09,0-.17-.08-.17-.17v-1.57c0-.09.08-.17.17-.17h0c.09,0,.17.08.17.17v1.57Z"/>
              <path class="cls-2" d="m55.85,4c0,.09-.07.17-.17.17h0c-.09,0-.17-.08-.17-.17v-1.57c0-.09.07-.17.17-.17h0c.09,0,.17.08.17.17v1.57Z"/>
              <path class="cls-2" d="m56.75,4c0,.09-.07.17-.17.17h0c-.1,0-.17-.08-.17-.17v-1.57c0-.09.07-.17.17-.17h0c.09,0,.17.08.17.17v1.57Z"/>
              <path class="cls-2" d="m57.65,4c0,.09-.08.17-.17.17h0c-.09,0-.17-.08-.17-.17v-1.57c0-.09.08-.17.17-.17h0c.09,0,.17.08.17.17v1.57Z"/>
            </g>
            <rect class="cls-3" x="39.39" y="8.45" width="12.88" height="35.13"/>
            <path class="cls-5" d="m44.73,49.79h2.34c6.42,0,11.62-5.21,11.62-11.62v-19.83c-3.09,9.73-9.79,22.33-24.04,25.61,2.01,3.49,5.76,5.84,10.07,5.84Z"/>
          </g>
          <path class="cls-16" d="m6.57,8.47c-.68,0-1.23-.54-1.23-1.21s.55-1.21,1.23-1.21,1.23.54,1.23,1.21-.55,1.21-1.23,1.21Zm0-2.09c-.49,0-.89.39-.89.88s.4.88.89.88.89-.39.89-.88-.4-.88-.89-.88Z"/>
          <g>
            <path class="cls-14" d="m7.63,53.42h25.21c1.89,0,3.42-1.53,3.42-3.42v-10.08H4.21v10.08c0,1.89,1.54,3.42,3.42,3.42Z"/>
            <rect class="cls-9" x="9.26" y="42.71" width="21.31" height="8.2"/>
            <path class="cls-4" d="m33.18,39.91c-2.11,7.2-11.72,12.64-23.27,12.64-1.66,0-3.28-.11-4.84-.33.63.72,1.54,1.19,2.57,1.19h25.21c1.89,0,3.42-1.53,3.42-3.42v-10.08h-3.08Z"/>
            <path class="cls-13" d="m37.29,40.7c0,.52-.43.93-.95.93H4.2c-.53,0-.95-.42-.95-.93v-4.68c0-.51.43-.93.95-.93h32.15c.53,0,.95.42.95.93v4.68Z"/>
          </g>
          <g>
            <path class="cls-6" d="m20.23,14c-.96-.68-4.03-1.43-5.19,2.31-.25.82-.41,2.21-1.84,2.9-1.01.49-3.01,2.66-.48,5.11,2.52,2.45-.92,3.82,1.43,4.24,2.35.43,7.29-1.77,8.05-5.29,1.19-5.54-.03-7.91-1.97-9.27Z"/>
            <path class="cls-15" d="m22.96,21.67s-2.9,1.39-.65,3.33c2.25,1.94,4.73,3.81,5.27,2.46.54-1.35-3.52-5.14-4.62-5.8Z"/>
            <path class="cls-10" d="m19.01,20.59s-.45.13.71,2.42c1.16,2.29,1.44,2.34,1.44,2.34,0,0,2.95-.5,3.35-2.65,0,0-3.01-3.87-5.5-2.11Z"/>
            <path class="cls-15" d="m31.37,18.58c-.23.13-1.16.53-1.34,1.88-.19,1.35-2.96,4.08-3.93,3.77-.27-.08-.88-.64-.88-.64l-1.87,2.25s1.02,1.23,2.31,1.5c.51.11,2.11.14,4.31-4.12,2.44-4.71,1.56-4.74,1.4-4.65Z"/>
            <path class="cls-13" d="m24.26,29.39c-.65-2.51-.23-5.44-1-7.53-1.07-2.9-3.91-2.64-5.58-2.16-1.67.49-4.44,1.22-2.91,4.76,1.07,2.47.68,4.14.24,6.75h0c-.02.07-.03.13-.04.19h0,0c-.92,2.91,9.95.54,9.29-2.02Z"/>
            <path class="cls-1" d="m16.39,31.33s3.94-2,10.84-.55c6.91,1.46,8.8,5.42,11.86,3.55.33-.2.83-1.12,1.18-1.02.35.1.02,2.73-1.7,3.07,0,0-3.67.81-8.51-.51-5.89-1.6-10.96,3.73-14.02-.84-.55-.81-1.21-1.91.34-3.71Z"/>
            <path class="cls-15" d="m16.39,31.33s3.94-2,10.84-.55c6.91,1.46,8.8,5.42,11.86,3.55.33-.2.83-1.12,1.18-1.02.35.1.02,2.73-1.7,3.07,0,0-3.67.81-8.51-.51-5.89-1.6-10.96,3.73-14.02-.84-.55-.81-1.21-1.91.34-3.71Z"/>
            <path class="cls-12" d="m20.27,37.05s5.55-1.57,7.57-1.19c2.02.39,6.81,1.33,8.77.97,0,0,.94-.98.42-2.32,0,0-6.53-3.25-7.78-3.5-1.25-.25-3-.62-6.06-.46-3.06.17-2.92,6.5-2.92,6.5Z"/>
            <path class="cls-8" d="m18.1,17.01s.27,1.87-.32,2.66c-.38.51,2.57,1.76,2.53,1.06-.05-.9-.54-1.47.07-2.46l-2.28-1.26Z"/>
            <path class="cls-15" d="m20.18,14.57c.72.8,2.37,4.6.55,5.25-.82.29-2.37-.56-3.2-2.06-.34-.62-.32-1.86.37-2.92.31-.48,1.43-1.2,2.28-.27Z"/>
            <path class="cls-6" d="m21.2,15.87c.06.47-1.12-1.1-1.42-.13-.31,1.02-1.27.7-1.47,2.56-.14,1.27-1.67-.99-1.77-1.17q-.44-.75.39-2.28c.82-1.54,3.98-1.34,4.27,1.01Z"/>
            <path class="cls-15" d="m17,23.34s-4.37,12.37-7.47,12.5c-3.14.13-4.33-.17-3.14-.72,1.19-.55,2.37.02,3.17-1.18.8-1.21,3.19-10.16,4.72-11.17,1.53-1.01,2.72.58,2.72.58Z"/>
            <path class="cls-10" d="m17.04,21.04s-1.33-.92-2.76,1.02c-1.43,1.93-1.78,2.97-1.78,2.97,0,0,1.26,1.28,3.64,1.9,0,0,2.95-4.86.9-5.89Z"/>
            <path class="cls-6" d="m25.4,31.23l-2.27,5.12s-2.73.86-3.76.78c-1.03-.08,6.03-5.9,6.03-5.9Z"/>
            <path class="cls-15" d="m15.37,33.35c-.05,1.73,1.24,5.17,5.75,2.93,1.64-.81,2.63-3.95,4.81-5.47,1.51-1.05-.47,6.69,3.4,6.88,0,0,1.84.2,1.59-.29-.25-.49-1.89-.8-1.87-1.54.02-.73,1.87-9.71-1.01-10.36-2.89-.65-12.57,4.33-12.66,7.85Z"/>
            <path class="cls-16" d="m15.73,31.44c-1.13,1.54-1.24,5.75,3.54,5.77,1.48,0,2.6-.98,4.22-3.44,0,0,2.15-3.59,2.74-2.69.43.66.16,3.29.58,4.77,0,0,1.31.42,2.48-.36,0,0,2.1-8.72-1.32-10.2-2.49-1.07-9.5,2.4-12.23,6.14Z"/>
          </g>
          <path class="cls-13" d="m64.61,18.73c.14-.17.2-.78.43-.78s.27.62.42.78c.16.16.79.21.78.43-.01.22-.64.25-.78.43-.14.17-.21.79-.42.78-.22-.02-.25-.64-.43-.78-.18-.14-.8-.21-.78-.43.01-.22.64-.25.78-.43Z"/>
          <path class="cls-11" d="m61.84,16.52c.03.38-.25.71-.62.74-.38.03-.71-.25-.74-.62-.04-.38.25-.71.62-.74.38-.03.71.25.74.63Z"/>
          <path class="cls-2" d="m62.79,40.13c-.67,0-1.21-.54-1.21-1.19s.54-1.19,1.21-1.19,1.22.54,1.22,1.19-.55,1.19-1.22,1.19Zm0-2.06c-.48,0-.88.39-.88.87s.4.87.88.87.88-.39.88-.87-.4-.87-.88-.87Z"/>
        </g>
      </g>
    </g>
  </g>
</svg>