<?xml version="1.0" encoding="UTF-8"?>
<svg xmlns="http://www.w3.org/2000/svg" viewBox="0 0 64.42 74.81">
  <defs>
    <style>
      .cls-1 {
        fill: #fff;
      }

      .cls-2 {
        fill: #8196fc;
      }

      .cls-3 {
        fill: #8861e5;
      }

      .cls-4 {
        fill: #5a70e0;
      }

      .cls-5 {
        fill: #1d1b3a;
      }

      .cls-6 {
        isolation: isolate;
      }

      .cls-7 {
        fill: #ad3915;
      }

      .cls-8 {
        fill: #7585f8;
      }

      .cls-9 {
        fill: #f28f19;
      }

      .cls-10 {
        fill: #b38cff;
      }

      .cls-11 {
        mix-blend-mode: overlay;
        opacity: .3;
      }

      .cls-12 {
        fill: #88cfee;
      }

      .cls-13 {
        fill: #ef60ae;
      }

      .cls-14 {
        fill: #f4a517;
      }

      .cls-15 {
        fill: #a4dcff;
      }

      .cls-16 {
        fill: #be4719;
      }

      .cls-17 {
        fill: #f268b4;
      }
    </style>
  </defs>
  <g class="cls-6">
    <g id="Layer_2" data-name="Layer 2">
      <g id="Layer_1-2" data-name="Layer 1">
        <g>
          <g>
            <g>
              <path class="cls-17" d="m15.46,63.38l-.25-.13s-.08.15-.16.31c-.1.14-.19.28-.19.28l.23.17s.11-.15.21-.3c.08-.17.17-.33.17-.33Z"/>
              <path class="cls-17" d="m15.75,62.32l-.28-.05s-.13.67-.16.67l.27.1s.18-.72.17-.72Z"/>
              <path class="cls-17" d="m15.76,61.22l-.28.03s.04.69.02.69l.28.03s0-.74-.03-.74Z"/>
              <path class="cls-17" d="m15.54,60.15l-.27.08s.17.68.17.68l.27-.05s-.04-.18-.08-.36c-.03-.18-.09-.35-.09-.35Z"/>
              <path class="cls-17" d="m15.13,59.14l-.25.13s.09.15.15.31c.07.16.13.32.13.32l.26-.1s-.07-.17-.14-.34c-.07-.17-.16-.33-.16-.33Z"/>
              <path class="cls-17" d="m14.56,58.22l-.23.17s.11.14.2.28c.09.15.18.3.18.3l.24-.14s-.1-.15-.19-.31c-.1-.16-.21-.3-.21-.3Z"/>
              <path class="cls-17" d="m13.84,57.4l-.2.2s.13.11.25.24c.11.13.23.26.23.26l.22-.18s-.12-.14-.24-.27c-.12-.14-.26-.26-.26-.26Z"/>
            </g>
            <g>
              <path class="cls-17" d="m12.98,56.73l-.15.24s.15.09.28.19c.14.11.27.22.27.22l.18-.21s-.14-.12-.29-.23c-.14-.11-.3-.2-.3-.2Z"/>
              <path class="cls-17" d="m12.01,56.24l-.1.26s.17.05.32.13c.16.08.31.16.31.16l.13-.25s-.16-.08-.33-.17c-.17-.08-.34-.13-.34-.13Z"/>
              <path class="cls-17" d="m10.94,56l-.03.28s.17.02.34.04c.17.04.33.08.33.08l.07-.27s-.18-.04-.36-.08c-.18-.04-.36-.05-.36-.05Z"/>
              <path class="cls-17" d="m9.85,56.01l.04.28s.17-.03.34-.04c.17,0,.35,0,.35,0v-.28s-.18,0-.36,0c-.18,0-.37.04-.37.04Z"/>
              <path class="cls-17" d="m8.79,56.29l.1.26s.66-.2.66-.2l-.06-.27s-.71.19-.7.21Z"/>
              <path class="cls-17" d="m7.81,56.76l.15.24s.15-.08.31-.17c.08-.04.15-.08.21-.12.06-.02.1-.04.1-.04l-.12-.25s-.65.34-.65.34Z"/>
              <polygon class="cls-17" points="6.92 57.37 7.09 57.59 7.67 57.19 7.51 56.96 6.92 57.37"/>
            </g>
            <g>
              <path class="cls-17" d="m6.05,57.96l.15.24s.15-.09.31-.19c.15-.1.29-.21.29-.21l-.16-.23s-.15.1-.29.2c-.15.09-.3.18-.3.18Z"/>
              <path class="cls-17" d="m5.13,58.46l.12.25s.65-.32.64-.33l-.14-.24s-.62.33-.62.33Z"/>
              <polygon class="cls-17" points="4.17 58.86 4.26 59.13 4.94 58.87 4.82 58.61 4.17 58.86"/>
              <path class="cls-17" d="m3.16,59.12l.05.28s.18-.03.36-.07c.17-.05.35-.1.35-.1l-.08-.27s-.17.05-.34.09c-.17.03-.34.06-.34.06Z"/>
              <path class="cls-17" d="m2.13,59.21v.28s.73-.04.73-.04l-.04-.28s-.69.06-.69.04Z"/>
              <path class="cls-17" d="m1.1,59.13l-.05.28s.72.1.72.08l.02-.28s-.69-.07-.69-.07Z"/>
              <path class="cls-17" d="m.1,58.86l-.1.26s.17.06.34.12c.18.04.36.09.36.09l.06-.27s-.17-.04-.34-.08c-.17-.06-.33-.11-.33-.11Z"/>
            </g>
          </g>
          <g>
            <g>
              <polygon class="cls-14" points="22.7 47.19 23.06 47.13 22.92 46.22 22.55 46.26 22.7 47.19"/>
              <polygon class="cls-14" points="22.95 48.56 23.31 48.49 23.14 47.57 22.77 47.64 22.95 48.56"/>
              <polygon class="cls-14" points="23.25 49.91 23.61 49.83 23.4 48.93 23.04 49 23.25 49.91"/>
              <polygon class="cls-14" points="23.59 51.26 23.94 51.17 23.71 50.27 23.36 50.36 23.59 51.26"/>
              <path class="cls-14" d="m23.97,52.6l.35-.11s-.07-.22-.13-.44c-.06-.22-.13-.45-.13-.45l-.35.1s.06.22.13.45c.07.22.13.45.13.45Z"/>
              <polygon class="cls-14" points="24.4 53.93 24.74 53.81 24.45 52.93 24.11 53.04 24.4 53.93"/>
              <path class="cls-14" d="m24.87,55.23l.34-.13s-.08-.22-.16-.43c-.08-.22-.16-.44-.16-.44l-.34.12s.08.22.16.44c.08.22.16.44.16.44Z"/>
            </g>
            <g>
              <polygon class="cls-14" points="25.39 56.52 25.73 56.38 25.37 55.53 25.04 55.66 25.39 56.52"/>
              <polygon class="cls-14" points="25.97 57.79 26.3 57.63 25.91 56.79 25.58 56.94 25.97 57.79"/>
              <path class="cls-14" d="m26.62,59.03l.32-.18s-.12-.2-.22-.4c-.11-.21-.21-.41-.21-.41l-.33.17s.11.21.21.42c.1.21.23.41.23.41Z"/>
              <path class="cls-14" d="m27.34,60.23l.31-.2s-.12-.19-.25-.39c-.13-.19-.23-.4-.23-.4l-.32.18s.11.21.24.4c.12.2.25.4.25.4Z"/>
              <polygon class="cls-14" points="28.13 61.37 28.42 61.16 27.89 60.41 27.58 60.61 28.13 61.37"/>
              <path class="cls-14" d="m29.02,62.46l.27-.24s-.59-.71-.59-.71l-.29.23s.59.73.6.72Z"/>
              <path class="cls-14" d="m30.01,63.45l.25-.27s-.17-.15-.34-.31c-.17-.16-.32-.33-.32-.33l-.26.25s.16.18.33.34c.17.16.35.32.35.32Z"/>
            </g>
            <g>
              <polygon class="cls-14" points="31.09 64.34 31.31 64.05 30.58 63.49 30.35 63.76 31.09 64.34"/>
              <path class="cls-14" d="m32.29,65.08l.17-.32s-.79-.46-.79-.46l-.2.3s.2.13.4.26c.19.13.41.23.41.23Z"/>
              <path class="cls-14" d="m33.59,65.65l.12-.35s-.21-.08-.43-.16c-.22-.07-.42-.19-.42-.19l-.16.33s.2.12.43.19c.22.08.44.17.44.17Z"/>
              <polygon class="cls-14" points="34.95 66.03 35.02 65.67 34.13 65.45 34.02 65.8 34.95 66.03"/>
              <path class="cls-14" d="m36.35,66.18l.02-.36s-.23.01-.46-.03c-.22-.03-.45-.06-.45-.06l-.05.36s.24.03.47.06c.23.04.47.03.47.03Z"/>
              <path class="cls-14" d="m37.75,66.14l-.03-.36s-.23.02-.45.04c-.23,0-.46,0-.46,0v.36s.24.01.47,0c.24-.02.47-.05.47-.05Z"/>
              <path class="cls-14" d="m39.14,65.94l-.06-.36s-.91.19-.91.16l.05.36s.92-.16.92-.16Z"/>
            </g>
            <g>
              <polygon class="cls-14" points="40.51 65.67 40.42 65.31 39.52 65.49 39.59 65.85 40.51 65.67"/>
              <polygon class="cls-14" points="41.85 65.27 41.74 64.92 40.86 65.2 40.95 65.55 41.85 65.27"/>
              <path class="cls-14" d="m43.16,64.79l-.14-.34s-.21.09-.42.19c-.21.09-.43.15-.43.15l.12.34s.23-.06.44-.15c.22-.1.43-.19.43-.19Z"/>
              <path class="cls-14" d="m44.44,64.21l-.17-.32s-.05.03-.12.07c-.08.03-.19.08-.29.13-.21.09-.42.18-.42.18l.15.33s.87-.37.85-.39Z"/>
              <polygon class="cls-14" points="45.65 63.5 45.45 63.2 44.66 63.66 44.84 63.98 45.65 63.5"/>
              <polygon class="cls-14" points="46.78 62.68 46.56 62.4 45.82 62.94 46.03 63.25 46.78 62.68"/>
              <polygon class="cls-14" points="47.84 61.77 47.6 61.5 46.91 62.12 47.15 62.4 47.84 61.77"/>
            </g>
            <g>
              <polygon class="cls-14" points="48.83 60.79 48.57 60.54 47.93 61.2 48.19 61.46 48.83 60.79"/>
              <rect class="cls-14" x="48.86" y="59.81" width=".93" height=".37" transform="translate(-28.28 57.02) rotate(-48.38)"/>
              <rect class="cls-14" x="49.78" y="58.77" width=".93" height=".36" transform="translate(-27.21 58.51) rotate(-49.23)"/>
              <polygon class="cls-14" points="51.59 57.67 51.32 57.43 50.7 58.13 50.98 58.37 51.59 57.67"/>
              <path class="cls-14" d="m52.53,56.67l-.26-.26s-.16.17-.33.34c-.17.16-.32.34-.32.34l.27.25s.15-.18.32-.34c.16-.17.32-.33.32-.33Z"/>
              <path class="cls-14" d="m53.52,55.72l-.24-.27s-.18.15-.35.31c-.17.15-.33.33-.33.33l.26.26s.15-.17.33-.32c.17-.15.34-.3.34-.3Z"/>
              <path class="cls-14" d="m54.58,54.85l-.22-.29s-.19.14-.38.27c-.18.15-.35.31-.35.31l.24.28s.17-.15.35-.3c.19-.13.37-.27.37-.27Z"/>
            </g>
            <g>
              <path class="cls-14" d="m55.71,54.09l-.19-.31s-.05.03-.13.07c-.08.04-.18.1-.27.17-.19.14-.38.27-.38.27l.21.3s.19-.13.38-.27c.09-.07.19-.13.27-.17.08-.04.13-.07.13-.07Z"/>
              <path class="cls-14" d="m56.91,53.44l-.16-.33s-.21.11-.42.22c-.21.11-.41.23-.41.23l.18.32s.2-.11.4-.22c.2-.11.4-.22.4-.22Z"/>
              <polygon class="cls-14" points="58.17 52.92 58.05 52.58 57.18 52.93 57.32 53.27 58.17 52.92"/>
              <polygon class="cls-14" points="59.48 52.53 59.39 52.18 58.48 52.42 58.6 52.77 59.48 52.53"/>
              <polygon class="cls-14" points="60.83 52.16 60.72 51.81 59.83 52.05 59.92 52.41 60.83 52.16"/>
              <path class="cls-14" d="m62.15,51.62l-.2-.31s-.05.03-.12.07c-.07.05-.17.09-.27.13-.21.09-.42.17-.42.17l.14.34s.22-.09.45-.19c.11-.04.22-.09.3-.14.08-.05.13-.08.13-.08Z"/>
              <path class="cls-14" d="m63.26,50.73l-.28-.24s-.04.04-.09.1c-.06.06-.13.15-.22.21-.18.14-.35.28-.35.28l.23.29s.19-.15.37-.3c.1-.07.18-.16.24-.23.06-.07.1-.11.1-.11Z"/>
            </g>
            <g>
              <path class="cls-14" d="m64.04,49.52l-.33-.16s-.1.2-.19.4c-.12.19-.25.37-.25.37l.3.21s.13-.2.27-.4c.11-.22.21-.43.21-.43Z"/>
              <path class="cls-14" d="m64.39,48.13l-.36-.06s-.15.88-.18.87l.35.12s.22-.94.2-.94Z"/>
              <path class="cls-14" d="m64.37,46.7l-.36.04s.07.89.05.89l.37.03s-.03-.96-.05-.96Z"/>
              <path class="cls-14" d="m64.04,45.32l-.35.11s.24.88.24.88l.36-.07s-.06-.23-.11-.46c-.05-.23-.14-.45-.14-.45Z"/>
              <path class="cls-14" d="m63.48,44.02l-.32.17s.12.19.2.4c.09.21.18.42.18.42l.34-.13s-.09-.22-.19-.44c-.09-.22-.21-.43-.21-.43Z"/>
              <path class="cls-14" d="m62.72,42.83l-.29.22s.15.18.27.37c.12.19.25.38.25.38l.31-.19s-.13-.2-.26-.4c-.13-.2-.28-.38-.28-.38Z"/>
              <path class="cls-14" d="m61.76,41.79l-.25.27s.18.14.33.31c.16.17.31.34.31.34l.28-.24s-.16-.17-.32-.35c-.16-.18-.34-.33-.34-.33Z"/>
            </g>
            <g>
              <path class="cls-14" d="m60.63,40.94l-.19.31s.2.11.38.25c.18.14.36.27.36.27l.23-.28s-.19-.14-.38-.29c-.19-.14-.4-.26-.4-.26Z"/>
              <path class="cls-14" d="m59.34,40.33l-.12.35s.22.06.42.16c.2.1.41.19.41.19l.17-.32s-.22-.1-.43-.21c-.22-.1-.45-.17-.45-.17Z"/>
              <path class="cls-14" d="m57.95,40.04l-.03.36s.23.01.45.05c.22.05.44.09.44.09l.09-.35s-.23-.05-.47-.1c-.24-.04-.48-.05-.48-.05Z"/>
              <path class="cls-14" d="m56.52,40.09l.06.36s.22-.05.45-.06c.23,0,.45-.02.45-.02v-.37s-.24,0-.48.02c-.24.01-.48.06-.48.06Z"/>
              <path class="cls-14" d="m55.15,40.47l.14.34s.86-.28.86-.28l-.09-.35s-.92.27-.91.29Z"/>
              <path class="cls-14" d="m53.89,41.12l.2.31s.2-.11.4-.23c.1-.06.2-.11.27-.16.08-.03.13-.06.13-.06l-.16-.33s-.83.46-.83.46Z"/>
              <polygon class="cls-14" points="52.75 41.94 52.98 42.23 53.72 41.68 53.51 41.38 52.75 41.94"/>
            </g>
            <g>
              <path class="cls-14" d="m51.64,42.73l.2.31s.2-.13.4-.25c.19-.14.38-.28.38-.28l-.22-.29s-.18.14-.37.27c-.19.12-.39.25-.39.25Z"/>
              <path class="cls-14" d="m50.46,43.41l.17.33s.84-.43.82-.45l-.19-.31s-.8.44-.8.44Z"/>
              <polygon class="cls-14" points="49.21 43.96 49.34 44.31 50.21 43.95 50.06 43.61 49.21 43.96"/>
              <path class="cls-14" d="m47.9,44.31l.07.36s.23-.05.46-.1c.23-.07.45-.14.45-.14l-.11-.35s-.22.07-.44.13c-.22.05-.45.09-.45.09Z"/>
              <path class="cls-14" d="m46.56,44.47v.37s.96-.08.96-.08l-.05-.36s-.9.1-.91.07Z"/>
              <path class="cls-14" d="m45.22,44.39l-.06.36s.95.11.95.08v-.37s-.89-.08-.89-.08Z"/>
              <path class="cls-14" d="m43.91,44.06l-.12.35s.23.07.45.14c.23.05.47.11.47.11l.07-.36s-.22-.05-.44-.1c-.22-.07-.43-.14-.43-.14Z"/>
            </g>
            <g>
              <path class="cls-14" d="m42.66,43.53l-.17.32s.2.12.42.21c.22.09.44.19.44.19l.13-.34s-.21-.09-.42-.18c-.21-.09-.41-.21-.41-.21Z"/>
              <path class="cls-14" d="m41.51,42.82l-.21.3s.79.52.79.52l.18-.32s-.77-.48-.76-.5Z"/>
              <path class="cls-14" d="m40.45,41.96l-.25.27s.18.15.36.31c.18.16.37.3.37.3l.22-.29s-.7-.59-.7-.59Z"/>
              <path class="cls-14" d="m39.49,40.99l-.27.25s.16.17.32.35c.17.17.33.33.33.33l.25-.26s-.16-.16-.33-.32c-.16-.17-.31-.34-.31-.34Z"/>
              <path class="cls-14" d="m38.61,39.94l-.29.22s.14.19.29.37c.15.18.3.36.3.36l.28-.24s-.15-.18-.29-.35c-.15-.17-.28-.36-.28-.36Z"/>
              <path class="cls-14" d="m37.82,38.82l-.31.2s.13.2.26.39c.13.19.27.38.27.38l.3-.21s-.13-.19-.26-.38c-.13-.19-.26-.38-.26-.38Z"/>
              <path class="cls-14" d="m37.11,37.64l-.32.18s.12.2.23.41c.12.2.24.4.24.4l.31-.19s-.12-.19-.24-.4c-.12-.2-.23-.4-.23-.4Z"/>
            </g>
            <g>
              <path class="cls-14" d="m36.49,36.42l-.33.16s.1.21.2.42c.1.21.22.42.22.42l.32-.17s-.11-.2-.21-.41c-.1-.21-.2-.42-.2-.42Z"/>
              <path class="cls-14" d="m35.96,35.16l-.34.13s.09.22.17.44c.09.21.18.43.18.43l.34-.15s-.09-.21-.18-.42c-.08-.21-.17-.43-.17-.43Z"/>
              <path class="cls-14" d="m35.53,33.86l-.35.1s.07.22.13.45c.07.23.15.45.15.45l.35-.12s-.08-.21-.15-.44c-.07-.22-.13-.44-.13-.44Z"/>
              <path class="cls-14" d="m35.24,32.49l-.34.14.02.13c.03.25.09.5.14.76l.35-.09c-.06-.26-.11-.53-.15-.8l-.03-.14Z"/>
              <path class="cls-14" d="m34.44,31.3l-.29.22s.14.18.27.36c.14.18.25.37.25.37l.33-.17s-.12-.21-.27-.4c-.14-.2-.29-.38-.29-.38Z"/>
              <path class="cls-14" d="m33.5,30.25l-.25.26s.63.67.63.67l.28-.24s-.63-.7-.65-.69Z"/>
              <path class="cls-14" d="m32.43,29.33l-.22.29s.72.57.7.58l.25-.27s-.73-.6-.73-.6Z"/>
            </g>
            <g>
              <path class="cls-14" d="m31.24,28.57l-.17.32s.21.1.4.22c.19.13.38.25.38.25l.21-.3s-.2-.13-.4-.26c-.2-.13-.41-.23-.41-.23Z"/>
              <path class="cls-14" d="m29.96,27.99l-.13.34s.85.33.84.35l.16-.33s-.87-.37-.87-.37Z"/>
              <polygon class="cls-14" points="28.6 27.6 28.53 27.95 29.41 28.18 29.52 27.84 28.6 27.6"/>
              <path class="cls-14" d="m27.2,27.43l-.02.37s.91.09.91.09l.05-.36s-.94-.14-.94-.1Z"/>
              <path class="cls-14" d="m25.79,27.46l.03.36s.05,0,.14-.02c.08-.01.2-.02.31-.02.23,0,.46,0,.46,0v-.37s-.24,0-.47,0c-.12,0-.24,0-.33.02-.09,0-.15.02-.15.02Z"/>
              <path class="cls-14" d="m24.4,27.67l.07.36s.05-.01.14-.03c.08-.03.19-.05.31-.06.23-.03.45-.06.45-.06l-.05-.36s-.23.03-.47.06c-.12,0-.23.03-.32.06-.08.02-.14.03-.14.03Z"/>
              <path class="cls-14" d="m23.04,28.02l.11.35s.89-.23.89-.23l-.09-.35s-.92.22-.91.24Z"/>
            </g>
            <g>
              <polygon class="cls-14" points="21.72 28.46 21.85 28.8 22.72 28.51 22.61 28.16 21.72 28.46"/>
              <polygon class="cls-14" points="20.42 28.96 20.56 29.29 21.42 28.96 21.29 28.62 20.42 28.96"/>
              <path class="cls-14" d="m19.14,29.52l.16.33s.21-.1.42-.19c.21-.09.42-.18.42-.18l-.14-.33s-.22.09-.43.19c-.22.09-.43.19-.43.19Z"/>
              <path class="cls-14" d="m17.9,30.15l.17.32s.2-.11.41-.22c.21-.1.41-.2.41-.2l-.16-.33s-.21.1-.42.21c-.2.11-.41.22-.41.22Z"/>
              <path class="cls-14" d="m16.71,30.83l.15.34s.21-.12.41-.25c.2-.12.4-.24.4-.24l-.18-.32s-.2.12-.4.24c-.19.12-.38.23-.38.23Z"/>
              <polygon class="cls-14" points="15.6 31.56 15.66 31.95 16.47 31.42 16.34 31.07 15.6 31.56"/>
              <path class="cls-14" d="m14.44,32.21l-.02.41s.06-.02.14-.04c.08-.03.19-.09.29-.14.21-.11.41-.24.41-.24l-.03-.4s-.19.12-.38.23c-.1.05-.2.11-.28.14-.08.02-.13.04-.13.04Z"/>
            </g>
          </g>
          <g>
            <path class="cls-7" d="m31.14,40.5c-.24.12-1.16.51-1.36,1.84-.2,1.33-2.99,3.98-3.95,3.68-1.6-.49-1.86-2.36-1.86-2.36l-2.94,1.8s2.28,3.54,4.32,3.65c.52.02,2.09.17,4.34-4.02,2.48-4.63,1.62-4.67,1.46-4.59Z"/>
            <g>
              <g>
                <polygon class="cls-10" points="15.98 10.88 40.54 4.19 47.02 14.68 29.74 33.19 15.98 10.88"/>
                <polygon class="cls-3" points="52.37 13.13 46.04 15.15 39.63 4.75 44.27 0 52.37 13.13"/>
                <path class="cls-10" d="m37.66,46.01c.46.76.23,1.75-.53,2.21l-4.91,3.03c-.76.47-1.75.23-2.21-.52l-9.44-15.3c-.47-.76-.23-1.75.52-2.21l4.91-3.03c.76-.47,1.75-.23,2.22.52l9.44,15.3Z"/>
                <path class="cls-3" d="m31.61,16.79c3.96,6.43,1.97,14.87-4.46,18.83-6.43,3.97-14.86,1.97-18.83-4.46-3.97-6.43-1.97-14.86,4.46-18.83,6.43-3.97,14.86-1.97,18.83,4.46Z"/>
                <path class="cls-11" d="m25.41,20.02c1.94,3.15.96,7.29-2.19,9.23-3.15,1.95-7.29.97-9.23-2.19-1.94-3.15-.96-7.29,2.19-9.23,3.15-1.94,7.29-.97,9.23,2.19Z"/>
              </g>
              <path class="cls-3" d="m34.51,35.63c.42.57.29,1.38-.28,1.79l-4.16,3.02c-.57.42-1.38.29-1.79-.28h0c-.42-.57-.29-1.38.28-1.79l4.16-3.02c.57-.42,1.38-.29,1.79.28h0Z"/>
              <path class="cls-8" d="m21.88,23.09c.12,1.18-.73,2.23-1.91,2.35-1.18.12-2.23-.73-2.35-1.91-.12-1.18.73-2.23,1.91-2.35,1.18-.12,2.23.73,2.35,1.91Z"/>
            </g>
            <path class="cls-9" d="m20.61,42.09c-.44.35-1.63.73-1.06,2.36.45,1.27,3.15,3.22,3.15,3.22,0,0,2.09-.61,2.49-2.36,0,0-2.93-4.53-4.58-3.22Z"/>
            <path class="cls-16" d="m22.65,52.39s2.4,3.29,2.23,9.86c-.18,6.56-3.38,8.93-1.23,11.44.23.27,1.12.58,1.09.92-.03.33-2.41.45-2.99-1.07,0,0-1.3-3.24-.91-7.88.47-5.65-5.05-9.45-1.52-12.98.63-.63,1.49-1.42,3.33-.28Z"/>
            <path class="cls-13" d="m17.71,55.27s2.78,6.43,2.77,8.34c-.02,1.91-.08,6.45.56,8.2,0,0,1.02.71,2.12.02,0,0,1.83-6.5,1.84-7.69.01-1.19.08-3.84-.46-6.64-2.55-13.13-6.83-2.23-6.83-2.23Z"/>
            <path class="cls-16" d="m19.58,52.28s1.23,3.92-1.01,10c-2.25,6.07-6.05,7.16-4.8,10.26.14.33.88.94.75,1.23-.14.3-2.43-.42-2.5-2.05,0,0-.21-3.48,1.63-7.68,2.24-5.12-1.8-10.62,2.68-12.66.8-.37,1.87-.8,3.26.91Z"/>
            <path class="cls-17" d="m13.97,53.23s.6,6.99-.02,8.77c-.62,1.78-2.13,6-2.07,7.86,0,0,.74,1.01,2,.76,0,0,3.8-5.43,4.19-6.54.39-1.1,1.3-3.56,1.67-6.36,1.74-13.17-5.78-4.49-5.78-4.49Z"/>
            <path class="cls-5" d="m20.32,36.89c-.72-.77-3.47-2.03-4.99,1.06-.75,1.51-2.12,1.16-2.9,2.35-1.54,2.34.62,3.57-1.18,6.9-1.5,2.78,1.74,4.18,3.65,4.47,5.68.88,4.09-3.32,5.41-6.27,2.08-4.64,1.46-6.95,0-8.51Z"/>
            <path class="cls-14" d="m23.27,52.11c-.69-2.22-.68-5.38-.78-7.39-.18-3.51-3.04-2.87-4.6-2.7-1.87.22-4.72,1.59-3.35,4.77,1.21,2.8-.98,4.25-.78,6.26.22,2.21,10.2,1.32,9.5-.95Z"/>
            <path class="cls-7" d="m17.83,39.74s.33,1.66-.18,2.4c-.32.47,2.38,1.47,2.32.84-.09-.81-.55-1.29-.04-2.21l-2.1-1.03Z"/>
            <path class="cls-16" d="m20.18,37.39c.49.84,1.22,4.48-.5,4.72-.77.1-2.06-.9-2.5-2.38-.18-.61.15-1.72.95-2.53.36-.37,1.48-.79,2.04.19Z"/>
            <path class="cls-5" d="m20.82,38.72c-.04.43-.77-1.18-1.22-.38-.47.84-1.37.38-1.9,1.98-.36,1.09-1.16-1.19-1.21-1.36q-.25-.74.77-1.93c1.01-1.19,3.74-.43,3.56,1.69Z"/>
            <path class="cls-1" d="m15.32,56.66c1.47-.16,1.83-1.5,1.84-1.52l-.26-.07c-.01.05-.33,1.18-1.61,1.32-.01,0-.03,0-.04,0l.02.26s.03,0,.04,0Z"/>
            <path class="cls-16" d="m25.14,40.43c-.21.17-1.04.72-.99,2.07.05,1.34-2.19,4.47-3.19,4.36-1.66-.18-2.27-1.97-2.27-1.97l-2.55,2.33s2.91,3.04,4.94,2.76c.52-.07,2.09-.23,3.5-4.77,1.57-5.02.71-4.9.56-4.78Z"/>
            <path class="cls-9" d="m14.54,43.55c-.51.45-.97,1.15.18,2.73.96,1.32,2.17,2.25,2.17,2.25,0,0,2.48-.89,2.83-3.03,0,0-3.28-3.65-5.18-1.95Z"/>
            <path class="cls-5" d="m23.15,52.78s-.79,1.4-5.85,1.55c0,0-2.53-.03-3.31-.81l.11,1.09s6.53,1.59,9.04-1.83Z"/>
          </g>
          <path class="cls-2" d="m46.32,41.81c-.67,0-1.21-.54-1.21-1.19s.54-1.19,1.21-1.19,1.21.54,1.21,1.19-.54,1.19-1.21,1.19Zm0-2.06c-.48,0-.88.39-.88.87s.4.87.88.87.88-.39.88-.87-.39-.87-.88-.87Z"/>
          <path class="cls-15" d="m4.91,32.85c.14-.17.2-.78.43-.78s.27.62.42.78c.16.16.79.2.78.43-.01.22-.64.25-.78.43-.14.17-.21.79-.42.78-.22-.02-.25-.64-.43-.78-.18-.14-.79-.21-.78-.43.01-.22.64-.25.78-.43Z"/>
          <path class="cls-13" d="m55.04,33.85c.03.38-.25.71-.63.74-.38.03-.71-.25-.74-.62-.03-.38.24-.71.62-.74.38-.03.71.25.74.62Z"/>
          <path class="cls-13" d="m29.45,55.44c.14-.17.2-.78.43-.78s.27.62.42.78c.16.15.79.2.78.42-.01.22-.64.25-.78.43-.14.17-.21.79-.42.78-.22-.01-.25-.64-.43-.78-.18-.14-.79-.21-.78-.43.01-.22.64-.25.78-.42Z"/>
          <g>
            <path class="cls-8" d="m55.87,67.02c0-3.45-1.58-6.27-3.58-6.5v-.02h-16.51v13.04h16.51v-.02c2-.23,3.58-3.05,3.58-6.49Z"/>
            <g>
              <path class="cls-4" d="m40.31,61.83h5.78c-.06-.09-.13-.17-.19-.25h-5.76c.06.08.11.17.17.25Z"/>
              <path class="cls-4" d="m46.41,61.83h5.78c-.06-.09-.13-.17-.19-.25h-5.76c.06.08.11.17.17.25Z"/>
              <path class="cls-4" d="m52.5,61.83h1.75v-.12s-.08-.09-.12-.13h-1.8c.06.08.11.17.17.25Z"/>
              <path class="cls-4" d="m38.01,61.83h2c-.06-.09-.13-.17-.19-.25h-1.8v.25Z"/>
              <path class="cls-4" d="m38.01,64.88h3.21c-.02-.09-.04-.17-.05-.25h-3.15v.25Z"/>
              <path class="cls-4" d="m41.49,64.88h5.82c-.02-.09-.04-.17-.05-.25h-5.82c.02.08.04.17.06.25Z"/>
              <path class="cls-4" d="m47.59,64.88h5.82c-.02-.09-.03-.17-.05-.25h-5.82c.02.08.04.17.06.25Z"/>
              <path class="cls-4" d="m53.68,64.88h1.97c-.02-.08-.03-.17-.05-.25h-1.97c.02.08.04.17.06.25Z"/>
              <path class="cls-4" d="m41.55,68.94h5.82c.01-.08.03-.17.04-.25h-5.82c-.01.09-.02.17-.04.25Z"/>
              <path class="cls-4" d="m53.73,68.94h1.96c.01-.08.03-.17.04-.25h-1.96c-.01.09-.03.17-.04.25Z"/>
              <path class="cls-4" d="m38.01,68.94h3.27c.01-.08.02-.17.04-.25h-3.3v.25Z"/>
              <path class="cls-4" d="m47.64,68.94h5.82c.02-.08.03-.17.04-.25h-5.82c-.01.09-.02.17-.04.25Z"/>
              <path class="cls-4" d="m46.6,71.99h5.79c.05-.08.1-.17.14-.25h-5.79c-.04.09-.09.17-.14.25Z"/>
              <path class="cls-4" d="m52.7,71.99h1.8c.06-.08.11-.17.17-.25h-1.83c-.05.09-.09.17-.14.25Z"/>
              <path class="cls-4" d="m38.01,71.99h2.19c.05-.08.1-.17.15-.25h-2.34v.25Z"/>
              <path class="cls-4" d="m40.51,71.99h5.79c.05-.08.1-.17.14-.25h-5.79c-.04.09-.09.17-.14.25Z"/>
              <path class="cls-12" d="m40.51,71.99c.05-.08.09-.17.14-.25.42-.79.73-1.75.9-2.79.01-.09.03-.17.04-.25.07-.52.12-1.06.12-1.62,0-.76-.07-1.5-.21-2.19-.02-.09-.04-.17-.06-.25-.24-1.08-.63-2.03-1.12-2.79-.06-.08-.11-.17-.17-.25-.33-.45-.69-.81-1.09-1.08h-.53c.47.23.9.6,1.28,1.08.07.08.13.16.19.25.51.74.91,1.7,1.16,2.79.02.08.04.17.05.25.13.69.21,1.42.21,2.19,0,.56-.04,1.1-.12,1.62-.01.09-.02.17-.04.25-.18,1.06-.5,2.01-.92,2.79-.05.09-.1.17-.15.25-.42.69-.92,1.22-1.48,1.54h.48c.49-.37.93-.9,1.31-1.54Z"/>
              <path class="cls-12" d="m46.6,71.99c.05-.08.1-.17.14-.25.42-.79.73-1.75.9-2.79.01-.09.02-.17.04-.25.07-.52.12-1.06.12-1.62,0-.76-.07-1.5-.21-2.19-.02-.09-.04-.17-.06-.25-.24-1.08-.63-2.03-1.12-2.79-.06-.08-.11-.17-.17-.25-.32-.45-.69-.81-1.08-1.08h-.54c.47.23.9.6,1.28,1.08.07.08.13.16.19.25.51.74.91,1.7,1.16,2.79.02.08.04.17.05.25.14.69.21,1.42.21,2.19,0,.56-.04,1.1-.12,1.62-.01.09-.02.17-.04.25-.18,1.06-.5,2.01-.93,2.79-.05.09-.09.17-.14.25-.42.69-.92,1.22-1.48,1.54h.48c.49-.37.94-.9,1.31-1.54Z"/>
              <path class="cls-12" d="m52.7,71.99c.05-.08.09-.17.14-.25.41-.79.73-1.75.9-2.79.01-.09.03-.17.04-.25.07-.52.12-1.06.12-1.62,0-.76-.07-1.5-.21-2.19-.02-.09-.04-.17-.06-.25-.24-1.08-.62-2.03-1.12-2.79-.06-.08-.11-.17-.17-.25-.33-.45-.69-.81-1.08-1.08h-.54c.47.23.9.6,1.29,1.08.06.08.13.16.19.25.51.74.92,1.7,1.16,2.79.02.08.04.17.05.25.14.69.21,1.42.21,2.19,0,.56-.04,1.1-.12,1.62-.01.09-.02.17-.04.25-.18,1.06-.5,2.01-.92,2.79-.05.09-.09.17-.14.25-.42.69-.92,1.22-1.48,1.54h.48c.49-.37.94-.9,1.31-1.54Z"/>
            </g>
            <path class="cls-2" d="m39.62,67.02c0,3.6-1.72,6.52-3.84,6.52s-3.84-2.92-3.84-6.52,1.72-6.52,3.84-6.52,3.84,2.92,3.84,6.52Z"/>
            <path class="cls-8" d="m38.95,67.02c0,2.97-1.42,5.37-3.17,5.37s-3.17-2.41-3.17-5.37,1.42-5.38,3.17-5.38,3.17,2.41,3.17,5.38Z"/>
          </g>
        </g>
      </g>
    </g>
  </g>
</svg>