<svg width="230" height="230" viewBox="0 0 230 230" fill="none" xmlns="http://www.w3.org/2000/svg">
<path d="M54.8038 91.7127C54.8127 91.7397 54.8127 91.7666 54.8217 91.7936C54.8307 91.8205 54.8577 91.8295 54.8667 91.8475C58.5053 100.67 65.5941 108.567 75.0186 113.68C80.4001 116.599 85.0272 117.821 89.2677 117.821C96.4822 117.821 102.601 114.281 109.474 109.601L120.731 115.719C120.902 115.809 121.09 115.863 121.279 115.863C121.683 115.863 122.079 115.647 122.285 115.261C122.591 114.704 122.384 114.003 121.827 113.698L110.57 107.579C110.884 94.3632 109.77 84.3446 95.2424 76.4487C80.9663 68.6952 64.2453 68.8479 52.6464 76.826C52.4757 76.9428 52.3679 77.0956 52.287 77.2753C52.269 77.3112 52.26 77.3471 52.2421 77.3831C52.2061 77.4729 52.1792 77.5628 52.1702 77.6616C52.1702 77.6885 52.1522 77.7155 52.1522 77.7424C52.0175 82.4772 52.9698 87.212 54.8025 91.7131L54.8038 91.7127ZM65.2255 73.8967L67.3458 84.085L55.5763 77.6882C58.5322 75.9363 61.7844 74.6605 65.2255 73.8969L65.2255 73.8967ZM93.5178 78.4067L98.1806 100.841L85.4138 93.9048L81.2361 73.8067C85.3958 74.6153 89.5466 76.0708 93.5176 78.1551C93.5176 78.236 93.4996 78.3258 93.5176 78.4067L93.5178 78.4067ZM75.7287 111.173C75.6478 111.208 75.585 111.262 75.5131 111.307C71.6049 109.106 68.119 106.42 65.181 103.365L84.3177 95.9261L97.0845 102.862L75.7287 111.173ZM63.5279 101.541C60.9942 98.6035 58.9369 95.387 57.4276 92.0089L68.9007 87.5527L81.6765 94.4886L63.5279 101.541ZM54.4716 79.7182L66.2502 86.115L56.538 89.8883C55.3071 86.5821 54.6063 83.159 54.4715 79.718L54.4716 79.7182ZM78.1639 112.691L99.7264 104.309L107.192 108.37C97.6601 114.775 89.9783 118.306 78.1642 112.691H78.1639ZM108.299 106.339L100.833 102.278L96.1246 79.6195C107.274 86.4747 108.496 94.8481 108.299 106.339V106.339ZM78.8033 73.4123L82.7655 92.4683L69.9897 85.5324L67.4832 73.4843C71.1489 72.9183 74.9582 72.8913 78.8036 73.4124L78.8033 73.4123Z" fill="#BEBFC4"/>
<path d="M164.765 103.086H164.774C164.791 103.095 164.8 103.104 164.818 103.113C164.998 103.221 165.196 103.266 165.393 103.266C165.546 103.266 165.708 103.23 165.861 103.167C168.843 101.846 171.512 99.8605 173.767 97.3899C173.785 97.3719 173.803 97.3719 173.812 97.354C173.83 97.336 173.839 97.309 173.857 97.2911C178.259 92.4305 181.071 85.7101 181.466 78.3699C182.086 67.0495 176.705 62.7549 168.951 58.2L169.409 49.7367C169.445 49.0988 168.96 48.5598 168.322 48.5238C167.631 48.4789 167.145 48.973 167.109 49.611L166.651 58.0743C158.449 61.749 152.627 65.4324 152.007 76.7618C151.387 87.8843 156.391 98.2074 164.765 103.085L164.765 103.086ZM160.102 95.9702L164.756 92.4484L164.342 100.004C162.77 98.8724 161.35 97.5158 160.102 95.9704L160.102 95.9702ZM155.708 87.8843L165.412 80.5441L164.926 89.4297L158.709 94.1376C157.469 92.2419 156.454 90.1395 155.708 87.8843H155.708ZM154.298 77.5612L166.058 68.6577L165.573 77.5343L155.079 85.4764C154.495 82.9517 154.208 80.2925 154.298 77.5612H154.298ZM177.433 86.6984L167.874 77.6601L168.359 68.7745L179.087 78.9088C178.88 81.64 178.305 84.2545 177.434 86.6982L177.433 86.6984ZM172.887 94.9101L167.218 89.5555L167.703 80.6699L176.544 89.0253C175.565 91.1816 174.334 93.1672 172.888 94.9101H172.887ZM166.643 100.13L167.057 92.5651L171.306 96.5811C169.896 97.9826 168.332 99.1686 166.643 100.13H166.643ZM179.176 75.8374L168.521 65.7659L168.79 60.7885C174.882 64.4632 178.907 68.0029 179.176 75.8374H179.176ZM166.499 60.6716L166.23 65.6491L154.541 74.4988C155.673 66.7183 160.058 63.6455 166.499 60.6719L166.499 60.6716Z" fill="#BEBFC4"/>
<path d="M123.167 161.529C123.158 161.475 123.158 161.403 123.14 161.359C123.131 161.341 123.14 161.332 123.131 161.314C123.122 161.296 123.113 161.287 123.113 161.278C123.086 161.233 123.059 161.188 123.032 161.134C122.996 161.08 122.969 161.017 122.924 160.972C122.897 160.945 122.879 160.927 122.861 160.9C122.852 160.891 122.852 160.873 122.843 160.873C118.243 156.579 112.691 153.354 106.591 151.215C106.555 151.197 106.528 151.17 106.492 151.161C106.447 151.143 106.393 151.143 106.339 151.134C94.3359 146.993 80.2226 147.109 66.8159 151.979C48.2722 158.726 37.5438 172.257 34.885 192.183L18.4796 198.139C17.8866 198.355 17.5722 199.02 17.7878 199.613C17.9585 200.08 18.3987 200.368 18.8659 200.368C19.0007 200.368 19.1265 200.341 19.2612 200.296L35.6577 194.33C45.5854 203.404 56.4387 207.986 68.0923 207.986C73.8603 207.986 79.817 206.872 85.9532 204.644C106.285 197.25 120.892 180.448 123.176 161.843C123.176 161.825 123.167 161.816 123.176 161.798V161.709C123.194 161.655 123.176 161.592 123.167 161.529L123.167 161.529ZM115.485 177.665L102.287 170.118L120.597 163.461C119.753 168.402 118.019 173.2 115.485 177.665L115.485 177.665ZM119.807 161.305L101.497 167.962L106.762 153.704C111.586 155.501 115.989 158.061 119.807 161.305H119.807ZM104.587 152.958L98.6665 168.986L79.3771 176.003L88.8018 150.469C94.2913 150.522 99.619 151.367 104.587 152.957L104.587 152.958ZM85.4595 201.879L58.0389 186.201L77.3283 179.184L101.901 193.236C97.1847 196.929 91.7672 199.992 85.8284 202.22C85.7386 202.095 85.6218 201.969 85.46 201.879L85.4595 201.879ZM68.2005 154.423C68.2634 154.261 68.2724 154.091 68.2544 153.92C74.2471 151.818 80.3653 150.686 86.34 150.488L76.5381 177.028L57.2487 184.045L68.2005 154.423ZM65.5592 154.944L54.4366 185.07L37.3483 191.287C40.0347 173.444 49.2975 161.522 65.5601 154.944L65.5592 154.944ZM38.1202 193.451L55.2175 187.243L83.105 203.19C66.421 208.59 51.6594 205.409 38.1193 193.451H38.1202ZM103.797 191.681C103.797 191.672 103.797 191.672 103.788 191.672L80.1598 178.159L99.4582 171.143L114.291 179.633C111.506 184.044 107.966 188.114 103.798 191.681L103.797 191.681Z" fill="#BEBFC4"/>
<path d="M113.633 78.7036C113.813 78.7036 113.993 78.6587 114.164 78.5688C127.649 71.5251 139.958 62.4509 150.729 51.6243C151.178 51.1751 151.178 50.4474 150.72 49.9981C150.271 49.5489 149.543 49.5489 149.094 50.0071C138.492 60.6715 126.372 69.593 113.094 76.5284C112.528 76.8249 112.313 77.5167 112.609 78.0827C112.816 78.4781 113.22 78.7027 113.633 78.7027L113.633 78.7036Z" fill="#BEBFC4"/>
<path d="M154.737 46.8807C155.051 46.8807 155.366 46.7549 155.59 46.5034C156.902 45.0569 158.187 43.5745 159.436 42.074C159.84 41.5889 159.777 40.8611 159.292 40.4568C158.807 40.0525 158.079 40.1154 157.675 40.6006C156.444 42.083 155.177 43.5294 153.883 44.9669C153.461 45.4341 153.497 46.1618 153.964 46.5931C154.18 46.7818 154.458 46.8806 154.737 46.8806L154.737 46.8807Z" fill="#BEBFC4"/>
<path d="M162.94 36.9612C163.291 36.9612 163.632 36.8085 163.857 36.503C164.827 35.2182 165.779 33.9155 166.705 32.6038C167.073 32.0827 166.947 31.3729 166.435 31.0046C165.923 30.6452 165.204 30.762 164.836 31.2831C163.92 32.5768 162.985 33.8616 162.024 35.1195C161.637 35.6226 161.745 36.3504 162.248 36.7277C162.455 36.8894 162.698 36.9613 162.94 36.9613L162.94 36.9612Z" fill="#BEBFC4"/>
<path d="M168.305 28.2554C168.502 28.3812 168.718 28.4441 168.933 28.4441C169.311 28.4441 169.679 28.2644 169.895 27.923C170.631 26.791 171.359 25.65 172.06 24.4909C172.392 23.9519 172.222 23.2421 171.683 22.9097C171.144 22.5773 170.434 22.748 170.101 23.287C169.401 24.428 168.691 25.5511 167.963 26.6653C167.622 27.2043 167.765 27.9141 168.305 28.2555L168.305 28.2554Z" fill="#BEBFC4"/>
<path d="M210.125 49.5305C209.478 49.3868 208.894 49.7911 208.759 50.411C199.802 92.1353 173.981 129.402 137.917 152.662C137.387 153.004 137.225 153.722 137.576 154.252C137.8 154.594 138.169 154.782 138.546 154.782C138.762 154.782 138.977 154.729 139.166 154.603C175.724 131.009 201.912 93.2134 211.004 50.8957C211.139 50.2758 210.744 49.6649 210.124 49.5301L210.125 49.5305Z" fill="#BEBFC4"/>
<path d="M212.184 37.322C211.573 37.2411 210.971 37.6724 210.89 38.3013C210.746 39.3075 210.602 40.3048 210.45 41.3111C210.351 41.94 210.782 42.524 211.411 42.6228C211.474 42.6318 211.528 42.6407 211.591 42.6407C212.148 42.6407 212.633 42.2365 212.723 41.6704C212.875 40.6552 213.028 39.64 213.172 38.6248C213.253 37.9869 212.813 37.4029 212.184 37.322V37.322Z" fill="#BEBFC4"/>
<path d="M213.055 28.8214C212.435 28.7765 211.869 29.2347 211.815 29.8726C211.743 30.771 211.663 31.6694 211.573 32.5679C211.51 33.1968 211.968 33.7629 212.597 33.8258C212.642 33.8258 212.678 33.8347 212.714 33.8347C213.298 33.8347 213.801 33.3945 213.855 32.8015C213.945 31.8941 214.025 30.9777 214.106 30.0613C214.151 29.4234 213.684 28.8754 213.055 28.8215V28.8214Z" fill="#BEBFC4"/>
<path d="M213.362 23.7107H212.212L212.158 24.5373C212.113 25.1662 212.589 25.7232 213.218 25.7681H213.308C213.901 25.7681 214.413 25.3099 214.449 24.699L214.503 23.8545L213.362 23.7107Z" fill="#BEBFC4"/>
<path d="M182.302 60.6992C182.482 60.807 182.679 60.8519 182.868 60.8519C183.263 60.8519 183.659 60.6452 183.865 60.2679C187.702 53.5475 190.972 46.4141 193.577 39.0467C193.793 38.4448 193.47 37.7889 192.877 37.5823C192.275 37.3756 191.619 37.6811 191.403 38.283C188.843 45.5154 185.635 52.5322 181.862 59.1268C181.556 59.6838 181.745 60.3846 182.302 60.6991L182.302 60.6992Z" fill="#BEBFC4"/>
<path d="M193.837 34.6977C193.953 34.7336 194.061 34.7516 194.169 34.7516C194.663 34.7516 195.112 34.4371 195.265 33.943C195.607 32.8289 195.939 31.7149 196.253 30.5919C196.424 29.981 196.065 29.3431 195.454 29.1724C194.843 29.0017 194.214 29.361 194.043 29.972C193.738 31.0771 193.414 32.1731 193.073 33.2692C192.884 33.8712 193.226 34.5181 193.837 34.6978L193.837 34.6977Z" fill="#BEBFC4"/>
<path d="M196.022 27.0158C196.112 27.0338 196.201 27.0518 196.291 27.0518C196.812 27.0518 197.28 26.7014 197.405 26.1713C197.567 25.4705 197.738 24.7787 197.89 24.0779C198.025 23.458 197.639 22.8471 197.019 22.7033C196.372 22.5685 195.788 22.9549 195.644 23.5748C195.492 24.2666 195.33 24.9494 195.168 25.6322C195.024 26.2431 195.402 26.8631 196.022 27.0158V27.0158Z" fill="#BEBFC4"/>
</svg>
