<?xml version="1.0" encoding="UTF-8"?>
<svg xmlns="http://www.w3.org/2000/svg" viewBox="0 0 68.13 52.67">
  <defs>
    <style>
      .cls-1 {
        fill: #fff;
      }

      .cls-2 {
        fill: #8196fc;
      }

      .cls-3 {
        opacity: .2;
      }

      .cls-3, .cls-4 {
        mix-blend-mode: overlay;
      }

      .cls-5 {
        fill: #1d1b3a;
      }

      .cls-6 {
        isolation: isolate;
      }

      .cls-7 {
        fill: #7585f8;
      }

      .cls-8 {
        fill: #b38cff;
      }

      .cls-4 {
        opacity: .3;
      }

      .cls-9 {
        fill: #a07df4;
      }

      .cls-10 {
        fill: #ef60ae;
      }

      .cls-11 {
        fill: #f4a517;
      }

      .cls-12 {
        fill: #a4dcff;
      }

      .cls-13 {
        fill: #be4719;
      }

      .cls-14 {
        fill: #f268b4;
      }
    </style>
  </defs>
  <g class="cls-6">
    <g id="Layer_2" data-name="Layer 2">
      <g id="Layer_1-2" data-name="Layer 1">
        <g>
          <g>
            <g>
              <polygon class="cls-7" points="20.36 13.61 20.7 13.61 20.72 12.75 20.37 12.74 20.36 13.61"/>
              <polygon class="cls-7" points="20.38 14.91 20.73 14.9 20.7 14.03 20.36 14.04 20.38 14.91"/>
              <path class="cls-7" d="m20.48,16.21l.34-.03s-.03-.21-.04-.43c-.01-.21-.03-.43-.03-.43l-.34.02s.02.22.03.44c0,.22.04.43.04.43Z"/>
              <path class="cls-7" d="m20.65,17.5l.33-.06s-.03-.21-.07-.42c-.04-.21-.05-.42-.05-.42l-.34.04s.02.22.05.43c.03.21.07.43.07.43Z"/>
              <polygon class="cls-7" points="20.9 18.78 21.23 18.7 21.05 17.86 20.72 17.92 20.9 18.78"/>
              <path class="cls-7" d="m21.26,20.03l.32-.11s-.25-.82-.25-.82l-.33.09s.23.85.25.84Z"/>
              <path class="cls-7" d="m21.74,21.25l.31-.14s-.09-.2-.17-.39c-.08-.2-.15-.4-.15-.4l-.32.12s.07.21.15.41c.09.2.18.4.18.4Z"/>
            </g>
            <g>
              <polygon class="cls-7" points="22.34 22.42 22.63 22.24 22.22 21.49 21.91 21.64 22.34 22.42"/>
              <path class="cls-7" d="m23.09,23.49l.26-.21s-.5-.69-.5-.69l-.29.19s.12.18.25.36c.12.19.27.35.27.35Z"/>
              <path class="cls-7" d="m23.98,24.46l.23-.25s-.15-.15-.31-.29c-.16-.14-.29-.31-.29-.31l-.25.22s.13.18.3.33c.16.15.32.31.32.31Z"/>
              <polygon class="cls-7" points="25 25.29 25.2 25.01 24.52 24.49 24.3 24.75 25 25.29"/>
              <path class="cls-7" d="m26.15,25.94l.15-.31s-.2-.07-.38-.19c-.18-.11-.37-.22-.37-.22l-.18.29s.19.11.38.23c.18.12.39.2.39.2Z"/>
              <path class="cls-7" d="m27.37,26.43l.1-.33s-.2-.07-.4-.13c-.2-.07-.39-.17-.39-.17l-.13.31s.2.1.41.17c.21.07.42.14.42.14Z"/>
              <path class="cls-7" d="m28.63,26.76l.08-.33s-.84-.17-.83-.2l-.09.33s.85.2.85.2Z"/>
            </g>
            <g>
              <polygon class="cls-7" points="29.9 27.04 29.95 26.71 29.11 26.52 29.04 26.86 29.9 27.04"/>
              <polygon class="cls-7" points="31.19 27.2 31.22 26.86 30.37 26.77 30.32 27.1 31.19 27.2"/>
              <path class="cls-7" d="m32.49,27.28v-.34s-.21,0-.42,0c-.21,0-.43-.04-.43-.04l-.02.34s.21.03.44.03.44,0,.44,0Z"/>
              <path class="cls-7" d="m33.8,27.26l-.03-.34s-.05,0-.13.02c-.08,0-.19,0-.29,0-.21,0-.43,0-.43,0v.34s.88,0,.88-.02Z"/>
              <polygon class="cls-7" points="35.1 27.1 35.04 26.76 34.19 26.87 34.23 27.21 35.1 27.1"/>
              <polygon class="cls-7" points="36.37 26.82 36.28 26.49 35.45 26.68 35.52 27.02 36.37 26.82"/>
              <polygon class="cls-7" points="37.62 26.43 37.5 26.11 36.69 26.38 36.79 26.71 37.62 26.43"/>
            </g>
            <g>
              <polygon class="cls-7" points="38.83 25.96 38.7 25.65 37.9 25.98 38.02 26.29 38.83 25.96"/>
              <polygon class="cls-7" points="40.01 25.43 39.87 25.12 39.09 25.48 39.22 25.79 40.01 25.43"/>
              <rect class="cls-7" x="40.28" y="24.74" width=".87" height=".34" transform="translate(-6.77 20.04) rotate(-25.6)"/>
              <polygon class="cls-7" points="42.35 24.32 42.2 24.01 41.41 24.38 41.56 24.69 42.35 24.32"/>
              <path class="cls-7" d="m43.52,23.81l-.13-.32s-.2.08-.4.17c-.2.08-.4.17-.4.17l.14.31s.19-.1.39-.17c.2-.08.4-.16.4-.16Z"/>
              <path class="cls-7" d="m44.72,23.36l-.11-.32s-.21.07-.42.13c-.21.07-.41.16-.41.16l.12.32s.2-.09.4-.16c.2-.07.41-.13.41-.13Z"/>
              <path class="cls-7" d="m45.95,23.01l-.08-.33s-.21.04-.43.09c-.21.06-.42.13-.42.13l.1.33s.21-.07.41-.13c.21-.05.42-.09.42-.09Z"/>
            </g>
            <g>
              <path class="cls-7" d="m47.19,22.78l-.04-.34s-.05,0-.14.01-.19.02-.3.04c-.22.05-.43.09-.43.09l.07.33s.21-.05.42-.09c.11-.03.21-.04.29-.04.08,0,.13-.01.13-.01Z"/>
              <path class="cls-7" d="m48.46,22.67v-.34s-.23.01-.45.03c-.22.02-.44.04-.44.04l.03.34s.21-.02.43-.04c.21-.02.42-.03.42-.03Z"/>
              <polygon class="cls-7" points="49.74 22.7 49.76 22.36 48.88 22.34 48.88 22.68 49.74 22.7"/>
              <polygon class="cls-7" points="51 22.84 51.05 22.51 50.19 22.38 50.16 22.72 51 22.84"/>
              <polygon class="cls-7" points="52.29 23.03 52.33 22.69 51.48 22.57 51.42 22.9 52.29 23.03"/>
              <path class="cls-7" d="m53.62,23.05l-.06-.34s-.05,0-.13.01c-.08.01-.18.02-.29.01-.21,0-.41,0-.41,0v.34s.22,0,.44,0c.11,0,.22,0,.31-.01.08-.01.14-.02.14-.02Z"/>
              <path class="cls-7" d="m54.91,22.7l-.15-.31s-.05.02-.12.05c-.08.03-.17.08-.27.1-.2.06-.4.11-.4.11l.09.33s.22-.06.43-.12c.11-.03.21-.08.29-.11.08-.04.13-.06.13-.06Z"/>
            </g>
            <g>
              <path class="cls-7" d="m56.01,21.96l-.23-.26s-.16.14-.32.27c-.17.11-.35.23-.35.23l.18.3s.19-.12.38-.25c.17-.15.34-.29.34-.29Z"/>
              <path class="cls-7" d="m56.83,20.91l-.29-.18s-.46.7-.48.68l.25.23s.53-.72.52-.73Z"/>
              <path class="cls-7" d="m57.34,19.67l-.33-.1s-.27.79-.29.78l.3.16s.33-.84.31-.84Z"/>
              <path class="cls-7" d="m57.58,18.37l-.34-.03s-.12.84-.12.84l.33.07s.04-.22.07-.44c.04-.22.05-.44.05-.44Z"/>
              <path class="cls-7" d="m57.58,17.05l-.34.03s.03.21.03.42c0,.21,0,.42,0,.42h.34s0-.21,0-.43c0-.22-.02-.44-.02-.44Z"/>
              <path class="cls-7" d="m57.37,15.75l-.33.08s.06.2.1.41c.04.21.07.42.07.42l.34-.05s-.04-.22-.07-.44c-.03-.22-.1-.43-.1-.43Z"/>
              <path class="cls-7" d="m56.94,14.5l-.31.14s.1.19.16.39c.07.2.14.4.14.4l.32-.1s-.07-.21-.14-.42c-.07-.21-.17-.41-.17-.41Z"/>
            </g>
            <g>
              <path class="cls-7" d="m56.28,13.35l-.28.2s.13.17.23.35c.11.19.21.37.21.37l.3-.16s-.11-.19-.22-.39c-.11-.19-.25-.37-.25-.37Z"/>
              <path class="cls-7" d="m55.41,12.36l-.23.25s.16.14.3.29c.14.16.28.32.28.32l.26-.22s-.14-.17-.29-.34c-.15-.16-.32-.31-.32-.31Z"/>
              <path class="cls-7" d="m54.32,11.59l-.16.3s.19.1.36.21c.17.12.34.25.34.25l.21-.27s-.18-.13-.36-.26c-.19-.12-.39-.23-.39-.23Z"/>
              <path class="cls-7" d="m53.09,11.11l-.08.33s.21.04.4.11c.19.08.39.15.39.15l.14-.31s-.21-.08-.42-.16c-.21-.08-.43-.12-.43-.12Z"/>
              <path class="cls-7" d="m51.77,10.93v.34s.83.08.83.08l.06-.34s-.88-.11-.89-.08Z"/>
              <path class="cls-7" d="m50.45,11.01l.05.34s.21-.02.42-.05c.11-.01.21-.03.29-.03h.13v-.34s-.9.08-.9.08Z"/>
              <polygon class="cls-7" points="49.18 11.29 49.26 11.62 50.1 11.43 50.03 11.1 49.18 11.29"/>
            </g>
            <g>
              <path class="cls-7" d="m47.93,11.55l.05.34s.21-.03.43-.07c.21-.05.42-.1.42-.1l-.08-.33s-.21.05-.42.1c-.21.04-.42.07-.42.07Z"/>
              <path class="cls-7" d="m46.67,11.7l.02.34s.88-.06.87-.08l-.04-.34s-.85.08-.85.08Z"/>
              <polygon class="cls-7" points="45.4 11.71 45.38 12.04 46.26 12.06 46.25 11.72 45.4 11.71"/>
              <path class="cls-7" d="m44.15,11.52l-.07.33s.22.04.43.09c.22.03.44.05.44.05l.04-.34s-.21-.03-.42-.05c-.21-.04-.41-.09-.41-.09Z"/>
              <path class="cls-7" d="m42.94,11.16l-.13.32s.84.29.84.29l.09-.33s-.81-.25-.8-.27Z"/>
              <path class="cls-7" d="m41.82,10.59l-.18.29s.77.45.78.42l.15-.31s-.74-.4-.74-.4Z"/>
              <path class="cls-7" d="m40.82,9.82l-.23.25s.17.15.33.29c.18.13.36.26.36.26l.2-.28s-.17-.12-.34-.25c-.16-.14-.32-.28-.32-.28Z"/>
            </g>
          </g>
          <g>
            <g>
              <polygon class="cls-12" points="23.1 43.95 22.96 43.61 23.81 43.25 23.96 43.58 23.1 43.95"/>
              <polygon class="cls-12" points="21.8 44.45 21.67 44.11 22.54 43.78 22.67 44.12 21.8 44.45"/>
              <path class="cls-12" d="m20.47,44.89l-.11-.35s.22-.06.44-.14c.22-.07.44-.15.44-.15l.12.35s-.22.07-.44.15c-.22.08-.45.14-.45.14Z"/>
              <path class="cls-12" d="m19.12,45.24l-.08-.36s.22-.05.45-.1c.22-.05.44-.12.44-.12l.1.35s-.23.07-.45.12c-.23.05-.46.11-.46.11Z"/>
              <polygon class="cls-12" points="17.75 45.51 17.69 45.15 18.6 44.99 18.67 45.35 17.75 45.51"/>
              <path class="cls-12" d="m16.36,45.67l-.03-.36s.91-.09.91-.09l.05.36s-.93.11-.94.1Z"/>
              <path class="cls-12" d="m14.96,45.69v-.36s.24,0,.47.01c.23,0,.46-.01.46-.01v.36s-.22.02-.46.02c-.24,0-.47-.02-.47-.02Z"/>
            </g>
            <g>
              <polygon class="cls-12" points="13.56 45.57 13.61 45.21 14.52 45.31 14.49 45.68 13.56 45.57"/>
              <path class="cls-12" d="m12.18,45.26l.1-.35s.89.21.89.21l-.07.36s-.23-.05-.46-.09c-.23-.04-.46-.13-.46-.13Z"/>
              <path class="cls-12" d="m10.86,44.77l.15-.33s.21.09.42.19c.2.1.43.16.43.16l-.12.35s-.23-.05-.44-.16c-.22-.09-.43-.19-.43-.19Z"/>
              <polygon class="cls-12" points="9.62 44.09 9.82 43.79 10.61 44.25 10.44 44.57 9.62 44.09"/>
              <path class="cls-12" d="m8.51,43.23l.24-.27s.16.17.35.3c.18.14.36.27.36.27l-.21.29s-.19-.14-.38-.29c-.2-.13-.36-.31-.36-.31Z"/>
              <path class="cls-12" d="m7.53,42.22l.28-.24s.15.17.29.35c.15.17.33.32.33.32l-.25.26s-.18-.16-.34-.33c-.15-.18-.3-.36-.3-.36Z"/>
              <path class="cls-12" d="m6.68,41.1l.3-.21s.52.76.54.75l-.29.23s-.55-.76-.55-.76Z"/>
            </g>
            <g>
              <polygon class="cls-12" points="5.89 39.95 6.2 39.76 6.72 40.52 6.42 40.73 5.89 39.95"/>
              <polygon class="cls-12" points="5.21 38.73 5.53 38.56 5.97 39.37 5.65 39.56 5.21 38.73"/>
              <path class="cls-12" d="m4.6,37.48l.33-.14s.08.21.17.43c.09.21.21.41.21.41l-.33.16s-.12-.2-.21-.42c-.09-.22-.18-.44-.18-.44Z"/>
              <path class="cls-12" d="m4.09,36.17l.35-.11s.02.06.04.14c.03.08.08.19.12.29.09.21.17.43.17.43l-.34.13s-.37-.87-.34-.88Z"/>
              <polygon class="cls-12" points="3.72 34.82 4.07 34.74 4.31 35.62 3.97 35.73 3.72 34.82"/>
              <polygon class="cls-12" points="3.48 33.44 3.84 33.39 3.98 34.3 3.63 34.37 3.48 33.44"/>
              <polygon class="cls-12" points="3.35 32.05 3.72 32.03 3.78 32.95 3.41 32.98 3.35 32.05"/>
            </g>
            <g>
              <polygon class="cls-12" points="3.33 30.65 3.69 30.65 3.69 31.58 3.32 31.59 3.33 30.65"/>
              <polygon class="cls-12" points="3.37 29.26 3.73 29.28 3.69 30.2 3.33 30.19 3.37 29.26"/>
              <rect class="cls-12" x="3.14" y="28.17" width=".93" height=".37" transform="translate(-24.91 30.21) rotate(-86.5)"/>
              <polygon class="cls-12" points="3.52 26.5 3.89 26.51 3.84 27.44 3.48 27.42 3.52 26.5"/>
              <path class="cls-12" d="m3.55,25.12h.37s0,.23,0,.47c0,.23-.02.47-.02.47h-.36s.02-.24.01-.47c0-.23,0-.46,0-.46Z"/>
              <path class="cls-12" d="m3.51,23.75l.36-.03s.02.24.04.47c.02.23.01.47.01.47h-.37s0-.22-.01-.45c-.02-.23-.04-.46-.04-.46Z"/>
              <path class="cls-12" d="m3.35,22.39l.36-.06s.04.23.08.46c.02.23.04.47.04.47l-.37.04s-.02-.23-.04-.46c-.04-.22-.08-.45-.08-.45Z"/>
            </g>
            <g>
              <path class="cls-12" d="m3.07,21.06l.35-.09s.02.06.04.14c.03.08.06.2.07.31.04.23.09.46.09.46l-.36.07s-.04-.23-.08-.45c-.01-.12-.05-.23-.07-.31-.03-.08-.04-.14-.04-.14Z"/>
              <path class="cls-12" d="m2.67,19.75l.34-.13s.08.22.14.45c.07.23.14.45.14.45l-.35.1s-.07-.22-.13-.44c-.07-.22-.14-.44-.14-.44Z"/>
              <polygon class="cls-12" points="2.12 18.5 2.45 18.34 2.83 19.2 2.49 19.34 2.12 18.5"/>
              <polygon class="cls-12" points="1.46 17.3 1.77 17.12 2.25 17.93 1.93 18.1 1.46 17.3"/>
              <polygon class="cls-12" points=".76 16.1 1.08 15.93 1.54 16.72 1.23 16.91 .76 16.1"/>
              <path class="cls-12" d="m.19,14.79l.36-.08s.02.05.04.14c.02.08.06.19.1.29.09.21.17.41.17.41l-.33.14s-.1-.22-.19-.44c-.05-.11-.09-.22-.11-.31-.02-.09-.04-.14-.04-.14Z"/>
              <path class="cls-12" d="m.01,13.37l.37.02s0,.06,0,.14c0,.08,0,.2.01.31.03.22.05.44.05.44l-.37.05s-.03-.24-.06-.48c-.02-.12-.01-.24-.01-.33,0-.09,0-.15,0-.15Z"/>
            </g>
            <g>
              <path class="cls-12" d="m.3,11.97l.35.12s-.07.21-.14.42c-.04.22-.08.44-.08.44l-.37-.05s.05-.24.09-.47c.08-.23.15-.46.15-.46Z"/>
              <path class="cls-12" d="m1.01,10.73l.3.21s-.51.74-.48.75l-.33-.15s.5-.83.51-.81Z"/>
              <path class="cls-12" d="m2.03,9.72l.23.28s-.67.59-.66.6l-.28-.24s.7-.67.71-.65Z"/>
              <path class="cls-12" d="m3.22,8.96l.17.32s-.78.46-.78.46l-.21-.3s.2-.13.41-.25c.2-.13.42-.23.42-.23Z"/>
              <path class="cls-12" d="m4.53,8.42l.11.35s-.22.06-.43.15c-.21.09-.42.17-.42.17l-.15-.33s.22-.09.44-.18c.22-.1.45-.16.45-.16Z"/>
              <path class="cls-12" d="m5.91,8.1l.05.36s-.23.02-.45.07c-.22.05-.44.1-.44.1l-.09-.35s.23-.05.46-.1c.23-.05.47-.08.47-.08Z"/>
              <path class="cls-12" d="m7.32,8.02v.36s-.24-.02-.47,0c-.23.01-.45.03-.45.03l-.03-.37s.24-.01.47-.03c.24-.01.48,0,.48,0Z"/>
            </g>
            <g>
              <path class="cls-12" d="m8.73,8.2l-.08.36s-.22-.06-.44-.09c-.23-.03-.45-.06-.45-.06l.03-.37s.24.03.47.06c.24.03.47.09.47.09Z"/>
              <path class="cls-12" d="m10.07,8.66l-.16.33s-.2-.1-.41-.18c-.21-.07-.43-.14-.43-.14l.11-.35s.23.08.45.15c.22.08.44.19.44.19Z"/>
              <path class="cls-12" d="m11.27,9.42l-.23.28s-.17-.15-.36-.28c-.19-.12-.38-.24-.38-.24l.18-.32s.2.13.41.25c.2.13.38.29.38.29Z"/>
              <path class="cls-12" d="m12.26,10.46l-.29.22s-.13-.19-.28-.35c-.16-.16-.31-.33-.31-.33l.25-.26s.17.17.33.35c.16.18.29.38.29.38Z"/>
              <path class="cls-12" d="m12.97,11.69l-.34.15s-.42-.8-.42-.8l.31-.19s.47.83.44.84Z"/>
              <path class="cls-12" d="m13.42,13.03l-.35.08s-.06-.22-.13-.44c-.03-.11-.06-.22-.08-.3-.03-.08-.05-.13-.05-.13l.34-.13s.28.91.28.91Z"/>
              <polygon class="cls-12" points="13.67 14.41 13.3 14.46 13.15 13.55 13.51 13.49 13.67 14.41"/>
            </g>
            <g>
              <path class="cls-12" d="m13.91,15.75l-.35.08s-.05-.23-.11-.46c-.04-.23-.08-.46-.08-.46l.36-.06s.04.23.07.45c.05.22.1.44.1.44Z"/>
              <path class="cls-12" d="m14.28,17.07l-.35.12s-.3-.9-.27-.9l.35-.09s.27.88.27.88Z"/>
              <polygon class="cls-12" points="14.79 18.33 14.47 18.49 14.09 17.62 14.43 17.49 14.79 18.33"/>
              <path class="cls-12" d="m15.48,19.5l-.3.21s-.13-.2-.27-.39c-.11-.21-.23-.42-.23-.42l.32-.18s.11.2.22.4c.13.19.26.38.26.38Z"/>
              <path class="cls-12" d="m16.34,20.54l-.26.25s-.63-.72-.63-.72l.29-.22s.58.7.6.68Z"/>
              <path class="cls-12" d="m17.36,21.43l-.21.3s-.76-.58-.74-.6l.25-.27s.7.57.7.57Z"/>
              <path class="cls-12" d="m18.52,22.1l-.16.33s-.21-.11-.43-.21c-.2-.12-.41-.25-.41-.25l.19-.31s.19.12.39.24c.21.1.41.2.41.2Z"/>
            </g>
          </g>
          <g>
            <path class="cls-11" d="m16.41,51.07c-3.73-.13-7.06-10.92-5.6-35.39.24-4.1,1.1-14.28,12.73-12.9,4.85.57,11.07,2.56,7.44,18.68-1.78,7.92-6.01,29.9-14.58,29.61Z"/>
            <path class="cls-1" d="m17.2,45.03c-2.58-.04-4.73-8.53-3.35-27.91.23-3.25.97-11.31,9.01-10.39,3.35.38,7.63,1.86,4.87,14.66-1.35,6.29-4.61,23.75-10.53,23.64Z"/>
            <rect class="cls-11" x="-2.75" y="24.88" width="45.73" height="4.93" transform="translate(-9.88 43.26) rotate(-81.61)"/>
            <path class="cls-4" d="m20.97,47.86c-.31,2.1-2.27,3.56-4.37,3.25-2.1-.31-3.55-2.27-3.24-4.37.31-2.1,2.27-3.55,4.37-3.25,2.1.31,3.56,2.27,3.25,4.37Z"/>
            <g class="cls-4">
              <path d="m19.07,47.58c-.16,1.05-1.13,1.78-2.18,1.62-1.05-.16-1.78-1.14-1.62-2.19.16-1.05,1.14-1.78,2.19-1.62,1.05.15,1.78,1.13,1.62,2.18Z"/>
            </g>
            <path class="cls-11" d="m16.79,8.5s3.48-1.53,3.25,2.49c-.27,4.73,2.18-1.32,2.18-1.32l-.08-5.14-2.16.2-3.19,3.76Z"/>
            <path class="cls-11" d="m28.84,10.28s-2.89-2.47-3.83,1.45c-1.11,4.61-1.71-1.89-1.71-1.89l1.56-4.9,2.01.82,1.96,4.52Z"/>
          </g>
          <path class="cls-9" d="m7.32,32.9c-.68,0-1.23-.54-1.23-1.21s.55-1.21,1.23-1.21,1.23.54,1.23,1.21-.55,1.21-1.23,1.21Zm0-2.09c-.49,0-.89.4-.89.88s.4.88.89.88.89-.39.89-.88-.4-.88-.89-.88Z"/>
          <path class="cls-2" d="m45.63,7.85c-.67,0-1.21-.54-1.21-1.19s.54-1.19,1.21-1.19,1.21.54,1.21,1.19-.54,1.19-1.21,1.19Zm0-2.06c-.48,0-.88.39-.88.87s.39.86.88.86.88-.39.88-.86-.39-.87-.88-.87Z"/>
          <path class="cls-11" d="m7.33,12.4c.14-.17.2-.78.43-.78s.27.62.43.78c.16.16.79.2.78.42-.01.22-.64.25-.78.43-.14.17-.21.79-.43.78-.22-.01-.25-.64-.43-.78-.18-.14-.79-.21-.78-.43.01-.22.64-.25.78-.42Z"/>
          <g>
            <g>
              <path class="cls-11" d="m41.29,37.35s-3.33-3.47,1.3-4.76c4.63-1.3,16.07-1.52,18.78-5.42,0,0-1.34,3.03,0,5.09,1.34,2.06,4.3,3.14,3.17,5.09-1.14,1.95-23.24,0-23.24,0Z"/>
              <rect class="cls-9" x="38.99" y="36.49" width="27.3" height="4.55"/>
              <rect class="cls-3" x="38.99" y="37.45" width="27.3" height="3.59"/>
              <path class="cls-8" d="m40.91,51.22h23.97c1.79,0,3.25-1.46,3.25-3.25v-9.59h-30.47v9.59c0,1.79,1.46,3.25,3.25,3.25Z"/>
              <rect class="cls-9" x="42.45" y="41.04" width="20.26" height="7.8"/>
              <path class="cls-3" d="m65.2,38.38c-2.01,6.85-11.15,12.02-22.13,12.02-1.58,0-3.12-.11-4.61-.31.6.68,1.46,1.13,2.44,1.13h23.97c1.79,0,3.25-1.46,3.25-3.25v-9.59h-2.93Z"/>
            </g>
            <path class="cls-9" d="m45.78,28.11c.62.53.76,1.38.31,1.91l-17.58,20.62c-.45.53-1.32.53-1.93,0l-1.99-1.7c-.62-.53-.75-1.38-.31-1.91l17.58-20.62c.45-.53,1.32-.53,1.94,0l1.99,1.7Z"/>
          </g>
          <g>
            <path class="cls-13" d="m32.12,52.03s-.78-.18-.62.11c.16.28,1.22.71,1.74.46.52-.26.49-.89.49-.89,0,0-.83.54-1.62.32Z"/>
            <path class="cls-13" d="m45.66,46.72s-.57.55-.25.58c.33.02,1.26-.64,1.33-1.21.07-.58-.47-.89-.47-.89,0,0,0,.99-.61,1.53Z"/>
            <path class="cls-13" d="m32.12,52.03c.64-.29.65-.38.61-.58-.04-.18-.11-.36-.18-.55l1.17-.15c.04.42.04.8,0,1.08-.11.06-.97.54-1.6.2Z"/>
            <path class="cls-13" d="m45.8,46.81c0-.7-.07-.75-.28-.79-.18-.04-.37-.06-.57-.07l.35-1.13c.4.14.74.29.98.45.01.12.08,1.1-.48,1.54Z"/>
            <path class="cls-10" d="m31.89,31.34s.27,2.28.8,3.6c1.78,4.42,2,3.84,2.57,5.05.98,2.04,5.68,5.84,9.19,7.31.38.16,1.43-2.27,1.16-2.7-2.07-3.33-4.29-3.58-5.58-4.82-.84-.79-.49-3.21-.69-4.56-.59-3.85-1.03-4.3-2.4-5.72l-5.05,1.84Z"/>
            <path class="cls-14" d="m30.25,30.81s-.07-.26-.22,1.15c-.51,4.81-.21,7.49-.08,9.08.29,3.79.55,5.93.52,9.69,0,.96,4.23.54,4.3.04.52-3.39-.67-4.96-.11-8.7.16-1.07.91-2.62,1.21-3.95.36-1.57,1.04-5.37.28-7.19l-5.91-.11Z"/>
            <path class="cls-7" d="m30.53,22.25c-.98,1.1-2.03,3.45-1.15,10.5.19,1.55,9.64.17,9.38-1.38-.71-4.1-1.72-5.65-3.6-9.1-.51-.94-2.7-2.21-4.62-.03Z"/>
            <g>
              <path class="cls-13" d="m20.11,23.93s-2.56-1.95-2.34-1.06c.23.89.85,1.6,2.27,1.93l.07-.87Z"/>
              <path class="cls-7" d="m31.2,18.97c.49-.09,2.2.22,1.85,1.27-.56,1.68-3.85,5.96-5.1,6.3-3.39.92-8.11-1.72-8.11-1.72,0,0-.34-.67.3-1.03,0,0,5.78.76,7.31-.23,1.24-.81,2.06-4.3,3.75-4.58Z"/>
            </g>
            <path class="cls-5" d="m30.07,15.37c-.93.31-1.96,1.33-1.58,3.22.38,1.88.33,1.93-.16,2.75-1.27,2.11,2.74,2.1,1.7,4.03-4.46,8.28,8.54,4.74,7.67,3.11-1.66-3.12.8-2.79-.13-5.19-.37-.95.84-2.33-1.29-3.2-.71-.29-.02-2.73-1.62-2.86-1.6-.13-.98-3.07-4.57-1.86Z"/>
            <path class="cls-5" d="m36.13,36.87s.02,3.78.3,4.71c0,0-.9-.93-1.15-1.56,0,0,.62-1.57.85-3.15Z"/>
            <path class="cls-1" d="m31.85,51.3c-1.18-12.09.14-17.85.15-17.9l.18.02c-.01.05-1.28,5.82-.11,17.86l-.23.02Z"/>
            <path class="cls-5" d="m29.91,33.23s4.39.86,8.67-1.42l.06.18s-1.91,2.22-8.82,2.4l.08-1.16Z"/>
          </g>
          <g>
            <path class="cls-12" d="m60.75,49.95l-1.21.79L31.47,7.6c-1.37-2.11-2.62-3.82-.87-6.31,1.1-1.55,3.45-1.98,6.26.29,2.04,1.65,3.35,4.69,4.22,9.49.36,2,1.44,5.69,5.25,7.24,1.2.49,4.37,1.78,3.58,6.78-.12.77-.79,3.81,4.29,5.2,1.04.29,2.62.71,3.61,2.44.75,1.31.78,2.92.09,4.78-.22.61-.58,2.66,3.12,4.19l-.55,1.42c-1.88-.87-3.14-1.81-3.91-3.46-.43-.93-.47-1.9-.1-2.91.51-1.39.53-2.51.07-3.33-.62-1.09-2.02-1.45-2.43-1.54-2.55-.53-4.24-1.57-4.95-2.61-.89-1.3-.98-3.24-.76-4.67.53-3.29-.91-4.17-2.44-4.79-4.84-1.97-6.09-6.81-6.59-8.9-.4-1.68-.2-5.98-3.3-8.14-2.05-1.43-3.24-1.6-4.24-.49-1.18,1.32-.15,3,.84,4.52l28.07,43.14Z"/>
            <path class="cls-12" d="m60.98,49.81c.35.54.26,1.22-.2,1.52-.46.3-1.12.11-1.46-.43-.35-.54-.26-1.22.2-1.51.46-.3,1.12-.11,1.47.43Z"/>
            <path class="cls-12" d="m61.47,41.81c.35.54.26,1.21-.2,1.51-.46.3-1.12.11-1.47-.43-.35-.54-.26-1.21.2-1.52.46-.3,1.12-.11,1.47.43Z"/>
          </g>
          <path class="cls-11" d="m53.84,18.21c.14-.17.2-.78.43-.78s.27.62.43.78c.16.16.79.21.78.43-.01.22-.64.25-.78.43-.14.17-.21.79-.43.78-.22-.02-.25-.64-.43-.78-.17-.14-.79-.21-.78-.43.01-.22.64-.25.78-.43Z"/>
          <path class="cls-9" d="m51.07,16c.03.38-.25.71-.63.74-.38.03-.71-.25-.74-.62-.04-.38.25-.71.62-.74.38-.03.71.25.74.63Z"/>
        </g>
      </g>
    </g>
  </g>
</svg>