<?xml version="1.0" encoding="UTF-8"?>
<svg xmlns="http://www.w3.org/2000/svg" viewBox="0 0 56.05 48.82">
  <defs>
    <style>
      .cls-1 {
        fill: #fff;
      }

      .cls-2 {
        fill: #8196fc;
      }

      .cls-3 {
        fill: #1d1b3a;
      }

      .cls-4 {
        isolation: isolate;
      }

      .cls-5 {
        fill: #ad3915;
      }

      .cls-6 {
        fill: #ff9d28;
      }

      .cls-7 {
        fill: #7585f8;
      }

      .cls-8 {
        fill: #f28f19;
      }

      .cls-9 {
        fill: #b38cff;
      }

      .cls-10 {
        mix-blend-mode: overlay;
        opacity: .3;
      }

      .cls-11 {
        fill: #f4a517;
      }

      .cls-12 {
        fill: #a4dcff;
      }

      .cls-13 {
        fill: #be4719;
      }

      .cls-14 {
        fill: #f268b4;
      }

      .cls-15 {
        fill: #ff8998;
      }
    </style>
  </defs>
  <g class="cls-4">
    <g id="Layer_2" data-name="Layer 2">
      <g id="Layer_1-2" data-name="Layer 1">
        <g>
          <path class="cls-12" d="m25.54,6.63c-.68,0-1.23-.54-1.23-1.21s.55-1.21,1.23-1.21,1.23.54,1.23,1.21-.55,1.21-1.23,1.21Zm0-2.09c-.49,0-.89.4-.89.88s.4.88.89.88.89-.4.89-.88-.4-.88-.89-.88Z"/>
          <path class="cls-2" d="m20.95,9.02c-.67,0-1.21-.54-1.21-1.19s.54-1.19,1.21-1.19,1.21.54,1.21,1.19-.54,1.19-1.21,1.19Zm0-2.06c-.48,0-.88.39-.88.87s.39.86.88.86.88-.39.88-.86-.4-.87-.88-.87Z"/>
          <path class="cls-11" d="m25.18,1.66c.14-.17.2-.78.43-.78s.27.62.43.78c.16.16.79.2.78.43-.01.22-.64.25-.78.43-.14.17-.21.79-.43.78-.22-.02-.25-.64-.43-.78-.17-.14-.79-.21-.78-.43.01-.22.64-.25.78-.43Z"/>
          <path class="cls-11" d="m20.48,38.46c.14-.17.2-.78.43-.78s.27.62.42.78c.16.16.79.2.78.43-.01.22-.64.25-.78.43-.14.17-.21.79-.42.78-.22-.02-.25-.65-.43-.78-.18-.14-.79-.21-.78-.43.01-.22.64-.25.78-.43Z"/>
          <g>
            <g>
              <polygon class="cls-7" points="39.91 35.87 39.98 35.53 39.14 35.35 39.06 35.68 39.91 35.87"/>
              <polygon class="cls-7" points="41.19 36.1 41.24 35.76 40.39 35.62 40.33 35.95 41.19 36.1"/>
              <path class="cls-7" d="m42.48,36.26l.03-.34s-.21-.01-.43-.05c-.21-.03-.43-.06-.43-.06l-.05.34s.22.03.43.06c.21.03.43.05.43.05Z"/>
              <path class="cls-7" d="m43.78,36.35v-.34s-.2,0-.42-.02c-.22,0-.43-.03-.43-.03l-.03.34s.22.03.44.03c.22,0,.44.02.44.02Z"/>
              <polygon class="cls-7" points="45.08 36.36 45.07 36.02 44.21 36.03 44.21 36.37 45.08 36.36"/>
              <path class="cls-7" d="m46.38,36.26l-.04-.34s-.85.08-.85.08l.02.34s.87-.06.87-.08Z"/>
              <path class="cls-7" d="m47.67,36.03l-.07-.33s-.21.05-.42.09c-.21.04-.42.07-.42.07l.05.34s.22-.03.44-.07c.21-.05.43-.1.43-.1Z"/>
            </g>
            <g>
              <polygon class="cls-7" points="48.93 35.67 48.82 35.35 48.01 35.61 48.09 35.93 48.93 35.67"/>
              <path class="cls-7" d="m50.14,35.15l-.16-.3s-.77.35-.77.35l.13.32s.2-.08.41-.17c.21-.08.39-.19.39-.19Z"/>
              <path class="cls-7" d="m51.26,34.46l-.2-.28s-.17.12-.35.24c-.17.13-.36.22-.36.22l.17.29s.2-.09.38-.23c.18-.13.36-.25.36-.25Z"/>
              <polygon class="cls-7" points="52.27 33.62 52.04 33.38 51.4 33.94 51.61 34.21 52.27 33.62"/>
              <path class="cls-7" d="m53.14,32.63l-.27-.2s-.11.18-.26.33c-.14.16-.28.32-.28.32l.25.23s.15-.16.3-.33c.16-.16.27-.35.27-.35Z"/>
              <path class="cls-7" d="m53.86,31.53l-.3-.17s-.1.18-.21.37c-.11.18-.24.35-.24.35l.28.19s.13-.18.25-.36c.11-.19.22-.38.22-.38Z"/>
              <path class="cls-7" d="m54.44,30.36l-.31-.14s-.34.79-.36.78l.3.16s.37-.79.37-.79Z"/>
            </g>
            <g>
              <polygon class="cls-7" points="54.96 29.17 54.64 29.05 54.3 29.84 54.61 29.97 54.96 29.17"/>
              <polygon class="cls-7" points="55.37 27.94 55.05 27.84 54.79 28.65 55.11 28.77 55.37 27.94"/>
              <path class="cls-7" d="m55.71,26.68l-.33-.07s-.04.21-.08.42c-.04.21-.12.41-.12.41l.33.09s.08-.21.12-.42c.04-.22.08-.43.08-.43Z"/>
              <path class="cls-7" d="m55.94,25.39l-.34-.04s0,.05-.01.13c-.02.08-.03.19-.06.29-.04.21-.08.42-.08.42l.33.06s.18-.86.15-.86Z"/>
              <polygon class="cls-7" points="56.05 24.09 55.7 24.08 55.64 24.93 55.98 24.96 56.05 24.09"/>
              <polygon class="cls-7" points="56.02 22.78 55.68 22.8 55.71 23.66 56.05 23.66 56.02 22.78"/>
              <polygon class="cls-7" points="55.89 21.48 55.55 21.53 55.66 22.38 56 22.35 55.89 21.48"/>
            </g>
            <g>
              <polygon class="cls-7" points="55.67 20.2 55.33 20.27 55.5 21.12 55.84 21.06 55.67 20.2"/>
              <polygon class="cls-7" points="55.38 18.94 55.05 19.02 55.25 19.86 55.58 19.79 55.38 18.94"/>
              <rect class="cls-7" x="54.84" y="17.71" width=".34" height=".87" transform="translate(-2.78 14.15) rotate(-14.3)"/>
              <polygon class="cls-7" points="54.75 16.43 54.42 16.51 54.63 17.36 54.96 17.27 54.75 16.43"/>
              <path class="cls-7" d="m54.48,15.18l-.33.07s.04.21.08.43c.04.22.09.43.09.43l.33-.08s-.06-.21-.09-.42c-.04-.21-.08-.42-.08-.42Z"/>
              <path class="cls-7" d="m54.28,13.92l-.34.04s.03.22.05.43c.02.22.07.43.07.43l.33-.06s-.05-.21-.07-.42c-.02-.21-.05-.43-.05-.43Z"/>
              <path class="cls-7" d="m54.18,12.65h-.34s0,.23,0,.45c.02.22.05.44.05.44l.34-.03s-.02-.22-.04-.43c0-.21,0-.43,0-.43Z"/>
            </g>
            <g>
              <path class="cls-7" d="m54.2,11.37l-.34-.02s0,.05-.02.14c0,.08-.02.19-.01.3,0,.22,0,.44,0,.44h.34s0-.21,0-.43c0-.11,0-.21.02-.29,0-.08.01-.13.01-.13Z"/>
              <path class="cls-7" d="m54.34,10.11l-.33-.06s-.03.22-.05.43c-.02.22-.05.44-.05.44l.34.04s.02-.21.04-.43c.02-.21.05-.42.05-.42Z"/>
              <polygon class="cls-7" points="54.62 8.87 54.29 8.78 54.1 9.63 54.43 9.7 54.62 8.87"/>
              <polygon class="cls-7" points="55.02 7.65 54.7 7.54 54.4 8.36 54.73 8.46 55.02 7.65"/>
              <polygon class="cls-7" points="55.45 6.43 55.13 6.33 54.84 7.14 55.16 7.26 55.45 6.43"/>
              <path class="cls-7" d="m55.74,5.13h-.34s0,.04,0,.12c0,.08-.02.18-.04.28-.04.2-.09.41-.09.41l.33.08s.05-.22.1-.44c.03-.11.04-.22.05-.3,0-.08,0-.14,0-.14Z"/>
              <path class="cls-7" d="m55.65,3.8l-.33.08s.01.05.03.13c.02.08.04.18.04.28.02.21.03.42.03.42l.35-.02s-.02-.22-.03-.45c0-.11-.03-.22-.05-.31-.02-.08-.03-.13-.03-.13Z"/>
            </g>
            <g>
              <path class="cls-7" d="m55.14,2.57l-.3.17s.1.18.21.37c.08.19.16.39.16.39l.33-.12s-.08-.21-.17-.42c-.11-.2-.22-.39-.22-.39Z"/>
              <path class="cls-7" d="m54.27,1.56l-.24.25s.59.59.57.61l.28-.2s-.6-.67-.62-.65Z"/>
              <path class="cls-7" d="m53.16.81l-.16.3s.72.42.71.44l.21-.27s-.76-.49-.77-.47Z"/>
              <path class="cls-7" d="m51.93.32l-.09.33s.8.28.8.28l.14-.31s-.21-.08-.41-.16c-.21-.09-.42-.14-.42-.14Z"/>
              <path class="cls-7" d="m50.64.06l-.04.34s.21.01.42.06c.21.04.42.08.42.08l.08-.33s-.22-.04-.43-.09c-.22-.05-.44-.06-.44-.06Z"/>
              <path class="cls-7" d="m49.32.01l.02.34s.21-.02.42-.01c.21,0,.42.01.42.01l.02-.34s-.22,0-.44-.01c-.22-.01-.44.01-.44.01Z"/>
              <path class="cls-7" d="m48.01.19l.08.34s.2-.06.41-.09c.21-.03.42-.05.42-.05l-.04-.34s-.22.03-.44.06c-.22.03-.44.09-.44.09Z"/>
            </g>
            <g>
              <path class="cls-7" d="m46.76.6l.14.31s.19-.09.39-.16c.2-.07.4-.13.4-.13l-.1-.33s-.21.07-.42.13c-.21.07-.41.17-.41.17Z"/>
              <path class="cls-7" d="m45.61,1.26l.2.28s.16-.13.35-.24c.18-.11.37-.21.37-.21l-.16-.3s-.19.11-.39.22c-.19.12-.37.25-.37.25Z"/>
              <path class="cls-7" d="m44.64,2.17l.26.22s.13-.17.28-.32c.15-.14.31-.28.31-.28l-.22-.26s-.16.15-.33.3c-.16.16-.3.34-.3.34Z"/>
              <path class="cls-7" d="m43.92,3.29l.31.15s.08-.2.19-.37c.11-.18.23-.35.23-.35l-.28-.2s-.12.19-.24.38c-.12.19-.21.4-.21.4Z"/>
              <path class="cls-7" d="m43.49,4.54l.33.08s.24-.81.24-.81l-.32-.12s-.29.85-.26.85Z"/>
              <path class="cls-7" d="m43.31,5.85l.34.02s.02-.21.04-.42c0-.11.02-.21.02-.29.02-.08.03-.13.03-.13l-.33-.06s-.09.88-.09.88Z"/>
              <polygon class="cls-7" points="43.33 7.16 43.67 7.14 43.65 6.29 43.31 6.29 43.33 7.16"/>
            </g>
            <g>
              <path class="cls-7" d="m43.34,8.43h.34s0-.2.02-.42c0-.22-.01-.44-.01-.44h-.34s0,.22.01.44c0,.21-.02.43-.02.43Z"/>
              <path class="cls-7" d="m43.23,9.7l.33.05s.11-.87.09-.87l-.34-.02s-.09.85-.09.85Z"/>
              <polygon class="cls-7" points="42.99 10.95 43.32 11.04 43.51 10.18 43.17 10.12 42.99 10.95"/>
              <path class="cls-7" d="m42.56,12.14l.31.14s.09-.2.18-.41c.07-.21.14-.42.14-.42l-.32-.1s-.06.2-.13.41c-.08.19-.17.39-.17.39Z"/>
              <path class="cls-7" d="m41.97,13.25l.29.19s.45-.77.45-.77l-.3-.15s-.4.74-.43.73Z"/>
              <path class="cls-7" d="m41.19,14.23l.25.24s.59-.66.57-.68l-.27-.21s-.54.65-.54.65Z"/>
              <path class="cls-7" d="m40.24,15.06l.2.27s.17-.13.35-.27c.16-.15.33-.3.33-.3l-.23-.25s-.16.14-.31.29c-.17.13-.34.25-.34.25Z"/>
            </g>
          </g>
          <g>
            <g>
              <polygon class="cls-9" points="27.84 26.71 27.55 26.61 27.8 25.87 28.09 25.96 27.84 26.71"/>
              <rect class="cls-9" x="27.03" y="27.24" width=".79" height=".31" transform="translate(-8.05 43.01) rotate(-68.74)"/>
              <polygon class="cls-9" points="26.98 28.9 26.7 28.79 27 28.06 27.28 28.17 26.98 28.9"/>
              <polygon class="cls-9" points="26.55 29.99 26.26 29.88 26.55 29.14 26.84 29.26 26.55 29.99"/>
              <path class="cls-9" d="m26.15,31.08l-.29-.1s.06-.19.13-.38c.06-.19.14-.37.14-.37l.29.11s-.08.18-.13.37c-.06.19-.12.37-.12.37Z"/>
              <path class="cls-9" d="m25.82,32.19l-.3-.08s.05-.19.1-.39c.05-.19.12-.38.12-.38l.3.09s-.07.18-.12.37c-.05.19-.09.38-.09.38Z"/>
              <path class="cls-9" d="m25.57,33.32l-.31-.05s.03-.19.06-.39c.05-.19.1-.39.1-.39l.3.07s-.05.19-.1.38c-.03.19-.06.38-.06.38Z"/>
            </g>
            <g>
              <path class="cls-9" d="m25.43,34.47l-.31-.02s0-.05,0-.12c0-.07,0-.18.02-.27.03-.2.06-.39.06-.39l.31.04s-.03.19-.06.39c-.02.1-.02.19-.02.27,0,.07,0,.12,0,.12Z"/>
              <path class="cls-9" d="m25.4,35.62h-.31s0-.19,0-.39c0-.2.01-.4.01-.4h.31s0,.2-.01.4c0,.19,0,.39,0,.39Z"/>
              <polygon class="cls-9" points="25.49 36.78 25.19 36.81 25.12 36.02 25.43 36 25.49 36.78"/>
              <polygon class="cls-9" points="25.7 37.91 25.4 37.98 25.23 37.2 25.54 37.15 25.7 37.91"/>
              <polygon class="cls-9" points="25.94 39.07 25.63 39.12 25.48 38.36 25.78 38.29 25.94 39.07"/>
              <path class="cls-9" d="m26.03,40.28l-.31-.04s0-.05,0-.12c0-.07,0-.17,0-.26-.01-.19-.03-.38-.03-.38l.31-.03s.01.2.03.41c.01.1.01.2,0,.28,0,.08-.01.13-.01.13Z"/>
              <path class="cls-9" d="m25.79,41.46l-.29-.12s.02-.04.04-.11c.02-.07.06-.15.07-.25.04-.19.08-.37.08-.37l.31.06s-.04.2-.09.4c-.02.1-.05.2-.08.27-.03.07-.04.12-.04.12Z"/>
            </g>
            <g>
              <path class="cls-9" d="m25.18,42.5l-.25-.19s.12-.15.23-.3c.09-.16.19-.33.19-.33l.28.14s-.1.18-.2.36c-.12.16-.25.32-.25.32Z"/>
              <path class="cls-9" d="m24.27,43.3l-.18-.25s.61-.45.59-.47l.23.22s-.62.52-.64.51Z"/>
              <path class="cls-9" d="m23.18,43.83l-.11-.29s.7-.29.69-.31l.16.27s-.74.35-.75.33Z"/>
              <path class="cls-9" d="m22.02,44.12l-.05-.31s.75-.16.75-.16l.09.3s-.2.05-.39.09c-.2.05-.39.07-.39.07Z"/>
              <path class="cls-9" d="m20.82,44.2v-.31s.2.01.39,0c.19,0,.38-.02.38-.02l.03.31s-.2.01-.4.02c-.2.01-.4,0-.4,0Z"/>
              <path class="cls-9" d="m19.63,44.08l.06-.3s.19.04.38.06c.19.02.38.04.38.04l-.02.31s-.2-.02-.4-.04c-.2-.02-.4-.07-.4-.07Z"/>
              <path class="cls-9" d="m18.48,43.76l.11-.29s.18.07.36.13c.19.05.37.1.37.1l-.07.3s-.19-.05-.39-.11c-.19-.05-.38-.13-.38-.13Z"/>
            </g>
            <g>
              <path class="cls-9" d="m17.4,43.23l.16-.26s.16.11.33.19c.17.08.35.17.35.17l-.12.28s-.18-.09-.36-.17c-.18-.09-.35-.2-.35-.2Z"/>
              <path class="cls-9" d="m16.45,42.5l.22-.22s.13.14.28.26c.15.12.3.23.3.23l-.18.25s-.16-.12-.32-.24c-.16-.13-.3-.27-.3-.28Z"/>
              <path class="cls-9" d="m15.69,41.56l.26-.16s.1.16.21.32c.12.15.24.29.24.29l-.23.2s-.13-.16-.26-.31c-.12-.16-.22-.34-.22-.34Z"/>
              <path class="cls-9" d="m15.19,40.46l.3-.09s.05.18.13.36c.08.17.16.34.16.34l-.28.14s-.08-.19-.17-.37c-.08-.19-.14-.38-.14-.38Z"/>
              <path class="cls-9" d="m14.95,39.28l.31-.03s.12.75.12.75l-.3.07s-.15-.8-.13-.8Z"/>
              <path class="cls-9" d="m14.95,38.08l.31.03s0,.19-.02.38c0,.1-.01.19-.01.26,0,.07,0,.12,0,.12h-.31s.03-.8.03-.8Z"/>
              <polygon class="cls-9" points="15.13 36.91 15.44 36.97 15.31 37.74 15 37.69 15.13 36.91"/>
            </g>
            <g>
              <path class="cls-9" d="m15.3,35.77l.31.03s-.02.2-.04.4c-.03.2-.07.39-.07.39l-.31-.05s.03-.19.06-.38c.02-.19.04-.39.04-.39Z"/>
              <path class="cls-9" d="m15.36,34.61h.31s0,.8-.02.8l-.31-.02s.02-.77.02-.77Z"/>
              <polygon class="cls-9" points="15.3 33.46 15.6 33.43 15.67 34.22 15.36 34.23 15.3 33.46"/>
              <path class="cls-9" d="m15.06,32.34l.3-.08s.05.19.11.39c.03.2.07.39.07.39l-.3.05s-.03-.19-.07-.38c-.05-.19-.1-.37-.1-.37Z"/>
              <path class="cls-9" d="m14.66,31.27l.28-.14s.31.74.31.74l-.29.1s-.27-.72-.29-.71Z"/>
              <path class="cls-9" d="m14.08,30.29l.25-.18s.45.67.43.68l-.27.15s-.41-.65-.41-.65Z"/>
              <path class="cls-9" d="m13.33,29.42l.22-.22s.14.14.28.29c.13.15.26.31.26.31l-.24.2s-.12-.15-.25-.3c-.14-.14-.27-.27-.27-.27Z"/>
            </g>
          </g>
          <g>
            <path class="cls-13" d="m29.49,38.69c.84,5.32,3.51,6.86,2.16,9.15-.15.25-.79.6-.73.88.06.27,1.87.08,2.14-1.22,0,0,.64-2.78-.15-6.51-.96-4.54-4.26-7.61-3.42-2.29Z"/>
            <path class="cls-13" d="m40.42,37.19c4.76.14,6.5-2.33,8.3-.49.2.2.41.93.65.92.24,0,.35-1.92-.75-2.45,0,0-2.33-1.19-5.7-1.08-4.1.13-7.27,2.96-2.51,3.1Z"/>
            <path class="cls-14" d="m31.48,25.81s-.44-2.77,3.07-1.46c3.51,1.31,3.86,8.21,5.27,8.8,1.41.59,2.79.4,7.31,1.12,0,0,.71.65.33,1.92,0,0-4.81,4.21-10.01,1.37-5.2-2.84-6.78-10.19-5.96-11.76Z"/>
            <path class="cls-14" d="m37.3,24.45c2.05-.54,3.6-1.3,3.8,2.37.26,4.72-7.32,9.3-7.62,10.96-.3,1.65.06,2.76.2,7.91,0,0-.77.93-2.04.66,0,0-3.9-6.16-2.85-9.91,1.73-6.18,6.39-11.44,8.51-11.99Z"/>
            <path class="cls-3" d="m31.84,26.43s3.59,2.77,8.9,2.47c0,0,.18-.25.47-1.53.28-1.19-9.38-.93-9.38-.93Z"/>
            <path class="cls-1" d="m33.2,46.07c-3.03-6.68-1.23-9.51.94-11.39,3.84-3.35,5.21-6.99,5.23-7.03l.12.04s-1.4,3.71-5.26,7.08c-2.23,1.95-3.89,4.66-.9,11.25l-.11.05Z"/>
            <g>
              <path class="cls-15" d="m32.1,17.34s3.14.2,1.77,2.88c-1.37,2.69-4.43,5.38-4.4,3.91.03-1.51,1.86-5.76,2.63-6.79Z"/>
              <path class="cls-13" d="m21.68,25.52c.2-.17.88-.46,2.2-.59,4.68-.44,6.54-4.16,6.54-4.16l2.25-.89s1.6-1.36,1.38-.05c-.09.53-2.7,5.94-7.62,6.05-5.2.12-4.89-.25-4.74-.37Z"/>
            </g>
            <path class="cls-8" d="m34.07,15.75c.77.26,1.59.72.94,3.13-.45,1.63-1.03,2.65-1.03,2.65,0,0-2.88.61-3.89-1.15,0,0,1.24-5.57,3.99-4.63Z"/>
            <path class="cls-3" d="m34.74,9.77c.78-.81,3.6-2.14,5.57,1.01.43.69.9,1.91,2.45,2.24,1.09.23,3.52,1.77,1.62,4.52-1.9,2.74,1.65,3.05-.44,4.13-5.59,2.88-7.49-.08-9.03-3.1-2.4-4.75-1.75-7.15-.17-8.79Z"/>
            <path class="cls-11" d="m41.58,26.38c-.03-.06-.05-.12-.07-.19-.8-2.54-1.43-4.14-.61-6.72,1.17-3.7-1.87-4.09-3.72-4.37-.94-.14-2.19-.19-3.29.19-2.41.6-2.26,2.37-2.5,3.27-.28,2.07.35,4.62.02,6.93-.37,2.61,11.53,3.66,10.18.89Z"/>
            <path class="cls-5" d="m37.57,12.67s-.33,1.72.24,2.48c.36.48-2.62,1.56-2.56.91.07-.84.59-1.35,0-2.29l2.32-1.1Z"/>
            <path class="cls-13" d="m34.91,10.28c-.53.88-1.27,4.66.64,4.86.86.09,2.28-.97,2.74-2.5.19-.63-.2-1.78-1.1-2.6-.41-.37-1.67-.79-2.27.23Z"/>
            <path class="cls-3" d="m34.21,11.67c.05.44.84-1.23,1.35-.41.54.86,1.53.37,2.15,2.01.41,1.12,1.26-1.25,1.32-1.43q.26-.76-.89-1.98c-1.15-1.22-4.17-.38-3.93,1.81Z"/>
            <path class="cls-3" d="m40.4,21.14s-2.72,5.66-6.22,4.15l4.35-3.37,1.87-.77Z"/>
            <g>
              <path class="cls-12" d="m17.88,24.83c-.21,0-.42-.08-.58-.21l-3.62-3.06c-.38-.32-.42-.89-.11-1.27l2.82-3.33c.31-.36.9-.41,1.27-.11l3.62,3.06c.38.32.43.89.11,1.27l-2.82,3.33c-.17.2-.42.32-.69.32Zm-.81-7.41s-.06,0-.08.04l-2.82,3.33s-.04.12.02.16l3.7,3.09s.06,0,.09-.04l2.81-3.33s.03-.12-.01-.16l-3.62-3.06s-.06-.03-.08-.03Z"/>
              <path class="cls-14" d="m3.12,1.42h1.44c.28,0,.51.23.51.51v7.5c0,.28-.23.51-.51.51h-1.44c-.28,0-.51-.23-.51-.51V1.93c0-.28.23-.51.51-.51Z" transform="translate(-2.98 4.94) rotate(-49.8)"/>
              <path class="cls-6" d="m24.02,25.06c-.18.21-.5.24-.72.06L1.11,6.37c-.21-.18-.24-.5-.06-.72l2.29-2.72c.18-.22.5-.24.72-.06l22.18,18.75c.22.18.24.5.06.71l-2.3,2.72Z"/>
              <path class="cls-10" d="m1.11,6.37l22.18,18.75c.21.18.52.16.71-.05l.82-.97c.18-.21.15-.54-.06-.72L2.58,4.63c-.21-.18-.53-.15-.71.06l-.82.97c-.18.22-.16.54.06.72Z"/>
              <path class="cls-12" d="m47.57,46.81c-.18.22-.5.24-.71.06l-25.74-21.75c-.21-.18-.24-.5-.06-.72l3.95-4.67c.18-.21.5-.24.72-.06l25.73,21.75c.22.18.24.5.06.72l-3.95,4.67Z"/>
              <rect class="cls-12" x="14.39" y="17.7" width="3.09" height=".79" transform="translate(-8.17 18.58) rotate(-49.78)"/>
              <path class="cls-12" d="m17.45,17.65c-.31.37-.86.41-1.23.1-.37-.31-.41-.86-.1-1.22.31-.37.86-.41,1.22-.1.37.31.41.86.1,1.22Z"/>
              <polygon class="cls-6" points="15.74 14.13 26.58 14.42 26.79 15.43 18.47 16.44 15.74 14.13"/>
              <path class="cls-14" d="m25.13,13.54h4.14c.28,0,.51.23.51.51v1.78c0,.28-.23.51-.51.51h-4.14c-.28,0-.51-.23-.51-.51v-1.79c0-.28.23-.51.51-.51Z" transform="translate(-.54 1.03) rotate(-2.15)"/>
              <path class="cls-10" d="m21.12,25.12l25.74,21.75c.21.18.53.16.71-.06l2.04-2.41-26.49-22.43-2.06,2.44c-.18.21-.15.53.06.72Z"/>
            </g>
            <g>
              <path class="cls-15" d="m38.44,17.85s3.14.2,1.77,2.88c-1.37,2.68-4.44,5.38-4.4,3.91.03-1.51,1.86-5.76,2.63-6.79Z"/>
              <path class="cls-13" d="m28.02,26.02c.2-.17.88-.46,2.2-.59,4.69-.44,6.54-4.16,6.54-4.16l2.24-.89s1.6-1.36,1.38-.05c-.09.53-2.7,5.94-7.62,6.05-5.2.12-4.89-.25-4.74-.38Z"/>
            </g>
            <path class="cls-8" d="m40.04,16.12c.77.27,1.65.81,1.3,3.26-.24,1.68-.79,2.75-.79,2.75,0,0-2.87.07-4.14-1.25,0,0,.88-5.7,3.62-4.76Z"/>
          </g>
          <path class="cls-2" d="m49.59,10.21c-.67,0-1.21-.54-1.21-1.19s.55-1.19,1.21-1.19,1.21.53,1.21,1.19-.54,1.19-1.21,1.19Zm0-2.06c-.48,0-.88.39-.88.87s.4.87.88.87.88-.39.88-.87-.4-.87-.88-.87Z"/>
          <path class="cls-14" d="m53.81,4.93c.03.38-.25.71-.63.74-.38.03-.71-.25-.74-.62-.04-.38.24-.71.62-.74.38-.03.71.25.74.63Z"/>
        </g>
      </g>
    </g>
  </g>
</svg>