<?xml version="1.0" encoding="UTF-8"?>
<svg xmlns="http://www.w3.org/2000/svg" viewBox="0 0 67.71 77.62">
  <defs>
    <style>
      .cls-1 {
        fill: #fff;
      }

      .cls-2 {
        fill: #8196fc;
      }

      .cls-3 {
        fill: #8861e5;
      }

      .cls-4 {
        fill: #1d1b3a;
      }

      .cls-5 {
        isolation: isolate;
      }

      .cls-6 {
        fill: #ad3915;
      }

      .cls-7 {
        fill: #ff9d28;
      }

      .cls-8 {
        fill: #f48d1c;
      }

      .cls-9 {
        fill: #e23db3;
      }

      .cls-10 {
        fill: #f28f19;
      }

      .cls-11 {
        fill: #b38cff;
      }

      .cls-12 {
        fill: #fabee2;
      }

      .cls-13 {
        fill: #fbc6b4;
      }

      .cls-14 {
        fill: #79c5ff;
      }

      .cls-15 {
        mix-blend-mode: overlay;
        opacity: .3;
      }

      .cls-16 {
        fill: #f4a517;
      }

      .cls-17 {
        fill: #efabd7;
      }

      .cls-18 {
        fill: #a4dcff;
      }

      .cls-19 {
        fill: #be4719;
      }

      .cls-20 {
        fill: #f268b4;
      }
    </style>
  </defs>
  <g class="cls-5">
    <g id="Layer_2" data-name="Layer 2">
      <g id="Layer_1-2" data-name="Layer 1">
        <g>
          <g>
            <g>
              <path class="cls-16" d="m51.42,64.96l-.02.36s-.23-.01-.47-.03c-.23-.02-.47-.04-.47-.04l.04-.36s.23.02.45.04c.23.01.46.03.46.03Z"/>
              <polygon class="cls-16" points="52.79 64.99 52.79 65.35 51.86 65.33 51.87 64.98 52.79 64.99"/>
              <polygon class="cls-16" points="54.16 64.96 54.18 65.32 53.25 65.34 53.24 64.99 54.16 64.96"/>
              <polygon class="cls-16" points="55.52 64.86 55.56 65.22 54.63 65.29 54.61 64.94 55.52 64.86"/>
              <polygon class="cls-16" points="56.87 64.68 56.93 65.03 56.01 65.16 55.97 64.81 56.87 64.68"/>
              <path class="cls-16" d="m58.21,64.4l.09.34s-.23.05-.45.11c-.23.05-.46.1-.46.1l-.07-.35s.22-.04.45-.09c.22-.05.45-.1.45-.1Z"/>
              <path class="cls-16" d="m59.5,64l.12.33s-.22.08-.44.15c-.22.08-.45.14-.45.14l-.1-.34s.22-.06.44-.13c.21-.07.43-.15.43-.15Z"/>
            </g>
            <g>
              <path class="cls-16" d="m60.73,63.44l.17.31s-.84.42-.85.41l-.14-.33s.82-.39.82-.39Z"/>
              <path class="cls-16" d="m61.83,62.68l.23.27s-.18.15-.37.29c-.19.15-.39.27-.39.27l-.19-.3s.2-.12.37-.25c.18-.13.35-.28.35-.28Z"/>
              <path class="cls-16" d="m62.71,61.69l.3.2s-.59.76-.6.74l-.25-.25s.58-.67.56-.69Z"/>
              <path class="cls-16" d="m63.27,60.5l.34.1s-.04.24-.16.45c-.1.22-.2.44-.2.44l-.32-.17s.09-.2.18-.4c.1-.2.14-.42.14-.42Z"/>
              <path class="cls-16" d="m63.48,59.19h.36s.02.25-.03.49c-.04.24-.07.47-.07.47l-.35-.07s.03-.22.06-.44c.05-.22.03-.45.03-.45Z"/>
              <path class="cls-16" d="m63.39,57.86l.35-.06s.03.24.06.47c.02.23.04.47.04.47h-.36s-.02-.21-.04-.43c-.03-.22-.05-.45-.05-.45Z"/>
              <path class="cls-16" d="m63.07,56.55l.34-.11s.07.22.14.45c.05.23.1.46.1.46l-.35.07s-.05-.22-.09-.44c-.07-.22-.14-.43-.14-.43Z"/>
            </g>
            <g>
              <polygon class="cls-16" points="62.64 55.24 62.98 55.13 63.27 56.01 62.93 56.12 62.64 55.24"/>
              <polygon class="cls-16" points="62.21 53.93 62.55 53.83 62.84 54.7 62.5 54.81 62.21 53.93"/>
              <polygon class="cls-16" points="61.85 52.59 62.19 52.51 62.43 53.39 62.09 53.49 61.85 52.59"/>
              <path class="cls-16" d="m61.55,51.24l.35-.07s.16.9.18.9l-.35.08s-.19-.91-.19-.91Z"/>
              <path class="cls-16" d="m61.32,49.87l.36-.04s.03.23.05.45c.04.22.08.45.08.45l-.35.06s-.04-.23-.09-.46c-.03-.23-.05-.46-.05-.46Z"/>
              <path class="cls-16" d="m61.19,48.49l.36-.02s.08.91.08.91l-.36.04s-.11-.93-.08-.93Z"/>
              <path class="cls-16" d="m61.19,47.09l.36.02s0,.91,0,.91h-.36s-.02-.93,0-.93Z"/>
            </g>
            <g>
              <path class="cls-16" d="m61.34,45.7l.35.06s-.01.06-.03.14c-.02.08-.04.2-.04.31-.02.23-.04.45-.04.45l-.36-.03s.02-.23.04-.47c0-.12.02-.23.04-.32.02-.09.03-.14.03-.14Z"/>
              <path class="cls-16" d="m61.66,44.34l.34.1s-.07.22-.13.44c-.04.22-.09.45-.09.45l-.35-.07s.05-.23.09-.46c.07-.23.14-.45.14-.45Z"/>
              <path class="cls-16" d="m62.13,43.03l.33.14s-.35.84-.33.85l-.34-.11s.34-.87.34-.87Z"/>
              <polygon class="cls-16" points="62.73 41.77 63.04 41.94 62.63 42.76 62.31 42.61 62.73 41.77"/>
              <path class="cls-16" d="m63.43,40.57l.3.19s-.12.2-.24.39c-.12.2-.23.4-.23.4l-.31-.18s.12-.2.24-.4c.11-.2.24-.4.24-.4Z"/>
              <polygon class="cls-16" points="64.18 39.41 64.48 39.61 63.98 40.38 63.67 40.19 64.18 39.41"/>
              <polygon class="cls-16" points="64.94 38.26 65.24 38.46 64.73 39.23 64.43 39.04 64.94 38.26"/>
            </g>
            <g>
              <polygon class="cls-16" points="65.67 37.11 65.98 37.29 65.48 38.08 65.18 37.89 65.67 37.11"/>
              <polygon class="cls-16" points="66.36 35.93 66.68 36.1 66.21 36.91 65.91 36.72 66.36 35.93"/>
              <path class="cls-16" d="m66.93,34.7l.33.12s-.07.23-.17.44c-.1.21-.2.43-.2.43l-.32-.16s.09-.2.19-.41c.1-.2.16-.42.16-.42Z"/>
              <path class="cls-16" d="m67.27,33.41l.35.06s-.2.92-.2.92l-.34-.1s.22-.87.19-.88Z"/>
              <path class="cls-16" d="m67.34,32.08l.36-.02s0,.95,0,.95l-.36-.03s.04-.9,0-.9Z"/>
              <path class="cls-16" d="m67.12,30.76l.34-.1s.08.23.11.46c.04.23.08.47.08.47l-.35.04s-.04-.22-.08-.44c-.03-.22-.11-.43-.11-.43Z"/>
              <path class="cls-16" d="m66.63,29.52l.32-.17s.11.21.21.42c.09.22.17.44.17.44l-.34.12s-.08-.21-.16-.42c-.1-.2-.2-.4-.2-.4Z"/>
            </g>
            <g>
              <path class="cls-16" d="m65.89,28.41l.27-.23s.15.19.29.38c.14.19.26.39.26.39l-.3.19s-.11-.2-.25-.37c-.14-.18-.27-.36-.27-.36Z"/>
              <path class="cls-16" d="m64.93,27.48l.22-.28s.71.62.7.64l-.26.25s-.65-.62-.66-.6Z"/>
              <path class="cls-16" d="m63.8,26.77l.16-.32s.22.09.42.22c.2.12.4.25.4.25l-.2.3s-.19-.12-.38-.24c-.19-.12-.39-.21-.39-.21Z"/>
              <path class="cls-16" d="m62.54,26.32l.08-.35s.23.06.46.12c.22.08.45.16.45.16l-.13.33s-.21-.09-.42-.15c-.22-.06-.43-.12-.43-.12Z"/>
              <path class="cls-16" d="m61.23,26.19v-.36s.95.03.94.06l-.05.35s-.89-.08-.89-.05Z"/>
              <path class="cls-16" d="m59.92,26.41l-.1-.34s.23-.08.46-.12c.23-.04.47-.08.47-.08l.04.36s-.22.04-.44.08c-.22.04-.43.12-.43.12Z"/>
              <path class="cls-16" d="m58.72,26.96l-.19-.3s.2-.12.41-.24c.22-.1.44-.19.44-.19l.14.33s-.2.09-.41.18c-.19.11-.38.23-.38.23Z"/>
            </g>
            <g>
              <path class="cls-16" d="m57.68,27.8l-.25-.25s.17-.16.34-.33c.17-.16.37-.3.37-.3l.21.29s-.19.13-.35.28c-.16.15-.32.31-.32.31Z"/>
              <path class="cls-16" d="m56.84,28.84l-.3-.2s.13-.2.27-.39c.15-.18.31-.36.31-.36l.27.23s-.15.17-.29.34c-.13.19-.25.37-.25.37Z"/>
              <path class="cls-16" d="m56.17,30.01l-.32-.15s.44-.83.44-.83l.31.18s-.45.79-.43.8Z"/>
              <polygon class="cls-16" points="55.61 31.26 55.29 31.12 55.66 30.27 55.99 30.42 55.61 31.26"/>
              <path class="cls-16" d="m55,32.51l-.31-.17s.11-.2.21-.4c.11-.2.21-.41.21-.41l.32.16s-.1.21-.21.42c-.11.21-.22.41-.22.41Z"/>
              <path class="cls-16" d="m54.26,33.7l-.29-.21s.13-.19.25-.38c.12-.19.25-.38.25-.38l.31.19s-.13.2-.25.39c-.13.2-.26.39-.26.39Z"/>
              <path class="cls-16" d="m53.36,34.77l-.26-.25s.16-.16.31-.33c.14-.18.28-.36.28-.36l.28.22s-.15.19-.29.37c-.16.17-.32.34-.32.34Z"/>
            </g>
            <g>
              <path class="cls-16" d="m52.32,35.71l-.21-.29s.69-.58.69-.58l.24.26s-.71.63-.72.61Z"/>
              <path class="cls-16" d="m51.11,36.45l-.16-.32s.8-.42.78-.45l.2.3s-.82.47-.82.47Z"/>
              <path class="cls-16" d="m49.79,36.93l-.09-.35s.22-.06.43-.13c.21-.07.42-.16.42-.16l.14.33s-.22.1-.44.17c-.23.07-.46.13-.46.13Z"/>
              <path class="cls-16" d="m48.4,37.16l-.03-.36s.23-.02.45-.04c.22-.04.44-.08.44-.08l.07.35s-.23.04-.46.09c-.24.02-.47.04-.47.04Z"/>
              <path class="cls-16" d="m47,37.16l.03-.36s.22.03.45.03h.45v.36s-.23,0-.46,0c-.24,0-.47-.03-.47-.03Z"/>
              <path class="cls-16" d="m45.61,36.96l.07-.35s.22.06.45.08c.22.03.45.07.45.07l-.04.35s-.23-.03-.46-.07c-.23-.03-.46-.09-.46-.09Z"/>
              <path class="cls-16" d="m44.27,36.6l.11-.34s.22.07.44.13c.22.06.44.12.44.12l-.08.35s-.23-.06-.45-.12c-.23-.06-.45-.13-.45-.13Z"/>
            </g>
            <g>
              <path class="cls-16" d="m42.96,36.12l.14-.33s.21.08.43.17c.21.09.43.16.43.16l-.12.34s-.22-.07-.44-.16c-.22-.09-.43-.17-.43-.17Z"/>
              <path class="cls-16" d="m41.7,35.53l.16-.32s.21.1.41.2c.21.1.41.19.41.19l-.15.32s-.21-.1-.42-.19c-.21-.1-.42-.21-.42-.21Z"/>
              <path class="cls-16" d="m40.48,34.87l.18-.31s.2.11.4.23c.2.11.4.22.4.22l-.17.32s-.21-.11-.41-.22c-.2-.12-.4-.23-.4-.23Z"/>
              <path class="cls-16" d="m39.31,34.13l.2-.3s.19.12.39.25c.19.12.39.24.39.24l-.19.31s-.2-.12-.39-.25c-.2-.13-.39-.25-.39-.25Z"/>
              <polygon class="cls-16" points="38.17 33.34 38.38 33.05 39.13 33.59 38.93 33.88 38.17 33.34"/>
              <path class="cls-16" d="m37.08,32.49l.22-.28s.18.14.36.29c.18.14.36.28.36.28l-.22.28s-.18-.14-.37-.28c-.18-.15-.36-.29-.36-.29Z"/>
              <path class="cls-16" d="m36.03,31.58l.25-.26s.17.15.34.31c.17.15.35.3.35.3l-.23.27s-.17-.15-.35-.31c-.17-.16-.34-.31-.34-.31Z"/>
            </g>
            <g>
              <path class="cls-16" d="m35,30.68l.22-.28s.18.15.37.3c.18.15.35.31.35.31l-.24.26s-.16-.16-.34-.3c-.18-.14-.36-.29-.36-.29Z"/>
              <path class="cls-16" d="m33.88,29.92l.18-.31s.2.12.4.25c.2.13.38.27.38.27l-.21.29s-.18-.13-.37-.26c-.19-.12-.39-.24-.39-.24Z"/>
              <path class="cls-16" d="m32.68,29.31l.14-.33s.22.08.43.19c.21.11.42.22.42.22l-.17.31s-.2-.1-.4-.21c-.2-.1-.41-.18-.41-.18Z"/>
              <path class="cls-16" d="m31.41,28.9l.08-.35s.91.26.91.26l-.12.34s-.86-.27-.87-.25Z"/>
              <path class="cls-16" d="m30.08,28.76v-.36s.23,0,.47.01c.24,0,.47.06.47.05l-.05.35s-.22-.06-.44-.05c-.22,0-.45-.01-.45-.01Z"/>
              <path class="cls-16" d="m28.77,28.95l-.09-.34s.22-.1.46-.11c.24-.03.47-.06.47-.06l.03.36s-.22.03-.44.06c-.22.01-.43.12-.43.1Z"/>
              <path class="cls-16" d="m27.54,29.45l-.17-.31s.21-.11.43-.21c.11-.05.21-.1.29-.14.09-.03.14-.04.14-.04l.12.34s-.06.02-.13.04c-.08.04-.17.09-.27.13-.2.1-.4.2-.4.2Z"/>
            </g>
            <g>
              <path class="cls-16" d="m26.45,30.22l-.24-.27s.17-.16.37-.29c.19-.14.38-.28.38-.28l.2.3s-.18.13-.37.26c-.19.13-.36.27-.35.28Z"/>
              <path class="cls-16" d="m25.52,31.19l-.27-.23s.13-.2.3-.36c.17-.17.34-.33.34-.33l.25.26s-.16.16-.32.32c-.17.15-.29.35-.29.35Z"/>
              <path class="cls-16" d="m24.72,32.28l-.3-.2s.11-.21.26-.39c.15-.19.29-.37.29-.37l.28.22s-.14.18-.28.36c-.14.18-.25.38-.25.38Z"/>
              <polygon class="cls-16" points="24.01 33.45 23.7 33.27 24.18 32.48 24.48 32.66 24.01 33.45"/>
              <path class="cls-16" d="m23.26,34.63l-.29-.21s.49-.77.49-.77l.3.19s-.48.81-.5.79Z"/>
              <path class="cls-16" d="m22.36,35.7l-.26-.25s.59-.69.59-.69l.28.22s-.58.74-.61.72Z"/>
              <path class="cls-16" d="m21.3,36.62l-.21-.29s.19-.12.36-.26c.17-.16.33-.31.33-.31l.24.26s-.17.16-.35.32c-.18.15-.38.28-.38.28Z"/>
            </g>
            <g>
              <path class="cls-16" d="m20.08,37.33l-.14-.33s.81-.38.79-.42l.19.3s-.84.44-.84.44Z"/>
              <path class="cls-16" d="m18.74,37.77l-.07-.35s.86-.24.86-.24l.12.34s-.91.3-.91.26Z"/>
              <path class="cls-16" d="m17.34,37.91v-.36s.22,0,.45-.01c.23,0,.45-.06.45-.05l.05.35s-.06,0-.15.02c-.09.02-.21.03-.32.03-.24,0-.47.01-.47.01Z"/>
              <path class="cls-16" d="m15.94,37.8l.06-.35s.9.09.9.1l-.02.36s-.94-.08-.94-.1Z"/>
              <path class="cls-16" d="m14.57,37.5l.1-.34s.22.06.44.11c.22.06.44.1.44.1l-.07.35s-.23-.04-.46-.11c-.23-.06-.45-.12-.45-.12Z"/>
              <path class="cls-16" d="m13.25,37.05l.13-.33s.21.08.43.16c.21.08.43.15.43.15l-.11.34s-.23-.07-.44-.15c-.22-.08-.44-.17-.44-.17Z"/>
              <polygon class="cls-16" points="11.97 36.52 12.12 36.19 12.96 36.55 12.83 36.88 11.97 36.52"/>
            </g>
            <g>
              <path class="cls-16" d="m10.71,36.1l.07-.35s.23.04.46.11c.23.07.46.15.46.15l-.13.33s-.21-.07-.42-.14c-.21-.06-.44-.1-.44-.1Z"/>
              <path class="cls-16" d="m9.37,35.93l.02-.36s.23,0,.47.04c.23.03.47.06.47.06l-.05.35s-.23-.03-.45-.06c-.23-.03-.45-.03-.45-.03Z"/>
              <polygon class="cls-16" points="8.01 35.91 8 35.55 8.93 35.54 8.92 35.9 8.01 35.91"/>
              <path class="cls-16" d="m6.66,36.05l-.05-.35s.23-.04.46-.07c.23-.02.47-.04.47-.04l.03.36s-.23.02-.45.04c-.23.03-.45.07-.45.07Z"/>
              <path class="cls-16" d="m5.34,36.33l-.1-.34s.91-.25.91-.23l.07.35s-.88.22-.88.22Z"/>
              <path class="cls-16" d="m4.08,36.8l-.15-.32s.88-.35.88-.35l.11.34s-.85.31-.84.33Z"/>
              <path class="cls-16" d="m2.93,37.49l-.21-.29s.19-.14.38-.28c.21-.11.42-.22.42-.22l.17.31s-.2.11-.4.21c-.18.13-.36.27-.36.27Z"/>
            </g>
            <g>
              <path class="cls-16" d="m1.94,38.38l-.27-.24s.16-.17.33-.34c.16-.18.34-.33.34-.32l.23.27s-.18.14-.32.31c-.16.16-.31.32-.31.32Z"/>
              <polygon class="cls-16" points="1.17 39.46 .85 39.29 1.38 38.5 1.66 38.72 1.17 39.46"/>
              <path class="cls-16" d="m.68,40.7l-.34-.1s.33-.88.33-.88l.33.15s-.36.82-.32.84Z"/>
              <path class="cls-16" d="m.42,42.02l-.35-.04s-.01-.24.06-.47c.05-.23.11-.46.11-.46l.35.08s-.05.22-.1.44c-.06.22-.04.45-.05.45Z"/>
              <path class="cls-16" d="m.37,43.37H.01s.03-.93.03-.93l.35.02s-.06.91-.03.9Z"/>
              <path class="cls-16" d="m.56,44.69l-.35.08s-.05-.23-.1-.46c-.06-.23-.05-.47-.06-.47l.35-.04s0,.23.06.45c.05.22.1.44.1.44Z"/>
              <polygon class="cls-16" points=".96 45.97 .63 46.11 .31 45.22 .66 45.12 .96 45.97"/>
            </g>
            <g>
              <path class="cls-16" d="m1.6,47.16l-.3.19s-.15-.19-.24-.4c-.11-.21-.22-.42-.22-.42l.32-.16s.41.81.44.79Z"/>
              <path class="cls-16" d="m2.42,48.22l-.26.24s-.16-.17-.32-.35c-.15-.18-.28-.38-.28-.38l.29-.21s.12.19.27.37c.15.17.31.33.31.33Z"/>
              <path class="cls-16" d="m3.4,49.13l-.22.28s-.18-.15-.37-.3c-.09-.08-.18-.15-.25-.21-.06-.07-.1-.11-.1-.11l.25-.26s.04.04.1.1c.07.05.15.12.24.2.17.14.35.29.35.29Z"/>
              <polygon class="cls-16" points="4.53 49.86 4.36 50.18 3.55 49.7 3.75 49.4 4.53 49.86"/>
              <polygon class="cls-16" points="5.76 50.4 5.65 50.73 4.77 50.38 4.92 50.05 5.76 50.4"/>
              <polygon class="cls-16" points="7.07 50.72 7.01 51.07 6.09 50.85 6.19 50.51 7.07 50.72"/>
              <polygon class="cls-16" points="8.42 50.85 8.4 51.21 7.47 51.12 7.51 50.77 8.42 50.85"/>
            </g>
            <g>
              <polygon class="cls-16" points="9.77 50.8 9.8 51.16 8.86 51.2 8.86 50.85 9.77 50.8"/>
              <polygon class="cls-16" points="11.11 50.61 11.18 50.96 10.26 51.12 10.21 50.77 11.11 50.61"/>
              <path class="cls-16" d="m12.43,50.3l.09.35s-.22.07-.45.13c-.11.04-.23.06-.31.08-.09.02-.14.03-.14.03l-.08-.35s.06-.01.14-.03c.09-.01.2-.03.31-.07.22-.07.44-.13.44-.13Z"/>
              <polygon class="cls-16" points="13.74 49.91 13.86 50.24 12.97 50.51 12.86 50.17 13.74 49.91"/>
              <polygon class="cls-16" points="15 49.38 15.14 49.71 14.28 50.07 14.15 49.73 15 49.38"/>
              <path class="cls-16" d="m16.24,48.81l.16.32s-.21.11-.41.22c-.2.11-.42.19-.42.19l-.15-.32s.22-.08.42-.19c.2-.11.41-.21.41-.21Z"/>
              <polygon class="cls-16" points="17.45 48.17 17.62 48.48 16.8 48.92 16.64 48.6 17.45 48.17"/>
            </g>
          </g>
          <g>
            <g>
              <path class="cls-7" d="m25.33,74.75c0,.69-2.9,1.26-6.48,1.26s-6.48-.56-6.48-1.26,2.9-1.26,6.48-1.26,6.48.56,6.48,1.26Z"/>
              <path class="cls-9" d="m25.33,69.92c0,.69-2.9,1.26-6.48,1.26s-6.48-.56-6.48-1.26,2.9-1.26,6.48-1.26,6.48.56,6.48,1.26Z"/>
              <rect class="cls-16" x="12.37" y="69.92" width="12.96" height="4.82"/>
            </g>
            <path class="cls-11" d="m26.41,69.7c-.9,3.71-14.04,3.38-15.37-.2-4.12-11.11-3.75-44.34-3.75-44.34h22.34s-.64,33.91-3.22,44.54Z"/>
            <polygon class="cls-15" points="7.29 25.16 29.63 25.16 29.56 28.18 7.29 27.54 7.29 25.16"/>
            <path class="cls-3" d="m23.46,63.67c-.27,2.15-9.57,1.82-9.83-.33-1.08-8.83-1.47-20.9-1.47-27.9h12.71c-.18,6.58-.54,21.42-1.41,28.23Z"/>
            <path class="cls-11" d="m21.94,58.68c-.2,1.51-6.74,1.28-6.92-.24-.76-6.22-1.04-14.72-1.04-19.65h8.95c-.13,4.64-.38,15.09-1,19.88Z"/>
            <path class="cls-15" d="m26.41,69.7c2.58-10.63,3.22-44.54,3.22-44.54h-.3c-1.3,7.3-6.84,35.6-16.54,45.97,3.95,1.94,12.88,1.6,13.61-1.43Z"/>
            <g>
              <g>
                <path class="cls-15" d="m8.04,27.02c0,.08-.07.15-.15.15h0c-.08,0-.15-.07-.15-.15v-1.41c0-.08.07-.15.15-.15h0c.08,0,.15.07.15.15v1.41Z"/>
                <path class="cls-15" d="m8.84,27.02c0,.08-.07.15-.15.15h0c-.08,0-.15-.07-.15-.15v-1.41c0-.08.07-.15.15-.15h0c.08,0,.15.07.15.15v1.41Z"/>
                <path class="cls-15" d="m9.65,27.02c0,.08-.07.15-.15.15h0c-.08,0-.15-.07-.15-.15v-1.41c0-.08.07-.15.15-.15h0c.08,0,.15.07.15.15v1.41Z"/>
                <path class="cls-15" d="m10.45,27.02c0,.08-.07.15-.15.15h0c-.08,0-.15-.07-.15-.15v-1.41c0-.08.07-.15.15-.15h0c.08,0,.15.07.15.15v1.41Z"/>
                <path class="cls-15" d="m11.26,27.02c0,.08-.07.15-.15.15h0c-.08,0-.15-.07-.15-.15v-1.41c0-.08.07-.15.15-.15h0c.08,0,.15.07.15.15v1.41Z"/>
                <path class="cls-15" d="m12.06,27.02c0,.08-.07.15-.15.15h0c-.08,0-.15-.07-.15-.15v-1.41c0-.08.07-.15.15-.15h0c.08,0,.15.07.15.15v1.41Z"/>
                <path class="cls-15" d="m12.87,27.02c0,.08-.07.15-.15.15h0c-.08,0-.15-.07-.15-.15v-1.41c0-.08.07-.15.15-.15h0c.09,0,.15.07.15.15v1.41Z"/>
                <path class="cls-15" d="m13.67,27.02c0,.08-.07.15-.15.15h0c-.08,0-.15-.07-.15-.15v-1.41c0-.08.06-.15.15-.15h0c.08,0,.15.07.15.15v1.41Z"/>
              </g>
              <g>
                <path class="cls-15" d="m14.47,27.02c0,.08-.07.15-.15.15h0c-.08,0-.15-.07-.15-.15v-1.41c0-.08.07-.15.15-.15h0c.09,0,.15.07.15.15v1.41Z"/>
                <path class="cls-15" d="m15.28,27.02c0,.08-.07.15-.15.15h0c-.08,0-.15-.07-.15-.15v-1.41c0-.08.07-.15.15-.15h0c.08,0,.15.07.15.15v1.41Z"/>
                <path class="cls-15" d="m16.08,27.02c0,.08-.07.15-.15.15h0c-.09,0-.15-.07-.15-.15v-1.41c0-.08.07-.15.15-.15h0c.08,0,.15.07.15.15v1.41Z"/>
                <path class="cls-15" d="m16.88,27.02c0,.08-.07.15-.15.15h0c-.08,0-.15-.07-.15-.15v-1.41c0-.08.07-.15.15-.15h0c.08,0,.15.07.15.15v1.41Z"/>
                <path class="cls-15" d="m17.69,27.02c0,.08-.07.15-.15.15h0c-.08,0-.15-.07-.15-.15v-1.41c0-.08.07-.15.15-.15h0c.08,0,.15.07.15.15v1.41Z"/>
                <path class="cls-15" d="m18.49,27.02c0,.08-.07.15-.15.15h0c-.09,0-.15-.07-.15-.15v-1.41c0-.08.07-.15.15-.15h0c.08,0,.15.07.15.15v1.41Z"/>
                <path class="cls-15" d="m19.3,27.02c0,.08-.07.15-.15.15h0c-.08,0-.15-.07-.15-.15v-1.41c0-.08.07-.15.15-.15h0c.09,0,.15.07.15.15v1.41Z"/>
                <path class="cls-15" d="m20.1,27.02c0,.08-.07.15-.15.15h0c-.08,0-.15-.07-.15-.15v-1.41c0-.08.07-.15.15-.15h0c.09,0,.15.07.15.15v1.41Z"/>
              </g>
              <path class="cls-15" d="m20.9,27.02c0,.08-.07.15-.15.15h0c-.08,0-.15-.07-.15-.15v-1.41c0-.08.07-.15.15-.15h0c.08,0,.15.07.15.15v1.41Z"/>
              <path class="cls-15" d="m21.71,27.02c0,.08-.07.15-.15.15h0c-.08,0-.15-.07-.15-.15v-1.41c0-.08.07-.15.15-.15h0c.09,0,.15.07.15.15v1.41Z"/>
              <path class="cls-15" d="m22.51,27.02c0,.08-.07.15-.15.15h0c-.08,0-.15-.07-.15-.15v-1.41c0-.08.07-.15.15-.15h0c.09,0,.15.07.15.15v1.41Z"/>
              <path class="cls-15" d="m23.32,27.02c0,.08-.07.15-.15.15h0c-.08,0-.15-.07-.15-.15v-1.41c0-.08.07-.15.15-.15h0c.08,0,.15.07.15.15v1.41Z"/>
              <path class="cls-15" d="m24.12,27.02c0,.08-.07.15-.15.15h0c-.08,0-.15-.07-.15-.15v-1.41c0-.08.07-.15.15-.15h0c.08,0,.15.07.15.15v1.41Z"/>
              <path class="cls-15" d="m24.92,27.02c0,.08-.07.15-.15.15h0c-.09,0-.15-.07-.15-.15v-1.41c0-.08.07-.15.15-.15h0c.08,0,.15.07.15.15v1.41Z"/>
              <path class="cls-15" d="m25.73,27.02c0,.08-.07.15-.15.15h0c-.08,0-.15-.07-.15-.15v-1.41c0-.08.07-.15.15-.15h0c.08,0,.15.07.15.15v1.41Z"/>
              <path class="cls-15" d="m26.53,27.02c0,.08-.07.15-.15.15h0c-.08,0-.15-.07-.15-.15v-1.41c0-.08.07-.15.15-.15h0c.08,0,.15.07.15.15v1.41Z"/>
              <path class="cls-15" d="m27.33,27.02c0,.08-.07.15-.15.15h0c-.08,0-.15-.07-.15-.15v-1.41c0-.08.07-.15.15-.15h0c.08,0,.15.07.15.15v1.41Z"/>
              <path class="cls-15" d="m28.14,27.02c0,.08-.06.15-.15.15h0c-.08,0-.15-.07-.15-.15v-1.41c0-.08.07-.15.15-.15h0c.09,0,.15.07.15.15v1.41Z"/>
              <path class="cls-15" d="m28.94,27.02c0,.08-.07.15-.15.15h0c-.08,0-.15-.07-.15-.15v-1.41c0-.08.07-.15.15-.15h0c.08,0,.15.07.15.15v1.41Z"/>
            </g>
          </g>
          <g>
            <path class="cls-18" d="m29.7,63.14v11.21c0,1.81,7.74,3.27,17.28,3.27s17.28-1.46,17.28-3.27v-11.21H29.7Z"/>
            <path class="cls-14" d="m64.26,63.14c0,1.81-7.74,3.27-17.28,3.27s-17.28-1.46-17.28-3.27,7.74-3.27,17.28-3.27,17.28,1.46,17.28,3.27Z"/>
            <path class="cls-16" d="m29.7,57.53v5.61c0,1.81,7.74,3.27,17.28,3.27s17.28-1.46,17.28-3.27v-5.61H29.7Z"/>
            <path class="cls-15" d="m29.7,59.62c0,1.81,7.74,3.27,17.28,3.27s17.28-1.46,17.28-3.27v-2.09H29.7v2.09Z"/>
            <path class="cls-16" d="m64.26,57.53c0,1.81-7.74,3.27-17.28,3.27s-17.28-1.46-17.28-3.27,7.74-3.27,17.28-3.27,17.28,1.47,17.28,3.27Z"/>
            <path class="cls-15" d="m44.71,76.11c-6.03,0-11.42-1.78-15.01-4.57v2.81c0,1.81,7.74,3.27,17.28,3.27s17.28-1.46,17.28-3.27v-11.21h-.14c-1.15,6.31-9.4,12.97-19.41,12.97Z"/>
          </g>
          <path class="cls-16" d="m60.2,33.68c.03.38-.25.71-.63.74-.38.03-.71-.25-.74-.62-.03-.38.25-.71.63-.74.38-.03.71.25.75.63Z"/>
          <path class="cls-16" d="m36.26,37.96c.14-.17.21-.78.43-.78s.27.62.42.78c.16.16.79.21.78.43-.01.22-.64.25-.78.43-.14.17-.21.79-.42.78-.22-.02-.25-.64-.43-.78-.18-.14-.79-.21-.78-.43.01-.22.64-.25.78-.43Z"/>
          <path class="cls-20" d="m33.49,35.76c.03.38-.25.71-.63.74-.38.03-.71-.25-.74-.62-.04-.38.24-.71.62-.74.38-.03.71.25.74.63Z"/>
          <path class="cls-11" d="m3.93,32.72c-.67,0-1.21-.54-1.21-1.19s.55-1.19,1.21-1.19,1.21.53,1.21,1.19-.55,1.19-1.21,1.19Zm0-2.06c-.48,0-.88.39-.88.87s.4.87.88.87.88-.39.88-.87-.39-.87-.88-.87Z"/>
          <path class="cls-2" d="m59.51,40.91c-.67,0-1.21-.54-1.21-1.19s.54-1.19,1.21-1.19,1.21.54,1.21,1.19-.54,1.19-1.21,1.19Zm0-2.06c-.48,0-.88.39-.88.87s.4.87.88.87.88-.39.88-.87-.39-.87-.88-.87Z"/>
          <path class="cls-20" d="m7.07,71.31c-.67,0-1.21-.54-1.21-1.19s.54-1.19,1.21-1.19,1.21.53,1.21,1.19-.54,1.19-1.21,1.19Zm0-2.06c-.48,0-.88.39-.88.87s.4.87.88.87.88-.39.88-.87-.4-.87-.88-.87Z"/>
          <g>
            <g>
              <path class="cls-19" d="m42.77,24.97s-1.99,2.22-3.19-.37c-1.2-2.6-1.41-6.47-.33-5.58,1.11.91,3.2,4.77,3.51,5.95Z"/>
              <path class="cls-19" d="m42.8,12.41c.01.25-.17.93-.86,1.99-2.42,3.75-.74,7.32-.74,7.32l-.66,2.19s.07,1.99-.78,1.05c-.34-.38-2.84-5.5-.03-9.24,2.97-3.95,3.06-3.49,3.06-3.32Z"/>
            </g>
            <path class="cls-19" d="m41.37,36.68s-1.93,3.51-.83,9.84c1.1,6.33,4.63,8.17,2.84,10.89-.19.3-1.04.72-.96,1.04.08.32,2.47.1,2.83-1.45,0,0,.84-3.31-.2-7.75-1.27-5.4,3.71-9.85-.32-12.77-.72-.52-1.69-1.17-3.37.19Z"/>
            <path class="cls-20" d="m47.51,38.2c-.67,2.04-2.68,7.19-2.4,9.03.29,1.84,1,6.23.6,8.01,0,0-.92.82-2.12.31,0,0-2.74-6.03-2.92-7.18-.18-1.15-.63-3.7-.48-6.48.7-13.06,9.07-9.07,7.31-3.69Z"/>
            <path class="cls-19" d="m45.78,37.8s-.8,3.93,2.14,9.64c2.93,5.71,6.85,6.42,5.95,9.55-.1.34-.78,1-.6,1.28.17.28,2.38-.64,2.27-2.23,0,0-.18-3.41-2.5-7.34-2.82-4.78.61-10.51-4.1-12.09-.84-.28-1.96-.61-3.15,1.19Z"/>
            <path class="cls-20" d="m51.87,37.49c-.03,2.15-.2,7.59.62,9.26.82,1.68,2.8,5.65,2.96,7.46,0,0-.63,1.06-1.92.93,0,0-4.42-4.94-4.93-5.98-.52-1.04-1.7-3.35-2.39-6.05-3.22-12.67,5.74-11.29,5.66-5.63Z"/>
            <rect class="cls-17" x="42.94" y="24.69" width="9.31" height="4.33" transform="translate(-.36 .66) rotate(-.79)"/>
            <rect class="cls-12" x="44.19" y="25.28" width="6.8" height="3.17" transform="translate(-.37 .66) rotate(-.79)"/>
            <path class="cls-4" d="m44.21,18.95c.59-.93,3-2.7,5.36.16.52.62,1.15,1.78,2.65,1.87,1.05.07,3.58,1.24,2.25,4.28-1.32,3.04,2.04,2.81.27,4.21-4.73,3.76-7,1.07-8.92-1.72-3.03-4.4-2.81-6.91-1.61-8.8Z"/>
            <path class="cls-10" d="m44.73,27.4s-.71,1.45-2.73.23c-1.38-.83-2.1-1.88-2.1-1.88,0,0,.18-2.79,2.05-3.26,0,0,4.11,2.5,2.78,4.91Z"/>
            <path class="cls-16" d="m51.79,36.03s0,0,0,0c0,0,0,0,0,0-.02-.07-.04-.13-.06-.2h0c-.65-2.76-1.18-4.51-.22-7.22,1.38-3.89-1.62-4.48-3.45-4.88-1.82-.4-4.86-.48-5.8,2.7-.67,2.29-.02,5.39-.54,8.11-.52,2.77,11.24,4.53,10.06,1.5Z"/>
            <path class="cls-6" d="m47.32,21.42s-.02,1.78.63,2.45c.42.43-2.19,1.96-2.24,1.3-.07-.85.33-1.44-.37-2.29l1.97-1.46Z"/>
            <g>
              <path class="cls-13" d="m49.32,25.56s1.37,2.65,3.18.43c1.81-2.22,2.97-5.91,1.7-5.32-1.3.61-4.28,3.82-4.89,4.89Z"/>
              <path class="cls-19" d="m52.42,13.38c-.08.24-.07.94.34,2.14,1.41,4.23-1.11,7.27-1.11,7.27l.09,2.29s-.57,1.91.49,1.21c.42-.28,4.12-4.62,2.33-8.94-1.89-4.56-2.09-4.14-2.14-3.98Z"/>
            </g>
            <path class="cls-10" d="m49.11,27.89s.91,1.34,2.74-.15c1.25-1.02,1.82-2.15,1.82-2.15,0,0-.58-2.74-2.49-2.95,0,0-3.72,3.06-2.07,5.25Z"/>
            <path class="cls-4" d="m46.08,42.39l-.73,2.63s-.43-3.45.33-5.55c0,0-.19,1.19.4,2.93Z"/>
            <path class="cls-1" d="m41.11,38.93s-.08-.03-.08-.08c0-.04.03-.08.08-.08.82-.03,1.62-.23,1.88-1.45,0-.04.05-.07.09-.06.04,0,.07.05.06.09-.28,1.32-1.18,1.54-2.02,1.57h0Z"/>
            <path class="cls-1" d="m51.26,40.47h0c-1.13-.1-1.74-.62-1.92-1.63,0-.04.02-.08.06-.09.04,0,.08.02.09.06.16.93.73,1.41,1.78,1.5.04,0,.08.04.07.09,0,.04-.04.07-.08.07Z"/>
            <path class="cls-4" d="m41.81,35.16s2.16,4.32,10.06,2.92c0,0,.05-.31-.01-1.49,0,0-6,2.19-10.04-1.43Z"/>
            <path class="cls-1" d="m48.7,23.9c-.24.64-.79,1.24-1.51,1.64-.34.19-.75.32-1.14.32-.36,0-.69-.11-.94-.38-.2-.23-.28-.59-.2-.96.04-.21.18-.55.32-.85.06-.02.13-.03.2-.04-.15.3-.32.7-.36.93-.07.32,0,.63.17.82.44.49,1.28.36,1.88.02.68-.38,1.2-.94,1.43-1.54.05,0,.1.02.16.04Z"/>
            <path class="cls-19" d="m44.45,19.44c-.35.96-.42,4.87,1.4,4.78.82-.04,1.96-1.32,2.14-2.93.07-.66-.48-1.76-1.46-2.44-.44-.31-1.68-.53-2.08.59Z"/>
            <path class="cls-4" d="m44.04,20.94c.12.43.58-1.36,1.19-.62.64.78,1.49.13,2.33,1.68.57,1.06.97-1.44,1-1.64q.11-.81-1.16-1.84c-1.27-1.05-3.95.26-3.36,2.42Z"/>
            <g>
              <path class="cls-16" d="m66.75,11.06c-.06,2.72-7.9,5.26-25.76,4.43-3-.14-10.43-.66-9.54-9.16.37-3.54,1.76-8.1,13.56-5.61,5.8,1.23,21.88,4.1,21.74,10.34Z"/>
              <path class="cls-1" d="m62.34,10.54c0,1.88-6.18,3.53-20.33,2.72-2.37-.14-8.26-.6-7.67-6.47.25-2.45,1.29-5.58,10.65-3.7,4.6.93,17.37,3.13,17.35,7.46Z"/>
              <rect class="cls-16" x="47.61" y="-8.1" width="3.6" height="33.36" transform="translate(34.34 56.42) rotate(-82.36)"/>
              <path class="cls-8" d="m64.37,7.76c1.54.21,2.61,1.62,2.41,3.16-.2,1.54-1.62,2.62-3.16,2.41-1.54-.21-2.61-1.62-2.41-3.15.21-1.54,1.62-2.62,3.16-2.41Z"/>
              <path class="cls-16" d="m64.18,9.15c.77.1,1.31.81,1.21,1.58-.1.77-.81,1.31-1.58,1.21-.77-.1-1.31-.81-1.2-1.58.1-.77.81-1.31,1.58-1.2Z"/>
              <path class="cls-16" d="m35.69,11.2s-1.15-2.52,1.79-2.39c3.45.15-.98-1.58-.98-1.58l-3.75.11.17,1.58,2.78,2.29Z"/>
              <path class="cls-16" d="m36.87,2.39s-1.78,2.13,1.09,2.78c3.37.76-1.36,1.26-1.36,1.26l-3.59-1.09.58-1.48,3.28-1.48Z"/>
            </g>
          </g>
        </g>
      </g>
    </g>
  </g>
</svg>