<?xml version="1.0" encoding="UTF-8"?>
<svg xmlns="http://www.w3.org/2000/svg" viewBox="0 0 80.28 59.34">
  <defs>
    <style>
      .cls-1 {
        fill: #fff;
      }

      .cls-2 {
        fill: #8196fc;
      }

      .cls-3 {
        fill: #1d1b3a;
      }

      .cls-4 {
        isolation: isolate;
      }

      .cls-5 {
        fill: #7585f8;
      }

      .cls-6 {
        fill: #97a9ff;
      }

      .cls-7 {
        fill: #f28f19;
      }

      .cls-8 {
        fill: #b38cff;
      }

      .cls-9 {
        mix-blend-mode: overlay;
        opacity: .3;
      }

      .cls-10 {
        fill: #ef60ae;
      }

      .cls-11 {
        fill: #f4a517;
      }

      .cls-12 {
        fill: #fe71b7;
      }

      .cls-13 {
        fill: #a4dcff;
      }

      .cls-14 {
        fill: #be4719;
      }
    </style>
  </defs>
  <g class="cls-4">
    <g id="Layer_2" data-name="Layer 2">
      <g id="Layer_1-2" data-name="Layer 1">
        <g>
          <g>
            <g>
              <path class="cls-2" d="m18.05,54.53l.02.4s.26-.02.52-.03c.26-.02.52-.04.52-.04l-.04-.4s-.25.02-.5.04c-.25.02-.51.03-.51.03Z"/>
              <polygon class="cls-2" points="16.54 54.57 16.54 54.96 17.57 54.94 17.55 54.55 16.54 54.57"/>
              <polygon class="cls-2" points="15.02 54.53 15 54.93 16.03 54.96 16.04 54.56 15.02 54.53"/>
              <polygon class="cls-2" points="13.51 54.42 13.47 54.81 14.5 54.9 14.52 54.5 13.51 54.42"/>
              <polygon class="cls-2" points="12.01 54.22 11.94 54.61 12.97 54.75 13.01 54.36 12.01 54.22"/>
              <path class="cls-2" d="m10.53,53.91l-.1.38s.25.06.51.12c.25.06.51.11.51.11l.08-.39s-.25-.04-.5-.1c-.25-.06-.49-.11-.49-.11Z"/>
              <path class="cls-2" d="m9.1,53.46l-.14.37s.25.08.49.17c.24.09.49.15.49.15l.11-.38s-.24-.06-.48-.15c-.24-.08-.48-.16-.48-.16Z"/>
            </g>
            <g>
              <path class="cls-2" d="m7.74,52.85l-.19.34s.93.47.94.45l.16-.37s-.9-.43-.9-.43Z"/>
              <path class="cls-2" d="m6.52,52l-.26.3s.2.17.41.32c.21.17.43.3.43.3l.21-.33s-.22-.13-.41-.28c-.2-.15-.39-.31-.39-.31Z"/>
              <path class="cls-2" d="m5.54,50.91l-.33.22s.65.84.67.82l.28-.28s-.65-.74-.62-.76Z"/>
              <path class="cls-2" d="m4.92,49.59l-.38.12s.05.26.17.5c.11.24.22.48.22.48l.35-.19s-.1-.23-.2-.45c-.12-.22-.15-.47-.16-.46Z"/>
              <path class="cls-2" d="m4.69,48.14h-.39s-.02.28.04.54c.04.26.08.52.08.52l.39-.08s-.04-.24-.07-.49c-.05-.24-.03-.49-.03-.49Z"/>
              <path class="cls-2" d="m4.79,46.66l-.39-.06s-.03.26-.06.52c-.03.26-.05.52-.05.52l.4.02s.02-.25.05-.5c.03-.25.06-.5.06-.5Z"/>
              <path class="cls-2" d="m5.15,45.21l-.38-.12s-.08.25-.16.5c-.06.26-.11.51-.11.51l.39.08s.05-.25.11-.49c.07-.24.15-.48.15-.48Z"/>
            </g>
            <g>
              <polygon class="cls-2" points="5.62 43.76 5.24 43.63 4.92 44.6 5.29 44.73 5.62 43.76"/>
              <polygon class="cls-2" points="6.1 42.3 5.72 42.19 5.4 43.16 5.78 43.28 6.1 42.3"/>
              <polygon class="cls-2" points="6.5 40.82 6.11 40.72 5.85 41.71 6.23 41.82 6.5 40.82"/>
              <path class="cls-2" d="m6.83,39.32l-.39-.07s-.18,1-.2,1l.39.09s.21-1.01.21-1.01Z"/>
              <path class="cls-2" d="m7.09,37.8l-.39-.05s-.03.25-.06.5c-.04.25-.09.5-.09.5l.39.07s.05-.25.1-.51c.03-.26.06-.51.06-.51Z"/>
              <path class="cls-2" d="m7.23,36.27l-.4-.02s-.09,1.01-.09,1.01l.39.04s.12-1.03.09-1.03Z"/>
              <path class="cls-2" d="m7.23,34.72l-.4.02s0,1.01,0,1.01h.4s.02-1.03,0-1.03Z"/>
            </g>
            <g>
              <path class="cls-2" d="m7.06,33.18l-.39.07s.01.06.03.15c.02.09.04.22.05.34.02.25.04.5.04.5l.4-.03s-.02-.26-.05-.52c0-.13-.02-.26-.05-.35-.02-.1-.03-.16-.03-.16Z"/>
              <path class="cls-2" d="m6.71,31.67l-.38.11s.07.24.15.48c.05.25.1.5.1.5l.39-.08s-.05-.25-.1-.51c-.08-.25-.15-.5-.15-.5Z"/>
              <path class="cls-2" d="m6.18,30.22l-.36.16s.39.93.36.94l.37-.13s-.37-.97-.37-.97Z"/>
              <polygon class="cls-2" points="5.52 28.83 5.17 29.01 5.63 29.92 5.99 29.75 5.52 28.83"/>
              <path class="cls-2" d="m4.74,27.5l-.34.21s.14.21.26.43c.13.22.26.44.26.44l.34-.2s-.13-.22-.26-.44c-.13-.23-.27-.44-.27-.44Z"/>
              <polygon class="cls-2" points="3.91 26.21 3.58 26.43 4.14 27.29 4.47 27.07 3.91 26.21"/>
              <rect class="cls-2" x="2.99" y="24.96" width=".4" height="1.02" transform="translate(-13.53 5.99) rotate(-33.49)"/>
            </g>
            <g>
              <polygon class="cls-2" points="2.26 23.65 1.92 23.86 2.46 24.73 2.8 24.52 2.26 23.65"/>
              <polygon class="cls-2" points="1.49 22.35 1.14 22.54 1.66 23.43 2 23.23 1.49 22.35"/>
              <path class="cls-2" d="m.86,20.99l-.37.13s.08.25.19.49c.11.24.22.47.22.47l.35-.18s-.11-.23-.21-.45c-.11-.23-.18-.46-.18-.46Z"/>
              <path class="cls-2" d="m.48,19.56l-.39.06s.23,1.02.23,1.02l.38-.11s-.25-.97-.21-.97Z"/>
              <path class="cls-2" d="m.41,18.08l-.4-.02s0,1.05,0,1.05l.39-.03s-.04-.99,0-.99Z"/>
              <path class="cls-2" d="m.65,16.62l-.38-.11s-.09.25-.13.51c-.04.26-.09.52-.09.52l.4.05s.04-.25.08-.49c.04-.25.12-.48.12-.48Z"/>
              <path class="cls-2" d="m1.2,15.25l-.35-.18s-.12.23-.23.47c-.1.25-.19.49-.19.49l.37.13s.09-.23.18-.47c.11-.22.23-.44.23-.44Z"/>
            </g>
            <g>
              <path class="cls-2" d="m2.02,14.02l-.3-.25s-.16.21-.32.42c-.16.21-.29.44-.29.44l.34.21s.12-.22.28-.41c.15-.2.3-.4.3-.4Z"/>
              <path class="cls-2" d="m3.08,12.99l-.25-.31s-.79.69-.77.71l.28.27s.72-.69.74-.67Z"/>
              <path class="cls-2" d="m4.34,12.2l-.17-.35s-.24.1-.47.24c-.22.14-.45.28-.45.28l.22.33s.21-.13.42-.26c.21-.14.44-.23.44-.23Z"/>
              <path class="cls-2" d="m5.72,11.7l-.09-.38s-.26.07-.51.14c-.25.08-.49.18-.49.18l.15.37s.23-.09.46-.17c.24-.07.48-.13.48-.13Z"/>
              <path class="cls-2" d="m7.19,11.55v-.4s-1.05.04-1.04.06l.06.39s.99-.09.99-.06Z"/>
              <path class="cls-2" d="m8.63,11.79l.12-.38s-.25-.09-.51-.14c-.26-.04-.52-.09-.52-.09l-.05.39s.24.04.49.09c.24.04.48.13.48.13Z"/>
              <path class="cls-2" d="m9.97,12.41l.21-.33s-.23-.13-.46-.27c-.24-.11-.48-.22-.48-.22l-.15.37s.23.1.45.2c.21.13.43.25.43.25Z"/>
            </g>
            <g>
              <path class="cls-2" d="m11.11,13.34l.28-.28s-.19-.18-.38-.36c-.19-.18-.41-.33-.41-.33l-.23.32s.21.14.39.31c.18.17.36.34.36.34Z"/>
              <path class="cls-2" d="m12.05,14.49l.33-.22s-.15-.22-.3-.43c-.17-.2-.34-.4-.34-.4l-.3.26s.16.19.32.38c.14.21.29.41.29.41Z"/>
              <path class="cls-2" d="m12.79,15.79l.36-.17s-.49-.92-.49-.92l-.34.2s.5.87.47.88Z"/>
              <polygon class="cls-2" points="13.41 17.18 13.77 17.02 13.35 16.08 12.99 16.24 13.41 17.18"/>
              <path class="cls-2" d="m14.09,18.56l.34-.19s-.12-.23-.24-.45c-.12-.22-.23-.45-.23-.45l-.36.17s.11.23.24.46c.12.23.24.46.24.46Z"/>
              <path class="cls-2" d="m14.91,19.87l.32-.23s-.14-.21-.28-.42c-.14-.21-.27-.43-.27-.43l-.34.21s.14.22.28.44c.14.22.29.43.29.43Z"/>
              <path class="cls-2" d="m15.9,21.07l.28-.27s-.17-.18-.34-.37c-.16-.2-.31-.39-.31-.39l-.31.24s.16.21.32.41c.18.19.36.38.36.38Z"/>
            </g>
            <g>
              <path class="cls-2" d="m17.06,22.11l.24-.32s-.77-.64-.77-.64l-.27.29s.78.7.8.67Z"/>
              <path class="cls-2" d="m18.39,22.93l.17-.36s-.88-.47-.87-.5l-.22.33s.91.53.91.53Z"/>
              <path class="cls-2" d="m19.86,23.46l.1-.38s-.24-.07-.48-.14c-.24-.08-.47-.18-.47-.18l-.15.37s.24.11.49.19c.25.07.5.15.5.15Z"/>
              <path class="cls-2" d="m21.4,23.72l.03-.4s-.25-.02-.5-.04c-.25-.05-.49-.09-.49-.09l-.08.39s.26.05.51.1c.26.02.52.05.52.05Z"/>
              <path class="cls-2" d="m22.96,23.71l-.03-.39s-.25.03-.5.03h-.5v.4s.25,0,.51,0c.26,0,.52-.03.52-.04Z"/>
              <path class="cls-2" d="m24.49,23.49l-.08-.39s-.25.06-.5.1c-.25.04-.5.08-.5.08l.05.39s.26-.04.51-.08c.26-.03.51-.1.51-.1Z"/>
              <path class="cls-2" d="m25.99,23.09l-.12-.38s-.24.08-.48.14c-.24.07-.49.14-.49.14l.1.38s.25-.07.5-.14c.25-.07.5-.15.5-.15Z"/>
            </g>
            <g>
              <path class="cls-2" d="m27.43,22.56l-.15-.37s-.24.09-.47.19c-.24.1-.48.18-.48.18l.13.37s.25-.08.49-.18c.24-.1.48-.19.48-.19Z"/>
              <path class="cls-2" d="m28.83,21.91l-.18-.35s-.23.12-.46.23c-.23.11-.46.21-.46.21l.16.36s.24-.11.47-.22c.23-.11.46-.23.46-.23Z"/>
              <path class="cls-2" d="m30.18,21.17l-.2-.34s-.22.13-.44.26c-.23.12-.45.24-.45.24l.19.35s.23-.12.46-.25c.22-.13.45-.26.45-.26Z"/>
              <path class="cls-2" d="m31.49,20.36l-.22-.33s-.21.14-.43.28c-.21.13-.43.27-.43.27l.21.34s.22-.14.44-.27c.21-.14.43-.28.43-.28Z"/>
              <polygon class="cls-2" points="32.74 19.48 32.51 19.16 31.68 19.75 31.9 20.08 32.74 19.48"/>
              <path class="cls-2" d="m33.96,18.54l-.25-.31s-.2.16-.39.32c-.2.16-.4.31-.4.31l.24.31s.2-.16.41-.32c.2-.16.4-.32.4-.32Z"/>
              <path class="cls-2" d="m35.12,17.52l-.27-.29s-.19.17-.38.34c-.19.16-.38.33-.38.33l.26.3s.2-.17.39-.34c.19-.17.38-.35.38-.35Z"/>
            </g>
            <g>
              <path class="cls-2" d="m36.25,16.54l-.24-.31s-.2.16-.4.33c-.2.16-.39.34-.39.34l.27.29s.18-.17.38-.34c.2-.16.39-.32.39-.32Z"/>
              <path class="cls-2" d="m37.49,15.69l-.2-.34s-.22.14-.44.27c-.22.14-.43.3-.43.3l.23.32s.2-.15.41-.29c.22-.13.43-.27.43-.27Z"/>
              <path class="cls-2" d="m38.83,15.01l-.15-.36s-.25.09-.48.21c-.23.12-.46.24-.46.24l.19.35s.22-.12.45-.23c.22-.12.46-.2.46-.2Z"/>
              <path class="cls-2" d="m40.24,14.55l-.08-.39s-1.01.29-1.01.29l.13.37s.96-.29.96-.27Z"/>
              <path class="cls-2" d="m41.71,14.4v-.4s-.26,0-.52.01c-.27,0-.52.07-.52.06l.06.39s.24-.07.49-.06c.25,0,.5-.01.5-.01Z"/>
              <path class="cls-2" d="m43.17,14.61l.1-.38s-.25-.11-.51-.12c-.26-.03-.52-.07-.52-.07l-.03.4s.24.03.49.06c.25.01.48.13.48.12Z"/>
              <path class="cls-2" d="m44.53,15.16l.19-.34s-.24-.12-.47-.24c-.12-.06-.24-.12-.33-.16-.09-.03-.16-.05-.16-.05l-.13.37s.06.02.15.04c.08.04.19.1.3.15.22.11.45.22.45.22Z"/>
            </g>
            <g>
              <path class="cls-2" d="m45.74,16.02l.26-.3s-.2-.18-.41-.32c-.21-.15-.43-.31-.43-.31l-.22.33s.2.15.4.29c.21.14.4.3.39.31Z"/>
              <path class="cls-2" d="m46.77,17.1l.3-.26s-.14-.22-.34-.39c-.19-.18-.37-.37-.37-.37l-.28.28s.18.18.36.35c.19.17.32.39.33.38Z"/>
              <path class="cls-2" d="m47.66,18.31l.33-.22s-.12-.23-.28-.44c-.16-.2-.32-.41-.32-.41l-.31.24s.15.2.31.4c.16.2.28.42.28.42Z"/>
              <polygon class="cls-2" points="48.44 19.6 48.79 19.4 48.25 18.52 47.91 18.73 48.44 19.6"/>
              <path class="cls-2" d="m49.27,20.9l.32-.23s-.54-.85-.54-.85l-.34.21s.54.89.56.87Z"/>
              <path class="cls-2" d="m50.26,22.1l.29-.27s-.65-.77-.65-.77l-.31.25s.64.82.67.79Z"/>
              <path class="cls-2" d="m51.44,23.12l.23-.32s-.21-.13-.4-.29c-.18-.17-.37-.34-.37-.34l-.27.29s.19.18.38.36c.2.17.42.31.42.31Z"/>
            </g>
            <g>
              <path class="cls-2" d="m52.8,23.9l.16-.36s-.9-.42-.88-.46l-.21.34s.93.49.93.49Z"/>
              <path class="cls-2" d="m54.28,24.39l.08-.39s-.96-.27-.96-.27l-.13.37s1,.33,1.01.29Z"/>
              <path class="cls-2" d="m55.84,24.54v-.4s-.25,0-.5-.02c-.25,0-.49-.06-.5-.05l-.05.39s.07,0,.16.02c.1.02.23.03.36.03.26,0,.52.02.52.02Z"/>
              <path class="cls-2" d="m57.39,24.43l-.06-.39s-1,.1-1,.1l.02.4s1.04-.08,1.04-.11Z"/>
              <path class="cls-2" d="m58.91,24.09l-.11-.38s-.24.06-.49.12c-.24.07-.49.12-.49.12l.08.39s.25-.05.51-.12c.25-.06.5-.13.5-.13Z"/>
              <path class="cls-2" d="m60.37,23.59l-.14-.37s-.24.09-.48.18c-.24.09-.48.16-.48.16l.12.38s.25-.07.49-.16c.24-.09.48-.18.48-.18Z"/>
              <polygon class="cls-2" points="61.78 23 61.62 22.64 60.68 23.04 60.83 23.4 61.78 23"/>
            </g>
            <g>
              <path class="cls-2" d="m63.19,22.54l-.08-.39s-.26.04-.51.12c-.25.08-.5.17-.5.17l.15.37s.23-.08.47-.16c.24-.07.48-.11.48-.11Z"/>
              <path class="cls-2" d="m64.67,22.35l-.03-.39s-.26,0-.52.04c-.26.03-.52.07-.52.07l.06.39s.25-.03.5-.07c.25-.03.5-.04.5-.04Z"/>
              <polygon class="cls-2" points="66.17 22.32 66.19 21.93 65.15 21.92 65.16 22.32 66.17 22.32"/>
              <path class="cls-2" d="m67.67,22.48l.06-.39s-.26-.05-.51-.08c-.26-.02-.52-.04-.52-.04l-.03.4s.25.02.5.04c.25.03.5.08.5.08Z"/>
              <path class="cls-2" d="m69.13,22.8l.11-.38s-1.01-.28-1.01-.25l-.08.39s.98.24.98.24Z"/>
              <path class="cls-2" d="m70.53,23.32l.17-.36s-.97-.38-.97-.38l-.13.38s.94.34.93.37Z"/>
              <path class="cls-2" d="m71.81,24.08l.23-.32s-.21-.15-.42-.31c-.23-.12-.46-.25-.46-.25l-.19.35s.22.12.44.23c.2.15.4.3.4.3Z"/>
            </g>
            <g>
              <path class="cls-2" d="m72.91,25.06l.29-.26s-.18-.19-.37-.38c-.18-.2-.38-.37-.38-.36l-.25.3s.2.15.36.34c.17.18.35.36.35.36Z"/>
              <polygon class="cls-2" points="73.76 26.26 74.11 26.08 73.53 25.2 73.21 25.44 73.76 26.26"/>
              <path class="cls-2" d="m74.31,27.64l.38-.11c.05-.02-.37-.98-.37-.98l-.36.16s.4.91.35.93Z"/>
              <path class="cls-2" d="m74.59,29.1l.39-.04s.01-.26-.06-.52c-.06-.26-.12-.51-.12-.51l-.39.09s.06.24.11.49c.07.24.05.5.06.5Z"/>
              <path class="cls-2" d="m74.65,30.59l.4.02s-.03-1.04-.03-1.04l-.4.02s.07,1,.03,1Z"/>
              <path class="cls-2" d="m74.44,32.07l.38.09s.06-.26.11-.51c.07-.25.06-.52.07-.52l-.39-.04s0,.25-.06.49c-.05.25-.11.49-.11.49Z"/>
              <polygon class="cls-2" points="73.99 33.48 74.36 33.64 74.71 32.65 74.33 32.54 73.99 33.48"/>
            </g>
            <g>
              <path class="cls-2" d="m73.29,34.8l.33.21s.17-.2.27-.45c.12-.23.24-.47.24-.47l-.36-.17s-.45.9-.49.88Z"/>
              <path class="cls-2" d="m72.38,35.97l.29.27s.18-.19.35-.39c.16-.2.3-.42.3-.42l-.32-.23s-.13.21-.29.41c-.17.18-.34.37-.34.37Z"/>
              <path class="cls-2" d="m71.29,36.98l.24.31s.2-.17.41-.33c.1-.08.2-.17.28-.23.07-.07.11-.12.11-.12l-.28-.28s-.04.05-.11.12c-.07.06-.17.14-.26.22-.19.16-.39.32-.39.32Z"/>
              <polygon class="cls-2" points="70.04 37.79 70.22 38.15 71.12 37.61 70.9 37.28 70.04 37.79"/>
              <polygon class="cls-2" points="68.67 38.38 68.79 38.76 69.76 38.37 69.6 38.01 68.67 38.38"/>
              <polygon class="cls-2" points="67.22 38.74 67.29 39.13 68.3 38.9 68.2 38.51 67.22 38.74"/>
              <polygon class="cls-2" points="65.73 38.89 65.74 39.28 66.78 39.19 66.73 38.8 65.73 38.89"/>
            </g>
            <g>
              <polygon class="cls-2" points="64.23 38.83 64.19 39.23 65.23 39.28 65.24 38.89 64.23 38.83"/>
              <polygon class="cls-2" points="62.74 38.62 62.67 39.01 63.69 39.19 63.74 38.8 62.74 38.62"/>
              <path class="cls-2" d="m61.27,38.28l-.11.38s.25.07.5.15c.12.04.25.07.35.08.1.02.16.03.16.03l.08-.38s-.06-.01-.16-.03c-.09-.01-.22-.04-.34-.08-.24-.07-.48-.15-.48-.15Z"/>
              <polygon class="cls-2" points="59.83 37.84 59.69 38.21 60.68 38.52 60.8 38.14 59.83 37.84"/>
              <polygon class="cls-2" points="58.43 37.26 58.27 37.63 59.23 38.02 59.37 37.65 58.43 37.26"/>
              <path class="cls-2" d="m57.05,36.63l-.17.35s.23.12.46.24c.22.12.47.21.47.21l.16-.36s-.24-.08-.46-.21c-.23-.12-.45-.24-.45-.24Z"/>
              <polygon class="cls-2" points="55.71 35.92 55.52 36.27 56.43 36.75 56.61 36.4 55.71 35.92"/>
            </g>
          </g>
          <path class="cls-13" d="m57.06,15.69c-.68,0-1.23-.54-1.23-1.21s.55-1.21,1.23-1.21,1.23.54,1.23,1.21-.55,1.21-1.23,1.21Zm0-2.09c-.49,0-.89.4-.89.88s.4.88.89.88.89-.4.89-.88-.4-.88-.89-.88Z"/>
          <g>
            <path class="cls-13" d="m6.14,2.33l-.11,22.86c0,1.29,1.03,2.34,2.33,2.35h2.36c1.55,1.5,4.46,5.04,3.96,10.42-.67,7.16-7.29,21.09,2.44,20.81,9.7.35,3.23-13.62,2.62-20.78-.46-5.38,2.49-8.9,4.05-10.37h2.1c1.29.02,2.34-1.03,2.35-2.32l.11-22.86c0-1.29-1.03-2.35-2.33-2.35L8.49,0c-1.29,0-2.34,1.04-2.35,2.33Z"/>
            <path class="cls-5" d="m25.68,22.45c0,.99-.81,1.79-1.8,1.78l-13.43-.06c-.99,0-1.79-.81-1.78-1.8l.08-17.51c0-.99.81-1.79,1.8-1.78l13.43.06c.99,0,1.78.81,1.78,1.8l-.08,17.51Z"/>
            <rect class="cls-5" x="25.53" y="4.51" width=".24" height="1.98" transform="translate(20.05 31.12) rotate(-89.77)"/>
            <path class="cls-5" d="m27.09,5.5c0,.19-.16.35-.35.34-.19,0-.34-.16-.34-.35,0-.19.16-.35.35-.35.19,0,.35.16.35.35Z"/>
            <polygon class="cls-5" points="26.63 7.21 24.65 7.2 24.65 6.96 26.63 6.97 26.63 7.21"/>
            <path class="cls-5" d="m27.08,7.09c0,.19-.16.35-.35.35s-.34-.16-.34-.35c0-.19.16-.35.35-.35s.35.16.35.35Z"/>
            <rect class="cls-5" x="25.51" y="7.68" width=".24" height="1.98" transform="translate(16.85 34.26) rotate(-89.75)"/>
            <path class="cls-5" d="m27.08,8.67c0,.19-.16.34-.35.34s-.35-.16-.35-.35.16-.35.35-.35.35.16.34.35Z"/>
            <polygon class="cls-5" points="26.61 10.37 24.63 10.37 24.63 10.13 26.61 10.14 26.61 10.37"/>
            <path class="cls-5" d="m27.07,10.26c0,.19-.16.35-.35.35s-.34-.16-.34-.35c0-.19.16-.34.35-.34s.35.16.34.35Z"/>
            <polygon class="cls-5" points="26.61 11.96 24.62 11.95 24.62 11.71 26.61 11.72 26.61 11.96"/>
            <path class="cls-5" d="m27.06,11.84c0,.19-.16.34-.35.34-.19,0-.35-.16-.35-.35s.16-.35.35-.35c.19,0,.35.16.35.35Z"/>
            <polygon class="cls-5" points="26.6 13.55 24.62 13.54 24.62 13.3 26.6 13.31 26.6 13.55"/>
            <path class="cls-5" d="m27.06,13.43c0,.19-.16.35-.35.34-.19,0-.35-.16-.35-.35,0-.19.16-.35.35-.35.19,0,.35.16.35.35Z"/>
            <polygon class="cls-5" points="26.59 15.13 24.61 15.12 24.61 14.89 26.59 14.9 26.59 15.13"/>
            <path class="cls-5" d="m27.05,15.01c0,.19-.15.35-.35.35-.19,0-.35-.16-.34-.35,0-.19.16-.35.35-.35.19,0,.35.16.34.35Z"/>
            <polygon class="cls-5" points="26.58 16.72 24.6 16.71 24.6 16.47 26.58 16.48 26.58 16.72"/>
            <path class="cls-5" d="m27.04,16.6c0,.19-.15.35-.35.35-.19,0-.35-.16-.35-.35s.16-.35.35-.35c.19,0,.34.16.34.35Z"/>
            <polygon class="cls-5" points="26.58 18.3 24.59 18.29 24.6 18.06 26.58 18.07 26.58 18.3"/>
            <path class="cls-5" d="m27.03,18.19c0,.19-.16.34-.35.34-.19,0-.35-.16-.35-.35,0-.19.16-.35.35-.35.19,0,.34.16.34.35Z"/>
            <polygon class="cls-5" points="26.57 19.89 24.59 19.88 24.59 19.64 26.57 19.65 26.57 19.89"/>
            <path class="cls-5" d="m27.02,19.77c0,.19-.16.35-.35.35-.19,0-.35-.16-.34-.35,0-.19.16-.35.35-.35.19,0,.35.16.35.35Z"/>
            <polygon class="cls-5" points="26.56 21.47 24.58 21.46 24.58 21.23 26.56 21.24 26.56 21.47"/>
            <path class="cls-5" d="m27.02,21.36c0,.19-.16.35-.35.35-.19,0-.34-.16-.34-.35,0-.19.16-.35.35-.35.19,0,.35.16.35.35Z"/>
            <polygon class="cls-5" points="26.5 23.52 24.83 22.47 24.95 22.26 26.63 23.32 26.5 23.52"/>
            <path class="cls-5" d="m26.95,23.67c-.1.16-.31.21-.48.11-.16-.1-.21-.32-.11-.48.1-.16.32-.21.48-.11.16.11.21.32.11.48Z"/>
            <polygon class="cls-5" points="7.98 5.65 9.96 5.66 9.97 5.42 7.99 5.41 7.98 5.65"/>
            <path class="cls-5" d="m7.53,5.53c0,.19.15.35.35.35.19,0,.34-.15.35-.35,0-.19-.15-.35-.34-.35-.19,0-.35.15-.35.34Z"/>
            <polygon class="cls-5" points="7.98 7.24 9.96 7.24 9.96 7.01 7.98 7 7.98 7.24"/>
            <path class="cls-5" d="m7.52,7.11c0,.19.15.35.34.35.19,0,.35-.15.35-.34s-.15-.35-.34-.35c-.19,0-.35.16-.35.35Z"/>
            <polygon class="cls-5" points="7.97 8.82 9.95 8.83 9.95 8.59 7.97 8.58 7.97 8.82"/>
            <path class="cls-5" d="m7.51,8.7c0,.19.15.35.35.35.19,0,.35-.15.35-.34,0-.19-.15-.35-.34-.35-.19,0-.35.16-.35.35Z"/>
            <rect class="cls-5" x="8.83" y="9.3" width=".24" height="1.98" transform="translate(-1.37 19.2) rotate(-89.77)"/>
            <path class="cls-5" d="m7.5,10.29c0,.19.15.35.35.35.19,0,.35-.15.35-.34,0-.19-.15-.35-.35-.35-.19,0-.35.16-.35.35Z"/>
            <polygon class="cls-5" points="7.95 11.99 9.94 12 9.94 11.76 7.95 11.75 7.95 11.99"/>
            <path class="cls-5" d="m7.5,11.87c0,.19.15.35.34.35.19,0,.35-.15.35-.34s-.15-.35-.34-.35c-.19,0-.35.15-.35.34Z"/>
            <rect class="cls-5" x="8.82" y="12.47" width=".24" height="1.98" transform="translate(-4.56 22.34) rotate(-89.75)"/>
            <path class="cls-5" d="m7.49,13.45c0,.19.15.35.35.35.19,0,.35-.15.35-.34,0-.19-.15-.35-.34-.35-.19,0-.35.15-.35.34Z"/>
            <rect class="cls-5" x="8.81" y="14.06" width=".24" height="1.98" transform="translate(-6.17 23.89) rotate(-89.67)"/>
            <path class="cls-5" d="m7.48,15.04c0,.19.15.35.35.35.19,0,.35-.15.35-.34,0-.19-.15-.35-.34-.35-.19,0-.35.16-.35.35Z"/>
            <rect class="cls-5" x="8.8" y="15.64" width=".24" height="1.98" transform="translate(-7.75 25.48) rotate(-89.75)"/>
            <path class="cls-5" d="m7.48,16.63c0,.19.15.34.34.35.19,0,.35-.15.35-.34,0-.19-.15-.35-.34-.35-.19,0-.35.15-.35.35Z"/>
            <polygon class="cls-5" points="7.92 18.33 9.91 18.34 9.91 18.1 7.93 18.1 7.92 18.33"/>
            <path class="cls-5" d="m7.47,18.21c0,.19.15.35.35.35.19,0,.35-.15.35-.34,0-.19-.15-.35-.34-.35-.19,0-.35.15-.35.35Z"/>
            <rect class="cls-5" x="8.79" y="18.81" width=".24" height="1.98" transform="translate(-10.94 28.61) rotate(-89.7)"/>
            <path class="cls-5" d="m7.46,19.8c0,.19.15.35.34.35.19,0,.35-.15.35-.35,0-.19-.15-.35-.34-.35-.19,0-.35.16-.35.35Z"/>
            <polygon class="cls-5" points="7.91 21.5 9.89 21.51 9.89 21.28 7.91 21.27 7.91 21.5"/>
            <path class="cls-5" d="m7.45,21.38c0,.19.15.35.35.35.19,0,.35-.16.35-.35,0-.19-.15-.35-.34-.35-.19,0-.35.15-.35.35Z"/>
            <rect class="cls-5" x="7.85" y="23.01" width="1.89" height=".24" transform="translate(-10.22 7.3) rotate(-29.41)"/>
            <path class="cls-5" d="m7.6,23.81c.09.17.3.23.46.14.16-.09.21-.3.12-.46-.09-.17-.3-.23-.46-.14-.16.09-.21.3-.12.47Z"/>
            <g>
              <polygon class="cls-5" points="8.84 2.33 10.02 3.92 9.83 4.07 8.65 2.48 8.84 2.33"/>
              <path class="cls-5" d="m8.47,2.04c.15-.12.37-.08.49.07.11.15.08.37-.07.49-.15.11-.37.08-.48-.07-.12-.15-.08-.37.07-.48Z"/>
            </g>
            <g>
              <polygon class="cls-5" points="7.83 3.48 9.68 4.19 9.59 4.41 7.74 3.69 7.83 3.48"/>
              <path class="cls-5" d="m7.36,3.42c.07-.18.27-.27.45-.2.18.07.27.27.2.45-.07.18-.27.27-.45.2-.18-.07-.27-.27-.2-.45Z"/>
            </g>
            <rect class="cls-5" x="9.79" y="3.15" width="1.98" height=".24" transform="translate(7.4 14.01) rotate(-89.35)"/>
            <path class="cls-5" d="m10.8,1.82c.19,0,.34.16.34.35,0,.19-.16.34-.35.34-.19,0-.34-.16-.34-.35,0-.19.16-.34.35-.34Z"/>
            <polygon class="cls-5" points="12.5 2.29 12.47 4.27 12.24 4.27 12.26 2.29 12.5 2.29"/>
            <path class="cls-5" d="m12.38,1.83c.19,0,.35.16.34.35,0,.19-.16.34-.35.34-.19,0-.35-.16-.35-.35,0-.19.16-.35.35-.35Z"/>
            <polygon class="cls-5" points="14.08 2.31 14.06 4.3 13.82 4.29 13.85 2.31 14.08 2.31"/>
            <path class="cls-5" d="m13.97,1.85c.19,0,.34.16.34.35,0,.19-.16.35-.35.34-.19,0-.35-.16-.34-.35,0-.19.16-.35.35-.34Z"/>
            <polygon class="cls-5" points="15.67 2.33 15.65 4.31 15.41 4.31 15.43 2.33 15.67 2.33"/>
            <path class="cls-5" d="m15.56,1.87c.19,0,.34.16.34.35,0,.19-.16.35-.35.34-.19,0-.35-.16-.34-.35,0-.19.16-.35.35-.34Z"/>
            <rect class="cls-5" x="16.13" y="3.22" width="1.98" height=".24" transform="translate(13.56 20.42) rotate(-89.27)"/>
            <path class="cls-5" d="m17.14,1.89c.19,0,.34.16.34.35,0,.19-.16.34-.35.34-.19,0-.35-.16-.34-.35,0-.19.16-.34.35-.34Z"/>
            <polygon class="cls-5" points="18.84 2.37 18.82 4.35 18.58 4.35 18.6 2.37 18.84 2.37"/>
            <path class="cls-5" d="m18.73,1.91c.19,0,.34.16.34.35,0,.19-.16.34-.35.34-.19,0-.34-.16-.34-.35,0-.19.16-.34.35-.34Z"/>
            <polygon class="cls-5" points="20.42 2.39 20.4 4.37 20.16 4.37 20.19 2.39 20.42 2.39"/>
            <path class="cls-5" d="m20.31,1.93c.19,0,.34.16.34.35,0,.19-.16.34-.35.34-.19,0-.34-.16-.34-.35,0-.19.16-.34.35-.34Z"/>
            <polygon class="cls-5" points="22.01 2.41 21.99 4.39 21.75 4.39 21.77 2.41 22.01 2.41"/>
            <path class="cls-5" d="m21.9,1.95c.19,0,.35.16.34.35,0,.19-.16.34-.35.34-.19,0-.35-.16-.34-.35,0-.19.16-.34.35-.34Z"/>
            <polygon class="cls-5" points="23.59 2.43 23.57 4.41 23.33 4.4 23.36 2.42 23.59 2.43"/>
            <path class="cls-5" d="m23.48,1.97c.19,0,.34.16.34.35,0,.19-.16.34-.35.34-.19,0-.34-.16-.34-.35,0-.19.16-.35.35-.34Z"/>
            <rect class="cls-5" x="23.8" y="3.2" width="1.98" height=".24" transform="translate(10.07 23.55) rotate(-61.6)"/>
            <path class="cls-5" d="m25.48,2.05c.17.09.23.3.14.47-.09.17-.3.23-.47.14-.17-.09-.23-.3-.14-.47.09-.17.3-.23.47-.14Z"/>
            <polygon class="cls-5" points="26.42 3.59 24.91 4.87 24.76 4.69 26.27 3.41 26.42 3.59"/>
            <path class="cls-5" d="m26.7,3.21c.12.14.11.37-.04.49-.15.12-.37.11-.49-.04-.12-.15-.11-.36.04-.49.15-.13.37-.11.49.04Z"/>
            <polygon class="cls-5" points="9.43 24.94 9.44 22.96 9.2 22.96 9.19 24.94 9.43 24.94"/>
            <path class="cls-5" d="m9.31,25.4c.19,0,.35-.15.35-.34,0-.19-.16-.35-.35-.35-.19,0-.35.16-.35.35,0,.19.15.35.34.35Z"/>
            <polygon class="cls-5" points="11.01 24.95 11.02 22.97 10.79 22.97 10.78 24.95 11.01 24.95"/>
            <path class="cls-5" d="m10.89,25.41c.19,0,.35-.16.35-.35s-.15-.35-.35-.35c-.19,0-.35.15-.35.35s.15.35.34.35Z"/>
            <polygon class="cls-5" points="12.6 24.96 12.61 22.98 12.37 22.98 12.36 24.96 12.6 24.96"/>
            <path class="cls-5" d="m12.48,25.42c.19,0,.35-.15.35-.35,0-.19-.15-.35-.34-.35-.19,0-.35.16-.35.35,0,.19.15.35.35.35Z"/>
            <polygon class="cls-5" points="14.18 24.97 14.19 22.99 13.96 22.99 13.95 24.97 14.18 24.97"/>
            <path class="cls-5" d="m14.06,25.42c.19,0,.35-.15.35-.35s-.16-.35-.35-.35c-.19,0-.35.15-.35.34,0,.19.15.35.34.35Z"/>
            <polygon class="cls-5" points="15.77 24.97 15.78 22.99 15.54 22.99 15.53 24.97 15.77 24.97"/>
            <path class="cls-5" d="m15.65,25.43c.19,0,.35-.15.35-.35s-.15-.35-.34-.35c-.19,0-.35.15-.35.34s.15.35.35.35Z"/>
            <polygon class="cls-5" points="17.35 24.98 17.37 23 17.13 23 17.12 24.98 17.35 24.98"/>
            <path class="cls-5" d="m17.23,25.44c.19,0,.35-.16.35-.35,0-.19-.15-.34-.35-.35-.19,0-.35.15-.35.34,0,.19.15.35.34.35Z"/>
            <rect class="cls-5" x="17.84" y="23.88" width="1.98" height=".24" transform="translate(-5.27 42.71) rotate(-89.72)"/>
            <path class="cls-5" d="m18.82,25.45c.19,0,.35-.15.35-.35,0-.19-.15-.35-.35-.35-.19,0-.35.15-.35.34,0,.19.15.35.34.35Z"/>
            <polygon class="cls-5" points="20.52 25 20.54 23.02 20.3 23.02 20.29 25 20.52 25"/>
            <path class="cls-5" d="m20.4,25.46c.19,0,.35-.15.35-.34,0-.19-.15-.35-.34-.35-.19,0-.35.15-.35.34s.15.35.34.35Z"/>
            <polygon class="cls-5" points="22.11 25.01 22.12 23.03 21.88 23.03 21.87 25.01 22.11 25.01"/>
            <path class="cls-5" d="m21.99,25.46c.19,0,.35-.15.35-.34,0-.19-.15-.35-.34-.35-.19,0-.35.15-.35.34,0,.19.15.34.34.35Z"/>
            <polygon class="cls-5" points="23.7 25.02 23.71 23.04 23.47 23.04 23.46 25.02 23.7 25.02"/>
            <path class="cls-5" d="m23.58,25.47c.19,0,.35-.15.35-.35,0-.19-.15-.35-.34-.35-.19,0-.35.15-.35.34,0,.19.15.35.35.35Z"/>
            <polygon class="cls-5" points="25.68 24.85 24.61 23.18 24.41 23.31 25.48 24.97 25.68 24.85"/>
            <path class="cls-5" d="m25.83,25.29c.16-.1.21-.32.1-.48-.1-.16-.32-.21-.48-.1-.16.1-.21.32-.1.48.1.16.32.21.48.1Z"/>
            <path class="cls-6" d="m10.78,5.01c0,.25.2.45.44.45.24,0,.45-.2.45-.44,0-.25-.2-.45-.44-.45-.25,0-.45.2-.45.44Z"/>
            <path class="cls-6" d="m14.18,5.03c0,.25.2.44.45.45.25,0,.45-.2.45-.44,0-.25-.2-.45-.44-.45-.25,0-.45.2-.45.44Z"/>
            <path class="cls-6" d="m17.58,5.04c0,.25.2.45.44.45.25,0,.45-.2.45-.44,0-.25-.2-.45-.45-.45-.25,0-.45.2-.45.44Z"/>
            <path class="cls-6" d="m10.77,7.73c0,.25.2.45.44.45.25,0,.45-.2.45-.45,0-.24-.2-.45-.44-.45-.25,0-.45.2-.45.44Z"/>
            <path class="cls-6" d="m14.17,7.75c0,.25.2.45.44.45.25,0,.45-.2.45-.45,0-.25-.2-.45-.44-.45-.25,0-.45.2-.45.44Z"/>
            <path class="cls-6" d="m17.57,7.77c0,.24.2.45.45.45.24,0,.45-.2.45-.44,0-.25-.2-.45-.44-.45-.25,0-.45.2-.45.44Z"/>
            <path class="cls-6" d="m10.76,10.47c0,.25.2.45.44.45.25,0,.45-.2.45-.44,0-.25-.2-.45-.44-.45-.25,0-.45.2-.45.44Z"/>
            <path class="cls-6" d="m14.15,10.48c0,.25.2.45.45.45.24,0,.45-.2.45-.44,0-.25-.2-.45-.44-.45-.25,0-.45.2-.45.44Z"/>
            <path class="cls-6" d="m17.55,10.5c0,.25.2.45.44.45.25,0,.45-.2.45-.44,0-.25-.2-.45-.44-.45-.25,0-.45.2-.45.44Z"/>
            <path class="cls-6" d="m10.74,13.19c0,.24.2.45.45.45.25,0,.45-.2.45-.45,0-.25-.2-.45-.45-.45-.25,0-.45.2-.45.44Z"/>
            <path class="cls-6" d="m14.14,13.2c0,.25.2.45.44.45.25,0,.45-.2.45-.45,0-.24-.2-.44-.44-.45-.25,0-.45.2-.45.44Z"/>
            <path class="cls-6" d="m17.54,13.22c0,.25.2.45.45.45.25,0,.45-.2.45-.44,0-.25-.2-.45-.44-.45-.25,0-.45.2-.45.45Z"/>
            <path class="cls-6" d="m10.73,15.92c0,.25.2.45.44.45.25,0,.45-.2.45-.44,0-.25-.2-.45-.44-.45s-.45.2-.45.44Z"/>
            <path class="cls-6" d="m14.13,15.94c0,.25.2.45.45.45.24,0,.45-.2.45-.44,0-.25-.2-.45-.44-.45-.25,0-.45.2-.45.44Z"/>
            <path class="cls-6" d="m17.53,15.96c0,.25.2.44.44.45.25,0,.45-.2.45-.44,0-.25-.2-.45-.44-.45-.25,0-.45.2-.45.45Z"/>
            <path class="cls-6" d="m10.72,18.64c0,.25.2.45.44.45.25,0,.45-.2.45-.44,0-.25-.2-.45-.44-.45-.25,0-.45.2-.45.44Z"/>
            <path class="cls-6" d="m14.12,18.66c0,.25.2.45.44.45.25,0,.45-.2.45-.44,0-.25-.2-.44-.44-.45-.25,0-.45.2-.45.44Z"/>
            <path class="cls-6" d="m17.52,18.67c0,.25.2.45.45.45.24,0,.45-.2.45-.44,0-.25-.2-.45-.44-.45-.25,0-.45.2-.45.44Z"/>
            <path class="cls-6" d="m10.71,21.38c0,.25.2.44.44.45.25,0,.45-.2.45-.44,0-.25-.2-.45-.44-.45-.25,0-.45.2-.45.44Z"/>
            <path class="cls-6" d="m14.1,21.39c0,.25.2.45.44.45.24,0,.45-.2.45-.44,0-.25-.2-.45-.45-.45-.25,0-.45.2-.45.44Z"/>
            <path class="cls-6" d="m17.5,21.41c0,.25.2.45.44.45.25,0,.45-.2.45-.44,0-.25-.2-.45-.44-.45-.25,0-.45.2-.45.44Z"/>
            <path class="cls-6" d="m20.7,5.06c0,.25.2.45.44.45.25,0,.45-.2.45-.44,0-.25-.2-.45-.44-.45-.25,0-.44.2-.45.45Z"/>
            <path class="cls-6" d="m20.68,7.78c0,.25.2.45.44.45.25,0,.45-.2.45-.44,0-.25-.2-.45-.44-.45-.25,0-.45.2-.45.44Z"/>
            <path class="cls-6" d="m20.67,10.51c0,.25.2.45.44.45.25,0,.45-.2.45-.45,0-.24-.2-.44-.45-.45-.25,0-.45.2-.45.44Z"/>
            <path class="cls-6" d="m20.66,13.23c0,.25.2.45.44.45.25,0,.45-.2.45-.45,0-.25-.2-.45-.44-.45-.25,0-.45.2-.45.44Z"/>
            <path class="cls-6" d="m20.65,15.97c0,.25.2.45.44.45.25,0,.45-.2.45-.44,0-.25-.2-.45-.44-.45-.25,0-.45.2-.45.44Z"/>
            <path class="cls-6" d="m20.63,18.69c0,.25.2.45.44.45.25,0,.45-.2.45-.44,0-.25-.2-.45-.44-.45-.25,0-.45.2-.45.44Z"/>
            <path class="cls-6" d="m20.62,21.43c0,.25.2.45.44.45.25,0,.45-.2.45-.44,0-.25-.2-.45-.44-.45s-.45.2-.45.44Z"/>
            <path class="cls-6" d="m23.82,5.07c0,.25.2.45.44.45.25,0,.45-.2.45-.44,0-.25-.2-.45-.44-.45s-.45.2-.45.44Z"/>
            <path class="cls-6" d="m23.8,7.79c0,.25.2.45.45.45.25,0,.45-.2.45-.44,0-.25-.2-.45-.44-.45-.25,0-.45.2-.45.44Z"/>
            <path class="cls-6" d="m23.79,10.53c0,.25.2.45.44.45.25,0,.45-.2.45-.44,0-.25-.2-.45-.45-.45-.25,0-.45.2-.45.44Z"/>
            <path class="cls-6" d="m23.78,13.25c0,.24.2.45.44.45.25,0,.45-.2.45-.44,0-.25-.2-.45-.45-.45-.25,0-.45.2-.45.44Z"/>
            <path class="cls-6" d="m23.76,15.98c0,.25.2.45.45.45s.45-.2.45-.44c0-.25-.2-.45-.44-.45s-.45.2-.45.44Z"/>
            <path class="cls-6" d="m23.75,18.7c0,.25.2.45.44.45.25,0,.45-.2.45-.44,0-.25-.2-.45-.45-.45-.25,0-.45.2-.45.44Z"/>
            <path class="cls-6" d="m23.74,21.44c0,.25.2.45.44.45.24,0,.45-.2.45-.44,0-.25-.2-.45-.44-.45-.25,0-.45.2-.45.44Z"/>
            <path class="cls-9" d="m19.74,37.98c-.46-5.38,2.49-8.9,4.05-10.37-4.42-.42-8.54,3.27-5.88,15.77,1.8,8.5.75,13.22-.1,15.38,8.68-.34,2.52-13.79,1.93-20.78Z"/>
          </g>
          <path class="cls-8" d="m2.82,17.17c.14-.18.21-.78.43-.78s.27.62.42.78c.16.16.79.2.78.42-.01.22-.64.25-.78.43-.14.18-.21.79-.42.78-.22-.01-.25-.64-.43-.78-.18-.14-.79-.21-.78-.43.01-.22.64-.25.78-.42Z"/>
          <path class="cls-11" d="m62.4,13.27c.14-.17.21-.78.43-.78s.27.62.42.78c.15.16.79.21.78.43-.01.22-.64.25-.78.43-.14.17-.21.79-.42.78-.22-.02-.25-.64-.43-.78-.18-.14-.8-.21-.78-.43.01-.22.64-.25.78-.43Z"/>
          <g>
            <path class="cls-8" d="m47.64,24.47l-2.31-13.94h-9.62l-2.31,13.94c-6.08,2.73-10.33,8.82-10.33,15.92,0,9.64,7.81,17.45,17.45,17.45s17.45-7.81,17.45-17.45c0-7.1-4.25-13.19-10.33-15.92Z"/>
            <g>
              <path class="cls-11" d="m52.02,39.65s-.02-.07-.03-.11c0,.05.01.09.02.14,0-.01,0-.02,0-.03Z"/>
              <path class="cls-11" d="m29.04,39.63s0,.02,0,.02c0,0,0,0,0,0,0,0,0-.02,0-.03Z"/>
              <path class="cls-11" d="m40.52,41.79c6.29,0,11.4-.94,11.49-2.1,0-.05-.01-.09-.02-.14-.31-1.13-5.32-2.02-11.47-2.02s-11.42.94-11.49,2.11c0,.01,0,.02,0,.03.02,1.18,5.16,2.13,11.49,2.13Z"/>
            </g>
            <path class="cls-7" d="m52.01,39.69h0c-.09,1.16-5.19,2.1-11.49,2.1s-11.47-.95-11.49-2.13c-.08.56-.14,1.12-.14,1.7,0,6.42,5.21,11.63,11.63,11.63s11.63-5.21,11.63-11.63c0-.57-.06-1.13-.14-1.68Z"/>
            <path class="cls-9" d="m46.6,18.21l-1.27-7.68h-9.62l-.56,3.35s.02,0,.03,0c4.38,0,8.37,1.65,11.42,4.34Z"/>
            <path class="cls-9" d="m52,27.28c.29,1.24.45,2.54.45,3.86,0,9.54-7.73,17.27-17.27,17.27-4.56,0-8.69-1.78-11.78-4.67,1.57,8.03,8.63,14.08,17.12,14.08,9.63,0,17.45-7.81,17.45-17.45,0-5.23-2.31-9.91-5.96-13.11Z"/>
            <path class="cls-7" d="m30.9,6.47l1.17,6.18s10.86.55,15.45-1.38c1.85-.78,7.24-3.52,7.24-3.52l-1.49-5.86s-7.88-.96-12.68,0c-4.8.96-9.7,4.58-9.7,4.58Z"/>
            <path class="cls-11" d="m40.6,1.89c-4.8.96-9.7,4.58-9.7,4.58l.43,2.26c2.51.08,10.84.22,14.71-1.41,1.86-.78,7.25-3.52,7.25-3.52l-.5-1.97c-1.78-.19-8.11-.76-12.19.05Z"/>
            <path class="cls-8" d="m56.11,7.63c.08.5-.26.96-.75,1.04l-.56.09c-.5.08-.97-.26-1.05-.75l-1.04-6.41c-.08-.5.26-.96.75-1.04l.56-.09c.5-.08.96.26,1.04.75l1.04,6.4Z"/>
            <path class="cls-7" d="m47.27,8.78s.57,9.33,6.26,12.86c0,0,.74.54,1.82,0,.46-.23.6-1.78-.94-3.57-2.56-2.98-2.8-9.5-1.71-11.62,1.09-2.12-5.43,2.33-5.43,2.33Z"/>
          </g>
          <g>
            <g>
              <path class="cls-14" d="m14.82,57.74c-.45-.51-.43-.59-.31-.75.11-.14.23-.28.37-.41l-.99-.6c-.2.36-.35.69-.43.96.08.09.66.86,1.35.81Z"/>
              <path class="cls-3" d="m13.47,56.93s0-.02,0-.02c-.56.84.72,1.33,1.47,1.44.75.11-.11-.61-.11-.61-.69.05-1.27-.71-1.35-.81Z"/>
            </g>
            <path class="cls-10" d="m13.59,55.78c-.13.48.94,1.25,1.24,1,2.59-2.2,5.35-6.98,6.39-8.94.05-.09.09-.17.13-.24.52-.84.81-.67,2.56-4.58.57-1.26.91-3.47.91-3.47l-1.74-.72-3.89-1.61c-1.39,1.32-1.97,5.07-2.27,6.61-.25,1.31-.54,3.42-.81,4.44-.96,3.55-1.66,4.27-2.53,7.5Z"/>
            <g>
              <path class="cls-14" d="m24.94,58.69c-.63-.28-.64-.36-.6-.56.04-.17.1-.35.17-.53l-1.15-.13c-.03.41-.03.77.01,1.05.1.05.95.5,1.56.17Z"/>
              <path class="cls-3" d="m23.38,58.52s-.02-.02-.02-.02c-.16,1,1.21.91,1.94.7.73-.22-.35-.51-.35-.51-.61.33-1.46-.12-1.56-.17Z"/>
            </g>
            <path class="cls-3" d="m20.88,46.33c.15.46.32.86.48,1.27.52-.84.81-.67,2.56-4.58.57-1.26.91-3.47.91-3.47l-1.74-.72-1.76.13c-.71,1.78-.94,5.9-.45,7.36Z"/>
            <path class="cls-12" d="m21.07,45.18c.32,1.3,1.04,2.63,1.04,4.44,0,3.69.35,4.51.9,7.81.06.38.87.62,1.3.54.07-.01.13-.03.17-.07.04-.02.07-.05.08-.08,1.43-3.08,2.38-8.31,2.51-10.51.07-1.3.04-1.14,0-5.78-.01-1.39-.62-3.54-.62-3.54l-5.76.19c-.71,1.78.01,5.48.38,7Z"/>
            <path class="cls-1" d="m24.31,57.97c.07-.01.13-.03.17-.07.87-2.43,1.25-5.02,1.57-7.26.27-1.9.58-4.05.59-6.17,0-2.32-.37-4.36-1.11-6.08-.02-.03-.06-.05-.09-.03-.03.01-.05.05-.04.09.74,1.7,1.11,3.73,1.11,6.02,0,2.11-.31,4.26-.59,6.16-.33,2.26-.71,4.89-1.6,7.34Z"/>
            <path class="cls-3" d="m17.71,40.28c.35-1.24.83-2.42,1.49-3.05l2.25.93,5-.17s.13.46.27,1.08c-2.2,1.76-5.95,2.41-9.01,1.21Z"/>
            <path class="cls-11" d="m26.48,28.66c.88,1.1,1.45,3.28.24,9.98-.27,1.47-9.27,1.83-9.09.34.56-4.62,2.46-7.32,4.43-10.53.54-.87,2.69-1.97,4.42.21Z"/>
            <g>
              <path class="cls-14" d="m34.46,33.92s.46-1.01.14-.91c-.32.1-.24.54-.73.96-.49.42.79.01.79.01l-.2-.06Z"/>
              <g>
                <path class="cls-14" d="m34.03,33.9s2.17-1.45,1.92-.72c-.24.73-.5,1.32-1.71,1.5l-.21-.78Z"/>
                <path class="cls-7" d="m26.55,28.77c-1.52-.08-2.04.6-2.09,1.53-.08,1.42.13,3.75,2.31,5.35,2.17,1.6,7.63-.94,7.63-.94,0,0,.12-.77-.39-1.11,0,0-4.31,1.41-5.9-.42-.76-.89.09-4.32-1.56-4.41Z"/>
              </g>
            </g>
            <path class="cls-3" d="m27.28,22.11c.87.35,1.81,1.37,1.35,3.16-.46,1.78-.41,1.83,0,2.64,1.11,2.08-2.88.88-2.29,2.89,1.64,5.55-5.37,2.91-6.37,1.11-1.13-2.02-.95-4.88,1.13-5.61.69-.24.16-2.61,1.7-2.65,1.54-.05,1.1-2.88,4.46-1.54Z"/>
          </g>
          <g>
            <path class="cls-11" d="m64.65,55.53l5.71-.02c-.17,1.33-.92,2.34-1.82,2.34l-7.76.02c-1.03,0-1.87-1.3-1.88-2.91l-.14-30.2c0-1.61.83-2.92,1.85-2.92l7.76-.02c.9,0,1.66,1,1.84,2.33l-5.71.02v2.77s5.72-.02,5.72-.02v1.46s-5.7.02-5.7.02v2.63s5.72-.02,5.72-.02v1.46s-5.7.02-5.7.02v2.63s5.72-.02,5.72-.02v1.46s-5.7.02-5.7.02v2.63s5.72-.02,5.72-.02v1.46s-5.7.02-5.7.02v2.63s5.72-.02,5.72-.02v1.46s-5.7.02-5.7.02v2.63s5.72-.02,5.72-.02v1.46s-5.7.02-5.7.02v2.63s5.72-.02,5.72-.02v1.46s-5.7.02-5.7.02v2.63Z"/>
            <path class="cls-7" d="m58.9,54.96l-.14-30.2c0-1.61.83-2.92,1.85-2.92h.73s.16,36.03.16,36.03h-.73c-1.03,0-1.87-1.3-1.88-2.91Z"/>
          </g>
          <g>
            <path class="cls-13" d="m79.16,57.09v1.4s-49.6.54-49.6.54c-2.42.03-4.47.16-5.59-2.56-.7-1.7.18-3.83,3.47-4.94,2.4-.81,5.55-.3,9.9,1.46,1.81.73,5.38,1.77,8.61-.53,1.01-.72,3.71-2.64,7.37.59.57.5,2.69,2.61,6.45-.8.77-.69,1.93-1.77,3.85-1.68,1.45.07,2.77.88,3.94,2.4.38.49,1.87,1.85,5.02-.38l.87,1.18c-1.67,1.08-3.1,1.62-4.83,1.39-.98-.12-1.79-.6-2.42-1.42-.87-1.14-1.76-1.73-2.67-1.78-1.21-.06-2.22.89-2.5,1.18-1.75,1.81-3.47,2.64-4.68,2.68-1.52.05-3.15-.87-4.19-1.8-2.41-2.13-3.87-1.41-5.16-.49-4.1,2.92-8.69,1.44-10.65.76-1.58-.54-4.97-2.93-8.33-1.51-2.23.93-2.98,1.81-2.59,3.2.46,1.65,2.36,1.67,4.11,1.65l49.62-.54Z"/>
            <path class="cls-13" d="m79.15,56.82c.62,0,1.12.42,1.13.95,0,.53-.49.96-1.11.97-.62,0-1.12-.42-1.13-.95,0-.53.49-.96,1.11-.97Z"/>
            <path class="cls-13" d="m72.9,52.29c.62,0,1.12.42,1.13.95,0,.53-.49.96-1.11.97-.62,0-1.12-.41-1.13-.95,0-.53.49-.97,1.11-.97Z"/>
          </g>
          <path class="cls-2" d="m11.32,37.48c-.67,0-1.21-.54-1.21-1.19s.55-1.19,1.21-1.19,1.21.54,1.21,1.19-.55,1.19-1.21,1.19Zm0-2.06c-.49,0-.88.39-.88.87s.4.87.88.87.88-.39.88-.87-.4-.87-.88-.87Z"/>
          <path class="cls-5" d="m61.05,18.55c.03.38-.25.71-.62.74-.38.03-.71-.25-.74-.62-.04-.38.24-.71.62-.74.38-.03.71.25.74.62Z"/>
        </g>
      </g>
    </g>
  </g>
</svg>