<?xml version="1.0" encoding="UTF-8"?>
<svg xmlns="http://www.w3.org/2000/svg" viewBox="0 0 70.66 64.14">
  <defs>
    <style>
      .cls-1 {
        fill: #fff;
      }

      .cls-2 {
        fill: #8196fc;
      }

      .cls-3 {
        fill: #5a70e0;
      }

      .cls-4 {
        fill: #1d1b3a;
      }

      .cls-5 {
        isolation: isolate;
      }

      .cls-6 {
        fill: #ad3915;
      }

      .cls-7 {
        fill: #7585f8;
      }

      .cls-8 {
        fill: #f28f19;
      }

      .cls-9 {
        fill: #b38cff;
      }

      .cls-10 {
        fill: #fabee2;
      }

      .cls-11 {
        fill: #fbc6b4;
      }

      .cls-12 {
        mix-blend-mode: overlay;
        opacity: .3;
      }

      .cls-13 {
        fill: #88cfee;
      }

      .cls-14 {
        fill: #a07df4;
      }

      .cls-15 {
        fill: #ef60ae;
      }

      .cls-16 {
        fill: #f4a517;
      }

      .cls-17 {
        fill: #fe71b7;
      }

      .cls-18 {
        fill: #efabd7;
      }

      .cls-19 {
        fill: #be4719;
      }

      .cls-20 {
        fill: #f268b4;
      }
    </style>
  </defs>
  <g class="cls-5">
    <g id="Layer_2" data-name="Layer 2">
      <g id="Layer_1-2" data-name="Layer 1">
        <g>
          <g>
            <g>
              <polygon class="cls-2" points="53.47 51.56 53.52 51.22 52.67 51.09 52.61 51.42 53.47 51.56"/>
              <polygon class="cls-2" points="54.76 51.73 54.8 51.39 53.94 51.29 53.9 51.63 54.76 51.73"/>
              <path class="cls-2" d="m56.06,51.83l.02-.34s-.21,0-.43-.02c-.22-.02-.43-.04-.43-.04l-.03.34s.22.02.44.04c.22.02.43.02.43.02Z"/>
              <path class="cls-2" d="m57.36,51.85v-.34s-.22,0-.43,0c-.21,0-.43,0-.43,0v.34s.21.01.43.01c.22,0,.44,0,.44,0Z"/>
              <polygon class="cls-2" points="58.66 51.79 58.63 51.45 57.77 51.51 57.79 51.85 58.66 51.79"/>
              <path class="cls-2" d="m59.96,51.62l-.06-.33s-.85.12-.85.12l.04.34s.87-.11.87-.12Z"/>
              <path class="cls-2" d="m61.23,51.33l-.09-.33s-.21.06-.41.11c-.21.05-.42.09-.42.09l.07.34s.22-.04.43-.09c.21-.06.42-.12.42-.12Z"/>
            </g>
            <g>
              <polygon class="cls-2" points="62.47 50.91 62.34 50.6 61.54 50.89 61.65 51.22 62.47 50.91"/>
              <path class="cls-2" d="m63.65,50.33l-.17-.29s-.75.39-.75.39l.14.31s.2-.1.4-.19c.2-.09.39-.22.39-.22Z"/>
              <path class="cls-2" d="m64.73,49.59l-.21-.27s-.17.13-.34.26c-.16.14-.35.24-.35.24l.18.29s.2-.1.37-.25c.17-.14.35-.27.35-.27Z"/>
              <polygon class="cls-2" points="65.7 48.7 65.46 48.47 64.85 49.06 65.07 49.31 65.7 48.7"/>
              <path class="cls-2" d="m66.52,47.66l-.28-.19s-.1.19-.25.35c-.13.16-.27.33-.27.33l.26.22s.14-.17.28-.34c.15-.16.26-.36.26-.36Z"/>
              <path class="cls-2" d="m67.18,46.53l-.3-.15s-.09.19-.19.38c-.1.19-.23.36-.23.36l.29.18s.13-.18.23-.38c.1-.2.2-.39.2-.39Z"/>
              <path class="cls-2" d="m67.7,45.33l-.32-.13s-.3.81-.32.8l.31.14s.33-.81.33-.81Z"/>
            </g>
            <g>
              <polygon class="cls-2" points="68.17 44.12 67.84 44.01 67.54 44.82 67.85 44.93 68.17 44.12"/>
              <polygon class="cls-2" points="68.51 42.86 68.18 42.78 67.96 43.61 68.29 43.71 68.51 42.86"/>
              <path class="cls-2" d="m68.78,41.59l-.34-.06s-.03.21-.06.42c-.03.21-.1.42-.1.42l.33.07s.07-.21.1-.43c.03-.22.06-.43.06-.43Z"/>
              <path class="cls-2" d="m68.96,40.29l-.34-.03s0,.05,0,.13c-.01.08-.03.19-.04.29-.03.21-.06.42-.06.42l.34.05s.14-.87.11-.87Z"/>
              <polygon class="cls-2" points="68.99 38.99 68.65 38.99 68.63 39.85 68.97 39.86 68.99 38.99"/>
              <polygon class="cls-2" points="68.9 37.68 68.56 37.72 68.63 38.57 68.97 38.56 68.9 37.68"/>
              <polygon class="cls-2" points="68.7 36.39 68.37 36.46 68.52 37.3 68.86 37.26 68.7 36.39"/>
            </g>
            <g>
              <polygon class="cls-2" points="68.42 35.12 68.09 35.21 68.3 36.04 68.63 35.97 68.42 35.12"/>
              <polygon class="cls-2" points="68.07 33.87 67.74 33.97 67.98 34.8 68.31 34.71 68.07 33.87"/>
              <rect class="cls-2" x="67.48" y="32.67" width=".34" height=".87" transform="translate(-6.78 21.6) rotate(-17.29)"/>
              <polygon class="cls-2" points="67.31 31.41 66.99 31.5 67.23 32.33 67.56 32.23 67.31 31.41"/>
              <path class="cls-2" d="m66.98,30.17l-.33.08s.05.21.1.42c.05.21.11.42.11.42l.33-.09s-.07-.21-.11-.42c-.05-.21-.1-.42-.1-.42Z"/>
              <path class="cls-2" d="m66.72,28.91l-.34.06s.03.22.07.43c.04.22.09.43.09.43l.33-.08s-.06-.21-.09-.42c-.03-.21-.07-.42-.07-.42Z"/>
              <path class="cls-2" d="m66.55,27.65l-.34.03s.01.22.03.44c.04.22.07.43.07.43l.34-.05s-.03-.21-.07-.42c-.01-.21-.03-.43-.03-.43Z"/>
            </g>
            <g>
              <path class="cls-2" d="m66.51,26.38h-.34s0,.05,0,.13c0,.08-.01.19,0,.3.01.22.03.44.03.44l.34-.02s-.01-.21-.03-.43c-.01-.11,0-.21,0-.3,0-.08,0-.13,0-.13Z"/>
              <path class="cls-2" d="m66.58,25.11l-.34-.04s-.02.22-.03.44c-.01.22-.02.44-.02.44l.34.02s.01-.21.02-.43c.01-.21.03-.43.03-.43Z"/>
              <polygon class="cls-2" points="66.8 23.85 66.47 23.78 66.32 24.65 66.66 24.7 66.8 23.85"/>
              <polygon class="cls-2" points="67.13 22.62 66.81 22.52 66.56 23.36 66.89 23.44 67.13 22.62"/>
              <polygon class="cls-2" points="67.51 21.38 67.18 21.29 66.93 22.11 67.26 22.22 67.51 21.38"/>
              <path class="cls-2" d="m67.73,20.06h-.34s0,.06,0,.14c0,.08,0,.18-.03.28-.03.21-.07.41-.07.41l.33.06s.04-.22.07-.44c.02-.11.03-.22.03-.31,0-.08,0-.14,0-.14Z"/>
              <path class="cls-2" d="m67.58,18.74l-.33.1s.01.05.04.12c.02.08.05.18.06.28.03.21.05.42.05.42l.34-.04s-.03-.22-.05-.45c0-.11-.04-.22-.06-.3-.02-.08-.04-.13-.04-.13Z"/>
            </g>
            <g>
              <path class="cls-2" d="m67,17.54l-.29.19s.11.18.22.35c.09.19.17.38.17.38l.32-.13s-.09-.2-.19-.41c-.12-.19-.24-.38-.24-.38Z"/>
              <path class="cls-2" d="m66.08,16.57l-.22.26s.62.56.6.58l.27-.21s-.64-.64-.65-.62Z"/>
              <path class="cls-2" d="m64.94,15.89l-.15.31s.74.39.73.4l.2-.28s-.78-.45-.79-.43Z"/>
              <path class="cls-2" d="m63.68,15.46l-.08.33s.81.24.81.24l.12-.32s-.21-.07-.42-.14c-.21-.08-.43-.12-.43-.12Z"/>
              <path class="cls-2" d="m62.38,15.26l-.02.34s.21,0,.42.04c.21.03.42.06.42.06l.06-.34s-.22-.03-.44-.06c-.22-.04-.44-.04-.44-.04Z"/>
              <path class="cls-2" d="m61.06,15.28l.03.34s.21-.03.42-.03c.21,0,.42,0,.42,0v-.34s-.22,0-.44,0c-.22,0-.44.03-.44.03Z"/>
              <path class="cls-2" d="m59.77,15.52l.09.33s.2-.07.41-.1c.21-.04.42-.08.42-.08l-.05-.33s-.22.04-.44.08c-.22.04-.43.11-.43.11Z"/>
            </g>
            <g>
              <path class="cls-2" d="m58.53,16l.15.3s.18-.1.38-.18c.2-.08.4-.15.4-.15l-.11-.32s-.21.08-.41.16c-.21.08-.4.19-.4.19Z"/>
              <path class="cls-2" d="m57.42,16.71l.22.26s.16-.14.33-.26c.18-.11.36-.23.36-.23l-.17-.29s-.19.12-.38.24c-.18.12-.35.27-.35.27Z"/>
              <path class="cls-2" d="m56.5,17.67l.27.2s.12-.17.26-.33c.15-.15.29-.3.29-.3l-.24-.25s-.16.16-.31.32c-.15.17-.28.35-.28.35Z"/>
              <path class="cls-2" d="m55.84,18.83l.31.13s.07-.2.17-.38c.1-.18.21-.36.21-.36l-.29-.18s-.11.19-.22.39c-.11.2-.18.41-.18.41Z"/>
              <path class="cls-2" d="m55.46,20.1l.34.06s.2-.82.2-.82l-.32-.11s-.25.86-.21.86Z"/>
              <path class="cls-2" d="m55.35,21.42h.34s0-.21.02-.43c0-.11,0-.21.01-.29.01-.08.02-.13.02-.13l-.34-.04s-.05.89-.05.89Z"/>
              <polygon class="cls-2" points="55.44 22.72 55.78 22.69 55.71 21.83 55.37 21.85 55.44 22.72"/>
            </g>
            <g>
              <path class="cls-2" d="m55.51,23.99h.34s0-.22,0-.44c-.02-.22-.04-.43-.04-.43l-.34.03s.02.21.03.43c0,.21,0,.43,0,.43Z"/>
              <path class="cls-2" d="m55.47,25.27l.34.03s.07-.88.05-.88h-.34s-.05.85-.05.85Z"/>
              <polygon class="cls-2" points="55.29 26.52 55.62 26.59 55.77 25.72 55.43 25.68 55.29 26.52"/>
              <path class="cls-2" d="m54.93,27.73l.32.12s.08-.21.15-.42c.06-.21.11-.42.11-.42l-.33-.09s-.05.21-.11.41c-.07.2-.15.4-.15.4Z"/>
              <path class="cls-2" d="m54.39,28.87l.29.17s.41-.79.41-.79l-.31-.14s-.37.76-.39.75Z"/>
              <path class="cls-2" d="m53.65,29.89l.26.22s.55-.69.53-.71l-.28-.19s-.51.67-.51.67Z"/>
              <path class="cls-2" d="m52.75,30.77l.22.26s.17-.14.34-.29c.16-.16.31-.31.31-.31l-.24-.24s-.15.15-.3.3c-.16.13-.32.27-.32.27Z"/>
            </g>
          </g>
          <g>
            <path class="cls-17" d="m56.49,34.93c0,1.07-1.04,1.93-2.32,1.93h-3.93c-1.28,0-2.32-.87-2.32-1.93v-7.19c0-1.07,1.04-1.93,2.32-1.93h3.93c1.28,0,2.32.87,2.32,1.93v7.19Z"/>
            <path class="cls-20" d="m46.3,29.55h11.81c1.07,0,1.93.87,1.93,1.93v29.2c0,1.07-.87,1.93-1.93,1.93h-11.81c-1.07,0-1.93-.87-1.93-1.93v-29.19c0-1.07.87-1.93,1.93-1.93Z"/>
            <path class="cls-15" d="m48.11,18.91h8.18c1.07,0,1.93.87,1.93,1.93v5.35c0,1.07-.87,1.93-1.93,1.93h-8.18c-1.07,0-1.93-.87-1.93-1.93v-5.35c0-1.07.87-1.93,1.93-1.93Z"/>
            <path class="cls-12" d="m49.08,33.09h6.19c1.07,0,1.93.87,1.93,1.93v22.17c0,1.07-.87,1.93-1.93,1.93h-6.19c-1.07,0-1.93-.87-1.93-1.93v-22.17c0-1.07.87-1.93,1.93-1.93Z"/>
            <path class="cls-12" d="m58.11,62.61c1.07,0,1.93-.87,1.93-1.93v-29.19c0-.67-.34-1.26-.86-1.61-1.21,5.92-5.68,25.29-13.97,32.4.31.21.68.33,1.08.33h11.81Z"/>
            <path class="cls-20" d="m55.91,35.01c0,.22-.18.41-.41.41h-6.28c-.22,0-.41-.18-.41-.41h0c0-.22.18-.41.41-.41h6.28c.23,0,.41.18.41.41h0Z"/>
            <path class="cls-20" d="m55.91,56.66c0,.23-.18.41-.41.41h-6.28c-.22,0-.41-.18-.41-.41h0c0-.23.18-.41.41-.41h6.28c.23,0,.41.18.41.41h0Z"/>
            <rect class="cls-20" x="48.82" y="36.46" width="7.09" height="3.72"/>
            <rect class="cls-12" x="46.18" y="22.14" width="12.05" height="1.4"/>
            <rect class="cls-12" x="46.18" y="24.45" width="12.05" height="1.4"/>
          </g>
          <g>
            <path class="cls-7" d="m70.66,59.13c0-2.41-1.11-4.38-2.51-4.54v-.02h-11.55v9.12h11.55v-.02c1.4-.16,2.51-2.13,2.51-4.54Z"/>
            <g>
              <path class="cls-3" d="m59.77,55.51h4.04c-.04-.06-.09-.12-.13-.18h-4.03c.04.06.08.12.12.18Z"/>
              <path class="cls-3" d="m64.04,55.51h4.05c-.04-.06-.09-.12-.14-.18h-4.03c.04.06.08.12.12.18Z"/>
              <path class="cls-3" d="m68.3,55.51h1.22v-.09s-.06-.06-.08-.09h-1.26c.04.06.08.12.12.18Z"/>
              <path class="cls-3" d="m58.16,55.51h1.39c-.04-.06-.09-.12-.14-.18h-1.26v.18Z"/>
              <path class="cls-3" d="m58.16,57.64h2.24c-.01-.06-.03-.12-.04-.18h-2.21v.18Z"/>
              <path class="cls-3" d="m60.6,57.64h4.07c-.01-.06-.02-.12-.04-.18h-4.07c.01.06.03.12.04.18Z"/>
              <path class="cls-3" d="m64.86,57.64h4.07c-.01-.06-.02-.12-.04-.18h-4.07c.01.06.03.12.04.18Z"/>
              <path class="cls-3" d="m69.13,57.64h1.38c-.01-.06-.02-.12-.04-.18h-1.38c.01.06.03.12.04.18Z"/>
              <path class="cls-3" d="m60.64,60.48h4.07c0-.06.02-.12.03-.18h-4.07c0,.06-.02.12-.03.18Z"/>
              <path class="cls-3" d="m69.16,60.48h1.37c0-.06.02-.12.03-.18h-1.37c0,.06-.02.12-.03.18Z"/>
              <path class="cls-3" d="m58.16,60.48h2.28c0-.06.02-.12.03-.18h-2.31v.18Z"/>
              <path class="cls-3" d="m64.9,60.48h4.07c0-.06.02-.12.03-.18h-4.07c0,.06-.02.12-.03.18Z"/>
              <path class="cls-3" d="m64.17,62.61h4.05c.04-.06.07-.12.1-.18h-4.05c-.03.06-.06.12-.1.18Z"/>
              <path class="cls-3" d="m68.44,62.61h1.26c.04-.06.08-.12.12-.18h-1.28c-.03.06-.06.12-.09.18Z"/>
              <path class="cls-3" d="m58.16,62.61h1.54c.03-.06.07-.12.1-.18h-1.64v.18Z"/>
              <path class="cls-3" d="m59.91,62.61h4.05c.03-.06.07-.12.1-.18h-4.05c-.03.06-.06.12-.1.18Z"/>
              <path class="cls-13" d="m59.91,62.61c.03-.06.06-.12.1-.18.29-.56.51-1.22.63-1.95.01-.06.02-.12.03-.18.05-.36.08-.74.08-1.13,0-.53-.05-1.05-.14-1.53-.01-.06-.03-.12-.04-.18-.17-.75-.44-1.42-.79-1.95-.04-.06-.08-.12-.12-.18-.23-.31-.48-.57-.76-.76h-.37c.33.16.63.42.9.76.05.06.09.12.14.18.36.52.64,1.19.81,1.95.01.06.02.12.04.18.09.48.15,1,.15,1.53,0,.39-.03.77-.08,1.13,0,.06-.02.12-.03.18-.12.74-.35,1.41-.65,1.95-.04.06-.07.12-.1.18-.29.48-.64.85-1.03,1.08h.33c.34-.26.66-.63.91-1.08Z"/>
              <path class="cls-13" d="m64.17,62.61c.03-.06.07-.12.1-.18.29-.56.51-1.22.63-1.95,0-.06.02-.12.03-.18.05-.36.08-.74.08-1.13,0-.53-.05-1.05-.15-1.53-.01-.06-.03-.12-.04-.18-.17-.75-.44-1.42-.79-1.95-.04-.06-.08-.12-.12-.18-.23-.31-.48-.57-.76-.76h-.37c.33.16.63.42.9.76.05.06.09.12.13.18.36.52.64,1.19.81,1.95.01.06.02.12.04.18.1.48.15,1,.15,1.53,0,.39-.03.77-.08,1.13,0,.06-.02.12-.03.18-.12.74-.35,1.41-.65,1.95-.03.06-.07.12-.1.18-.29.48-.64.85-1.03,1.08h.33c.35-.26.66-.63.92-1.08Z"/>
              <path class="cls-13" d="m68.44,62.61c.03-.06.06-.12.09-.18.29-.56.51-1.22.63-1.95.01-.06.02-.12.03-.18.05-.36.08-.74.08-1.13,0-.53-.05-1.05-.15-1.53-.01-.06-.03-.12-.04-.18-.17-.75-.44-1.42-.79-1.95-.04-.06-.08-.12-.12-.18-.23-.31-.48-.57-.76-.76h-.37c.33.16.63.42.9.76.05.06.09.12.14.18.36.52.64,1.19.81,1.95.01.06.03.12.04.18.1.48.15,1,.15,1.53,0,.39-.03.77-.08,1.13,0,.06-.02.12-.03.18-.12.74-.35,1.41-.65,1.95-.03.06-.07.12-.1.18-.29.48-.64.85-1.03,1.08h.33c.34-.26.66-.63.91-1.08Z"/>
            </g>
            <path class="cls-2" d="m59.29,59.13c0,2.52-1.2,4.56-2.69,4.56s-2.69-2.04-2.69-4.56,1.2-4.56,2.69-4.56,2.69,2.04,2.69,4.56Z"/>
            <path class="cls-7" d="m58.82,59.13c0,2.07-.99,3.76-2.22,3.76s-2.22-1.68-2.22-3.76.99-3.76,2.22-3.76,2.22,1.68,2.22,3.76Z"/>
          </g>
          <path class="cls-16" d="m21.29,24.43c.14-.17.2-.78.43-.78s.27.62.43.78c.16.16.79.2.78.43-.01.22-.64.25-.78.43-.14.18-.21.79-.43.78-.22-.02-.25-.64-.43-.78-.17-.14-.79-.21-.78-.43.01-.22.64-.25.78-.43Z"/>
          <g>
            <rect class="cls-9" x="27.59" y="11.46" width="9.92" height="7.44"/>
            <path class="cls-9" d="m45.17,39.27h.02s-6.52-9.82-7.19-22.3h-10.64c-.68,12.48-7.19,22.29-7.19,22.29h.01c-1.93,2.6-3.08,5.81-3.08,9.29,0,8.61,6.98,15.58,15.58,15.58s15.58-6.98,15.58-15.58c0-3.48-1.16-6.69-3.09-9.28Z"/>
            <path class="cls-14" d="m27.23,15.82h10.86c.52,0,.95.42.95.95v1.18c0,.52-.42.95-.95.95h-10.86c-.52,0-.94-.42-.94-.94v-1.18c0-.52.42-.94.94-.94Z"/>
            <path class="cls-8" d="m22.06,6.23l1.21,6.41s11.26.58,16.02-1.43c1.92-.81,7.52-3.65,7.52-3.65l-1.55-6.08s-8.18-1-13.15,0c-4.97,1-10.06,4.75-10.06,4.75Z"/>
            <path class="cls-16" d="m32.12,1.48c-4.97,1-10.06,4.75-10.06,4.75l.45,2.35c2.61.08,11.25.23,15.26-1.47,1.92-.81,7.52-3.65,7.52-3.65l-.52-2.04c-1.85-.2-8.41-.79-12.65.06Z"/>
            <path class="cls-14" d="m48.21,7.44c.08.51-.27,1-.78,1.08l-.58.09c-.51.08-1-.27-1.08-.78l-1.07-6.64c-.08-.51.27-1,.78-1.08l.58-.1c.51-.08,1,.27,1.08.78l1.07,6.64Z"/>
            <path class="cls-8" d="m39.04,8.63s.59,9.68,6.49,13.34c0,0,.77.56,1.89,0,.48-.24.62-1.84-.97-3.7-2.66-3.09-2.91-9.85-1.77-12.05,1.13-2.2-5.64,2.42-5.64,2.42Z"/>
            <g>
              <path class="cls-16" d="m44.84,46.93s-.02-.08-.03-.12c0,.05.01.1.02.15,0-.01,0-.02,0-.03Z"/>
              <path class="cls-16" d="m21,46.9s0,.02,0,.03c0,0,0,0,0,0,0-.01,0-.02,0-.03Z"/>
              <path class="cls-16" d="m32.91,49.14c6.53,0,11.82-.97,11.91-2.18,0-.05-.01-.1-.02-.15-.32-1.17-5.51-2.1-11.89-2.1s-11.84.98-11.92,2.19c0,.01,0,.02,0,.03.02,1.22,5.35,2.21,11.92,2.21Z"/>
            </g>
            <path class="cls-8" d="m44.83,46.96h0c-.09,1.21-5.39,2.18-11.91,2.18s-11.9-.99-11.92-2.21c-.08.58-.14,1.16-.14,1.76,0,6.66,5.4,12.06,12.06,12.06s12.06-5.4,12.06-12.06c0-.59-.06-1.17-.14-1.74Z"/>
            <path class="cls-8" d="m44.84,46.93s-.02-.07-.03-.11c0,.05.01.1.02.15,0-.01,0-.02,0-.03Z"/>
            <path class="cls-8" d="m21,46.9s0,.02,0,.03c0,0,0,0,0,0h0s0-.02,0-.03h0Z"/>
            <path class="cls-12" d="m32.67,64.14c8.61,0,15.58-6.98,15.58-15.58,0-3.48-1.16-6.69-3.09-9.28h.02s-2.39-3.61-4.42-9.22c-1.66,6.95-6.78,21.51-21.24,26.84,2.76,4.35,7.61,7.24,13.15,7.24Z"/>
          </g>
          <g>
            <g>
              <path class="cls-19" d="m12.76,30.4s1.99,2.22,3.19-.37c1.2-2.6,1.41-6.46.33-5.57-1.11.91-3.2,4.77-3.52,5.95Z"/>
              <path class="cls-19" d="m12.73,17.83c-.01.25.17.93.86,1.99,2.42,3.75.74,7.32.74,7.32l.66,2.19s-.08,1.99.78,1.05c.34-.37,2.84-5.5.03-9.24-2.97-3.94-3.06-3.49-3.06-3.32Z"/>
            </g>
            <g>
              <path class="cls-7" d="m16.81,16.05c0-2.34-1.07-4.24-2.42-4.4v-.02H3.22v8.82h11.17c1.35-.17,2.42-2.08,2.42-4.41Z"/>
              <g>
                <path class="cls-3" d="m6.28,12.54h3.92c-.04-.06-.09-.12-.13-.17h-3.9c.04.05.08.11.11.17Z"/>
                <path class="cls-3" d="m10.41,12.54h3.91c-.04-.06-.09-.12-.13-.17h-3.9c.04.05.08.11.12.17Z"/>
                <path class="cls-3" d="m14.53,12.54h1.18v-.08s-.05-.06-.08-.09h-1.22c.04.05.08.11.11.17Z"/>
                <path class="cls-3" d="m4.72,12.54h1.35c-.04-.06-.08-.12-.13-.17h-1.22v.17Z"/>
                <path class="cls-3" d="m4.72,14.6h2.17c-.01-.06-.02-.12-.03-.17h-2.14v.17Z"/>
                <path class="cls-3" d="m7.08,14.6h3.94c-.01-.06-.02-.12-.04-.17h-3.94c.01.06.03.11.04.17Z"/>
                <path class="cls-3" d="m11.21,14.6h3.94c-.01-.06-.02-.12-.04-.17h-3.94c.01.06.03.11.04.17Z"/>
                <path class="cls-3" d="m15.33,14.6h1.34c-.01-.06-.02-.12-.04-.17h-1.34c.01.06.03.11.04.17Z"/>
                <path class="cls-3" d="m7.12,17.35h3.94c0-.05.02-.11.03-.17h-3.94c0,.06-.02.11-.03.17Z"/>
                <path class="cls-3" d="m15.37,17.35h1.33c0-.05.02-.11.03-.17h-1.33c0,.06-.02.11-.03.17Z"/>
                <path class="cls-3" d="m4.72,17.35h2.21c0-.05.02-.11.03-.17h-2.24v.17Z"/>
                <path class="cls-3" d="m11.24,17.35h3.94c0-.05.02-.11.03-.17h-3.94c0,.06-.02.11-.03.17Z"/>
                <path class="cls-3" d="m10.54,19.42h3.92c.03-.06.07-.11.1-.17h-3.92c-.03.06-.06.12-.09.17Z"/>
                <path class="cls-3" d="m14.66,19.42h1.22c.04-.06.08-.11.11-.17h-1.24c-.03.06-.06.12-.09.17Z"/>
                <path class="cls-3" d="m4.72,19.42h1.49c.03-.06.07-.11.1-.17h-1.58v.17Z"/>
                <path class="cls-3" d="m6.41,19.42h3.92c.04-.06.07-.11.1-.17h-3.92c-.03.06-.06.12-.09.17Z"/>
                <path class="cls-13" d="m6.41,19.42c.03-.06.06-.11.09-.17.28-.54.49-1.18.61-1.89,0-.06.02-.11.03-.17.05-.35.08-.72.08-1.1,0-.52-.05-1.01-.14-1.48-.01-.06-.03-.12-.04-.17-.16-.73-.42-1.38-.76-1.89-.04-.06-.07-.12-.11-.17-.22-.3-.47-.55-.74-.73h-.36c.32.15.61.4.87.73.04.06.09.11.13.17.35.5.62,1.15.79,1.89.01.06.02.11.03.17.09.46.15.96.15,1.48,0,.38-.03.74-.08,1.1,0,.06-.02.12-.03.17-.12.72-.33,1.36-.62,1.89-.03.06-.06.12-.1.17-.28.46-.62.83-1,1.04h.32c.33-.25.63-.61.88-1.04Z"/>
                <path class="cls-13" d="m10.54,19.42c.03-.06.06-.11.09-.17.28-.54.49-1.18.61-1.89,0-.06.02-.11.03-.17.05-.35.08-.72.08-1.1,0-.52-.05-1.01-.14-1.48-.01-.06-.02-.12-.04-.17-.16-.73-.42-1.38-.76-1.89-.04-.06-.08-.12-.12-.17-.22-.3-.46-.55-.73-.73h-.36c.32.15.61.4.87.73.04.06.09.11.13.17.35.5.62,1.15.79,1.89.01.06.02.11.04.17.09.46.14.96.14,1.48,0,.38-.03.74-.08,1.1,0,.06-.02.12-.03.17-.12.72-.34,1.36-.63,1.89-.03.06-.06.12-.1.17-.28.46-.62.83-1,1.04h.32c.34-.25.63-.61.89-1.04Z"/>
                <path class="cls-13" d="m14.66,19.42c.03-.06.06-.11.09-.17.28-.54.49-1.18.61-1.89.01-.06.02-.11.03-.17.05-.35.08-.72.08-1.1,0-.52-.05-1.01-.14-1.48,0-.06-.02-.12-.04-.17-.16-.73-.42-1.38-.76-1.89-.04-.06-.07-.12-.11-.17-.22-.3-.47-.55-.74-.73h-.36c.32.15.61.4.87.73.04.06.09.11.13.17.35.5.62,1.15.79,1.89.01.06.02.11.04.17.09.46.14.96.14,1.48,0,.38-.03.74-.08,1.1,0,.06-.02.12-.03.17-.12.72-.34,1.36-.63,1.89-.03.06-.06.12-.1.17-.28.46-.62.83-1,1.04h.32c.33-.25.63-.61.88-1.04Z"/>
              </g>
              <path class="cls-2" d="m5.82,16.05c0,2.44-1.17,4.41-2.6,4.41s-2.6-1.97-2.6-4.41,1.17-4.41,2.6-4.41,2.6,1.98,2.6,4.41Z"/>
              <path class="cls-7" d="m5.36,16.05c0,2.01-.96,3.64-2.14,3.64s-2.15-1.63-2.15-3.64.96-3.64,2.15-3.64,2.14,1.63,2.14,3.64Z"/>
            </g>
            <path class="cls-19" d="m14.16,42.11s1.93,3.52.83,9.84c-1.1,6.33-4.63,8.17-2.84,10.89.19.29,1.04.72.96,1.04-.08.32-2.47.1-2.83-1.45,0,0-.84-3.31.2-7.75,1.27-5.4-3.71-9.85.32-12.77.72-.52,1.69-1.17,3.37.19Z"/>
            <path class="cls-15" d="m8.02,43.62c.67,2.04,2.68,7.19,2.4,9.03-.29,1.84-.99,6.23-.6,8.01,0,0,.92.82,2.11.31,0,0,2.74-6.03,2.93-7.18.18-1.15.63-3.7.48-6.48-.7-13.06-9.07-9.07-7.31-3.69Z"/>
            <path class="cls-19" d="m9.76,43.22s.8,3.93-2.13,9.64c-2.94,5.71-6.86,6.42-5.95,9.55.1.34.78,1,.61,1.28-.17.28-2.39-.64-2.27-2.23,0,0,.18-3.42,2.5-7.34,2.82-4.78-.61-10.51,4.1-12.09.84-.28,1.96-.61,3.16,1.19Z"/>
            <path class="cls-20" d="m3.66,42.91c.03,2.15.2,7.59-.62,9.26-.82,1.67-2.8,5.65-2.96,7.46,0,0,.63,1.06,1.92.93,0,0,4.41-4.94,4.93-5.98.52-1.04,1.7-3.35,2.38-6.04,3.22-12.67-5.74-11.29-5.66-5.62Z"/>
            <rect class="cls-18" x="5.77" y="27.63" width="4.33" height="9.31" transform="translate(-24.45 39.78) rotate(-89.21)"/>
            <rect class="cls-10" x="6.36" y="28.88" width="3.17" height="6.8" transform="translate(-24.45 39.77) rotate(-89.2)"/>
            <path class="cls-4" d="m11.32,24.38c-.59-.93-3-2.7-5.35.16-.52.62-1.15,1.78-2.65,1.87-1.05.07-3.58,1.24-2.25,4.28,1.32,3.04-2.04,2.81-.27,4.21,4.73,3.76,7,1.07,8.92-1.73,3.03-4.4,2.81-6.91,1.61-8.8Z"/>
            <path class="cls-8" d="m10.8,32.83s.71,1.45,2.73.23c1.38-.83,2.1-1.88,2.1-1.88,0,0-.18-2.79-2.05-3.26,0,0-4.12,2.5-2.78,4.91Z"/>
            <path class="cls-16" d="m13.81,39.96c-.51-2.72.14-5.82-.54-8.11-.93-3.17-3.98-3.09-5.8-2.7-1.82.4-4.82.99-3.45,4.88.96,2.71.43,4.46-.22,7.22h0c-.02.07-.03.13-.06.2,0,0,0,0,0,0,0,0,0,0,0,0-1.18,3.03,10.58,1.27,10.06-1.5Z"/>
            <path class="cls-6" d="m8.21,26.85s.02,1.78-.63,2.45c-.42.43,2.18,1.96,2.23,1.3.07-.85-.33-1.44.37-2.29l-1.98-1.46Z"/>
            <g>
              <path class="cls-11" d="m6.21,30.98s-1.37,2.65-3.18.43c-1.8-2.22-2.97-5.91-1.7-5.32,1.3.61,4.28,3.82,4.88,4.89Z"/>
              <path class="cls-19" d="m3.11,18.8c.08.24.07.94-.33,2.14-1.41,4.23,1.1,7.27,1.1,7.27l-.09,2.29s.57,1.91-.49,1.22c-.42-.28-4.12-4.62-2.33-8.94,1.89-4.56,2.09-4.14,2.14-3.98Z"/>
            </g>
            <path class="cls-8" d="m6.42,33.31s-.91,1.34-2.74-.15c-1.25-1.01-1.82-2.15-1.82-2.15,0,0,.57-2.74,2.49-2.95,0,0,3.72,3.05,2.07,5.25Z"/>
            <path class="cls-4" d="m9.46,47.82l.73,2.63s.43-3.45-.33-5.55c0,0,.19,1.19-.4,2.92Z"/>
            <path class="cls-1" d="m14.42,44.35s.08-.04.08-.08c0-.04-.03-.08-.08-.08-.82-.04-1.62-.24-1.88-1.45,0-.04-.05-.07-.09-.06-.04.01-.07.05-.06.1.28,1.32,1.18,1.54,2.03,1.58h0Z"/>
            <path class="cls-1" d="m4.28,45.9h0c1.13-.1,1.74-.62,1.92-1.63,0-.04-.02-.08-.06-.09-.04,0-.08.02-.09.06-.16.93-.73,1.41-1.78,1.5-.04,0-.08.04-.07.09,0,.04.04.07.08.07Z"/>
            <path class="cls-4" d="m13.72,40.58s-2.16,4.32-10.05,2.92c0,0-.05-.3.01-1.49,0,0,6,2.19,10.04-1.43Z"/>
            <path class="cls-1" d="m6.83,29.32c.24.64.79,1.24,1.51,1.64.34.19.75.32,1.14.32.36,0,.69-.11.94-.38.2-.23.27-.59.2-.96-.04-.21-.18-.55-.32-.85-.06-.02-.13-.03-.2-.04.15.3.32.7.37.93.07.32,0,.63-.17.81-.44.49-1.28.36-1.88.03-.68-.38-1.2-.94-1.43-1.54-.05,0-.1.02-.16.04Z"/>
            <path class="cls-19" d="m11.08,24.86c.35.96.42,4.87-1.4,4.78-.82-.04-1.96-1.32-2.13-2.93-.08-.66.48-1.76,1.46-2.44.44-.31,1.68-.54,2.08.59Z"/>
            <path class="cls-4" d="m11.5,26.36c-.12.43-.58-1.36-1.19-.62-.64.78-1.49.13-2.33,1.68-.57,1.06-.97-1.44-1-1.63q-.11-.81,1.16-1.85c1.27-1.04,3.95.26,3.36,2.42Z"/>
          </g>
          <path class="cls-9" d="m63.41,35.97c.14-.18.2-.78.43-.78s.27.62.42.78c.16.16.79.2.78.42-.01.22-.64.25-.78.43-.14.17-.21.79-.42.78-.22-.01-.25-.64-.42-.78-.18-.14-.79-.21-.78-.43.01-.22.64-.25.78-.42Z"/>
          <path class="cls-2" d="m52.5,15.39c-.67,0-1.21-.54-1.21-1.19s.55-1.19,1.21-1.19,1.22.54,1.22,1.19-.55,1.19-1.22,1.19Zm0-2.06c-.49,0-.88.39-.88.87s.39.86.88.86.88-.39.88-.86-.4-.87-.88-.87Z"/>
          <path class="cls-20" d="m52,6.1c.03.38-.25.71-.63.74-.38.03-.71-.25-.74-.62-.03-.38.25-.71.62-.74.38-.03.71.25.74.62Z"/>
        </g>
      </g>
    </g>
  </g>
</svg>