<?xml version="1.0" encoding="UTF-8"?>
<svg xmlns="http://www.w3.org/2000/svg" viewBox="0 0 79.69 58.82">
  <defs>
    <style>
      .cls-1 {
        fill: #fff;
      }

      .cls-2 {
        fill: #f7422e;
      }

      .cls-3 {
        fill: #9e7cf2;
      }

      .cls-4 {
        fill: #8196fc;
      }

      .cls-5 {
        fill: #5a70e0;
      }

      .cls-6 {
        fill: #1d1b3a;
      }

      .cls-7 {
        isolation: isolate;
      }

      .cls-8 {
        fill: #ad3915;
      }

      .cls-9 {
        fill: #7585f8;
      }

      .cls-10 {
        fill: #f28f19;
      }

      .cls-11 {
        fill: #b38cff;
      }

      .cls-12 {
        fill: #fabee2;
      }

      .cls-13 {
        fill: #fbc6b4;
      }

      .cls-14 {
        mix-blend-mode: overlay;
        opacity: .3;
      }

      .cls-15 {
        fill: #ea9e8f;
      }

      .cls-16 {
        fill: #88cfee;
      }

      .cls-17 {
        fill: #ef60ae;
      }

      .cls-18 {
        fill: #f4a517;
      }

      .cls-19 {
        fill: #a4dcff;
      }

      .cls-20 {
        fill: #be4719;
      }

      .cls-21 {
        fill: #f268b4;
      }
    </style>
  </defs>
  <g class="cls-7">
    <g id="Layer_2" data-name="Layer 2">
      <g id="Layer_1-2" data-name="Layer 1">
        <g>
          <g>
            <g>
              <polygon class="cls-2" points="14.5 34.97 14.21 34.86 14.47 34.13 14.76 34.22 14.5 34.97"/>
              <polygon class="cls-2" points="14.09 36.07 13.8 35.96 14.08 35.23 14.38 35.33 14.09 36.07"/>
              <polygon class="cls-2" points="13.65 37.16 13.36 37.04 13.66 36.31 13.95 36.43 13.65 37.16"/>
              <polygon class="cls-2" points="13.21 38.24 12.93 38.13 13.22 37.4 13.5 37.51 13.21 38.24"/>
              <path class="cls-2" d="m12.82,39.34l-.29-.1s.06-.19.13-.38c.06-.19.14-.37.14-.37l.29.11s-.08.18-.14.37c-.06.19-.12.37-.12.37Z"/>
              <path class="cls-2" d="m12.48,40.45l-.3-.08s.05-.19.1-.39c.05-.19.12-.38.12-.38l.29.09s-.07.18-.12.38c-.05.19-.09.38-.09.38Z"/>
              <path class="cls-2" d="m12.24,41.58l-.31-.05s.03-.19.06-.39c.05-.19.1-.39.1-.39l.3.07s-.05.19-.09.38c-.03.19-.06.38-.06.38Z"/>
            </g>
            <g>
              <path class="cls-2" d="m12.09,42.72l-.31-.02s0-.05,0-.12c0-.08,0-.17.02-.27.03-.2.06-.39.06-.39l.31.04s-.03.19-.06.39c-.02.1-.02.19-.02.27,0,.07,0,.12,0,.12Z"/>
              <path class="cls-2" d="m12.06,43.88h-.31s0-.19,0-.39c0-.2.01-.4.01-.4h.31s0,.2-.01.4c0,.19,0,.39,0,.39Z"/>
              <polygon class="cls-2" points="12.16 45.03 11.86 45.07 11.79 44.27 12.09 44.25 12.16 45.03"/>
              <polygon class="cls-2" points="12.37 46.17 12.06 46.23 11.9 45.45 12.21 45.41 12.37 46.17"/>
              <polygon class="cls-2" points="12.61 47.32 12.3 47.37 12.14 46.61 12.44 46.54 12.61 47.32"/>
              <path class="cls-2" d="m12.7,48.53l-.31-.04s0-.05,0-.12c0-.07,0-.17,0-.26-.01-.19-.03-.38-.03-.38l.31-.03s.01.2.03.41c.01.1.01.2,0,.28,0,.08,0,.13,0,.13Z"/>
              <path class="cls-2" d="m12.46,49.71l-.29-.12s.02-.05.04-.11c.02-.07.06-.16.07-.25.04-.19.08-.37.08-.37l.31.06s-.04.2-.09.4c-.01.1-.05.2-.08.27-.03.07-.04.12-.04.12Z"/>
            </g>
            <g>
              <path class="cls-2" d="m11.85,50.75l-.25-.19s.12-.15.23-.3c.09-.17.19-.33.19-.33l.28.14s-.1.18-.2.35c-.12.16-.25.32-.25.32Z"/>
              <path class="cls-2" d="m10.94,51.56l-.18-.25s.6-.45.59-.47l.23.22s-.62.52-.64.51Z"/>
              <path class="cls-2" d="m9.85,52.09l-.11-.29s.7-.29.69-.31l.16.27s-.74.35-.75.33Z"/>
              <path class="cls-2" d="m8.68,52.38l-.05-.3s.75-.16.75-.16l.08.3s-.2.05-.39.09c-.2.05-.4.07-.4.07Z"/>
              <path class="cls-2" d="m7.49,52.46v-.31s.2.01.39,0c.19,0,.38-.02.38-.02l.03.31s-.2.01-.4.02c-.2.01-.4,0-.4,0Z"/>
              <path class="cls-2" d="m6.3,52.33l.06-.3s.19.04.38.06c.19.02.38.04.38.04l-.02.31s-.2-.02-.4-.04c-.2-.02-.4-.07-.4-.07Z"/>
              <path class="cls-2" d="m5.15,52.01l.11-.29s.18.08.36.13c.19.05.37.1.37.1l-.07.3s-.19-.05-.39-.11c-.19-.05-.38-.13-.38-.13Z"/>
            </g>
            <g>
              <path class="cls-2" d="m4.07,51.49l.16-.26s.16.11.33.19c.17.08.35.16.35.16l-.12.28s-.18-.09-.37-.17c-.18-.09-.35-.2-.35-.2Z"/>
              <path class="cls-2" d="m3.12,50.75l.21-.22s.13.14.28.26c.15.12.3.24.3.24l-.18.25s-.16-.12-.32-.24c-.16-.13-.3-.28-.3-.28Z"/>
              <path class="cls-2" d="m2.36,49.81l.26-.16s.1.16.21.32c.12.15.24.29.24.29l-.23.2s-.13-.16-.26-.31c-.12-.16-.22-.34-.22-.34Z"/>
              <path class="cls-2" d="m1.85,48.72l.3-.09s.05.18.13.36c.08.17.16.34.16.34l-.28.14s-.09-.18-.17-.37c-.08-.19-.14-.38-.14-.38Z"/>
              <path class="cls-2" d="m1.62,47.54l.31-.03s.12.76.12.76l-.3.07s-.15-.8-.13-.8Z"/>
              <path class="cls-2" d="m1.62,46.34l.31.03s0,.19-.02.38c0,.1-.01.19-.02.26,0,.07,0,.12,0,.12h-.31s.03-.8.03-.8Z"/>
              <polygon class="cls-2" points="1.8 45.16 2.1 45.22 1.98 45.99 1.67 45.95 1.8 45.16"/>
            </g>
            <g>
              <path class="cls-2" d="m1.97,44.02l.31.03s-.02.2-.04.4c-.03.2-.07.39-.07.39l-.3-.05s.03-.19.06-.38c.02-.19.04-.39.04-.39Z"/>
              <path class="cls-2" d="m2.03,42.87h.31s0,.8-.02.8l-.31-.02s.02-.77.02-.77Z"/>
              <polygon class="cls-2" points="1.96 41.72 2.27 41.68 2.33 42.48 2.02 42.49 1.96 41.72"/>
              <path class="cls-2" d="m1.73,40.6l.3-.08s.05.19.11.39c.04.2.07.4.07.4l-.3.05s-.03-.19-.07-.38c-.05-.19-.1-.37-.1-.37Z"/>
              <path class="cls-2" d="m1.33,39.53l.28-.13s.31.74.31.74l-.29.1s-.27-.72-.29-.71Z"/>
              <path class="cls-2" d="m.75,38.54l.25-.18s.45.67.43.68l-.27.15s-.41-.65-.41-.65Z"/>
              <path class="cls-2" d="m0,37.68l.22-.22s.14.14.28.29c.13.15.26.31.26.31l-.24.19s-.12-.15-.25-.29c-.14-.14-.27-.27-.27-.27Z"/>
            </g>
          </g>
          <g>
            <rect class="cls-3" x="43.23" y="26.54" width="14.78" height="5.92"/>
            <path class="cls-11" d="m43.01,28.7h15.49c1.3,0,2.36,1.06,2.36,2.36v24.15c0,1.3-1.06,2.36-2.36,2.36h-15.49c-1.3,0-2.36-1.06-2.36-2.36v-24.15c0-1.3,1.06-2.36,2.36-2.36Z"/>
            <path class="cls-14" d="m47.47,32.9h6.3c1.3,0,2.36,1.06,2.36,2.36v14.7c0,1.3-1.06,2.36-2.36,2.36h-6.3c-1.31,0-2.37-1.06-2.37-2.37v-14.7c0-1.3,1.06-2.36,2.36-2.36Z"/>
            <path class="cls-14" d="m44.98,49.02c-1.5,0-2.95-.21-4.34-.58v6.77c0,1.3,1.06,2.36,2.36,2.36h15.49c1.3,0,2.36-1.06,2.36-2.36v-16.85c-2.56,6.25-8.7,10.66-15.87,10.66Z"/>
          </g>
          <g>
            <g>
              <polygon class="cls-4" points="37.3 30.74 37.55 30.5 38.15 31.11 37.92 31.36 37.3 30.74"/>
              <polygon class="cls-4" points="36.42 29.79 36.68 29.56 37.25 30.2 37.01 30.43 36.42 29.79"/>
              <path class="cls-4" d="m35.59,28.79l.27-.21s.13.17.27.33c.14.17.28.33.28.33l-.26.22s-.14-.17-.28-.33c-.14-.16-.27-.34-.27-.34Z"/>
              <path class="cls-4" d="m34.82,27.74l.28-.19s.12.18.25.35c.12.18.26.34.26.34l-.27.21s-.14-.17-.26-.35c-.12-.18-.25-.36-.25-.36Z"/>
              <polygon class="cls-4" points="34.11 26.64 34.4 26.47 34.86 27.2 34.57 27.39 34.11 26.64"/>
              <path class="cls-4" d="m33.5,25.49l.31-.15s.39.76.39.76l-.3.16s-.42-.77-.4-.78Z"/>
              <path class="cls-4" d="m33,24.28l.32-.12s.07.2.15.4c.08.2.17.39.17.39l-.31.14s-.1-.2-.18-.4c-.07-.21-.15-.41-.15-.41Z"/>
            </g>
            <g>
              <polygon class="cls-4" points="32.62 23.03 32.95 22.95 33.17 23.77 32.85 23.88 32.62 23.03"/>
              <path class="cls-4" d="m32.42,21.73l.34-.03s.12.84.12.84l-.34.06s-.04-.22-.07-.44c-.05-.21-.05-.44-.05-.44Z"/>
              <path class="cls-4" d="m32.39,20.41l.34.02s0,.21-.02.42c-.02.21,0,.43,0,.43l-.34.02s-.03-.22-.01-.44c0-.22.02-.44.02-.44Z"/>
              <polygon class="cls-4" points="32.55 19.11 32.88 19.18 32.76 20.02 32.42 19.98 32.55 19.11"/>
              <path class="cls-4" d="m32.92,17.85l.32.12s-.09.19-.14.4c-.06.21-.11.41-.11.41l-.33-.09s.06-.21.12-.43c.04-.22.14-.42.14-.42Z"/>
              <path class="cls-4" d="m33.46,16.65l.3.16s-.1.19-.2.38c-.09.19-.16.39-.16.39l-.31-.13s.07-.21.17-.41c.11-.19.21-.39.21-.39Z"/>
              <path class="cls-4" d="m34.13,15.53l.29.18s-.49.71-.46.72l-.29-.17s.47-.74.47-.74Z"/>
            </g>
            <g>
              <polygon class="cls-4" points="34.86 14.45 35.13 14.65 34.65 15.37 34.37 15.18 34.86 14.45"/>
              <polygon class="cls-4" points="35.68 13.44 35.94 13.66 35.39 14.32 35.12 14.11 35.68 13.44"/>
              <path class="cls-4" d="m36.56,12.48l.24.24s-.16.15-.31.29c-.16.15-.28.32-.28.32l-.25-.23s.13-.17.29-.33c.16-.15.32-.3.32-.3Z"/>
              <path class="cls-4" d="m37.52,11.59l.22.26s-.04.03-.11.08c-.06.06-.14.13-.21.2-.16.15-.31.3-.31.3l-.23-.25s.63-.62.65-.6Z"/>
              <polygon class="cls-4" points="38.57 10.8 38.76 11.09 38.07 11.6 37.86 11.33 38.57 10.8"/>
              <polygon class="cls-4" points="39.68 10.12 39.85 10.42 39.11 10.86 38.93 10.57 39.68 10.12"/>
              <polygon class="cls-4" points="40.84 9.54 40.98 9.85 40.21 10.22 40.05 9.91 40.84 9.54"/>
            </g>
            <g>
              <polygon class="cls-4" points="42.04 9.04 42.17 9.35 41.37 9.67 41.23 9.35 42.04 9.04"/>
              <rect class="cls-4" x="42.48" y="8.73" width=".87" height=".34" transform="translate(-.56 14.46) rotate(-19)"/>
              <polygon class="cls-4" points="44.49 8.19 44.6 8.51 43.77 8.78 43.67 8.46 44.49 8.19"/>
              <polygon class="cls-4" points="45.71 7.78 45.83 8.1 45 8.38 44.89 8.06 45.71 7.78"/>
              <path class="cls-4" d="m46.92,7.34l.13.32s-.2.08-.41.16c-.2.08-.41.15-.41.15l-.11-.32s.21-.07.41-.15c.2-.08.4-.16.4-.16Z"/>
              <path class="cls-4" d="m48.09,6.82l.15.31s-.2.1-.39.19c-.2.1-.4.17-.4.17l-.13-.31s.2-.07.4-.17c.19-.09.38-.19.38-.19Z"/>
              <path class="cls-4" d="m49.21,6.23l.17.29s-.18.11-.37.23c-.2.1-.39.19-.39.19l-.16-.3s.19-.1.39-.19c.18-.11.36-.22.36-.22Z"/>
            </g>
            <g>
              <path class="cls-4" d="m50.28,5.52l.2.28s-.04.04-.11.09c-.07.05-.15.12-.25.17-.19.11-.37.23-.37.23l-.18-.29s.18-.11.36-.23c.09-.05.18-.12.24-.17.06-.05.1-.08.1-.08Z"/>
              <path class="cls-4" d="m51.27,4.73l.23.25s-.17.14-.34.28c-.17.14-.34.27-.34.27l-.21-.27s.17-.13.33-.27c.17-.13.33-.27.33-.27Z"/>
              <polygon class="cls-4" points="52.17 3.82 52.42 4.05 51.8 4.68 51.56 4.43 52.17 3.82"/>
              <polygon class="cls-4" points="52.98 2.84 53.25 3.05 52.71 3.74 52.45 3.51 52.98 2.84"/>
              <polygon class="cls-4" points="53.77 1.82 54.04 2.03 53.51 2.71 53.23 2.51 53.77 1.82"/>
              <path class="cls-4" d="m54.72.87l.19.28s-.04.03-.1.08c-.07.04-.14.11-.22.19-.15.14-.29.29-.29.29l-.24-.24s.16-.16.32-.32c.08-.08.16-.16.23-.2.07-.05.11-.08.11-.08Z"/>
              <path class="cls-4" d="m55.89.23l.11.33s-.05.02-.12.04c-.07.03-.17.06-.26.12-.19.1-.37.2-.37.2l-.17-.3s.2-.11.4-.21c.1-.06.2-.09.28-.12.08-.03.13-.05.13-.05Z"/>
            </g>
            <g>
              <path class="cls-4" d="m57.2,0l.02.34s-.21.01-.42.02c-.21.04-.41.08-.41.08l-.08-.34s.22-.04.44-.09c.22,0,.45-.02.45-.02Z"/>
              <path class="cls-4" d="m58.52.19l-.08.33s-.81-.18-.82-.16l.02-.34s.89.15.88.17Z"/>
              <path class="cls-4" d="m59.74.73l-.17.3s-.75-.38-.75-.37l.11-.32s.82.37.81.39Z"/>
              <path class="cls-4" d="m60.82,1.5l-.22.26s-.66-.52-.66-.52l.19-.28s.18.13.36.26c.19.13.34.28.34.28Z"/>
              <path class="cls-4" d="m61.74,2.45l-.26.22s-.13-.17-.28-.32c-.15-.15-.29-.31-.29-.31l.24-.24s.15.16.31.32c.16.16.29.34.29.34Z"/>
              <path class="cls-4" d="m62.48,3.54l-.3.17s-.1-.19-.22-.36c-.12-.18-.24-.35-.24-.35l.27-.2s.13.18.25.36c.13.18.23.38.23.38Z"/>
              <path class="cls-4" d="m63.03,4.73l-.32.11s-.06-.2-.15-.39c-.09-.19-.18-.38-.18-.38l.3-.15s.09.2.19.4c.1.2.16.42.16.42Z"/>
            </g>
            <g>
              <path class="cls-4" d="m63.36,6.01l-.33.05s-.03-.21-.08-.41c-.05-.21-.11-.41-.11-.41l.33-.1s.06.22.11.43c.05.22.08.44.08.44Z"/>
              <path class="cls-4" d="m63.42,7.34l-.34-.02s.02-.21.02-.42c0-.21-.02-.42-.02-.42l.34-.03s.01.22.02.45c0,.22-.02.44-.02.45Z"/>
              <path class="cls-4" d="m63.17,8.64l-.32-.1s.07-.2.12-.4c.04-.21.07-.41.07-.41l.34.05s-.04.22-.08.44c-.05.22-.12.43-.12.43Z"/>
              <path class="cls-4" d="m62.61,9.85l-.29-.18s.12-.17.21-.36c.09-.19.17-.38.17-.38l.32.13s-.09.2-.19.41c-.1.2-.22.38-.22.38Z"/>
              <path class="cls-4" d="m61.79,10.89l-.24-.24s.55-.64.55-.64l.27.2s-.56.7-.58.67Z"/>
              <path class="cls-4" d="m60.79,11.74l-.2-.28s.17-.13.34-.26c.08-.06.17-.13.23-.18.06-.05.09-.09.09-.09l.23.25s-.69.55-.69.55Z"/>
              <polygon class="cls-4" points="59.67 12.43 59.5 12.13 60.24 11.69 60.42 11.98 59.67 12.43"/>
            </g>
            <g>
              <path class="cls-4" d="m58.59,13.11l-.2-.28s.18-.13.36-.25c.19-.11.37-.22.37-.22l.18.29s-.18.11-.37.22c-.17.12-.35.24-.35.24Z"/>
              <path class="cls-4" d="m57.58,13.88l-.22-.26s.67-.57.68-.55l.2.28s-.67.53-.67.53Z"/>
              <polygon class="cls-4" points="56.66 14.75 56.41 14.52 57.03 13.9 57.27 14.15 56.66 14.75"/>
              <path class="cls-4" d="m55.89,15.75l-.28-.19s.12-.18.25-.37c.14-.17.28-.34.28-.34l.26.22s-.14.16-.27.33c-.12.18-.24.35-.24.35Z"/>
              <path class="cls-4" d="m55.27,16.85l-.31-.14s.41-.79.41-.79l.29.18s-.41.74-.39.75Z"/>
              <path class="cls-4" d="m54.86,18.04l-.33-.08s.24-.85.27-.85l.32.12s-.26.81-.26.81Z"/>
              <path class="cls-4" d="m54.67,19.28l-.34-.02s.02-.22.03-.44c.04-.22.08-.44.08-.44l.33.06s-.04.21-.07.42c-.02.21-.03.42-.03.42Z"/>
            </g>
          </g>
          <path class="cls-10" d="m30.96,33.39c0,.86-4.34,1.55-9.7,1.55s-9.69-.69-9.69-1.55,4.34-1.55,9.69-1.55,9.7.69,9.7,1.55Z"/>
          <path class="cls-10" d="m30.96,33.39c0-.86-4.34-1.55-9.7-1.55s-9.69.69-9.69,1.55h19.39Z"/>
          <g>
            <path class="cls-19" d="m9.33,6.84l.15-.05,6.49-2.1c.23-.07.32-.4.21-.72-.1-.33-.37-.53-.6-.46l-6.49,2.1-.4-1.26,6.48-2.1c.22-.07.32-.4.21-.72-.11-.33-.37-.53-.6-.46l-9.06,2.93c-.22.07-.32.4-.21.72.01.04.06.2.08.24l13.37,41.36c.15.45.51.73.82.63l1.84-.59-4.69-14.67c0-.24.1-.43.27-.49l.15-.05,6.49-2.1c.22-.07.32-.4.21-.72-.1-.33-.37-.53-.6-.46l-6.49,2.1-.41-1.25,6.49-2.1c.23-.07.32-.4.22-.72-.11-.33-.37-.53-.6-.46l-6.49,2.1-.41-1.26,6.49-2.1c.23-.07.32-.4.22-.72-.1-.32-.37-.53-.6-.46l-6.49,2.1-.4-1.26,6.49-2.1c.22-.07.32-.4.21-.72-.1-.33-.37-.53-.6-.46l-6.48,2.1-.41-1.25,6.49-2.1c.22-.07.32-.4.21-.72-.1-.33-.37-.54-.6-.46l-6.49,2.1-.4-1.26,6.49-2.1c.22-.07.32-.4.22-.72-.11-.32-.37-.53-.6-.46l-6.49,2.1-.41-1.26,6.49-2.1c.23-.07.32-.4.22-.72-.11-.32-.38-.53-.6-.46l-6.49,2.1-.41-1.25,6.49-2.1c.22-.07.32-.4.22-.72-.11-.32-.37-.53-.6-.46l-6.48,2.09-.41-1.25,6.49-2.1c.23-.07.32-.4.22-.72-.11-.32-.37-.53-.6-.46l-6.49,2.1-.41-1.25,6.49-2.1c.22-.07.32-.4.21-.72-.11-.33-.37-.53-.6-.46l-6.49,2.1-.15.05c-.24.08-.52-.14-.63-.49-.11-.34,0-.69.23-.77Z"/>
            <rect class="cls-19" x="8.05" y="6.14" width="1.73" height="3.44" transform="translate(-1.99 3.13) rotate(-17.97)"/>
          </g>
          <g>
            <path class="cls-21" d="m28.47,51.95s1.35-10.25-.73-19.16c-2.09-8.9-3.6-18.22-3.6-18.22l-2.55.6,6.88,36.78Z"/>
            <path class="cls-21" d="m23.48,15.8c2.81-.66,4.56-3.47,3.9-6.28-.66-2.81-3.47-4.56-6.28-3.89-2.81.66-4.55,3.47-3.89,6.28.66,2.81,3.47,4.55,6.28,3.9Zm-2.07-8.84c2.07-.48,4.15.8,4.63,2.87.49,2.07-.8,4.15-2.87,4.63-2.07.48-4.15-.8-4.63-2.87-.49-2.07.8-4.15,2.87-4.64Z"/>
            <path class="cls-21" d="m12.2,48.64s2.79-9.96,8.22-17.32c5.43-7.36,10.48-15.33,10.48-15.33l2.11,1.55-20.8,31.1Z"/>
            <path class="cls-21" d="m38.33,16.26c1.71-2.32,1.21-5.6-1.11-7.31-2.33-1.71-5.6-1.22-7.31,1.11-1.71,2.32-1.22,5.59,1.11,7.31,2.32,1.71,5.6,1.22,7.31-1.11Zm-1.11-.81c-1.26,1.71-3.67,2.08-5.39.82-1.71-1.26-2.08-3.68-.81-5.39,1.26-1.71,3.67-2.08,5.39-.82,1.72,1.26,2.08,3.68.82,5.39Z"/>
            <path class="cls-17" d="m24.4,27.38c-.11-.49.19-.98.68-1.09.49-.12.98.19,1.09.67.12.49-.19.98-.68,1.09-.49.11-.97-.19-1.09-.67Z"/>
          </g>
          <path class="cls-18" d="m21.26,34.94c-5.35,0-9.69-.69-9.69-1.55v23.94h.03c.27.82,4.49,1.47,9.67,1.47s9.4-.65,9.67-1.47h.03v-23.94c0,.86-4.34,1.55-9.7,1.55Z"/>
          <path class="cls-10" d="m30.93,57.33h.03v-18.77c-1.33,6.24-5.25,16.31-16.65,19.76,1.76.29,4.22.47,6.95.47,5.18,0,9.4-.65,9.67-1.47Z"/>
          <g>
            <path class="cls-9" d="m23.9,52.49c0-3.35,1.54-6.09,3.48-6.32v-.02h16.05v12.68h-16.05v-.02c-1.94-.22-3.48-2.96-3.48-6.32Z"/>
            <g>
              <path class="cls-5" d="m39.02,47.45h-5.62c.06-.09.12-.17.19-.25h5.6c-.05.08-.11.16-.16.25Z"/>
              <path class="cls-5" d="m33.1,47.45h-5.62c.06-.09.12-.17.19-.25h5.6c-.06.08-.11.16-.16.25Z"/>
              <path class="cls-5" d="m27.17,47.45h-1.7v-.12s.07-.08.11-.13h1.75c-.05.08-.11.16-.16.25Z"/>
              <path class="cls-5" d="m41.26,47.45h-1.94c.06-.09.12-.17.19-.25h1.75v.25Z"/>
              <path class="cls-5" d="m41.26,50.41h-3.12c.02-.09.04-.17.05-.25h3.07v.25Z"/>
              <path class="cls-5" d="m37.87,50.41h-5.66c.02-.09.04-.17.05-.25h5.66c-.02.08-.04.16-.05.25Z"/>
              <path class="cls-5" d="m31.95,50.41h-5.66c.01-.09.03-.17.05-.25h5.66c-.02.08-.04.16-.05.25Z"/>
              <path class="cls-5" d="m26.02,50.41h-1.92c.02-.08.03-.17.05-.25h1.92c-.02.08-.04.16-.05.25Z"/>
              <path class="cls-5" d="m37.82,54.36h-5.66c-.01-.08-.03-.17-.04-.25h5.66c.01.08.02.16.04.25Z"/>
              <path class="cls-5" d="m25.97,54.36h-1.91c-.01-.08-.03-.17-.04-.25h1.91c.01.08.02.16.04.25Z"/>
              <path class="cls-5" d="m41.26,54.36h-3.17c-.01-.08-.02-.17-.04-.25h3.21v.25Z"/>
              <path class="cls-5" d="m31.9,54.36h-5.66c-.01-.08-.03-.17-.04-.25h5.66c.01.08.02.16.04.25Z"/>
              <path class="cls-5" d="m32.91,57.32h-5.63c-.05-.08-.09-.16-.14-.25h5.64c.04.08.08.17.13.25Z"/>
              <path class="cls-5" d="m26.98,57.32h-1.75c-.06-.08-.11-.16-.16-.25h1.78c.04.08.09.17.13.25Z"/>
              <path class="cls-5" d="m41.26,57.32h-2.13c-.05-.08-.09-.16-.14-.25h2.27v.25Z"/>
              <path class="cls-5" d="m38.83,57.32h-5.63c-.05-.08-.09-.16-.14-.25h5.64c.04.08.09.17.13.25Z"/>
              <path class="cls-16" d="m38.83,57.32c-.04-.08-.09-.16-.13-.25-.4-.78-.71-1.7-.87-2.71-.01-.08-.03-.17-.04-.25-.07-.51-.11-1.03-.11-1.58,0-.74.07-1.46.2-2.13.02-.09.04-.17.05-.25.23-1.05.61-1.98,1.09-2.72.05-.08.11-.17.16-.25.32-.43.67-.79,1.06-1.05h.52c-.46.22-.88.58-1.25,1.05-.06.08-.13.16-.19.25-.5.72-.89,1.65-1.13,2.72-.02.08-.04.16-.05.25-.13.67-.21,1.38-.21,2.13,0,.54.04,1.07.11,1.58.01.08.02.17.04.25.17,1.03.48,1.96.9,2.71.05.08.09.17.14.25.4.67.89,1.18,1.44,1.5h-.46c-.48-.36-.91-.88-1.27-1.5Z"/>
              <path class="cls-16" d="m32.91,57.32c-.05-.08-.09-.16-.13-.25-.41-.78-.71-1.7-.88-2.71-.01-.08-.03-.17-.04-.25-.07-.51-.11-1.03-.11-1.58,0-.74.07-1.46.2-2.13.02-.09.04-.17.05-.25.23-1.05.61-1.98,1.09-2.72.05-.08.11-.17.16-.25.31-.43.67-.79,1.06-1.05h.52c-.46.22-.88.58-1.25,1.05-.06.08-.13.16-.19.25-.5.72-.89,1.65-1.13,2.72-.02.08-.03.16-.05.25-.13.67-.21,1.38-.21,2.13,0,.54.04,1.07.11,1.58.01.08.02.17.04.25.17,1.03.48,1.96.9,2.71.05.08.09.17.14.25.4.67.89,1.18,1.44,1.5h-.46c-.48-.36-.91-.88-1.27-1.5Z"/>
              <path class="cls-16" d="m26.98,57.32c-.04-.08-.09-.16-.13-.25-.41-.78-.71-1.7-.88-2.71-.01-.08-.03-.17-.04-.25-.07-.51-.11-1.03-.11-1.58,0-.74.07-1.46.2-2.13.02-.09.03-.17.05-.25.23-1.05.61-1.98,1.09-2.72.05-.08.11-.17.16-.25.32-.43.67-.79,1.06-1.05h.52c-.46.22-.88.58-1.25,1.05-.06.08-.13.16-.19.25-.5.72-.89,1.65-1.13,2.72-.02.08-.04.16-.05.25-.13.67-.21,1.38-.21,2.13,0,.54.04,1.07.12,1.58,0,.08.02.17.04.25.17,1.03.48,1.96.9,2.71.05.08.09.17.14.25.4.67.89,1.18,1.44,1.5h-.46c-.48-.36-.91-.88-1.27-1.5Z"/>
            </g>
            <path class="cls-4" d="m39.69,52.49c0,3.5,1.67,6.34,3.74,6.34s3.74-2.84,3.74-6.34-1.67-6.34-3.74-6.34-3.74,2.84-3.74,6.34Z"/>
            <path class="cls-9" d="m40.35,52.49c0,2.88,1.38,5.22,3.08,5.22s3.08-2.34,3.08-5.22-1.38-5.23-3.08-5.23-3.08,2.34-3.08,5.23Z"/>
          </g>
          <g>
            <g>
              <path class="cls-15" d="m68.09,24.08s1.43,3-1.75,3.12c-3.18.12-7.24-1.32-5.87-2.05,1.41-.75,6.26-1.25,7.61-1.07Z"/>
              <path class="cls-8" d="m55.19,18.68c.26.1.88.57,1.68,1.73,2.82,4.09,7.2,3.89,7.2,3.89l1.97,1.61s2.08.78.75,1.25c-.53.19-6.87.57-9.5-3.91-2.78-4.74-2.28-4.63-2.1-4.56Z"/>
            </g>
            <path class="cls-10" d="m71.42,23.11s1.19,1.35-.93,2.91c-1.44,1.06-2.83,1.35-2.83,1.35,0,0-2.79-1.38-2.47-3.5,0,0,4.33-3.16,6.23-.76Z"/>
            <path class="cls-20" d="m65.53,34.95s-1.93,3.52-.83,9.84c1.1,6.33,4.63,8.17,2.84,10.89-.19.3-1.04.72-.96,1.04.08.32,2.47.1,2.83-1.45,0,0,.84-3.31-.2-7.75-1.27-5.4,3.71-9.85-.32-12.77-.72-.52-1.69-1.16-3.37.19Z"/>
            <path class="cls-17" d="m71.67,36.47c-.67,2.04-2.68,7.19-2.4,9.03.29,1.84.99,6.23.6,8.01,0,0-.92.82-2.11.31,0,0-2.74-6.03-2.93-7.18-.18-1.15-.63-3.7-.48-6.48.7-13.06,9.07-9.08,7.31-3.69Z"/>
            <path class="cls-20" d="m69.93,36.07s-.8,3.93,2.14,9.64c2.93,5.71,6.85,6.42,5.95,9.55-.1.34-.78,1-.6,1.28.17.28,2.38-.64,2.27-2.23,0,0-.18-3.41-2.5-7.34-2.82-4.78.61-10.51-4.1-12.09-.84-.28-1.96-.61-3.15,1.19Z"/>
            <path class="cls-21" d="m76.03,35.76c-.03,2.15-.2,7.58.62,9.26.82,1.67,2.8,5.65,2.96,7.46,0,0-.63,1.06-1.92.93,0,0-4.41-4.94-4.93-5.98-.52-1.04-1.7-3.35-2.39-6.04-3.22-12.67,5.74-11.29,5.67-5.62Z"/>
            <rect class="cls-12" x="68.35" y="23.55" width="6.8" height="3.17" transform="translate(-.34 .99) rotate(-.79)"/>
            <path class="cls-6" d="m68.37,17.22c.59-.94,2.99-2.7,5.35.16.52.62,1.15,1.78,2.65,1.87,1.06.07,3.58,1.24,2.26,4.28-1.32,3.04,2.04,2.81.27,4.21-4.73,3.76-7,1.07-8.92-1.73-3.03-4.4-2.81-6.91-1.61-8.79Z"/>
            <path class="cls-18" d="m75.95,34.3s0,0,0,0c0,0,0,0,0,0-.03-.07-.04-.13-.06-.2h0c-.65-2.76-1.18-4.51-.22-7.22,1.38-3.89-1.62-4.48-3.45-4.88-1.82-.4-4.86-.48-5.8,2.7-.67,2.29-.03,5.38-.54,8.11-.52,2.77,11.24,4.53,10.06,1.5Z"/>
            <path class="cls-8" d="m71.48,19.69s-.02,1.78.63,2.45c.42.43-2.18,1.96-2.24,1.3-.07-.85.33-1.44-.37-2.29l1.98-1.46Z"/>
            <path class="cls-6" d="m70.23,40.66l-.73,2.63s-.43-3.45.33-5.55c0,0-.19,1.19.4,2.92Z"/>
            <path class="cls-1" d="m65.27,37.2s-.08-.04-.08-.08c0-.04.03-.08.08-.08.82-.04,1.62-.24,1.88-1.45,0-.04.05-.07.09-.06.04.01.07.05.06.09-.28,1.33-1.18,1.54-2.03,1.58h0Z"/>
            <path class="cls-1" d="m75.42,38.74h0c-1.13-.1-1.74-.62-1.92-1.63,0-.04.02-.08.06-.09.04,0,.08.02.09.06.17.93.73,1.41,1.78,1.5.04,0,.08.04.07.08,0,.04-.04.07-.08.07Z"/>
            <path class="cls-6" d="m65.98,33.42s2.16,4.32,10.05,2.92c0,0,.05-.31-.01-1.49,0,0-6,2.19-10.04-1.43Z"/>
            <path class="cls-1" d="m72.86,22.17c-.24.64-.79,1.24-1.51,1.64-.34.19-.75.32-1.14.32-.36,0-.69-.11-.94-.38-.21-.23-.28-.59-.2-.96.04-.21.18-.56.32-.85.06-.02.13-.03.2-.04-.15.3-.32.71-.37.93-.07.32,0,.63.17.82.45.49,1.28.36,1.88.02.68-.38,1.2-.94,1.43-1.54.05,0,.1.03.16.04Z"/>
            <path class="cls-20" d="m68.61,17.71c-.35.96-.42,4.87,1.4,4.78.82-.04,1.96-1.32,2.13-2.93.08-.66-.48-1.75-1.46-2.44-.44-.31-1.68-.53-2.08.59Z"/>
            <path class="cls-6" d="m68.2,19.21c.12.43.58-1.36,1.19-.62.64.78,1.49.13,2.33,1.68.57,1.06.97-1.45,1-1.64q.11-.81-1.16-1.84c-1.27-1.05-3.95.26-3.36,2.42Z"/>
            <g>
              <g>
                <path class="cls-21" d="m37.01,34.34c-.73.48-1.72.28-2.2-.45h0c-.49-.73-.28-1.72.45-2.2l23.32-15.43c.73-.49,1.72-.28,2.2.45h0c.48.73.28,1.72-.45,2.2l-23.32,15.42Z"/>
                <path class="cls-21" d="m34.55,34.95c-.29.19-.69.11-.88-.18h0c-.19-.29-.11-.68.18-.88l1.32-.88c.29-.2.69-.12.88.18h0c.19.29.11.69-.18.88l-1.33.87Z"/>
              </g>
              <rect class="cls-18" x="55.38" y="11.94" width="6.99" height="12.07" transform="translate(-.14 35.47) rotate(-33.49)"/>
              <path class="cls-18" d="m61.16,20.28c-.88.58-2.06.34-2.64-.54l-1.4-2.12c-.58-.88-.34-2.06.54-2.64l7.15-4.73c.88-.58,2.06-.34,2.64.54l1.4,2.12c.58.88.34,2.06-.54,2.64l-7.16,4.73Z"/>
              <path class="cls-10" d="m59.87,27.35c-.68.45-1.6.27-2.05-.42l-7.48-11.31c-.45-.68-.26-1.6.42-2.05h0c.68-.45,1.6-.26,2.06.42l7.48,11.31c.45.68.27,1.6-.42,2.05h0Z"/>
            </g>
            <g>
              <g>
                <path class="cls-13" d="m73.47,23.22s1.85,2.34-.91,3.08c-2.76.74-6.61.29-5.55-.63,1.09-.94,5.24-2.34,6.46-2.45Z"/>
                <path class="cls-20" d="m61.09,21.06c.25.03.88.32,1.81,1.18,3.28,3.03,7.08,1.97,7.08,1.97l2.05,1.02s1.98.26.91.94c-.43.27-5.91,1.86-9.11-1.54-3.38-3.59-2.92-3.6-2.75-3.58Z"/>
              </g>
              <path class="cls-10" d="m75.68,23.99s.85,1.37-1.26,2.43c-1.44.72-2.71.78-2.71.78,0,0-2.26-1.64-1.67-3.48,0,0,4.31-2.14,5.64.27Z"/>
            </g>
          </g>
          <path class="cls-4" d="m1.33,13.7c-.67,0-1.21-.54-1.21-1.19s.54-1.19,1.21-1.19,1.21.54,1.21,1.19-.54,1.19-1.21,1.19Zm0-2.06c-.48,0-.88.39-.88.87s.39.86.88.86.88-.39.88-.86-.4-.87-.88-.87Z"/>
          <path class="cls-18" d="m44.8,19.76c.14-.18.2-.78.43-.78s.27.62.42.78c.16.16.79.2.78.42-.01.22-.64.25-.78.43-.14.18-.21.79-.42.78-.22-.01-.25-.64-.43-.78-.18-.14-.79-.2-.78-.43.01-.22.64-.25.78-.42Z"/>
          <path class="cls-18" d="m4.89,16.77c.14-.17.21-.78.43-.78s.27.62.42.78c.16.16.79.2.78.43-.01.22-.64.25-.78.43-.14.17-.21.79-.42.78-.22-.02-.25-.64-.43-.78-.18-.14-.8-.21-.78-.43.01-.22.64-.25.78-.43Z"/>
          <path class="cls-19" d="m42.03,17.55c.03.38-.25.71-.63.74-.38.03-.71-.25-.74-.62-.04-.38.25-.71.63-.74.38-.03.71.25.74.63Z"/>
          <path class="cls-4" d="m7.56,49.08c-.67,0-1.21-.54-1.21-1.19s.54-1.2,1.21-1.2,1.21.54,1.21,1.2-.54,1.19-1.21,1.19Zm0-2.06c-.48,0-.88.39-.88.87s.4.86.88.86.88-.39.88-.86-.4-.87-.88-.87Z"/>
          <path class="cls-21" d="m3.36,22.59c.03.38-.25.71-.63.74-.38.03-.71-.25-.74-.62-.03-.38.24-.71.62-.74.38-.03.71.25.75.62Z"/>
        </g>
      </g>
    </g>
  </g>
</svg>