<?xml version="1.0" encoding="UTF-8"?>
<svg xmlns="http://www.w3.org/2000/svg" viewBox="0 0 105.26 105.26">
  <defs>
    <style>
      .cls-1 {
        fill: #515254;
      }

      .cls-2 {
        fill: #ffc9ce;
      }

      .cls-3 {
        isolation: isolate;
      }

      .cls-4 {
        fill: #ff9ca4;
      }

      .cls-5 {
        fill: #ffb0b7;
      }

      .cls-6 {
        fill: #67686b;
      }

      .cls-7 {
        mix-blend-mode: multiply;
        opacity: .15;
      }

      .cls-8 {
        fill: #f6c77b;
      }

      .cls-9 {
        fill: #fbedd1;
      }
    </style>
  </defs>
  <g class="cls-3">
    <g id="Layer_2" data-name="Layer 2">
      <g id="OBJECTS">
        <g>
          <circle class="cls-9" cx="52.63" cy="52.63" r="52.63" transform="translate(-10.9 91.41) rotate(-76.41)"/>
          <path class="cls-7" d="m50.19,51.29v26.11c-.2.2-.39.42-.57.63-.04.04-.07.09-.11.13-.16.19-.32.38-.47.58-.06.07-.11.14-.16.21-.15.19-.29.38-.43.58-.04.06-.08.11-.12.17-.18.25-.35.51-.52.77-.02.03-.04.06-.06.09-.15.23-.29.46-.43.7-.04.07-.08.14-.12.21-.12.21-.24.42-.35.62-.03.06-.07.12-.1.19-1.44,2.7-2.29,5.49-2.29,7.44s.89,3.83,2.38,5.34c.03.03.05.05.08.08.3.29.62.57.96.84.05.04.1.08.15.12.74.56,1.58,1.05,2.5,1.46.1.04.2.09.29.13.39.17.8.32,1.21.46.08.03.16.06.24.08.49.15.99.28,1.5.39.11.02.22.04.33.06.42.08.84.14,1.27.19.15.02.3.03.45.05.54.05,1.09.08,1.65.08s1.11-.03,1.65-.08c.15-.01.3-.03.45-.05.43-.05.86-.11,1.27-.19.11-.02.22-.04.33-.06.52-.11,1.02-.24,1.5-.39.08-.02.16-.05.24-.08.42-.14.82-.29,1.21-.46.1-.04.2-.08.29-.13.92-.41,1.75-.9,2.5-1.46.05-.04.1-.08.15-.12.34-.27.66-.54.96-.84.03-.03.05-.05.08-.08,1.5-1.51,2.38-3.35,2.38-5.34s-.85-4.74-2.29-7.45c-.03-.06-.07-.12-.1-.18-.11-.21-.23-.42-.36-.63-.04-.07-.08-.14-.12-.21-.14-.24-.28-.47-.43-.7-.02-.03-.03-.06-.05-.08-.17-.26-.35-.52-.53-.77-.04-.05-.08-.11-.12-.16-.14-.2-.29-.39-.44-.58-.05-.07-.11-.14-.16-.21-.16-.2-.31-.39-.48-.58-.04-.04-.07-.09-.11-.13-.19-.22-.38-.43-.57-.63v-40.2c.19-.2.39-.42.57-.63.04-.04.08-.09.11-.14.16-.19.32-.38.47-.58.05-.07.11-.14.16-.21.15-.19.29-.38.43-.58.04-.06.08-.11.12-.17.18-.25.36-.51.52-.77.02-.03.03-.05.05-.08.15-.23.29-.47.44-.7.04-.07.08-.14.12-.21.12-.21.24-.42.36-.63.03-.06.07-.12.1-.18,1.44-2.71,2.29-5.49,2.29-7.45,0-1.56-.54-3.02-1.49-4.31h0c-.27-.36-.57-.71-.89-1.04-.03-.03-.05-.05-.08-.08-.3-.29-.62-.57-.96-.84-.05-.04-.1-.08-.15-.12-.74-.56-1.58-1.05-2.5-1.46-.1-.04-.2-.09-.29-.13-.39-.17-.8-.32-1.21-.46-.08-.03-.16-.06-.24-.08-.49-.15-.99-.28-1.5-.39-.11-.02-.22-.04-.33-.06-.42-.08-.84-.14-1.27-.19-.15-.02-.3-.03-.45-.05-.54-.05-1.09-.08-1.65-.08s-1.11.03-1.65.08c-.15.01-.3.03-.45.05-.43.05-.86.11-1.27.19-.11.02-.22.04-.33.06-.52.11-1.02.24-1.5.39-.08.02-.16.05-.24.08-.42.14-.82.29-1.21.46-.1.04-.2.08-.29.13-.92.41-1.75.9-2.5,1.46-.05.04-.1.08-.15.12-.34.27-.66.54-.96.84-.03.03-.05.05-.08.08-.33.33-.63.68-.89,1.04h0c-.95,1.29-1.49,2.75-1.49,4.31,0,1.95.85,4.74,2.29,7.44.03.06.07.13.1.19.11.21.23.42.35.62.04.07.08.14.12.21.14.23.28.47.43.7.02.03.04.06.06.09.17.26.34.52.52.77.04.06.08.11.12.17.14.2.28.39.43.58.05.07.11.14.16.21.16.2.31.39.47.58.04.04.07.09.11.13.19.22.38.43.57.63v14.09Z"/>
          <g>
            <rect class="cls-6" x="45.36" y="27.52" width="14.53" height="50.51"/>
            <g>
              <path class="cls-1" d="m45.36,37.36c2.08,1.67,4.58,2.84,7.27,2.84s5.19-1.17,7.27-2.84v-9.84h-14.53v9.84Z"/>
              <path class="cls-1" d="m59.89,68.18c-2.08-1.67-4.58-2.84-7.27-2.84s-5.19,1.17-7.27,2.84v9.84h14.53v-9.84Z"/>
            </g>
            <rect class="cls-8" x="45.36" y="46.76" width="14.53" height="12.02"/>
            <rect class="cls-9" x="48.22" y="46.76" width="4.41" height="12.02"/>
            <rect class="cls-9" x="55.29" y="46.76" width="2.13" height="12.02"/>
            <path class="cls-5" d="m65.65,20.35c0,5.13-5.83,16.02-13.02,16.02s-13.02-10.9-13.02-16.02,5.83-9.28,13.02-9.28,13.02,4.16,13.02,9.28Z"/>
            <path class="cls-5" d="m39.6,85.19c0-5.13,5.83-16.02,13.02-16.02s13.02,10.9,13.02,16.02-5.83,9.28-13.02,9.28-13.02-4.16-13.02-9.28Z"/>
            <path class="cls-4" d="m52.63,30.59c-4.04,0-7.83-1.43-11.15-3.61,2.28,4.68,6.42,9.39,11.15,9.39s8.87-4.71,11.15-9.39c-3.32,2.18-7.11,3.61-11.15,3.61Z"/>
            <path class="cls-4" d="m52.63,74.96c4.04,0,7.83,1.43,11.15,3.61-2.28-4.68-6.42-9.39-11.15-9.39s-8.87,4.71-11.15,9.39c3.32-2.18,7.11-3.61,11.15-3.61Z"/>
            <path class="cls-2" d="m52.63,18.46c4.03,0,7.9-.9,11.53-2.41-2.18-2.96-6.52-4.98-11.53-4.98s-9.35,2.02-11.53,4.98c3.63,1.51,7.5,2.41,11.53,2.41Z"/>
            <path class="cls-2" d="m52.63,87.09c-4.03,0-7.9.9-11.53,2.41,2.18,2.96,6.52,4.98,11.53,4.98s9.35-2.02,11.53-4.98c-3.63-1.51-7.5-2.41-11.53-2.41Z"/>
          </g>
        </g>
      </g>
    </g>
  </g>
</svg>