<?xml version="1.0" encoding="UTF-8"?>
<svg xmlns="http://www.w3.org/2000/svg" viewBox="0 0 105.26 105.26">
  <defs>
    <style>
      .cls-1 {
        fill: #fff;
      }

      .cls-2 {
        fill: #7b7c80;
      }

      .cls-3 {
        fill: #e8cc95;
      }

      .cls-4 {
        fill: #515254;
      }

      .cls-5 {
        isolation: isolate;
      }

      .cls-6 {
        fill: #f6ceaf;
      }

      .cls-7 {
        mix-blend-mode: multiply;
        opacity: .15;
      }

      .cls-8 {
        fill: #454647;
      }

      .cls-9 {
        fill: #fbedd1;
      }

      .cls-10 {
        fill: #fbe0ab;
      }
    </style>
  </defs>
  <g class="cls-5">
    <g id="Layer_2" data-name="Layer 2">
      <g id="OBJECTS">
        <g>
          <circle class="cls-6" cx="52.63" cy="52.63" r="52.63" transform="translate(-10.48 92.09) rotate(-77.02)"/>
          <path class="cls-7" d="m91.85,65.67c-.01-.14-.03-.27-.04-.41-.04-.52-.1-1.03-.17-1.54-.02-.19-.04-.37-.07-.56-.02-.11-.03-.22-.05-.34,0-.03-.01-.05-.01-.08-.09-.59-.2-1.17-.32-1.75-.02-.11-.05-.23-.08-.34-.02-.08-.04-.17-.06-.25-.04-.16-.07-.32-.11-.48-.09-.36-.18-.72-.28-1.08-.05-.2-.11-.39-.17-.58-.07-.23-.13-.47-.21-.7,0-.01,0-.03-.01-.04-.11-.33-.22-.66-.34-.99-.04-.11-.08-.23-.12-.35-.12-.32-.24-.63-.37-.94-.04-.11-.09-.22-.13-.33-.1-.25-.2-.49-.31-.73-.06-.14-.13-.27-.19-.41-.24-.53-.5-1.05-.76-1.57-.08-.16-.17-.32-.25-.48-.22-.42-.46-.83-.7-1.24-.04-.07-.08-.14-.12-.21-.08-.13-.15-.27-.23-.4h0s0,0,0,0c-4.19-6.77-10.63-11.94-18.23-14.39v-11.08c0-.71-1.19-1.35-3.09-1.8v-5.99c0-.91-3.12-1.64-6.96-1.64s-6.96.73-6.96,1.64v5.99c-1.9.46-3.09,1.09-3.09,1.8v11.08c-8.94,2.91-16.28,9.62-20.24,18.22-.01.03-.03.06-.04.09-.6,1.3-1.12,2.65-1.55,4.03-.02.07-.04.14-.07.22-.18.6-.35,1.21-.51,1.82-.03.11-.05.21-.08.32-.16.67-.3,1.35-.43,2.04-.02.09-.03.18-.04.27-.1.58-.18,1.17-.25,1.77-.02.18-.04.36-.06.54-.07.68-.12,1.37-.15,2.06,0,0,0,0,0,0-.05,1.14-.04,2.27.02,3.39.04.74.11,1.48.19,2.21,0,.03,0,.06.01.09.05.45.11.9.18,1.35.06.39.13.77.2,1.15,0,0,0,.02,0,.03.15.78.33,1.55.53,2.32.04.14.08.29.12.43.06.22.11.44.18.66.16.52.32,1.04.5,1.55.62,1.77,1.54,3.39,2.69,4.8.77.94,1.64,1.78,2.6,2.51.48.36.98.7,1.5,1,1.04.61,2.16,1.1,3.33,1.45,2.45.72,5,1.33,7.63,1.8,4.39.79,9,1.21,13.77,1.21,7.63,0,14.87-1.08,21.41-3.01,4.62-1.37,8.38-4.89,10.04-9.52,1-2.78,1.65-5.73,1.92-8.8.09-1.02.13-2.06.13-3.1,0-.76-.03-1.52-.08-2.26,0-.14-.01-.27-.02-.41Z"/>
          <g>
            <path class="cls-9" d="m51.26,29.45c-16.87,1.19-30.39,15.49-31.11,32.86-.19,4.64.51,9.08,1.94,13.17,1.66,4.73,5.43,8.37,10.13,9.75,6.53,1.93,13.78,3.01,21.41,3.01s14.87-1.08,21.41-3.01c4.62-1.37,8.38-4.89,10.04-9.52,1.33-3.71,2.05-7.72,2.05-11.9,0-19.83-16.29-35.74-35.87-34.36Z"/>
            <path class="cls-10" d="m80.78,43.64c-5.44,16.24-20.76,27.94-38.83,27.94-8.01,0-15.48-2.31-21.79-6.28.15,3.56.81,6.98,1.93,10.18,1.66,4.73,5.43,8.37,10.13,9.75,6.53,1.93,13.78,3.01,21.41,3.01s14.87-1.08,21.41-3.01c4.62-1.37,8.38-4.89,10.04-9.52,1.33-3.71,2.05-7.72,2.05-11.9,0-7.54-2.36-14.5-6.35-20.17Z"/>
            <path class="cls-3" d="m81.91,45.34c1.91,4.93,2.78,10.43,2.34,16.13-.31,4.02-1.26,7.79-2.7,11.21-1.76,4.2-5.26,7.32-9.34,8.52-5.73,1.68-12.01,2.62-18.59,2.62s-12.85-.93-18.58-2.62c-4.15-1.22-7.66-4.45-9.43-8.74-1.56-3.78-2.52-7.98-2.69-12.46-.2-5.16.7-10.15,2.48-14.67-3.09,4.96-4.99,10.77-5.24,16.98-.19,4.64.51,9.08,1.94,13.17,1.66,4.73,5.43,8.37,10.13,9.75,6.53,1.93,13.78,3.01,21.41,3.01s14.87-1.08,21.41-3.01c4.62-1.37,8.38-4.89,10.04-9.52,1.33-3.71,2.05-7.72,2.05-11.9,0-6.8-1.92-13.13-5.22-18.47Z"/>
            <path class="cls-4" d="m63.68,19.87c0,1.38-4.5,2.5-10.05,2.5s-10.05-1.12-10.05-2.5,4.5-2.5,10.05-2.5,10.05,1.12,10.05,2.5Z"/>
            <path class="cls-2" d="m46.67,12.08v10.1c4.6,1.4,9.31,1.4,13.92,0v-10.1c-4.6,1.4-9.31,1.4-13.92,0Z"/>
            <path class="cls-8" d="m43.57,19.87v11.15c6.65,1.55,13.46,1.55,20.11,0v-11.15c-6.65,1.55-13.46,1.55-20.11,0Z"/>
            <path class="cls-1" d="m60.59,12.08c0,.91-3.12,1.64-6.96,1.64s-6.96-.73-6.96-1.64,3.12-1.64,6.96-1.64,6.96.73,6.96,1.64Z"/>
            <path class="cls-8" d="m52.27,17.12c0,.93-.61,1.68-1.36,1.68s-1.36-.75-1.36-1.68.61-1.68,1.36-1.68,1.36.75,1.36,1.68Z"/>
            <path class="cls-1" d="m36.77,46.57c-5.57,10.54-4.09,17.94-6.7,16.81-2.05-.89-1.55-11.65.67-17.07,2.08-5.08,8.26-10.77,13.21-9.9,3.46.61-3.88,3.92-7.18,10.16Z"/>
          </g>
        </g>
      </g>
    </g>
  </g>
</svg>