<?xml version="1.0" encoding="UTF-8"?>
<svg xmlns="http://www.w3.org/2000/svg" viewBox="0 0 105.26 105.26">
  <defs>
    <style>
      .cls-1 {
        fill: #fff;
      }

      .cls-2 {
        fill: #515254;
      }

      .cls-3 {
        fill: #ffc9ce;
      }

      .cls-4 {
        isolation: isolate;
      }

      .cls-5 {
        fill: #67686b;
      }

      .cls-6 {
        mix-blend-mode: multiply;
        opacity: .15;
      }

      .cls-7 {
        fill: #fbedd1;
      }

      .cls-8 {
        fill: #fbe0ab;
      }
    </style>
  </defs>
  <g class="cls-4">
    <g id="Layer_2" data-name="Layer 2">
      <g id="OBJECTS">
        <g>
          <circle class="cls-3" cx="52.63" cy="52.63" r="52.63"/>
          <path class="cls-6" d="m27.97,59.26c.01.29.02.57.05.87,0,.02,0,.03,0,.05.07.71.15,1.42.24,2.12.04.28.08.55.12.82.06.44.12.87.19,1.31.06.34.12.68.18,1.02.06.35.12.7.19,1.05.07.39.15.78.23,1.16.06.28.12.57.18.85.09.43.19.86.29,1.29.05.22.1.43.16.65.12.47.24.94.36,1.4.04.15.08.3.12.45.14.51.28,1.02.42,1.52.02.08.04.15.07.23,1.81,6.2,4.03,11.34,5.5,14.4.58,1.22,1.45,2.24,2.5,2.98h0c.28.2.57.37.88.52.07.04.15.08.23.11.31.15.62.28.95.38,0,0,0,0,0,0,4.75,1.47,9.64,2.29,14.53,2.48,1.4.05,2.8.05,4.2,0,1.4-.05,2.8-.16,4.19-.31.7-.08,1.39-.17,2.09-.28,2.78-.42,5.54-1.05,8.25-1.89,0,0,0,0,0,0,.33-.1.64-.23.95-.38.08-.04.15-.07.22-.11.3-.16.6-.33.88-.52h0c1.05-.74,1.92-1.76,2.5-2.98,1.47-3.07,3.7-8.22,5.51-14.44.02-.08.05-.17.07-.25.14-.49.28-.99.41-1.49.04-.16.09-.32.13-.48.12-.45.23-.9.35-1.36.06-.23.11-.46.16-.68.1-.41.19-.83.29-1.25.06-.29.12-.58.18-.87.08-.38.16-.75.23-1.13.07-.35.13-.71.19-1.06.06-.34.12-.67.17-1.01.07-.44.13-.88.19-1.32.04-.27.08-.53.11-.8.09-.72.18-1.44.24-2.17.05-.53.08-1.04.08-1.53,0-.02,0-.04,0-.06,0-.48,0-.94-.04-1.39h0s0,0,0,0c-.6-8.21-7.31-12.32-14.69-14.32h0s0,0,0,0l-7.39-25.19s-.02-.01-.04-.04c0,0,0,0-.01,0-.03-.02-.07-.06-.12-.1,0,0,0,0-.01,0-.36-.29-1.27-.94-2.77-1.44,0,0,0,0,0,0h0c-1.13-.38-2.6-.68-4.43-.68s-3.3.3-4.43.68h0s0,0,0,0c-1.51.5-2.41,1.15-2.77,1.44,0,0,0,0-.01.01-.05.04-.09.08-.12.1,0,0,0,0-.01,0-.02.02-.04.04-.04.04l-7.39,25.19h0c-7.81,2.12-14.87,6.6-14.73,15.8,0,.21.02.43.04.64Z"/>
          <g>
            <path class="cls-7" d="m52.63,36.51c-10.23,0-31.02,2.36-29.43,19.09,1.15,12.13,5.78,23.16,8.25,28.32.93,1.95,2.58,3.39,4.56,4,10.86,3.35,22.4,3.35,33.27,0,1.97-.61,3.62-2.05,4.56-4,2.47-5.16,7.1-16.2,8.25-28.32,1.58-16.73-19.21-19.09-29.43-19.09Z"/>
            <path class="cls-1" d="m34.57,53.49c-1.92,5.66-1.31,10.4-4.24,10.54-2.23.11-4.46-3.64-3.28-9.38,1.11-5.37,6.13-12.11,11.15-12.16,3.51-.04-1.36,4.32-3.63,11Z"/>
            <path class="cls-8" d="m78.4,44.18c-6.19-6.5-18.59-7.67-25.77-7.67-3.98,0-9.55.36-14.79,1.78,0,0,21.19,10.64,40.56,5.89Z"/>
            <path class="cls-8" d="m52.63,85.65c-5.04,0-12.02.26-18.69,1.25.63.44,1.32.79,2.06,1.01,10.86,3.35,22.4,3.35,33.27,0,.74-.23,1.43-.57,2.06-1.01-6.67-1-13.65-1.25-18.69-1.25Z"/>
            <path class="cls-5" d="m52.63,10.82c5.08,0,7.39,2.28,7.39,2.28l7.39,25.19h0c-9.77,1.85-19.8,1.85-29.57,0h0l7.39-25.19s2.32-2.28,7.39-2.28Z"/>
            <path class="cls-2" d="m60.02,13.1s-.95-.93-2.96-1.6l2.8,17.76c.43,2.73-1.45,5.32-4.19,5.69-2.03.27-4.07.27-6.1,0-2.74-.37-4.62-2.96-4.19-5.69l2.8-17.76c-2.01.67-2.96,1.6-2.96,1.6l-7.39,25.19h0c9.77,1.85,19.8,1.85,29.57,0h0l-7.39-25.19Z"/>
            <path class="cls-8" d="m23.15,52.66c-.07.93-.05,1.9.04,2.94.53,5.58,1.79,10.91,3.25,15.57,7.71,1.73,16.59,2.72,26.06,2.72s18.57-1.02,26.33-2.79c1.44-4.64,2.7-9.95,3.23-15.5.1-1.05.11-2.05.04-2.99-8.46,1.66-18.64,2.63-29.6,2.63s-20.94-.95-29.35-2.58Z"/>
          </g>
        </g>
      </g>
    </g>
  </g>
</svg>