<?xml version="1.0" encoding="UTF-8"?>
<svg xmlns="http://www.w3.org/2000/svg" viewBox="0 0 105.26 105.26">
  <defs>
    <style>
      .cls-1 {
        fill: #fff;
      }

      .cls-2 {
        fill: #d98c64;
      }

      .cls-3 {
        isolation: isolate;
      }

      .cls-4 {
        fill: #f6ceaf;
      }

      .cls-5 {
        mix-blend-mode: multiply;
        opacity: .15;
      }

      .cls-6 {
        fill: #de9c79;
      }

      .cls-7 {
        fill: #fbedd1;
      }

      .cls-8 {
        fill: #c7815c;
      }
    </style>
  </defs>
  <g class="cls-3">
    <g id="Layer_2" data-name="Layer 2">
      <g id="OBJECTS">
        <g>
          <circle class="cls-4" cx="52.63" cy="52.63" r="52.63" transform="translate(-21.8 52.63) rotate(-45)"/>
          <path class="cls-5" d="m74.12,44.33s0,0,0,0c-.49-.6-1.01-1.17-1.56-1.71-.03-.03-.07-.07-.1-.1-.23-.23-.47-.45-.71-.66-.07-.06-.14-.12-.2-.18-.21-.19-.43-.37-.65-.54-.08-.07-.17-.13-.25-.2-.21-.16-.43-.33-.64-.48-.09-.07-.18-.13-.28-.2-.22-.15-.44-.3-.67-.45-.09-.06-.18-.12-.28-.18-.24-.15-.49-.29-.73-.44-.08-.04-.16-.09-.24-.14-.1-.06-.2-.11-.3-.16v-12c-.43-.1-.86-.17-1.29-.26-.11-2.33-.42-6.04-1.24-7.53-1.15-2.1-13.4-3.14-20.11-3.09-.81,0-1.46.66-1.46,1.47,0,.59.35,1.12.89,1.35l1.32.56c1.52.64,2.6,2.01,2.88,3.64l.61,3.53c-.57.11-1.14.21-1.71.35v12c-6.81,3.63-11.48,10.8-11.48,19.02v29.38c0,2.26,1.23,4.25,3.06,5.33.04.02.07.04.11.07.27.15.55.28.83.39.05.02.1.04.16.06.29.1.59.19.9.24.05,0,.09.01.14.02.33.05.66.09,1,.09h30.67c.34,0,.67-.04,1-.09.05,0,.09-.01.14-.02.31-.06.61-.14.9-.24.05-.02.1-.04.16-.06.29-.11.57-.24.83-.39.04-.02.07-.04.11-.07.28-.16.54-.34.79-.55,0,0,0,0,0,0h0c1.38-1.14,2.27-2.86,2.27-4.78v-29.38c0-5.14-1.83-9.88-4.87-13.59h0Z"/>
          <g>
            <path class="cls-7" d="m37.29,31.86h30.67c3.42,0,6.2,2.78,6.2,6.2v29.38c0,11.88-9.65,21.53-21.53,21.53h0c-11.88,0-21.53-9.65-21.53-21.53v-29.38c0-3.42,2.78-6.2,6.2-6.2Z" transform="translate(105.26 120.83) rotate(180)"/>
            <path class="cls-5" d="m52.63,31.86h0c-3.62,0-7.04.91-10.04,2.5,5.28,3.73,12.34,6.01,20.09,6.01,2.27,0,4.49-.2,6.61-.57-3.96-4.84-9.97-7.94-16.67-7.94Z"/>
            <path class="cls-5" d="m52.63,84.38h0c-6.95,0-13.51,1.15-19.26,3.17,1.07.88,2.44,1.41,3.93,1.41h30.67c1.49,0,2.86-.53,3.93-1.41-5.75-2.02-12.31-3.17-19.26-3.17Z"/>
            <path class="cls-8" d="m61.46,24.11s-.07-7.29-1.31-9.55c-1.15-2.1-13.4-3.14-20.11-3.09-.81,0-1.46.66-1.46,1.47h0c0,.59.35,1.12.89,1.35l1.32.56c1.52.64,2.6,2.01,2.88,3.64l1.32,7.67,16.47-2.04Z"/>
            <path class="cls-6" d="m42.57,22.36v12.07c6.65,1.54,13.46,1.54,20.11,0v-12.07c-6.65-1.55-13.46-1.55-20.11,0Z"/>
            <path class="cls-2" d="m52.63,31.86c-3.62,0-7.04-1-10.05-2.75v5.32c6.65,1.54,13.46,1.54,20.11,0v-5.32c-3.01,1.75-6.43,2.75-10.05,2.75Z"/>
            <path class="cls-1" d="m41.82,50.52c-2.7,11.61-2.11,19.16-4.92,18.73-2.21-.34-1.74-11.64-.97-17.45.72-5.44,5.24-12.52,10.25-12.94,3.5-.29-2.76,4.78-4.35,11.65Z"/>
          </g>
        </g>
      </g>
    </g>
  </g>
</svg>