<?xml version="1.0" encoding="UTF-8"?>
<svg xmlns="http://www.w3.org/2000/svg" viewBox="0 0 105.26 105.26">
  <defs>
    <style>
      .cls-1 {
        fill: #fff;
      }

      .cls-2 {
        isolation: isolate;
      }

      .cls-3 {
        fill: #f6ceaf;
      }

      .cls-4 {
        fill: #67686b;
      }

      .cls-5 {
        mix-blend-mode: multiply;
        opacity: .15;
      }

      .cls-6 {
        fill: #454647;
      }

      .cls-7 {
        fill: #fbedd1;
      }

      .cls-8 {
        fill: #fbf3e2;
      }
    </style>
  </defs>
  <g class="cls-2">
    <g id="Layer_2" data-name="Layer 2">
      <g id="OBJECTS">
        <g>
          <circle class="cls-3" cx="52.63" cy="52.63" r="52.63"/>
          <path class="cls-5" d="m68.37,29.3c-.04-.09-.07-.18-.11-.27-.12-.3-.25-.61-.38-.91-.04-.1-.09-.21-.13-.31-.15-.34-.31-.68-.47-1.02-.02-.04-.04-.08-.06-.12-.18-.38-.37-.75-.56-1.12-.04-.08-.09-.16-.13-.25-.15-.28-.31-.56-.46-.84-.06-.1-.12-.2-.18-.3-.17-.28-.34-.56-.51-.84-.04-.07-.08-.13-.12-.2-.21-.33-.43-.66-.66-.97-.05-.07-.1-.13-.15-.2-.18-.24-.36-.48-.54-.71-.07-.09-.14-.18-.22-.27-.18-.22-.36-.43-.54-.64-.06-.07-.12-.14-.18-.2-.24-.26-.49-.51-.74-.75-.05-.04-.09-.08-.14-.12-.21-.19-.41-.37-.63-.54-.08-.06-.16-.13-.24-.19-.19-.15-.38-.28-.58-.41-.07-.05-.15-.1-.22-.15-.26-.17-.53-.32-.8-.45-.03-.02-.07-.03-.1-.04-.24-.11-.48-.21-.72-.29-.09-.03-.17-.05-.26-.08-.2-.06-.41-.11-.61-.15-.08-.02-.17-.04-.25-.05-.28-.04-.57-.07-.86-.07h0c-.29,0-.57.03-.86.07-.09.01-.17.03-.25.05-.21.04-.41.09-.61.15-.09.03-.17.05-.26.08-.24.08-.48.18-.72.29-.03.02-.07.03-.1.04-.27.13-.54.28-.8.45-.08.05-.15.1-.23.15-.19.13-.39.27-.58.41-.08.06-.16.12-.24.19-.21.17-.42.35-.62.54-.05.04-.09.08-.14.13-.25.24-.49.49-.74.75-.06.07-.12.14-.18.21-.18.21-.36.42-.54.64-.07.09-.14.18-.22.27-.18.23-.36.47-.54.71-.05.07-.1.13-.15.2-.22.32-.44.64-.66.97-.04.07-.08.13-.12.2-.17.27-.34.55-.51.84-.06.1-.12.2-.17.3-.16.28-.31.56-.47.84-.04.08-.09.16-.13.24-.19.37-.38.74-.56,1.12-.02.04-.04.08-.06.13-.16.34-.31.67-.47,1.02-.04.1-.09.2-.13.31-.13.3-.26.61-.38.91-.04.09-.07.18-.11.27-1.55,3.93-2.47,7.98-2.47,10.82,0,2.26.58,4.39,1.61,6.26h0s0,0,0,0c.1.19.22.37.33.56.08.13.17.27.25.4.12.18.24.36.36.53.11.14.22.28.33.42.2.26.42.51.64.75.12.14.25.27.38.4.14.14.28.27.42.41.16.15.32.29.49.43.18.15.35.29.54.43.22.17.44.33.67.48.13.09.27.18.41.26.01,0,.02.02.04.02v42.32c0,2.04,1.66,3.7,3.7,3.7h7.72c2.04,0,3.7-1.66,3.7-3.7v-42.32s.02-.02.04-.02c.14-.09.28-.17.41-.26.23-.15.45-.31.66-.48.18-.14.36-.29.54-.44.16-.14.33-.28.49-.43.14-.13.28-.27.42-.41.13-.13.25-.27.38-.4.22-.24.43-.49.64-.75.11-.14.22-.28.33-.42.13-.17.25-.35.36-.53.09-.13.17-.26.25-.4.11-.18.23-.37.33-.56,0,0,0,0,0,0h0c1.02-1.87,1.61-4,1.61-6.26,0-2.84-.91-6.89-2.46-10.82Z"/>
          <g>
            <path class="cls-4" d="m44.44,40.41h15.12v48.85c0,2.04-1.66,3.7-3.7,3.7h-7.72c-2.04,0-3.7-1.66-3.7-3.7v-48.85h0Z"/>
            <path class="cls-6" d="m44.44,50.66c2.16,1.74,4.76,2.95,7.56,2.95s5.4-1.22,7.56-2.95v-10.24h-15.12v10.24Z"/>
            <rect class="cls-1" x="44.44" y="60.85" width="15.12" height="22.46"/>
            <rect class="cls-8" x="47.41" y="60.85" width="4.59" height="22.46"/>
            <rect class="cls-8" x="54.76" y="60.85" width="2.21" height="22.46"/>
            <path class="cls-8" d="m37.98,35.59c0-7.45,6.28-23.29,14.02-23.29s14.02,15.84,14.02,23.29-6.28,13.49-14.02,13.49-14.02-6.04-14.02-13.49Z"/>
            <path class="cls-1" d="m52,20.71c4.34,0,8.43,2.08,12,5.24-2.46-6.81-6.91-13.65-12-13.65s-9.54,6.85-12,13.65c3.57-3.16,7.66-5.24,12-5.24Z"/>
            <path class="cls-7" d="m52,38.34c-4.34,0-8.5,1.31-12.41,3.51,2.34,4.3,7.02,7.23,12.41,7.23s10.07-2.94,12.41-7.23c-3.91-2.2-8.08-3.51-12.41-3.51Z"/>
          </g>
        </g>
      </g>
    </g>
  </g>
</svg>