<?xml version="1.0" encoding="UTF-8"?>
<svg xmlns="http://www.w3.org/2000/svg" viewBox="0 0 105.26 105.26">
  <defs>
    <style>
      .cls-1 {
        fill: #fff;
      }

      .cls-2 {
        fill: #fec;
      }

      .cls-3 {
        fill: #ffc9ce;
      }

      .cls-4 {
        fill: #d98c64;
      }

      .cls-5 {
        isolation: isolate;
      }

      .cls-6 {
        mix-blend-mode: multiply;
        opacity: .15;
      }

      .cls-7 {
        fill: #ebebeb;
      }

      .cls-8 {
        fill: #de9c79;
      }

      .cls-9 {
        fill: #c7815c;
      }

      .cls-10 {
        fill: #fbe0ab;
      }
    </style>
  </defs>
  <g class="cls-5">
    <g id="Layer_2" data-name="Layer 2">
      <g id="OBJECTS">
        <g>
          <circle class="cls-3" cx="52.63" cy="52.63" r="52.63" transform="translate(-10.9 91.41) rotate(-76.41)"/>
          <path class="cls-6" d="m41.73,70.07v24.4c2.62.61,5.25,1.06,7.88,1.37,5.28.61,10.58.61,15.86,0,2.64-.3,5.27-.76,7.88-1.37v-35.08l14.05-33.21s-1.41-1.23-4.76-2.63l-1.84,3.19.63-3.67c-1.28-.48-2.77-.96-4.52-1.42l-5.33,10.66,2.78-11.26c-1.17-.24-2.44-.47-3.79-.67l-1.83,3.21.77-3.36c-3.18-.42-6.86-.7-11.07-.73l-1.45,4.7-.34-4.7c-1.85.02-3.6.07-5.24.18l-.4,9.5-2.46-9.28c-2.4.23-4.57.53-6.5.9l-.31,2.39-.97-2.14c-2.24.47-4.15,1-5.76,1.54l.9,6.59-3.83-5.47c-3.08,1.33-4.39,2.47-4.39,2.47l14.05,33.21v10.68Z"/>
          <g>
            <path class="cls-8" d="m77.82,19.02l-1.84,3.19.63-3.67c-1.28-.48-2.77-.96-4.52-1.42l-5.33,10.66,2.78-11.26c-1.17-.24-2.44-.47-3.79-.67l-1.83,3.21.77-3.36c-3.18-.42-6.86-.7-11.07-.73l-1.45,4.7-.34-4.7c-1.85.02-3.6.08-5.24.18l-.4,9.5-2.46-9.28c-2.4.23-4.57.53-6.5.9l-.31,2.39-.97-2.14c-2.24.47-4.15,1-5.76,1.54l.9,6.59-3.83-5.47c-3.08,1.33-4.39,2.47-4.39,2.47l14.05,33.21,15.82,8.42,15.81-8.42,14.05-33.21s-1.41-1.23-4.76-2.63Z"/>
            <path class="cls-4" d="m52.72,41c-9.48,0-18.45-4.06-26.45-11.29l10.64,25.15,15.82,8.42,15.81-8.42,10.64-25.15c-8.01,7.24-16.98,11.29-26.45,11.29Z"/>
            <path class="cls-9" d="m52.72,48.11c-7.99,0-15.42-2.54-21.58-6.88l5.77,13.63,15.82,8.42,15.81-8.42,5.77-13.63c-6.17,4.34-13.59,6.88-21.58,6.88Z"/>
            <path class="cls-1" d="m36.91,54.86v35.08c10.46,2.43,21.17,2.43,31.63,0v-35.08c-10.46,2.43-21.17,2.43-31.63,0Z"/>
            <path class="cls-10" d="m36.91,54.86v10.68c10.46,2.43,21.17,2.43,31.63,0v-10.68c-10.46,2.43-21.17,2.43-31.63,0Z"/>
            <path class="cls-2" d="m42.06,66.53c2.94.46,5.9.73,8.85.81v-10.68c-2.96-.08-5.91-.35-8.85-.81v10.68Z"/>
            <path class="cls-2" d="m57.02,67.23c1.87-.12,3.74-.31,5.61-.57v-10.68c-1.87.27-3.74.46-5.61.57v10.68Z"/>
            <path class="cls-7" d="m52.72,87.23c-5.68,0-11.05-1.89-15.82-5.24v7.94c10.46,2.43,21.17,2.43,31.63,0v-7.94c-4.77,3.35-10.14,5.24-15.81,5.24Z"/>
          </g>
        </g>
      </g>
    </g>
  </g>
</svg>