<?xml version="1.0" encoding="UTF-8"?>
<svg xmlns="http://www.w3.org/2000/svg" viewBox="0 0 105.26 105.26">
  <defs>
    <style>
      .cls-1 {
        fill: #fff;
      }

      .cls-2 {
        fill: #515254;
      }

      .cls-3 {
        fill: #d98c64;
      }

      .cls-4 {
        isolation: isolate;
      }

      .cls-5 {
        fill: #67686b;
      }

      .cls-6 {
        mix-blend-mode: multiply;
        opacity: .15;
      }

      .cls-7 {
        fill: #de9c79;
      }

      .cls-8 {
        fill: #fbedd1;
      }

      .cls-9 {
        fill: #c7815c;
      }
    </style>
  </defs>
  <g class="cls-4">
    <g id="Layer_2" data-name="Layer 2">
      <g id="OBJECTS">
        <g>
          <circle class="cls-8" cx="52.63" cy="52.63" r="52.63" transform="translate(-21.8 52.63) rotate(-45)"/>
          <path class="cls-6" d="m80.53,31.3c.27-.57.55-1.14.84-1.72,0,0,.01-.02.01-.03.03-.06.06-.12.1-.18.37-.73.77-1.47,1.17-2.21.09-.16.18-.32.27-.49.43-.77.87-1.54,1.34-2.31,0,0-11.06-10.09-26.71-10.09-2.45,0-4.78.25-6.98.66-.88.17-1.74.36-2.57.58-.83.22-1.64.45-2.43.71-1.57.51-3.04,1.09-4.4,1.7-.68.3-1.33.62-1.95.93-5.27,2.67-8.39,5.52-8.39,5.52h0s0,0,0,0c.47.77.91,1.54,1.34,2.31.09.16.18.32.27.48.4.74.8,1.48,1.17,2.21.03.06.06.12.1.18,0,0,.01.02.02.03.29.57.57,1.15.84,1.72,7.94,16.79,7.56,32.04,5.89,37.6h0c-.04.14-.09.29-.13.41-.38,1.11-.57,2.02-.62,2.77-.23,3.24,2.03,3.51,2.03,3.51v17.54c2.62.61,5.25,1.06,7.88,1.37,5.28.61,10.58.61,15.86,0,2.64-.3,5.27-.76,7.88-1.37v-17.54s.33-.04.73-.27c.24-.14.5-.35.73-.66.08-.1.15-.22.21-.35.2-.39.34-.89.37-1.53.04-.86-.13-1.99-.63-3.46-.04-.13-.09-.27-.13-.41h0c-1.67-5.56-2.05-20.81,5.89-37.6Z"/>
          <g>
            <path class="cls-7" d="m68.54,71.07s3.42-.4,1.41-6.28c-2.02-5.88-2.53-25.13,9.49-44.94,0,0-11.06-10.09-26.71-10.09s-26.71,10.09-26.71,10.09c12.02,19.82,11.5,39.07,9.49,44.94-2.01,5.88,1.41,6.28,1.41,6.28l15.81,5.98,15.82-5.98Z"/>
            <path class="cls-3" d="m69.82,64.37c-5.33,2.53-11.09,3.92-17.09,3.92s-11.77-1.39-17.09-3.92c-.04.14-.09.29-.13.41-2.01,5.88,1.41,6.28,1.41,6.28l15.81,5.98,15.82-5.98s3.42-.4,1.41-6.28c-.04-.13-.09-.27-.13-.41Z"/>
            <path class="cls-9" d="m52.72,19.49c10.22,0,18.48,4.3,22.98,7.29,1.08-2.29,2.32-4.61,3.73-6.94,0,0-11.06-10.09-26.71-10.09s-26.71,10.09-26.71,10.09c1.41,2.33,2.64,4.65,3.73,6.94,4.5-2.99,12.76-7.29,22.98-7.29Z"/>
            <path class="cls-7" d="m52.72,16.98c10.97,0,19.67,4.95,23.91,7.92.85-1.68,1.78-3.36,2.81-5.06,0,0-11.06-10.09-26.71-10.09s-26.71,10.09-26.71,10.09c1.03,1.69,1.96,3.38,2.81,5.06,4.23-2.97,12.94-7.92,23.91-7.92Z"/>
            <path class="cls-5" d="m36.91,71.07v17.54c10.46,2.43,21.17,2.43,31.63,0v-17.54c-10.46,2.43-21.17,2.43-31.63,0Z"/>
            <path class="cls-2" d="m36.91,71.07v2.84c10.46,2.43,21.17,2.43,31.63,0v-2.84c-10.46,2.43-21.17,2.43-31.63,0Z"/>
            <path class="cls-2" d="m52.72,85.9c-5.68,0-11.05-1.89-15.82-5.24v7.94c10.46,2.43,21.17,2.43,31.63,0v-7.94c-4.77,3.35-10.14,5.24-15.81,5.24Z"/>
            <path class="cls-1" d="m40.62,48.79c-1.64-15.11-8.12-22.38-4.76-22.74,2.64-.28,9.44,11.8,9.92,19.31.63,9.79-2.21,18.06-5.38,18.11-1.81.03,1.19-5.74.22-14.68Z"/>
          </g>
        </g>
      </g>
    </g>
  </g>
</svg>