<?xml version="1.0" encoding="UTF-8"?>
<svg xmlns="http://www.w3.org/2000/svg" viewBox="0 0 105.26 105.26">
  <defs>
    <style>
      .cls-1 {
        fill: #ffc9ce;
      }

      .cls-2 {
        fill: #d98c64;
      }

      .cls-3 {
        isolation: isolate;
      }

      .cls-4 {
        mix-blend-mode: multiply;
        opacity: .15;
      }

      .cls-5 {
        fill: #de9c79;
      }
    </style>
  </defs>
  <g class="cls-3">
    <g id="Layer_2" data-name="Layer 2">
      <g id="OBJECTS">
        <g>
          <circle class="cls-1" cx="52.63" cy="52.63" r="52.63" transform="translate(-21.8 52.63) rotate(-45)"/>
          <path class="cls-4" d="m95.55,44.62s0,0,0-.01c-.17-.77-.4-1.52-.68-2.25-.05-.13-.09-.26-.14-.38-.11-.28-.24-.55-.37-.82-.08-.17-.16-.33-.24-.5-.13-.25-.27-.49-.41-.74-.1-.17-.2-.34-.31-.51-.15-.23-.3-.45-.46-.68-.12-.17-.25-.34-.38-.5-.16-.21-.32-.42-.5-.62-.14-.17-.3-.33-.45-.49-.17-.18-.34-.37-.52-.55-.18-.18-.37-.34-.56-.51-.17-.15-.33-.3-.5-.44-.35-.29-.72-.57-1.1-.83-.16-.11-.32-.2-.48-.3-.25-.16-.5-.32-.75-.46-.18-.1-.36-.19-.54-.28-.25-.13-.51-.26-.77-.37-.19-.08-.38-.16-.57-.24-.27-.11-.54-.21-.81-.3-.19-.07-.39-.13-.58-.19-.29-.08-.58-.16-.87-.23-.19-.04-.38-.09-.57-.13-.33-.06-.66-.11-.99-.15-.17-.02-.33-.05-.5-.07-.5-.05-1.01-.08-1.53-.08h-44.38c-.52,0-1.03.03-1.53.08-.17.02-.33.05-.5.07-.33.04-.67.09-.99.15-.19.04-.38.08-.57.13-.29.07-.59.14-.87.23-.2.06-.39.12-.58.19-.27.09-.54.19-.81.3-.19.08-.38.15-.57.24-.26.12-.51.24-.77.37-.18.09-.37.18-.54.28-.26.14-.51.3-.75.46-.16.1-.33.2-.48.3-.38.26-.75.53-1.1.83-.17.14-.33.3-.5.44-.19.17-.38.33-.56.51-.18.18-.35.36-.52.55-.15.16-.3.32-.45.49-.17.2-.34.41-.5.62-.13.17-.25.33-.38.5-.16.22-.31.45-.46.68-.11.17-.21.34-.31.51-.14.24-.28.49-.42.74-.08.16-.16.33-.24.5-.13.27-.26.54-.37.82-.05.12-.09.25-.14.38-.67,1.76-1.05,3.65-1.05,5.63v27.42c0,1,.81,1.81,1.81,1.81h0c1,0,1.81-.81,1.81-1.81v-12.52c0-1.05.71-2.02,1.74-2.19,1.31-.22,2.45.8,2.45,2.07v12.65c0,1,.81,1.81,1.81,1.81h.3c1,0,1.81-.81,1.81-1.81v-12.52c0-1.05.71-2.02,1.74-2.19,1.31-.22,2.45.8,2.45,2.07v12.65c0,1,.81,1.81,1.81,1.81h.3c1,0,1.81-.81,1.81-1.81v-12.52c0-1.05.71-2.02,1.74-2.19,1.31-.22,2.45.8,2.45,2.07v12.65c0,1,.81,1.81,1.81,1.81h.3c1,0,1.81-.81,1.81-1.81v-12.52c0-1.05.71-2.02,1.74-2.19,1.31-.22,2.45.8,2.45,2.07v12.65c0,1,.81,1.81,1.81,1.81h.3c1,0,1.81-.81,1.81-1.81v-12.52c0-1.05.71-2.02,1.74-2.19,1.31-.22,2.45.8,2.45,2.07v12.65c0,1,.81,1.81,1.81,1.81h.3c1,0,1.81-.81,1.81-1.81v-12.52c0-1.05.71-2.02,1.74-2.19,1.31-.22,2.45.8,2.45,2.07v12.65c0,1,.81,1.81,1.81,1.81h.3c1,0,1.81-.81,1.81-1.81v-12.52c0-1.05.71-2.02,1.74-2.19,1.31-.22,2.45.8,2.45,2.07v12.65c0,1,.81,1.81,1.81,1.81h.3c1,0,1.81-.81,1.81-1.81v-12.52c0-1.05.71-2.02,1.74-2.19,1.31-.22,2.45.8,2.45,2.07v12.65c0,1,.81,1.81,1.81,1.81h.3c1,0,1.81-.81,1.81-1.81v-12.52c0-1.05.71-2.02,1.74-2.19,1.31-.22,2.45.8,2.45,2.07v12.65c0,1,.81,1.81,1.81,1.81s1.81-.81,1.81-1.81v-27.42c0-1.15-.13-2.28-.37-3.36h0Z"/>
          <g>
            <path class="cls-5" d="m75.12,27.48H30.74c-8.79,0-15.98,7.19-15.98,15.98v27.42c0,1,.81,1.81,1.81,1.81h0c1,0,1.81-.81,1.81-1.81v-12.52c0-1.05.71-2.02,1.74-2.19,1.31-.22,2.45.8,2.45,2.07v12.65c0,1,.81,1.81,1.81,1.81h.3c1,0,1.81-.81,1.81-1.81v-12.52c0-1.05.71-2.02,1.74-2.19,1.31-.22,2.45.8,2.45,2.07v12.65c0,1,.81,1.81,1.81,1.81h.3c1,0,1.81-.81,1.81-1.81v-12.52c0-1.05.71-2.02,1.74-2.19,1.31-.22,2.45.8,2.45,2.07v12.65c0,1,.81,1.81,1.81,1.81h.3c1,0,1.81-.81,1.81-1.81v-12.52c0-1.05.71-2.02,1.74-2.19,1.31-.22,2.45.8,2.45,2.07v12.65c0,1,.81,1.81,1.81,1.81h.3c1,0,1.81-.81,1.81-1.81v-12.52c0-1.05.71-2.02,1.74-2.19,1.31-.22,2.45.8,2.45,2.07v12.65c0,1,.81,1.81,1.81,1.81h.3c1,0,1.81-.81,1.81-1.81v-12.52c0-1.05.71-2.02,1.74-2.19,1.31-.22,2.45.8,2.45,2.07v12.65c0,1,.81,1.81,1.81,1.81h.3c1,0,1.81-.81,1.81-1.81v-12.52c0-1.05.71-2.02,1.74-2.19,1.31-.22,2.45.8,2.45,2.07v12.65c0,1,.81,1.81,1.81,1.81h.3c1,0,1.81-.81,1.81-1.81v-12.52c0-1.05.71-2.02,1.74-2.19,1.31-.22,2.45.8,2.45,2.07v12.65c0,1,.81,1.81,1.81,1.81h.3c1,0,1.81-.81,1.81-1.81v-12.52c0-1.05.71-2.02,1.74-2.19,1.31-.22,2.45.8,2.45,2.07v12.65c0,1,.81,1.81,1.81,1.81h0c1,0,1.81-.81,1.81-1.81v-27.42c0-8.79-7.19-15.98-15.98-15.98Z"/>
            <path class="cls-2" d="m52.93,46.37c14.54,0,27.79-2.38,37.8-6.28-1.56-7.19-7.98-12.61-15.61-12.61H30.74c-7.63,0-14.06,5.43-15.61,12.61,10.01,3.9,23.26,6.28,37.8,6.28Z"/>
          </g>
        </g>
      </g>
    </g>
  </g>
</svg>