<?xml version="1.0" encoding="UTF-8"?>
<svg xmlns="http://www.w3.org/2000/svg" viewBox="0 0 105.26 105.26">
  <defs>
    <style>
      .cls-1 {
        fill: #fff;
      }

      .cls-2 {
        isolation: isolate;
      }

      .cls-3 {
        fill: #ff9ca4;
      }

      .cls-4 {
        fill: #f6ceaf;
      }

      .cls-5 {
        mix-blend-mode: multiply;
        opacity: .15;
      }

      .cls-6 {
        fill: #454647;
      }

      .cls-7 {
        fill: #fbedd1;
      }

      .cls-8 {
        fill: #fa848e;
      }

      .cls-9 {
        fill: #fbe0ab;
      }
    </style>
  </defs>
  <g class="cls-2">
    <g id="Layer_2" data-name="Layer 2">
      <g id="OBJECTS">
        <g>
          <circle class="cls-4" cx="52.63" cy="52.63" r="52.63" transform="translate(-21.8 52.63) rotate(-45)"/>
          <path class="cls-5" d="m66.21,13.75c0-1.04-1.15-1.68-2.03-1.12l-15.11,9.47c-.39.24-.62.67-.62,1.12v12.9c-1.8.62-3.11,2.32-3.11,4.34v5.65h-.06c-2.71,0-4.92,2.21-4.92,4.92v39.02c0,2.71,2.21,4.92,4.92,4.92h24.34c2.71,0,4.92-2.21,4.92-4.92v-39.02c0-2.71-2.21-4.92-4.92-4.92h-.06v-5.65c0-2.1-1.42-3.86-3.35-4.41V13.75Z"/>
          <g>
            <path class="cls-3" d="m61.39,35.11h-17.76v-16.42c0-.46.23-.88.62-1.12l15.11-9.47c.88-.55,2.03.08,2.03,1.12v25.89Z"/>
            <path class="cls-8" d="m52.51,27.08c-3.2,0-6.21-1.01-8.88-2.78v10.81h17.76v-10.81c-2.66,1.77-5.68,2.78-8.88,2.78Z"/>
            <path class="cls-6" d="m45.13,31.32h15c2.54,0,4.61,2.06,4.61,4.61v10.64h-24.21v-10.64c0-2.54,2.06-4.61,4.61-4.61Z"/>
            <rect class="cls-1" x="35.54" y="41.57" width="34.18" height="48.86" rx="4.92" ry="4.92" transform="translate(105.26 131.99) rotate(180)"/>
            <rect class="cls-9" x="40.52" y="46.24" width="24.21" height="40.08" rx="5.81" ry="5.81" transform="translate(105.26 132.57) rotate(180)"/>
            <g>
              <path class="cls-7" d="m42.4,84.8c7.47-4.27,14.9-8.57,22.34-12.86v-5.67c-8.07,4.63-16.14,9.25-24.21,13.88v1.78c0,1.09.71,2.1,1.88,2.87Z"/>
              <path class="cls-7" d="m58.72,46.24h-.36c-6.07,3.76-13.33,8.41-17.84,10.99v10.61l24.21-13.88v-2.12c0-3.08-2.71-5.61-6.01-5.61Z"/>
            </g>
          </g>
        </g>
      </g>
    </g>
  </g>
</svg>