<?xml version="1.0" encoding="UTF-8"?>
<svg xmlns="http://www.w3.org/2000/svg" viewBox="0 0 105.26 105.26">
  <defs>
    <style>
      .cls-1 {
        fill: #515254;
      }

      .cls-2 {
        fill: #ffc9ce;
      }

      .cls-3 {
        fill: #d98c64;
      }

      .cls-4 {
        isolation: isolate;
      }

      .cls-5 {
        fill: #b7b9bf;
      }

      .cls-6 {
        fill: #ff9ca4;
      }

      .cls-7 {
        fill: #f6ceaf;
      }

      .cls-8 {
        fill: #67686b;
      }

      .cls-9 {
        mix-blend-mode: multiply;
        opacity: .15;
      }

      .cls-10 {
        fill: #de9c79;
      }

      .cls-11 {
        fill: #fbedd1;
      }

      .cls-12 {
        fill: #e3ad84;
      }

      .cls-13 {
        fill: #909296;
      }

      .cls-14 {
        fill: #fbe0ab;
      }
    </style>
  </defs>
  <g class="cls-4">
    <g id="Layer_2" data-name="Layer 2">
      <g id="OBJECTS">
        <g>
          <circle class="cls-11" cx="52.63" cy="52.63" r="52.63" transform="translate(-10.48 92.09) rotate(-77.02)"/>
          <path class="cls-9" d="m80.36,24.08h-9.92c-.46-1.63-1.95-2.84-3.72-2.84h-18.77c-1.77,0-3.26,1.21-3.72,2.84h-9.92c-5.09,0-9.26,4.17-9.26,9.26v46.04c0,5.09,4.17,9.26,9.26,9.26h46.04c5.09,0,9.26-4.17,9.26-9.26v-46.04c0-5.09-4.17-9.26-9.26-9.26Z"/>
          <g>
            <rect class="cls-13" x="20.24" y="19.55" width="64.55" height="64.55" rx="9.26" ry="9.26"/>
            <rect class="cls-5" x="23.81" y="23.11" width="57.42" height="57.42" rx="8.23" ry="8.23"/>
            <g>
              <path class="cls-13" d="m46,28.08h-11.71c-3.84,0-6.96,3.12-6.96,6.96v11.71c0,3.07,2.5,5.57,5.57,5.57h13.11c3.07,0,5.57-2.5,5.57-5.57v-13.11c0-3.07-2.5-5.57-5.57-5.57Z"/>
              <path class="cls-13" d="m70.75,28.08h-11.71c-3.07,0-5.57,2.5-5.57,5.57v13.11c0,3.07,2.5,5.57,5.57,5.57h13.11c3.07,0,5.57-2.5,5.57-5.57v-11.71c0-3.84-3.12-6.96-6.96-6.96Z"/>
              <path class="cls-13" d="m72.14,53.99h-13.11c-3.07,0-5.57,2.5-5.57,5.57v13.11c0,3.07,2.5,5.57,5.57,5.57h11.71c3.84,0,6.96-3.12,6.96-6.96v-11.71c0-3.07-2.5-5.57-5.57-5.57Z"/>
              <path class="cls-13" d="m46,53.99h-13.11c-3.07,0-5.57,2.5-5.57,5.57v11.71c0,3.84,3.12,6.96,6.96,6.96h11.71c3.07,0,5.57-2.5,5.57-5.57v-13.11c0-3.07-2.5-5.57-5.57-5.57Z"/>
            </g>
            <g>
              <path class="cls-3" d="m46,29.58h-11.71c-3,0-5.46,2.46-5.46,5.46v11.71c0,2.24,1.83,4.07,4.07,4.07h13.11c2.24,0,4.07-1.83,4.07-4.07v-13.11c0-2.24-1.83-4.07-4.07-4.07Z"/>
              <path class="cls-14" d="m70.75,29.58h-11.71c-2.24,0-4.07,1.83-4.07,4.07v13.11c0,2.24,1.83,4.07,4.07,4.07h13.11c2.24,0,4.07-1.83,4.07-4.07v-11.71c0-3-2.46-5.46-5.46-5.46Z"/>
              <path class="cls-12" d="m72.14,55.49h-13.11c-2.24,0-4.07,1.83-4.07,4.07v13.11c0,2.24,1.83,4.07,4.07,4.07h11.71c3,0,5.46-2.46,5.46-5.46v-11.71c0-2.24-1.83-4.07-4.07-4.07Z"/>
              <path class="cls-6" d="m46,55.49h-13.11c-2.24,0-4.07,1.83-4.07,4.07v11.71c0,3,2.46,5.46,5.46,5.46h11.71c2.24,0,4.07-1.83,4.07-4.07v-13.11c0-2.24-1.83-4.07-4.07-4.07Z"/>
            </g>
            <g>
              <path class="cls-10" d="m46,47.7c.51,0,.94-.43.94-.94v-13.11c0-.51-.43-.94-.94-.94h-11.71c-1.29,0-2.34,1.05-2.34,2.34v11.71c0,.51.43.94.94.94h13.11Z"/>
              <path class="cls-11" d="m72.14,47.7c.51,0,.94-.43.94-.94v-11.71c0-1.29-1.05-2.34-2.34-2.34h-11.71c-.51,0-.94.43-.94.94v13.11c0,.51.43.94.94.94h13.11Z"/>
              <path class="cls-7" d="m70.75,73.61c1.29,0,2.34-1.05,2.34-2.34v-11.71c0-.51-.43-.94-.94-.94h-13.11c-.51,0-.94.43-.94.94v13.11c0,.51.43.94.94.94h11.71Z"/>
              <path class="cls-2" d="m34.29,73.61h11.71c.51,0,.94-.43.94-.94v-13.11c0-.51-.43-.94-.94-.94h-13.11c-.51,0-.94.43-.94.94v11.71c0,1.29,1.05,2.34,2.34,2.34Z"/>
            </g>
            <g>
              <path class="cls-1" d="m61.9,24.46h-18.77c-2.13,0-3.88-1.74-3.88-3.88h0c0-2.13,1.74-3.88,3.88-3.88h18.77c2.13,0,3.88,1.74,3.88,3.88h0c0,2.13-1.74,3.88-3.88,3.88Z"/>
              <rect class="cls-8" x="45.79" y="16.7" width="3.52" height="7.75"/>
              <rect class="cls-8" x="55.73" y="16.7" width="3.52" height="7.75"/>
            </g>
          </g>
        </g>
      </g>
    </g>
  </g>
</svg>