<?xml version="1.0" encoding="UTF-8"?>
<svg xmlns="http://www.w3.org/2000/svg" viewBox="0 0 105.26 105.26">
  <defs>
    <style>
      .cls-1 {
        fill: #ffadb6;
      }

      .cls-2 {
        isolation: isolate;
      }

      .cls-3 {
        fill: #b7b9bf;
      }

      .cls-4 {
        fill: #f6ceaf;
      }

      .cls-5 {
        mix-blend-mode: multiply;
        opacity: .15;
      }

      .cls-6 {
        fill: #dbb08e;
      }

      .cls-7 {
        fill: #d0d2d9;
      }

      .cls-8 {
        fill: #fbedd1;
      }

      .cls-9 {
        fill: #909296;
      }

      .cls-10 {
        fill: #ff6384;
      }
    </style>
  </defs>
  <g class="cls-2">
    <g id="Layer_2" data-name="Layer 2">
      <g id="OBJECTS">
        <g>
          <circle class="cls-8" cx="52.63" cy="52.63" r="52.63" transform="translate(-21.8 52.63) rotate(-45)"/>
          <circle class="cls-5" cx="57.45" cy="57.16" r="41.07"/>
          <g>
            <circle class="cls-9" cx="52.63" cy="52.63" r="41.07" transform="translate(-7.66 8.99) rotate(-9.1)"/>
            <circle class="cls-3" cx="52.63" cy="52.63" r="37.87"/>
            <g>
              <path class="cls-7" d="m77.08,23.72L15.43,45.57c-.43,2.29-.67,4.65-.67,7.06,0,3.67.53,7.22,1.51,10.58l71.28-25.25c-2.33-5.54-5.94-10.4-10.46-14.23Z"/>
              <path class="cls-7" d="m87.48,67.47c.96-2.24,1.7-4.6,2.21-7.04l-60.94,21.59c1.9,1.55,3.96,2.91,6.15,4.07l52.58-18.63Z"/>
              <path class="cls-7" d="m90.48,52.04c-.05-3.11-.46-6.13-1.22-9.01l-71.14,25.2c1.26,2.79,2.85,5.39,4.72,7.77l67.64-23.96Z"/>
            </g>
            <circle class="cls-9" cx="52.63" cy="52.63" r="28.16"/>
            <g>
              <circle class="cls-10" cx="52.63" cy="52.63" r="25.94" transform="translate(-21.8 52.63) rotate(-45)"/>
              <path class="cls-6" d="m52.63,78.57c-14.33,0-25.94-11.62-25.94-25.94s11.62-25.94,25.94-25.94v51.89Z"/>
              <circle class="cls-1" cx="52.63" cy="52.63" r="22.93" transform="translate(-21.8 52.63) rotate(-45)"/>
              <path class="cls-10" d="m52.63,75.56c1.39,0,2.74-.13,4.06-.37V30.06c-1.32-.24-2.67-.37-4.06-.37v45.86Z"/>
              <path class="cls-4" d="m52.63,75.56c-12.66,0-22.93-10.27-22.93-22.93s10.27-22.93,22.93-22.93v45.86Z"/>
              <path class="cls-6" d="m48.57,75.19c1.32.24,2.67.37,4.06.37V29.7c-1.39,0-2.74.13-4.06.37v45.13Z"/>
            </g>
          </g>
        </g>
      </g>
    </g>
  </g>
</svg>