<?xml version="1.0" encoding="UTF-8"?>
<svg xmlns="http://www.w3.org/2000/svg" viewBox="0 0 105.26 105.26">
  <defs>
    <style>
      .cls-1 {
        fill: #fff;
      }

      .cls-2 {
        fill: #7b7c80;
      }

      .cls-3 {
        fill: #bfbfbf;
      }

      .cls-4 {
        fill: #515254;
      }

      .cls-5 {
        fill: #ffc9ce;
      }

      .cls-6 {
        isolation: isolate;
      }

      .cls-7 {
        fill: #67686b;
      }

      .cls-8 {
        mix-blend-mode: multiply;
        opacity: .15;
      }

      .cls-9 {
        fill: #454647;
      }

      .cls-10 {
        fill: #ebebeb;
      }

      .cls-11 {
        fill: #fbedd1;
      }
    </style>
  </defs>
  <g class="cls-6">
    <g id="Layer_2" data-name="Layer 2">
      <g id="OBJECTS">
        <g>
          <circle class="cls-5" cx="52.63" cy="52.63" r="52.63"/>
          <path class="cls-8" d="m68.54,19.85c0-3.38-2.76-6.14-6.14-6.14h-9.9c-3.38,0-6.14,2.76-6.14,6.14v36.46c-2.79-.02-5.27,1.92-5.89,4.72l-5.37,24.39c-.41,1.85.09,3.7,1.21,5.07h0c.37.46.81.87,1.31,1.21.01,0,.03.02.04.03.23.16.48.29.74.42.04.02.09.04.14.06.26.12.53.22.81.3h0c2.22.63,4.46,1.15,6.72,1.54,1.42.25,2.85.45,4.29.6,1.61.17,3.23.29,4.85.35,4.56.16,9.12-.16,13.63-.95,2.26-.4,4.5-.91,6.72-1.54.28-.08.55-.19.81-.3.05-.02.09-.04.14-.06.26-.12.51-.26.74-.42.01,0,.03-.02.04-.03,2-1.35,3.07-3.81,2.52-6.28l-4.88-22.17h0l-.49-2.22c-.34-1.54-1.25-2.83-2.46-3.67-.3-.21-.63-.39-.96-.54-.34-.15-.69-.27-1.05-.36-.46-.11-.93-.16-1.41-.15V19.85Z"/>
          <g>
            <path class="cls-4" d="m47.68,9.18h9.9c3.39,0,6.14,2.75,6.14,6.14v36.59c0,3.39-2.75,6.14-6.14,6.14h-9.9c-3.39,0-6.14-2.75-6.14-6.14V15.32c0-3.39,2.75-6.14,6.14-6.14Z"/>
            <rect class="cls-7" x="44.77" y="12.86" width="15.71" height="45.37" rx="4.98" ry="4.98"/>
            <g>
              <path class="cls-2" d="m59.26,14.59c-4.85,4.83-9.67,9.7-14.49,14.55v6.42l15.71-15.71v-2.02c0-1.24-.46-2.37-1.22-3.25Z"/>
              <path class="cls-2" d="m44.77,53.25c0,2.22,1.48,4.12,3.49,4.75,4.07-4.07,8.14-8.14,12.22-12.22v-12.01l-15.71,15.71v3.77Z"/>
            </g>
            <path class="cls-9" d="m52.63,47.84c-3.82,0-7.54-.5-11.09-1.42v5.49c0,3.38,2.76,6.14,6.14,6.14h9.9c3.38,0,6.14-2.76,6.14-6.14v-5.49c-3.55.92-7.26,1.42-11.09,1.42Z"/>
            <path class="cls-1" d="m35.65,56.5l-5.37,24.39c-.69,3.12,1.18,6.21,4.25,7.09,11.82,3.38,24.38,3.38,36.19,0,3.07-.88,4.94-3.98,4.25-7.09l-5.37-24.39c-.68-3.09-3.64-5.15-6.76-4.65-6.74,1.06-13.7,1.06-20.44,0-3.12-.49-6.08,1.57-6.76,4.65Z"/>
            <path class="cls-10" d="m73.77,85.97c-13.99-1.27-28.29-1.27-42.28,0,.76.94,1.8,1.66,3.04,2.02,11.82,3.38,24.38,3.38,36.19,0,1.24-.36,2.28-1.08,3.04-2.02Z"/>
            <path class="cls-3" d="m40,59.75l-4,15.74c-.51,2.01.88,4.01,3.16,4.57,8.79,2.18,18.14,2.18,26.93,0,2.28-.57,3.67-2.56,3.16-4.57l-4-15.74c-.51-1.99-2.7-3.32-5.03-3-5.02.68-10.19.68-15.21,0-2.32-.32-4.52,1.01-5.03,3Z"/>
            <path class="cls-8" d="m70.1,58.72l-.49-2.22c-.68-3.09-3.64-5.15-6.76-4.65-6.74,1.06-13.7,1.06-20.44,0,0,0,11.22,7.58,27.69,6.88Z"/>
            <path class="cls-11" d="m38.83,64.34l-2.83,11.14c-.51,2.01.88,4.01,3.16,4.57,8.79,2.18,18.14,2.18,26.93,0,2.28-.57,3.67-2.56,3.16-4.57l-3.01-11.86c-3.57-.37-7.24-.57-11.01-.57-5.7,0-11.2.45-16.41,1.28Z"/>
            <path class="cls-1" d="m45.86,65.25c-2.56,3.07-2.5,5.28-4.22,5.87-1.06.36-1.92-4.57-.13-8.09,1.79-3.52,8.07-4.74,10.88-3.16,3.03,1.7-3.35,1.56-6.53,5.38Z"/>
          </g>
        </g>
      </g>
    </g>
  </g>
</svg>