<?xml version="1.0" encoding="UTF-8"?>
<svg xmlns="http://www.w3.org/2000/svg" viewBox="0 0 105.26 105.26">
  <defs>
    <style>
      .cls-1 {
        fill: #fff;
      }

      .cls-2 {
        fill: #515254;
      }

      .cls-3 {
        fill: #ffc9ce;
      }

      .cls-4 {
        isolation: isolate;
      }

      .cls-5 {
        fill: #67686b;
      }

      .cls-6 {
        mix-blend-mode: multiply;
        opacity: .15;
      }

      .cls-7 {
        fill: #454647;
      }

      .cls-8 {
        fill: #fbedd1;
      }

      .cls-9 {
        fill: #fbe0ab;
      }
    </style>
  </defs>
  <g class="cls-4">
    <g id="Layer_2" data-name="Layer 2">
      <g id="OBJECTS">
        <g>
          <circle class="cls-3" cx="52.63" cy="52.63" r="52.63" transform="translate(-21.8 52.63) rotate(-45)"/>
          <path class="cls-6" d="m44.66,15.44l-6.39,18.39v53.34h0v2.43c0,3.51,2.87,6.39,6.39,6.39s6.39-2.87,6.39-6.39v-55.77l-3.53-10.17h0l-2.86-8.22Z"/>
          <path class="cls-6" d="m70.93,94.97l6.39-18.39V20.81c0-3.51-2.87-6.39-6.39-6.39s-6.39,2.87-6.39,6.39v55.77l3.53,10.17h0l2.86,8.22Z"/>
          <g>
            <path class="cls-8" d="m46.22,29.31v55.77c0,3.51-2.87,6.39-6.39,6.39h0c-3.51,0-6.39-2.87-6.39-6.39V29.31l6.39-18.39,6.39,18.39Z"/>
            <rect class="cls-2" x="33.45" y="29.31" width="12.77" height="53.34"/>
            <rect class="cls-5" x="36.31" y="29.31" width="7.04" height="53.34"/>
            <rect class="cls-9" x="33.45" y="65.33" width="12.77" height="17.32"/>
            <polygon class="cls-7" points="39.83 10.91 36.98 19.14 42.69 19.14 39.83 10.91"/>
            <g>
              <polygon class="cls-1" points="33.45 82.65 33.57 82.65 46.22 70 46.22 65.33 45.32 65.33 33.45 77.2 33.45 82.65"/>
              <polygon class="cls-1" points="46.22 73.99 37.56 82.65 40.08 82.65 46.22 76.5 46.22 73.99"/>
              <polygon class="cls-1" points="33.45 70.91 33.45 73.43 41.55 65.33 39.03 65.33 33.45 70.91"/>
            </g>
          </g>
          <g>
            <path class="cls-1" d="m59.72,72.05V16.28c0-3.51,2.87-6.39,6.39-6.39h0c3.51,0,6.39,2.87,6.39,6.39v55.77l-6.39,18.39-6.39-18.39Z"/>
            <rect class="cls-7" x="59.72" y="18.71" width="12.77" height="53.34" transform="translate(132.21 90.75) rotate(180)"/>
            <rect class="cls-2" x="62.59" y="18.71" width="7.04" height="53.34" transform="translate(132.21 90.75) rotate(180)"/>
            <rect class="cls-8" x="59.72" y="18.71" width="12.77" height="17.32" transform="translate(132.21 54.73) rotate(180)"/>
            <polygon class="cls-7" points="66.11 90.44 68.96 82.22 63.25 82.22 66.11 90.44"/>
            <g>
              <polygon class="cls-1" points="72.49 18.71 72.37 18.71 59.72 31.36 59.72 36.03 60.62 36.03 72.49 24.15 72.49 18.71"/>
              <polygon class="cls-1" points="59.72 27.36 68.38 18.71 65.86 18.71 59.72 24.85 59.72 27.36"/>
              <polygon class="cls-1" points="72.49 30.44 72.49 27.93 64.39 36.03 66.91 36.03 72.49 30.44"/>
            </g>
          </g>
        </g>
      </g>
    </g>
  </g>
</svg>