<?xml version="1.0" encoding="UTF-8"?>
<svg xmlns="http://www.w3.org/2000/svg" viewBox="0 0 105.26 105.26">
  <defs>
    <style>
      .cls-1 {
        fill: #515254;
      }

      .cls-2 {
        fill: #cce9ff;
      }

      .cls-3 {
        isolation: isolate;
      }

      .cls-4 {
        fill: #b7b9bf;
      }

      .cls-5 {
        fill: #67686b;
      }

      .cls-6 {
        fill: #96bad6;
      }

      .cls-7 {
        mix-blend-mode: multiply;
        opacity: .15;
      }

      .cls-8 {
        fill: #f7fcff;
      }

      .cls-9 {
        fill: #fbedd1;
      }

      .cls-10 {
        fill: #909296;
      }
    </style>
  </defs>
  <g class="cls-3">
    <g id="Layer_2" data-name="Layer 2">
      <g id="OBJECTS">
        <g>
          <circle class="cls-9" cx="52.63" cy="52.63" r="52.63" transform="translate(-21.8 52.63) rotate(-45)"/>
          <path class="cls-7" d="m95.18,56.26c0-20.84-16.89-37.73-37.73-37.73S19.72,35.43,19.72,56.26c0,16.4,10.47,30.35,25.09,35.55-.06.26-.1.54-.1.82,0,2.05,1.68,3.72,3.72,3.72h18.03c2.05,0,3.72-1.68,3.72-3.72,0-.28-.04-.55-.1-.82,14.62-5.2,25.09-19.15,25.09-35.55Z"/>
          <g>
            <circle class="cls-10" cx="52.63" cy="51.73" r="37.73" transform="translate(-19.21 34.85) rotate(-31.28)"/>
            <circle class="cls-4" cx="52.63" cy="51.73" r="35.08"/>
            <circle class="cls-10" cx="52.63" cy="51.73" r="28.52" transform="translate(-21.17 52.37) rotate(-45)"/>
            <circle class="cls-6" cx="52.63" cy="51.73" r="25.66" transform="translate(-21.17 52.37) rotate(-45)"/>
            <circle class="cls-2" cx="52.63" cy="51.73" r="23.08" transform="translate(-21.17 52.37) rotate(-45)"/>
            <g>
              <path class="cls-8" d="m61.03,30.24l-29.9,29.9c1.27,3.24,3.24,6.12,5.73,8.45l32.62-32.62c-2.33-2.49-5.21-4.47-8.45-5.73Z"/>
              <path class="cls-8" d="m75.71,51.73c0-1-.07-1.97-.19-2.94l-25.83,25.83c.96.12,1.94.19,2.94.19.94,0,1.86-.06,2.78-.17l20.13-20.13c.11-.91.17-1.84.17-2.78Z"/>
              <path class="cls-8" d="m52.63,28.65c-1.64,0-3.24.17-4.79.5l-17.79,17.79c-.33,1.54-.5,3.15-.5,4.79s.16,3.13.46,4.62l27.24-27.24c-1.49-.3-3.04-.46-4.62-.46Z"/>
              <path class="cls-8" d="m74.71,45.01c-.69-2.28-1.73-4.4-3.05-6.32l-32.09,32.09c1.92,1.32,4.05,2.35,6.32,3.05l28.81-28.81Z"/>
            </g>
            <g>
              <rect class="cls-1" x="39.89" y="84.38" width="25.48" height="7.45" rx="3.72" ry="3.72"/>
              <rect class="cls-5" x="46.16" y="84.38" width="3.38" height="7.45"/>
              <rect class="cls-5" x="55.71" y="84.38" width="3.38" height="7.45"/>
            </g>
          </g>
        </g>
      </g>
    </g>
  </g>
</svg>