<?xml version="1.0" encoding="UTF-8"?>
<svg xmlns="http://www.w3.org/2000/svg" viewBox="0 0 105.26 105.26">
  <defs>
    <style>
      .cls-1 {
        fill: #fff;
      }

      .cls-2 {
        fill: #515254;
      }

      .cls-3 {
        fill: #ffc9ce;
      }

      .cls-4 {
        isolation: isolate;
      }

      .cls-5 {
        fill: #ff9ca4;
      }

      .cls-6 {
        fill: #f6ceaf;
      }

      .cls-7 {
        fill: #ffb0b7;
      }

      .cls-8 {
        fill: #67686b;
      }

      .cls-9 {
        mix-blend-mode: multiply;
        opacity: .15;
      }
    </style>
  </defs>
  <g class="cls-4">
    <g id="Layer_2" data-name="Layer 2">
      <g id="OBJECTS">
        <g>
          <circle class="cls-6" cx="52.63" cy="52.63" r="52.63" transform="translate(-10.9 91.41) rotate(-76.41)"/>
          <path class="cls-9" d="m35.37,91.61h0c.19.2.4.39.62.56.07.05.13.1.2.15.17.12.34.24.53.35.07.04.15.09.22.13.25.13.52.26.79.36,4.43,1.59,9.31,2.66,14.47,3.1,1.72.15,3.47.22,5.25.22h0c7.11,0,13.81-1.2,19.72-3.32.28-.1.54-.22.79-.36.08-.04.15-.08.22-.13.18-.11.36-.22.53-.34.07-.05.14-.1.2-.15.22-.18.43-.36.62-.56h0c1.08-1.13,1.72-2.66,1.72-4.28v-.04c0-11.26-2.77-21.42-7.23-28.69-.02-.03-.04-.07-.06-.1-.3-.48-.6-.95-.91-1.4-.04-.06-.08-.11-.12-.17-.31-.45-.64-.89-.96-1.32-.02-.03-.04-.06-.07-.09-.38-.49-.78-.97-1.18-1.43h0s-9.92-10.89-3.9-36.25c0,0-3.14-4.33-9.38-4.33s-9.38,4.33-9.38,4.33c6.02,25.36-3.9,36.25-3.9,36.25h0c-6.35,7.18-10.54,19.37-10.54,33.2v.04c0,1.63.64,3.15,1.72,4.28Z"/>
          <g>
            <path class="cls-1" d="m52.63,42.77c-13.15,0-23.81,17.9-23.81,39.98v.04c0,2.6,1.64,4.95,4.09,5.83,5.91,2.12,12.61,3.32,19.72,3.32s13.81-1.2,19.72-3.32c2.45-.88,4.09-3.23,4.09-5.83v-.04c0-22.08-10.66-39.98-23.81-39.98Z"/>
            <path class="cls-3" d="m52.63,45.54c-11.67,0-21.12,15.88-21.12,35.48v.04c0,2.31,1.46,4.39,3.63,5.17,5.24,1.88,11.19,2.95,17.5,2.95s12.25-1.06,17.5-2.95c2.17-.78,3.63-2.86,3.63-5.17v-.04c0-19.59-9.46-35.48-21.12-35.48Z"/>
            <path class="cls-7" d="m52.63,65.54c-6.38,0-12.45-1.15-17.95-3.22-2.01,5.43-3.17,11.83-3.17,18.69v.04c0,2.31,1.46,4.39,3.63,5.17,5.24,1.88,11.19,2.95,17.5,2.95s12.25-1.06,17.5-2.95c2.17-.78,3.63-2.86,3.63-5.17v-.04c0-6.86-1.16-13.27-3.17-18.69-5.5,2.07-11.57,3.22-17.95,3.22Z"/>
            <path class="cls-5" d="m52.63,80.19c-7.54,0-14.65-1.61-20.89-4.44-.15,1.72-.23,3.48-.23,5.26v.04c0,2.31,1.46,4.39,3.63,5.17,5.24,1.88,11.19,2.95,17.5,2.95s12.25-1.06,17.5-2.95c2.17-.78,3.63-2.86,3.63-5.17v-.04c0-1.79-.08-3.55-.23-5.26-6.24,2.83-13.35,4.44-20.89,4.44Z"/>
            <path class="cls-9" d="m52.63,85.2c-7.74,0-15.16.67-22.09,1.88.65.68,1.45,1.21,2.37,1.54,5.91,2.12,12.61,3.32,19.72,3.32s13.81-1.2,19.72-3.32c.92-.33,1.72-.86,2.37-1.54-6.92-1.21-14.35-1.88-22.09-1.88Z"/>
            <path class="cls-9" d="m39.35,49.56c.02.05,5.78,14.52,32.53,9.7-4.33-9.99-11.34-16.49-19.26-16.49-4.91,0-9.48,2.5-13.27,6.79Z"/>
            <path class="cls-8" d="m52.63,8.98c6.24,0,9.38,4.33,9.38,4.33-6.02,25.36,3.9,36.25,3.9,36.25,0,0-5.01,3.31-13.27,3.31s-13.27-3.31-13.27-3.31c0,0,9.92-10.88,3.9-36.25,0,0,3.14-4.33,9.38-4.33Z"/>
            <g>
              <path class="cls-2" d="m62,13.31s0-.01-.01-.02c-3.4,3.84-5.59,9.9-5.59,16.71,0,9.03,3.84,16.73,9.24,19.71.17-.1.26-.16.26-.16,0,0-9.92-10.88-3.9-36.25Z"/>
              <path class="cls-2" d="m43.25,13.31c6.02,25.36-3.9,36.25-3.9,36.25,0,0,.15.1.43.25,5.49-2.91,9.42-10.67,9.42-19.8,0-6.94-2.27-13.08-5.77-16.91-.11.13-.17.22-.17.22Z"/>
            </g>
            <path class="cls-1" d="m41.41,67.23c-2.33,6.59-2.76,12.64-4.8,12.13-1.55-.39-2.41-5.57-.57-12.44,1.72-6.43,6.31-12.96,9.83-12.54,3.8.45-1.71,5.06-4.47,12.85Z"/>
          </g>
        </g>
      </g>
    </g>
  </g>
</svg>