<?xml version="1.0" encoding="UTF-8"?>
<svg id="Layer_2" data-name="Layer 2" xmlns="http://www.w3.org/2000/svg" viewBox="0 0 71.22 63.56">
  <defs>
    <style>
      .cls-1 {
        fill: #fff;
      }

      .cls-2 {
        fill: #1d1b3a;
      }

      .cls-3 {
        fill: #bbe8ff;
      }

      .cls-4 {
        fill: #f28f19;
      }

      .cls-5 {
        fill: #b38cff;
      }

      .cls-6 {
        fill: #a07df4;
      }

      .cls-7 {
        fill: #ef60ae;
      }

      .cls-8 {
        fill: #f4a517;
      }

      .cls-9 {
        fill: #fe71b7;
      }

      .cls-10 {
        fill: #a4dcff;
      }

      .cls-11 {
        fill: #be4719;
      }
    </style>
  </defs>
  <g id="Layer_1-2" data-name="Layer 1">
    <g>
      <g>
        <g>
          <path class="cls-8" d="m17.13,49.3l.02.38s.24-.01.49-.03c.24-.02.49-.04.49-.04l-.04-.37s-.24.02-.48.04c-.24.01-.48.03-.48.03Z"/>
          <polygon class="cls-8" points="15.69 49.34 15.69 49.71 16.67 49.69 16.66 49.32 15.69 49.34"/>
          <polygon class="cls-8" points="14.25 49.31 14.23 49.68 15.21 49.71 15.22 49.33 14.25 49.31"/>
          <polygon class="cls-8" points="12.82 49.2 12.78 49.57 13.76 49.65 13.78 49.28 12.82 49.2"/>
          <polygon class="cls-8" points="11.39 49.01 11.33 49.38 12.3 49.52 12.35 49.14 11.39 49.01"/>
          <path class="cls-8" d="m9.99,48.71l-.09.36s.24.05.48.11c.24.06.48.1.48.1l.07-.37s-.24-.04-.47-.1c-.23-.06-.47-.11-.47-.11Z"/>
          <path class="cls-8" d="m8.63,48.29l-.13.35s.23.08.47.16c.23.09.47.15.47.15l.11-.36s-.23-.06-.46-.14c-.23-.08-.45-.15-.45-.15Z"/>
        </g>
        <g>
          <path class="cls-8" d="m7.34,47.7l-.18.33s.89.45.89.43l.15-.35s-.86-.41-.86-.41Z"/>
          <path class="cls-8" d="m6.18,46.9l-.25.29s.19.16.39.31c.19.16.41.28.41.28l.2-.32s-.21-.12-.39-.27c-.19-.14-.37-.29-.37-.29Z"/>
          <path class="cls-8" d="m5.26,45.87l-.31.21s.62.8.63.78l.27-.26s-.61-.71-.59-.72Z"/>
          <path class="cls-8" d="m4.67,44.61l-.36.11s.05.25.17.47c.1.23.21.46.21.46l.33-.18s-.1-.21-.19-.43c-.11-.21-.14-.44-.15-.44Z"/>
          <path class="cls-8" d="m4.45,43.24h-.38s-.02.26.03.51c.04.25.07.5.07.5l.37-.08s-.03-.23-.07-.46c-.05-.23-.03-.47-.03-.47Z"/>
          <path class="cls-8" d="m4.54,41.83l-.37-.06s-.03.25-.06.5c-.02.25-.04.49-.04.49h.38s.02-.22.04-.46c.03-.24.05-.47.05-.47Z"/>
          <path class="cls-8" d="m4.88,40.46l-.36-.11s-.07.23-.15.47c-.05.24-.11.48-.11.48l.37.08s.05-.23.1-.46c.07-.23.14-.46.14-.46Z"/>
        </g>
        <g>
          <polygon class="cls-8" points="5.33 39.08 4.97 38.96 4.67 39.88 5.02 40.01 5.33 39.08"/>
          <polygon class="cls-8" points="5.79 37.7 5.43 37.59 5.12 38.51 5.48 38.63 5.79 37.7"/>
          <polygon class="cls-8" points="6.16 36.29 5.8 36.2 5.55 37.14 5.91 37.24 6.16 36.29"/>
          <path class="cls-8" d="m6.48,34.87l-.37-.07s-.17.95-.19.95l.37.09s.2-.96.2-.96Z"/>
          <path class="cls-8" d="m6.72,33.43l-.37-.05s-.03.24-.06.48c-.04.24-.09.47-.09.47l.37.06s.05-.24.09-.48c.03-.24.06-.49.06-.49Z"/>
          <path class="cls-8" d="m6.86,31.98l-.38-.02s-.08.96-.08.96l.37.04s.11-.98.08-.98Z"/>
          <path class="cls-8" d="m6.86,30.51l-.37.02s0,.96,0,.96h.38s.02-.98,0-.98Z"/>
        </g>
        <g>
          <path class="cls-8" d="m6.7,29.05l-.37.06s.01.06.03.15c.02.09.04.21.04.33.02.24.04.48.04.48l.37-.03s-.02-.25-.04-.49c0-.12-.02-.25-.05-.34-.02-.09-.03-.15-.03-.15Z"/>
          <path class="cls-8" d="m6.37,27.62l-.36.11s.07.23.14.46c.05.23.09.47.09.47l.37-.08s-.05-.24-.1-.48c-.07-.24-.14-.47-.14-.47Z"/>
          <path class="cls-8" d="m5.87,26.23l-.35.15s.37.89.35.89l.35-.12s-.35-.92-.35-.92Z"/>
          <polygon class="cls-8" points="5.24 24.91 4.91 25.09 5.34 25.95 5.68 25.79 5.24 24.91"/>
          <path class="cls-8" d="m4.5,23.65l-.32.2s.13.2.25.41c.12.21.24.42.24.42l.33-.19s-.12-.21-.25-.42c-.12-.21-.25-.42-.25-.42Z"/>
          <rect class="cls-8" x="3.63" y="22.46" width=".37" height=".97" transform="translate(-11.89 5.79) rotate(-33.02)"/>
          <polygon class="cls-8" points="2.92 21.22 2.6 21.43 3.14 22.24 3.45 22.03 2.92 21.22"/>
        </g>
        <g>
          <polygon class="cls-8" points="2.14 20 1.82 20.2 2.34 21.03 2.65 20.83 2.14 20"/>
          <polygon class="cls-8" points="1.42 18.76 1.09 18.94 1.57 19.79 1.89 19.6 1.42 18.76"/>
          <path class="cls-8" d="m.82,17.48l-.35.13s.07.24.18.46c.11.22.21.45.21.45l.33-.17s-.1-.21-.2-.43c-.1-.21-.17-.44-.17-.44Z"/>
          <path class="cls-8" d="m.46,16.12l-.37.06s.21.97.21.97l.36-.11s-.23-.92-.21-.92Z"/>
          <path class="cls-8" d="m.39,14.72l-.37-.02s0,1,0,1l.37-.03s-.04-.94,0-.94Z"/>
          <path class="cls-8" d="m.62,13.33l-.36-.1s-.08.24-.12.48c-.04.25-.09.49-.09.49l.37.05s.04-.23.08-.47c.04-.23.11-.46.11-.46Z"/>
          <path class="cls-8" d="m1.14,12.03l-.33-.18s-.11.22-.22.45c-.09.23-.18.47-.18.47l.35.13s.09-.22.17-.44c.11-.21.21-.42.21-.42Z"/>
        </g>
        <g>
          <path class="cls-8" d="m1.92,10.86l-.29-.24s-.15.2-.3.4c-.15.2-.28.42-.28.42l.32.2s.12-.21.26-.39c.14-.19.29-.38.29-.38Z"/>
          <path class="cls-8" d="m2.93,9.88l-.23-.29s-.75.66-.74.67l.27.26s.68-.65.7-.64Z"/>
          <path class="cls-8" d="m4.11,9.13l-.16-.34s-.23.1-.44.23c-.21.13-.42.26-.42.26l.21.31s.2-.12.4-.25c.2-.13.42-.22.42-.22Z"/>
          <path class="cls-8" d="m5.43,8.66l-.09-.37s-.24.07-.48.13c-.24.08-.47.17-.47.17l.14.35s.22-.09.44-.16c.23-.06.45-.12.45-.12Z"/>
          <path class="cls-8" d="m6.82,8.52v-.38s-.99.04-.99.06l.05.37s.94-.09.93-.06Z"/>
          <path class="cls-8" d="m8.19,8.75l.11-.36s-.24-.09-.49-.13c-.25-.04-.5-.09-.5-.09l-.04.37s.23.04.46.08c.23.04.45.12.45.12Z"/>
          <path class="cls-8" d="m9.46,9.33l.2-.32s-.22-.13-.43-.25c-.23-.1-.46-.2-.46-.2l-.14.35s.21.09.43.19c.2.12.41.24.41.24Z"/>
        </g>
        <g>
          <path class="cls-8" d="m10.54,10.21l.27-.26s-.18-.17-.36-.34c-.18-.17-.39-.31-.39-.31l-.22.3s.19.13.37.29c.17.16.34.32.34.32Z"/>
          <path class="cls-8" d="m11.43,11.31l.31-.21s-.14-.2-.28-.41c-.16-.19-.32-.38-.32-.38l-.28.25s.15.18.31.36c.13.2.27.39.27.39Z"/>
          <path class="cls-8" d="m12.13,12.54l.34-.16s-.47-.87-.47-.87l-.32.19s.47.83.45.84Z"/>
          <rect class="cls-8" x="12.51" y="12.85" width=".38" height=".97" transform="translate(-4.33 6.31) rotate(-23.99)"/>
          <path class="cls-8" d="m13.37,15.17l.33-.18s-.11-.21-.22-.42c-.12-.21-.22-.43-.22-.43l-.34.16s.1.22.22.44c.12.22.23.44.23.44Z"/>
          <path class="cls-8" d="m14.15,16.42l.3-.22s-.13-.2-.26-.4c-.13-.2-.26-.4-.26-.4l-.32.2s.13.21.27.41c.13.21.27.41.27.41Z"/>
          <path class="cls-8" d="m15.09,17.55l.27-.26s-.16-.17-.33-.35c-.15-.19-.3-.38-.3-.38l-.3.23s.15.2.31.39c.17.18.34.36.34.36Z"/>
        </g>
        <g>
          <path class="cls-8" d="m16.19,18.54l.22-.3s-.73-.61-.73-.61l-.26.27s.74.66.76.64Z"/>
          <path class="cls-8" d="m17.45,19.31l.16-.34s-.84-.45-.82-.47l-.21.31s.86.5.86.5Z"/>
          <path class="cls-8" d="m18.85,19.82l.1-.36s-.23-.07-.46-.13c-.23-.07-.44-.17-.44-.17l-.14.35s.23.11.47.18c.24.07.48.14.48.14Z"/>
          <path class="cls-8" d="m20.31,20.07l.03-.38s-.24-.02-.47-.04c-.23-.04-.47-.09-.47-.09l-.07.37s.24.04.49.09c.25.02.5.05.5.05Z"/>
          <path class="cls-8" d="m21.78,20.06l-.03-.38s-.24.03-.48.03h-.48v.38s.24,0,.49,0c.25,0,.49-.03.49-.03Z"/>
          <path class="cls-8" d="m23.24,19.85l-.08-.37s-.23.06-.47.09c-.24.04-.47.07-.47.07l.05.37s.24-.04.49-.08c.24-.03.48-.09.48-.09Z"/>
          <path class="cls-8" d="m24.66,19.47l-.11-.36s-.23.07-.46.14c-.23.07-.46.13-.46.13l.09.37s.24-.07.48-.13c.24-.07.47-.14.47-.14Z"/>
        </g>
        <g>
          <path class="cls-8" d="m26.03,18.96l-.15-.35s-.22.09-.45.18c-.22.09-.45.17-.45.17l.13.36s.23-.08.46-.17c.23-.09.46-.18.46-.18Z"/>
          <path class="cls-8" d="m27.36,18.35l-.17-.34s-.22.11-.43.21c-.22.1-.44.2-.44.2l.15.34s.22-.1.45-.2c.22-.11.44-.22.44-.22Z"/>
          <path class="cls-8" d="m28.64,17.65l-.19-.32s-.21.12-.42.24c-.21.11-.42.23-.42.23l.18.33s.22-.12.43-.23c.21-.12.42-.25.42-.25Z"/>
          <path class="cls-8" d="m29.88,16.88l-.21-.31s-.2.13-.41.26c-.2.13-.41.26-.41.26l.2.32s.21-.13.42-.26c.21-.13.41-.27.41-.27Z"/>
          <polygon class="cls-8" points="31.07 16.04 30.85 15.74 30.06 16.3 30.27 16.61 31.07 16.04"/>
          <path class="cls-8" d="m32.22,15.15l-.24-.29s-.19.15-.38.3c-.19.15-.38.3-.38.3l.23.3s.19-.15.39-.3c.19-.15.38-.31.38-.31Z"/>
          <path class="cls-8" d="m33.32,14.19l-.26-.27s-.18.16-.36.32c-.18.16-.36.32-.36.32l.24.29s.19-.16.37-.32c.18-.17.36-.33.36-.33Z"/>
        </g>
        <g>
          <path class="cls-8" d="m34.4,13.25l-.23-.3s-.19.16-.38.31c-.19.16-.37.33-.37.33l.25.28s.17-.17.36-.32c.19-.15.37-.3.37-.3Z"/>
          <path class="cls-8" d="m35.58,12.45l-.19-.32s-.21.13-.42.26c-.21.13-.4.28-.4.28l.22.31s.19-.14.39-.27c.2-.13.41-.25.41-.25Z"/>
          <path class="cls-8" d="m36.84,11.8l-.14-.35s-.23.08-.46.2c-.22.11-.44.23-.44.23l.18.33s.21-.11.42-.22c.21-.11.44-.19.44-.19Z"/>
          <path class="cls-8" d="m38.19,11.37l-.08-.37s-.96.27-.96.27l.12.35s.91-.28.91-.26Z"/>
          <path class="cls-8" d="m39.58,11.23v-.38s-.25,0-.5.01c-.25,0-.5.07-.5.06l.05.37s.23-.06.47-.06c.23,0,.47-.01.47-.01Z"/>
          <path class="cls-8" d="m40.96,11.42l.1-.36s-.23-.1-.49-.11c-.25-.03-.5-.06-.5-.06l-.03.37s.23.03.47.06c.24.01.45.12.45.11Z"/>
          <path class="cls-8" d="m42.25,11.95l.18-.33s-.22-.11-.45-.22c-.11-.05-.22-.11-.31-.15-.09-.03-.15-.05-.15-.05l-.13.35s.06.02.14.04c.08.04.18.09.29.15.21.1.42.21.42.21Z"/>
        </g>
        <g>
          <path class="cls-8" d="m43.4,12.76l.25-.28s-.18-.17-.39-.31c-.2-.15-.4-.29-.4-.29l-.21.31s.19.14.38.28c.2.13.38.28.37.29Z"/>
          <path class="cls-8" d="m44.38,13.78l.29-.24s-.13-.21-.32-.37c-.18-.17-.36-.35-.36-.35l-.26.27s.17.17.34.33c.18.16.3.37.31.36Z"/>
          <path class="cls-8" d="m45.22,14.93l.31-.21s-.12-.22-.27-.41c-.15-.19-.3-.39-.3-.39l-.3.23s.15.19.29.38c.15.19.26.4.26.4Z"/>
          <polygon class="cls-8" points="45.97 16.15 46.3 15.97 45.78 15.13 45.47 15.33 45.97 16.15"/>
          <path class="cls-8" d="m46.75,17.4l.3-.22s-.51-.81-.51-.81l-.32.2s.51.85.53.83Z"/>
          <path class="cls-8" d="m47.7,18.53l.27-.26s-.62-.73-.62-.73l-.3.23s.61.78.64.75Z"/>
          <path class="cls-8" d="m48.81,19.5l.22-.3s-.2-.13-.38-.28c-.17-.16-.35-.33-.35-.33l-.26.27s.18.17.36.34c.19.16.4.29.4.29Z"/>
        </g>
        <g>
          <path class="cls-8" d="m50.1,20.24l.15-.34s-.86-.4-.83-.44l-.2.32s.88.47.88.47Z"/>
          <path class="cls-8" d="m51.51,20.7l.08-.37s-.91-.26-.91-.26l-.13.35s.95.31.96.27Z"/>
          <path class="cls-8" d="m52.99,20.85v-.38s-.23,0-.47-.02c-.24,0-.47-.06-.47-.05l-.05.37s.06,0,.15.02c.09.02.22.03.34.03.25,0,.5.02.5.02Z"/>
          <path class="cls-8" d="m54.46,20.74l-.06-.37s-.95.1-.95.1l.02.38s.99-.08.99-.1Z"/>
          <path class="cls-8" d="m55.89,20.42l-.1-.36s-.23.06-.46.12c-.23.06-.47.11-.47.11l.08.37s.24-.05.48-.11c.24-.06.48-.12.48-.12Z"/>
          <path class="cls-8" d="m57.28,19.95l-.14-.35s-.22.09-.45.17c-.22.09-.45.15-.45.15l.11.36s.24-.07.47-.16c.23-.09.46-.17.46-.17Z"/>
          <polygon class="cls-8" points="58.62 19.38 58.47 19.04 57.58 19.42 57.73 19.77 58.62 19.38"/>
        </g>
        <g>
          <path class="cls-8" d="m59.96,18.94l-.08-.37s-.25.04-.49.11c-.24.08-.48.16-.48.16l.14.35s.22-.07.44-.15c.23-.07.46-.11.46-.11Z"/>
          <path class="cls-8" d="m61.37,18.76l-.03-.38s-.25,0-.49.04c-.25.03-.49.06-.49.06l.05.37s.24-.03.47-.06c.24-.03.48-.04.48-.04Z"/>
          <polygon class="cls-8" points="62.79 18.74 62.81 18.37 61.82 18.36 61.83 18.73 62.79 18.74"/>
          <path class="cls-8" d="m64.21,18.89l.06-.37s-.24-.05-.49-.07c-.25-.02-.49-.04-.49-.04l-.03.37s.24.02.48.04c.24.03.47.07.47.07Z"/>
          <path class="cls-8" d="m65.6,19.19l.11-.36s-.95-.26-.96-.24l-.07.37s.93.23.93.23Z"/>
          <path class="cls-8" d="m66.93,19.68l.16-.34s-.92-.37-.92-.37l-.12.36s.89.33.88.35Z"/>
          <path class="cls-8" d="m68.14,20.4l.22-.3s-.2-.15-.4-.29c-.22-.12-.44-.23-.44-.23l-.18.33s.21.11.42.22c.19.14.38.28.38.28Z"/>
        </g>
        <g>
          <path class="cls-8" d="m69.18,21.34l.28-.25s-.17-.18-.35-.36c-.16-.19-.36-.35-.36-.34l-.24.29s.19.14.34.32c.16.17.33.34.33.34Z"/>
          <polygon class="cls-8" points="69.99 22.48 70.33 22.3 69.77 21.47 69.47 21.69 69.99 22.48"/>
          <path class="cls-8" d="m70.51,23.79l.36-.11s-.35-.93-.35-.93l-.34.15s.38.86.33.88Z"/>
          <path class="cls-8" d="m70.78,25.17l.37-.04s.01-.25-.06-.49c-.06-.24-.11-.48-.11-.48l-.37.08s.05.23.11.46c.07.23.04.47.06.47Z"/>
          <path class="cls-8" d="m70.83,26.59l.38.02s-.03-.99-.03-.99l-.38.02s.07.95.03.95Z"/>
          <path class="cls-8" d="m70.63,27.99l.37.08s.05-.24.11-.49c.06-.24.05-.49.06-.49l-.37-.04s0,.24-.06.47c-.05.23-.1.46-.1.46Z"/>
          <polygon class="cls-8" points="70.21 29.33 70.56 29.48 70.89 28.54 70.53 28.44 70.21 29.33"/>
        </g>
        <g>
          <path class="cls-8" d="m69.54,30.58l.32.2s.16-.2.26-.42c.11-.22.23-.44.23-.44l-.34-.17s-.43.85-.46.83Z"/>
          <path class="cls-8" d="m68.68,31.7l.28.25s.17-.18.34-.37c.16-.19.29-.4.29-.4l-.31-.22s-.13.2-.28.39c-.16.17-.32.35-.32.35Z"/>
          <path class="cls-8" d="m67.64,32.65l.23.3s.19-.16.38-.31c.1-.08.19-.16.27-.22.06-.07.11-.11.11-.11l-.26-.27s-.04.04-.1.11c-.07.05-.16.13-.25.21-.18.15-.37.3-.37.3Z"/>
          <polygon class="cls-8" points="66.46 33.42 66.63 33.75 67.49 33.25 67.27 32.94 66.46 33.42"/>
          <polygon class="cls-8" points="65.16 33.98 65.28 34.34 66.2 33.97 66.04 33.62 65.16 33.98"/>
          <polygon class="cls-8" points="63.78 34.32 63.85 34.69 64.81 34.47 64.71 34.1 63.78 34.32"/>
          <polygon class="cls-8" points="62.37 34.46 62.38 34.83 63.37 34.75 63.32 34.37 62.37 34.46"/>
        </g>
        <g>
          <polygon class="cls-8" points="60.94 34.41 60.91 34.78 61.9 34.83 61.9 34.46 60.94 34.41"/>
          <polygon class="cls-8" points="59.53 34.21 59.46 34.58 60.43 34.75 60.48 34.37 59.53 34.21"/>
          <path class="cls-8" d="m58.14,33.88l-.1.36s.23.07.47.14c.12.04.24.06.33.08.09.02.15.03.15.03l.08-.37s-.06-.01-.15-.03c-.09-.01-.21-.04-.32-.07-.23-.07-.46-.14-.46-.14Z"/>
          <polygon class="cls-8" points="56.77 33.47 56.64 33.82 57.58 34.11 57.69 33.75 56.77 33.47"/>
          <polygon class="cls-8" points="55.44 32.92 55.29 33.26 56.2 33.64 56.33 33.29 55.44 32.92"/>
          <path class="cls-8" d="m54.14,32.31l-.17.34s.22.11.43.23c.21.12.45.2.45.2l.15-.34s-.23-.08-.44-.2c-.21-.11-.43-.22-.43-.22Z"/>
          <polygon class="cls-8" points="52.86 31.64 52.68 31.97 53.55 32.43 53.72 32.09 52.86 31.64"/>
        </g>
      </g>
      <g>
        <path class="cls-8" d="m60.94,55.36v-5.92c1.38.18,2.41.96,2.41,1.89v8.05c.01,1.07-1.35,1.94-3.02,1.95l-31.32.08c-1.67,0-3.03-.86-3.03-1.93v-8.05c0-.94,1.03-1.72,2.41-1.91v5.92s2.88,0,2.88,0v-5.92s1.51,0,1.51,0v5.92s2.73,0,2.73,0v-5.92s1.51,0,1.51,0v5.92s2.73,0,2.73,0v-5.92s1.51,0,1.51,0v5.92s2.73,0,2.73,0v-5.92s1.51,0,1.51,0v5.92s2.73,0,2.73,0v-5.92s1.51,0,1.51,0v5.92s2.73,0,2.73,0v-5.92s1.51,0,1.51,0v5.92s2.73,0,2.73,0v-5.92s1.51,0,1.51,0v5.92s2.73,0,2.73,0Z"/>
        <path class="cls-4" d="m60.34,61.32l-31.32.08c-1.67,0-3.03-.86-3.03-1.93v-.76l37.38-.09v.75c0,1.07-1.35,1.94-3.02,1.95Z"/>
      </g>
      <g>
        <rect class="cls-6" x="23.19" y="60.06" width="24" height="1.55"/>
        <path class="cls-6" d="m47.19,61.61c0,1.08-5.37,1.95-12,1.95s-12-.87-12-1.95,5.37-1.95,12-1.95,12,.87,12,1.95Z"/>
        <path class="cls-5" d="m47.19,60.06c0,1.08-5.37,1.95-12,1.95s-12-.87-12-1.95,5.37-1.95,12-1.95,12,.87,12,1.95Z"/>
        <path class="cls-6" d="m37.19,60.06c0,.33-.89.59-2,.59s-1.99-.26-1.99-.59.89-.59,1.99-.59,2,.26,2,.59Z"/>
        <path class="cls-5" d="m58.32,23.7c0,13.09-10.61,23.71-23.71,23.71s-23.7-10.61-23.7-23.71S21.52,0,34.62,0s23.71,10.61,23.71,23.7Z"/>
        <path class="cls-10" d="m55.37,23.7c0,11.46-9.29,20.75-20.75,20.75s-20.75-9.29-20.75-20.75S23.16,2.95,34.62,2.95s20.75,9.29,20.75,20.75Z"/>
        <path class="cls-6" d="m34.81,50.75c13.94,0,25.37-10.43,26.56-23.71h-1.92c-1.18,12.25-11.76,21.84-24.64,21.84s-23.46-9.59-24.64-21.84h-1.92c1.19,13.29,12.62,23.71,26.56,23.71Z"/>
        <rect class="cls-6" x="33.2" y="49.97" width="3.99" height="10.03"/>
        <path class="cls-6" d="m13.13,26.89c0,.81-.65,1.46-1.46,1.46h-1.95c-.81,0-1.46-.66-1.46-1.46h0c0-.81.66-1.46,1.46-1.46h1.95c.81,0,1.46.66,1.46,1.46h0Z"/>
        <path class="cls-6" d="m61.38,26.89c0,.81-.66,1.46-1.46,1.46h-1.95c-.81,0-1.46-.66-1.46-1.46h0c0-.81.65-1.46,1.46-1.46h1.95c.81,0,1.46.66,1.46,1.46h0Z"/>
        <path class="cls-3" d="m55.37,23.7c0-6.45-2.95-12.22-7.56-16.02l-23.99,33.75c3.15,1.92,6.84,3.03,10.8,3.03,11.46,0,20.75-9.29,20.75-20.75Z"/>
        <path class="cls-3" d="m13.86,23.7c0,3.5.87,6.8,2.41,9.7L37.57,3.16c-.96-.14-1.95-.21-2.95-.21-11.46,0-20.75,9.29-20.75,20.75Z"/>
        <path class="cls-10" d="m55.37,23.7c0-2.46-.43-4.82-1.22-7.01l-19.73,27.76c.07,0,.13,0,.2,0,11.46,0,20.75-9.29,20.75-20.75Z"/>
      </g>
      <g>
        <g>
          <path class="cls-7" d="m34.72,4.07s-4.47,7.42-5.84,14.95c-1.38,7.53-3.33,15.19-3.33,15.19l2.15.39,7.02-30.53Z"/>
          <path class="cls-7" d="m26.45,33.49c-2.38-.43-4.66,1.14-5.09,3.52-.43,2.38,1.14,4.66,3.52,5.09,2.38.43,4.66-1.14,5.09-3.52.43-2.38-1.14-4.66-3.52-5.09Zm-1.37,7.48c-1.75-.32-2.92-2-2.6-3.76.32-1.75,2-2.92,3.76-2.6,1.75.32,2.91,2,2.59,3.76-.32,1.75-2,2.92-3.75,2.6Z"/>
          <path class="cls-7" d="m48.79,18.91s-7.22,4.78-14.69,6.47c-7.47,1.69-15.04,3.96-15.04,3.96l-.48-2.13,30.21-8.29Z"/>
          <path class="cls-7" d="m14.51,25.1c-2.36.53-3.84,2.88-3.3,5.24.53,2.36,2.88,3.84,5.23,3.3,2.36-.53,3.84-2.88,3.3-5.23-.53-2.36-2.88-3.84-5.23-3.3Zm.25,1.12c1.74-.39,3.47.7,3.86,2.44.39,1.74-.7,3.47-2.44,3.86-1.74.39-3.47-.7-3.86-2.44-.39-1.74.7-3.47,2.44-3.86Z"/>
          <path class="cls-9" d="m29.68,25.55c-.08.41-.47.69-.88.61-.41-.08-.68-.47-.61-.88.08-.41.47-.69.88-.61.41.07.69.47.61.88Z"/>
        </g>
        <g>
          <path class="cls-11" d="m8.14,61.08c-.45-.51-.43-.59-.31-.75.11-.14.23-.28.37-.41l-.99-.6c-.2.36-.35.69-.43.96.07.09.66.86,1.35.81Z"/>
          <path class="cls-2" d="m6.79,60.27s-.01-.02-.01-.02c-.56.84.72,1.33,1.47,1.44.75.11-.11-.61-.11-.61-.69.05-1.28-.72-1.35-.81Z"/>
        </g>
        <path class="cls-7" d="m6.91,59.13c-.13.48.94,1.25,1.24,1,2.59-2.2,5.35-6.98,6.39-8.94.05-.08.09-.17.13-.24.52-.85.81-.67,2.56-4.58.57-1.26.91-3.47.91-3.47l-1.74-.72-3.89-1.61c-1.39,1.32-1.96,5.07-2.27,6.61-.25,1.31-.54,3.42-.81,4.44-.96,3.55-1.66,4.27-2.53,7.51Z"/>
        <g>
          <path class="cls-11" d="m18.26,62.03c-.63-.28-.64-.36-.6-.56.04-.17.1-.35.16-.53l-1.15-.14c-.03.41-.03.77.02,1.05.1.05.95.51,1.56.17Z"/>
          <path class="cls-2" d="m16.7,61.87s-.02-.02-.02-.02c-.16,1,1.21.91,1.94.7.73-.21-.36-.51-.36-.51-.61.34-1.46-.12-1.56-.17Z"/>
        </g>
        <path class="cls-2" d="m14.19,49.67c.16.46.32.86.48,1.27.52-.85.81-.67,2.56-4.58.57-1.26.91-3.47.91-3.47l-1.74-.72-1.76.14c-.71,1.78-.94,5.9-.45,7.36Z"/>
        <path class="cls-9" d="m14.39,48.52c.32,1.3,1.04,2.63,1.04,4.44,0,3.69.35,4.51.9,7.81.06.38.87.62,1.31.54.07-.01.13-.03.17-.07.04-.02.07-.05.08-.08,1.43-3.08,2.39-8.31,2.51-10.51.07-1.3.04-1.14,0-5.78-.01-1.39-.62-3.54-.62-3.54l-5.76.19c-.71,1.78.01,5.47.38,7Z"/>
        <path class="cls-1" d="m17.63,61.31c.07-.01.13-.03.17-.07.87-2.43,1.25-5.02,1.57-7.26.27-1.9.58-4.05.59-6.17,0-2.32-.37-4.36-1.11-6.08-.01-.03-.05-.05-.09-.03-.03.01-.05.05-.04.09.74,1.7,1.11,3.73,1.11,6.03,0,2.11-.31,4.26-.59,6.16-.33,2.26-.71,4.89-1.6,7.34Z"/>
        <path class="cls-2" d="m11.03,43.62c.35-1.24.83-2.42,1.49-3.06l2.25.93,5-.17s.13.46.27,1.08c-2.2,1.76-5.95,2.41-9.01,1.21Z"/>
        <path class="cls-8" d="m19.8,32c.88,1.09,1.45,3.28.24,9.97-.27,1.47-9.27,1.83-9.09.34.56-4.62,2.46-7.32,4.43-10.53.54-.87,2.69-1.97,4.42.21Z"/>
        <g>
          <path class="cls-11" d="m27.78,37.27s.46-1.01.14-.91c-.32.1-.24.54-.73.96-.49.42.79.01.79.01l-.2-.06Z"/>
          <g>
            <path class="cls-11" d="m27.35,37.24s2.16-1.45,1.92-.72c-.24.73-.5,1.32-1.71,1.5l-.21-.78Z"/>
            <path class="cls-4" d="m19.87,32.11c-1.52-.08-2.04.6-2.09,1.53-.08,1.42.13,3.75,2.31,5.35,2.18,1.6,7.63-.94,7.63-.94,0,0,.12-.77-.4-1.12,0,0-4.31,1.42-5.89-.41-.76-.88.09-4.32-1.56-4.41Z"/>
          </g>
        </g>
        <path class="cls-2" d="m20.59,25.45c.87.35,1.8,1.37,1.35,3.16-.46,1.78-.41,1.83.01,2.64,1.11,2.08-2.89.88-2.29,2.89,1.64,5.55-5.36,2.91-6.37,1.11-1.14-2.02-.95-4.88,1.14-5.61.69-.24.16-2.61,1.7-2.65,1.54-.05,1.1-2.88,4.46-1.54Z"/>
      </g>
      <path class="cls-10" d="m65,25.94c-.67,0-1.21-.54-1.21-1.19s.54-1.19,1.21-1.19,1.21.54,1.21,1.19-.54,1.19-1.21,1.19Zm0-2.06c-.48,0-.88.39-.88.87s.39.87.88.87.88-.39.88-.87-.39-.87-.88-.87Z"/>
      <path class="cls-10" d="m6.4,15.84c-.68,0-1.23-.54-1.23-1.21s.55-1.21,1.23-1.21,1.23.54,1.23,1.21-.55,1.21-1.23,1.21Zm0-2.09c-.49,0-.89.4-.89.88s.4.88.89.88.89-.39.89-.88-.4-.88-.89-.88Z"/>
      <path class="cls-8" d="m61.73,9.33c.14-.18.21-.78.43-.78s.27.62.42.78c.16.16.79.2.78.42-.01.22-.64.25-.78.43-.14.17-.21.79-.42.78-.22-.01-.25-.64-.43-.78-.18-.14-.79-.21-.78-.43.01-.22.64-.25.78-.42Z"/>
      <path class="cls-5" d="m58.96,7.12c.03.38-.25.71-.63.74-.38.03-.71-.25-.74-.63-.03-.38.25-.71.63-.74.38-.03.71.25.74.62Z"/>
      <path class="cls-8" d="m3.64,51.05c.14-.17.2-.78.43-.78s.27.62.43.78c.16.16.79.2.78.43-.01.22-.64.25-.78.43-.14.17-.21.79-.43.78-.22-.01-.25-.64-.43-.78-.18-.14-.79-.21-.78-.43.01-.22.64-.25.78-.43Z"/>
      <path class="cls-5" d="m58.75,44.41c.03.38-.25.71-.63.74-.38.03-.71-.25-.74-.62-.03-.38.25-.71.62-.74.38-.03.71.25.75.62Z"/>
    </g>
  </g>
</svg>