<?xml version="1.0" encoding="UTF-8"?>
<svg xmlns="http://www.w3.org/2000/svg" viewBox="0 0 86.8 54.92">
  <defs>
    <style>
      .cls-1 {
        fill: #fff;
      }

      .cls-2 {
        fill: #e67052;
      }

      .cls-3 {
        fill: #8196fc;
      }

      .cls-4 {
        opacity: .2;
      }

      .cls-4, .cls-5 {
        mix-blend-mode: overlay;
      }

      .cls-6 {
        fill: #1d1b3a;
      }

      .cls-7 {
        isolation: isolate;
      }

      .cls-8 {
        fill: #ad3915;
      }

      .cls-9 {
        fill: #7585f8;
      }

      .cls-10 {
        fill: #f28f19;
      }

      .cls-11 {
        fill: #b38cff;
      }

      .cls-5 {
        opacity: .3;
      }

      .cls-12 {
        fill: #872a2a;
      }

      .cls-13 {
        fill: #963734;
      }

      .cls-14 {
        fill: #a07df4;
      }

      .cls-15 {
        fill: #ef60ae;
      }

      .cls-16 {
        fill: #f4a517;
      }

      .cls-17 {
        fill: #be4719;
      }

      .cls-18 {
        fill: #f268b4;
      }
    </style>
  </defs>
  <g class="cls-7">
    <g id="Layer_2" data-name="Layer 2">
      <g id="Layer_1-2" data-name="Layer 1">
        <g>
          <g>
            <g>
              <path class="cls-16" d="m16.28,41.67l.02.36s.23-.01.46-.03c.23-.02.47-.04.47-.04l-.04-.36s-.23.02-.46.04c-.23.01-.46.03-.46.03Z"/>
              <polygon class="cls-16" points="14.92 41.71 14.92 42.06 15.85 42.05 15.84 41.69 14.92 41.71"/>
              <polygon class="cls-16" points="13.55 41.68 13.53 42.03 14.46 42.06 14.47 41.7 13.55 41.68"/>
              <polygon class="cls-16" points="12.19 41.58 12.15 41.93 13.08 42.01 13.1 41.65 12.19 41.58"/>
              <polygon class="cls-16" points="10.83 41.39 10.78 41.75 11.7 41.88 11.74 41.52 10.83 41.39"/>
              <path class="cls-16" d="m9.5,41.12l-.09.35s.23.05.45.1c.23.06.46.1.46.1l.07-.35s-.23-.04-.45-.09c-.22-.05-.45-.1-.45-.1Z"/>
              <path class="cls-16" d="m8.21,40.71l-.12.33s.22.08.44.15c.22.08.45.14.45.14l.1-.34s-.22-.06-.44-.13c-.21-.07-.43-.15-.43-.15Z"/>
            </g>
            <g>
              <path class="cls-16" d="m6.98,40.16l-.17.31s.84.42.85.41l.14-.33s-.82-.39-.82-.39Z"/>
              <path class="cls-16" d="m5.88,39.4l-.23.27s.18.15.37.29c.19.15.39.27.39.27l.19-.3s-.2-.11-.37-.25c-.18-.13-.35-.28-.35-.28Z"/>
              <path class="cls-16" d="m5,38.41l-.3.2s.59.76.6.74l.25-.25s-.58-.67-.56-.69Z"/>
              <path class="cls-16" d="m4.44,37.22l-.34.1s.05.24.16.45c.1.22.2.44.2.44l.32-.17s-.09-.2-.18-.4c-.11-.2-.14-.42-.15-.42Z"/>
              <path class="cls-16" d="m4.23,35.91h-.36s-.02.25.03.49c.03.24.07.47.07.47l.35-.07s-.03-.22-.06-.44c-.05-.22-.03-.45-.03-.45Z"/>
              <path class="cls-16" d="m4.32,34.58l-.35-.06s-.03.24-.05.47c-.02.24-.04.47-.04.47h.36s.02-.21.04-.44c.02-.22.05-.45.05-.45Z"/>
              <path class="cls-16" d="m4.64,33.27l-.34-.11s-.07.22-.14.45c-.05.23-.1.46-.1.46l.35.08s.05-.22.1-.44c.07-.22.14-.43.14-.43Z"/>
            </g>
            <g>
              <polygon class="cls-16" points="5.07 31.96 4.73 31.84 4.44 32.72 4.78 32.84 5.07 31.96"/>
              <polygon class="cls-16" points="5.5 30.65 5.16 30.54 4.87 31.42 5.21 31.53 5.5 30.65"/>
              <polygon class="cls-16" points="5.86 29.31 5.51 29.22 5.28 30.11 5.62 30.21 5.86 29.31"/>
              <path class="cls-16" d="m6.16,27.96l-.35-.07s-.16.9-.18.9l.35.08s.19-.91.19-.91Z"/>
              <path class="cls-16" d="m6.39,26.59l-.35-.04s-.03.23-.05.45c-.04.23-.08.45-.08.45l.35.06s.04-.23.09-.46c.03-.23.06-.46.06-.46Z"/>
              <path class="cls-16" d="m6.52,25.2l-.36-.02s-.08.91-.08.91l.36.04s.1-.93.08-.93Z"/>
              <path class="cls-16" d="m6.52,23.81l-.36.02s0,.91,0,.91h.36s.02-.93,0-.93Z"/>
            </g>
            <g>
              <path class="cls-16" d="m6.37,22.42l-.35.06s.01.06.03.14c.02.08.03.2.04.31.02.23.04.46.04.46l.36-.03s-.02-.23-.04-.47c0-.12-.02-.23-.04-.32-.02-.09-.03-.14-.03-.14Z"/>
              <path class="cls-16" d="m6.05,21.06l-.34.1s.07.22.13.43c.04.22.09.45.09.45l.35-.07s-.05-.23-.09-.46c-.07-.22-.14-.45-.14-.45Z"/>
              <path class="cls-16" d="m5.58,19.75l-.33.14s.35.84.33.85l.34-.11s-.34-.88-.34-.88Z"/>
              <polygon class="cls-16" points="4.98 18.49 4.66 18.66 5.08 19.47 5.4 19.32 4.98 18.49"/>
              <path class="cls-16" d="m4.28,17.29l-.31.19s.12.19.24.39c.12.2.23.4.23.4l.31-.18s-.12-.2-.24-.4c-.12-.2-.24-.4-.24-.4Z"/>
              <polygon class="cls-16" points="3.53 16.13 3.23 16.33 3.73 17.1 4.03 16.91 3.53 16.13"/>
              <polygon class="cls-16" points="2.77 14.98 2.47 15.18 2.98 15.95 3.28 15.75 2.77 14.98"/>
            </g>
            <g>
              <polygon class="cls-16" points="2.04 13.82 1.73 14.01 2.23 14.8 2.52 14.6 2.04 13.82"/>
              <polygon class="cls-16" points="1.35 12.64 1.03 12.81 1.49 13.62 1.8 13.44 1.35 12.64"/>
              <path class="cls-16" d="m.78,11.42l-.33.12s.07.23.17.44c.1.21.2.43.2.43l.32-.16s-.1-.2-.19-.41c-.1-.2-.17-.42-.17-.42Z"/>
              <path class="cls-16" d="m.44,10.13l-.35.06s.2.92.2.92l.34-.1s-.22-.87-.19-.88Z"/>
              <path class="cls-16" d="m.37,8.79l-.36-.02s0,.95,0,.95l.35-.03s-.04-.9,0-.9Z"/>
              <path class="cls-16" d="m.59,7.48l-.34-.1s-.08.23-.11.46c-.04.24-.08.47-.08.47l.36.04s.04-.22.08-.44c.03-.22.11-.44.11-.44Z"/>
              <path class="cls-16" d="m1.08,6.24l-.32-.17s-.11.21-.21.42c-.09.22-.17.44-.17.44l.34.12s.08-.21.16-.42c.1-.2.2-.4.2-.4Z"/>
            </g>
            <g>
              <path class="cls-16" d="m1.82,5.13l-.27-.23s-.15.19-.29.38c-.15.19-.26.39-.26.39l.3.19s.11-.2.25-.37c.14-.18.27-.36.27-.36Z"/>
              <path class="cls-16" d="m2.78,4.2l-.22-.28s-.71.62-.7.64l.26.25s.65-.62.66-.6Z"/>
              <path class="cls-16" d="m3.91,3.49l-.16-.32s-.22.09-.42.22c-.2.12-.4.25-.4.25l.2.3s.19-.12.38-.24c.19-.12.4-.21.4-.21Z"/>
              <path class="cls-16" d="m5.16,3.04l-.08-.35s-.23.06-.46.12c-.23.07-.45.16-.45.16l.13.33s.21-.08.42-.15c.22-.06.43-.12.43-.12Z"/>
              <path class="cls-16" d="m6.48,2.91v-.36s-.95.03-.94.06l.05.35s.89-.08.89-.05Z"/>
              <path class="cls-16" d="m7.79,3.12l.1-.34s-.23-.08-.46-.12c-.23-.04-.47-.08-.47-.08l-.04.35s.22.04.44.08c.22.04.43.11.43.11Z"/>
              <path class="cls-16" d="m8.99,3.68l.19-.3s-.2-.12-.41-.24c-.22-.1-.44-.19-.44-.19l-.13.33s.2.09.41.18c.19.11.38.23.38.23Z"/>
            </g>
            <g>
              <path class="cls-16" d="m10.03,4.51l.25-.25s-.17-.16-.35-.33c-.17-.16-.37-.3-.37-.3l-.21.29s.19.13.35.28c.16.15.33.31.33.31Z"/>
              <path class="cls-16" d="m10.87,5.56l.3-.2s-.13-.2-.27-.39c-.15-.18-.31-.36-.31-.36l-.27.24s.15.17.29.34c.13.19.26.37.26.37Z"/>
              <path class="cls-16" d="m11.54,6.73l.32-.15s-.44-.83-.44-.83l-.31.18s.45.79.43.8Z"/>
              <rect class="cls-16" x="11.89" y="7.02" width=".36" height=".93" transform="translate(-2 5.56) rotate(-24)"/>
              <path class="cls-16" d="m12.71,9.23l.31-.17s-.11-.2-.21-.4c-.11-.2-.21-.41-.21-.41l-.32.15s.1.21.21.42c.11.21.22.41.22.41Z"/>
              <path class="cls-16" d="m13.45,10.41l.29-.21s-.13-.19-.25-.38c-.12-.19-.24-.38-.24-.38l-.31.19s.13.2.25.39c.13.2.26.39.26.39Z"/>
              <path class="cls-16" d="m14.35,11.49l.26-.25s-.16-.17-.31-.33c-.14-.18-.28-.36-.28-.36l-.28.22s.14.18.29.37c.16.17.32.34.32.34Z"/>
            </g>
            <g>
              <path class="cls-16" d="m15.39,12.43l.21-.29s-.69-.58-.69-.58l-.24.26s.71.63.72.61Z"/>
              <path class="cls-16" d="m16.59,13.17l.16-.32s-.8-.43-.78-.45l-.2.3s.82.47.82.47Z"/>
              <path class="cls-16" d="m17.92,13.65l.09-.35s-.22-.06-.43-.13c-.22-.07-.42-.16-.42-.16l-.14.33s.22.1.44.17c.23.07.46.13.46.13Z"/>
              <path class="cls-16" d="m19.31,13.88l.03-.36s-.23-.02-.45-.04c-.22-.04-.44-.08-.44-.08l-.07.35s.23.04.47.09c.23.02.47.04.47.04Z"/>
              <path class="cls-16" d="m20.71,13.88l-.03-.36s-.23.03-.45.03h-.45v.36s.23,0,.46,0c.24,0,.47-.03.47-.03Z"/>
              <path class="cls-16" d="m22.09,13.67l-.07-.35s-.22.06-.45.09c-.22.03-.45.07-.45.07l.04.35s.23-.03.46-.07c.23-.03.46-.09.46-.09Z"/>
              <path class="cls-16" d="m23.44,13.32l-.11-.34s-.22.07-.44.13c-.22.06-.44.12-.44.12l.08.35s.23-.06.45-.13c.23-.06.45-.13.45-.13Z"/>
            </g>
            <g>
              <path class="cls-16" d="m24.75,12.83l-.14-.33s-.21.08-.43.17c-.21.09-.43.16-.43.16l.12.34s.22-.07.44-.16c.22-.09.43-.17.43-.17Z"/>
              <path class="cls-16" d="m26.01,12.25l-.16-.32s-.21.1-.41.2c-.21.1-.42.19-.42.19l.14.32s.21-.1.43-.19c.21-.1.42-.21.42-.21Z"/>
              <path class="cls-16" d="m27.23,11.58l-.18-.31s-.2.12-.4.23c-.2.11-.4.22-.4.22l.17.32s.21-.11.41-.22c.2-.12.4-.23.4-.23Z"/>
              <path class="cls-16" d="m28.4,10.85l-.2-.3s-.19.13-.38.25c-.19.12-.39.24-.39.24l.19.3s.2-.12.39-.25c.2-.13.39-.25.39-.25Z"/>
              <polygon class="cls-16" points="29.54 10.06 29.33 9.77 28.58 10.3 28.78 10.6 29.54 10.06"/>
              <path class="cls-16" d="m30.63,9.21l-.23-.28s-.18.14-.36.29c-.18.14-.36.28-.36.28l.22.28s.18-.14.37-.28c.18-.15.36-.29.36-.29Z"/>
              <path class="cls-16" d="m31.68,8.29l-.24-.26s-.17.16-.34.31c-.17.15-.35.3-.35.3l.23.27s.17-.15.35-.31c.17-.16.34-.31.34-.31Z"/>
            </g>
            <g>
              <path class="cls-16" d="m32.71,7.4l-.22-.28s-.18.15-.36.3c-.18.15-.35.31-.35.31l.24.26s.16-.16.34-.3c.18-.14.35-.29.35-.29Z"/>
              <path class="cls-16" d="m33.82,6.64l-.18-.31s-.2.12-.4.25c-.2.13-.38.27-.38.27l.21.29s.18-.14.37-.26c.19-.12.39-.24.39-.24Z"/>
              <path class="cls-16" d="m35.03,6.03l-.14-.33s-.22.08-.43.19c-.21.11-.42.22-.42.22l.17.31s.2-.1.4-.21c.2-.1.41-.18.41-.18Z"/>
              <path class="cls-16" d="m36.3,5.61l-.08-.35s-.91.26-.91.26l.12.34s.86-.27.87-.25Z"/>
              <path class="cls-16" d="m37.63,5.48v-.36s-.23,0-.47.01c-.24,0-.47.06-.47.05l.05.35s.22-.06.44-.05c.22,0,.45-.01.45-.01Z"/>
              <path class="cls-16" d="m38.94,5.66l.09-.34s-.22-.1-.46-.11c-.24-.03-.47-.06-.47-.06l-.03.36s.22.03.44.06c.23.01.43.12.43.1Z"/>
              <path class="cls-16" d="m40.17,6.16l.17-.31s-.21-.11-.42-.21c-.11-.05-.21-.1-.3-.14-.09-.03-.14-.04-.14-.04l-.12.34s.05.02.13.04c.08.04.18.09.28.14.2.1.4.2.4.2Z"/>
            </g>
            <g>
              <path class="cls-16" d="m41.26,6.94l.23-.27s-.17-.16-.37-.29c-.19-.14-.38-.28-.38-.28l-.2.3s.18.13.36.26c.19.13.36.27.35.28Z"/>
              <path class="cls-16" d="m42.19,7.91l.27-.23s-.13-.2-.3-.36c-.17-.17-.34-.33-.34-.33l-.25.26s.16.16.32.32c.17.15.29.35.29.34Z"/>
              <path class="cls-16" d="m42.99,9l.3-.2s-.11-.21-.26-.39c-.15-.18-.29-.37-.29-.37l-.28.22s.14.18.28.36c.14.18.25.38.25.38Z"/>
              <polygon class="cls-16" points="43.7 10.16 44.01 9.99 43.53 9.19 43.22 9.38 43.7 10.16"/>
              <path class="cls-16" d="m44.45,11.34l.29-.21s-.49-.77-.49-.77l-.3.19s.48.81.5.79Z"/>
              <path class="cls-16" d="m45.35,12.42l.26-.25s-.59-.69-.59-.69l-.28.22s.58.74.61.72Z"/>
              <path class="cls-16" d="m46.41,13.34l.21-.29s-.19-.12-.36-.26c-.16-.16-.33-.31-.33-.31l-.24.26s.17.16.34.32c.18.15.38.28.38.28Z"/>
            </g>
            <g>
              <path class="cls-16" d="m47.63,14.05l.14-.33s-.81-.38-.79-.42l-.19.3s.84.44.84.44Z"/>
              <path class="cls-16" d="m48.97,14.48l.07-.35s-.86-.25-.86-.25l-.12.34s.91.3.91.26Z"/>
              <path class="cls-16" d="m50.37,14.63v-.36s-.22,0-.45-.01c-.23,0-.45-.06-.45-.05l-.05.35s.06,0,.14.02c.09.02.21.03.33.03.24,0,.47.01.47.01Z"/>
              <path class="cls-16" d="m51.77,14.52l-.06-.35s-.9.09-.9.1l.02.36s.94-.07.94-.1Z"/>
              <path class="cls-16" d="m53.14,14.22l-.1-.34s-.22.06-.44.11c-.22.06-.44.1-.44.1l.07.35s.23-.05.46-.11c.23-.06.45-.12.45-.12Z"/>
              <path class="cls-16" d="m54.46,13.77l-.13-.33s-.21.08-.43.16c-.21.08-.43.15-.43.15l.11.34s.23-.06.44-.15c.22-.08.44-.16.44-.16Z"/>
              <polygon class="cls-16" points="55.73 13.23 55.59 12.91 54.74 13.27 54.88 13.6 55.73 13.23"/>
            </g>
            <g>
              <path class="cls-16" d="m57,12.81l-.07-.35s-.23.04-.46.11c-.23.08-.45.15-.45.15l.13.33s.21-.07.42-.14c.21-.06.44-.1.44-.1Z"/>
              <path class="cls-16" d="m58.34,12.64l-.02-.36s-.23,0-.47.04c-.23.03-.47.06-.47.06l.05.35s.23-.03.45-.06c.23-.03.45-.03.45-.03Z"/>
              <polygon class="cls-16" points="59.7 12.62 59.71 12.27 58.78 12.26 58.79 12.62 59.7 12.62"/>
              <path class="cls-16" d="m61.04,12.76l.06-.35s-.23-.04-.46-.07c-.23-.02-.47-.04-.47-.04l-.03.36s.23.02.45.04c.23.03.45.07.45.07Z"/>
              <path class="cls-16" d="m62.36,13.05l.1-.34s-.91-.25-.91-.22l-.07.35s.88.22.88.22Z"/>
              <path class="cls-16" d="m63.63,13.52l.15-.32s-.88-.35-.88-.35l-.11.34s.85.31.84.34Z"/>
              <path class="cls-16" d="m64.78,14.2l.21-.29s-.19-.14-.38-.28c-.21-.11-.42-.22-.42-.22l-.17.31s.2.11.4.21c.18.13.36.27.36.27Z"/>
            </g>
            <g>
              <path class="cls-16" d="m65.77,15.09l.27-.24s-.17-.17-.33-.34c-.16-.18-.34-.33-.35-.33l-.23.27s.18.14.33.31c.16.16.31.32.31.32Z"/>
              <polygon class="cls-16" points="66.54 16.18 66.86 16.01 66.33 15.21 66.05 15.43 66.54 16.18"/>
              <path class="cls-16" d="m67.03,17.42l.34-.1s-.33-.89-.33-.89l-.32.15s.36.82.32.84Z"/>
              <path class="cls-16" d="m67.29,18.74l.35-.04s.01-.24-.05-.47c-.05-.23-.11-.46-.11-.46l-.35.08s.05.22.1.44c.07.22.04.45.05.45Z"/>
              <path class="cls-16" d="m67.34,20.08h.36s-.03-.93-.03-.93l-.36.02s.06.91.03.9Z"/>
              <path class="cls-16" d="m67.15,21.41l.35.08s.05-.23.1-.46c.06-.23.05-.47.06-.47l-.35-.04s0,.23-.06.45c-.05.22-.1.44-.1.44Z"/>
              <polygon class="cls-16" points="66.75 22.69 67.08 22.83 67.39 21.94 67.05 21.84 66.75 22.69"/>
            </g>
            <g>
              <path class="cls-16" d="m66.11,23.87l.3.19s.15-.19.24-.4c.11-.21.22-.42.22-.42l-.32-.16s-.41.81-.44.79Z"/>
              <path class="cls-16" d="m65.29,24.94l.26.24s.16-.17.32-.35c.15-.18.28-.38.28-.38l-.29-.21s-.12.19-.26.37c-.15.17-.31.33-.31.33Z"/>
              <path class="cls-16" d="m64.31,25.85l.22.28s.18-.15.37-.3c.09-.07.18-.15.25-.2.06-.07.1-.11.1-.11l-.25-.26s-.04.04-.1.1c-.07.05-.15.12-.24.2-.17.14-.35.28-.35.28Z"/>
              <polygon class="cls-16" points="63.18 26.58 63.35 26.89 64.16 26.41 63.96 26.12 63.18 26.58"/>
              <polygon class="cls-16" points="61.95 27.11 62.06 27.45 62.93 27.1 62.78 26.77 61.95 27.11"/>
              <polygon class="cls-16" points="60.64 27.44 60.7 27.79 61.61 27.57 61.52 27.23 60.64 27.44"/>
              <polygon class="cls-16" points="59.29 27.56 59.31 27.92 60.24 27.84 60.2 27.48 59.29 27.56"/>
            </g>
            <g>
              <polygon class="cls-16" points="57.94 27.52 57.91 27.87 58.85 27.92 58.85 27.56 57.94 27.52"/>
              <polygon class="cls-16" points="56.6 27.32 56.53 27.67 57.45 27.84 57.5 27.48 56.6 27.32"/>
              <path class="cls-16" d="m55.27,27.02l-.09.35s.22.07.45.13c.11.04.22.06.31.07.09.02.14.03.14.03l.08-.35s-.06,0-.14-.03c-.09-.01-.2-.04-.31-.07-.22-.07-.44-.13-.44-.13Z"/>
              <polygon class="cls-16" points="53.97 26.62 53.85 26.96 54.74 27.23 54.85 26.89 53.97 26.62"/>
              <polygon class="cls-16" points="52.71 26.1 52.57 26.43 53.43 26.78 53.55 26.45 52.71 26.1"/>
              <path class="cls-16" d="m51.47,25.52l-.16.32s.21.11.41.22c.2.11.42.19.42.19l.15-.32s-.22-.08-.42-.19c-.2-.1-.41-.21-.41-.21Z"/>
              <polygon class="cls-16" points="50.26 24.89 50.08 25.2 50.91 25.63 51.07 25.32 50.26 24.89"/>
            </g>
          </g>
          <g>
            <path class="cls-16" d="m54.97,12.19v-5.25c0-.67-.54-1.22-1.21-1.22h-9.95c-.67,0-1.21.54-1.21,1.22v.02c0,.68.56,1.23,1.24,1.22l.98-.02c.69-.01,1.25.56,1.23,1.25l-.08,2.73c-.02.69.53,1.25,1.21,1.25h6.58c.67,0,1.21-.54,1.21-1.22h0Z"/>
            <path class="cls-18" d="m45.26,11.77h10.68c1.23,0,2.24,1,2.24,2.24v14.02c0,1.23-1,2.24-2.24,2.24h-10.68c-1.23,0-2.24-1-2.24-2.24v-14.02c0-1.23,1-2.24,2.24-2.24Z"/>
            <path class="cls-16" d="m42.46,18.24h16.29c1.23,0,2.23,1,2.23,2.23v29.31c0,1.23-1,2.23-2.23,2.23h-16.29c-1.23,0-2.24-1-2.24-2.24v-29.31c0-1.23,1-2.24,2.24-2.24Z"/>
            <path class="cls-10" d="m47.67,22.23h6.11c1.23,0,2.24,1,2.24,2.24v15.01c0,1.23-1,2.24-2.24,2.24h-6.11c-1.23,0-2.23-1-2.23-2.23v-15.01c0-1.23,1-2.23,2.23-2.23Z"/>
            <path class="cls-5" d="m46.62,43.37c-2.26,0-4.41-.43-6.4-1.21v7.63c0,1.24,1,2.23,2.23,2.23h16.29c1.24,0,2.24-1,2.24-2.23v-28.98c-1.49,12.47-8.43,22.56-14.37,22.56Z"/>
          </g>
          <path class="cls-18" d="m60.92,9.04c.03.38-.25.71-.63.74-.38.03-.71-.25-.74-.62-.03-.38.25-.71.62-.74.38-.03.71.25.75.62Z"/>
          <g>
            <rect class="cls-11" x="6.78" y="37.96" width="21.55" height="4.3" transform="translate(-25.48 32.07) rotate(-55.78)"/>
            <path class="cls-14" d="m28.14,34.04c-.24.36-.73.45-1.09.21l-7.31-4.97c-.36-.24-.45-.73-.21-1.09l.26-.38c.24-.36.73-.45,1.09-.21l7.31,4.97c.36.24.45.73.21,1.09l-.26.38Z"/>
            <path class="cls-14" d="m37.84,3.62h1.51c.43,0,.78.35.78.78v9.26c0,.43-.35.78-.78.78h-1.51c-.43,0-.78-.35-.78-.78V4.4c0-.43.35-.78.78-.78Z" transform="translate(9.43 35.88) rotate(-55.8)"/>
            <path class="cls-11" d="m30.53,32.97c-.49.72-1.46.9-2.17.42l-8.52-5.79c-.72-.49-.9-1.46-.41-2.17l13.27-19.52c.48-.71,1.46-.9,2.17-.41l8.52,5.79c.71.49.9,1.46.41,2.17l-13.27,19.52Z"/>
            <g>
              <rect class="cls-9" x="42.95" y="11.88" width=".35" height="2.93" transform="translate(7.84 41.5) rotate(-55.79)"/>
              <path class="cls-3" d="m44.89,14.55c-.16.23-.48.3-.71.14-.23-.16-.3-.48-.14-.71.16-.23.48-.29.71-.13.23.16.29.48.13.71Z"/>
              <polygon class="cls-9" points="42.92 16.25 40.49 14.6 40.69 14.32 43.11 15.96 42.92 16.25"/>
              <path class="cls-3" d="m43.57,16.49c-.16.23-.48.3-.71.14-.23-.16-.3-.48-.14-.71.16-.23.48-.29.71-.14.23.16.29.48.13.71Z"/>
              <polygon class="cls-9" points="41.6 18.2 39.17 16.55 39.37 16.26 41.79 17.91 41.6 18.2"/>
              <path class="cls-3" d="m42.25,18.43c-.16.23-.48.3-.71.14-.23-.16-.3-.48-.14-.71.16-.23.48-.3.71-.14.23.16.29.48.14.71Z"/>
              <polygon class="cls-9" points="40.28 20.14 37.85 18.49 38.05 18.2 40.47 19.85 40.28 20.14"/>
              <path class="cls-3" d="m40.93,20.37c-.16.23-.48.3-.71.14-.24-.16-.3-.48-.14-.71.16-.24.48-.29.71-.14.23.16.29.48.13.71Z"/>
              <rect class="cls-9" x="37.67" y="19.64" width=".35" height="2.94" transform="translate(-.89 40.54) rotate(-55.79)"/>
              <path class="cls-3" d="m39.61,22.31c-.16.23-.48.3-.71.14-.23-.16-.29-.48-.14-.71.16-.23.48-.29.71-.14.23.16.29.48.13.71Z"/>
              <rect class="cls-9" x="36.35" y="21.58" width=".35" height="2.93" transform="translate(-3.07 40.3) rotate(-55.79)"/>
              <path class="cls-3" d="m38.3,24.25c-.16.23-.48.3-.71.14-.23-.16-.3-.48-.14-.71.16-.23.48-.29.71-.14.23.16.29.48.14.71Z"/>
              <polygon class="cls-9" points="36.32 25.96 33.89 24.31 34.09 24.02 36.51 25.67 36.32 25.96"/>
              <path class="cls-3" d="m36.98,26.19c-.16.23-.48.3-.71.14-.23-.16-.3-.48-.14-.71.16-.23.48-.29.72-.13.23.16.29.48.13.71Z"/>
              <rect class="cls-9" x="33.71" y="25.46" width=".35" height="2.93" transform="translate(-7.44 39.81) rotate(-55.79)"/>
              <path class="cls-3" d="m35.66,28.14c-.16.23-.48.3-.71.14-.23-.16-.29-.48-.14-.71.16-.23.48-.29.71-.13.23.16.29.48.14.71Z"/>
              <rect class="cls-9" x="32.39" y="27.41" width=".35" height="2.93" transform="translate(-9.62 39.59) rotate(-55.81)"/>
              <path class="cls-3" d="m34.34,30.08c-.16.23-.48.3-.71.14-.23-.16-.3-.48-.14-.71.16-.23.48-.3.71-.14.23.16.29.48.14.71Z"/>
              <polygon class="cls-9" points="32.36 31.78 29.93 30.13 30.13 29.84 32.56 31.5 32.36 31.78"/>
              <path class="cls-3" d="m33.02,32.02c-.16.23-.48.29-.71.14-.23-.16-.29-.48-.14-.71.16-.24.48-.29.71-.14.23.16.29.48.13.71Z"/>
              <rect class="cls-9" x="29.75" y="31.29" width=".35" height="2.93" transform="translate(-13.99 39.1) rotate(-55.81)"/>
              <path class="cls-3" d="m31.7,33.96c-.16.24-.48.3-.71.14-.23-.16-.29-.48-.14-.71.16-.23.48-.3.71-.14.23.16.29.48.13.71Z"/>
            </g>
            <rect class="cls-9" x="32.5" y="4.78" width=".35" height="2.93" transform="translate(9.14 29.76) rotate(-55.8)"/>
            <path class="cls-3" d="m30.91,5.04c-.16.23-.1.55.14.71.23.16.55.1.71-.14.16-.23.1-.55-.14-.71-.23-.16-.55-.1-.71.14Z"/>
            <path class="cls-9" d="m34.42,7.43c-.16.23-.1.55.13.71.24.16.55.1.71-.13.16-.23.1-.56-.14-.71-.23-.16-.55-.1-.71.14Z"/>
            <path class="cls-9" d="m37.66,9.63c-.16.23-.1.55.13.71.23.16.55.1.71-.14.16-.23.1-.55-.14-.71-.23-.16-.55-.1-.71.14Z"/>
            <path class="cls-9" d="m40.89,11.83c-.16.23-.1.55.13.71.23.16.55.1.71-.14.16-.23.1-.55-.14-.71-.23-.16-.55-.1-.71.14Z"/>
            <path class="cls-9" d="m32.66,10.02c-.16.23-.1.55.13.71.24.16.55.1.71-.14.16-.23.1-.55-.14-.71-.23-.16-.55-.1-.71.14Z"/>
            <path class="cls-9" d="m35.9,12.22c-.16.23-.1.55.13.71.24.16.56.1.71-.13.16-.23.1-.56-.14-.71-.23-.16-.55-.1-.71.14Z"/>
            <path class="cls-9" d="m39.13,14.42c-.16.23-.1.55.14.71.23.16.55.1.71-.14.16-.23.1-.55-.14-.71-.23-.16-.55-.1-.71.14Z"/>
            <path class="cls-9" d="m30.9,12.61c-.16.23-.1.55.14.71.24.16.55.1.71-.13.16-.24.1-.55-.13-.71-.23-.16-.55-.1-.71.14Z"/>
            <path class="cls-9" d="m34.14,14.81c-.16.23-.1.55.13.71.23.16.56.1.71-.14.16-.23.1-.55-.14-.71-.23-.16-.55-.1-.71.14Z"/>
            <path class="cls-9" d="m37.37,17c-.16.23-.1.55.13.71.23.16.55.1.71-.14.16-.23.1-.55-.14-.71-.23-.16-.55-.1-.71.14Z"/>
            <path class="cls-9" d="m29.14,15.19c-.16.23-.1.55.14.71.23.16.55.1.71-.13.16-.23.1-.55-.14-.71-.24-.16-.55-.1-.71.14Z"/>
            <path class="cls-9" d="m32.38,17.39c-.16.23-.1.55.13.71.23.16.55.1.71-.14.16-.23.1-.55-.14-.71-.23-.16-.55-.1-.71.14Z"/>
            <path class="cls-9" d="m35.61,19.59c-.16.23-.1.55.13.71.24.16.56.1.71-.13.16-.24.1-.55-.14-.71-.23-.16-.55-.1-.71.14Z"/>
            <path class="cls-9" d="m27.38,17.78c-.16.23-.1.55.14.71.23.16.55.1.71-.14.16-.23.1-.55-.14-.71-.23-.16-.55-.1-.71.14Z"/>
            <path class="cls-9" d="m30.62,19.98c-.16.23-.1.55.14.71.23.16.55.1.71-.14.16-.23.1-.56-.13-.71-.23-.16-.55-.1-.71.14Z"/>
            <path class="cls-9" d="m33.85,22.18c-.16.23-.1.55.13.71.23.16.55.1.71-.14.16-.23.1-.55-.14-.71-.23-.16-.55-.1-.71.14Z"/>
            <path class="cls-9" d="m25.62,20.37c-.16.24-.1.55.14.71.23.16.55.1.71-.13.16-.24.1-.55-.14-.71-.24-.16-.55-.1-.71.14Z"/>
            <path class="cls-9" d="m28.86,22.57c-.16.23-.1.55.14.71.23.16.55.1.71-.14.16-.23.1-.55-.14-.71-.23-.16-.55-.1-.71.14Z"/>
            <path class="cls-9" d="m32.09,24.77c-.16.24-.1.55.13.71.23.16.55.1.71-.14.16-.23.1-.55-.14-.71-.23-.16-.55-.1-.71.14Z"/>
            <path class="cls-9" d="m23.86,22.96c-.16.23-.1.55.13.71.23.16.55.1.71-.14.16-.23.1-.55-.14-.71-.23-.16-.55-.1-.71.14Z"/>
            <path class="cls-9" d="m27.1,25.16c-.16.23-.1.55.14.71.23.16.55.1.71-.13.16-.23.1-.56-.14-.71-.23-.16-.55-.1-.71.14Z"/>
            <path class="cls-9" d="m30.33,27.36c-.16.23-.1.55.14.71.23.16.55.1.71-.14.16-.23.1-.55-.13-.71-.23-.16-.55-.1-.71.14Z"/>
            <path class="cls-9" d="m22.1,25.55c-.16.24-.1.55.13.71.24.16.56.1.71-.14.16-.23.1-.55-.14-.71-.23-.16-.55-.1-.71.14Z"/>
            <path class="cls-9" d="m25.34,27.75c-.16.23-.1.55.13.71.23.16.55.1.71-.14.16-.23.1-.56-.14-.71-.23-.16-.55-.1-.71.14Z"/>
            <path class="cls-9" d="m28.57,29.95c-.16.23-.1.55.14.71.23.16.55.1.71-.14.16-.23.1-.55-.13-.71-.24-.16-.55-.1-.71.14Z"/>
            <polygon class="cls-9" points="30.05 7.51 32.47 9.16 32.67 8.87 30.24 7.22 30.05 7.51"/>
            <path class="cls-3" d="m29.59,6.98c-.16.23-.1.55.14.71.23.16.55.1.71-.14.16-.23.1-.55-.14-.71-.23-.16-.55-.1-.71.14Z"/>
            <rect class="cls-9" x="29.86" y="8.66" width=".35" height="2.93" transform="translate(4.78 29.28) rotate(-55.8)"/>
            <path class="cls-3" d="m28.27,8.92c-.16.23-.1.55.13.71.24.16.55.1.71-.14.16-.23.1-.55-.14-.71-.23-.16-.55-.1-.71.14Z"/>
            <rect class="cls-9" x="28.54" y="10.6" width=".35" height="2.93" transform="translate(2.6 29.04) rotate(-55.81)"/>
            <path class="cls-3" d="m26.95,10.86c-.16.23-.1.55.14.71.23.16.55.1.71-.14.16-.23.1-.56-.13-.71-.24-.16-.55-.1-.71.14Z"/>
            <rect class="cls-9" x="27.22" y="12.54" width=".35" height="2.93" transform="translate(.41 28.79) rotate(-55.79)"/>
            <path class="cls-3" d="m25.63,12.81c-.16.23-.1.55.14.71.23.16.55.1.71-.13.16-.24.1-.56-.14-.71-.23-.16-.55-.1-.71.14Z"/>
            <polygon class="cls-9" points="24.77 15.27 27.2 16.92 27.39 16.63 24.97 14.98 24.77 15.27"/>
            <path class="cls-3" d="m24.31,14.75c-.16.23-.1.55.13.71.23.16.55.1.71-.14.16-.23.1-.55-.14-.71-.24-.16-.55-.1-.71.14Z"/>
            <rect class="cls-9" x="24.59" y="16.43" width=".35" height="2.93" transform="translate(-3.95 28.32) rotate(-55.81)"/>
            <path class="cls-3" d="m22.99,16.69c-.16.23-.1.55.13.71.23.16.55.1.71-.14.16-.23.1-.55-.14-.71-.23-.16-.55-.1-.71.14Z"/>
            <rect class="cls-9" x="23.27" y="18.37" width=".35" height="2.93" transform="translate(-6.14 28.08) rotate(-55.81)"/>
            <path class="cls-3" d="m21.67,18.63c-.16.23-.1.55.14.71.23.16.55.1.71-.14.16-.23.1-.55-.14-.71-.23-.16-.55-.1-.71.14Z"/>
            <polygon class="cls-9" points="20.81 21.1 23.24 22.74 23.43 22.45 21.01 20.81 20.81 21.1"/>
            <path class="cls-3" d="m20.35,20.57c-.16.23-.1.55.13.71.23.16.55.1.71-.13.16-.23.1-.55-.14-.71-.24-.16-.55-.1-.71.14Z"/>
            <rect class="cls-9" x="20.63" y="22.25" width=".35" height="2.93" transform="translate(-10.51 27.57) rotate(-55.76)"/>
            <path class="cls-3" d="m19.03,22.51c-.16.23-.1.55.13.71.24.16.55.1.71-.14.16-.23.1-.55-.14-.71-.23-.16-.55-.1-.71.14Z"/>
            <polygon class="cls-9" points="18.17 24.98 20.6 26.63 20.79 26.34 18.37 24.69 18.17 24.98"/>
            <path class="cls-3" d="m17.71,24.45c-.16.23-.1.55.14.71.23.16.55.1.71-.13.16-.24.1-.55-.14-.71-.23-.16-.55-.1-.71.14Z"/>
            <path class="cls-4" d="m28.37,33.39c.71.49,1.69.3,2.17-.41l13.27-19.52c.21-.31.29-.67.26-1.01-3.74,3.75-14,13.12-24.66,14.71.11.18.26.33.44.46l8.52,5.79Z"/>
          </g>
          <path class="cls-16" d="m8.25,11.17c.14-.17.2-.78.43-.78s.27.62.42.78c.16.16.79.2.78.43-.01.22-.64.25-.78.43-.14.17-.21.79-.42.78-.22-.01-.25-.64-.43-.78-.18-.14-.8-.21-.78-.43.01-.22.64-.25.78-.43Z"/>
          <path class="cls-4" d="m5.48,8.96c.03.38-.25.71-.63.74-.38.03-.71-.25-.74-.62-.04-.38.24-.71.62-.74.38-.03.71.25.74.63Z"/>
          <path class="cls-3" d="m49.13,2.39c-.67,0-1.21-.54-1.21-1.19s.54-1.19,1.21-1.19,1.21.53,1.21,1.19-.54,1.19-1.21,1.19Zm0-2.06c-.48,0-.88.39-.88.87s.39.86.88.86.88-.39.88-.86-.39-.87-.88-.87Z"/>
          <path class="cls-16" d="m1.24,27.49c.14-.17.21-.78.43-.78s.27.62.43.78c.16.16.79.2.78.43-.01.22-.64.25-.78.43-.14.17-.21.79-.43.78-.22-.01-.25-.64-.43-.78-.18-.14-.79-.21-.78-.43.01-.22.64-.25.78-.43Z"/>
          <g>
            <g>
              <path class="cls-17" d="m73.51,42.27c-.19-.59-1.79-2.88-3.13-.24-1.34,2.64-.6,10.81-.11,11.57.5.76,1.68-.25,1.68-.25,0,0,2.71-7.52,1.55-11.08Z"/>
              <path class="cls-17" d="m72.05,53.1s-.25.94-.59,1.45c-.42.62-3.65-.02-2.79-.66.71-.52,1.81-.31,1.81-.64,0-.33,1.57-.15,1.57-.15Z"/>
            </g>
            <path class="cls-15" d="m79.28,33.1c-1.44.45-6.77,5.07-8.4,7.96-.02,0-.03,0-.03,0,0,0-2.44,3.21-.97,11.15,0,0,.86,1.29,2.63.62,0,0,.03-5.11,3.88-9.16.01-.01,4.97-4.69,6.09-6.17,1.26-1.66-.8-5.16-3.2-4.41Z"/>
            <path class="cls-6" d="m78.96,38.46s-.25,1.95-1.42,4.12l3.09-3.05-.54-2.48-1.13,1.41Z"/>
            <g>
              <path class="cls-17" d="m82.52,41.21c-.47-.46-3.11-1.8-3.14,1.33-.03,3.13,4.6,10.4,5.45,10.86.85.47,1.5-1.08,1.5-1.08,0,0-.98-8.37-3.81-11.12Z"/>
              <path class="cls-17" d="m86.29,52.06s.21,1,.12,1.65c-.1.79-3.54,1.8-3.01.78.43-.85,1.61-1.19,1.45-1.5-.17-.31,1.44-.92,1.44-.92Z"/>
            </g>
            <path class="cls-18" d="m80.49,31.06s-1.49,7.51-1.17,11.38c.02.62.31,3.76,4.37,9.62,0,0,1.39.79,2.71-.64,0,0-1.29-6.35-1.05-9.61.28-3.69,1.44-6.9,1.45-8.23.03-6.12-4.36-3.79-6.31-2.51Z"/>
            <path class="cls-1" d="m85.88,51.87l-.2.12c-1.01-2.56-1.54-5.65-1.89-8-.3-1.99-.63-4.25-.6-6.46.03-2.42.53-4.55,1.46-6.32.02-.03.07-.05.11-.03.04.01.06.05.05.09-.93,1.76-1.42,3.87-1.45,6.27-.03,2.21.3,4.46.6,6.44.36,2.36.89,5.3,1.93,7.88Z"/>
            <path class="cls-13" d="m75.01,22.23s3.79,1.59,1.6,4.09c0,0,3.24-1.66.99-4.66l-2.59.57Z"/>
            <path class="cls-12" d="m74.75,22.99s1.16.38.3,1.81c0,0,1.75-.04,1.56,1.52,0,0,2.28-2.07-1.17-3.88l-.69.54Z"/>
            <path class="cls-17" d="m72.45,25.52c-.35.22-.69,1.08-.24,2.17.61,1.46,2.66,3.63,2.36,5.8-.3,2.17-1.67,2.74-2.54,3.24-.87.5-1.45.28-1.93.63-.48.35-.04.89,1.54.43.76-.22,4.63-.87,5.47-3.4,1.09-3.31-2.55-10.19-4.66-8.88Z"/>
            <path class="cls-2" d="m78.02,24.56s.04,1.42.29,2.33c.25.91,1.92,2.94,1.92,2.94l1.63-1.7-3.85-3.58Z"/>
            <path class="cls-10" d="m72.87,25.02s1.26-.15,2.35,2.04c1.29,2.57,1.38,3.91,1.38,3.91,0,0-.61,1.21-3.55,1.38,0,0-2.83-6.61-.18-7.33Z"/>
            <path class="cls-6" d="m70.14,21.28c-.29,1.59,4.21,2.54,2.72,5.69-.49,1.04,1.09,3.19,3.56.91,2.46-2.28,3.17-5.07-.65-8.08-3-2.37-5.35-.07-5.63,1.48Z"/>
            <path class="cls-17" d="m73.07,27.23c-1.26-2.22.54-3.4,3.06-4.3,1.59-.56,4.22-1.4,4.9,2.27.47,2.56.68,3.94,3.34,5.15.35.16-.36-.25,0,0-.87,1.56-2.11,1.53-3.59,2.77-1.1.92-2.16,1.13-3.39,1.69-.74-1.74.39-.36.35-.47-1.16-3.28-3.61-5.22-4.68-7.1Z"/>
            <path class="cls-16" d="m77.13,34.88c-.78-2.09-.8-2.5-2.1-3.04-2.91-1.2-2.52-6.71-2.52-6.71l.71-.67c-.14,3.85.97,4.45,1.73,4.05,2.53-1.33,1.27-5.62,1.27-5.62l.95-.3s-.18,1.67,1.29,3.74c1.77,2.49,3.09,1.01,3.09,1.01.5.9.29,1.36,1.85,2.4,0,0,1.27.53,1.27.53-1.34,2.49-6.43,5.96-7.55,4.61Z"/>
            <path class="cls-8" d="m73.64,21.53s.74,1.51,1.65,1.75c.58.16-.74,2.85-1.12,2.31-.49-.7-.45-1.41-1.49-1.79l.96-2.27Z"/>
            <path class="cls-17" d="m70.67,20.94c-.07,1.02,1.44,3.85,2.48,3.81.46-.01,1.26-1.22.99-2.82-.11-.66-.48-1.73-1.62-2.12-.51-.18-1.77-.06-1.85,1.13Z"/>
            <path class="cls-6" d="m70.6,21.72c.24.38.41.57,1.05-.15.78-.89,1.23-.11,1.35.19.34.88.77-.7,1.16.36.39,1.06.5-.75.48-.94-.02-.19-.2-.96-1.71-1.62-1.51-.66-3.09.99-2.33,2.15Z"/>
            <path class="cls-6" d="m80.82,28.69s3.09,2.71-.61,5.51l.58.59,3.36-4.66-2.79-3.52-.54,2.08Z"/>
            <g>
              <path class="cls-10" d="m35.44,53.59c-.48,0-.89-.34-.99-.8l-1.04-4.81c-.12-.55.23-1.09.78-1.21l5.23-1.13c.54-.11,1.09.24,1.21.78l1.04,4.8c.12.55-.23,1.09-.78,1.21l-5.23,1.13c-.07.02-.14.02-.21.02Zm4.19-7.08l-5.25,1.13c-.07.02-.11.08-.1.15l1.04,4.81c.01.07.08.12.15.1l5.23-1.13c.07-.02.11-.08.1-.16l-1.04-4.8c-.01-.07-.07-.1-.13-.1Z"/>
              <path class="cls-15" d="m10.49,50.05h8.45c.32,0,.57.26.57.57v1.63c0,.32-.26.57-.57.57h-8.45c-.32,0-.57-.26-.57-.57v-1.62c0-.32.26-.57.57-.57Z" transform="translate(-10.54 4.27) rotate(-12.2)"/>
              <path class="cls-18" d="m45.9,46.75c.07.31-.13.61-.44.68l-32,6.92c-.31.06-.61-.13-.68-.44l-.85-3.92c-.07-.31.13-.62.44-.68l32-6.92c.31-.07.61.13.68.44l.85,3.92Z"/>
              <path class="cls-5" d="m13.46,54.35l32-6.92c.31-.07.5-.36.44-.67l-.3-1.4c-.07-.31-.37-.51-.68-.44l-32,6.92c-.31.07-.5.37-.44.67l.3,1.39c.07.31.37.5.68.44Z"/>
              <path class="cls-9" d="m81.52,40.67c.07.31-.13.62-.44.68l-37.12,8.03c-.31.06-.61-.13-.68-.44l-1.46-6.74c-.07-.31.13-.61.44-.68l37.12-8.02c.31-.07.62.13.68.44l1.46,6.73Z"/>
              <rect class="cls-10" x="33.68" y="47.43" width=".89" height="3.48" transform="translate(-9.62 8.32) rotate(-12.21)"/>
              <path class="cls-10" d="m34.76,47.52c.11.53-.22,1.05-.75,1.17-.53.11-1.05-.22-1.16-.75-.12-.53.22-1.05.75-1.16.53-.11,1.05.22,1.16.75Z"/>
              <polygon class="cls-18" points="30.44 46.62 38.16 37.14 39.2 37.65 34.39 45.77 30.44 46.62"/>
              <path class="cls-18" d="m36.71,35.37h4.67c.32,0,.57.26.57.57v2.01c0,.32-.26.57-.57.57h-4.67c-.32,0-.57-.26-.57-.57v-2.01c0-.32.26-.57.57-.57Z" transform="translate(-13.68 47.4) rotate(-54.63)"/>
              <path class="cls-5" d="m43.96,49.38l37.12-8.03c.31-.06.51-.37.44-.68l-.75-3.47-38.25,8.23.76,3.51c.07.31.37.5.68.44Z"/>
            </g>
            <path class="cls-17" d="m77.93,22.74s-.71.49-.05,1.73c.77,1.45,4.33,3.17,4.76,5.4.42,2.24-.74,3.24-1.43,4.02-.69.78-1.33.77-1.68,1.26-.35.5.25.89,1.66-.09.67-.47,4.26-2.38,4.25-5.14-.02-3.61-5.91-8.52-7.5-7.18Z"/>
            <path class="cls-10" d="m77.19,22.6s1.24-1.08,3.29.28c2.4,1.58,3.15,2.69,3.15,2.69,0,0-.35,1.5-2.82,3.12,0,0-5.56-4.15-3.63-6.09Z"/>
          </g>
        </g>
      </g>
    </g>
  </g>
</svg>