<?xml version="1.0" encoding="UTF-8"?>
<svg xmlns="http://www.w3.org/2000/svg" viewBox="0 0 83.07 54.02">
  <defs>
    <style>
      .cls-1 {
        fill: #fff;
      }

      .cls-2 {
        fill: #8196fc;
      }

      .cls-3 {
        opacity: .2;
      }

      .cls-3, .cls-4 {
        mix-blend-mode: overlay;
      }

      .cls-5 {
        fill: #1d1b3a;
      }

      .cls-6 {
        isolation: isolate;
      }

      .cls-7 {
        fill: #7585f8;
      }

      .cls-8 {
        fill: #f28f19;
      }

      .cls-9 {
        fill: #b38cff;
      }

      .cls-4 {
        opacity: .3;
      }

      .cls-10 {
        fill: #ef60ae;
      }

      .cls-11 {
        fill: #f4a517;
      }

      .cls-12 {
        fill: #a4dcff;
      }

      .cls-13 {
        fill: #be4719;
      }

      .cls-14 {
        fill: #f268b4;
      }
    </style>
  </defs>
  <g class="cls-6">
    <g id="Layer_2" data-name="Layer 2">
      <g id="Layer_1-2" data-name="Layer 1">
        <g>
          <g>
            <g>
              <path class="cls-14" d="m28.98,50.61l.02.38s.24-.01.49-.03c.25-.02.49-.04.49-.04l-.04-.37s-.24.02-.48.04c-.24.01-.48.03-.48.03Z"/>
              <polygon class="cls-14" points="27.54 50.65 27.54 51.02 28.52 51 28.5 50.63 27.54 50.65"/>
              <polygon class="cls-14" points="26.1 50.62 26.08 50.99 27.06 51.02 27.06 50.64 26.1 50.62"/>
              <polygon class="cls-14" points="24.66 50.51 24.63 50.88 25.6 50.96 25.63 50.59 24.66 50.51"/>
              <polygon class="cls-14" points="23.24 50.32 23.18 50.69 24.15 50.83 24.2 50.45 23.24 50.32"/>
              <path class="cls-14" d="m21.84,50.02l-.09.36s.24.05.48.11c.24.06.48.1.48.1l.07-.37s-.24-.04-.47-.1c-.23-.05-.47-.11-.47-.11Z"/>
              <path class="cls-14" d="m20.48,49.6l-.13.35s.23.08.47.16c.23.08.47.15.47.15l.11-.36s-.23-.06-.46-.14c-.23-.08-.45-.16-.45-.16Z"/>
            </g>
            <g>
              <path class="cls-14" d="m19.19,49.01l-.18.33s.88.45.89.43l.14-.35s-.86-.41-.86-.41Z"/>
              <path class="cls-14" d="m18.03,48.21l-.24.28s.19.16.39.31c.2.16.41.28.41.28l.2-.32s-.21-.12-.39-.27c-.19-.14-.37-.29-.37-.29Z"/>
              <path class="cls-14" d="m17.11,47.18l-.31.21s.62.8.63.78l.27-.26s-.61-.71-.59-.72Z"/>
              <path class="cls-14" d="m16.52,45.92l-.36.11s.05.25.16.47c.1.23.21.46.21.46l.33-.18s-.1-.21-.19-.42c-.11-.21-.14-.45-.15-.44Z"/>
              <path class="cls-14" d="m16.3,44.55h-.38s-.02.26.04.51c.04.25.07.5.07.5l.37-.08s-.03-.23-.07-.46c-.05-.23-.03-.47-.03-.47Z"/>
              <path class="cls-14" d="m16.39,43.14l-.37-.06s-.03.25-.06.5c-.03.25-.05.49-.05.49l.38.02s.02-.24.04-.47c.03-.24.05-.47.05-.47Z"/>
              <path class="cls-14" d="m16.73,41.77l-.36-.11s-.07.24-.15.47c-.05.24-.11.48-.11.48l.37.08s.05-.23.1-.47c.07-.23.14-.45.14-.45Z"/>
            </g>
            <g>
              <polygon class="cls-14" points="17.18 40.39 16.82 40.27 16.52 41.19 16.87 41.32 17.18 40.39"/>
              <polygon class="cls-14" points="17.64 39.01 17.27 38.9 16.97 39.82 17.33 39.94 17.64 39.01"/>
              <polygon class="cls-14" points="18.01 37.6 17.65 37.51 17.4 38.45 17.76 38.55 18.01 37.6"/>
              <path class="cls-14" d="m18.33,36.18l-.37-.07s-.17.95-.19.95l.37.09s.2-.96.2-.96Z"/>
              <path class="cls-14" d="m18.57,34.74l-.37-.05s-.03.24-.05.48c-.04.24-.09.47-.09.47l.37.06s.04-.24.09-.48c.03-.24.06-.49.06-.49Z"/>
              <path class="cls-14" d="m18.7,33.29l-.37-.02s-.08.96-.08.96l.37.04s.11-.98.08-.98Z"/>
              <path class="cls-14" d="m18.7,31.82l-.37.02s0,.96,0,.96h.38s.02-.98,0-.98Z"/>
            </g>
            <g>
              <path class="cls-14" d="m18.54,30.36l-.37.06s0,.06.03.15c.02.09.04.21.04.33.02.24.04.48.04.48l.37-.03s-.02-.24-.04-.49c0-.12-.02-.24-.04-.34-.02-.09-.03-.15-.03-.15Z"/>
              <path class="cls-14" d="m18.21,28.93l-.36.11s.07.23.14.46c.04.23.09.47.09.47l.37-.08s-.05-.24-.1-.48c-.07-.24-.14-.47-.14-.47Z"/>
              <path class="cls-14" d="m17.72,27.54l-.35.15s.37.88.34.89l.36-.12s-.35-.92-.35-.92Z"/>
              <polygon class="cls-14" points="17.08 26.22 16.75 26.4 17.19 27.26 17.53 27.1 17.08 26.22"/>
              <path class="cls-14" d="m16.35,24.96l-.32.2s.13.2.25.41c.12.21.25.42.25.42l.33-.19s-.12-.21-.25-.42c-.12-.21-.25-.42-.25-.42Z"/>
              <polygon class="cls-14" points="15.56 23.74 15.24 23.95 15.77 24.76 16.09 24.56 15.56 23.74"/>
              <rect class="cls-14" x="14.68" y="22.55" width=".38" height=".97" transform="translate(-10.2 11.92) rotate(-33.23)"/>
            </g>
            <g>
              <polygon class="cls-14" points="13.99 21.31 13.67 21.51 14.19 22.34 14.5 22.13 13.99 21.31"/>
              <polygon class="cls-14" points="13.26 20.07 12.93 20.25 13.42 21.1 13.74 20.91 13.26 20.07"/>
              <path class="cls-14" d="m12.66,18.79l-.35.13s.07.24.18.46c.11.23.21.45.21.45l.33-.17s-.1-.21-.21-.43c-.1-.22-.17-.44-.17-.44Z"/>
              <path class="cls-14" d="m12.31,17.43l-.37.06s.21.97.21.97l.36-.11s-.23-.92-.2-.92Z"/>
              <path class="cls-14" d="m12.23,16.03l-.38-.02s0,1,0,1l.37-.03s-.04-.95,0-.94Z"/>
              <path class="cls-14" d="m12.46,14.64l-.36-.1s-.08.24-.12.49c-.04.25-.08.49-.08.49l.37.05s.04-.23.08-.47c.04-.23.11-.46.11-.46Z"/>
              <path class="cls-14" d="m12.98,13.34l-.33-.18s-.11.22-.22.45c-.09.23-.18.46-.18.46l.35.13s.09-.22.17-.44c.1-.21.21-.42.21-.42Z"/>
            </g>
            <g>
              <path class="cls-14" d="m13.76,12.17l-.29-.24s-.15.2-.3.4c-.15.2-.28.41-.28.41l.32.2s.12-.21.26-.39c.14-.19.29-.38.29-.38Z"/>
              <path class="cls-14" d="m14.77,11.19l-.23-.29s-.75.66-.73.67l.27.26s.68-.65.7-.64Z"/>
              <path class="cls-14" d="m15.96,10.44l-.16-.34s-.23.1-.44.24c-.21.13-.42.26-.42.26l.21.31s.2-.12.4-.25c.2-.13.42-.22.42-.22Z"/>
              <path class="cls-14" d="m17.28,9.97l-.08-.37s-.24.06-.48.13c-.24.08-.47.17-.47.17l.14.35s.22-.09.44-.16c.23-.06.45-.12.45-.12Z"/>
              <path class="cls-14" d="m18.67,9.83v-.38s-1,.04-.99.06l.05.37s.94-.08.94-.06Z"/>
              <path class="cls-14" d="m20.04,10.06l.11-.36s-.24-.09-.49-.13c-.25-.04-.5-.09-.5-.09l-.04.37s.23.04.46.08c.23.04.45.12.45.12Z"/>
              <path class="cls-14" d="m21.3,10.64l.2-.32s-.22-.13-.43-.25c-.23-.1-.46-.2-.46-.2l-.14.35s.21.1.43.19c.2.12.41.24.41.24Z"/>
            </g>
            <g>
              <path class="cls-14" d="m22.39,11.52l.27-.27s-.18-.17-.36-.34c-.18-.17-.39-.31-.39-.31l-.23.3s.2.13.37.29c.17.16.34.33.34.33Z"/>
              <path class="cls-14" d="m23.28,12.62l.31-.21s-.14-.21-.28-.41c-.16-.19-.32-.38-.32-.38l-.28.25s.15.18.31.36c.14.2.27.39.27.39Z"/>
              <path class="cls-14" d="m23.98,13.85l.34-.16s-.47-.87-.47-.87l-.32.19s.47.83.45.84Z"/>
              <polygon class="cls-14" points="24.57 15.17 24.91 15.02 24.52 14.13 24.17 14.28 24.57 15.17"/>
              <path class="cls-14" d="m25.22,16.48l.33-.18s-.11-.21-.23-.42c-.11-.21-.22-.43-.22-.43l-.34.16s.1.22.22.44c.12.22.23.43.23.43Z"/>
              <path class="cls-14" d="m25.99,17.73l.31-.22s-.14-.2-.26-.4c-.13-.2-.26-.4-.26-.4l-.32.19s.13.21.27.42c.13.21.27.41.27.41Z"/>
              <path class="cls-14" d="m26.94,18.86l.27-.26s-.16-.17-.33-.35c-.15-.19-.29-.38-.29-.38l-.29.23s.15.19.3.39c.17.18.34.36.34.36Z"/>
            </g>
            <g>
              <path class="cls-14" d="m28.04,19.85l.22-.3s-.73-.61-.73-.61l-.26.27s.74.66.76.64Z"/>
              <path class="cls-14" d="m29.3,20.62l.16-.34s-.84-.45-.82-.47l-.21.32s.86.5.86.5Z"/>
              <path class="cls-14" d="m30.69,21.13l.1-.36s-.23-.07-.46-.13c-.23-.07-.44-.17-.44-.17l-.14.35s.23.11.47.18c.24.07.48.14.48.14Z"/>
              <path class="cls-14" d="m32.15,21.38l.03-.37s-.24-.02-.47-.04c-.23-.04-.47-.09-.47-.09l-.07.37s.24.05.49.09c.25.02.5.04.5.04Z"/>
              <path class="cls-14" d="m33.63,21.37l-.03-.37s-.24.03-.48.03h-.48v.37s.24,0,.49,0c.25,0,.49-.03.49-.03Z"/>
              <path class="cls-14" d="m35.08,21.16l-.08-.37s-.23.06-.47.09c-.24.04-.47.07-.47.07l.05.37s.24-.04.49-.07c.25-.03.49-.09.49-.09Z"/>
              <path class="cls-14" d="m36.5,20.78l-.11-.36s-.23.07-.46.14c-.23.07-.46.13-.46.13l.09.36s.24-.06.48-.13c.24-.07.47-.14.47-.14Z"/>
            </g>
            <g>
              <path class="cls-14" d="m37.88,20.27l-.15-.35s-.22.09-.45.18c-.22.09-.45.17-.45.17l.12.35s.24-.08.46-.17c.23-.09.46-.18.46-.18Z"/>
              <path class="cls-14" d="m39.2,19.66l-.17-.33s-.22.11-.43.21c-.22.1-.44.2-.44.2l.15.34s.22-.1.44-.2c.22-.11.44-.22.44-.22Z"/>
              <path class="cls-14" d="m40.48,18.96l-.19-.32s-.21.12-.42.24c-.21.11-.42.23-.42.23l.18.33s.21-.12.43-.23c.21-.12.42-.25.42-.25Z"/>
              <path class="cls-14" d="m41.72,18.19l-.21-.31s-.2.13-.4.26c-.2.13-.41.26-.41.26l.2.32s.21-.13.41-.26c.21-.13.41-.27.41-.27Z"/>
              <polygon class="cls-14" points="42.92 17.35 42.69 17.05 41.91 17.61 42.12 17.92 42.92 17.35"/>
              <path class="cls-14" d="m44.07,16.46l-.24-.29s-.19.15-.37.3c-.19.15-.38.3-.38.3l.23.3s.19-.15.39-.3c.19-.16.38-.31.38-.31Z"/>
              <path class="cls-14" d="m45.17,15.5l-.26-.27s-.18.16-.36.32c-.18.16-.36.32-.36.32l.25.29s.18-.16.37-.32c.18-.17.36-.33.36-.33Z"/>
            </g>
            <g>
              <path class="cls-14" d="m46.25,14.56l-.23-.3s-.19.16-.38.31c-.19.16-.37.33-.37.33l.25.28s.17-.17.36-.32c.19-.15.37-.3.37-.3Z"/>
              <path class="cls-14" d="m47.42,13.76l-.19-.32s-.21.13-.42.26c-.21.13-.4.28-.4.28l.22.3s.19-.14.39-.27c.2-.13.41-.25.41-.25Z"/>
              <path class="cls-14" d="m48.69,13.12l-.14-.35s-.23.08-.45.2c-.22.11-.44.23-.44.23l.18.33s.21-.11.42-.22c.21-.11.44-.19.44-.19Z"/>
              <path class="cls-14" d="m50.03,12.68l-.08-.37s-.96.27-.96.27l.12.35s.91-.28.91-.26Z"/>
              <path class="cls-14" d="m51.43,12.54v-.37s-.25,0-.5.01c-.25,0-.5.07-.5.06l.05.37s.23-.06.47-.05c.23,0,.47-.01.47-.01Z"/>
              <path class="cls-14" d="m52.8,12.73l.1-.36s-.23-.1-.49-.12c-.25-.03-.5-.06-.5-.06l-.03.38s.23.03.46.06c.24.01.45.12.46.11Z"/>
              <path class="cls-14" d="m54.1,13.26l.18-.33s-.23-.11-.45-.22c-.11-.05-.23-.11-.31-.15-.09-.03-.15-.05-.15-.05l-.13.35s.06.02.14.04c.08.04.18.09.29.14.21.11.42.21.42.21Z"/>
            </g>
            <g>
              <path class="cls-14" d="m55.24,14.07l.25-.28s-.18-.17-.39-.31c-.2-.14-.41-.29-.41-.29l-.21.31s.19.14.38.28c.2.13.38.28.37.29Z"/>
              <path class="cls-14" d="m56.23,15.09l.29-.24s-.13-.21-.32-.38c-.18-.17-.36-.35-.36-.35l-.26.27s.17.17.34.33c.18.16.3.37.31.36Z"/>
              <path class="cls-14" d="m57.07,16.24l.31-.21s-.12-.22-.27-.41c-.15-.19-.3-.39-.3-.39l-.3.23s.15.19.29.38c.15.19.26.4.26.4Z"/>
              <polygon class="cls-14" points="57.82 17.46 58.14 17.28 57.63 16.44 57.31 16.64 57.82 17.46"/>
              <path class="cls-14" d="m58.6,18.71l.3-.22s-.51-.81-.51-.81l-.32.2s.5.85.53.83Z"/>
              <path class="cls-14" d="m59.54,19.84l.27-.26s-.62-.73-.62-.73l-.29.23s.61.78.64.75Z"/>
              <path class="cls-14" d="m60.66,20.81l.22-.31s-.2-.13-.38-.28c-.17-.16-.34-.33-.34-.33l-.26.27s.18.17.36.34c.19.16.41.29.41.29Z"/>
            </g>
            <g>
              <path class="cls-14" d="m61.94,21.55l.15-.34s-.86-.4-.83-.44l-.2.32s.88.47.88.47Z"/>
              <path class="cls-14" d="m63.36,22.01l.08-.37s-.91-.26-.91-.26l-.13.35s.95.31.96.27Z"/>
              <path class="cls-14" d="m64.83,22.16v-.38s-.24,0-.47-.01c-.24,0-.47-.06-.47-.05l-.05.37s.06,0,.15.02c.09.02.22.03.34.03.25,0,.5.02.5.02Z"/>
              <path class="cls-14" d="m66.31,22.05l-.06-.37s-.95.1-.95.1l.02.38s.99-.08.99-.1Z"/>
              <path class="cls-14" d="m67.74,21.73l-.1-.36s-.23.06-.47.12c-.23.06-.46.11-.46.11l.07.37s.24-.05.48-.11c.24-.06.48-.12.48-.12Z"/>
              <path class="cls-14" d="m69.13,21.25l-.14-.35s-.22.09-.45.17c-.22.08-.46.15-.46.15l.12.36s.24-.07.47-.16c.23-.09.46-.17.46-.17Z"/>
              <polygon class="cls-14" points="70.47 20.69 70.32 20.35 69.43 20.73 69.57 21.08 70.47 20.69"/>
            </g>
            <g>
              <path class="cls-14" d="m71.8,20.25l-.08-.37s-.24.04-.48.11c-.24.08-.48.16-.48.16l.14.35s.22-.07.45-.15c.22-.07.46-.11.46-.11Z"/>
              <path class="cls-14" d="m73.21,20.07l-.03-.38s-.25,0-.49.04c-.25.03-.49.06-.49.06l.06.37s.24-.03.47-.06c.24-.03.48-.04.48-.04Z"/>
              <polygon class="cls-14" points="74.64 20.05 74.65 19.68 73.67 19.67 73.68 20.04 74.64 20.05"/>
              <path class="cls-14" d="m76.06,20.2l.06-.37s-.24-.05-.49-.07c-.25-.02-.49-.04-.49-.04l-.03.37s.24.02.48.04c.24.03.47.07.47.07Z"/>
              <path class="cls-14" d="m77.45,20.5l.11-.36s-.96-.26-.96-.24l-.07.37s.93.23.93.23Z"/>
              <path class="cls-14" d="m78.77,20.99l.16-.34s-.92-.37-.92-.37l-.12.36s.9.33.88.35Z"/>
              <path class="cls-14" d="m79.98,21.71l.22-.3s-.2-.15-.4-.29c-.22-.12-.44-.23-.44-.23l-.18.33s.21.11.42.22c.19.14.38.28.38.28Z"/>
            </g>
            <g>
              <path class="cls-14" d="m81.03,22.65l.28-.25s-.17-.18-.35-.36c-.17-.19-.36-.35-.36-.34l-.24.29s.19.14.34.32c.16.17.33.34.33.34Z"/>
              <polygon class="cls-14" points="81.84 23.79 82.17 23.61 81.62 22.78 81.32 23 81.84 23.79"/>
              <path class="cls-14" d="m82.35,25.1l.36-.11s-.35-.93-.35-.93l-.34.15s.38.87.33.88Z"/>
              <path class="cls-14" d="m82.62,26.48l.37-.04s.01-.25-.06-.49c-.05-.24-.11-.48-.11-.48l-.37.08s.05.23.11.46c.07.23.05.47.06.47Z"/>
              <path class="cls-14" d="m82.68,27.9l.37.02s-.03-.99-.03-.99l-.37.02s.07.95.03.95Z"/>
              <path class="cls-14" d="m82.48,29.3l.36.08s.05-.24.11-.48c.07-.24.05-.5.06-.49l-.37-.04s0,.24-.06.47c-.05.23-.1.47-.1.47Z"/>
              <polygon class="cls-14" points="82.06 30.64 82.4 30.79 82.74 29.85 82.37 29.75 82.06 30.64"/>
            </g>
            <g>
              <path class="cls-14" d="m81.39,31.89l.31.2s.16-.2.26-.42c.11-.22.23-.44.23-.44l-.34-.17s-.43.85-.46.83Z"/>
              <path class="cls-14" d="m80.53,33l.28.25s.17-.18.33-.37c.16-.19.29-.4.29-.4l-.31-.22s-.13.2-.28.38c-.16.17-.32.35-.32.35Z"/>
              <path class="cls-14" d="m79.49,33.96l.23.3s.19-.16.38-.31c.1-.08.19-.16.27-.22.06-.07.1-.11.1-.11l-.26-.27s-.04.04-.1.11c-.07.06-.16.13-.25.21-.18.15-.37.3-.37.3Z"/>
              <polygon class="cls-14" points="78.3 34.73 78.48 35.06 79.33 34.56 79.12 34.25 78.3 34.73"/>
              <polygon class="cls-14" points="77.01 35.29 77.12 35.65 78.04 35.27 77.89 34.93 77.01 35.29"/>
              <polygon class="cls-14" points="75.63 35.63 75.69 36 76.66 35.78 76.56 35.41 75.63 35.63"/>
              <polygon class="cls-14" points="74.21 35.77 74.23 36.14 75.21 36.06 75.17 35.68 74.21 35.77"/>
            </g>
            <g>
              <polygon class="cls-14" points="72.79 35.72 72.76 36.09 73.75 36.14 73.75 35.77 72.79 35.72"/>
              <polygon class="cls-14" points="71.38 35.51 71.31 35.88 72.28 36.06 72.33 35.68 71.38 35.51"/>
              <path class="cls-14" d="m69.99,35.19l-.1.36s.23.07.47.14c.12.04.24.06.33.08.09.01.15.03.15.03l.08-.37s-.06-.01-.15-.03c-.09-.01-.21-.04-.32-.08-.23-.07-.46-.14-.46-.14Z"/>
              <polygon class="cls-14" points="68.61 34.78 68.49 35.13 69.43 35.42 69.54 35.06 68.61 34.78"/>
              <polygon class="cls-14" points="67.29 34.23 67.14 34.57 68.04 34.95 68.18 34.59 67.29 34.23"/>
              <path class="cls-14" d="m65.98,33.62l-.17.34s.22.11.43.23c.22.12.45.2.45.2l.16-.34s-.23-.08-.44-.2c-.21-.11-.43-.23-.43-.23Z"/>
              <polygon class="cls-14" points="64.71 32.95 64.53 33.28 65.39 33.74 65.57 33.4 64.71 32.95"/>
            </g>
          </g>
          <path class="cls-9" d="m66.49,53.45H14.62v-18.98s1.84-3.43,2.95-3.99c1.47-.74,6.61,0,6.61,0,0,0,8.75-.14,12.1,0,1.1.04,3.18,2.1,4.28,2.14,1.26.04,3.29-2.14,4.55-2.14,4.61,0,11.96.4,16.54,0,3.77-.33,4.84,3.8,4.84,3.8v19.16Z"/>
          <path class="cls-4" d="m27.24,30.48c-.39,3.27-1.15,6.31-2.87,9.73h0c-.13.44-.2.9-.2,1.38,0,3.1,2.8,5.62,6.25,5.62s6.26-2.52,6.26-5.62c0,0,.17-4.17-1.27-11.11h-8.17Z"/>
          <path class="cls-4" d="m49.4,30.48c-.36,3.27-1.07,6.31-2.68,9.73h0c-.12.44-.18.9-.18,1.38,0,3.1,2.62,5.62,5.85,5.62s5.85-2.52,5.85-5.62c0,0,.16-4.17-1.19-11.11h-7.65Z"/>
          <path class="cls-11" d="m48.33,7.3s10.78,18.22-.39,32.8h0c-.16.3-.29.61-.37.96-.52,2.23.87,4.46,3.1,4.98,2.23.52,4.46-.87,4.98-3.1,0,0,5.39-23.44-7.32-35.64Z"/>
          <path class="cls-9" d="m9.4,10.66c-.68,0-1.23-.54-1.23-1.21s.55-1.21,1.23-1.21,1.23.54,1.23,1.21-.55,1.21-1.23,1.21Zm0-2.09c-.49,0-.89.4-.89.88s.4.88.89.88.89-.39.89-.88-.4-.88-.89-.88Z"/>
          <path class="cls-2" d="m63.84,18.41c-.67,0-1.21-.54-1.21-1.19s.54-1.19,1.21-1.19,1.21.54,1.21,1.19-.54,1.19-1.21,1.19Zm0-2.06c-.49,0-.88.39-.88.87s.39.86.88.86.88-.39.88-.86-.39-.87-.88-.87Z"/>
          <path class="cls-11" d="m42.09,7.95c.14-.18.21-.78.43-.78s.27.62.43.78c.16.16.79.2.78.42-.01.22-.64.25-.78.43-.14.17-.21.79-.43.78-.22-.01-.25-.64-.42-.78-.18-.14-.79-.21-.78-.43.01-.22.64-.25.78-.42Z"/>
          <path class="cls-11" d="m16.68,0s18.12,18.96,8.74,39.71h0c-.1.4-.16.82-.16,1.26,0,2.84,2.3,5.14,5.14,5.14s5.14-2.3,5.14-5.14c0,0-.09-29.81-18.86-40.96Z"/>
          <path class="cls-4" d="m14.62,50.72s1.73-1.56,4.28-.67c2.55.89,4.36,1.44,8.34,1.33,3.98-.11,5.61-1.59,8.3-.8,2.68.8,8.28,1.68,11.92,1.46,3.64-.22,8.53-2.32,11.41-2.27,2.89.05,5.03-2.96,7.62-2.56v6.24H14.62v-2.73Z"/>
          <path class="cls-4" d="m34.07,40.87c0,2.04-1.65,3.69-3.69,3.69s-3.69-1.65-3.69-3.69,1.65-3.69,3.69-3.69,3.69,1.65,3.69,3.69Z"/>
          <path class="cls-4" d="m54.41,42.2c0,1.65-1.33,2.98-2.98,2.98s-2.98-1.33-2.98-2.98,1.33-2.98,2.98-2.98,2.98,1.33,2.98,2.98Z"/>
          <g>
            <g>
              <path class="cls-12" d="m9.02,18.04l19.23,5.62c.86.25,1.41,1.05,1.39,1.9l.67.2c.33.1.53.45.43.78-.1.33-.45.53-.78.43l-.63-.18c-.41.83-1.36,1.27-2.28,1l-19.23-5.62c-1.03-.3-1.62-1.38-1.32-2.4l.12-.41c.3-1.03,1.37-1.62,2.4-1.32Z"/>
              <path class="cls-14" d="m.34,17.97c-.3,1.03.29,2.1,1.32,2.4l5.35,1.56c1.03.3,2.1-.29,2.4-1.32l.09-.31c.3-1.03-.29-2.1-1.32-2.4l-5.35-1.56c-1.03-.3-2.1.29-2.4,1.32l-.09.31Z"/>
              <path class="cls-3" d="m29.95,26.97l-.63-.18c-.41.83-1.36,1.27-2.28,1l-19.23-5.62c-.57-.17-1-.58-1.22-1.09l.41-1.39,23.7,6.93c-.13.28-.44.44-.75.36Z"/>
              <path class="cls-11" d="m5.52,20.71c-.3,1.03.29,2.1,1.32,2.4l.54.16c1.03.3,2.1-.29,2.4-1.31l.83-2.84c.3-1.03-.29-2.1-1.32-2.41l-.54-.16c-1.03-.3-2.1.29-2.41,1.32l-.83,2.84Z"/>
            </g>
            <g>
              <path class="cls-13" d="m1.5,52.42c-.45-.51-.43-.59-.31-.75.11-.14.23-.28.37-.41l-.99-.6c-.2.36-.35.69-.43.96.08.09.66.86,1.35.81Z"/>
              <path class="cls-5" d="m.15,51.61s-.01-.02-.01-.02c-.56.84.72,1.33,1.47,1.44.75.11-.11-.61-.11-.61-.69.05-1.27-.72-1.35-.81Z"/>
            </g>
            <path class="cls-10" d="m.27,50.46c-.13.48.94,1.25,1.24,1,2.59-2.2,5.36-6.98,6.39-8.94.05-.09.09-.17.13-.24.52-.84.81-.67,2.56-4.58.57-1.26.91-3.47.91-3.47l-1.74-.72-3.89-1.61c-1.39,1.32-1.97,5.07-2.27,6.61-.25,1.31-.54,3.42-.81,4.44-.96,3.55-1.66,4.27-2.53,7.51Z"/>
            <g>
              <path class="cls-13" d="m11.62,53.37c-.63-.28-.64-.36-.6-.56.04-.17.1-.35.16-.53l-1.15-.14c-.03.41-.03.77.02,1.05.1.05.95.5,1.56.17Z"/>
              <path class="cls-5" d="m10.06,53.2s-.02-.02-.02-.02c-.16,1,1.21.91,1.94.7.73-.22-.35-.51-.35-.51-.61.34-1.46-.12-1.56-.17Z"/>
            </g>
            <path class="cls-5" d="m7.56,41.01c.15.46.32.86.47,1.27.52-.84.81-.67,2.56-4.58.57-1.26.91-3.47.91-3.47l-1.74-.72-1.76.13c-.71,1.78-.94,5.9-.45,7.36Z"/>
            <path class="cls-14" d="m7.75,39.86c.32,1.3,1.04,2.63,1.04,4.44,0,3.69.35,4.51.9,7.81.06.38.87.62,1.31.54.07-.01.13-.03.17-.07.04-.02.07-.05.08-.08,1.43-3.08,2.38-8.31,2.51-10.51.07-1.3.04-1.14,0-5.78-.01-1.39-.62-3.54-.62-3.54l-5.76.19c-.71,1.78.01,5.48.38,7Z"/>
            <path class="cls-1" d="m10.99,52.65c.07-.01.13-.03.17-.07.87-2.43,1.25-5.02,1.57-7.26.27-1.9.58-4.05.59-6.17,0-2.32-.37-4.36-1.11-6.08-.01-.03-.05-.05-.09-.03-.03.01-.05.05-.04.09.74,1.69,1.11,3.73,1.11,6.02,0,2.11-.31,4.26-.59,6.16-.33,2.26-.71,4.89-1.6,7.34Z"/>
            <path class="cls-5" d="m4.39,34.96c.35-1.24.83-2.42,1.49-3.06l2.25.93,5-.16s.13.46.27,1.08c-2.19,1.76-5.95,2.41-9.01,1.21Z"/>
            <path class="cls-11" d="m13.16,23.34c.88,1.09,1.45,3.28.24,9.97-.27,1.47-9.27,1.83-9.09.34.56-4.62,2.46-7.32,4.43-10.53.54-.87,2.69-1.97,4.42.21Z"/>
            <g>
              <path class="cls-13" d="m20.89,22.93s-.27-1.07-.46-.8c-.19.27.15.57.03,1.2-.12.63.62-.48.62-.48l-.19.08Z"/>
              <g>
                <path class="cls-13" d="m20.53,23.18s.79-2.48,1.05-1.76c.27.72.43,1.34-.4,2.24l-.65-.48Z"/>
                <path class="cls-8" d="m11.49,23.83c-1.24.88-1.22,1.74-.68,2.5.83,1.16,2.45,2.85,5.14,2.74,2.7-.11,5.38-5.49,5.38-5.49,0,0-.39-.68-1-.62,0,0-2.49,3.79-4.87,3.35-1.15-.21-2.62-3.43-3.97-2.47Z"/>
              </g>
            </g>
            <path class="cls-5" d="m13.96,16.79c.87.35,1.8,1.37,1.35,3.16-.46,1.78-.41,1.83.01,2.64,1.11,2.08-2.88.88-2.29,2.89,1.64,5.55-5.36,2.91-6.37,1.11-1.13-2.02-.95-4.88,1.13-5.61.69-.24.16-2.61,1.7-2.65,1.54-.05,1.1-2.88,4.46-1.54Z"/>
            <path class="cls-7" d="m30.56,27.87s-2.2,4.42-.18,4.72c2.02.3,1.67-2.77.18-4.72Z"/>
            <path class="cls-7" d="m28.78,31.5s-1.58,2.78-.29,3.04c1.29.27,1.18-1.73.29-3.04Z"/>
          </g>
          <path class="cls-11" d="m47.01,22.78c.14-.17.21-.78.43-.78s.27.62.42.78c.16.16.79.2.78.43-.01.22-.64.25-.78.43-.14.17-.21.79-.42.78-.22-.02-.25-.64-.43-.78-.18-.14-.8-.21-.78-.43.01-.22.64-.25.78-.43Z"/>
          <path class="cls-9" d="m44.24,20.57c.03.38-.25.71-.63.74-.38.03-.71-.25-.74-.62-.04-.38.25-.71.63-.74.38-.03.71.25.74.62Z"/>
        </g>
      </g>
    </g>
  </g>
</svg>