<?xml version="1.0" encoding="UTF-8"?>
<svg xmlns="http://www.w3.org/2000/svg" viewBox="0 0 81.81 60.83">
  <defs>
    <style>
      .cls-1 {
        fill: #fff;
      }

      .cls-2 {
        fill: #e67052;
      }

      .cls-3 {
        fill: #f7422e;
      }

      .cls-4 {
        mix-blend-mode: overlay;
        opacity: .2;
      }

      .cls-5 {
        fill: #1d1b3a;
      }

      .cls-6 {
        isolation: isolate;
      }

      .cls-7 {
        fill: #ad3915;
      }

      .cls-8 {
        fill: #bbe8ff;
      }

      .cls-9 {
        fill: #7585f8;
      }

      .cls-10 {
        fill: #f04330;
      }

      .cls-11 {
        fill: #f28f19;
      }

      .cls-12 {
        fill: #b38cff;
      }

      .cls-13 {
        fill: #fe653b;
      }

      .cls-14 {
        fill: #a07df4;
      }

      .cls-15 {
        fill: #ef60ae;
      }

      .cls-16 {
        fill: #f4a517;
      }

      .cls-17 {
        fill: #fe71b7;
      }

      .cls-18 {
        fill: #a4dcff;
      }

      .cls-19 {
        fill: #be4719;
      }
    </style>
  </defs>
  <g class="cls-6">
    <g id="Layer_2" data-name="Layer 2">
      <g id="Layer_1-2" data-name="Layer 1">
        <g>
          <g>
            <g>
              <polygon class="cls-3" points="42.32 10.43 42.66 10.43 42.67 9.57 42.33 9.56 42.32 10.43"/>
              <polygon class="cls-3" points="42.34 11.73 42.68 11.71 42.66 10.85 42.32 10.86 42.34 11.73"/>
              <path class="cls-3" d="m42.44,13.03l.34-.03s-.03-.21-.04-.43c-.02-.22-.03-.43-.03-.43l-.34.02s.02.22.03.44c0,.22.04.44.04.44Z"/>
              <path class="cls-3" d="m42.61,14.32l.33-.06s-.03-.21-.07-.42c-.04-.21-.05-.43-.05-.43l-.34.04s.02.22.05.43c.04.22.07.43.07.43Z"/>
              <polygon class="cls-3" points="42.86 15.59 43.19 15.52 43.01 14.68 42.67 14.74 42.86 15.59"/>
              <path class="cls-3" d="m43.22,16.85l.32-.11s-.24-.82-.24-.82l-.33.09s.23.85.25.84Z"/>
              <path class="cls-3" d="m43.69,18.07l.31-.14s-.09-.2-.17-.39c-.08-.2-.15-.4-.15-.4l-.32.12s.07.21.15.41c.09.2.18.4.18.4Z"/>
            </g>
            <g>
              <polygon class="cls-3" points="44.29 19.23 44.58 19.06 44.17 18.31 43.87 18.46 44.29 19.23"/>
              <path class="cls-3" d="m45.04,20.31l.27-.21s-.5-.69-.5-.69l-.29.19s.12.18.25.36c.12.19.27.35.27.35Z"/>
              <path class="cls-3" d="m45.94,21.27l.23-.25s-.15-.15-.31-.29c-.16-.14-.29-.31-.29-.31l-.25.23s.13.18.3.33c.16.15.32.31.32.31Z"/>
              <polygon class="cls-3" points="46.96 22.1 47.15 21.82 46.48 21.31 46.26 21.57 46.96 22.1"/>
              <path class="cls-3" d="m48.1,22.76l.15-.31s-.2-.07-.38-.19c-.18-.11-.37-.22-.37-.22l-.18.29s.19.11.38.23c.19.12.39.2.39.2Z"/>
              <path class="cls-3" d="m49.32,23.24l.11-.33s-.2-.06-.41-.13c-.2-.07-.39-.17-.39-.17l-.13.31s.2.1.41.18c.21.07.42.14.42.14Z"/>
              <path class="cls-3" d="m50.58,23.58l.08-.33s-.84-.18-.83-.2l-.09.33s.85.21.85.21Z"/>
            </g>
            <g>
              <polygon class="cls-3" points="51.85 23.86 51.91 23.52 51.07 23.34 51 23.67 51.85 23.86"/>
              <polygon class="cls-3" points="53.15 24.02 53.18 23.68 52.33 23.58 52.28 23.92 53.15 24.02"/>
              <path class="cls-3" d="m54.45,24.1v-.34s-.21,0-.42,0c-.21,0-.43-.03-.43-.03l-.02.34s.22.04.44.03c.22,0,.44,0,.44,0Z"/>
              <path class="cls-3" d="m55.75,24.07l-.02-.34s-.05,0-.13.02c-.08,0-.19,0-.3,0-.21,0-.43,0-.43,0v.34s.88.01.88-.02Z"/>
              <polygon class="cls-3" points="57.05 23.92 56.99 23.58 56.14 23.68 56.18 24.02 57.05 23.92"/>
              <polygon class="cls-3" points="58.33 23.63 58.24 23.3 57.41 23.5 57.47 23.83 58.33 23.63"/>
              <polygon class="cls-3" points="59.57 23.25 59.46 22.93 58.65 23.2 58.74 23.53 59.57 23.25"/>
            </g>
            <g>
              <polygon class="cls-3" points="60.79 22.78 60.65 22.46 59.86 22.79 59.98 23.11 60.79 22.78"/>
              <polygon class="cls-3" points="61.97 22.25 61.83 21.94 61.04 22.3 61.18 22.61 61.97 22.25"/>
              <rect class="cls-3" x="62.24" y="21.55" width=".87" height=".34" transform="translate(-3.21 29.41) rotate(-25.77)"/>
              <polygon class="cls-3" points="64.3 21.14 64.16 20.83 63.37 21.19 63.52 21.5 64.3 21.14"/>
              <path class="cls-3" d="m65.47,20.62l-.13-.32s-.2.08-.41.16c-.2.08-.4.18-.4.18l.14.31s.19-.1.4-.17c.2-.08.4-.16.4-.16Z"/>
              <path class="cls-3" d="m66.67,20.18l-.11-.32s-.21.07-.42.13c-.21.07-.41.16-.41.16l.12.32s.2-.09.4-.15l.41-.13Z"/>
              <path class="cls-3" d="m67.9,19.83l-.08-.33s-.21.05-.43.09c-.21.06-.42.13-.42.13l.1.33s.21-.06.41-.13c.21-.05.42-.09.42-.09Z"/>
            </g>
            <g>
              <path class="cls-3" d="m69.15,19.6l-.05-.34s-.05,0-.14.01c-.08,0-.19.02-.3.04-.21.05-.43.09-.43.09l.07.33s.21-.04.42-.09c.1-.03.21-.04.29-.04.08,0,.13-.01.13-.01Z"/>
              <path class="cls-3" d="m70.42,19.48v-.34s-.23.01-.45.03c-.22.02-.44.04-.44.04l.03.34s.21-.02.43-.04c.21-.02.42-.03.42-.03Z"/>
              <polygon class="cls-3" points="71.69 19.51 71.71 19.17 70.84 19.15 70.84 19.49 71.69 19.51"/>
              <polygon class="cls-3" points="72.96 19.66 73.01 19.32 72.14 19.2 72.11 19.54 72.96 19.66"/>
              <polygon class="cls-3" points="74.24 19.84 74.28 19.5 73.43 19.38 73.37 19.72 74.24 19.84"/>
              <path class="cls-3" d="m75.58,19.87l-.06-.34s-.05,0-.13.02c-.08.02-.18.02-.29.01-.21,0-.42,0-.42,0v.34s.22,0,.44,0c.11,0,.23,0,.31-.02.08-.01.14-.02.14-.02Z"/>
              <path class="cls-3" d="m76.86,19.52l-.15-.31s-.05.02-.12.05c-.07.03-.17.08-.27.1-.2.05-.4.11-.4.11l.09.33s.22-.06.43-.12c.11-.02.21-.07.29-.11.08-.03.13-.06.13-.06Z"/>
            </g>
            <g>
              <path class="cls-3" d="m77.97,18.78l-.23-.26s-.16.14-.32.27c-.17.11-.35.23-.35.23l.18.3s.19-.12.38-.25c.17-.15.34-.29.34-.29Z"/>
              <path class="cls-3" d="m78.79,17.72l-.29-.18s-.46.7-.48.68l.25.23s.53-.72.52-.73Z"/>
              <path class="cls-3" d="m79.3,16.49l-.33-.1s-.27.79-.29.78l.3.16s.33-.84.31-.84Z"/>
              <path class="cls-3" d="m79.54,15.18l-.34-.03s-.12.84-.12.84l.33.07s.04-.22.07-.44c.05-.22.05-.44.05-.44Z"/>
              <path class="cls-3" d="m79.54,13.87l-.34.03s.03.21.03.42c0,.21,0,.42,0,.42h.34s0-.21,0-.44c0-.22-.02-.44-.02-.44Z"/>
              <path class="cls-3" d="m79.32,12.57l-.33.08s.06.2.09.41c.04.21.07.42.07.42l.34-.05s-.04-.22-.07-.44c-.03-.22-.1-.43-.1-.43Z"/>
              <path class="cls-3" d="m78.89,11.32l-.31.14s.1.19.16.39c.07.2.14.4.14.4l.32-.1s-.07-.21-.14-.42c-.07-.21-.17-.41-.17-.41Z"/>
            </g>
            <g>
              <path class="cls-3" d="m78.24,10.17l-.28.2s.13.17.23.35c.11.19.21.37.21.37l.3-.16s-.11-.19-.22-.39c-.11-.19-.25-.37-.25-.37Z"/>
              <path class="cls-3" d="m77.36,9.17l-.23.25s.16.14.3.29c.14.16.28.32.28.32l.26-.21s-.14-.17-.29-.34c-.15-.16-.32-.31-.32-.31Z"/>
              <path class="cls-3" d="m76.28,8.41l-.16.3s.19.1.36.21c.17.12.34.25.34.25l.21-.27s-.18-.13-.36-.26c-.19-.12-.39-.22-.39-.22Z"/>
              <path class="cls-3" d="m75.04,7.93l-.08.33s.21.04.4.11c.19.08.39.15.39.15l.14-.31s-.21-.08-.42-.16c-.21-.08-.43-.12-.43-.12Z"/>
              <path class="cls-3" d="m73.73,7.74v.34s.83.08.83.08l.06-.34s-.88-.11-.89-.08Z"/>
              <path class="cls-3" d="m72.41,7.83l.05.34s.21-.02.42-.05c.1-.01.21-.02.29-.03h.13v-.34s-.9.08-.9.08Z"/>
              <polygon class="cls-3" points="71.13 8.11 71.22 8.44 72.05 8.25 71.99 7.91 71.13 8.11"/>
            </g>
            <g>
              <path class="cls-3" d="m69.89,8.37l.05.34s.22-.03.43-.07c.21-.05.43-.1.43-.1l-.07-.33s-.21.05-.42.1c-.21.03-.42.07-.42.07Z"/>
              <path class="cls-3" d="m68.62,8.51l.02.34s.88-.06.87-.08l-.04-.34s-.85.08-.85.08Z"/>
              <polygon class="cls-3" points="67.35 8.52 67.33 8.86 68.21 8.88 68.2 8.54 67.35 8.52"/>
              <path class="cls-3" d="m66.1,8.34l-.07.33s.22.05.43.09c.22.03.44.05.44.05l.04-.34s-.21-.02-.42-.05l-.41-.09Z"/>
              <path class="cls-3" d="m64.9,7.98l-.13.32s.84.29.84.29l.09-.33s-.81-.25-.8-.27Z"/>
              <path class="cls-3" d="m63.78,7.4l-.18.29s.77.45.78.42l.15-.31s-.74-.4-.74-.4Z"/>
              <path class="cls-3" d="m62.78,6.64l-.23.25s.17.15.33.29c.18.13.36.26.36.26l.2-.28s-.17-.12-.34-.25c-.16-.14-.32-.28-.32-.28Z"/>
            </g>
          </g>
          <g>
            <g>
              <polygon class="cls-16" points="42.13 31.13 41.92 30.84 42.65 30.28 42.88 30.57 42.13 31.13"/>
              <polygon class="cls-16" points="41 31.93 40.79 31.63 41.55 31.1 41.76 31.4 41 31.93"/>
              <polygon class="cls-16" points="39.84 32.7 39.64 32.39 40.42 31.88 40.62 32.19 39.84 32.7"/>
              <polygon class="cls-16" points="38.65 33.43 38.47 33.11 39.26 32.63 39.45 32.94 38.65 33.43"/>
              <path class="cls-16" d="m37.45,34.12l-.18-.32s.2-.11.4-.22c.2-.12.4-.23.4-.23l.18.32s-.2.12-.4.24c-.2.11-.41.23-.41.23Z"/>
              <polygon class="cls-16" points="36.22 34.77 36.05 34.45 36.87 34.02 37.05 34.34 36.22 34.77"/>
              <path class="cls-16" d="m34.97,35.38l-.15-.33s.21-.1.42-.19c.21-.1.41-.2.41-.2l.16.33s-.21.1-.42.21c-.21.1-.42.2-.42.2Z"/>
            </g>
            <g>
              <polygon class="cls-16" points="33.69 35.94 33.55 35.6 34.4 35.23 34.55 35.57 33.69 35.94"/>
              <polygon class="cls-16" points="32.39 36.44 32.27 36.1 33.13 35.77 33.27 36.11 32.39 36.44"/>
              <path class="cls-16" d="m31.07,36.88l-.11-.35s.22-.06.44-.13c.22-.07.44-.15.44-.15l.12.35s-.22.07-.44.15c-.22.08-.45.14-.45.14Z"/>
              <path class="cls-16" d="m29.72,37.23l-.08-.36s.22-.05.45-.11c.23-.05.44-.12.44-.12l.1.35s-.23.07-.45.12c-.23.05-.46.11-.46.11Z"/>
              <polygon class="cls-16" points="28.34 37.5 28.29 37.14 29.2 36.98 29.27 37.34 28.34 37.5"/>
              <path class="cls-16" d="m26.95,37.66l-.03-.36s.91-.09.91-.09l.05.36s-.93.11-.94.1Z"/>
              <path class="cls-16" d="m25.55,37.68v-.37s.24,0,.47.01c.23,0,.46-.02.46-.02v.37s-.22.02-.46.02c-.23,0-.47-.01-.47-.01Z"/>
            </g>
            <g>
              <polygon class="cls-16" points="24.15 37.56 24.2 37.2 25.11 37.3 25.09 37.67 24.15 37.56"/>
              <path class="cls-16" d="m22.78,37.25l.1-.35s.89.22.89.22l-.07.36s-.23-.05-.46-.1c-.23-.04-.46-.13-.46-.13Z"/>
              <path class="cls-16" d="m21.46,36.76l.15-.33s.21.09.42.19c.2.1.43.16.43.16l-.12.35s-.23-.06-.44-.16c-.22-.1-.43-.19-.43-.19Z"/>
              <polygon class="cls-16" points="20.22 36.08 20.42 35.78 21.2 36.24 21.03 36.56 20.22 36.08"/>
              <path class="cls-16" d="m19.1,35.21l.24-.27s.16.17.35.3c.18.14.36.27.36.27l-.21.29s-.19-.14-.38-.29c-.2-.13-.36-.31-.36-.31Z"/>
              <path class="cls-16" d="m18.12,34.2l.28-.24s.15.17.29.35c.16.17.33.32.33.32l-.26.26s-.18-.16-.34-.33c-.15-.18-.31-.36-.31-.36Z"/>
              <path class="cls-16" d="m17.27,33.09l.3-.21s.52.77.54.75l-.29.23s-.55-.76-.55-.76Z"/>
            </g>
            <g>
              <polygon class="cls-16" points="16.48 31.94 16.79 31.75 17.32 32.51 17.01 32.71 16.48 31.94"/>
              <polygon class="cls-16" points="15.8 30.72 16.12 30.55 16.56 31.36 16.25 31.55 15.8 30.72"/>
              <path class="cls-16" d="m15.19,29.46l.33-.14s.09.21.17.43c.09.21.21.41.21.41l-.33.16s-.12-.2-.21-.42c-.09-.22-.18-.44-.18-.44Z"/>
              <path class="cls-16" d="m14.68,28.16l.35-.11s.02.05.04.14c.03.08.08.19.12.29.09.21.17.43.17.43l-.34.13s-.37-.87-.34-.88Z"/>
              <polygon class="cls-16" points="14.31 26.81 14.67 26.73 14.91 27.61 14.56 27.72 14.31 26.81"/>
              <polygon class="cls-16" points="14.07 25.43 14.43 25.38 14.58 26.29 14.22 26.36 14.07 25.43"/>
              <polygon class="cls-16" points="13.95 24.03 14.31 24.02 14.37 24.93 14.01 24.97 13.95 24.03"/>
            </g>
            <g>
              <polygon class="cls-16" points="13.92 22.64 14.29 22.64 14.28 23.57 13.92 23.57 13.92 22.64"/>
              <polygon class="cls-16" points="13.96 21.25 14.33 21.27 14.29 22.19 13.92 22.18 13.96 21.25"/>
              <rect class="cls-16" x="13.73" y="20.16" width=".93" height=".36" transform="translate(-6.98 33.25) rotate(-86.47)"/>
              <polygon class="cls-16" points="14.12 18.48 14.48 18.5 14.44 19.43 14.07 19.41 14.12 18.48"/>
              <path class="cls-16" d="m14.15,17.11h.37s0,.23,0,.47c0,.23-.01.47-.01.47h-.36s.02-.24.01-.47c0-.23,0-.46,0-.46Z"/>
              <path class="cls-16" d="m14.1,15.74l.36-.02s.02.23.04.47c.02.23.01.47.01.47h-.37s0-.22-.01-.45c-.02-.23-.04-.46-.04-.46Z"/>
              <path class="cls-16" d="m13.95,14.38l.36-.06s.04.23.08.46c.02.23.04.47.04.47l-.36.04s-.02-.23-.04-.46c-.04-.22-.08-.45-.08-.45Z"/>
            </g>
            <g>
              <path class="cls-16" d="m13.67,13.04l.35-.09s.02.06.04.14c.03.08.06.2.08.31.04.23.08.46.08.46l-.36.07s-.04-.23-.08-.45c-.01-.11-.05-.22-.07-.31-.03-.08-.04-.14-.04-.14Z"/>
              <path class="cls-16" d="m13.27,11.74l.34-.13s.08.22.14.45c.07.23.14.45.14.45l-.35.1s-.07-.22-.13-.44c-.07-.22-.14-.44-.14-.44Z"/>
              <polygon class="cls-16" points="12.72 10.49 13.04 10.33 13.42 11.19 13.08 11.33 12.72 10.49"/>
              <polygon class="cls-16" points="12.05 9.29 12.37 9.1 12.85 9.91 12.52 10.08 12.05 9.29"/>
              <polygon class="cls-16" points="11.35 8.09 11.67 7.92 12.14 8.71 11.82 8.9 11.35 8.09"/>
              <path class="cls-16" d="m10.78,6.78l.36-.08s.01.05.04.14c.02.08.06.19.1.29.09.21.18.41.18.41l-.33.15s-.1-.22-.19-.44c-.05-.11-.09-.22-.11-.31-.02-.09-.04-.15-.04-.15Z"/>
              <path class="cls-16" d="m10.6,5.36l.37.02s0,.06,0,.14c0,.08,0,.2,0,.31.03.22.06.44.06.44l-.37.05s-.03-.24-.06-.48c-.02-.12-.01-.24-.01-.33,0-.09,0-.15,0-.15Z"/>
            </g>
            <g>
              <path class="cls-16" d="m10.89,3.96l.35.12s-.07.21-.14.42c-.04.22-.08.44-.08.44l-.37-.06s.04-.24.09-.47c.08-.23.16-.46.16-.46Z"/>
              <path class="cls-16" d="m11.6,2.72l.3.21s-.5.74-.48.75l-.34-.15s.5-.82.52-.81Z"/>
              <path class="cls-16" d="m12.62,1.71l.23.28s-.67.59-.66.6l-.28-.24s.7-.67.71-.65Z"/>
              <path class="cls-16" d="m13.82.94l.17.32s-.78.46-.78.46l-.21-.3s.2-.13.41-.25c.2-.14.42-.23.42-.23Z"/>
              <path class="cls-16" d="m15.12.4l.11.35s-.22.06-.43.15c-.21.09-.42.17-.42.17l-.15-.33s.22-.09.44-.18c.22-.09.45-.15.45-.15Z"/>
              <path class="cls-16" d="m16.5.09l.05.36s-.23.02-.45.07c-.22.05-.44.1-.44.1l-.09-.35s.23-.05.46-.11c.23-.05.47-.08.47-.08Z"/>
              <path class="cls-16" d="m17.91,0v.37s-.24-.02-.47,0c-.23.01-.45.03-.45.03l-.03-.36s.24-.01.47-.03c.24-.01.48,0,.48,0Z"/>
            </g>
            <g>
              <path class="cls-16" d="m19.32.19l-.08.36s-.22-.06-.44-.09c-.23-.03-.45-.06-.45-.06l.03-.36s.24.03.47.06c.24.03.47.09.47.09Z"/>
              <path class="cls-16" d="m20.66.65l-.16.33s-.2-.1-.41-.18c-.21-.07-.43-.15-.43-.15l.1-.35s.23.08.45.15c.22.08.44.19.44.19Z"/>
              <path class="cls-16" d="m21.87,1.41l-.23.28s-.17-.15-.35-.27c-.19-.12-.38-.24-.38-.24l.18-.32s.2.13.41.25c.2.14.38.29.38.29Z"/>
              <path class="cls-16" d="m22.85,2.45l-.29.22s-.12-.19-.28-.35c-.16-.16-.31-.32-.31-.32l.25-.26s.17.17.33.35c.16.18.3.38.3.38Z"/>
              <path class="cls-16" d="m23.56,3.68l-.33.15s-.42-.8-.42-.8l.31-.2s.47.83.44.85Z"/>
              <path class="cls-16" d="m24.02,5.02l-.36.08s-.06-.22-.12-.44c-.03-.11-.06-.22-.08-.3-.03-.08-.05-.13-.05-.13l.34-.13s.28.91.28.91Z"/>
              <polygon class="cls-16" points="24.26 6.4 23.9 6.45 23.75 5.54 24.11 5.47 24.26 6.4"/>
            </g>
            <g>
              <path class="cls-16" d="m24.51,7.74l-.35.08s-.05-.23-.11-.46c-.04-.23-.07-.46-.07-.46l.36-.06s.04.23.07.45c.05.22.1.45.1.45Z"/>
              <path class="cls-16" d="m24.88,9.06l-.35.12s-.3-.89-.27-.9l.35-.09s.27.88.27.88Z"/>
              <polygon class="cls-16" points="25.39 10.32 25.06 10.48 24.69 9.61 25.03 9.48 25.39 10.32"/>
              <path class="cls-16" d="m26.08,11.48l-.3.21s-.13-.2-.27-.39c-.11-.21-.23-.41-.23-.41l.32-.18s.11.2.22.4c.13.19.26.38.26.38Z"/>
              <path class="cls-16" d="m26.93,12.53l-.26.26s-.62-.71-.62-.71l.29-.22s.58.7.6.68Z"/>
              <path class="cls-16" d="m27.95,13.41l-.21.3s-.75-.58-.74-.6l.25-.27s.7.57.7.57Z"/>
              <path class="cls-16" d="m29.12,14.09l-.16.33s-.21-.11-.43-.21c-.2-.12-.41-.25-.41-.25l.2-.31s.19.12.39.24c.2.1.41.2.41.2Z"/>
            </g>
            <g>
              <path class="cls-16" d="m30.38,14.58l-.1.35s-.23-.06-.45-.14c-.22-.09-.44-.17-.44-.17l.14-.34s.21.08.42.16c.21.08.43.14.43.14Z"/>
              <path class="cls-16" d="m31.71,14.87l-.06.36s-.93-.18-.93-.18l.09-.35s.89.19.9.17Z"/>
              <path class="cls-16" d="m33.06,15v.37s-.25-.02-.48-.03c-.24,0-.47-.04-.47-.04l.04-.36s.91.07.91.07Z"/>
              <path class="cls-16" d="m34.43,14.98l.02.37s-.23.01-.47.02c-.23,0-.47,0-.47,0v-.37s.23,0,.46,0c.23-.01.46-.03.46-.03Z"/>
              <path class="cls-16" d="m35.79,14.83l.05.36s-.23.04-.47.06c-.23.02-.47.05-.47.05l-.03-.36s.23-.03.46-.05c.23-.02.46-.06.46-.06Z"/>
              <path class="cls-16" d="m37.14,14.58l.08.36s-.23.05-.46.1c-.23.04-.46.09-.46.09l-.06-.36s.23-.04.45-.09c.23-.04.45-.09.45-.09Z"/>
              <path class="cls-16" d="m38.46,14.23l.11.35s-.23.06-.45.13c-.23.07-.45.12-.45.12l-.09-.36s.22-.05.45-.12c.22-.06.44-.12.44-.12Z"/>
            </g>
            <g>
              <path class="cls-16" d="m39.76,13.79l.13.34s-.22.08-.44.16c-.22.08-.45.15-.45.15l-.11-.35s.22-.07.43-.15c.22-.08.44-.16.44-.16Z"/>
              <path class="cls-16" d="m41.03,13.26l.15.33s-.21.1-.43.19c-.22.09-.43.18-.43.18l-.14-.34s.21-.09.42-.18c.21-.09.42-.19.42-.19Z"/>
              <path class="cls-16" d="m42.24,12.63l.18.32s-.21.11-.41.23c-.21.12-.42.22-.42.22l-.16-.33s.21-.1.41-.21c.2-.11.4-.22.4-.22Z"/>
              <path class="cls-16" d="m43.4,11.85l.15.34-.1.08c-.2.16-.41.3-.63.44l-.19-.31c.22-.15.45-.3.66-.47l.12-.08Z"/>
              <path class="cls-16" d="m44.81,11.55l.05.36s-.22.03-.44.07c-.22.03-.44.09-.44.09l-.12-.35s.23-.06.47-.1c.24-.04.48-.07.47-.07Z"/>
              <path class="cls-16" d="m46.21,11.46v.36s-.91.04-.91.04l-.03-.36s.94-.06.94-.04Z"/>
              <path class="cls-16" d="m47.62,11.54l-.05.36s-.91-.1-.91-.07v-.37s.96.08.96.08Z"/>
            </g>
            <g>
              <path class="cls-16" d="m49,11.83l-.1.35s-.22-.07-.44-.12c-.22-.04-.45-.08-.45-.08l.06-.36s.23.04.47.09c.23.04.46.12.46.12Z"/>
              <path class="cls-16" d="m50.33,12.31l-.15.33s-.84-.36-.85-.33l.11-.35s.88.35.88.35Z"/>
              <polygon class="cls-16" points="51.57 12.97 51.37 13.28 50.58 12.83 50.75 12.5 51.57 12.97"/>
              <path class="cls-16" d="m52.69,13.83l-.24.27s-.72-.56-.72-.56l.21-.3s.77.56.74.59Z"/>
              <path class="cls-16" d="m53.68,14.84l-.28.24s-.03-.04-.09-.11c-.05-.07-.13-.16-.21-.23-.17-.16-.33-.32-.33-.32l.25-.26s.17.16.34.33c.09.08.17.17.22.24.06.07.09.11.09.11Z"/>
              <path class="cls-16" d="m54.53,15.96l-.3.2s-.03-.05-.08-.12c-.04-.08-.11-.17-.18-.26-.14-.18-.29-.36-.29-.36l.29-.23s.15.18.3.37c.08.09.14.19.19.26.05.07.08.12.08.12Z"/>
              <path class="cls-16" d="m55.26,17.15l-.32.17s-.47-.79-.47-.79l.31-.19s.51.8.49.81Z"/>
            </g>
            <g>
              <polygon class="cls-16" points="55.9 18.39 55.57 18.55 55.15 17.73 55.47 17.56 55.9 18.39"/>
              <polygon class="cls-16" points="56.49 19.65 56.15 19.8 55.76 18.96 56.09 18.8 56.49 19.65"/>
              <path class="cls-16" d="m57.01,20.95l-.34.13s-.08-.22-.17-.43c-.09-.21-.18-.43-.18-.43l.34-.14s.09.22.18.43c.09.22.17.44.17.44Z"/>
              <path class="cls-16" d="m57.46,22.27l-.35.11s-.07-.22-.14-.44c-.08-.22-.15-.44-.15-.44l.34-.12s.08.22.16.44c.07.22.14.45.14.45Z"/>
              <path class="cls-16" d="m57.83,23.58l-.34.14s-.06-.23-.12-.47c-.06-.22-.12-.45-.12-.45l.35-.1s.06.22.12.45c.06.22.11.43.11.43Z"/>
              <polygon class="cls-16" points="58.12 24.88 57.81 25.12 57.6 24.18 57.93 24.01 58.12 24.88"/>
              <path class="cls-16" d="m58.5,26.15l-.27.31s-.03-.05-.07-.13c-.04-.08-.07-.2-.11-.31-.08-.22-.13-.46-.13-.46l.3-.26s.05.22.11.43c.04.11.07.21.1.29.04.07.07.12.07.12Z"/>
            </g>
          </g>
          <g>
            <rect class="cls-12" x="22.52" y="4.56" width="45.96" height="55.13"/>
            <rect class="cls-8" x="28.61" y="10.3" width="33.53" height="43.64"/>
            <polygon class="cls-8" points="62.15 53.94 28.61 53.94 62.15 10.3 62.15 10.3 62.15 53.94"/>
            <path class="cls-14" d="m28.09,7.57c0,.92-.75,1.67-1.67,1.67s-1.67-.75-1.67-1.67.75-1.67,1.67-1.67,1.67.75,1.67,1.67Z"/>
            <g>
              <path class="cls-11" d="m28.43,7.99c0,.91-.74,1.65-1.64,1.65s-1.65-.74-1.65-1.65.74-1.64,1.65-1.64,1.64.74,1.64,1.64Z"/>
              <path class="cls-16" d="m27.1,6.96c.11.27-.11.61-.48.76-.38.15-.77.05-.88-.22-.11-.27.11-.61.48-.76.38-.15.77-.05.88.22Z"/>
            </g>
            <path class="cls-14" d="m37.23,7.57c0,.92-.75,1.67-1.67,1.67s-1.67-.75-1.67-1.67.75-1.67,1.67-1.67,1.67.75,1.67,1.67Z"/>
            <path class="cls-14" d="m47.08,7.57c0,.92-.75,1.67-1.67,1.67s-1.67-.75-1.67-1.67.75-1.67,1.67-1.67,1.67.75,1.67,1.67Z"/>
            <path class="cls-14" d="m56.55,7.57c0,.92-.75,1.67-1.67,1.67s-1.67-.75-1.67-1.67.75-1.67,1.67-1.67,1.67.75,1.67,1.67Z"/>
            <path class="cls-14" d="m38.33,56.73c0,.92-.75,1.67-1.67,1.67s-1.67-.75-1.67-1.67.75-1.67,1.67-1.67,1.67.75,1.67,1.67Z"/>
            <path class="cls-14" d="m27.38,56.55c0,.92-.75,1.67-1.67,1.67s-1.67-.75-1.67-1.67.75-1.67,1.67-1.67,1.67.75,1.67,1.67Z"/>
            <path class="cls-14" d="m47.57,56.74c0,.92-.75,1.67-1.67,1.67s-1.67-.75-1.67-1.67.75-1.67,1.67-1.67,1.67.75,1.67,1.67Z"/>
            <path class="cls-14" d="m57.32,56.55c0,.92-.75,1.67-1.67,1.67s-1.67-.75-1.67-1.67.75-1.67,1.67-1.67,1.67.75,1.67,1.67Z"/>
            <path class="cls-14" d="m67.17,56.37c0,.92-.75,1.67-1.67,1.67s-1.67-.75-1.67-1.67.75-1.67,1.67-1.67,1.67.75,1.67,1.67Z"/>
            <path class="cls-14" d="m66.27,7.57c0,.92-.75,1.67-1.67,1.67s-1.67-.75-1.67-1.67.75-1.67,1.67-1.67,1.67.75,1.67,1.67Z"/>
            <path class="cls-14" d="m25.58,17.6c-.92,0-1.67-.74-1.68-1.66,0-.92.74-1.68,1.66-1.68.92,0,1.68.74,1.68,1.66,0,.92-.74,1.67-1.66,1.68Z"/>
            <path class="cls-14" d="m25.62,25.97c-.92,0-1.67-.74-1.68-1.66,0-.92.74-1.67,1.66-1.68.92,0,1.67.74,1.68,1.66,0,.92-.74,1.67-1.66,1.68Z"/>
            <path class="cls-14" d="m25.67,33.49c-.92,0-1.67-.74-1.68-1.66,0-.92.74-1.67,1.66-1.68.92,0,1.67.74,1.68,1.66,0,.92-.74,1.67-1.66,1.68Z"/>
            <path class="cls-14" d="m25.71,41.09c-.92,0-1.68-.74-1.68-1.66,0-.92.74-1.67,1.66-1.68.92,0,1.67.74,1.68,1.66,0,.92-.74,1.67-1.66,1.68Z"/>
            <path class="cls-14" d="m65.29,17.13c-.92,0-1.67-.74-1.68-1.66,0-.92.74-1.68,1.66-1.68.92,0,1.68.74,1.68,1.66,0,.92-.74,1.68-1.66,1.68Z"/>
            <path class="cls-14" d="m65.33,25.5c-.92,0-1.67-.74-1.68-1.66,0-.92.74-1.67,1.66-1.68.92,0,1.67.74,1.68,1.66,0,.92-.74,1.67-1.66,1.68Z"/>
            <path class="cls-9" d="m65.38,33.03c-.92,0-1.67-.74-1.68-1.66,0-.92.74-1.67,1.66-1.68.92,0,1.67.74,1.68,1.66,0,.92-.74,1.67-1.66,1.68Z"/>
            <path class="cls-9" d="m65.42,40.62c-.92,0-1.68-.74-1.68-1.66,0-.92.74-1.67,1.66-1.68.92,0,1.67.74,1.68,1.66,0,.92-.74,1.67-1.66,1.68Z"/>
            <path class="cls-14" d="m25.71,48.84c-.92,0-1.68-.74-1.68-1.66,0-.92.74-1.67,1.66-1.68.92,0,1.67.74,1.68,1.66,0,.92-.74,1.67-1.66,1.68Z"/>
            <path class="cls-14" d="m65.42,48.37c-.92,0-1.68-.74-1.68-1.66,0-.92.74-1.67,1.66-1.68.92,0,1.67.74,1.68,1.66,0,.92-.74,1.67-1.66,1.68Z"/>
            <polygon class="cls-18" points="62.15 10.3 28.61 53.94 28.61 31.46 45.5 10.3 62.15 10.3"/>
            <polygon class="cls-18" points="62.15 31.92 45.38 53.94 62.15 53.94 62.15 31.92"/>
            <g>
              <path class="cls-11" d="m37.82,7.79c0,.91-.74,1.65-1.64,1.65s-1.65-.74-1.65-1.65.74-1.64,1.65-1.64,1.64.74,1.64,1.64Z"/>
              <path class="cls-16" d="m36.49,6.77c.11.27-.11.61-.49.76-.38.15-.77.06-.88-.22-.11-.27.11-.61.49-.76.38-.15.77-.06.88.22Z"/>
            </g>
            <g>
              <path class="cls-11" d="m47.6,7.79c0,.91-.74,1.65-1.64,1.65s-1.65-.74-1.65-1.65.74-1.64,1.65-1.64,1.64.74,1.64,1.64Z"/>
              <path class="cls-16" d="m46.27,6.77c.11.27-.11.61-.48.76-.38.15-.77.06-.88-.22-.11-.27.11-.61.48-.76.38-.15.77-.06.88.22Z"/>
            </g>
            <g>
              <path class="cls-11" d="m57.12,7.79c0,.91-.74,1.65-1.65,1.65s-1.64-.74-1.64-1.65.74-1.64,1.64-1.64,1.65.74,1.65,1.64Z"/>
              <path class="cls-16" d="m55.79,6.77c.11.27-.11.61-.48.76-.38.15-.77.06-.88-.22-.11-.27.11-.61.48-.76.38-.15.77-.06.88.22Z"/>
            </g>
            <g>
              <path class="cls-11" d="m66.92,7.79c0,.91-.74,1.65-1.64,1.65s-1.65-.74-1.65-1.65.74-1.64,1.65-1.64,1.64.74,1.64,1.64Z"/>
              <path class="cls-16" d="m65.59,6.77c.11.27-.11.61-.48.76-.38.15-.77.06-.88-.22-.11-.27.11-.61.48-.76.38-.15.77-.06.88.22Z"/>
            </g>
            <g>
              <path class="cls-11" d="m27.35,16.54c0,.91-.74,1.65-1.64,1.65s-1.65-.74-1.65-1.65.74-1.65,1.65-1.65,1.64.74,1.64,1.65Z"/>
              <path class="cls-16" d="m26.01,15.51c.11.27-.11.61-.48.76-.38.15-.77.06-.88-.22-.11-.27.11-.61.48-.76.38-.15.77-.05.88.22Z"/>
            </g>
            <g>
              <circle class="cls-11" cx="25.61" cy="24.83" r="1.65"/>
              <path class="cls-16" d="m25.92,23.8c.11.27-.11.61-.48.76-.38.15-.77.05-.88-.22-.11-.27.11-.61.49-.76.38-.15.77-.06.88.22Z"/>
            </g>
            <g>
              <path class="cls-11" d="m27.35,32.45c0,.91-.74,1.64-1.64,1.64s-1.64-.74-1.64-1.64.74-1.64,1.64-1.64,1.64.74,1.64,1.64Z"/>
              <path class="cls-16" d="m26.02,31.42c.11.27-.11.61-.48.77-.38.15-.77.05-.88-.22-.11-.27.11-.61.48-.76.38-.15.77-.05.88.22Z"/>
            </g>
            <g>
              <path class="cls-11" d="m27.54,39.94c0,.91-.74,1.65-1.64,1.65s-1.65-.74-1.65-1.65.74-1.65,1.65-1.65,1.64.74,1.64,1.65Z"/>
              <path class="cls-16" d="m26.21,38.91c.11.27-.11.61-.48.76-.38.15-.77.05-.88-.22-.11-.27.11-.61.48-.76.38-.15.77-.06.88.22Z"/>
            </g>
            <g>
              <path class="cls-11" d="m27.54,47.81c0,.91-.74,1.65-1.64,1.65s-1.65-.74-1.65-1.65.74-1.65,1.65-1.65,1.64.74,1.64,1.65Z"/>
              <path class="cls-16" d="m26.21,46.78c.11.27-.11.61-.48.76-.38.15-.77.05-.88-.22-.11-.27.11-.61.48-.76.38-.15.77-.05.88.22Z"/>
            </g>
            <g>
              <path class="cls-11" d="m27.88,56.17c0,.91-.74,1.65-1.64,1.65s-1.65-.74-1.65-1.65.74-1.64,1.65-1.64,1.64.74,1.64,1.64Z"/>
              <path class="cls-16" d="m26.55,55.14c.11.27-.11.61-.48.76-.38.15-.77.05-.88-.22-.11-.27.11-.61.48-.76.38-.15.77-.06.88.22Z"/>
            </g>
            <g>
              <path class="cls-11" d="m37.95,56.35c0,.91-.74,1.65-1.64,1.65s-1.65-.74-1.65-1.65.74-1.64,1.65-1.64,1.64.74,1.64,1.64Z"/>
              <path class="cls-16" d="m36.62,55.32c.11.27-.11.61-.48.76-.38.15-.77.05-.88-.22-.11-.27.11-.61.48-.76.38-.15.77-.05.88.22Z"/>
            </g>
            <g>
              <path class="cls-11" d="m47.19,56.34c0,.91-.74,1.65-1.64,1.65s-1.65-.74-1.65-1.65.74-1.64,1.65-1.64,1.64.74,1.64,1.64Z"/>
              <path class="cls-16" d="m45.85,55.31c.11.27-.11.61-.49.76-.38.15-.77.05-.88-.22-.11-.27.11-.61.49-.76.38-.15.77-.05.88.22Z"/>
            </g>
            <g>
              <path class="cls-11" d="m56.82,56.37c0,.91-.74,1.65-1.64,1.65s-1.65-.74-1.65-1.65.74-1.64,1.65-1.64,1.64.74,1.64,1.64Z"/>
              <path class="cls-16" d="m55.49,55.34c.11.27-.11.61-.48.76-.38.15-.77.06-.88-.22-.11-.27.11-.61.48-.77.38-.15.77-.05.88.22Z"/>
            </g>
            <g>
              <path class="cls-11" d="m66.53,56.18c0,.91-.74,1.65-1.65,1.65s-1.64-.74-1.64-1.65.74-1.64,1.64-1.64,1.65.74,1.65,1.64Z"/>
              <path class="cls-16" d="m65.2,55.15c.11.27-.11.61-.49.76-.38.15-.77.06-.88-.22-.11-.27.11-.61.49-.76.38-.15.77-.05.88.22Z"/>
            </g>
            <g>
              <path class="cls-11" d="m66.53,46.3c0,.91-.74,1.65-1.65,1.65s-1.64-.74-1.64-1.65.74-1.65,1.64-1.65,1.65.74,1.65,1.65Z"/>
              <path class="cls-16" d="m65.2,45.27c.11.27-.11.61-.49.76-.38.15-.77.06-.88-.22-.11-.27.11-.61.49-.76.38-.15.77-.06.88.22Z"/>
            </g>
            <g>
              <path class="cls-11" d="m66.53,38.59c0,.91-.74,1.64-1.65,1.64s-1.64-.74-1.64-1.64.74-1.65,1.64-1.65,1.65.74,1.65,1.65Z"/>
              <path class="cls-16" d="m65.2,37.56c.11.27-.11.61-.49.76-.38.15-.77.05-.88-.22-.11-.27.11-.61.49-.76.38-.15.77-.05.88.22Z"/>
            </g>
            <g>
              <path class="cls-11" d="m66.53,30.88c0,.91-.74,1.65-1.65,1.65s-1.64-.74-1.64-1.65.74-1.64,1.64-1.64,1.65.74,1.65,1.64Z"/>
              <path class="cls-16" d="m65.2,29.85c.11.27-.11.61-.49.76-.38.15-.77.06-.88-.22-.11-.27.11-.61.49-.76.38-.15.77-.05.88.22Z"/>
            </g>
            <g>
              <path class="cls-11" d="m66.53,23.42c0,.91-.74,1.64-1.65,1.64s-1.64-.74-1.64-1.64.74-1.64,1.64-1.64,1.65.74,1.65,1.64Z"/>
              <path class="cls-16" d="m65.2,22.39c.11.27-.11.61-.49.76-.38.15-.77.06-.88-.22-.11-.27.11-.61.49-.76.38-.15.77-.05.88.22Z"/>
            </g>
            <g>
              <path class="cls-11" d="m66.53,15.06c0,.91-.74,1.65-1.65,1.65s-1.64-.74-1.64-1.65.74-1.65,1.64-1.65,1.65.74,1.65,1.65Z"/>
              <path class="cls-16" d="m65.2,14.03c.11.27-.11.61-.49.76-.38.15-.77.06-.88-.22-.11-.27.11-.61.49-.76.38-.15.77-.05.88.22Z"/>
            </g>
          </g>
          <g>
            <path class="cls-11" d="m19.57,41.21c0,.66-3.33,1.19-7.44,1.19s-7.44-.53-7.44-1.19,3.33-1.19,7.44-1.19,7.44.53,7.44,1.19Z"/>
            <path class="cls-11" d="m19.57,41.21c0-.66-3.33-1.19-7.44-1.19s-7.44.53-7.44,1.19h0s14.89,0,14.89,0h0Z"/>
            <g>
              <rect class="cls-15" x="13.65" y="35.64" width="3.21" height="16.08"/>
              <path class="cls-17" d="m12.06,34.57h6.6c.32,0,.58.26.58.58v.34c0,.32-.26.58-.58.58h-6.6c-.32,0-.58-.26-.58-.58v-.34c0-.32.26-.58.58-.58Z"/>
              <path class="cls-17" d="m11.75,14.52h6.91c.32,0,.58.26.58.58v1.13c0,.32-.26.59-.59.59h-6.91c-.32,0-.58-.26-.58-.58v-1.13c0-.32.26-.58.58-.58Z"/>
              <rect class="cls-15" x="10.24" y="15.04" width="10.02" height="19.95" rx="1.17" ry="1.17"/>
              <g>
                <rect class="cls-13" x="18.71" y="16.3" width="2.19" height=".26"/>
                <path class="cls-10" d="m21.4,16.43c0,.21-.17.38-.38.38s-.38-.17-.38-.38.17-.38.38-.38.38.17.38.38Z"/>
                <rect class="cls-13" x="18.71" y="18.05" width="2.19" height=".26"/>
                <path class="cls-10" d="m21.4,18.18c0,.21-.17.38-.38.38s-.38-.17-.38-.38.17-.38.38-.38.38.17.38.38Z"/>
                <rect class="cls-13" x="18.71" y="19.8" width="2.19" height=".26"/>
                <path class="cls-10" d="m21.4,19.93c0,.21-.17.38-.38.38s-.38-.17-.38-.38.17-.38.38-.38.38.17.38.38Z"/>
                <rect class="cls-13" x="18.71" y="21.55" width="2.19" height=".26"/>
                <path class="cls-10" d="m21.4,21.69c0,.21-.17.38-.38.38s-.38-.17-.38-.38.17-.38.38-.38.38.17.38.38Z"/>
                <rect class="cls-13" x="18.71" y="23.31" width="2.19" height=".26"/>
                <path class="cls-10" d="m21.4,23.44c0,.21-.17.38-.38.38s-.38-.17-.38-.38.17-.38.38-.38.38.17.38.38Z"/>
                <rect class="cls-13" x="18.71" y="25.06" width="2.19" height=".26"/>
                <path class="cls-10" d="m21.4,25.19c0,.21-.17.38-.38.38s-.38-.17-.38-.38.17-.38.38-.38.38.17.38.38Z"/>
                <rect class="cls-13" x="18.71" y="26.81" width="2.19" height=".26"/>
                <path class="cls-10" d="m21.4,26.94c0,.21-.17.38-.38.38s-.38-.17-.38-.38.17-.38.38-.38.38.17.38.38Z"/>
                <rect class="cls-13" x="18.71" y="28.56" width="2.19" height=".26"/>
                <path class="cls-10" d="m21.4,28.69c0,.21-.17.38-.38.38s-.38-.17-.38-.38.17-.38.38-.38.38.17.38.38Z"/>
                <rect class="cls-13" x="18.71" y="30.31" width="2.19" height=".26"/>
                <path class="cls-10" d="m21.4,30.44c0,.21-.17.38-.38.38s-.38-.17-.38-.38.17-.38.38-.38.38.17.38.38Z"/>
                <rect class="cls-13" x="18.71" y="32.06" width="2.19" height=".26"/>
                <path class="cls-10" d="m21.4,32.2c0,.21-.17.38-.38.38s-.38-.17-.38-.38.17-.38.38-.38.38.17.38.38Z"/>
                <rect class="cls-13" x="18.71" y="33.82" width="2.19" height=".26"/>
                <path class="cls-10" d="m21.4,33.95c0,.21-.17.38-.38.38s-.38-.17-.38-.38.17-.38.38-.38.38.17.38.38Z"/>
              </g>
              <rect class="cls-13" x="9.28" y="16.3" width="2.19" height=".26"/>
              <path class="cls-10" d="m8.78,16.43c0,.21.17.38.38.38s.38-.17.38-.38-.17-.38-.38-.38-.38.17-.38.38Z"/>
              <circle class="cls-10" cx="12.33" cy="16.43" r=".38"/>
              <path class="cls-10" d="m14.87,16.43c0,.21.17.38.38.38s.38-.17.38-.38-.17-.38-.38-.38-.38.17-.38.38Z"/>
              <path class="cls-10" d="m17.79,16.43c0,.21.17.38.38.38s.38-.17.38-.38-.17-.38-.38-.38-.38.17-.38.38Z"/>
              <path class="cls-10" d="m11.95,18.77c0,.21.17.38.38.38s.38-.17.38-.38-.17-.38-.38-.38-.38.17-.38.38Z"/>
              <path class="cls-10" d="m14.87,18.77c0,.21.17.38.38.38s.38-.17.38-.38-.17-.38-.38-.38-.38.17-.38.38Z"/>
              <path class="cls-10" d="m17.79,18.77c0,.21.17.38.38.38s.38-.17.38-.38-.17-.38-.38-.38-.38.17-.38.38Z"/>
              <path class="cls-10" d="m11.95,21.1c0,.21.17.38.38.38s.38-.17.38-.38-.17-.39-.38-.39-.38.17-.38.39Z"/>
              <path class="cls-10" d="m14.87,21.1c0,.21.17.38.38.38s.38-.17.38-.38-.17-.39-.38-.39-.38.17-.38.39Z"/>
              <path class="cls-10" d="m17.79,21.1c0,.21.17.38.38.38s.38-.17.38-.38-.17-.39-.38-.39-.38.17-.38.39Z"/>
              <path class="cls-10" d="m11.95,23.44c0,.21.17.38.38.38s.38-.17.38-.38-.17-.38-.38-.38-.38.17-.38.38Z"/>
              <path class="cls-10" d="m14.87,23.44c0,.21.17.38.38.38s.38-.17.38-.38-.17-.38-.38-.38-.38.17-.38.38Z"/>
              <path class="cls-10" d="m17.79,23.44c0,.21.17.38.38.38s.38-.17.38-.38-.17-.38-.38-.38-.38.17-.38.38Z"/>
              <path class="cls-10" d="m11.95,25.77c0,.21.17.38.38.38s.38-.17.38-.38-.17-.38-.38-.38-.38.17-.38.38Z"/>
              <path class="cls-10" d="m14.87,25.77c0,.21.17.38.38.38s.38-.17.38-.38-.17-.38-.38-.38-.38.17-.38.38Z"/>
              <path class="cls-10" d="m17.79,25.77c0,.21.17.38.38.38s.38-.17.38-.38-.17-.38-.38-.38-.38.17-.38.38Z"/>
              <circle class="cls-10" cx="12.33" cy="28.11" r=".38"/>
              <path class="cls-10" d="m14.87,28.11c0,.21.17.38.38.38s.38-.17.38-.38-.17-.38-.38-.38-.38.17-.38.38Z"/>
              <path class="cls-10" d="m17.79,28.11c0,.21.17.38.38.38s.38-.17.38-.38-.17-.38-.38-.38-.38.17-.38.38Z"/>
              <path class="cls-10" d="m11.95,30.44c0,.21.17.38.38.38s.38-.17.38-.38-.17-.38-.38-.38-.38.17-.38.38Z"/>
              <path class="cls-10" d="m14.87,30.44c0,.21.17.38.38.38s.38-.17.38-.38-.17-.38-.38-.38-.38.17-.38.38Z"/>
              <path class="cls-10" d="m17.79,30.44c0,.21.17.38.38.38s.38-.17.38-.38-.17-.38-.38-.38-.38.17-.38.38Z"/>
              <path class="cls-10" d="m11.95,32.78c0,.21.17.38.38.38s.38-.17.38-.38-.17-.38-.38-.38-.38.17-.38.38Z"/>
              <path class="cls-10" d="m14.87,32.78c0,.21.17.38.38.38s.38-.17.38-.38-.17-.38-.38-.38-.38.17-.38.38Z"/>
              <path class="cls-10" d="m17.79,32.78c0,.21.17.38.38.38s.38-.17.38-.38-.17-.38-.38-.38-.38.17-.38.38Z"/>
              <rect class="cls-13" x="9.28" y="18.05" width="2.19" height=".26"/>
              <path class="cls-10" d="m8.78,18.18c0,.21.17.38.38.38s.38-.17.38-.38-.17-.38-.38-.38-.38.17-.38.38Z"/>
              <rect class="cls-13" x="9.28" y="19.8" width="2.19" height=".26"/>
              <path class="cls-10" d="m8.78,19.93c0,.21.17.38.38.38s.38-.17.38-.38-.17-.38-.38-.38-.38.17-.38.38Z"/>
              <rect class="cls-13" x="9.28" y="21.55" width="2.19" height=".26"/>
              <path class="cls-10" d="m8.78,21.69c0,.21.17.38.38.38s.38-.17.38-.38-.17-.38-.38-.38-.38.17-.38.38Z"/>
              <rect class="cls-13" x="9.28" y="23.31" width="2.19" height=".26"/>
              <path class="cls-10" d="m8.78,23.44c0,.21.17.38.38.38s.38-.17.38-.38-.17-.38-.38-.38-.38.17-.38.38Z"/>
              <rect class="cls-13" x="9.28" y="25.06" width="2.19" height=".26"/>
              <path class="cls-10" d="m8.78,25.19c0,.21.17.38.38.38s.38-.17.38-.38-.17-.38-.38-.38-.38.17-.38.38Z"/>
              <rect class="cls-13" x="9.28" y="26.81" width="2.19" height=".26"/>
              <path class="cls-10" d="m8.78,26.94c0,.21.17.38.38.38s.38-.17.38-.38-.17-.38-.38-.38-.38.17-.38.38Z"/>
              <rect class="cls-13" x="9.28" y="28.56" width="2.19" height=".26"/>
              <path class="cls-10" d="m8.78,28.69c0,.21.17.38.38.38s.38-.17.38-.38-.17-.38-.38-.38-.38.17-.38.38Z"/>
              <rect class="cls-13" x="9.28" y="30.31" width="2.19" height=".26"/>
              <path class="cls-10" d="m8.78,30.44c0,.21.17.38.38.38s.38-.17.38-.38-.17-.38-.38-.38-.38.17-.38.38Z"/>
              <rect class="cls-13" x="9.28" y="32.06" width="2.19" height=".26"/>
              <path class="cls-10" d="m8.78,32.2c0,.21.17.38.38.38s.38-.17.38-.38-.17-.38-.38-.38-.38.17-.38.38Z"/>
              <rect class="cls-13" x="9.28" y="33.82" width="2.19" height=".26"/>
              <path class="cls-10" d="m8.78,33.95c0,.21.17.38.38.38s.38-.17.38-.38-.17-.38-.38-.38-.38.17-.38.38Z"/>
              <path class="cls-4" d="m19.09,34.99c.64,0,1.17-.52,1.17-1.17v-17.62c0-.28-.1-.53-.27-.73-.73,3.89-3.14,13.97-9.05,19.42.14.06.3.1.46.1h7.69Z"/>
            </g>
            <g>
              <path class="cls-18" d="m2.96,20.83l.11-.04,4.98-1.61c.17-.06.25-.3.17-.55-.08-.25-.29-.41-.46-.35l-4.98,1.61-.31-.96,4.98-1.61c.17-.06.25-.3.17-.55-.08-.25-.29-.41-.46-.35L.2,18.65c-.17.06-.25.3-.17.55.01.03.05.15.06.18l10.27,31.76c.11.35.39.56.63.49l1.41-.46-3.6-11.26c0-.18.07-.33.21-.38l.12-.04,4.98-1.61c.17-.06.25-.3.16-.56-.08-.25-.29-.41-.46-.35l-4.98,1.61-.31-.96,4.98-1.61c.17-.06.25-.3.17-.56-.08-.25-.29-.41-.46-.35l-4.98,1.61-.31-.96,4.98-1.61c.17-.06.25-.3.17-.56-.08-.25-.29-.41-.46-.35l-4.98,1.61-.31-.97,4.98-1.61c.17-.06.25-.3.16-.55-.08-.25-.28-.41-.46-.35l-4.98,1.61-.31-.96,4.98-1.61c.17-.06.25-.3.17-.56-.08-.25-.29-.41-.46-.35l-4.98,1.61-.31-.96,4.98-1.61c.17-.06.25-.31.17-.56-.08-.25-.29-.41-.46-.35l-4.98,1.61-.31-.96,4.98-1.61c.17-.06.25-.3.17-.56-.08-.25-.29-.41-.46-.35l-4.98,1.61-.31-.96,4.98-1.61c.17-.06.25-.3.17-.55-.08-.25-.29-.41-.46-.35l-4.98,1.61-.31-.96,4.98-1.61c.17-.06.25-.31.16-.56-.08-.25-.29-.41-.46-.35l-4.98,1.61-.31-.96,4.98-1.61c.17-.06.25-.3.17-.55-.08-.25-.29-.41-.46-.35l-4.98,1.61-.12.04c-.18.06-.4-.11-.49-.38-.09-.27,0-.53.18-.59Z"/>
              <rect class="cls-18" x="1.97" y="20.29" width="1.33" height="2.64" transform="translate(-6.51 1.85) rotate(-17.88)"/>
            </g>
            <path class="cls-16" d="m12.12,42.4c-4.11,0-7.44-.53-7.44-1.19v18.38h.02c.21.63,3.45,1.13,7.42,1.13s7.21-.5,7.42-1.13h.02v-18.38c0,.66-3.33,1.19-7.44,1.19Z"/>
            <path class="cls-11" d="m19.55,59.59h.02v-14.41c-1.02,4.79-4.03,12.52-12.78,15.17,1.35.22,3.24.36,5.34.36,3.98,0,7.21-.5,7.42-1.13Z"/>
          </g>
          <path class="cls-16" d="m71.57,16.26c-.59,0-1.07-.47-1.07-1.05s.48-1.05,1.07-1.05,1.07.47,1.07,1.05-.48,1.05-1.07,1.05Zm0-1.81c-.43,0-.77.34-.77.76s.35.76.77.76.78-.34.78-.76-.35-.76-.78-.76Z"/>
          <path class="cls-16" d="m19.37,8.28c.14-.17.2-.78.43-.78s.27.62.43.78c.16.16.79.2.78.43-.01.22-.64.25-.78.43-.14.17-.21.79-.43.78-.22-.01-.25-.64-.43-.78-.18-.14-.79-.21-.78-.43.01-.22.64-.25.78-.43Z"/>
          <path class="cls-18" d="m16.6,6.07c.03.38-.25.71-.63.74-.38.03-.71-.25-.74-.62-.04-.38.25-.71.63-.74.38-.03.71.25.74.63Z"/>
          <path class="cls-12" d="m75.3,24.08c.03.38-.25.71-.63.74-.38.03-.71-.25-.74-.62-.04-.38.25-.71.62-.74.38-.03.71.25.74.63Z"/>
          <path class="cls-16" d="m61.72,18.72c.14-.17.2-.78.43-.78s.27.62.43.78c.16.16.79.2.78.43-.01.22-.64.25-.78.43-.14.17-.21.79-.43.78-.22-.01-.25-.64-.43-.78-.18-.14-.79-.21-.78-.43.01-.22.64-.25.78-.43Z"/>
          <g>
            <path class="cls-19" d="m65.18,30.4s-.22-.86-1.55-.73c-1.55.16-4.23,2.85-6.38,2.38-2.16-.48-2.7-1.97-3.19-2.93-.48-.96-.27-1.55-.61-2.08-.33-.53-.88-.11-.44,1.6.22.82.82,4.96,3.32,6.03,3.28,1.4,9.57-2.24,8.86-4.27Z"/>
            <path class="cls-5" d="m62.56,24.71s.4-.97,1.36-.71c2.68.71,6.91,3.27,5.99,7.2-1.2,5.18.88,3.89,1.66,5.04,1.91,2.82-2.25,6.29-5.78,3.7-1.96-1.43-.9-5.73-1.39-6.76-.5-1.03-1.51-1.34-1.64-3.07-.13-1.73-.42-3.91-.58-4.36-.16-.46.03-.91.38-1.04Z"/>
            <path class="cls-2" d="m60.26,41.42c-.36,1.05-.74,2.32-.97,3.69-1.4,8.48,3.44,8.99,3.98,5.63.48-2.93,5.34-10.71,1.47-13.29-1.25-.84-3.72-.25-4.48,3.96Z"/>
            <path class="cls-19" d="m60.46,41.19s.92-2.54-.21-5.57c-.54-1.45-1.4-1.62-.16-3.32,1.43-1.96,2.43-3.18,3.64-2.58,2.93,1.45,1.77,2.25,1.99,3.71.13.85-.13,3.4,1.52,5.21l-6.78,2.55Z"/>
            <path class="cls-16" d="m66.26,35.85s-2.93,2.48-5.88,1.81c0,0-1.9-2.85-.69-4.75,0,0,1.74.57,2.43-1.21.56-1.43,1.89-1.84,1.89-1.84,0,0,.15,0,.32.08.62.27,1.11.68,1.22.96.49,1.22.71,4.95.71,4.95Z"/>
            <path class="cls-7" d="m64.35,26.59s-1.23,2.22-.87,3.15c.2.52-2.41,1.55-2.11,1,.55-1.03.46-1.47-.05-2.37l3.03-1.78Z"/>
            <path class="cls-19" d="m62.37,24.72c-.8.67-1.82,3.76-1.07,4.49.32.32,1.78.58,2.74-1.27.32-.6.93-1.58.44-2.68-.23-.5-1.18-1.33-2.11-.55Z"/>
            <path class="cls-5" d="m61.8,24.82c-.1.41-.13.66.84.63,1.18-.04.93.78.79,1.05-.4.81,1.05.07.55,1.03-.49.96.89-.15,1.01-.29.12-.14.56-.77,0-2.23-.58-1.47-2.87-1.47-3.18-.19Z"/>
            <path class="cls-19" d="m81.13,37.53c.82,1.09.9,1.98.24,1.48-.66-.5-.75-.47-.93-.3-2.32,2.08-3,7.82-6.63,9.95l-1.59-4.27c.5-.39.91-.75,1.19-1.07,2.07-2.37,6.9-6.88,7.72-5.79Z"/>
            <path class="cls-19" d="m61.72,60.83c-2.52,0-2.01-.83-1.19-.91.82-.09.87-.17.89-.42.27-3.11-3.16-7.76-1.96-11.79l4.08,2.03c-.09.62-.15,1.17-.14,1.59.11,3.15-.3,9.5-1.67,9.51Z"/>
            <path class="cls-15" d="m63.75,39.06s-.98-.04-2.94-.5c0,0-1.72,6.62-1.91,8.05-.19,1.43.64,7.17,1.86,9.37,0,0,.81,1.23,2.75.56,0,0-.19-5.2.06-6.43.25-1.23,1.89-4.15,1.8-6.88-.09-2.73-1.62-4.18-1.62-4.18Z"/>
            <path class="cls-17" d="m66.21,36.87s.1.18,3.06,3.85c0,0,1.6,3.15,2.78,3.06,1.61-.11,1.86-2.23,4.8-3.89,0,0,1.68.15,1.89,1.35,0,0-1.88,6.48-5.51,7.73,0,0-1.71.61-4.39-.32-5.49-1.91-8.02-10.1-8.02-10.1,0,0,4.2-.31,5.4-1.69Z"/>
            <path class="cls-1" d="m71.46,46.32c.08,0,.16,0,.23-.02,2.81-.46,6.04-5.87,6.17-6.1l-.22-.13c-.03.05-3.31,5.53-6,5.97-2.66.43-7.14-8.12-7.19-8.21l-.23.12c.18.35,4.39,8.36,7.23,8.36Z"/>
            <path class="cls-5" d="m64.99,45.98s-.62,2.11-.98,2.81c0,0,.41-3.42,0-4l.98,1.19Z"/>
            <g>
              <path class="cls-16" d="m50.37,17.24l-.12.04-4.95,1.69c-.17.06-.38-.1-.47-.35-.08-.25-.02-.5.16-.56l4.96-1.69-.33-.96-4.96,1.69c-.17.06-.38-.1-.46-.34-.08-.25-.01-.5.16-.56l6.92-2.36c.17-.06.38.1.46.35.01.03.05.15.06.18l10.77,31.59c.12.34.02.69-.22.77l-1.41.48-3.85-11.18c-.11-.15-.26-.22-.39-.18l-.11.04-4.96,1.69c-.17.06-.38-.09-.47-.34-.09-.25-.02-.5.16-.56l4.96-1.69-.33-.96-4.95,1.69c-.17.06-.38-.1-.47-.35-.08-.25-.01-.5.16-.56l4.96-1.69-.33-.96-4.95,1.69c-.17.06-.38-.1-.47-.35-.08-.25-.01-.5.16-.56l4.95-1.69-.33-.96-4.96,1.69c-.17.06-.38-.1-.46-.34-.08-.25-.02-.5.16-.56l4.95-1.69-.33-.96-4.96,1.69c-.17.06-.38-.1-.46-.35-.08-.25-.02-.5.16-.56l4.95-1.69-.33-.96-4.96,1.69c-.17.06-.38-.1-.46-.35-.08-.25-.01-.5.16-.56l4.96-1.69-.33-.96-4.95,1.69c-.17.06-.38-.1-.47-.35-.08-.25-.01-.5.16-.56l4.95-1.69-.33-.96-4.95,1.69c-.17.06-.38-.09-.46-.34-.09-.25-.01-.5.16-.56l4.95-1.69-.32-.96-4.95,1.69c-.17.06-.38-.1-.46-.34-.09-.25-.01-.5.16-.56l4.96-1.69-.33-.96-4.96,1.69c-.17.06-.38-.1-.46-.35-.08-.25-.01-.5.16-.56l4.95-1.69.11-.04c.18-.06.26-.33.17-.59-.09-.27-.31-.43-.49-.37Z"/>
              <rect class="cls-16" x="50.43" y="16.36" width="1.33" height="2.64" transform="translate(-2.97 17.42) rotate(-18.81)"/>
            </g>
            <path class="cls-19" d="m65.29,30.52s-.61-.65-1.71.11c-1.28.89-2.32,4.54-4.44,5.17-2.12.62-3.32-.42-4.21-1.02-.89-.6-.99-1.23-1.54-1.53-.55-.3-.83.33.38,1.61.58.61,3.11,3.95,5.82,3.68,3.55-.36,7.3-6.59,5.7-8.02Z"/>
          </g>
        </g>
      </g>
    </g>
  </g>
</svg>