<?xml version="1.0" encoding="UTF-8"?>
<svg xmlns="http://www.w3.org/2000/svg" viewBox="0 0 74.01 62.75">
  <defs>
    <style>
      .cls-1 {
        fill: #f9d483;
      }

      .cls-2 {
        fill: #8196fc;
      }

      .cls-3 {
        fill: #1d1b3a;
      }

      .cls-4 {
        isolation: isolate;
      }

      .cls-5 {
        fill: #fff;
      }

      .cls-5, .cls-6 {
        mix-blend-mode: overlay;
        opacity: .3;
      }

      .cls-7 {
        fill: #7585f8;
      }

      .cls-8 {
        fill: #97a9ff;
      }

      .cls-9 {
        fill: #f28f19;
      }

      .cls-10 {
        fill: #b38cff;
      }

      .cls-11 {
        fill: #ef60ae;
      }

      .cls-12 {
        fill: #f7b2a0;
      }

      .cls-13 {
        fill: #f4a517;
      }

      .cls-14 {
        fill: #fe71b7;
      }

      .cls-15 {
        fill: #a4dcff;
      }

      .cls-16 {
        fill: #be4719;
      }
    </style>
  </defs>
  <g class="cls-4">
    <g id="Layer_2" data-name="Layer 2">
      <g id="Layer_1-2" data-name="Layer 1">
        <g>
          <g>
            <g>
              <path class="cls-13" d="m16.51,55.13l.02.37s.25-.01.49-.03c.24-.02.49-.04.49-.04l-.04-.37s-.24.02-.48.04c-.24.01-.48.03-.48.03Z"/>
              <polygon class="cls-13" points="15.08 55.16 15.08 55.53 16.05 55.52 16.04 55.15 15.08 55.16"/>
              <polygon class="cls-13" points="13.65 55.13 13.63 55.5 14.6 55.53 14.61 55.16 13.65 55.13"/>
              <polygon class="cls-13" points="12.23 55.01 12.19 55.38 13.16 55.47 13.18 55.1 12.23 55.01"/>
              <path class="cls-13" d="m10.82,54.81l-.07.36s.24.05.48.08c.24.03.48.07.48.07l.05-.37s-.24-.03-.47-.07c-.24-.03-.47-.08-.47-.08Z"/>
              <path class="cls-13" d="m9.43,54.5l-.1.36s.23.07.47.12c.24.05.47.11.47.11l.08-.36s-.23-.05-.47-.11c-.23-.05-.46-.12-.46-.12Z"/>
              <path class="cls-13" d="m8.09,54.05l-.14.34s.23.1.46.17c.23.08.46.16.46.16l.11-.35s-.23-.08-.45-.15c-.23-.07-.44-.17-.44-.17Z"/>
            </g>
            <g>
              <path class="cls-13" d="m6.82,53.42l-.19.32s.21.14.43.25c.22.11.44.22.44.22l.16-.34s-.21-.1-.42-.21c-.21-.1-.41-.23-.41-.24Z"/>
              <path class="cls-13" d="m5.72,52.58l-.26.26s.18.17.37.34c.2.15.4.3.4.3l.21-.3s-.19-.14-.37-.28c-.17-.16-.34-.32-.34-.32Z"/>
              <path class="cls-13" d="m4.88,51.49l-.32.18s.13.21.27.42c.13.21.31.39.31.39l.29-.24s-.16-.17-.29-.37c-.12-.2-.25-.39-.25-.39Z"/>
              <path class="cls-13" d="m4.4,50.19l-.36.08s.06.24.13.48c.06.25.17.47.17.47l.34-.15s-.1-.21-.16-.44c-.06-.22-.14-.45-.12-.45Z"/>
              <path class="cls-13" d="m4.3,48.81l-.37-.02s0,1,.04.99l.37-.04s-.04-.93-.04-.93Z"/>
              <path class="cls-13" d="m4.5,47.42l-.36-.08s-.05.24-.1.48c-.04.24-.06.49-.06.49l.37.04s.02-.23.06-.47c.05-.23.1-.46.1-.46Z"/>
              <polygon class="cls-13" points="4.9 46.06 4.55 45.93 4.25 46.87 4.61 46.96 4.9 46.06"/>
            </g>
            <g>
              <polygon class="cls-13" points="5.35 44.68 5 44.57 4.69 45.48 5.04 45.6 5.35 44.68"/>
              <path class="cls-13" d="m5.77,43.3l-.36-.1s-.06.23-.12.46c-.06.23-.14.46-.14.46l.35.11s.09-.23.14-.46c.06-.23.13-.47.13-.47Z"/>
              <path class="cls-13" d="m6.14,41.9l-.36-.08s-.05.23-.12.47c-.06.23-.13.46-.13.46l.36.09s.06-.23.13-.47c.06-.23.12-.47.12-.47Z"/>
              <polygon class="cls-13" points="6.41 40.47 6.04 40.41 5.86 41.35 6.23 41.43 6.41 40.47"/>
              <polygon class="cls-13" points="6.58 39.03 6.22 39 6.11 39.95 6.48 40 6.58 39.03"/>
              <polygon class="cls-13" points="6.64 37.57 6.27 37.58 6.26 38.53 6.63 38.55 6.64 37.57"/>
              <polygon class="cls-13" points="6.55 36.12 6.19 36.16 6.27 37.11 6.64 37.09 6.55 36.12"/>
            </g>
            <g>
              <polygon class="cls-13" points="6.3 34.68 5.94 34.77 6.12 35.7 6.49 35.64 6.3 34.68"/>
              <path class="cls-13" d="m5.85,33.28l-.35.13s.3.9.3.9l.36-.1s-.29-.94-.31-.93Z"/>
              <path class="cls-13" d="m5.25,31.95l-.33.17s.11.21.22.43c.1.21.19.44.19.44l.34-.15s-.08-.23-.19-.45c-.11-.22-.22-.44-.22-.44Z"/>
              <polygon class="cls-13" points="4.54 30.69 4.23 30.88 4.71 31.71 5.03 31.53 4.54 30.69"/>
              <polygon class="cls-13" points="3.77 29.46 3.46 29.67 3.98 30.48 4.29 30.28 3.77 29.46"/>
              <polygon class="cls-13" points="2.98 28.26 2.67 28.46 3.2 29.27 3.51 29.07 2.98 28.26"/>
              <polygon class="cls-13" points="2.2 27.05 1.89 27.25 2.41 28.07 2.72 27.87 2.2 27.05"/>
            </g>
            <g>
              <polygon class="cls-13" points="1.47 25.82 1.15 26 1.64 26.85 1.95 26.65 1.47 25.82"/>
              <path class="cls-13" d="m.85,24.55l-.35.14s.41.9.41.9l.33-.17s-.42-.85-.39-.86Z"/>
              <path class="cls-13" d="m.47,23.21l-.37.06s.01.06.02.15c.02.09.05.21.08.33.06.24.13.48.13.48l.35-.11s-.07-.23-.12-.45c-.03-.11-.06-.23-.08-.31-.01-.09-.02-.14-.02-.14Z"/>
              <path class="cls-13" d="m.38,21.82l-.37-.02s-.02.25,0,.5c0,.25.03.5.03.5l.37-.04s-.02-.23-.03-.47c-.02-.23,0-.47,0-.47Z"/>
              <path class="cls-13" d="m.6,20.44l-.36-.1s-.02.06-.04.15c-.03.09-.06.21-.07.33-.04.24-.08.49-.08.49l.37.04s.04-.23.08-.46c.02-.12.04-.23.07-.31.02-.08.04-.14.04-.14Z"/>
              <path class="cls-13" d="m1.12,19.14l-.33-.17s-.11.22-.22.44c-.09.23-.18.46-.18.46l.35.12s.08-.22.17-.44c.1-.21.21-.42.21-.42Z"/>
              <path class="cls-13" d="m1.9,17.99l-.28-.24s-.15.2-.3.39c-.16.19-.28.41-.28.41l.31.2s.11-.21.26-.39c.14-.19.29-.37.29-.37Z"/>
            </g>
            <g>
              <path class="cls-13" d="m2.91,17.03l-.22-.29s-.76.64-.74.66l.27.26s.69-.64.7-.62Z"/>
              <path class="cls-13" d="m4.1,16.31l-.16-.34s-.22.11-.45.22c-.21.13-.42.26-.42.26l.21.31s.2-.12.4-.25c.21-.11.42-.21.42-.21Z"/>
              <path class="cls-13" d="m5.42,15.87l-.07-.36s-.96.25-.96.27l.13.35s.89-.28.9-.26Z"/>
              <path class="cls-13" d="m6.81,15.79l.03-.37s-.25-.03-.5-.02c-.25.01-.5.03-.5.03l.04.37s.23-.01.46-.02c.23-.01.46.01.46.01Z"/>
              <path class="cls-13" d="m8.16,16.07l.13-.35s-.24-.07-.48-.14c-.24-.07-.49-.1-.49-.1l-.06.37s.24.03.45.09c.22.07.45.13.45.13Z"/>
              <path class="cls-13" d="m9.38,16.73l.21-.3s-.84-.53-.86-.51l-.16.34s.82.45.8.47Z"/>
              <path class="cls-13" d="m10.41,17.66l.28-.25s-.71-.7-.71-.7l-.24.29s.69.64.67.66Z"/>
            </g>
            <g>
              <path class="cls-13" d="m11.25,18.79l.32-.19s-.13-.21-.28-.41c-.14-.2-.29-.4-.29-.4l-.29.23s.14.19.27.38c.14.19.26.39.26.39Z"/>
              <path class="cls-13" d="m11.89,20.05l.34-.15s-.1-.22-.2-.45c-.1-.23-.23-.44-.23-.44l-.33.18s.13.2.22.42c.1.22.19.43.19.43Z"/>
              <polygon class="cls-13" points="12.48 21.37 12.81 21.21 12.42 20.33 12.08 20.47 12.48 21.37"/>
              <path class="cls-13" d="m13.18,22.65l.32-.2s-.46-.83-.46-.83l-.33.17s.46.87.48.85Z"/>
              <path class="cls-13" d="m14.02,23.85l.29-.23s-.15-.19-.29-.37c-.15-.19-.27-.39-.27-.39l-.31.21s.12.21.28.4c.15.2.3.39.3.39Z"/>
              <path class="cls-13" d="m15.01,24.92l.25-.27s-.66-.68-.66-.68l-.28.24s.67.73.69.71Z"/>
              <path class="cls-13" d="m16.17,25.83l.2-.31s-.78-.54-.76-.56l-.23.29s.79.59.79.59Z"/>
            </g>
            <g>
              <path class="cls-13" d="m17.48,26.5l.14-.34s-.22-.09-.44-.18c-.21-.11-.41-.22-.41-.22l-.18.32s.22.12.44.24c.23.1.46.19.46.19Z"/>
              <path class="cls-13" d="m18.89,26.92l.07-.36s-.23-.04-.46-.1c-.23-.07-.45-.14-.45-.14l-.12.35s.24.07.47.15c.24.07.48.11.48.11Z"/>
              <path class="cls-13" d="m20.35,27.09v-.37s-.93-.08-.93-.08l-.05.37s.25.03.49.05c.25.04.49.03.49.03Z"/>
              <path class="cls-13" d="m21.81,27.03l-.04-.37s-.95.07-.95.07v.37s.99-.05.99-.07Z"/>
              <path class="cls-13" d="m23.25,26.77l-.09-.36s-.23.05-.47.1c-.23.05-.47.09-.47.09l.06.37s.24-.04.48-.09c.24-.05.48-.1.48-.1Z"/>
              <path class="cls-13" d="m24.65,26.36l-.12-.35s-.23.07-.45.15c-.23.08-.46.14-.46.14l.1.36s.24-.06.47-.14c.23-.08.46-.15.46-.15Z"/>
              <path class="cls-13" d="m26,25.82l-.15-.34s-.22.1-.44.19c-.22.1-.44.18-.44.18l.13.35s.23-.08.46-.18c.22-.1.45-.2.45-.2Z"/>
            </g>
            <g>
              <path class="cls-13" d="m27.31,25.17l-.18-.33s-.21.11-.42.23c-.22.11-.43.21-.43.21l.16.34s.22-.11.44-.21c.22-.12.43-.23.43-.23Z"/>
              <path class="cls-13" d="m28.55,24.42l-.2-.31s-.2.13-.4.26c-.2.12-.41.24-.41.24l.19.32s.21-.13.42-.25c.21-.13.41-.26.41-.26Z"/>
              <path class="cls-13" d="m29.74,23.59l-.22-.3s-.19.14-.39.28c-.2.14-.39.27-.39.27l.21.31s.2-.14.4-.28c.2-.15.39-.29.39-.29Z"/>
              <path class="cls-13" d="m30.87,22.67l-.25-.28s-.18.16-.36.31c-.18.15-.37.3-.37.3l.23.29s.19-.15.38-.31c.19-.16.37-.32.37-.32Z"/>
              <path class="cls-13" d="m31.89,21.64l-.27-.26s-.16.19-.33.36c-.16.17-.34.34-.34.34l.26.27s.18-.17.35-.35c.18-.18.33-.35.33-.35Z"/>
              <path class="cls-13" d="m32.95,20.78l-.19-.32c-.26.15-.58.25-.78.49l-.04.06.25.28.04-.05c.18-.23.48-.31.72-.45Z"/>
              <path class="cls-13" d="m34.25,20.26l-.11-.35s-.24.07-.46.16c-.23.09-.46.18-.46.18l.15.34s.22-.09.44-.17c.22-.09.45-.15.45-.15Z"/>
            </g>
            <g>
              <path class="cls-13" d="m35.62,19.92l-.07-.36s-.96.21-.96.21l.1.36s.92-.23.93-.21Z"/>
              <path class="cls-13" d="m37.02,19.76v-.37s-.26.02-.5.04c-.25.02-.49.05-.49.05l.05.37s.24-.03.47-.04c.24-.02.47-.03.47-.03Z"/>
              <path class="cls-13" d="m38.42,19.85l.05-.37s-.24-.03-.49-.06c-.25,0-.49-.01-.49-.01v.37s.23,0,.46.01c.24.03.47.06.47.06Z"/>
              <path class="cls-13" d="m39.8,20.13l.11-.36s-.95-.26-.96-.24l-.07.37s.92.23.92.23Z"/>
              <path class="cls-13" d="m41.11,20.64l.16-.33s-.23-.1-.45-.19c-.23-.09-.46-.18-.46-.18l-.12.35s.22.09.44.18c.22.09.44.17.44.18Z"/>
              <path class="cls-13" d="m42.33,21.35l.21-.31s-.84-.5-.84-.5l-.18.33s.83.46.81.49Z"/>
              <path class="cls-13" d="m43.45,22.22l.25-.28s-.05-.04-.11-.1c-.07-.06-.16-.15-.26-.21-.2-.15-.39-.29-.39-.29l-.22.3s.19.14.38.28c.1.07.19.14.25.21.07.06.11.1.11.1Z"/>
            </g>
            <g>
              <polygon class="cls-13" points="44.49 23.2 44.75 22.93 44.04 22.26 43.79 22.53 44.49 23.2"/>
              <path class="cls-13" d="m45.61,24.18l.18-.33s-.71-.6-.71-.6l-.24.28s.76.66.77.64Z"/>
              <path class="cls-13" d="m46.89,24.92l.09-.37s-.21-.1-.42-.2c-.2-.11-.4-.24-.4-.24l-.15.34s.21.14.43.25c.23.11.46.21.46.21Z"/>
              <path class="cls-13" d="m48.35,25.17v-.39s-.07,0-.16,0c-.09,0-.2-.01-.32-.02-.23-.02-.46-.08-.46-.08l-.06.38s.24.06.49.09c.13,0,.25.02.34.02.09,0,.16-.01.16-.01Z"/>
              <path class="cls-13" d="m49.78,24.78l-.12-.36s-.86.36-.87.31l.05.38s.25-.05.48-.14c.24-.08.46-.19.46-.19Z"/>
              <path class="cls-13" d="m51.01,23.94l-.2-.31s-.18.15-.37.29c-.19.13-.38.27-.38.27l.14.35s.21-.14.42-.28c.2-.15.39-.31.39-.31Z"/>
              <path class="cls-13" d="m52.1,22.94l-.26-.26s-.17.17-.34.34c-.17.16-.34.32-.34.32l.23.29s.18-.17.36-.34c.17-.17.35-.34.35-.34Z"/>
            </g>
            <g>
              <rect class="cls-13" x="52.15" y="21.93" width=".97" height=".37" transform="translate(.33 45) rotate(-46.43)"/>
              <polygon class="cls-13" points="54.09 20.87 53.83 20.6 53.15 21.3 53.42 21.55 54.09 20.87"/>
              <path class="cls-13" d="m55.14,19.89l-.24-.28s-.18.16-.36.32c-.18.17-.36.34-.36.34l.26.27s.17-.16.35-.33c.18-.16.36-.32.36-.32Z"/>
              <path class="cls-13" d="m56.26,19.03l-.21-.31s-.2.14-.4.28c-.19.15-.39.3-.39.3l.23.29s.19-.14.38-.29c.19-.14.39-.27.39-.27Z"/>
              <path class="cls-13" d="m57.49,18.36l-.15-.34s-.23.09-.45.21c-.22.11-.43.24-.43.24l.19.32s.2-.13.41-.23c.21-.11.42-.2.42-.2Z"/>
              <path class="cls-13" d="m58.83,17.89l-.1-.36s-.24.07-.47.15c-.23.08-.46.16-.46.16l.13.35s.23-.08.45-.15c.22-.08.45-.14.45-.15Z"/>
              <path class="cls-13" d="m60.21,17.59l-.05-.37s-.24.04-.48.08c-.24.04-.48.11-.48.11l.09.36s.23-.07.46-.11c.23-.04.47-.08.47-.08Z"/>
            </g>
            <g>
              <path class="cls-13" d="m61.61,17.49v-.37s-.24-.02-.49,0c-.25.02-.49.04-.49.04l.04.37s.24-.02.47-.04c.23-.02.47,0,.47,0Z"/>
              <path class="cls-13" d="m63.01,17.63l.07-.36s-.98-.13-.98-.13l-.02.37s.94.1.93.13Z"/>
              <path class="cls-13" d="m64.35,18.04l.14-.34s-.94-.32-.94-.32l-.1.36s.9.28.89.31Z"/>
              <path class="cls-13" d="m65.57,18.7l.21-.31s-.85-.51-.85-.51l-.16.33s.82.46.81.48Z"/>
              <path class="cls-13" d="m66.64,19.6l.27-.26s-.16-.19-.36-.34c-.19-.16-.38-.32-.38-.32l-.23.29s.18.15.36.31c.19.15.34.33.34.33Z"/>
              <path class="cls-13" d="m67.54,20.69l.31-.21s-.13-.21-.29-.4c-.16-.19-.31-.38-.31-.38l-.28.24s.15.18.3.37c.15.18.28.38.28.38Z"/>
              <path class="cls-13" d="m68.24,21.91l.34-.16s-.1-.22-.22-.44c-.12-.21-.25-.43-.25-.43l-.32.19s.12.21.24.41c.11.21.21.42.21.42Z"/>
            </g>
            <g>
              <path class="cls-13" d="m68.75,23.22l.35-.11s-.07-.24-.15-.47c-.09-.23-.18-.46-.18-.46l-.34.14s.09.22.17.44c.08.22.15.45.15.45Z"/>
              <path class="cls-13" d="m69.09,24.6l.36-.06s-.04-.24-.09-.48c-.06-.24-.12-.48-.12-.48l-.36.1s.06.23.11.46c.05.23.09.47.09.47Z"/>
              <path class="cls-13" d="m69.24,26l.37-.02s0-.25-.03-.49c-.03-.24-.06-.49-.06-.49l-.37.05s.03.24.05.47c.03.24.03.47.03.47Z"/>
              <path class="cls-13" d="m69.23,27.42l.37.03s.03-.24.03-.49c0-.25,0-.49,0-.49h-.37s0,.24,0,.48c0,.24-.03.47-.03.47Z"/>
              <path class="cls-13" d="m69.04,28.82l.36.07s.06-.24.09-.48c.04-.24.07-.49.07-.49l-.37-.04s-.04.24-.07.47c-.03.24-.08.47-.08.47Z"/>
              <path class="cls-13" d="m68.67,30.19l.35.12s.08-.23.14-.47c.07-.24.13-.47.13-.47l-.36-.09s-.06.23-.13.46c-.06.23-.14.45-.14.45Z"/>
              <path class="cls-13" d="m68.13,31.49l.33.16s.11-.22.21-.45c.1-.22.19-.45.19-.45l-.35-.13s-.08.22-.19.44c-.09.22-.2.43-.2.43Z"/>
            </g>
            <g>
              <path class="cls-13" d="m67.41,32.71l.3.21s.54-.82.52-.84l-.32-.18s-.5.81-.5.81Z"/>
              <path class="cls-13" d="m66.52,33.81l.28.25s.17-.18.32-.37c.15-.19.3-.39.3-.39l-.3-.22s-.14.19-.29.38c-.15.18-.32.36-.32.36Z"/>
              <path class="cls-13" d="m65.53,34.82l.25.27s.71-.67.69-.69l-.27-.26s-.68.67-.68.67Z"/>
              <path class="cls-13" d="m64.45,35.76l.23.29s.19-.15.38-.31c.19-.15.37-.32.37-.32l-.25-.28s-.18.16-.36.31c-.19.15-.37.3-.37.3Z"/>
              <polygon class="cls-13" points="63.31 36.62 63.53 36.92 64.32 36.35 64.09 36.06 63.31 36.62"/>
              <polygon class="cls-13" points="62.12 37.4 62.31 37.71 63.14 37.2 62.93 36.89 62.12 37.4"/>
              <path class="cls-13" d="m60.88,38.11l.18.33s.21-.11.43-.23c.22-.11.42-.24.42-.24l-.19-.32s-.2.13-.41.24c-.21.11-.42.23-.42.23Z"/>
            </g>
            <g>
              <path class="cls-13" d="m59.6,38.75l.16.34s.22-.1.44-.2c.22-.11.43-.23.43-.23l-.17-.33s-.21.11-.42.22c-.22.1-.44.2-.44.2Z"/>
              <path class="cls-13" d="m58.29,39.32l.14.34s.23-.08.45-.19c.22-.1.44-.2.44-.2l-.15-.34s-.22.1-.44.2c-.22.1-.44.19-.44.19Z"/>
              <polygon class="cls-13" points="56.96 39.83 57.08 40.18 57.99 39.84 57.86 39.49 56.96 39.83"/>
              <polygon class="cls-13" points="55.59 40.25 55.7 40.61 56.63 40.33 56.51 39.98 55.59 40.25"/>
              <path class="cls-13" d="m54.21,40.62l.09.36s.24-.06.47-.11c.24-.05.47-.13.47-.13l-.1-.36s-.23.08-.46.13c-.23.05-.47.11-.47.11Z"/>
              <polygon class="cls-13" points="52.81 40.94 52.88 41.3 53.83 41.09 53.75 40.73 52.81 40.94"/>
              <polygon class="cls-13" points="51.4 41.16 51.46 41.53 52.41 41.38 52.35 41.01 51.4 41.16"/>
            </g>
            <g>
              <path class="cls-13" d="m49.98,41.34l.04.37s.97-.08.97-.1l-.05-.37s-.96.1-.96.1Z"/>
              <polygon class="cls-13" points="48.55 41.47 48.58 41.84 49.54 41.75 49.51 41.38 48.55 41.47"/>
              <polygon class="cls-13" points="47.12 41.51 47.13 41.88 48.1 41.86 48.08 41.48 47.12 41.51"/>
              <path class="cls-13" d="m45.69,41.51v.37s.23.02.48.02c.24,0,.49-.01.49-.01v-.37s-.24,0-.48.01c-.24,0-.48-.02-.48-.02Z"/>
              <polygon class="cls-13" points="44.26 41.45 44.24 41.82 45.21 41.86 45.22 41.49 44.26 41.45"/>
              <path class="cls-13" d="m42.83,41.34l-.04.37s.24.03.48.05c.24.03.48.04.48.04l.03-.37s-.24,0-.48-.04c-.24-.03-.48-.05-.48-.05Z"/>
              <polygon class="cls-13" points="41.41 41.18 41.36 41.55 42.32 41.66 42.36 41.29 41.41 41.18"/>
            </g>
          </g>
          <g>
            <path class="cls-10" d="m37.79,54.05h12.17c.6,0,1.08.49,1.08,1.08v6.25c0,.6-.49,1.09-1.09,1.09h-12.17c-.6,0-1.08-.49-1.08-1.08v-6.25c0-.6.49-1.09,1.09-1.09Z"/>
            <rect class="cls-6" x="36.7" y="56.96" width="14.34" height="2.49"/>
            <path class="cls-10" d="m44.9,58.87h-2.23c-6.11,0-11.05-4.95-11.05-11.05V13.23h24.33v34.59c0,6.1-4.95,11.05-11.05,11.05h0Z"/>
            <rect class="cls-6" x="31.62" y="13.23" width="24.33" height="2.71"/>
            <g>
              <g>
                <path class="cls-2" d="m32.8,15.33c0,.09-.07.16-.16.16h0c-.09,0-.16-.07-.16-.16v-1.49c0-.09.07-.16.16-.16h0c.09,0,.16.07.16.16v1.49Z"/>
                <path class="cls-2" d="m33.65,15.33c0,.09-.07.16-.16.16h0c-.09,0-.16-.07-.16-.16v-1.49c0-.09.07-.16.16-.16h0c.09,0,.16.07.16.16v1.49Z"/>
                <path class="cls-2" d="m34.5,15.33c0,.09-.07.16-.16.16h0c-.09,0-.16-.07-.16-.16v-1.49c0-.09.07-.16.16-.16h0c.09,0,.16.07.16.16v1.49Z"/>
                <path class="cls-2" d="m35.35,15.33c0,.09-.07.16-.16.16h0c-.09,0-.16-.07-.16-.16v-1.49c0-.09.07-.16.16-.16h0c.09,0,.16.07.16.16v1.49Z"/>
                <path class="cls-2" d="m36.2,15.33c0,.09-.07.16-.16.16h0c-.08,0-.16-.07-.16-.16v-1.49c0-.09.07-.16.16-.16h0c.09,0,.16.07.16.16v1.49Z"/>
                <path class="cls-2" d="m37.06,15.33c0,.09-.07.16-.16.16h0c-.09,0-.16-.07-.16-.16v-1.49c0-.09.08-.16.16-.16h0c.09,0,.16.07.16.16v1.49Z"/>
                <path class="cls-2" d="m37.91,15.33c0,.09-.07.16-.16.16h0c-.09,0-.16-.07-.16-.16v-1.49c0-.09.07-.16.16-.16h0c.09,0,.16.07.16.16v1.49Z"/>
                <path class="cls-2" d="m38.76,15.33c0,.09-.07.16-.16.16h0c-.09,0-.16-.07-.16-.16v-1.49c0-.09.07-.16.16-.16h0c.09,0,.16.07.16.16v1.49Z"/>
              </g>
              <g>
                <path class="cls-2" d="m39.61,15.33c0,.09-.07.16-.16.16h0c-.09,0-.16-.07-.16-.16v-1.49c0-.09.07-.16.16-.16h0c.09,0,.16.07.16.16v1.49Z"/>
                <path class="cls-2" d="m40.47,15.33c0,.09-.07.16-.16.16h0c-.09,0-.16-.07-.16-.16v-1.49c0-.09.07-.16.16-.16h0c.09,0,.16.07.16.16v1.49Z"/>
                <path class="cls-2" d="m41.32,15.33c0,.09-.07.16-.16.16h0c-.09,0-.16-.07-.16-.16v-1.49c0-.09.07-.16.16-.16h0c.09,0,.16.07.16.16v1.49Z"/>
                <path class="cls-2" d="m42.17,15.33c0,.09-.07.16-.16.16h0c-.09,0-.16-.07-.16-.16v-1.49c0-.09.07-.16.16-.16h0c.09,0,.16.07.16.16v1.49Z"/>
                <path class="cls-2" d="m43.02,15.33c0,.09-.07.16-.16.16h0c-.09,0-.16-.07-.16-.16v-1.49c0-.09.07-.16.16-.16h0c.09,0,.16.07.16.16v1.49Z"/>
                <path class="cls-2" d="m43.88,15.33c0,.09-.07.16-.16.16h0c-.09,0-.16-.07-.16-.16v-1.49c0-.09.07-.16.16-.16h0c.09,0,.16.07.16.16v1.49Z"/>
                <path class="cls-2" d="m44.72,15.33c0,.09-.07.16-.16.16h0c-.09,0-.16-.07-.16-.16v-1.49c0-.09.07-.16.16-.16h0c.09,0,.16.07.16.16v1.49Z"/>
                <path class="cls-2" d="m45.58,15.33c0,.09-.07.16-.16.16h0c-.09,0-.16-.07-.16-.16v-1.49c0-.09.07-.16.16-.16h0c.09,0,.16.07.16.16v1.49Z"/>
              </g>
              <path class="cls-2" d="m46.43,15.33c0,.09-.07.16-.16.16h0c-.09,0-.16-.07-.16-.16v-1.49c0-.09.07-.16.16-.16h0c.09,0,.16.07.16.16v1.49Z"/>
              <path class="cls-2" d="m47.28,15.33c0,.09-.07.16-.16.16h0c-.09,0-.16-.07-.16-.16v-1.49c0-.09.07-.16.16-.16h0c.09,0,.16.07.16.16v1.49Z"/>
              <path class="cls-2" d="m48.13,15.33c0,.09-.07.16-.16.16h0c-.09,0-.16-.07-.16-.16v-1.49c0-.09.07-.16.16-.16h0c.09,0,.16.07.16.16v1.49Z"/>
              <path class="cls-2" d="m48.99,15.33c0,.09-.07.16-.16.16h0c-.09,0-.16-.07-.16-.16v-1.49c0-.09.07-.16.16-.16h0c.09,0,.16.07.16.16v1.49Z"/>
              <path class="cls-2" d="m49.84,15.33c0,.09-.07.16-.16.16h0c-.09,0-.16-.07-.16-.16v-1.49c0-.09.07-.16.16-.16h0c.09,0,.16.07.16.16v1.49Z"/>
              <path class="cls-2" d="m50.69,15.33c0,.09-.07.16-.16.16h0c-.09,0-.16-.07-.16-.16v-1.49c0-.09.07-.16.16-.16h0c.09,0,.16.07.16.16v1.49Z"/>
              <path class="cls-2" d="m51.54,15.33c0,.09-.07.16-.16.16h0c-.09,0-.16-.07-.16-.16v-1.49c0-.09.07-.16.16-.16h0c.09,0,.16.07.16.16v1.49Z"/>
              <path class="cls-2" d="m52.4,15.33c0,.09-.07.16-.16.16h0c-.09,0-.16-.07-.16-.16v-1.49c0-.09.07-.16.16-.16h0c.09,0,.16.07.16.16v1.49Z"/>
              <path class="cls-2" d="m53.25,15.33c0,.09-.07.16-.16.16h0c-.09,0-.16-.07-.16-.16v-1.49c0-.09.07-.16.16-.16h0c.09,0,.16.07.16.16v1.49Z"/>
              <path class="cls-2" d="m54.1,15.33c0,.09-.07.16-.16.16h0c-.09,0-.16-.07-.16-.16v-1.49c0-.09.07-.16.16-.16h0c.09,0,.16.07.16.16v1.49Z"/>
              <path class="cls-2" d="m54.95,15.33c0,.09-.07.16-.16.16h0c-.09,0-.16-.07-.16-.16v-1.49c0-.09.07-.16.16-.16h0c.09,0,.16.07.16.16v1.49Z"/>
            </g>
            <rect class="cls-6" x="37.59" y="19.57" width="12.25" height="33.4"/>
            <path class="cls-6" d="m42.67,58.87h2.23c6.1,0,11.05-4.95,11.05-11.05v-18.85c-2.94,9.25-9.3,21.23-22.86,24.35,1.91,3.31,5.48,5.55,9.58,5.55Z"/>
          </g>
          <g>
            <rect class="cls-11" x="17.76" y="18.67" width="6.82" height="6.63"/>
            <rect class="cls-14" x="15.89" y="22.21" width="10.96" height="6.19" rx="1.6" ry="1.6"/>
            <path class="cls-11" d="m15.62,24.19h11.43c.88,0,1.6.72,1.6,1.6v5.22c0,.88-.72,1.6-1.6,1.6h-11.43c-.89,0-1.6-.72-1.6-1.6v-5.21c0-.89.72-1.6,1.6-1.6Z"/>
            <path class="cls-13" d="m29.32,62.67h-15.98c-3.18,0-5.69-2.69-5.48-5.86l1.59-23.29c.2-2.88,2.59-5.12,5.48-5.12h12.65c2.87,0,5.26,2.22,5.48,5.08l1.74,23.29c.24,3.19-2.28,5.9-5.48,5.9h0Z"/>
            <path class="cls-9" d="m26.45,55.46h-10.23c-2.04,0-3.65-1.72-3.51-3.76l1.02-14.92c.13-1.84,1.66-3.28,3.51-3.28h8.11c1.84,0,3.37,1.42,3.51,3.26l1.11,14.92c.15,2.04-1.46,3.78-3.51,3.78h0Z"/>
            <path class="cls-14" d="m29.9,21.56l-.64-.02c.04-1.16-.1-1.92-.42-2.26-.17-.18-.41-.26-.8-.27-5.84-.14-13.28,0-13.35,0v-.64c.06,0,7.51-.13,13.37,0,.38,0,.87.07,1.25.47.45.48.64,1.35.59,2.73Z"/>
            <path class="cls-6" d="m34.8,56.78l-1.74-23.29c-.12-1.59-.91-2.98-2.08-3.9.71,2.21,1.09,4.56,1.09,7,0,12.66-10.26,22.92-22.92,22.92-.27,0-.53-.01-.79-.02.87,1.87,2.76,3.19,4.98,3.19h15.98c3.19,0,5.71-2.71,5.48-5.9Z"/>
            <rect class="cls-6" x="14.02" y="26.89" width="14.64" height="1.51"/>
            <rect class="cls-6" x="15.89" y="23.48" width="10.96" height=".71"/>
          </g>
          <g>
            <path class="cls-15" d="m71.89,42.41l-20.8-.07c-1.17,0-2.13.94-2.13,2.12v2.15c-1.36,1.41-4.58,4.07-9.47,3.61-6.52-.6-19.2-6.6-18.93,2.26-.31,8.83,12.4,2.91,18.91,2.35,4.9-.42,8.1,2.25,9.44,3.67v1.91c-.01,1.17.94,2.13,2.11,2.13l20.8.07c1.18,0,2.13-.94,2.14-2.12l.05-15.95c0-1.17-.95-2.13-2.12-2.13Z"/>
            <path class="cls-7" d="m53.61,60.22c-.9,0-1.62-.74-1.62-1.63l.04-12.22c0-.9.74-1.63,1.64-1.62l15.93.05c.9,0,1.63.73,1.62,1.63l-.04,12.22c0,.9-.73,1.63-1.63,1.62l-15.93-.05Z"/>
            <polygon class="cls-7" points="68.93 61.06 68.93 59.26 69.15 59.26 69.14 61.06 68.93 61.06"/>
            <path class="cls-7" d="m69.03,61.48c-.18,0-.32-.14-.31-.32,0-.17.14-.31.32-.31.17,0,.31.14.31.32s-.14.32-.32.31Z"/>
            <polygon class="cls-7" points="67.48 61.06 67.49 59.25 67.7 59.25 67.7 61.06 67.48 61.06"/>
            <path class="cls-7" d="m67.59,61.47c-.17,0-.31-.14-.31-.32s.14-.31.32-.31c.17,0,.32.14.32.32s-.14.32-.32.32Z"/>
            <rect class="cls-7" x="65.25" y="60.04" width="1.8" height=".22" transform="translate(5.82 126.14) rotate(-89.85)"/>
            <path class="cls-7" d="m66.15,61.47c-.18,0-.32-.14-.31-.32,0-.17.14-.31.32-.31.17,0,.32.14.31.31,0,.18-.14.32-.32.31Z"/>
            <rect class="cls-7" x="63.81" y="60.04" width="1.8" height=".22" transform="translate(4.39 124.69) rotate(-89.84)"/>
            <path class="cls-7" d="m64.71,61.46c-.17,0-.31-.14-.31-.32s.14-.32.32-.32c.17,0,.31.14.31.32s-.14.32-.32.31Z"/>
            <polygon class="cls-7" points="63.16 61.04 63.16 59.24 63.38 59.24 63.37 61.04 63.16 61.04"/>
            <path class="cls-7" d="m63.26,61.46c-.18,0-.32-.14-.32-.32,0-.17.14-.31.32-.31.17,0,.32.14.31.32,0,.17-.14.31-.31.31Z"/>
            <polygon class="cls-7" points="61.71 61.04 61.72 59.24 61.94 59.24 61.93 61.04 61.71 61.04"/>
            <path class="cls-7" d="m61.82,61.46c-.17,0-.31-.14-.31-.32,0-.17.14-.32.32-.31.17,0,.31.14.31.32,0,.18-.14.32-.32.31Z"/>
            <polygon class="cls-7" points="60.27 61.04 60.28 59.23 60.49 59.23 60.49 61.04 60.27 61.04"/>
            <path class="cls-7" d="m60.38,61.45c-.17,0-.32-.14-.31-.32,0-.17.14-.31.32-.31.17,0,.31.14.31.31,0,.18-.14.32-.32.32Z"/>
            <rect class="cls-7" x="58.04" y="60.02" width="1.8" height=".21" transform="translate(-1.41 118.84) rotate(-89.78)"/>
            <path class="cls-7" d="m58.94,61.45c-.18,0-.32-.14-.31-.32,0-.17.14-.31.32-.31.17,0,.31.14.31.32,0,.18-.14.31-.32.31Z"/>
            <rect class="cls-7" x="56.6" y="60.02" width="1.8" height=".22" transform="translate(-2.81 117.43) rotate(-89.82)"/>
            <path class="cls-7" d="m57.49,61.44c-.17,0-.32-.14-.31-.32,0-.17.14-.31.32-.31s.32.14.32.32c0,.17-.14.31-.32.31Z"/>
            <rect class="cls-7" x="55.15" y="60.01" width="1.8" height=".22" transform="translate(-4.28 115.95) rotate(-89.78)"/>
            <path class="cls-7" d="m56.05,61.44c-.18,0-.32-.14-.31-.32,0-.17.14-.32.32-.32.17,0,.31.14.31.32,0,.17-.14.32-.32.32Z"/>
            <polygon class="cls-7" points="54.5 61.02 54.51 59.21 54.72 59.21 54.72 61.02 54.5 61.02"/>
            <path class="cls-7" d="m54.61,61.43c-.17,0-.32-.14-.32-.32,0-.17.15-.31.32-.31.17,0,.32.14.32.32,0,.18-.14.32-.32.31Z"/>
            <polygon class="cls-7" points="52.64 60.97 53.6 59.44 53.78 59.56 52.82 61.08 52.64 60.97"/>
            <path class="cls-7" d="m52.51,61.38c-.15-.09-.19-.29-.1-.43.09-.15.29-.19.43-.1.15.09.19.29.1.44-.09.15-.29.19-.44.1Z"/>
            <polygon class="cls-7" points="68.87 44.09 68.87 45.9 69.08 45.9 69.09 44.09 68.87 44.09"/>
            <path class="cls-7" d="m68.98,43.68c-.17,0-.31.14-.32.32,0,.17.14.31.31.32.17,0,.31-.14.32-.31,0-.18-.14-.32-.31-.32Z"/>
            <polygon class="cls-7" points="67.43 44.09 67.42 45.89 67.64 45.89 67.64 44.09 67.43 44.09"/>
            <path class="cls-7" d="m67.54,43.67c-.17,0-.31.14-.31.32,0,.17.14.31.31.32.18,0,.32-.14.32-.31,0-.17-.14-.32-.32-.32Z"/>
            <polygon class="cls-7" points="65.99 44.08 65.98 45.89 66.2 45.89 66.2 44.08 65.99 44.08"/>
            <path class="cls-7" d="m66.1,43.67c-.18,0-.32.14-.32.31,0,.17.14.32.31.32.17,0,.32-.14.32-.31s-.14-.32-.31-.32Z"/>
            <polygon class="cls-7" points="64.54 44.08 64.54 45.88 64.75 45.88 64.76 44.08 64.54 44.08"/>
            <path class="cls-7" d="m64.65,43.66c-.17,0-.32.14-.32.32,0,.17.14.32.31.32s.32-.14.32-.31c0-.18-.14-.32-.32-.32Z"/>
            <rect class="cls-7" x="62.31" y="44.87" width="1.8" height=".21" transform="translate(18.02 108.04) rotate(-89.81)"/>
            <path class="cls-7" d="m63.21,43.66c-.18,0-.32.14-.32.31s.14.32.32.32c.17,0,.32-.14.32-.31s-.14-.32-.31-.32Z"/>
            <polygon class="cls-7" points="61.66 44.07 61.65 45.87 61.87 45.87 61.88 44.07 61.66 44.07"/>
            <path class="cls-7" d="m61.77,43.66c-.18,0-.32.14-.32.31s.14.32.31.32c.18,0,.32-.14.32-.31,0-.17-.14-.32-.31-.32Z"/>
            <polygon class="cls-7" points="60.22 44.07 60.21 45.87 60.43 45.87 60.43 44.07 60.22 44.07"/>
            <path class="cls-7" d="m60.33,43.65c-.17,0-.32.14-.32.32,0,.17.14.32.32.32.17,0,.32-.14.32-.31,0-.17-.14-.32-.31-.32Z"/>
            <polygon class="cls-7" points="58.77 44.06 58.77 45.86 58.99 45.87 58.99 44.06 58.77 44.06"/>
            <path class="cls-7" d="m58.88,43.65c-.17,0-.31.14-.32.31,0,.17.14.32.31.32.17,0,.32-.14.32-.31,0-.18-.14-.32-.31-.32Z"/>
            <polygon class="cls-7" points="57.33 44.06 57.33 45.86 57.54 45.86 57.55 44.06 57.33 44.06"/>
            <path class="cls-7" d="m57.44,43.64c-.17,0-.32.14-.32.31,0,.17.14.32.31.32.17,0,.32-.14.32-.31,0-.18-.14-.32-.31-.32Z"/>
            <rect class="cls-7" x="55.09" y="44.85" width="1.8" height=".22" transform="translate(10.86 100.8) rotate(-89.81)"/>
            <path class="cls-7" d="m56,43.64c-.17,0-.31.14-.32.32,0,.17.14.31.31.31.17,0,.32-.14.32-.31,0-.18-.14-.32-.32-.32Z"/>
            <polygon class="cls-7" points="54.45 44.05 54.44 45.85 54.66 45.85 54.66 44.05 54.45 44.05"/>
            <path class="cls-7" d="m54.56,43.63c-.17,0-.32.14-.32.31s.14.32.32.32c.18,0,.32-.14.32-.31,0-.17-.14-.31-.31-.32Z"/>
            <polygon class="cls-7" points="52.45 44.17 53.3 45.66 53.49 45.56 52.64 44.06 52.45 44.17"/>
            <path class="cls-7" d="m52.35,43.77c-.15.09-.21.27-.13.42.08.15.27.19.42.11.15-.09.21-.27.13-.42-.08-.15-.27-.19-.42-.11Z"/>
            <g>
              <polygon class="cls-7" points="71.89 44.87 70.45 45.95 70.32 45.77 71.76 44.69 71.89 44.87"/>
              <path class="cls-7" d="m72.16,44.53c.1.14.08.34-.06.44-.14.11-.34.08-.44-.06-.11-.14-.08-.34.06-.44.14-.11.34-.08.44.06Z"/>
            </g>
            <g>
              <polygon class="cls-7" points="70.85 43.95 70.2 45.63 70 45.56 70.65 43.87 70.85 43.95"/>
              <path class="cls-7" d="m70.9,43.52c.16.06.24.24.18.41-.06.16-.25.24-.41.18-.16-.06-.25-.24-.18-.41.06-.16.25-.24.41-.18Z"/>
            </g>
            <polygon class="cls-7" points="71.95 46.75 70.14 46.74 70.15 46.52 71.95 46.54 71.95 46.75"/>
            <path class="cls-7" d="m72.36,46.65c0,.18-.14.31-.32.31-.17,0-.32-.14-.31-.32,0-.17.15-.31.32-.31.17,0,.31.15.31.32Z"/>
            <rect class="cls-7" x="70.92" y="47.18" width=".22" height="1.8" transform="translate(22.26 118.64) rotate(-89.44)"/>
            <path class="cls-7" d="m72.35,48.09c0,.18-.14.32-.32.31-.17,0-.31-.15-.31-.32,0-.17.14-.31.32-.31.18,0,.31.14.31.32Z"/>
            <rect class="cls-7" x="70.91" y="48.62" width=".22" height="1.8" transform="translate(20.8 120.05) rotate(-89.44)"/>
            <path class="cls-7" d="m72.33,49.53c0,.18-.14.31-.32.31-.17,0-.31-.14-.31-.32,0-.17.14-.31.32-.31.18,0,.32.14.31.32Z"/>
            <rect class="cls-7" x="70.89" y="50.06" width=".22" height="1.8" transform="translate(19.33 121.45) rotate(-89.42)"/>
            <path class="cls-7" d="m72.32,50.98c0,.17-.14.31-.32.31-.17,0-.31-.14-.31-.32,0-.17.14-.31.32-.31.17,0,.31.14.31.32Z"/>
            <rect class="cls-7" x="70.88" y="51.5" width=".22" height="1.8" transform="translate(17.87 122.86) rotate(-89.43)"/>
            <path class="cls-7" d="m72.3,52.42c0,.17-.14.31-.32.31-.17,0-.31-.14-.31-.32,0-.17.15-.31.32-.31.18,0,.32.15.31.32Z"/>
            <rect class="cls-7" x="70.86" y="52.95" width=".22" height="1.8" transform="translate(16.37 124.24) rotate(-89.39)"/>
            <path class="cls-7" d="m72.29,53.86c0,.17-.14.31-.32.31-.17,0-.31-.14-.31-.32,0-.17.14-.31.32-.31.18,0,.31.14.31.32Z"/>
            <rect class="cls-7" x="70.85" y="54.39" width=".22" height="1.8" transform="translate(14.96 125.69) rotate(-89.42)"/>
            <path class="cls-7" d="m72.27,55.3c0,.17-.15.31-.32.31-.17,0-.31-.14-.31-.32,0-.17.15-.31.32-.31.17,0,.31.14.31.32Z"/>
            <polygon class="cls-7" points="71.84 56.85 70.04 56.83 70.04 56.61 71.84 56.63 71.84 56.85"/>
            <path class="cls-7" d="m72.26,56.75c0,.17-.14.31-.32.31-.17,0-.31-.14-.31-.32,0-.17.15-.31.32-.31.17,0,.31.14.31.32Z"/>
            <polygon class="cls-7" points="71.83 58.29 70.02 58.27 70.03 58.06 71.83 58.08 71.83 58.29"/>
            <path class="cls-7" d="m72.24,58.19c0,.17-.15.31-.32.31-.17,0-.31-.15-.31-.32,0-.17.14-.31.32-.31.18,0,.31.15.31.32Z"/>
            <polygon class="cls-7" points="71.75 59.9 70.17 59.05 70.27 58.85 71.86 59.71 71.75 59.9"/>
            <path class="cls-7" d="m72.17,60c-.08.15-.27.21-.43.13-.15-.08-.21-.27-.13-.43.08-.16.28-.21.43-.13.15.08.21.27.13.43Z"/>
            <polygon class="cls-7" points="70.77 60.87 69.6 59.49 69.77 59.35 70.93 60.73 70.77 60.87"/>
            <path class="cls-7" d="m71.12,61.11c-.13.11-.33.1-.45-.04-.11-.13-.1-.33.04-.44.13-.11.33-.1.44.04.12.13.1.33-.03.44Z"/>
            <polygon class="cls-7" points="51.32 45.44 53.12 45.44 53.13 45.23 51.32 45.22 51.32 45.44"/>
            <path class="cls-7" d="m50.91,45.33c0,.17.14.32.31.32.17,0,.31-.14.32-.31,0-.17-.14-.32-.31-.32-.18,0-.32.14-.32.31Z"/>
            <polygon class="cls-7" points="51.31 46.88 53.12 46.88 53.12 46.67 51.32 46.66 51.31 46.88"/>
            <path class="cls-7" d="m50.9,46.77c0,.18.14.32.31.32.17,0,.32-.14.32-.31s-.14-.32-.31-.32c-.18,0-.32.14-.32.31Z"/>
            <polygon class="cls-7" points="51.31 48.32 53.12 48.33 53.12 48.11 51.31 48.1 51.31 48.32"/>
            <path class="cls-7" d="m50.89,48.21c0,.17.14.32.32.32.17,0,.32-.14.32-.31s-.14-.32-.31-.32c-.18,0-.32.14-.32.31Z"/>
            <polygon class="cls-7" points="51.3 49.76 53.11 49.77 53.11 49.55 51.3 49.55 51.3 49.76"/>
            <path class="cls-7" d="m50.89,49.65c0,.17.14.32.31.32.18,0,.32-.14.32-.31,0-.17-.14-.32-.32-.32-.17,0-.32.14-.32.31Z"/>
            <polygon class="cls-7" points="51.3 51.2 53.1 51.21 53.1 51 51.3 50.99 51.3 51.2"/>
            <path class="cls-7" d="m50.88,51.1c0,.17.14.32.32.32.17,0,.31-.14.32-.31,0-.17-.14-.32-.31-.32s-.32.14-.32.32Z"/>
            <rect class="cls-7" x="52.09" y="51.64" width=".22" height="1.8" transform="translate(-.52 104.57) rotate(-89.81)"/>
            <path class="cls-7" d="m50.88,52.54c0,.17.14.31.32.32.17,0,.31-.14.32-.31,0-.17-.14-.32-.31-.32s-.32.14-.32.32Z"/>
            <polygon class="cls-7" points="51.29 54.09 53.09 54.1 53.09 53.88 51.29 53.87 51.29 54.09"/>
            <path class="cls-7" d="m50.87,53.98c0,.17.14.32.31.32.18,0,.32-.14.32-.32,0-.17-.14-.32-.31-.32-.17,0-.32.14-.32.32Z"/>
            <rect class="cls-7" x="52.08" y="54.52" width=".22" height="1.8" transform="translate(-3.47 107.37) rotate(-89.75)"/>
            <path class="cls-7" d="m50.87,55.42c0,.17.14.32.31.32.17,0,.32-.14.32-.31s-.14-.32-.31-.32c-.17,0-.32.14-.32.31Z"/>
            <polygon class="cls-7" points="51.28 56.97 53.08 56.98 53.08 56.76 51.28 56.76 51.28 56.97"/>
            <path class="cls-7" d="m50.86,56.86c0,.17.14.32.31.32.17,0,.32-.14.32-.31s-.14-.32-.32-.32c-.17,0-.31.14-.32.31Z"/>
            <polygon class="cls-7" points="51.27 58.42 53.08 58.42 53.08 58.21 51.27 58.2 51.27 58.42"/>
            <path class="cls-7" d="m50.86,58.31c0,.17.14.32.31.32.17,0,.31-.14.32-.31,0-.17-.14-.32-.31-.32-.18,0-.32.14-.32.31Z"/>
            <polygon class="cls-7" points="51.43 60.22 52.95 59.24 52.83 59.06 51.32 60.04 51.43 60.22"/>
            <path class="cls-7" d="m51.02,60.36c.1.14.29.19.44.09.15-.1.19-.29.09-.44-.09-.15-.29-.19-.44-.09-.15.09-.19.29-.09.44Z"/>
            <path class="cls-8" d="m69.45,46.64c-.22,0-.41.18-.41.4s.18.41.4.41c.23,0,.41-.18.41-.4,0-.22-.18-.41-.4-.41Z"/>
            <path class="cls-8" d="m69.45,49.73c-.23,0-.41.18-.41.41,0,.22.18.41.4.41s.41-.18.41-.4-.18-.41-.4-.41Z"/>
            <path class="cls-8" d="m69.44,52.82c-.22,0-.41.18-.41.4,0,.22.18.41.4.41.22,0,.41-.18.41-.4,0-.22-.18-.41-.4-.41Z"/>
            <path class="cls-8" d="m66.98,46.63c-.22,0-.41.18-.41.4,0,.22.18.41.41.41.22,0,.41-.18.41-.4,0-.22-.18-.41-.4-.41Z"/>
            <path class="cls-8" d="m66.97,49.72c-.22,0-.41.18-.41.4,0,.22.18.41.4.41.22,0,.41-.18.41-.4,0-.23-.18-.41-.4-.41Z"/>
            <path class="cls-8" d="m66.96,52.81c-.22,0-.41.18-.41.4,0,.22.18.41.41.41.22,0,.41-.18.41-.4,0-.23-.18-.41-.4-.41Z"/>
            <path class="cls-8" d="m64.49,46.62c-.22,0-.41.18-.41.4,0,.22.18.41.4.41.22,0,.41-.18.41-.41,0-.22-.18-.41-.4-.41Z"/>
            <path class="cls-8" d="m64.48,49.72c-.23,0-.41.18-.41.41,0,.22.18.41.4.41.22,0,.41-.18.41-.4s-.18-.41-.4-.41Z"/>
            <path class="cls-8" d="m64.47,52.81c-.22,0-.41.18-.41.41,0,.22.18.41.4.41.23,0,.41-.18.41-.41s-.18-.41-.4-.41Z"/>
            <path class="cls-8" d="m62.02,46.62c-.22,0-.41.18-.41.4,0,.22.18.41.41.41.22,0,.41-.18.41-.4,0-.22-.18-.41-.4-.41Z"/>
            <path class="cls-8" d="m62.01,49.71c-.22,0-.41.18-.41.41,0,.22.18.41.4.41.22,0,.41-.18.41-.4,0-.23-.18-.41-.4-.41Z"/>
            <path class="cls-8" d="m62,52.8c-.22,0-.41.18-.41.41,0,.22.18.41.41.41s.41-.18.41-.4c0-.22-.18-.41-.41-.41Z"/>
            <path class="cls-8" d="m59.53,46.61c-.22,0-.41.18-.41.4,0,.23.18.41.4.41.23,0,.41-.18.41-.4,0-.23-.18-.41-.4-.41Z"/>
            <path class="cls-8" d="m59.52,49.7c-.22,0-.41.18-.41.4,0,.22.18.41.4.41.22,0,.41-.18.41-.4,0-.23-.18-.41-.4-.41Z"/>
            <path class="cls-8" d="m59.51,52.79c-.22,0-.41.18-.41.4,0,.22.18.41.4.41.22,0,.41-.18.41-.4,0-.23-.18-.41-.4-.41Z"/>
            <path class="cls-8" d="m57.05,46.6c-.22,0-.41.18-.41.4,0,.22.18.41.41.41.22,0,.41-.18.41-.41,0-.22-.18-.41-.41-.41Z"/>
            <path class="cls-8" d="m57.05,49.69c-.22,0-.41.18-.41.41,0,.22.18.41.4.41.22,0,.41-.18.41-.41,0-.22-.18-.41-.4-.41Z"/>
            <path class="cls-8" d="m57.04,52.79c-.22,0-.41.18-.41.4s.18.41.41.41c.22,0,.4-.18.41-.4,0-.23-.18-.41-.4-.41Z"/>
            <path class="cls-8" d="m54.57,46.59c-.23,0-.41.18-.41.4,0,.22.18.41.4.41.23,0,.41-.18.41-.4,0-.22-.18-.41-.4-.41Z"/>
            <path class="cls-8" d="m54.55,49.68c-.22,0-.41.18-.41.41,0,.22.18.41.4.41.23,0,.41-.18.41-.41,0-.22-.18-.41-.4-.41Z"/>
            <path class="cls-8" d="m54.55,52.78c-.23,0-.41.18-.41.41,0,.22.18.41.4.41.22,0,.41-.18.41-.4,0-.23-.18-.41-.4-.41Z"/>
            <path class="cls-8" d="m69.43,55.66c-.22,0-.41.18-.41.4s.18.41.41.41c.22,0,.41-.18.41-.41s-.18-.41-.4-.41Z"/>
            <path class="cls-8" d="m66.95,55.65c-.22,0-.41.18-.41.41,0,.22.18.4.41.41.22,0,.4-.18.4-.4,0-.23-.18-.41-.4-.41Z"/>
            <path class="cls-8" d="m64.46,55.64c-.22,0-.41.18-.41.4,0,.22.18.41.41.41.22,0,.41-.18.41-.4s-.18-.41-.4-.41Z"/>
            <path class="cls-8" d="m61.99,55.64c-.22,0-.41.18-.41.4s.18.41.4.41c.22,0,.41-.18.41-.41,0-.22-.18-.41-.4-.41Z"/>
            <path class="cls-8" d="m59.5,55.63c-.23,0-.41.18-.41.41,0,.22.18.41.4.41.22,0,.41-.18.41-.4s-.18-.41-.4-.41Z"/>
            <path class="cls-8" d="m57.03,55.62c-.22,0-.41.18-.41.4s.18.41.4.41c.22,0,.41-.18.41-.4,0-.22-.18-.41-.4-.41Z"/>
            <path class="cls-8" d="m54.54,55.61c-.22,0-.41.18-.41.4s.18.41.4.41c.22,0,.41-.18.41-.4s-.18-.41-.41-.41Z"/>
            <path class="cls-8" d="m69.42,58.5c-.22,0-.41.18-.41.4,0,.22.18.41.4.41.23,0,.41-.18.41-.4,0-.22-.18-.4-.4-.41Z"/>
            <path class="cls-8" d="m66.94,58.49c-.22,0-.41.18-.41.41,0,.22.18.41.41.41s.41-.18.41-.4c0-.22-.18-.41-.4-.41Z"/>
            <path class="cls-8" d="m64.45,58.48c-.22,0-.41.18-.41.4,0,.22.18.41.4.41.22,0,.41-.18.41-.4,0-.22-.18-.41-.4-.41Z"/>
            <path class="cls-8" d="m61.98,58.47c-.22,0-.41.18-.41.4,0,.22.18.41.4.41.23,0,.41-.18.41-.41,0-.22-.18-.41-.4-.41Z"/>
            <path class="cls-8" d="m59.49,58.46c-.22,0-.41.18-.41.4s.18.41.4.41c.22,0,.41-.18.41-.41,0-.22-.18-.41-.4-.41Z"/>
            <path class="cls-8" d="m57.02,58.46c-.23,0-.41.18-.41.4,0,.22.18.41.4.41.22,0,.41-.18.41-.41,0-.22-.18-.41-.4-.41Z"/>
            <path class="cls-8" d="m54.53,58.45c-.22,0-.41.18-.41.4,0,.22.18.41.41.41.22,0,.41-.18.41-.41,0-.22-.18-.4-.4-.41Z"/>
            <path class="cls-6" d="m39.47,54.84c4.9-.42,8.1,2.25,9.44,3.67.38-4.02-2.99-7.76-14.36-5.33-7.73,1.65-12.03.71-13.99-.07.32,7.9,12.55,2.27,18.91,1.73Z"/>
          </g>
          <path class="cls-15" d="m61.39,31.68c-.67,0-1.21-.54-1.21-1.19s.54-1.19,1.21-1.19,1.21.53,1.21,1.19-.55,1.19-1.21,1.19Zm0-2.06c-.49,0-.88.39-.88.87s.39.87.88.87.88-.39.88-.87-.39-.87-.88-.87Z"/>
          <path class="cls-14" d="m8.32,31.11c-.68,0-1.23-.54-1.23-1.21s.55-1.21,1.23-1.21,1.23.54,1.23,1.21-.55,1.21-1.23,1.21Zm0-2.09c-.49,0-.89.39-.89.88s.4.88.89.88.89-.39.89-.88-.4-.88-.89-.88Z"/>
          <path class="cls-13" d="m63.65,24.6c.14-.17.21-.78.43-.78s.27.62.42.78c.16.16.79.2.78.43-.01.22-.64.25-.78.43-.14.17-.21.79-.42.78-.22-.01-.25-.64-.43-.78-.18-.14-.79-.2-.78-.43.01-.22.64-.25.78-.43Z"/>
          <path class="cls-11" d="m60.88,22.39c.03.38-.25.71-.63.74-.38.03-.71-.25-.74-.62-.04-.38.25-.71.62-.74.38-.03.71.25.75.63Z"/>
          <path class="cls-13" d="m39.48,8.25c.14-.18.2-.78.43-.78s.27.62.43.78c.16.16.79.2.78.42-.01.22-.64.25-.78.43-.14.17-.21.79-.43.78-.22-.01-.25-.64-.42-.78-.18-.14-.79-.21-.78-.43.01-.22.64-.25.78-.42Z"/>
          <g>
            <g>
              <path class="cls-12" d="m43.78,24.15s-.24-2.22-.73-1.62c-.49.59-.38.89.11,2.01l.62-.38Z"/>
              <path class="cls-15" d="m51.99,30.95c.3.28.82,1.36-.07,1.64-1.41.45-3.71.33-6.18-1.91-2.3-2.08-2.58-6.27-2.58-6.27,0,0,.29-.56.85-.31,0,0,2.55,3.91,3.8,4.79.95.67,3.13,1.06,4.17,2.06Z"/>
            </g>
            <g>
              <path class="cls-13" d="m46.28,15.62c-.84-.9-.64-2.16,1.24-4.76,1.71-2.36,3.03-10.18,1.31-10.86-1.84-.24-4.5,7.23-4.16,10.12.37,3.19-.07,4.38-1.24,4.75-2.29.73-3,2.78-3,2.78l-4.17,16,7.11,1.86,4.17-16s.38-2.13-1.26-3.89Z"/>
              <rect class="cls-11" x="34.69" y="24.06" width="14.33" height="5.35" transform="translate(5.43 60.49) rotate(-75.39)"/>
              <g>
                <path class="cls-1" d="m44.06,29.06c-.05.18-1.27.02-2.72-.36-1.46-.38-2.6-.83-2.55-1.01.05-.18,1.27-.02,2.72.36,1.46.38,2.6.83,2.56,1.01Z"/>
                <path class="cls-1" d="m42.28,25.08c-1.46-.38-2.6-.83-2.55-1.01l-.94,3.62,5.28,1.37.94-3.62c-.05.18-1.27.02-2.73-.36Z"/>
              </g>
              <path class="cls-5" d="m39.71,31.04c-.06.26-.35.4-.64.32h0c-.29-.07-.47-.34-.4-.59l3.2-12.27c.07-.25.35-.4.64-.33h0c.29.08.47.34.4.6l-3.2,12.26Z"/>
              <path class="cls-5" d="m44.76,8.25c1.41.13,3.1-1.94,3.85-4.83.31-1.2.41-2.35.34-3.34-.04-.03-.07-.06-.11-.08-1.51-.2-3.59,4.85-4.08,8.25Z"/>
            </g>
            <path class="cls-16" d="m38.8,45.58c.27,2.47,1.28,5.77,1.19,7.45-.01.26-.06.36-.95.49-.89.13-.14.74,1.33.93,1.48.19,1.68-6.93,1.44-10.32-.21-2.96-3.33-1.42-3.01,1.46Z"/>
            <path class="cls-16" d="m45.91,54.06c.5,2.44,1.82,5.63,1.89,7.31.01.26-.02.36-.9.58-.87.21-.07.75,1.42.8,1.49.05,1.02-7.06.45-10.41-.49-2.93-3.45-1.11-2.86,1.72Z"/>
            <path class="cls-11" d="m51.93,43.72c-.04.79-.29,1.8-.83,3.48-.4,1.24-1.25,3.08-1.35,4.18-.37,4.03.17,4.49-.44,7.98-.08.47-2,.42-2.16.07-1.7-3.67-1.61-7.87-1.59-10.02,0-.94,0-1.49.38-3.57.03-.17.06-.34.1-.53.11-.61.26-1.33.44-2.2,0,0,0-.02,0-.03.21-.98.62-1.99.82-2.43.07-.15.11-.24.11-.24l1.23.28,1,.24.28.06,1.53.36c.3.93.5,1.53.45,2.4Z"/>
            <path class="cls-3" d="m46.72,42.18c-.09.3-.18.61-.24.92-.24,1.14-.52,2.64-.65,3.35,1.07.41,2.44.48,3.16-.01,1.55-1.06,1.42-3.17,1.02-4.47l-3.29.22Z"/>
            <path class="cls-14" d="m50.42,43.82c-.1.76-.22,1.33-1,1.86-.7.48-2.16.17-3.38-.37-1.65-.74-3.23-1.65-3.3-.7-.25,3.21-.67,6.17-.67,6.17-1.64.57-3.08-.39-3.08-.39,0,0-1.77-9.73-.28-11.92,1.11-1.64,3.78-.39,5.42.61.8.5,1.36.93,1.36.93l4.07.12s.18.32.39.83c.29.73.61,1.82.47,2.86Z"/>
            <path class="cls-3" d="m51.48,41.32l-1.53-.36c-.2-.51-.39-.83-.39-.83l-4.04-.12v1.34l-1.71-.12c-.08.57,1.07,1.34,2.68,1.84,1.29.39,2.77.69,3.93.76.63.04,1.16.02,1.51-.1.04-.87-.15-1.47-.45-2.4Z"/>
            <path class="cls-15" d="m47.4,31.85c-1.21.72-2.38,2.66-3.58,9.31-.26,1.46,8.32,2.77,8.52,1.3.53-3.92.03-5.61-.71-9.28-.2-1-1.84-2.76-4.23-1.33Z"/>
            <g>
              <path class="cls-16" d="m38.82,26.16s-.24-2.22-.73-1.62c-.49.59-.38.89.11,2l.62-.38Z"/>
              <path class="cls-15" d="m47.04,32.96c.3.28.82,1.36-.07,1.64-1.42.45-3.71.33-6.18-1.91-2.3-2.09-2.58-6.27-2.58-6.27,0,0,.28-.56.85-.31,0,0,2.55,3.91,3.8,4.79.95.67,3.13,1.06,4.17,2.06Z"/>
            </g>
            <path class="cls-3" d="m48.81,25.48c-.94.02-2.17.66-2.37,2.48-.2,1.81-.25,1.85-.93,2.45-1.76,1.55,1.91,2.68.41,4.13-.69.67-1.4,1.46-1.69,2.4-.09.27-.18.65-.1.94.12.45.53,1.01.86,1.34.34.34.83.59,1.32.52.32-.04.6-.21.91-.29.33-.09.7-.08,1.02.04.3.11.4.36.63.57.23.21.51.37.81.46.5.15,1.05.11,1.53-.11.28-.13.54-.34.66-.62.22-.52-.07-1.1.08-1.64.16-.58.38-1.06.8-1.5.52-.55.73-1.11.68-1.87-.07-.97,1.43-1.87-.28-3.27-.56-.46.76-2.48-.67-3.06-1.43-.58-.02-3.06-3.66-2.98Z"/>
          </g>
        </g>
      </g>
    </g>
  </g>
</svg>