<?xml version="1.0" encoding="UTF-8"?>
<svg id="Layer_2" data-name="Layer 2" xmlns="http://www.w3.org/2000/svg" xmlns:xlink="http://www.w3.org/1999/xlink" viewBox="0 0 140.19 131.21">
  <defs>
    <style>
      .cls-1 {
        fill: #ffd3d2;
      }

      .cls-2 {
        fill: #fff;
      }

      .cls-3 {
        fill: #7c85fe;
      }

      .cls-4 {
        fill: #ffd2d2;
      }

      .cls-5 {
        clip-path: url(#clippath-1);
      }

      .cls-6 {
        fill: #fe924a;
      }

      .cls-7 {
        fill: #6855ef;
      }

      .cls-8 {
        clip-path: url(#clippath);
      }

      .cls-9 {
        fill: none;
      }

      .cls-10 {
        fill: #54c3dd;
      }

      .cls-11 {
        fill: #2cbfc6;
      }

      .cls-12 {
        fill: #1c9e9c;
      }
    </style>
    <clipPath id="clippath">
      <path class="cls-9" d="m131.39,114.82h-44.13v-57.54h22.88c3.25,0,6.24,1.79,7.76,4.66l21.25,39.96c3.12,5.86-1.13,12.92-7.76,12.92Z"/>
    </clipPath>
    <clipPath id="clippath-1">
      <circle class="cls-9" cx="45.7" cy="70.41" r="23.67" transform="translate(-36.79 85.93) rotate(-67.67)"/>
    </clipPath>
  </defs>
  <g id="Layer_1-2" data-name="Layer 1">
    <g>
      <path class="cls-11" d="m131.39,114.82h-44.13v-57.54h22.88c3.25,0,6.24,1.79,7.76,4.66l21.25,39.96c3.12,5.86-1.13,12.92-7.76,12.92Z"/>
      <path class="cls-7" d="m8.29,38.91h74.68c2.37,0,4.28,1.92,4.28,4.29v71.62H4V43.19c0-2.37,1.92-4.29,4.29-4.29Z"/>
      <path class="cls-10" d="m2.53,100.23h84.99v14.69H0v-12.16c0-1.4,1.13-2.53,2.53-2.53Z"/>
      <path class="cls-2" d="m93.28,65h13.67c1.76,0,3.37.97,4.19,2.53l9.39,17.83c.69,1.31-.26,2.89-1.75,2.89h-24.88l-.61-23.26Z"/>
      <g class="cls-8">
        <circle class="cls-12" cx="113.44" cy="115.29" r="20.4" transform="translate(-22.3 203.25) rotate(-78.41)"/>
      </g>
      <circle class="cls-7" cx="113.65" cy="115.09" r="16.12"/>
      <circle class="cls-7" cx="23.46" cy="118.76" r="12.45" transform="translate(-43.98 18.23) rotate(-22.68)"/>
      <circle class="cls-4" cx="113.65" cy="115.09" r="5.52"/>
      <path class="cls-4" d="m18.98,118.76c0-2.48,2.01-4.49,4.49-4.49s4.49,2.01,4.49,4.49-2.01,4.49-4.49,4.49-4.49-2.01-4.49-4.49Z"/>
      <circle class="cls-3" cx="45.7" cy="70.41" r="23.67" transform="translate(-36.79 85.93) rotate(-67.67)"/>
      <g>
        <path class="cls-6" d="m35.67,4.51c6.01-6.01,15.76-6.01,21.77,0,6.01,6.01,6.01,15.76,0,21.77-6.01,6.01-15.76,6.01-21.77,0-6.01-6.01-6.01-15.76,0-21.77Z"/>
        <g>
          <path class="cls-2" d="m47.24,25.15c-.29.29-.75.32-1.07.07-.36-.28-.42-.79-.15-1.14l8.11-10.54h-3.81c-.22,0-.42-.09-.58-.24-.15-.15-.24-.36-.24-.58v-5.02s-2.65,0-2.65,0c-.45,0-.82-.37-.82-.82,0-.45.37-.82.82-.82h3.46c.22,0,.42.09.58.24.15.15.24.36.24.58v5.02s4.65,0,4.65,0c.31,0,.59.18.73.46.14.28.1.61-.08.86l-9.12,11.85s-.05.06-.07.08Z"/>
          <path class="cls-2" d="m47.06,25.15s-.05.05-.08.07c-.36.27-.87.21-1.14-.15l-9.12-11.85c-.19-.25-.22-.58-.09-.86.14-.28.42-.46.73-.46h4.65s0-5.02,0-5.02c0-.45.37-.82.82-.82h3.46c.45,0,.82.37.82.82,0,.45-.37.82-.82.82h-2.65v5.02c0,.22-.09.42-.24.58h0c-.15.15-.36.24-.58.24h-3.81s8.11,10.54,8.11,10.54c.25.33.22.79-.07,1.07Z"/>
        </g>
      </g>
      <g class="cls-5">
        <g>
          <path class="cls-1" d="m22.41,66.4c-.89.99-2.02,6.28,0,6.93,2.02.65,3.65,1.4,4.08,3.14.43,1.73,1.96,7.67,3.12,9.47,1.16,1.8,4.18,2.5,5-.26.53-1.8.43-3.9,1.08-4.98.65-1.08-1.66-3.83.29-4.4,1.95-.58,4.19-1.59,2.96-3.18-1.23-1.59-2.82-.94-3.39-2.89-.58-1.95-1.01-3.47-.51-3.47s.36,3.9,2.53,4.26c2.17.36,3.24.32,4.19-1.59.21-.41-2.74-2.6-2.31-3.03.43-.43,1.37.94,3.1,1.08,1.73.14,3.39.79,3.54,2.02.14,1.23,1.66,4.21,2.45,4.11,2.06-.26-.51-2.96.65-3.9,1.15-.94,1.66-1.52,3.03-.58,1.37.94,1.44,2.45,1.37,3.47-.07,1.01.78,3.45,1.58,4.24.79.79,2.25,2.33,3.55,1.68,1.3-.65-.14-1-1.23-1.73-1.08-.73-2.17-3.76-1.37-4.19.79-.43,2.31-.58,1.37-1.88-.94-1.3-.79-1.73-.07-2.09.72-.36,2.45-1.18,2.31-2.32-.14-1.14-1.59-2.59-.87-3.16.72-.58,1.8,1.01,2.6,0,.79-1.01.43-3.68,0-5.49-.43-1.81-3.97-1.73-3.47-2.96.51-1.23.07-1.88-1.73-2.67-1.8-.79-3.83-.87-5.56,0-1.73.87-2.31.22-3.83.65-1.52.43-1.66,1.16-2.38,1.52-.72.36-1.73.65-3.25.43-1.52-.22-2.38-2.09-4.19-.51-1.8,1.59-.87,4.69-3.97,4.26-3.1-.43-5.7-.29-5.85,1.15-.14,1.44.72,2.74-.87,3.47-1.59.72-2.74,2.02-3.97,3.39Z"/>
          <path class="cls-1" d="m36.99,82.14c.47-.96,1.52-2.53,1.88-1.95.36.58,1.23,3.68,0,4.19-1.23.51-2.29-1.4-1.88-2.24Z"/>
          <path class="cls-1" d="m57.46,84.25c.97-.96,1.88-.87,2.96-2.17,1.08-1.3,1.59-2.53,2.6-2.09,1.01.43,2.09,1.37,3.18.72,1.08-.65,2.58.19,2.22,2.71-.36,2.53-1.46,4.77-2.47,6.07-1.01,1.3-3.57,1.97-4.08.82-.51-1.16-.36-2.38-1.01-2.89-.65-.51-2.74.87-3.39.58-.65-.29-1-2.77,0-3.75Z"/>
          <path class="cls-1" d="m58.07,74.99c.17-.25,1.08-2.09,2.02-1.52.94.58.94,2.96,0,3.32-.94.36-2.61-.94-2.02-1.8Z"/>
          <path class="cls-1" d="m65,76.86c.81-.06,3.02.3,3.35,1.74.33,1.44-.1,1.3-.61.94-.51-.36-3.85-2.6-2.74-2.68Z"/>
        </g>
      </g>
    </g>
  </g>
</svg>