<?xml version="1.0" encoding="UTF-8"?>
<svg id="Layer_2" data-name="Layer 2" xmlns="http://www.w3.org/2000/svg" xmlns:xlink="http://www.w3.org/1999/xlink" viewBox="0 0 150.89 103.53">
  <defs>
    <style>
      .cls-1 {
        fill: #ffd3d2;
      }

      .cls-2 {
        fill: #fff;
      }

      .cls-3 {
        fill: #5656f2;
      }

      .cls-4 {
        fill: #5d56f1;
      }

      .cls-5 {
        fill: #ff4f4f;
      }

      .cls-6 {
        fill: #6e54ed;
      }

      .cls-7 {
        fill: #6bd6f2;
      }

      .cls-8 {
        fill: #fe924a;
      }

      .cls-9 {
        fill: #6855ef;
      }

      .cls-10 {
        clip-path: url(#clippath);
      }

      .cls-11 {
        fill: #7c84ff;
      }

      .cls-12 {
        fill: none;
      }

      .cls-13 {
        fill: #fe9249;
      }

      .cls-14 {
        fill: #2cbfc6;
      }

      .cls-15 {
        fill: #f27936;
      }

      .cls-16 {
        fill: #4035d8;
      }
    </style>
    <clipPath id="clippath">
      <path class="cls-12" d="m12.53,46.83l11,1.05c1.13.11,2.14-.72,2.24-1.85l3.01-15.71c.11-1.13-.72-2.14-1.85-2.25l-13.98-2.06c-1.13-.11-2.66,1.98-2.77,3.11l.5,15.46c-.11,1.13.72,2.14,1.85,2.24Z"/>
    </clipPath>
  </defs>
  <g id="Layer_1-2" data-name="Layer 1">
    <g>
      <path class="cls-14" d="m16.37,26.56l-.71,11.56-8.36-.85s1.86-7.47,2.71-9.83c.41-1.12,2.2-1.39,3.46-1.39,1.04,0,2.9.5,2.9.5Z"/>
      <rect class="cls-6" x="20.5" width="130.39" height="95.62" rx="5.67" ry="5.67"/>
      <path class="cls-1" d="m133.23,4.99H32.11c-2.66,0-4.81,2.27-4.81,5.08v75.49c0,2.8,2.16,5.08,4.81,5.08h101.11c2.66,0,4.81-2.27,4.81-5.08V10.07c0-2.8-2.16-5.08-4.81-5.08Z"/>
      <path class="cls-11" d="m26.91,54.37l-17-.28L.95,68.96c-.81,1.34-.39,3.08.94,3.9l14.68,9.08,2.08-3.04-10.2-8.8c-.25-.21-.28-.59-.07-.84,1.45-1.7,6.57-7.77,8.28-10.05l2.5.17,1.92,35.24h3.62s2.57-26.78,2.46-32.91c.33-3-.25-7.33-.25-7.33Z"/>
      <g>
        <path class="cls-5" d="m91.6,23.43c0,2.38-1.93,4.32-4.32,4.32s-4.32-1.93-4.32-4.32,1.93-4.32,4.32-4.32,4.32,1.93,4.32,4.32Z"/>
        <g>
          <rect class="cls-2" x="86.79" y="21.04" width=".98" height="4.78"/>
          <rect class="cls-2" x="84.89" y="22.94" width="4.78" height=".98"/>
        </g>
      </g>
      <path class="cls-15" d="m12.41,37.11l-3.62-1.93s2.25,2.06,2.04,5.19c-.13,1.95,4.17,6.57,1.67,6-1.26-.29-5.33-8.42-6.49-9.59-1.13-1.14-4.73-1.72-4.67,0,.07,1.72,2.8,1.17,2.94,2.01.15.84,3.05,10.75,9.22,12.92,4.47,1.57,3.32-1.49,3.5-4,.18-2.51-4.59-10.59-4.59-10.59Z"/>
      <path class="cls-14" d="m11.52,55.62l13.4-.25c1.13.11,2.25,1,2.25-3l1.62-22.06c.11-1.13-.72-2.14-1.85-2.25l-12.95-1.94c-2.2-.06-3.69,1.87-3.8,3l-.52,24.25c-.11,1.13.72,2.14,1.85,2.25Z"/>
      <rect class="cls-8" x="16.9" y="22.46" width="6.52" height="4.18" transform="translate(-7.12 40.82) rotate(-81.42)"/>
      <path class="cls-8" d="m15.94,20.59c.55,2.76,3.23,4.56,6,4.01,2.76-.55,4.56-3.23,4.01-6-.55-2.76-3.23-4.56-6-4.01-2.76.55-4.56,3.23-4.01,6Z"/>
      <path class="cls-8" d="m24.54,21.87c.15.73.86,1.21,1.59,1.06.73-.15,1.21-.86,1.06-1.59-.15-.73-.86-1.21-1.59-1.06s-1.21.86-1.06,1.59Z"/>
      <path class="cls-16" d="m26.01,20.2c0-1.51,1.01-5.73-3.46-6.55-3.23-.59-3.44.12-5.28-.69-2.03-.9-1.35-1.75-1.53-1.89-.31-.25-1.01.58-1.26,2.03-.24,1.37.06,3.2,1.89,4.27,1.83,1.07,3.78.31,5.73,1.01s.3,2.63.25,3.15c-.04.52,1.25,1.09,1.51.13.63-2.27,2.14-1.45,2.14-1.45Z"/>
      <path class="cls-7" d="m146.54,56.32c0,1.15-.93,2.08-2.08,2.08h0c-1.15,0-2.08-.93-2.08-2.08v-18.14c0-1.15.93-2.08,2.08-2.08h0c1.15,0,2.08.93,2.08,2.08v18.14Z"/>
      <rect class="cls-3" x=".21" y="30.74" width="13.86" height="8.69" rx="1.21" ry="1.21" transform="translate(-2.52 .61) rotate(-4.15)"/>
      <g class="cls-10">
        <path class="cls-8" d="m16.59,25.86c.37,1.88,2.2,3.1,4.07,2.72,1.88-.37,3.1-2.2,2.72-4.07-.37-1.88-2.2-3.1-4.07-2.72-1.88.37-3.1,2.2-2.72,4.07Z"/>
      </g>
      <path class="cls-8" d="m29.83,37.87s-3.9,1.02-4.04,1.43c-.15.42-5.55,7.31-6.96,5.9-3.33-3.33-6.46-7.92-7.98-8.95-1.62-1.1-4.4-1.54-5.21-.56-.81.98-.03,1.99,1.37,1.81,1.4-.18,2.52.17,2.84.66.33.51,5.05,12.53,8.82,13.04,2.5.33,10.41-6.28,11.17-13.33Z"/>
      <path class="cls-14" d="m24.91,28.92c-2.28,2.68-.86,10.88-.86,10.88l6.59-.29s-.03-7.33-.69-9.66c-.62-2.2-4.09-2.06-5.05-.93Z"/>
      <g>
        <path class="cls-2" d="m102.62,66.49h-25.39c-3.12,0-5.66-2.54-5.66-5.66v-.08c0-3.12,2.54-5.66,5.66-5.66h25.39c.82,0,1.48.66,1.48,1.48s-.66,1.48-1.48,1.48h-25.39c-1.49,0-2.7,1.21-2.7,2.7v.08c0,1.49,1.21,2.7,2.7,2.7h25.39c.82,0,1.48.66,1.48,1.48s-.66,1.48-1.48,1.48Z"/>
        <path class="cls-2" d="m74.64,58.02c-.48,0-.92-.31-1.06-.79l-7.76-25.65h43.29l-4.9,25.54c-.12.6-.7,1-1.3.88-.6-.12-1-.7-.88-1.3l4.39-22.9h-37.61l6.89,22.79c.18.59-.15,1.21-.74,1.38-.11.03-.22.05-.32.05Z"/>
        <path class="cls-2" d="m67.32,33.79c-.46,0-.88-.28-1.05-.74l-2.48-6.95h-5.6c-.61,0-1.11-.5-1.11-1.11s.5-1.11,1.11-1.11h7.17l3,8.42c.21.58-.1,1.21-.67,1.42-.12.04-.25.06-.37.06Z"/>
        <path class="cls-2" d="m58.18,26.85h-6.01c-1.02,0-1.85-.83-1.85-1.85s.83-1.85,1.85-1.85h6.01c1.02,0,1.85.83,1.85,1.85s-.83,1.85-1.85,1.85Z"/>
        <path class="cls-2" d="m81.63,72.52c0,2.81-2.28,5.09-5.09,5.09s-5.09-2.28-5.09-5.09,2.28-5.09,5.09-5.09,5.09,2.28,5.09,5.09Z"/>
        <path class="cls-2" d="m105.57,72.52c0,2.81-2.28,5.09-5.09,5.09s-5.09-2.28-5.09-5.09,2.28-5.09,5.09-5.09,5.09,2.28,5.09,5.09Z"/>
        <path class="cls-14" d="m78.92,72.52c0,1.31-1.06,2.37-2.38,2.37s-2.37-1.06-2.37-2.37,1.06-2.38,2.37-2.38,2.38,1.06,2.38,2.38Z"/>
        <path class="cls-14" d="m103.1,72.52c0,1.31-1.06,2.37-2.37,2.37s-2.38-1.06-2.38-2.37,1.06-2.38,2.38-2.38,2.37,1.06,2.37,2.38Z"/>
        <path class="cls-2" d="m79.75,57.41c-.53,0-1-.38-1.09-.92l-3.95-22.7c-.1-.6.3-1.18.9-1.28.6-.1,1.18.3,1.28.9l3.95,22.7c.1.6-.3,1.18-.9,1.28-.06.01-.13.02-.19.02Z"/>
        <path class="cls-2" d="m85.3,56.91c-.58,0-1.07-.45-1.11-1.04l-1.48-22.46c-.04-.61.42-1.14,1.03-1.18.61-.04,1.14.42,1.18,1.03l1.48,22.46c.04.61-.42,1.14-1.03,1.18-.02,0-.05,0-.07,0Z"/>
        <path class="cls-2" d="m96.91,57.41c-.06,0-.12,0-.17-.01-.61-.1-1.02-.66-.92-1.27l3.58-22.7c.1-.61.66-1.02,1.27-.92.61.1,1.02.66.92,1.27l-3.58,22.7c-.09.55-.56.94-1.1.94Z"/>
        <path class="cls-2" d="m90.98,56.91s-.04,0-.06,0c-.61-.03-1.08-.55-1.05-1.16l1.11-22.46c.03-.61.56-1.09,1.16-1.05.61.03,1.08.55,1.05,1.16l-1.11,22.46c-.03.59-.52,1.06-1.11,1.06Z"/>
        <path class="cls-2" d="m105.29,41.61h-35.54c-.61,0-1.11-.5-1.11-1.11s.5-1.11,1.11-1.11h35.54c.61,0,1.11.5,1.11,1.11s-.5,1.11-1.11,1.11Z"/>
        <path class="cls-2" d="m104.06,49.51h-31.34c-.61,0-1.11-.5-1.11-1.11s.5-1.11,1.11-1.11h31.34c.61,0,1.11.5,1.11,1.11s-.5,1.11-1.11,1.11Z"/>
      </g>
      <g>
        <path class="cls-5" d="m119.2,57.14c0-1.85,3.36-9.57,3.36-9.57,0,0,3.36,7.72,3.36,9.57s-1.5,3.36-3.36,3.36-3.36-1.5-3.36-3.36Z"/>
        <path class="cls-2" d="m122.72,96.45c-.11,0-.2-.09-.2-.2v-39.94c0-.11.09-.2.2-.2s.2.09.2.2v39.94c0,.11-.09.2-.2.2Z"/>
        <path class="cls-5" d="m115.26,85.77c-1.31-1.31-4.39-9.14-4.39-9.14,0,0,7.83,3.08,9.14,4.39,1.31,1.31,1.31,3.44,0,4.75-1.31,1.31-3.44,1.31-4.75,0Z"/>
        <path class="cls-5" d="m115.26,70.9c-1.31-1.31-4.39-9.14-4.39-9.14,0,0,7.83,3.08,9.14,4.39,1.31,1.31,1.31,3.44,0,4.75-1.31,1.31-3.44,1.31-4.75,0Z"/>
        <path class="cls-5" d="m130.83,85.77c1.31-1.31,4.39-9.14,4.39-9.14,0,0-7.83,3.08-9.14,4.39-1.31,1.31-1.31,3.44,0,4.75,1.31,1.31,3.44,1.31,4.75,0Z"/>
        <path class="cls-5" d="m130.83,70.9c1.31-1.31,4.39-9.14,4.39-9.14,0,0-7.83,3.08-9.14,4.39-1.31,1.31-1.31,3.44,0,4.75,1.31,1.31,3.44,1.31,4.75,0Z"/>
        <path class="cls-13" d="m117.26,91.07h11.24c.62,0,1.09.55.99,1.16l-1.63,10.44c-.08.49-.5.85-.99.85h-7.98c-.49,0-.92-.36-.99-.85l-1.63-10.44c-.09-.61.38-1.16.99-1.16Z"/>
        <path class="cls-2" d="m122.55,74.88l-6.29-7.28c-.07-.08-.06-.21.02-.29.08-.07.21-.06.29.02l6,6.95,6.64-6.64c.08-.08.21-.08.29,0,.08.08.08.21,0,.29l-6.95,6.95Z"/>
        <path class="cls-2" d="m122.55,88.93l-6.12-6.28c-.08-.08-.08-.21,0-.29.08-.08.21-.08.29,0l5.85,6.01,6.81-6.02c.08-.07.21-.07.29.02.07.08.07.21-.02.29l-7.1,6.27Z"/>
      </g>
      <g>
        <rect class="cls-4" x="74.13" y="36.84" width="27.29" height="13.28" rx="2.4" ry="2.4"/>
        <g>
          <path class="cls-2" d="m81.56,45.73v-4.32h2.19c.46,0,.79.11,1,.34.21.23.31.49.31.79,0,.21-.06.41-.18.58-.12.17-.3.29-.54.36.56.14.84.47.84,1.01,0,.32-.1.61-.3.86s-.62.38-1.26.38h-2.06Zm1.22-2.67h.61c.15,0,.26-.04.33-.12.06-.08.1-.16.1-.25,0-.24-.15-.36-.44-.36h-.59v.73Zm0,1.7h.65c.16,0,.28-.04.35-.12.07-.08.11-.17.11-.27s-.04-.19-.11-.27c-.07-.08-.21-.13-.4-.13h-.6v.79Z"/>
          <path class="cls-2" d="m89.56,41.41v2.86c0,.54-.16.93-.48,1.17-.32.24-.74.36-1.26.36-.54,0-.98-.11-1.31-.34-.33-.23-.5-.6-.5-1.11v-2.93h1.35v2.78c0,.21.04.36.13.45.09.1.23.14.42.14.16,0,.29-.03.39-.1.1-.07.16-.15.18-.23.02-.09.03-.26.03-.51v-2.53h1.04Z"/>
          <path class="cls-2" d="m94.18,41.41l-1.35,2.49v1.83h-1.29v-1.83l-1.45-2.49h1.45l.76,1.42.73-1.42h1.16Z"/>
        </g>
      </g>
      <path class="cls-9" d="m16.57,81.94l2.08-3.04,2.33,1.59-4.21,6.17c-.28.41-1.29-.08-1.24-.57l1.04-4.15Z"/>
      <path class="cls-9" d="m21.19,94.56h3.68v2.82h-7.47c-.49,0-.66-1.11-.23-1.35l4.02-1.48Z"/>
    </g>
  </g>
</svg>