<?xml version="1.0" encoding="UTF-8"?>
<svg id="Layer_2" data-name="Layer 2" xmlns="http://www.w3.org/2000/svg" xmlns:xlink="http://www.w3.org/1999/xlink" viewBox="0 0 106.91 123.7">
  <defs>
    <style>
      .cls-1 {
        fill: #ffd3d2;
      }

      .cls-2 {
        fill: #fff;
      }

      .cls-3 {
        fill: #ff4f4f;
      }

      .cls-4 {
        fill: #4396ca;
      }

      .cls-5 {
        fill: #ce8e3a;
      }

      .cls-6 {
        fill: #fbb;
      }

      .cls-7 {
        fill: #1ba09d;
      }

      .cls-8 {
        fill: #199e99;
      }

      .cls-9 {
        fill: #fe924a;
      }

      .cls-10 {
        fill: #6855ef;
      }

      .cls-11 {
        clip-path: url(#clippath);
      }

      .cls-12 {
        fill: #7c84ff;
      }

      .cls-13 {
        fill: #2cbfc6;
      }

      .cls-14 {
        fill: #2cc1c7;
      }

      .cls-15 {
        fill: #5555f3;
      }
    </style>
    <clipPath id="clippath">
      <path class="cls-8" d="m49.53,65.68l-13.54-1.64c-1.39-.17-2.39-1.43-2.22-2.83l.52-19.74c.17-1.39,1.43-2.39,2.83-2.22l17.41,1.21c1.39.17,2.68,3.09,2.51,4.48l-4.68,18.52c-.17,1.39-1.44,2.39-2.83,2.22Z"/>
    </clipPath>
  </defs>
  <g id="Layer_1-2" data-name="Layer 1">
    <g>
      <path class="cls-3" d="m9.99,35.24c0-1.78,3.23-9.21,3.23-9.21,0,0,3.23,7.42,3.23,9.21s-1.45,3.23-3.23,3.23-3.23-1.45-3.23-3.23Z"/>
      <path class="cls-1" d="m13.38,73.06c-.12,0-.22-.1-.22-.22v-38.42c0-.12.1-.22.22-.22s.22.1.22.22v38.42c0,.12-.1.22-.22.22Z"/>
      <path class="cls-5" d="m52.39,54.09l5.01.71s-.69,2.17-2.76,5.44c-1.29,2.04-7.08,4.85-4.68,6.92,2.4,2.07,5.35-2.91,7.36-3.23,1.95-.31,5.97,1.73,4.66,3.39s-3.64-.87-4.4-.13c-.76.74-2.88,4.97-8.7,4.36s-7.61-3.93-5.96-6.56c1.64-2.64,9.47-10.91,9.47-10.91Z"/>
      <path class="cls-3" d="m35.64,43.39s.57-8.82,2.97-14.29c3.38-7.7,11.84-6.24,14.52-2.39,2.68,3.85,1.87,17.21,1.87,17.21l-19.36-.52Z"/>
      <rect class="cls-12" y="79.85" width="50.04" height="43.86" rx="3.73" ry="3.73"/>
      <path class="cls-13" d="m50.24,40.23l-2.19,14.12,10.3,1.18s-.27-9.5-.68-12.57c-.19-1.46-2.29-2.25-3.81-2.58-1.25-.27-3.63-.16-3.63-.16Z"/>
      <g>
        <circle class="cls-3" cx="93.73" cy="40.72" r="13.18" transform="translate(-4.34 12) rotate(-7.16)"/>
        <polygon class="cls-2" points="93.73 31.44 96.53 37.13 102.81 38.04 98.27 42.47 99.34 48.71 93.73 45.76 88.12 48.71 89.19 42.47 84.65 38.04 90.92 37.13 93.73 31.44"/>
      </g>
      <g>
        <circle class="cls-14" cx="52.78" cy="10.23" r="10.23" transform="translate(34.23 60.69) rotate(-80.78)"/>
        <polygon class="cls-2" points="52.78 3.03 54.95 7.44 59.82 8.15 56.3 11.58 57.13 16.43 52.78 14.14 48.42 16.43 49.26 11.58 45.73 8.15 50.6 7.44 52.78 3.03"/>
      </g>
      <g>
        <path class="cls-4" d="m95.64,66.16c0,5.48-4.44,9.92-9.92,9.92s-9.92-4.44-9.92-9.92,4.44-9.92,9.92-9.92,9.92,4.44,9.92,9.92Z"/>
        <path class="cls-2" d="m90.08,62.57c-1.49-.8-3.43.2-4.34,1.59-.91-1.38-2.96-2.39-4.44-1.59-1.57.84-1.94,2.48-1.1,4.05.84,1.57,5.53,5.4,5.54,5.36,0,.05,4.7-3.78,5.54-5.36.84-1.57.37-3.21-1.2-4.05Z"/>
      </g>
      <g>
        <path class="cls-3" d="m78.28,9.46c0,3.03-2.46,5.49-5.49,5.49s-5.49-2.46-5.49-5.49,2.46-5.49,5.49-5.49,5.49,2.46,5.49,5.49Z"/>
        <g>
          <rect class="cls-2" x="72.16" y="6.43" width="1.25" height="6.08"/>
          <rect class="cls-2" x="69.75" y="8.84" width="6.08" height="1.25"/>
        </g>
      </g>
      <g>
        <path class="cls-14" d="m80.21,80.57c0,1.91-1.55,3.46-3.46,3.46s-3.46-1.55-3.46-3.46,1.55-3.46,3.46-3.46,3.46,1.55,3.46,3.46Z"/>
        <g>
          <rect class="cls-2" x="76.35" y="78.65" width=".79" height="3.84"/>
          <rect class="cls-2" x="74.83" y="80.18" width="3.84" height=".79"/>
        </g>
      </g>
      <g>
        <path class="cls-13" d="m77.51,48.71c0,3.92-3.18,7.11-7.11,7.11s-7.11-3.18-7.11-7.11,3.18-7.11,7.11-7.11,7.11,3.18,7.11,7.11Z"/>
        <g>
          <path class="cls-2" d="m75.6,49.16s-1.96,2.89-5.37,2.71c-3.13-.17-4.81-2.71-4.81-2.71,0,0,1.4-3.17,4.81-3.27,3.97-.11,5.37,3.27,5.37,3.27Z"/>
          <path class="cls-13" d="m72.76,48.93c0,1.19-.96,2.15-2.15,2.15s-2.15-.96-2.15-2.15.96-2.15,2.15-2.15,2.15.96,2.15,2.15Z"/>
        </g>
      </g>
      <g>
        <circle class="cls-10" cx="69.52" cy="27.83" r="9.1"/>
        <g>
          <path class="cls-2" d="m74.34,31.82h-9.89c-.48,0-.87-.39-.87-.87v-6.32c0-.48.39-.87.87-.87h9.89c.48,0,.87.39.87.87v6.32c0,.48-.39.87-.87.87Zm-9.02-1.74h8.15v-4.59h-8.15v4.59Z"/>
          <path class="cls-2" d="m69.54,29.31c-.18,0-.37-.06-.52-.17l-5.08-3.81,1.04-1.39,4.55,3.41,4.28-3.4,1.08,1.36-4.8,3.81c-.16.13-.35.19-.54.19Z"/>
        </g>
      </g>
      <g>
        <circle class="cls-15" cx="26.6" cy="17.03" r="13.38" transform="translate(-2.38 4.48) rotate(-9.22)"/>
        <g>
          <path class="cls-2" d="m20.69,24.64c-2.74,0-4.97-2.23-4.97-4.97s2.23-4.97,4.97-4.97,4.97,2.23,4.97,4.97-2.23,4.97-4.97,4.97Zm0-8.21c-1.79,0-3.24,1.45-3.24,3.24s1.45,3.24,3.24,3.24,3.24-1.45,3.24-3.24-1.45-3.24-3.24-3.24Z"/>
          <path class="cls-2" d="m32.07,24.87c-2.74,0-4.97-2.23-4.97-4.97s2.23-4.97,4.97-4.97,4.97,2.23,4.97,4.97-2.23,4.97-4.97,4.97Zm0-8.21c-1.79,0-3.24,1.45-3.24,3.24s1.45,3.24,3.24,3.24,3.24-1.45,3.24-3.24-1.45-3.24-3.24-3.24Z"/>
          <path class="cls-2" d="m28.1,20.38h-.01l-7.06-.08c-.31,0-.59-.17-.74-.43-.15-.26-.16-.59,0-.86l2.99-5.4c.14-.26.41-.43.7-.45.29-.02.58.11.75.35l4.07,5.48c.2.26.23.62.08.91-.15.29-.45.47-.77.47Zm-5.59-1.8l3.85.05-2.22-2.99-1.63,2.95Z"/>
          <path class="cls-2" d="m25.94,12.25c-.09,0-.18-.01-.27-.04l-3.07-1c-.46-.15-.71-.64-.56-1.09.15-.46.64-.7,1.09-.56l3.07,1c.46.15.71.64.56,1.09-.12.37-.46.6-.82.6Z"/>
          <path class="cls-2" d="m32.07,20.38s-.06,0-.1,0c-.48-.05-.82-.48-.77-.96l1.01-9.13c.05-.48.48-.82.96-.77.48.05.82.48.77.96l-1.01,9.13c-.05.44-.42.77-.86.77Z"/>
          <path class="cls-2" d="m35.84,12.8c-.17,0-.34-.05-.49-.15l-4.87-3.32c-.4-.27-.5-.81-.23-1.21.27-.4.81-.5,1.21-.23l4.87,3.32c.4.27.5.81.23,1.21-.17.25-.44.38-.72.38Z"/>
          <rect class="cls-2" x="28.1" y="18.65" width="3.97" height="1.74"/>
          <path class="cls-2" d="m24.11,15.07c-.48,0-.87-.39-.87-.87v-3.07c0-.48.39-.87.87-.87s.87.39.87.87v3.07c0,.48-.39.87-.87.87Z"/>
        </g>
      </g>
      <path class="cls-7" d="m57.15,73.76l-21.75-.25c-1.39-.17-2.39-1.44-2.22-2.83l1.1-29.21c.17-1.39,1.43-2.39,2.83-2.22l16.13,1.07c2.68.51,3.96,3.23,3.79,4.62l-3.96,21.02c-.17,1.39,5.47,7.96,4.08,7.79Z"/>
      <rect class="cls-9" x="42.18" y="34.22" width="8.05" height="5.16" transform="translate(6.46 80.49) rotate(-86.25)"/>
      <path class="cls-9" d="m52.34,33.14c-1.39,3.19-5.1,4.65-8.29,3.26-3.19-1.39-4.65-5.1-3.26-8.29s5.1-4.65,8.29-3.26c3.19,1.39,4.65,5.1,3.26,8.29Z"/>
      <polygon class="cls-6" points="47.78 73.29 43.24 69.27 56.11 67.48 47.78 73.29"/>
      <path class="cls-9" d="m41.63,32.41c-.37.85-1.35,1.23-2.2.86-.85-.37-1.23-1.35-.86-2.2.37-.85,1.35-1.23,2.2-.86.85.37,1.23,1.35.86,2.2Z"/>
      <path class="cls-9" d="m31.26,50.96s7.29-5.2,7.06-4.7c-.34.73-2,15-.67,15.83,2.7,1.69,11.9,5.12,14.17,5.02,2.41-.11,5.62,1.23,5.84,2.79.22,1.56-2.53,2.52-3.88,1.43-1.35-1.09-1.93-1.44-2.58-1.13-.67.32-17.04-2.78-18.54-4.44-1-1.11-2.74-7.53-1.39-14.8Z"/>
      <g>
        <path class="cls-8" d="m49.53,65.68l-13.54-1.64c-1.39-.17-2.39-1.43-2.22-2.83l.52-19.74c.17-1.39,1.43-2.39,2.83-2.22l17.41,1.21c1.39.17,2.68,3.09,2.51,4.48l-4.68,18.52c-.17,1.39-1.44,2.39-2.83,2.22Z"/>
        <g class="cls-11">
          <path class="cls-9" d="m50.15,39.31c-.94,2.17-3.46,3.16-5.63,2.21-2.17-.94-3.16-3.46-2.21-5.63.94-2.17,3.46-3.16,5.63-2.21,2.17.94,3.16,3.46,2.21,5.63Z"/>
        </g>
      </g>
      <path class="cls-13" d="m39.32,40.81c2.04,3.83-1.83,13.34-1.83,13.34l-7.88-2.08s1.97-8.83,3.37-11.47c1.33-2.5,5.48-1.4,6.33.21Z"/>
      <path class="cls-3" d="m6.2,62.77c-1.26-1.26-4.23-8.79-4.23-8.79,0,0,7.53,2.97,8.79,4.23s1.26,3.3,0,4.56c-1.26,1.26-3.3,1.26-4.57,0Z"/>
      <path class="cls-3" d="m6.2,48.46c-1.26-1.26-4.23-8.79-4.23-8.79,0,0,7.53,2.97,8.79,4.23,1.26,1.26,1.26,3.3,0,4.56-1.26,1.26-3.3,1.26-4.57,0Z"/>
      <path class="cls-3" d="m21.17,62.77c1.26-1.26,4.23-8.79,4.23-8.79,0,0-7.53,2.97-8.79,4.23-1.26,1.26-1.26,3.3,0,4.56,1.26,1.26,3.3,1.26,4.56,0Z"/>
      <path class="cls-3" d="m21.17,48.46c1.26-1.26,4.23-8.79,4.23-8.79,0,0-7.53,2.97-8.79,4.23s-1.26,3.3,0,4.56c1.26,1.26,3.3,1.26,4.56,0Z"/>
      <path class="cls-3" d="m39.89,30.04s4.32-.34,6.53-1.34c2.57-1.17,3.44-2.97,3.44-2.97,0,0,.35,3.38,2.22,5.02,1.87,1.63,1.87,1.11,1.87,1.11,0,0-.41-5.19-4.61-7.41-4.2-2.22-6.3,0-7.82,1.4-1.52,1.4-1.63,4.2-1.63,4.2Z"/>
      <rect class="cls-1" x="51.56" y="56.98" width="12.95" height="20.18" transform="translate(-10.46 123.42) rotate(-88.58)"/>
      <path class="cls-2" d="m60.31,66.78c0,.97-.78,1.75-1.75,1.75s-1.75-.78-1.75-1.75.78-1.75,1.75-1.75,1.75.78,1.75,1.75Z"/>
      <path class="cls-9" d="m8.13,67.87h10.81c.59,0,1.04.53.95,1.11l-1.57,10.05c-.07.47-.48.82-.95.82h-7.68c-.48,0-.88-.35-.95-.82l-1.57-10.05c-.09-.59.36-1.11.95-1.11Z"/>
      <path class="cls-1" d="m13.21,52.32l-6.06-7.02c-.08-.09-.07-.23.02-.31.09-.08.23-.07.31.02l5.76,6.67,6.37-6.37c.08-.08.22-.08.31,0,.08.08.08.22,0,.31l-6.7,6.7Z"/>
      <path class="cls-1" d="m13.21,65.84l-5.9-6.06c-.08-.09-.08-.22,0-.31.09-.08.22-.08.31,0l5.61,5.76,6.53-5.77c.09-.08.23-.07.31.02.08.09.07.23-.02.31l-6.84,6.05Z"/>
      <g>
        <circle class="cls-1" cx="89.15" cy="17.91" r="7.15"/>
        <path class="cls-2" d="m86.19,21.44c-.23,0-.45-.09-.62-.26-.33-.34-.33-.89.02-1.23l5.83-5.69c.34-.34.89-.33,1.23.02.33.34.33.89-.02,1.23l-5.83,5.69c-.17.16-.39.25-.61.25Z"/>
        <path class="cls-2" d="m88.42,15.53c0,.76-.61,1.37-1.37,1.37s-1.37-.61-1.37-1.37.61-1.37,1.37-1.37,1.37.61,1.37,1.37Z"/>
        <path class="cls-2" d="m92.82,19.78c0,.76-.61,1.37-1.37,1.37s-1.37-.61-1.37-1.37.61-1.37,1.37-1.37,1.37.61,1.37,1.37Z"/>
        <path class="cls-1" d="m92.02,19.78c0,.32-.26.57-.57.57s-.57-.26-.57-.57.26-.57.57-.57.57.26.57.57Z"/>
        <path class="cls-1" d="m87.63,15.53c0,.32-.26.57-.57.57s-.57-.26-.57-.57.26-.57.57-.57.57.26.57.57Z"/>
      </g>
      <path class="cls-10" d="m58.17,73.4h-23.41v5.62c0,3.04,1.91,4.41,4.95,4.41h17.9c3.04,0,6.06-1.37,6.06-4.41v-.11c0-3.04-2.47-5.51-5.51-5.51Z"/>
      <path class="cls-10" d="m63.43,78.16l2.79,31.66h-4.24s-5.94-19.01-6.62-25.79c-.68-6.78,3.4-7.49,3.4-7.49l4.67,1.62Z"/>
      <path class="cls-10" d="m49.93,77.74l2.88,32.09h-4.24s-6.24-20.6-6.91-27.38c-.68-6.78,3.69-5.9,3.69-5.9l4.58,1.19Z"/>
      <path class="cls-14" d="m66.13,109.83h-4.16v3.19h8.43c.56,0,.75-1.25.26-1.52l-4.53-1.67Z"/>
      <path class="cls-14" d="m52.82,109.83h-4.16v3.19h8.43c.56,0,.75-1.25.26-1.52l-4.53-1.67Z"/>
    </g>
  </g>
</svg>