<?xml version="1.0" encoding="UTF-8"?>
<svg id="Layer_2" data-name="Layer 2" xmlns="http://www.w3.org/2000/svg" xmlns:xlink="http://www.w3.org/1999/xlink" viewBox="0 0 125.71 133.95">
  <defs>
    <style>
      .cls-1 {
        fill: #fff;
      }

      .cls-2 {
        fill: #ff4f4f;
      }

      .cls-3 {
        fill: #4396ca;
      }

      .cls-4 {
        clip-path: url(#clippath-2);
      }

      .cls-5 {
        fill: #ffc5c5;
      }

      .cls-6 {
        clip-path: url(#clippath-1);
      }

      .cls-7 {
        fill: #6855ef;
      }

      .cls-8 {
        clip-path: url(#clippath);
      }

      .cls-9 {
        fill: #7c84ff;
      }

      .cls-10 {
        fill: none;
      }

      .cls-11 {
        fill: #fe9249;
      }

      .cls-12 {
        fill: #5a56f1;
      }

      .cls-13 {
        fill: #2cbfc6;
      }
    </style>
    <clipPath id="clippath">
      <path class="cls-11" d="m48.58,17.5h33.48c2.31,0,4.18,1.88,4.18,4.18v17.58c0,2.31-1.88,4.18-4.18,4.18h-33.48c-2.31,0-4.18-1.88-4.18-4.18v-17.58c0-2.31,1.88-4.18,4.18-4.18Z"/>
    </clipPath>
    <clipPath id="clippath-1">
      <rect class="cls-10" x="40.49" width="22.41" height="17.78" rx="2.87" ry="2.87"/>
    </clipPath>
    <clipPath id="clippath-2">
      <path class="cls-10" d="m75.63,97.01h-32.47c-2.24,0-4.06-1.87-4.06-4.18v-45.61c0-2.31,1.82-4.18,4.06-4.18h32.47c2.24,0,4.06,1.87,4.06,4.18v45.61c0,2.31-1.82,4.18-4.06,4.18Z"/>
    </clipPath>
  </defs>
  <g id="Layer_1-2" data-name="Layer 1">
    <g>
      <path class="cls-5" d="m75.63,97.01h-32.47c-2.24,0-4.06-1.87-4.06-4.18v-45.61c0-2.31,1.82-4.18,4.06-4.18h32.47c2.24,0,4.06,1.87,4.06,4.18v45.61c0,2.31-1.82,4.18-4.06,4.18Z"/>
      <rect class="cls-7" x="40.49" width="22.41" height="17.78" rx="2.87" ry="2.87"/>
      <g>
        <path class="cls-12" d="m77.96,114.21h-43.16c-.92,0-1.67-.75-1.67-1.67s.75-1.67,1.67-1.67h43.16c3,0,5.44-2.44,5.44-5.44v-.14c0-3-2.44-5.44-5.44-5.44h-43.16c-.92,0-1.67-.75-1.67-1.67s.75-1.67,1.67-1.67h43.16c4.84,0,8.78,3.94,8.78,8.78v.14c0,4.84-3.94,8.78-8.78,8.78Z"/>
        <path class="cls-12" d="m82.35,100.01c-.12,0-.24-.02-.36-.05-.66-.2-1.04-.9-.84-1.57l11.96-39.56H27.56l7.61,39.68c.13.68-.32,1.34-1,1.47-.69.13-1.34-.32-1.47-1l-8.18-42.67h71.97l-12.94,42.79c-.16.54-.66.89-1.2.89Z"/>
        <path class="cls-12" d="m94.8,58.84c-.14,0-.28-.02-.42-.07-.65-.23-.99-.95-.76-1.6l4.96-13.9h11.74c.69,0,1.26.56,1.26,1.26s-.56,1.26-1.26,1.26h-9.97l-4.36,12.23c-.18.51-.67.83-1.18.83Z"/>
        <path class="cls-12" d="m120.55,46.61h-10.22c-1.16,0-2.09-.94-2.09-2.09s.94-2.09,2.09-2.09h10.22c1.16,0,2.09.94,2.09,2.09s-.94,2.09-2.09,2.09Z"/>
        <circle class="cls-13" cx="79.12" cy="125.3" r="8.65"/>
        <circle class="cls-13" cx="38.43" cy="125.3" r="8.65"/>
        <path class="cls-1" d="m75.08,125.3c0,2.23,1.81,4.04,4.04,4.04s4.04-1.81,4.04-4.04-1.81-4.04-4.04-4.04-4.04,1.81-4.04,4.04Z"/>
        <path class="cls-1" d="m33.97,125.3c0,2.23,1.81,4.04,4.04,4.04s4.04-1.81,4.04-4.04-1.81-4.04-4.04-4.04-4.04,1.81-4.04,4.04Z"/>
        <path class="cls-12" d="m73.67,98.98c-.07,0-.14,0-.22-.02-.68-.12-1.14-.77-1.02-1.45l6.71-38.59c.12-.68.77-1.14,1.45-1.02.68.12,1.14.77,1.02,1.45l-6.71,38.59c-.11.61-.64,1.04-1.24,1.04Z"/>
        <path class="cls-12" d="m64.23,98.14s-.06,0-.08,0c-.69-.05-1.22-.64-1.17-1.34l2.52-38.17c.05-.69.64-1.22,1.34-1.17.69.05,1.22.64,1.17,1.34l-2.52,38.17c-.04.66-.6,1.17-1.25,1.17Z"/>
        <path class="cls-12" d="m44.51,98.98c-.61,0-1.14-.44-1.24-1.06l-6.08-38.59c-.11-.68.36-1.33,1.05-1.44.68-.11,1.33.36,1.44,1.05l6.08,38.59c.11.68-.36,1.33-1.04,1.44-.07.01-.13.02-.2.02Z"/>
        <path class="cls-12" d="m54.58,98.14c-.66,0-1.22-.52-1.25-1.19l-1.89-38.17c-.03-.69.5-1.28,1.19-1.32.68-.05,1.28.5,1.32,1.19l1.89,38.17c.03.69-.5,1.28-1.19,1.32-.02,0-.04,0-.06,0Z"/>
        <path class="cls-12" d="m90.65,72.13H30.25c-.69,0-1.26-.56-1.26-1.26s.56-1.26,1.26-1.26h60.41c.69,0,1.26.56,1.26,1.26s-.56,1.26-1.26,1.26Z"/>
        <path class="cls-12" d="m85.62,85.55h-53.27c-.69,0-1.26-.56-1.26-1.26s.56-1.26,1.26-1.26h53.27c.69,0,1.26.56,1.26,1.26s-.56,1.26-1.26,1.26Z"/>
      </g>
      <g>
        <circle class="cls-2" cx="93.84" cy="79.16" r="11.48" transform="translate(7.31 166.24) rotate(-85.33)"/>
        <g>
          <rect class="cls-1" x="92.53" y="72.8" width="2.62" height="12.71"/>
          <rect class="cls-1" x="87.49" y="77.85" width="12.71" height="2.62"/>
        </g>
      </g>
      <g>
        <path class="cls-11" d="m48.58,17.5h33.48c2.31,0,4.18,1.88,4.18,4.18v17.58c0,2.31-1.88,4.18-4.18,4.18h-33.48c-2.31,0-4.18-1.88-4.18-4.18v-17.58c0-2.31,1.88-4.18,4.18-4.18Z"/>
        <g class="cls-8">
          <rect class="cls-1" x="72.43" y="12.48" width=".42" height="38.78"/>
          <rect class="cls-1" x="34.28" y="27.76" width="56.77" height=".42"/>
        </g>
      </g>
      <g class="cls-6">
        <rect class="cls-1" x="46.77" y="-4.81" width=".42" height="28.18"/>
      </g>
      <g class="cls-4">
        <rect class="cls-1" x="34.09" y="49.66" width="48.44" height=".42"/>
      </g>
      <g>
        <circle class="cls-13" cx="115.48" cy="60.75" r="10.23" transform="translate(-14.49 49.15) rotate(-22.65)"/>
        <g>
          <path class="cls-1" d="m122.96,61.39s-2.82,4.16-7.72,3.89c-4.5-.25-6.92-3.89-6.92-3.89,0,0,2.01-4.57,6.92-4.7,5.71-.16,7.72,4.7,7.72,4.7Z"/>
          <path class="cls-13" d="m118.86,61.06c0,1.71-1.38,3.09-3.09,3.09s-3.09-1.38-3.09-3.09,1.38-3.09,3.09-3.09,3.09,1.38,3.09,3.09Z"/>
        </g>
      </g>
      <g>
        <path class="cls-7" d="m31.54,45.34c0,4.22-3.42,7.64-7.64,7.64s-7.64-3.42-7.64-7.64,3.42-7.64,7.64-7.64,7.64,3.42,7.64,7.64Z"/>
        <path class="cls-1" d="m28.15,48.96h-8.31c-.46,0-.84-.37-.84-.84v-5.31c0-.46.37-.84.84-.84h8.31c.46,0,.84.37.84.84v5.31c0,.46-.37.84-.84.84Zm-7.47-1.67h6.64v-3.64h-6.64v3.64Z"/>
        <path class="cls-1" d="m25.28,45.33c0,.65-.53,1.18-1.18,1.18s-1.18-.53-1.18-1.18.53-1.18,1.18-1.18,1.18.53,1.18,1.18Z"/>
        <path class="cls-1" d="m26.24,43.54c-.58,0-1.05-.47-1.05-1.05v-.64c0-.58.47-1.05,1.05-1.05s1.05.47,1.05,1.05v.64c0,.58-.47,1.05-1.05,1.05Z"/>
      </g>
      <g>
        <path class="cls-9" d="m104.85,34.43c0,3.54-2.87,6.41-6.41,6.41s-6.41-2.87-6.41-6.41,2.87-6.41,6.41-6.41,6.41,2.87,6.41,6.41Z"/>
        <path class="cls-1" d="m95.79,37.66c-.22,0-.44-.08-.6-.25-.32-.33-.32-.86.01-1.18l5.23-5.1c.33-.32.86-.32,1.18.01.32.33.32.86-.01,1.18l-5.23,5.1c-.16.16-.37.24-.58.24Z"/>
        <path class="cls-1" d="m97.79,32.3c0,.68-.55,1.23-1.23,1.23s-1.23-.55-1.23-1.23.55-1.23,1.23-1.23,1.23.55,1.23,1.23Z"/>
        <circle class="cls-1" cx="100.5" cy="36.11" r="1.23"/>
        <path class="cls-3" d="m101.02,36.11c0,.28-.23.51-.51.51s-.51-.23-.51-.51.23-.51.51-.51.51.23.51.51Z"/>
        <path class="cls-3" d="m97.07,32.3c0,.28-.23.51-.51.51s-.51-.23-.51-.51.23-.51.51-.51.51.23.51.51Z"/>
      </g>
      <g>
        <path class="cls-13" d="m27.52,85.54c0,7.6-6.16,13.76-13.76,13.76S0,93.14,0,85.54s6.16-13.76,13.76-13.76,13.76,6.16,13.76,13.76Z"/>
        <path class="cls-1" d="m19.8,80.56c-2.06-1.11-4.76.28-6.02,2.2-1.26-1.92-4.1-3.31-6.16-2.2-2.18,1.17-2.7,3.44-1.52,5.62,1.17,2.18,7.68,7.49,7.69,7.43.01.06,6.52-5.25,7.69-7.43,1.17-2.18.51-4.45-1.67-5.62Z"/>
      </g>
      <g>
        <path class="cls-2" d="m39.2,23.85c0,6.14-4.98,11.12-11.12,11.12s-11.12-4.98-11.12-11.12,4.98-11.12,11.12-11.12,11.12,4.98,11.12,11.12Z"/>
        <polygon class="cls-1" points="28.08 16.02 30.45 20.82 35.74 21.58 31.91 25.32 32.81 30.58 28.08 28.1 23.35 30.58 24.25 25.32 20.43 21.58 25.72 20.82 28.08 16.02"/>
      </g>
    </g>
  </g>
</svg>