<?xml version="1.0" encoding="UTF-8"?>
<svg id="Layer_2" data-name="Layer 2" xmlns="http://www.w3.org/2000/svg" xmlns:xlink="http://www.w3.org/1999/xlink" viewBox="0 0 162.06 126.39">
  <defs>
    <style>
      .cls-1 {
        fill: #ffd3d2;
      }

      .cls-2 {
        fill: #fff;
      }

      .cls-3 {
        fill: #ff4f4f;
      }

      .cls-4 {
        fill: #4396ca;
      }

      .cls-5 {
        fill: #3287b2;
      }

      .cls-6 {
        clip-path: url(#clippath-1);
      }

      .cls-7 {
        opacity: .19;
      }

      .cls-8 {
        fill: #6855ef;
      }

      .cls-9 {
        clip-path: url(#clippath);
      }

      .cls-10 {
        fill: #fe9249;
      }

      .cls-11 {
        fill: #2cbfc6;
      }

      .cls-12 {
        fill: #7b83ff;
      }

      .cls-13 {
        fill: #ffbdbd;
      }
    </style>
    <clipPath id="clippath">
      <path class="cls-10" d="m1.59,111.32c-1.15-2.43-2.56-16.38-.64-18.17,1.92-1.79,4.48-2.43,5.12-2.56.64-.13-.64-8.57,2.05-9.08,1.51-.29,3.2.26,3.07,5.12-.17,6.42-1.02,24.44-1.02,24.44l-8.57.26Z"/>
    </clipPath>
    <clipPath id="clippath-1">
      <path class="cls-10" d="m48.21,106.91c-.76-1.47.34-2.78,2.42-5.98.51-.79.1-2.46-.92-4.62-2.15-4.52-3.61-7.79-1.03-9.34,2.57-1.54,3.08,2.77,4.31,6.06,1.23,3.28,1.54,5.34,2.36,5.34.29,0,.54-.38,2.07-.48,1.33-.08,1.2.53,2.06.58.89.05,1.71-.52,2.83-.34.39.07.98.5,1.63.72.58.19,1.87-.29,2.73.53,2.22,2.1.38,14.9.38,14.9l-9.17,3.28s-4.11-2.55-5.74-3.74c-1.06-.77-2.69-4.51-3.93-6.91Z"/>
    </clipPath>
  </defs>
  <g id="Layer_1-2" data-name="Layer 1">
    <g>
      <g>
        <circle class="cls-12" cx="139.86" cy="43.86" r="8.19"/>
        <path class="cls-2" d="m139.13,46.93c-.18,0-.36-.06-.51-.18l-2.98-2.39c-.35-.28-.41-.79-.13-1.14.28-.35.79-.41,1.14-.13l2.5,2,4.72-3.37c.36-.26.87-.18,1.13.19.26.36.18.87-.19,1.13l-5.22,3.73c-.14.1-.31.15-.47.15Z"/>
      </g>
      <g>
        <circle class="cls-3" cx="127" cy="29.69" r="7.62" transform="translate(-1.73 50.61) rotate(-22.39)"/>
        <polygon class="cls-2" points="127 24.33 128.62 27.61 132.25 28.14 129.62 30.7 130.24 34.31 127 32.6 123.76 34.31 124.38 30.7 121.76 28.14 125.38 27.61 127 24.33"/>
      </g>
      <g>
        <circle class="cls-12" cx="110.8" cy="40.68" r="7.62"/>
        <path class="cls-2" d="m114.14,37.92c-1.14-.61-2.64.16-3.33,1.22-.7-1.06-2.27-1.83-3.41-1.22-1.21.65-1.49,1.91-.84,3.11.65,1.21,4.25,4.15,4.26,4.11,0,.04,3.61-2.91,4.26-4.11.65-1.21.28-2.47-.92-3.11Z"/>
      </g>
      <g>
        <path class="cls-11" d="m129.07,46.03c0,2.56-2.08,4.64-4.64,4.64s-4.64-2.08-4.64-4.64,2.08-4.64,4.64-4.64,4.64,2.08,4.64,4.64Z"/>
        <g>
          <rect class="cls-2" x="123.9" y="43.47" width="1.06" height="5.14"/>
          <rect class="cls-2" x="121.86" y="45.51" width="5.14" height="1.06"/>
        </g>
      </g>
      <g>
        <path class="cls-11" d="m67.24,56.54c1.52,2.06,1.09,4.96-.97,6.49-2.06,1.52-4.96,1.09-6.49-.97-1.52-2.06-1.09-4.96.97-6.49,2.06-1.52,4.96-1.09,6.49.97Z"/>
        <g>
          <rect class="cls-2" x="62.99" y="56.73" width="1.06" height="5.14" transform="translate(-22.82 49.45) rotate(-36.53)"/>
          <rect class="cls-2" x="60.95" y="58.77" width="5.14" height="1.06" transform="translate(-22.82 49.46) rotate(-36.53)"/>
        </g>
      </g>
      <g>
        <g>
          <rect class="cls-8" x="7.42" y="66.57" width="65.63" height="43.95" rx="3.84" ry="3.84"/>
          <path class="cls-1" d="m65.78,107.78H13.54c-1.97,0-3.57-1.5-3.57-3.36v-31.75c0-1.86,1.6-3.36,3.57-3.36h52.24c1.97,0,3.57,1.5,3.57,3.36v31.75c0,1.86-1.6,3.36-3.57,3.36Z"/>
          <path class="cls-5" d="m71.23,84.97c.42,0,.76.34.76.77v5.61c0,.42-.34.77-.76.77h0c-.42,0-.77-.34-.77-.77v-5.61c0-.42.34-.77.77-.77h0Z"/>
        </g>
        <rect class="cls-11" x="26" y="81.65" width="27.33" height="13.3" rx="2.4" ry="2.4"/>
        <g>
          <path class="cls-10" d="m1.59,111.32c-1.15-2.43-2.56-16.38-.64-18.17,1.92-1.79,4.48-2.43,5.12-2.56.64-.13-.64-8.57,2.05-9.08,1.51-.29,3.2.26,3.07,5.12-.17,6.42-1.02,24.44-1.02,24.44l-8.57.26Z"/>
          <g class="cls-9">
            <rect class="cls-1" x="6.12" y="83.9" width=".41" height="9.93" transform="translate(-2.49 .21) rotate(-1.6)"/>
          </g>
        </g>
        <path class="cls-1" d="m10.09,83.82c0,.74-.6,1.34-1.34,1.34s-1.34-.6-1.34-1.34.6-1.34,1.34-1.34,1.34.6,1.34,1.34Z"/>
        <path class="cls-13" d="m1.39,110.94h8.76v13.63c0,.49-.4.9-.9.9H2.29c-.49,0-.9-.4-.9-.9v-13.63Z"/>
        <path class="cls-13" d="m57.77,110.94l9.28,3.34,1.59,10.29c0,.49-.4.9-.9.9h-9.08c-.49,0-.9-.4-.9-.9v-13.63Z"/>
        <g>
          <g>
            <path class="cls-10" d="m48.21,106.91c-.76-1.47.34-2.78,2.42-5.98.51-.79.1-2.46-.92-4.62-2.15-4.52-3.61-7.79-1.03-9.34,2.57-1.54,3.08,2.77,4.31,6.06,1.23,3.28,1.54,5.34,2.36,5.34.29,0,.54-.38,2.07-.48,1.33-.08,1.2.53,2.06.58.89.05,1.71-.52,2.83-.34.39.07.98.5,1.63.72.58.19,1.87-.29,2.73.53,2.22,2.1.38,14.9.38,14.9l-9.17,3.28s-4.11-2.55-5.74-3.74c-1.06-.77-2.69-4.51-3.93-6.91Z"/>
            <g class="cls-6">
              <rect class="cls-1" x="51.62" y="98.74" width=".41" height="9.93" transform="translate(-24.97 16.85) rotate(-14.93)"/>
            </g>
          </g>
          <path class="cls-1" d="m51.12,89.57c0,.74-.6,1.34-1.34,1.34s-1.34-.6-1.34-1.34.6-1.34,1.34-1.34,1.34.6,1.34,1.34Z"/>
        </g>
        <path class="cls-1" d="m1.14,109.66h9.02v4.09H1.14c-.6,0-1.09-.49-1.09-1.09v-1.92c0-.6.49-1.09,1.09-1.09Z"/>
        <rect class="cls-1" x="56.12" y="116.05" width="12.41" height="4.09" rx="1.09" ry="1.09" transform="translate(-36.28 28.05) rotate(-19.77)"/>
        <g>
          <path class="cls-2" d="m33.64,90.55v-4.33h2.2c.46,0,.79.12,1,.35.21.23.31.49.31.79,0,.22-.06.41-.18.58-.12.17-.3.29-.54.36.56.14.84.47.84,1.01,0,.32-.1.61-.3.86-.2.25-.62.38-1.27.38h-2.06Zm1.22-2.67h.61c.15,0,.26-.04.33-.12.06-.08.09-.16.09-.25,0-.24-.15-.36-.44-.36h-.59v.73Zm0,1.71h.65c.16,0,.28-.04.35-.12.08-.08.11-.17.11-.27s-.04-.19-.11-.27c-.07-.08-.21-.13-.4-.13h-.6v.79Z"/>
          <path class="cls-2" d="m41.65,86.22v2.87c0,.54-.16.93-.48,1.17-.32.24-.74.36-1.26.36-.55,0-.98-.11-1.31-.34-.33-.23-.5-.6-.5-1.12v-2.94h1.35v2.78c0,.21.04.36.13.45.09.1.23.14.42.14.16,0,.29-.03.39-.1.1-.07.16-.15.18-.23.02-.09.03-.26.03-.51v-2.53h1.05Z"/>
          <path class="cls-2" d="m46.27,86.22l-1.35,2.49v1.83h-1.29v-1.83l-1.46-2.49h1.45l.76,1.43.73-1.43h1.16Z"/>
        </g>
        <g class="cls-7">
          <path class="cls-2" d="m61.46,91.66c0,.91-.74,1.64-1.64,1.64h0c-.91,0-1.64-.73-1.64-1.64v-18.71c0-.91.73-1.64,1.64-1.64h0c.91,0,1.64.73,1.64,1.64v18.71Z"/>
        </g>
        <g class="cls-7">
          <path class="cls-2" d="m66.55,79.68c0,.91-.73,1.64-1.64,1.64h0c-.91,0-1.64-.73-1.64-1.64v-6.73c0-.91.74-1.64,1.64-1.64h0c.91,0,1.64.73,1.64,1.64v6.73Z"/>
        </g>
      </g>
      <g>
        <circle class="cls-8" cx="108.87" cy="20.87" r="9.97" transform="translate(.25 42.98) rotate(-22.36)"/>
        <path class="cls-2" d="m114.42,25.31h-10.86c-.45,0-.81-.36-.81-.81v-6.94c0-.45.36-.81.81-.81h10.86c.45,0,.81.36.81.81v6.94c0,.45-.36.81-.81.81Zm-10.04-1.62h9.23v-5.32h-9.23v5.32Z"/>
        <circle class="cls-2" cx="109.13" cy="20.85" r="1.54"/>
        <path class="cls-2" d="m111.92,18.15c-.56,0-1.02-.45-1.02-1.02v-.83c0-.56.45-1.02,1.02-1.02s1.02.45,1.02,1.02v.83c0,.56-.45,1.02-1.02,1.02Z"/>
      </g>
      <g>
        <circle class="cls-12" cx="51.34" cy="25.47" r="9.23" transform="translate(-5.85 21.72) rotate(-22.63)"/>
        <path class="cls-2" d="m47.51,29.72c-.21,0-.42-.08-.58-.24-.31-.32-.31-.84.01-1.15l7.54-7.35c.32-.31.84-.31,1.15.01.31.32.31.84-.01,1.15l-7.54,7.35c-.16.15-.36.23-.57.23Z"/>
        <circle class="cls-2" cx="48.63" cy="22.39" r="1.77"/>
        <path class="cls-2" d="m56.07,27.88c0,.98-.79,1.77-1.77,1.77s-1.77-.79-1.77-1.77.79-1.77,1.77-1.77,1.77.79,1.77,1.77Z"/>
        <circle class="cls-4" cx="54.3" cy="27.88" r=".74"/>
        <circle class="cls-4" cx="48.63" cy="22.39" r=".74"/>
      </g>
      <g>
        <circle class="cls-11" cx="130.73" cy="62.23" r="9.23" transform="translate(-10.77 31.57) rotate(-13.23)"/>
        <g>
          <path class="cls-2" d="m137.49,62.81s-2.55,3.76-6.97,3.52c-4.06-.22-6.24-3.52-6.24-3.52,0,0,1.82-4.12,6.24-4.24,5.15-.14,6.97,4.24,6.97,4.24Z"/>
          <path class="cls-11" d="m133.79,62.51c0,1.54-1.25,2.79-2.79,2.79s-2.79-1.25-2.79-2.79,1.25-2.79,2.79-2.79,2.79,1.25,2.79,2.79Z"/>
        </g>
      </g>
      <g>
        <circle class="cls-3" cx="30.8" cy="32.79" r="10.22"/>
        <path class="cls-2" d="m30.53,33.82c0-.64.03-.78-.61-1-1.24-.45-2.17-1.31-2.17-2.67s.9-2.49,2.37-2.76c.24-.05.38-.1.39-.43.01-.28.43-.25.65-.25.25,0,.23.11.23.3,0,.34.44.29.82.35.2.04,1.51.26,1.51.55,0,.1-.5,1.57-.68,1.57-.3,0-.61-.51-1.33-.51-.31,0-.26.43-.26.63v1.09c0,.59.04.78.64,1,1.47.51,2.42,1.47,2.42,3.01,0,1.78-1.16,2.99-2.62,2.99-.28,0-.39.2-.39.5s-.2.25-.46.25c-.24,0-.43.06-.44-.21-.01-.41-.21-.54-.64-.54-.7,0-2.02-.61-2.02-.85,0-.29.43-1.98.65-1.98.48,0,.79.74,1.62.74.38,0,.34-.35.34-.6v-1.17Zm0-4.24c0-.36.06-.62-.25-.62-.56,0-.84.55-.84,1.07,0,.58.63,1.08.87,1.08.19,0,.23-.46.23-.83v-.7Zm.9,5.52c0,.29,0,.49.36.49.6,0,1-.45,1-.99,0-.49-.72-1.13-1.12-1.13-.28,0-.25.24-.25.49v1.14Z"/>
      </g>
      <g>
        <circle class="cls-10" cx="68.38" cy="41.45" r="10.22"/>
        <path class="cls-2" d="m73.35,36.9c.5.17.83,1.2.46,2.86-.37,1.66-.92,5.45-.92,5.45h-1.38s.65-4.06-.65-4.43c-1.29-.37-2.12,4.43-5.08,4.43s-4.8.09-4.89-.74c-.09-.83,3.97-1.57,5.63-3.69,2.45-3.14,6-4.15,6.83-3.88Z"/>
      </g>
      <g>
        <path class="cls-8" d="m57.17,51.97c0,5.65-4.58,10.22-10.22,10.22s-10.22-4.58-10.22-10.22,4.58-10.22,10.22-10.22,10.22,4.58,10.22,10.22Z"/>
        <g>
          <path class="cls-2" d="m52.36,56.29h-11.1c-.45,0-.81-.36-.81-.81v-7.1c0-.45.36-.81.81-.81h11.1c.45,0,.81.36.81.81v7.1c0,.45-.36.81-.81.81Zm-10.29-1.62h9.48v-5.47h-9.48v5.47Z"/>
          <path class="cls-2" d="m46.97,53.47c-.17,0-.34-.05-.49-.16l-5.71-4.28.97-1.3,5.21,3.91,4.9-3.89,1.01,1.27-5.39,4.28c-.15.12-.33.18-.51.18Z"/>
        </g>
      </g>
      <g>
        <circle class="cls-8" cx="109.17" cy="61.84" r="9.97" transform="translate(30.59 159.65) rotate(-80.75)"/>
        <path class="cls-2" d="m109.17,68.98c-3.94,0-7.14-3.2-7.14-7.14s3.2-7.14,7.14-7.14,7.14,3.2,7.14,7.14-3.2,7.14-7.14,7.14Zm0-12.65c-3.04,0-5.51,2.47-5.51,5.51s2.47,5.52,5.51,5.52,5.51-2.47,5.51-5.52-2.47-5.51-5.51-5.51Z"/>
        <path class="cls-2" d="m109.17,62.65c-.13,0-.25-.03-.37-.09l-2.4-1.21c-.4-.2-.56-.69-.36-1.09.2-.4.69-.56,1.09-.36l2.02,1.02,2.99-1.65c.39-.22.89-.07,1.1.32.22.39.07.89-.32,1.1l-3.37,1.86c-.12.07-.26.1-.39.1Z"/>
      </g>
      <g>
        <path class="cls-10" d="m33.29,54.57c0,5.1-4.13,9.23-9.23,9.23s-9.23-4.13-9.23-9.23,4.13-9.23,9.23-9.23,9.23,4.13,9.23,9.23Z"/>
        <g>
          <path class="cls-2" d="m26.08,60.58c-.21,0-.42-.08-.57-.24l-1.9-1.9-1.74,1.74c-.22.22-.54.29-.84.19-.29-.1-.5-.36-.54-.66l-1.16-8.89c-.06-.44.26-.85.7-.91.44-.06.85.26.91.7l.95,7.25,1.15-1.15c.32-.32.83-.32,1.15,0l1.9,1.9.89-.89c.32-.32.83-.32,1.15,0,.32.32.32.83,0,1.15l-1.47,1.47c-.16.16-.37.24-.57.24Z"/>
          <path class="cls-2" d="m27.78,58.88c-.21,0-.42-.08-.57-.24-.32-.32-.32-.83,0-1.15l.89-.89-1.9-1.9c-.32-.32-.32-.83,0-1.15l1.15-1.15-7.25-.95c-.44-.06-.76-.47-.7-.91.06-.45.47-.76.91-.7l8.89,1.16c.31.04.56.25.66.54.1.29.02.62-.19.84l-1.74,1.74,1.9,1.9c.32.32.32.83,0,1.15l-1.47,1.47c-.16.16-.37.24-.57.24Z"/>
        </g>
      </g>
      <g>
        <path class="cls-12" d="m131.57,113.7h-28.84c-.9,0-1.62-.73-1.62-1.62s.73-1.62,1.62-1.62h28.84c1.72,0,3.13-1.4,3.13-3.13v-.1c0-1.72-1.4-3.13-3.13-3.13h-28.84c-.9,0-1.62-.73-1.62-1.62s.73-1.62,1.62-1.62h28.84c3.52,0,6.38,2.86,6.38,6.38v.1c0,3.52-2.86,6.38-6.38,6.38Z"/>
        <path class="cls-12" d="m134.5,104.09c-.12,0-.24-.02-.35-.05-.64-.19-1.01-.87-.81-1.52l7.84-25.94h-42.83l5,26.07c.13.66-.31,1.3-.97,1.43-.66.13-1.3-.31-1.43-.97l-5.55-28.96h49.06l-8.79,29.08c-.16.53-.64.87-1.17.87Z"/>
        <path class="cls-4" d="m142.82,76.58c-.14,0-.27-.02-.41-.07-.63-.23-.96-.92-.74-1.56l3.4-9.54h8.11c.67,0,1.22.55,1.22,1.22s-.55,1.22-1.22,1.22h-6.39l-2.82,7.92c-.18.5-.65.81-1.15.81Z"/>
        <path class="cls-12" d="m160.02,68.66h-6.83c-1.12,0-2.03-.91-2.03-2.03s.91-2.03,2.03-2.03h6.83c1.12,0,2.03.91,2.03,2.03s-.91,2.03-2.03,2.03Z"/>
        <path class="cls-10" d="m126.56,120.61c0,3.19,2.59,5.78,5.78,5.78s5.78-2.59,5.78-5.78-2.59-5.78-5.78-5.78-5.78,2.59-5.78,5.78Z"/>
        <path class="cls-10" d="m99.37,120.61c0,3.19,2.59,5.78,5.78,5.78s5.78-2.59,5.78-5.78-2.59-5.78-5.78-5.78-5.78,2.59-5.78,5.78Z"/>
        <path class="cls-2" d="m129.64,120.61c0,1.49,1.21,2.7,2.7,2.7s2.7-1.21,2.7-2.7-1.21-2.7-2.7-2.7-2.7,1.21-2.7,2.7Z"/>
        <path class="cls-2" d="m102.17,120.61c0,1.49,1.21,2.7,2.7,2.7s2.7-1.21,2.7-2.7-1.21-2.7-2.7-2.7-2.7,1.21-2.7,2.7Z"/>
        <path class="cls-12" d="m128.7,103.4c-.07,0-.14,0-.21-.02-.66-.12-1.11-.75-.99-1.41l4.48-25.79c.12-.66.75-1.11,1.41-.99.66.12,1.11.75.99,1.41l-4.48,25.79c-.1.59-.62,1.01-1.2,1.01Z"/>
        <path class="cls-12" d="m122.39,102.84s-.05,0-.08,0c-.67-.04-1.18-.62-1.14-1.3l1.68-25.51c.04-.67.62-1.18,1.3-1.14.67.04,1.18.62,1.14,1.3l-1.68,25.51c-.04.64-.58,1.14-1.21,1.14Z"/>
        <path class="cls-12" d="m109.22,103.4c-.59,0-1.11-.43-1.2-1.03l-4.06-25.79c-.1-.66.35-1.29,1.01-1.39.66-.1,1.29.35,1.39,1.01l4.06,25.79c.1.66-.35,1.29-1.01,1.39-.06,0-.13.01-.19.01Z"/>
        <path class="cls-12" d="m115.94,102.84c-.65,0-1.18-.51-1.22-1.16l-1.26-25.51c-.03-.67.48-1.24,1.16-1.28.67-.04,1.24.48,1.28,1.16l1.26,25.51c.03.67-.48,1.24-1.16,1.28-.02,0-.04,0-.06,0Z"/>
        <path class="cls-12" d="m140.05,85.46h-40.36c-.67,0-1.22-.55-1.22-1.22s.55-1.22,1.22-1.22h40.36c.67,0,1.22.55,1.22,1.22s-.55,1.22-1.22,1.22Z"/>
        <path class="cls-12" d="m136.69,94.43h-35.6c-.67,0-1.22-.55-1.22-1.22s.55-1.22,1.22-1.22h35.6c.67,0,1.22.55,1.22,1.22s-.55,1.22-1.22,1.22Z"/>
      </g>
      <circle class="cls-12" cx="55.66" cy="9.88" r="5.01"/>
      <path class="cls-11" d="m41.32,18c0,1.57-1.27,2.84-2.84,2.84s-2.84-1.27-2.84-2.84,1.27-2.84,2.84-2.84,2.84,1.27,2.84,2.84Z"/>
      <path class="cls-11" d="m103.04,48.05c0,1.57-1.27,2.84-2.84,2.84s-2.84-1.27-2.84-2.84,1.27-2.84,2.84-2.84,2.84,1.27,2.84,2.84Z"/>
      <path class="cls-1" d="m147.03,56.31c0,1.05-.85,1.89-1.89,1.89s-1.9-.85-1.9-1.89.85-1.9,1.9-1.9,1.89.85,1.89,1.9Z"/>
      <path class="cls-10" d="m99.93,8.8c0,2.02-1.64,3.65-3.65,3.65s-3.65-1.64-3.65-3.65,1.64-3.65,3.65-3.65,3.65,1.64,3.65,3.65Z"/>
      <g>
        <circle class="cls-1" cx="76.24" cy="14.48" r="14.48" transform="translate(44.73 85.4) rotate(-76.8)"/>
        <g>
          <path class="cls-2" d="m69.84,22.61c-2.9,0-5.26-2.36-5.26-5.26s2.36-5.26,5.26-5.26,5.26,2.36,5.26,5.26-2.36,5.26-5.26,5.26Zm0-8.89c-2,0-3.64,1.63-3.64,3.64s1.63,3.63,3.64,3.63,3.63-1.63,3.63-3.63-1.63-3.64-3.63-3.64Z"/>
          <path class="cls-2" d="m82.16,22.85c-2.9,0-5.26-2.36-5.26-5.26s2.36-5.26,5.26-5.26,5.26,2.36,5.26,5.26-2.36,5.26-5.26,5.26Zm0-8.89c-2,0-3.64,1.63-3.64,3.63s1.63,3.64,3.64,3.64,3.63-1.63,3.63-3.64-1.63-3.63-3.63-3.63Z"/>
          <path class="cls-2" d="m77.86,17.99h0l-7.64-.09c-.29,0-.55-.16-.69-.4-.14-.25-.15-.55,0-.8l3.24-5.84c.13-.24.38-.4.66-.42.28-.02.54.1.71.33l4.41,5.93c.18.25.21.58.07.85-.14.27-.42.44-.72.44Zm-6.27-1.7l4.64.05-2.68-3.61-1.97,3.55Z"/>
          <path class="cls-2" d="m75.52,9.18c-.08,0-.17-.01-.25-.04l-3.33-1.08c-.43-.14-.66-.6-.52-1.02.14-.43.6-.66,1.02-.52l3.33,1.08c.43.14.66.6.52,1.02-.11.34-.43.56-.77.56Z"/>
          <path class="cls-2" d="m82.17,17.99s-.06,0-.09,0c-.45-.05-.77-.45-.72-.9l1.09-9.89c.05-.45.46-.76.9-.72.45.05.77.45.72.9l-1.09,9.89c-.05.42-.4.72-.81.72Z"/>
          <path class="cls-2" d="m86.25,9.78c-.16,0-.32-.05-.46-.14l-5.27-3.6c-.37-.25-.47-.76-.21-1.13.25-.37.76-.47,1.13-.21l5.27,3.6c.37.25.47.76.21,1.13-.16.23-.41.35-.67.35Z"/>
          <rect class="cls-2" x="77.86" y="16.37" width="4.3" height="1.62"/>
          <path class="cls-2" d="m73.55,12.24c-.45,0-.81-.36-.81-.81v-3.33c0-.45.36-.81.81-.81s.81.36.81.81v3.33c0,.45-.36.81-.81.81Z"/>
        </g>
      </g>
      <g>
        <path class="cls-3" d="m101.01,35.33c0,5.01-4.06,9.07-9.07,9.07s-9.07-4.06-9.07-9.07,4.06-9.07,9.07-9.07,9.07,4.06,9.07,9.07Z"/>
        <g>
          <path class="cls-2" d="m88.07,38.58c-1.67,0-3.04-1.36-3.04-3.04s1.36-3.04,3.04-3.04,3.04,1.36,3.04,3.04-1.36,3.04-3.04,3.04Zm0-4.45c-.78,0-1.41.63-1.41,1.41s.63,1.41,1.41,1.41,1.41-.63,1.41-1.41-.63-1.41-1.41-1.41Z"/>
          <path class="cls-2" d="m95.27,38.58c-1.67,0-3.04-1.36-3.04-3.04s1.36-3.04,3.04-3.04,3.04,1.36,3.04,3.04-1.36,3.04-3.04,3.04Zm0-4.45c-.78,0-1.41.63-1.41,1.41s.63,1.41,1.41,1.41,1.41-.63,1.41-1.41-.63-1.41-1.41-1.41Z"/>
          <rect class="cls-2" x="90.56" y="34.73" width="2.22" height="1.62"/>
        </g>
      </g>
    </g>
  </g>
</svg>