<?xml version="1.0" encoding="UTF-8"?>
<svg id="Layer_2" data-name="Layer 2" xmlns="http://www.w3.org/2000/svg" xmlns:xlink="http://www.w3.org/1999/xlink" viewBox="0 0 168.36 97.53">
  <defs>
    <style>
      .cls-1 {
        fill: #ffd3d2;
      }

      .cls-2 {
        fill: #fff;
      }

      .cls-3 {
        fill: #ff4f4f;
      }

      .cls-4 {
        fill: #f4efe9;
      }

      .cls-5 {
        fill: #4396ca;
      }

      .cls-6 {
        clip-path: url(#clippath-1);
      }

      .cls-7 {
        clip-path: url(#clippath);
      }

      .cls-8 {
        fill: #7c84ff;
      }

      .cls-9 {
        fill: none;
      }

      .cls-10 {
        fill: #fe9249;
      }

      .cls-11 {
        fill: #f47925;
      }

      .cls-12 {
        fill: #5a56f1;
      }

      .cls-13 {
        fill: #2cbfc6;
      }

      .cls-14 {
        fill: #2cc1c7;
      }

      .cls-15 {
        fill: #1c9e9c;
      }

      .cls-16 {
        fill: #2d80aa;
      }
    </style>
    <clipPath id="clippath">
      <path class="cls-9" d="m105.69,13.18c-.31-.76-1.05-1.26-1.87-1.26h-51.47l-4.13,10.11h61.09l-3.62-8.85Z"/>
    </clipPath>
    <clipPath id="clippath-1">
      <path class="cls-9" d="m2.6,97.24s-2.98-20.27,2.68-34.29c5.66-14.01,13.12-20.27,13.12-20.27,0,0-2.09-22.06,3.58-22.66,5.66-.6,5.66-1.19,5.66,8.94s3.28,32.5.3,32.5-8.35,8.05-8.94,17.89c-.6,9.84.89,17.89.89,17.89H2.6Z"/>
    </clipPath>
  </defs>
  <g id="Layer_1-2" data-name="Layer 1">
    <g>
      <path class="cls-10" d="m2.6,97.24s-2.98-20.27,2.68-34.29c5.66-14.01,13.12-20.27,13.12-20.27,0,0-2.09-22.06,3.58-22.66,5.66-.6,5.66-1.19,5.66,8.94s3.28,32.5.3,32.5-8.35,8.05-8.94,17.89c-.6,9.84.89,17.89.89,17.89H2.6Z"/>
      <path class="cls-1" d="m25.2,24.57c-.21,1.32-1.45,2.22-2.76,2.01-1.32-.21-2.22-1.45-2.01-2.76.21-1.32,1.45-2.22,2.76-2.01,1.32.21,2.22,1.45,2.01,2.76Z"/>
      <path class="cls-13" d="m129.95,73.15H30.72c-3.63,0-6.57-2.86-6.57-6.39V6.39c0-3.53,2.94-6.39,6.57-6.39h99.24c3.63,0,6.57,2.86,6.57,6.39v60.37c0,3.53-2.94,6.39-6.57,6.39Z"/>
      <path class="cls-3" d="m122.25,68.59H35.3c-3.28,0-5.94-2.5-5.94-5.59V10.15c0-3.09,2.66-5.59,5.94-5.59h86.95c3.28,0,5.94,2.5,5.94,5.59v52.85c0,3.09-2.66,5.59-5.94,5.59Z"/>
      <rect class="cls-1" x="53.39" y="20.46" width="50.76" height="35.55" rx="2.18" ry="2.18"/>
      <rect class="cls-14" x="63.85" y="30.92" width="29.84" height="14.52" rx="2.62" ry="2.62"/>
      <g>
        <path class="cls-2" d="m71.97,40.64v-4.72h2.4c.5,0,.86.13,1.09.38.23.25.34.54.34.86,0,.24-.07.45-.2.64-.13.19-.33.32-.59.39.61.15.92.51.92,1.1,0,.35-.11.66-.32.94-.22.28-.68.41-1.38.41h-2.25Zm1.34-2.91h.67c.17,0,.29-.04.36-.13.07-.09.1-.18.1-.27,0-.26-.16-.39-.48-.39h-.65v.8Zm0,1.86h.71c.18,0,.3-.04.39-.13.08-.09.12-.18.12-.29s-.04-.21-.12-.3c-.08-.09-.23-.14-.44-.14h-.66v.86Z"/>
        <path class="cls-2" d="m80.72,35.91v3.13c0,.59-.18,1.02-.53,1.28-.35.26-.81.39-1.38.39-.6,0-1.07-.12-1.43-.37-.36-.25-.54-.66-.54-1.22v-3.21h1.47v3.04c0,.23.05.39.14.5.1.1.25.16.46.16.17,0,.32-.04.43-.11.11-.07.18-.16.2-.25.02-.09.03-.28.03-.55v-2.77h1.14Z"/>
        <path class="cls-2" d="m85.77,35.91l-1.48,2.72v2h-1.41v-2l-1.59-2.72h1.59l.83,1.56.79-1.56h1.27Z"/>
      </g>
      <g>
        <path class="cls-10" d="m105.54,12.8c-.22-.53-.74-.88-1.32-.88h-50.74c-.69,0-1.31.42-1.57,1.05l-3.7,9.06h61.09l-3.77-9.23Z"/>
        <path class="cls-11" d="m50.18,25.3h-.04c-1.06,0-1.92-.86-1.92-1.92v-1.35h3.88v1.35c0,1.06-.86,1.92-1.92,1.92Z"/>
        <path class="cls-11" d="m58.26,25.3h-.04c-1.16,0-2.1-.86-2.1-1.92v-1.35h4.24v1.35c0,1.06-.94,1.92-2.1,1.92Z"/>
        <path class="cls-11" d="m66.38,25.3h-.04c-1.21,0-2.18-.86-2.18-1.92v-1.35h4.41v1.35c0,1.06-.98,1.92-2.19,1.92Z"/>
        <path class="cls-11" d="m74.62,25.3h-.04c-1.23,0-2.22-.86-2.22-1.92v-1.35h4.49v1.35c0,1.06-.99,1.92-2.22,1.92Z"/>
        <path class="cls-11" d="m82.89,25.3h-.04c-1.2,0-2.18-.86-2.18-1.92v-1.35h4.4v1.35c0,1.06-.97,1.92-2.18,1.92Z"/>
        <path class="cls-11" d="m91.02,25.3h-.04c-1.2,0-2.18-.86-2.18-1.92v-1.35h4.4v1.35c0,1.06-.97,1.92-2.18,1.92Z"/>
        <path class="cls-11" d="m99.25,25.3h-.04c-1.18,0-2.13-.86-2.13-1.92v-1.35h4.31v1.35c0,1.06-.95,1.92-2.13,1.92Z"/>
        <path class="cls-11" d="m107.35,25.3h-.04c-1.09,0-1.97-.86-1.97-1.92v-1.35h3.99v1.35c0,1.06-.88,1.92-1.97,1.92Z"/>
        <path class="cls-4" d="m54.13,25.3h-.04c-1.1,0-1.99-.86-1.99-1.92v-1.35h4.02v1.35c0,1.06-.89,1.92-1.99,1.92Z"/>
        <path class="cls-4" d="m62.27,25.3h-.04c-1.04,0-1.88-.86-1.88-1.92v-1.35h3.79v1.35c0,1.06-.84,1.92-1.88,1.92Z"/>
        <path class="cls-4" d="m70.49,25.3h-.04c-1.05,0-1.89-.86-1.89-1.92v-1.35h3.83v1.35c0,1.06-.85,1.92-1.89,1.92Z"/>
        <path class="cls-4" d="m78.78,25.3h-.04c-1.05,0-1.89-.86-1.89-1.92v-1.35h3.83v1.35c0,1.06-.85,1.92-1.89,1.92Z"/>
        <path class="cls-4" d="m86.94,25.3h-.04c-1.02,0-1.85-.86-1.85-1.92v-1.35h3.74v1.35c0,1.06-.83,1.92-1.85,1.92Z"/>
        <path class="cls-4" d="m95.17,25.3h-.04c-1.07,0-1.94-.86-1.94-1.92v-1.35h3.92v1.35c0,1.06-.87,1.92-1.94,1.92Z"/>
        <path class="cls-4" d="m103.39,25.3h-.04c-1.09,0-1.97-.86-1.97-1.92v-1.35h3.99v1.35c0,1.06-.88,1.92-1.97,1.92Z"/>
        <g class="cls-7">
          <rect class="cls-2" x="76.84" y="10.64" width="3.84" height="16.38"/>
          <polygon class="cls-2" points="71.84 26.49 68.03 25.94 70.25 9.78 73.85 10.17 71.84 26.49"/>
          <polygon class="cls-2" points="63.3 25.81 59.58 24.85 63.95 9 66.98 9.96 63.3 25.81"/>
          <polygon class="cls-2" points="85.63 26.49 89.43 25.94 86.77 9.71 83.53 10.24 85.63 26.49"/>
          <polygon class="cls-2" points="102.64 25.75 106.25 24.43 100.61 9.05 97.35 10.28 102.64 25.75"/>
          <polygon class="cls-2" points="54.85 25.75 51.24 24.43 56.87 9.05 60.14 10.28 54.85 25.75"/>
          <polygon class="cls-2" points="94.16 25.81 97.89 24.85 93.5 9.07 90.08 9.95 94.16 25.81"/>
        </g>
      </g>
      <g>
        <path class="cls-2" d="m83.56,62.32h-7.99c-.98,0-1.78-.8-1.78-1.78v-.03c0-.98.8-1.78,1.78-1.78h7.99c.26,0,.47.21.47.47s-.21.47-.47.47h-7.99c-.47,0-.85.38-.85.85v.03c0,.47.38.85.85.85h7.99c.26,0,.47.21.47.47s-.21.47-.47.47Z"/>
        <path class="cls-2" d="m74.76,59.66c-.15,0-.29-.1-.33-.25l-2.44-8.07h13.62l-1.54,8.04c-.04.19-.22.31-.41.28-.19-.04-.31-.22-.28-.41l1.38-7.2h-11.83l2.17,7.17c.06.18-.05.38-.23.44-.03.01-.07.02-.1.02Z"/>
        <path class="cls-2" d="m72.45,52.04c-.14,0-.28-.09-.33-.23l-.78-2.19h-1.76c-.19,0-.35-.16-.35-.35s.16-.35.35-.35h2.25l.94,2.65c.06.18-.03.38-.21.45-.04.01-.08.02-.12.02Z"/>
        <path class="cls-2" d="m69.58,49.85h-1.89c-.32,0-.58-.26-.58-.58s.26-.58.58-.58h1.89c.32,0,.58.26.58.58s-.26.58-.58.58Z"/>
        <circle class="cls-2" cx="75.36" cy="64.22" r="1.6"/>
        <path class="cls-2" d="m84.49,64.22c0,.88-.72,1.6-1.6,1.6s-1.6-.72-1.6-1.6.72-1.6,1.6-1.6,1.6.72,1.6,1.6Z"/>
        <circle class="cls-5" cx="75.36" cy="64.22" r=".75"/>
        <path class="cls-5" d="m83.71,64.22c0,.41-.33.75-.75.75s-.75-.33-.75-.75.33-.75.75-.75.75.33.75.75Z"/>
        <path class="cls-2" d="m76.36,59.47c-.17,0-.31-.12-.34-.29l-1.24-7.14c-.03-.19.09-.37.28-.4.19-.03.37.09.4.28l1.24,7.14c.03.19-.09.37-.28.4-.02,0-.04,0-.06,0Z"/>
        <path class="cls-2" d="m78.11,59.31c-.18,0-.34-.14-.35-.33l-.47-7.06c-.01-.19.13-.36.33-.37.19-.01.36.13.37.33l.47,7.06c.01.19-.13.36-.33.37,0,0-.02,0-.02,0Z"/>
        <path class="cls-2" d="m81.76,59.47s-.04,0-.05,0c-.19-.03-.32-.21-.29-.4l1.13-7.14c.03-.19.21-.32.4-.29.19.03.32.21.29.4l-1.13,7.14c-.03.17-.18.3-.34.3Z"/>
        <path class="cls-2" d="m79.9,59.31s-.01,0-.02,0c-.19,0-.34-.17-.33-.37l.35-7.06c0-.19.18-.34.37-.33.19,0,.34.17.33.37l-.35,7.06c0,.19-.16.33-.35.33Z"/>
        <path class="cls-2" d="m84.4,54.5h-11.18c-.19,0-.35-.16-.35-.35s.16-.35.35-.35h11.18c.19,0,.35.16.35.35s-.16.35-.35.35Z"/>
        <path class="cls-2" d="m84.01,56.98h-9.86c-.19,0-.35-.16-.35-.35s.16-.35.35-.35h9.86c.19,0,.35.16.35.35s-.16.35-.35.35Z"/>
      </g>
      <path class="cls-16" d="m133.44,43.09c0,.61-.55,1.1-1.23,1.1h0c-.68,0-1.23-.49-1.23-1.1v-12.81c0-.61.55-1.1,1.23-1.1h0c.68,0,1.23.49,1.23,1.1v12.81Z"/>
      <path class="cls-10" d="m143.02,97.24s-11.93-.3-16.1-5.37c-4.17-5.07,0-8.05,4.17-5.66,4.17,2.39,13.5,3.69,15.8-.15,2.68-4.47,2.56-9.54,2.39-15.8-.17-6.26-4.11-11.48-6.8-11.63-5.37-.3-16.61,1.19-16.31-2.09.32-3.56,8.33-3.67,10.77-3.24.9.16,1.79-.27,2.23-1.07.53-.96,3-1.84,5.34-1.5,2.08.3,2,.41,2.75.59.46.11.94-.06,1.22-.45.36-.49,2.16-1.26,4.38-.75,3.88.89,6.92.62,9.54,9.09,3.88,12.52,2.34,19.18-2.68,25.64-2.09,2.68,8.68-.15,8.65.45-.31,5.63-.3,12.22-.3,12.22l-25.04-.3Z"/>
      <rect class="cls-12" x="99" y="58.63" width="45.51" height="27.43" rx="2.03" ry="2.03"/>
      <rect class="cls-8" x="99" y="74.52" width="45.51" height="5.61"/>
      <path class="cls-1" d="m130.59,89.04c-.16,1.04-1.14,1.74-2.17,1.58-1.04-.16-1.74-1.14-1.58-2.17.16-1.04,1.14-1.74,2.17-1.58,1.04.16,1.74,1.14,1.58,2.17Z"/>
      <path class="cls-1" d="m130.88,55.64c-.16,1.04-1.14,1.74-2.17,1.58-1.04-.16-1.74-1.14-1.58-2.17.16-1.04,1.14-1.74,2.17-1.58,1.04.16,1.74,1.14,1.58,2.17Z"/>
      <g class="cls-6">
        <polygon class="cls-15" points="-.98 65.78 23.76 74.73 25.85 101.86 -8.73 99.17 -.98 65.78"/>
      </g>
      <rect class="cls-13" x="8.43" y="59.95" width="5.62" height="21.79" transform="translate(-59.78 60.77) rotate(-72.91)"/>
    </g>
  </g>
</svg>