<?xml version="1.0" encoding="UTF-8"?>
<svg id="Layer_2" data-name="Layer 2" xmlns="http://www.w3.org/2000/svg" xmlns:xlink="http://www.w3.org/1999/xlink" viewBox="0 0 147.23 113.73">
  <defs>
    <style>
      .cls-1 {
        fill: #ffd3d2;
      }

      .cls-2 {
        fill: #fff;
      }

      .cls-3 {
        fill: #ff4f4f;
      }

      .cls-4 {
        fill: #4396ca;
      }

      .cls-5 {
        fill: #6d54ed;
      }

      .cls-6 {
        fill: #3287b2;
      }

      .cls-7 {
        clip-path: url(#clippath-2);
      }

      .cls-8 {
        clip-path: url(#clippath-1);
      }

      .cls-9 {
        opacity: .19;
      }

      .cls-10 {
        fill: #6855ef;
      }

      .cls-11 {
        clip-path: url(#clippath);
      }

      .cls-12 {
        fill: #7c84ff;
      }

      .cls-13 {
        fill: none;
      }

      .cls-14 {
        fill: #fe9249;
      }

      .cls-15 {
        fill: #2cbfc6;
      }
    </style>
    <clipPath id="clippath">
      <path class="cls-13" d="m111.73,84.98H32.78c-2.98,0-5.4-2.27-5.4-5.08V31.91c0-2.8,2.42-5.08,5.4-5.08h78.95c2.98,0,5.4,2.27,5.4,5.08v47.99c0,2.8-2.42,5.08-5.4,5.08Z"/>
    </clipPath>
    <clipPath id="clippath-1">
      <path class="cls-14" d="m14.71,90.33c-1.74-3.67-3.87-24.75-.97-27.46,2.9-2.71,6.77-3.67,7.73-3.87.97-.19-.97-12.96,3.09-13.73,2.28-.43,4.83.39,4.64,7.73-.26,9.7-1.55,36.93-1.55,36.93l-12.96.39Z"/>
    </clipPath>
    <clipPath id="clippath-2">
      <path class="cls-14" d="m85.18,83.66c-1.15-2.22.52-4.21,3.66-9.03.78-1.19.15-3.72-1.4-6.98-3.25-6.83-5.46-11.77-1.55-14.12,3.88-2.33,4.65,4.19,6.52,9.15,1.86,4.96,2.33,8.07,3.57,8.07.44,0,.82-.58,3.12-.72,2-.12,1.81.8,3.12.87,1.35.07,2.59-.79,4.28-.51.59.1,1.48.76,2.47,1.09.87.29,2.83-.44,4.13.8,3.36,3.18.57,22.52.57,22.52l-13.86,4.96s-6.21-3.86-8.68-5.66c-1.6-1.16-4.06-6.82-5.95-10.44Z"/>
    </clipPath>
  </defs>
  <g id="Layer_1-2" data-name="Layer 1">
    <g>
      <g>
        <circle class="cls-12" cx="10.22" cy="71.15" r="10.22"/>
        <path class="cls-2" d="m9.31,74.78c-.18,0-.36-.06-.51-.18l-3.72-2.98c-.35-.28-.41-.79-.13-1.14.28-.35.79-.41,1.14-.13l3.24,2.59,6.01-4.3c.37-.26.87-.18,1.13.19.26.36.18.87-.19,1.13l-6.51,4.65c-.14.1-.31.15-.47.15Z"/>
      </g>
      <g>
        <rect class="cls-12" x="23.52" y="22.7" width="99.2" height="66.42" rx="5.8" ry="5.8"/>
        <path class="cls-1" d="m111.73,84.98H32.78c-2.98,0-5.4-2.27-5.4-5.08V31.91c0-2.8,2.42-5.08,5.4-5.08h78.95c2.98,0,5.4,2.27,5.4,5.08v47.99c0,2.8-2.42,5.08-5.4,5.08Z"/>
        <path class="cls-6" d="m119.98,50.51c.64,0,1.16.52,1.16,1.16v8.48c0,.64-.52,1.16-1.16,1.16h0c-.64,0-1.16-.52-1.16-1.16v-8.48c0-.64.52-1.16,1.16-1.16h0Z"/>
        <g class="cls-11">
          <polygon class="cls-2" points="46.61 37.25 19.61 37.25 19.61 36.85 46.2 36.85 46.2 22.16 46.61 22.16 46.61 37.25"/>
          <polygon class="cls-2" points="122.33 41.72 122.33 41.31 122.33 41.72 23.08 41.72 23.08 41.31 122.33 41.31 122.33 41.72"/>
          <polygon class="cls-2" points="75.14 87.67 74.73 87.67 74.73 68.85 122.08 68.85 122.08 69.26 75.14 69.26 75.14 87.67"/>
          <polygon class="cls-2" points="44.87 89.65 44.46 89.65 44.46 53.88 16.63 53.88 16.63 53.47 44.87 53.47 44.87 89.65"/>
          <polygon class="cls-2" points="94.99 32.54 84.16 32.54 84.16 23.4 84.57 23.4 84.57 32.13 94.58 32.13 94.58 24.64 94.99 24.64 94.99 32.54"/>
        </g>
      </g>
      <path class="cls-3" d="m55.23,45.49h34.05c2,0,3.63,1.63,3.63,3.63v12.84c0,2-1.63,3.63-3.63,3.63h-34.05c-2,0-3.63-1.63-3.63-3.63v-12.84c0-2,1.63-3.63,3.63-3.63Z"/>
      <g>
        <circle class="cls-3" cx="18.33" cy="15.56" r="7.62" transform="translate(-1.03 29.81) rotate(-76.67)"/>
        <polygon class="cls-2" points="18.33 10.2 19.95 13.48 23.58 14.01 20.95 16.56 21.57 20.17 18.33 18.47 15.09 20.17 15.71 16.56 13.09 14.01 16.71 13.48 18.33 10.2"/>
      </g>
      <g>
        <circle class="cls-12" cx="127.54" cy="15.56" r="7.62" transform="translate(3.69 49.76) rotate(-22.39)"/>
        <path class="cls-2" d="m130.89,12.8c-1.14-.61-2.64.16-3.33,1.22-.7-1.06-2.27-1.83-3.41-1.22-1.21.65-1.49,1.91-.84,3.11.65,1.21,4.25,4.15,4.26,4.11,0,.04,3.61-2.91,4.26-4.11.65-1.21.28-2.47-.92-3.11Z"/>
      </g>
      <circle class="cls-10" cx="73.12" cy="9.97" r="9.97"/>
      <g>
        <circle class="cls-15" cx="127.54" cy="96.66" r="7.62" transform="translate(-27.2 55.87) rotate(-22.39)"/>
        <g>
          <rect class="cls-2" x="126.67" y="92.44" width="1.74" height="8.44"/>
          <rect class="cls-2" x="123.32" y="95.79" width="8.44" height="1.74"/>
        </g>
      </g>
      <g>
        <path class="cls-14" d="m14.71,90.33c-1.74-3.67-3.87-24.75-.97-27.46,2.9-2.71,6.77-3.67,7.73-3.87.97-.19-.97-12.96,3.09-13.73,2.28-.43,4.83.39,4.64,7.73-.26,9.7-1.55,36.93-1.55,36.93l-12.96.39Z"/>
        <g class="cls-8">
          <rect class="cls-1" x="21.66" y="48.89" width=".41" height="15.01" transform="translate(-1.57 .63) rotate(-1.6)"/>
        </g>
      </g>
      <path class="cls-1" d="m27.57,48.76c0,1.12-.91,2.03-2.03,2.03s-2.03-.91-2.03-2.03.91-2.03,2.03-2.03,2.03.91,2.03,2.03Z"/>
      <path class="cls-5" d="m14.42,89.75h13.25v22.62c0,.75-.61,1.35-1.35,1.35h-10.54c-.75,0-1.35-.61-1.35-1.35v-22.62Z"/>
      <path class="cls-5" d="m99.63,89.75l14.03,5.04,2.4,17.58c0,.75-.61,1.35-1.35,1.35h-13.73c-.75,0-1.35-.61-1.35-1.35v-22.62Z"/>
      <g>
        <g>
          <path class="cls-14" d="m85.18,83.66c-1.15-2.22.52-4.21,3.66-9.03.78-1.19.15-3.72-1.4-6.98-3.25-6.83-5.46-11.77-1.55-14.12,3.88-2.33,4.65,4.19,6.52,9.15,1.86,4.96,2.33,8.07,3.57,8.07.44,0,.82-.58,3.12-.72,2-.12,1.81.8,3.12.87,1.35.07,2.59-.79,4.28-.51.59.1,1.48.76,2.47,1.09.87.29,2.83-.44,4.13.8,3.36,3.18.57,22.52.57,22.52l-13.86,4.96s-6.21-3.86-8.68-5.66c-1.6-1.16-4.06-6.82-5.95-10.44Z"/>
          <g class="cls-7">
            <rect class="cls-1" x="90.44" y="71.32" width=".41" height="15.01" transform="translate(-17.25 26.02) rotate(-14.93)"/>
          </g>
        </g>
        <path class="cls-1" d="m89.58,57.46c0,1.12-.91,2.03-2.03,2.03s-2.03-.91-2.03-2.03.91-2.03,2.03-2.03,2.03.91,2.03,2.03Z"/>
      </g>
      <path class="cls-15" d="m14.03,87.82h13.63v6.19h-13.63c-.91,0-1.64-.74-1.64-1.64v-2.9c0-.91.74-1.64,1.64-1.64Z"/>
      <rect class="cls-15" x="97.14" y="97.49" width="18.75" height="6.19" rx="1.64" ry="1.64" transform="translate(-27.75 41.96) rotate(-19.77)"/>
      <g>
        <path class="cls-2" d="m63.16,58.94v-6.54h3.32c.69,0,1.19.17,1.51.52.32.35.47.75.47,1.19,0,.33-.09.62-.28.88-.18.26-.46.45-.82.54.85.2,1.27.71,1.27,1.52,0,.49-.15.92-.45,1.3s-.94.57-1.91.57h-3.11Zm1.85-4.03h.93c.23,0,.4-.06.49-.18s.14-.25.14-.38c0-.36-.22-.55-.67-.55h-.9v1.1Zm0,2.58h.98c.24,0,.42-.06.53-.18.11-.12.17-.25.17-.41s-.06-.29-.17-.41c-.11-.13-.31-.19-.61-.19h-.91v1.19Z"/>
        <path class="cls-2" d="m75.26,52.4v4.33c0,.82-.24,1.41-.73,1.77-.49.36-1.12.54-1.9.54-.82,0-1.49-.17-1.99-.52-.5-.34-.75-.91-.75-1.69v-4.44h2.04v4.2c0,.31.07.54.2.69.13.14.34.21.63.21.24,0,.44-.05.59-.16.15-.1.25-.22.28-.35.03-.13.05-.39.05-.77v-3.83h1.58Z"/>
        <path class="cls-2" d="m82.25,52.4l-2.05,3.77v2.77h-1.95v-2.77l-2.2-3.77h2.2l1.15,2.16,1.1-2.16h1.76Z"/>
      </g>
      <g class="cls-9">
        <path class="cls-2" d="m105.21,60.62c0,1.37-1.11,2.48-2.48,2.48h0c-1.37,0-2.48-1.11-2.48-2.48v-28.29c0-1.37,1.11-2.48,2.48-2.48h0c1.37,0,2.48,1.11,2.48,2.48v28.29Z"/>
      </g>
      <g class="cls-9">
        <path class="cls-2" d="m112.9,42.51c0,1.37-1.11,2.48-2.48,2.48h0c-1.37,0-2.48-1.11-2.48-2.48v-10.17c0-1.37,1.11-2.48,2.48-2.48h0c1.37,0,2.48,1.11,2.48,2.48v10.17Z"/>
      </g>
      <path class="cls-2" d="m78.67,14.41h-10.86c-.45,0-.81-.36-.81-.81v-6.94c0-.45.36-.81.81-.81h10.86c.45,0,.81.36.81.81v6.94c0,.45-.36.81-.81.81Zm-10.04-1.62h9.23v-5.32h-9.23v5.32Z"/>
      <path class="cls-2" d="m74.92,9.95c0,.85-.69,1.54-1.54,1.54s-1.54-.69-1.54-1.54.69-1.54,1.54-1.54,1.54.69,1.54,1.54Z"/>
      <path class="cls-2" d="m76.17,7.26c-.56,0-1.02-.45-1.02-1.02v-.83c0-.56.45-1.02,1.02-1.02s1.02.45,1.02,1.02v.83c0,.56-.45,1.02-1.02,1.02Z"/>
      <g>
        <path class="cls-12" d="m54.19,10.47c0,5.1-4.13,9.23-9.23,9.23s-9.23-4.13-9.23-9.23S39.86,1.24,44.96,1.24s9.23,4.13,9.23,9.23Z"/>
        <path class="cls-2" d="m41.13,14.72c-.21,0-.42-.08-.58-.24-.31-.32-.31-.84.01-1.15l7.54-7.35c.32-.31.84-.31,1.15.01.31.32.31.84-.01,1.15l-7.54,7.35c-.16.15-.36.23-.57.23Z"/>
        <path class="cls-2" d="m44.02,7.4c0,.98-.79,1.77-1.77,1.77s-1.77-.79-1.77-1.77.79-1.77,1.77-1.77,1.77.79,1.77,1.77Z"/>
        <path class="cls-2" d="m49.69,12.89c0,.98-.79,1.77-1.77,1.77s-1.77-.79-1.77-1.77.79-1.77,1.77-1.77,1.77.79,1.77,1.77Z"/>
        <circle class="cls-4" cx="47.92" cy="12.89" r=".74"/>
        <path class="cls-4" d="m42.98,7.4c0,.41-.33.74-.74.74s-.74-.33-.74-.74.33-.74.74-.74.74.33.74.74Z"/>
      </g>
      <g>
        <path class="cls-15" d="m110.76,10.47c0,5.1-4.13,9.23-9.23,9.23s-9.23-4.13-9.23-9.23,4.13-9.23,9.23-9.23,9.23,4.13,9.23,9.23Z"/>
        <g>
          <path class="cls-2" d="m108.28,11.05s-2.55,3.76-6.97,3.52c-4.06-.22-6.24-3.52-6.24-3.52,0,0,1.82-4.12,6.24-4.24,5.15-.14,6.97,4.24,6.97,4.24Z"/>
          <path class="cls-15" d="m104.58,10.75c0,1.54-1.25,2.79-2.79,2.79s-2.79-1.25-2.79-2.79,1.25-2.79,2.79-2.79,2.79,1.25,2.79,2.79Z"/>
        </g>
      </g>
      <g>
        <path class="cls-3" d="m147.23,71.15c0,5.65-4.58,10.22-10.22,10.22s-10.22-4.58-10.22-10.22,4.58-10.22,10.22-10.22,10.22,4.58,10.22,10.22Z"/>
        <path class="cls-2" d="m136.74,72.18c0-.64.03-.78-.62-1-1.24-.45-2.17-1.31-2.17-2.67s.9-2.49,2.37-2.76c.24-.05.38-.1.39-.43.01-.28.43-.25.65-.25.25,0,.23.11.23.3,0,.34.44.29.82.35.2.04,1.51.26,1.51.55,0,.1-.5,1.57-.68,1.57-.3,0-.61-.51-1.33-.51-.31,0-.26.43-.26.63v1.09c0,.59.04.78.64,1,1.47.51,2.42,1.47,2.42,3.01,0,1.78-1.16,2.99-2.62,2.99-.28,0-.39.2-.39.5s-.2.25-.46.25c-.24,0-.43.06-.44-.21-.01-.41-.21-.54-.64-.54-.7,0-2.02-.61-2.02-.85,0-.29.43-1.98.65-1.98.48,0,.79.74,1.62.74.38,0,.34-.35.34-.6v-1.17Zm0-4.24c0-.36.06-.61-.25-.61-.56,0-.84.55-.84,1.07,0,.58.63,1.08.87,1.08.19,0,.23-.46.23-.83v-.7Zm.9,5.52c0,.29,0,.49.36.49.6,0,1-.45,1-.99,0-.49-.72-1.13-1.12-1.13-.28,0-.25.24-.25.49v1.14Z"/>
      </g>
      <g>
        <path class="cls-14" d="m147.23,41.73c0,5.65-4.58,10.22-10.22,10.22s-10.22-4.58-10.22-10.22,4.58-10.22,10.22-10.22,10.22,4.58,10.22,10.22Z"/>
        <path class="cls-2" d="m141.98,37.18c.5.17.83,1.2.46,2.86-.37,1.66-.92,5.45-.92,5.45h-1.38s.65-4.06-.65-4.43c-1.29-.37-2.12,4.43-5.08,4.43s-4.8.09-4.89-.74c-.09-.83,3.97-1.57,5.63-3.69,2.45-3.14,6-4.15,6.83-3.88Z"/>
      </g>
      <g>
        <circle class="cls-10" cx="10.22" cy="41.73" r="10.22" transform="translate(-32.45 46.79) rotate(-83)"/>
        <g>
          <path class="cls-2" d="m15.64,46.05H4.53c-.45,0-.81-.36-.81-.81v-7.1c0-.45.36-.81.81-.81h11.1c.45,0,.81.36.81.81v7.1c0,.45-.36.81-.81.81Zm-10.29-1.62h9.48v-5.47H5.35v5.47Z"/>
          <path class="cls-2" d="m10.24,43.23c-.17,0-.34-.05-.49-.16l-5.71-4.28.97-1.3,5.21,3.91,4.9-3.89,1.01,1.27-5.39,4.28c-.15.12-.33.18-.51.18Z"/>
        </g>
      </g>
      <g>
        <circle class="cls-10" cx="73.12" cy="101.28" r="9.97" transform="translate(-44.6 143.08) rotate(-73.72)"/>
        <path class="cls-2" d="m73.12,108.42c-3.94,0-7.14-3.2-7.14-7.14s3.2-7.14,7.14-7.14,7.14,3.2,7.14,7.14-3.2,7.14-7.14,7.14Zm0-12.65c-3.04,0-5.51,2.47-5.51,5.51s2.47,5.52,5.51,5.52,5.51-2.47,5.51-5.52-2.47-5.51-5.51-5.51Z"/>
        <path class="cls-2" d="m73.12,102.09c-.13,0-.25-.03-.37-.09l-2.4-1.21c-.4-.2-.56-.69-.36-1.09.2-.4.69-.56,1.09-.36l2.02,1.02,2.99-1.65c.39-.22.89-.07,1.1.32.22.39.07.89-.32,1.1l-3.37,1.86c-.12.07-.26.1-.39.1Z"/>
      </g>
      <g>
        <path class="cls-14" d="m54.19,101.28c0,5.1-4.13,9.23-9.23,9.23s-9.23-4.13-9.23-9.23,4.13-9.23,9.23-9.23,9.23,4.13,9.23,9.23Z"/>
        <g>
          <path class="cls-2" d="m46.98,107.29c-.21,0-.42-.08-.57-.24l-1.9-1.9-1.74,1.74c-.22.22-.54.29-.84.19-.29-.1-.5-.36-.54-.66l-1.16-8.89c-.06-.45.26-.85.7-.91.45-.06.85.26.91.7l.95,7.25,1.15-1.15c.32-.32.83-.32,1.15,0l1.9,1.9.89-.89c.32-.32.83-.32,1.15,0,.32.32.32.83,0,1.15l-1.47,1.47c-.16.16-.37.24-.57.24Z"/>
          <path class="cls-2" d="m48.68,105.59c-.21,0-.42-.08-.57-.24-.32-.32-.32-.83,0-1.15l.89-.89-1.9-1.9c-.15-.15-.24-.36-.24-.57s.09-.42.24-.57l1.15-1.15-7.25-.95c-.44-.06-.76-.47-.7-.91.06-.44.47-.76.91-.7l8.89,1.16c.31.04.56.25.66.54.1.29.02.62-.19.84l-1.74,1.74,1.9,1.9c.15.15.24.36.24.57s-.09.42-.24.57l-1.47,1.47c-.16.16-.37.24-.57.24Z"/>
        </g>
      </g>
    </g>
  </g>
</svg>