<?xml version="1.0" encoding="UTF-8"?>
<svg id="Layer_2" data-name="Layer 2" xmlns="http://www.w3.org/2000/svg" xmlns:xlink="http://www.w3.org/1999/xlink" viewBox="0 0 124.26 127.72">
  <defs>
    <style>
      .cls-1 {
        fill: #3dd8d8;
      }

      .cls-2 {
        fill: #ffd3d2;
      }

      .cls-3 {
        fill: #fff;
      }

      .cls-4 {
        fill: #ff4f4f;
      }

      .cls-5 {
        fill: #3287b2;
      }

      .cls-6 {
        fill: #5f56f1;
      }

      .cls-7 {
        fill: #6855ef;
      }

      .cls-8 {
        clip-path: url(#clippath);
      }

      .cls-9 {
        fill: #7c84ff;
      }

      .cls-10 {
        fill: none;
      }

      .cls-11 {
        fill: #fe9249;
      }

      .cls-12 {
        fill: #2cc1c7;
      }

      .cls-13 {
        fill: #7676ff;
      }

      .cls-14 {
        fill: #f2be79;
      }
    </style>
    <clipPath id="clippath">
      <path class="cls-10" d="m110.51,73.81c.18,1.3-.7,2.5-1.96,2.68l-12.21,1.77c-1.26.18-2.42-.72-2.59-2.02l-4.13-17.95c-.18-1.3.7-2.5,1.96-2.68l15.04-2.41c1.26-.18,3.51,1.47,3.68,2.77l.21,17.84Z"/>
    </clipPath>
  </defs>
  <g id="Layer_1-2" data-name="Layer 1">
    <g>
      <path class="cls-9" d="m92.64,127.72h-57.77c-2.89,0-5.24-2.51-5.24-5.61V5.61c0-3.1,2.35-5.61,5.24-5.61h57.77c2.89,0,5.24,2.51,5.24,5.61v116.5c0,3.1-2.35,5.61-5.24,5.61Z"/>
      <path class="cls-2" d="m88.38,117.1h-49.26c-2.47,0-4.47-2.21-4.47-4.95V9.5c0-2.73,2-4.95,4.47-4.95h49.26c2.47,0,4.47,2.21,4.47,4.95v102.66c0,2.73-2,4.95-4.47,4.95Z"/>
      <path class="cls-5" d="m73.66,122.2c0,1.17-.95,2.12-2.12,2.12h-15.58c-1.17,0-2.12-.95-2.12-2.12h0c0-1.17.95-2.12,2.12-2.12h15.58c1.17,0,2.12.95,2.12,2.12h0Z"/>
      <g>
        <path class="cls-11" d="m96.76,89.67h16.55l-.44,35.36h-3.16s-2.39-17.79-3.3-27.62h-2.19l-.66,27.62h-3.16s-3.73-27.74-3.63-33.08c-.08-.4-.01-2.28-.01-2.28Z"/>
        <path class="cls-14" d="m113.37,124.98h-3.58v2.74h7.25c.48,0,.64-1.08.22-1.31l-3.9-1.44Z"/>
        <path class="cls-14" d="m103.9,124.98h-3.58v2.74h7.25c.48,0,.64-1.08.22-1.31l-3.9-1.44Z"/>
        <path class="cls-4" d="m112.72,78.13h-15.45s-3.41,1.6-3.82,6.79c-.74,9.46,5.19,26.1,5.19,26.1h14.58s4.84-19.86,3.77-26.1c-.86-5.01-4.27-6.79-4.27-6.79Z"/>
        <path class="cls-12" d="m96.1,40.09c-1.49-1.31-14.2-1.03-17.01,7.29s.87,9.98,5.05,11.59c5.61,2.15,13.27-7.01,13.27-12.05s-1.31-6.82-1.31-6.82Z"/>
        <path class="cls-11" d="m113.57,61.86c.37.75,4.72,5.02,4.87,3.81.16-1.28-.52-4.22-1.28-7.86-.28-1.32-2.09-3.53-.87-4.51,1.63-1.31,2.87-3.05,3.24-2.12.37.93-1.81,1.68-1.43,2.43s4.3-4.67,5.23-2.24c.93,2.43-3.65,3.98-3.12,5.47,1.12,3.21,2.9,11.75,1.44,13.31-2.25,2.41-11.38-4.56-11.38-4.56l3.3-3.74Z"/>
        <path class="cls-13" d="m101.36,57.31l8.23,10.73,6.12-5.43-6.37-7.73c-.45-.58-1.72-1.59-2.32-1.16l-5.67,3.58Z"/>
        <path class="cls-6" d="m112.16,78.68l-14.38-.47c-1.26.18-2.42-.7-2.59-1.96l-5.57-17.31c-.18-1.26,1.62-3.19,2.86-3.43,3.53-.68,10.63-2.18,14.57-2.16,1.27,0,3.06,2.08,3.24,3.33l3.82,19.39c.18,1.26-.7,2.42-1.96,2.59Z"/>
        <g class="cls-8">
          <path class="cls-11" d="m102.98,52.54c-.32,2.18-2.29,3.68-4.4,3.35-2.11-.33-3.56-2.37-3.24-4.55.32-2.18,2.29-3.68,4.4-3.35,2.11.33,3.56,2.37,3.24,4.55Z"/>
        </g>
        <rect class="cls-11" x="96.61" y="47.4" width="4.66" height="7.28" transform="translate(-7.99 20.07) rotate(-11.13)"/>
        <path class="cls-11" d="m103.24,46.11c-.47,3.11-3.38,5.24-6.49,4.77s-5.24-3.38-4.77-6.49c.47-3.11,3.38-5.24,6.49-4.77,3.11.47,5.24,3.38,4.77,6.49Z"/>
        <path class="cls-11" d="m93.72,47.96c-.13.83-.9,1.39-1.72,1.27-.83-.13-1.39-.9-1.27-1.72s.9-1.39,1.72-1.27c.82.13,1.39.9,1.27,1.72Z"/>
        <rect class="cls-7" x="116.25" y="49.47" width="8.11" height="3.66" rx=".69" ry=".69" transform="translate(-3.58 93.22) rotate(-41.79)"/>
        <path class="cls-11" d="m87.65,62.29c-.79,1.06-2.89,11.87-1.92,14.76.58,1.75,4.2,7.21,5.77,9.14,2.43,2.99,6.93,7.62,7.68,5.94,1.09-2.45-2.62-3.55-2.52-4.02.36-1.81,2.23.85,3.08.09.84-.75-.75-1.78-4.2-2.8-2.08-.62-3.9-5.19-5.8-9-.8-1.6,3.53-13.31,3.53-13.31l-5.61-.8Z"/>
        <path class="cls-13" d="m95.3,58.47c1.33,3.44-4.45,12.54-4.45,12.54l-6.58-3.7s2.85-7.81,6.31-10.89c1.4-1.24,4.12.51,4.72,2.04Z"/>
        <path class="cls-1" d="m91.89,44.94s2.06-3.83,2.52-3.64c.47.19,2.15,3.08,5.79,3.18,3.64.09,5.05-1.96,5.05-1.96,0,0-5-5.02-8.88-4.77-5.61.37-4.48,7.19-4.48,7.19Z"/>
      </g>
      <g>
        <path class="cls-6" d="m11.42,63.82c0-2.54,4.6-13.12,4.6-13.12,0,0,4.6,10.58,4.6,13.12s-2.06,4.6-4.6,4.6-4.6-2.06-4.6-4.6Z"/>
        <path class="cls-2" d="m16.25,117.63c-.1,0-.19-.08-.19-.19v-54.77c0-.1.08-.19.19-.19s.19.08.19.19v54.77c0,.1-.08.19-.19.19Z"/>
        <path class="cls-6" d="m6.03,103.08c-1.8-1.8-6.03-12.53-6.03-12.53,0,0,10.74,4.23,12.53,6.03,1.8,1.8,1.8,4.71,0,6.51-1.8,1.8-4.71,1.8-6.51,0Z"/>
        <path class="cls-6" d="m6.03,82.68c-1.8-1.8-6.03-12.53-6.03-12.53,0,0,10.74,4.23,12.53,6.03,1.8,1.8,1.8,4.71,0,6.51-1.8,1.8-4.71,1.8-6.51,0Z"/>
        <path class="cls-6" d="m27.37,103.08c1.8-1.8,6.03-12.53,6.03-12.53,0,0-10.74,4.23-12.53,6.03-1.8,1.8-1.8,4.71,0,6.51,1.8,1.8,4.71,1.8,6.51,0Z"/>
        <path class="cls-6" d="m27.37,82.68c1.8-1.8,6.03-12.53,6.03-12.53,0,0-10.74,4.23-12.53,6.03-1.8,1.8-1.8,4.71,0,6.51,1.8,1.8,4.71,1.8,6.51,0Z"/>
        <path class="cls-4" d="m8.77,110.35h15.41c.84,0,1.49.75,1.36,1.59l-2.23,14.32c-.1.67-.68,1.16-1.36,1.16h-10.95c-.68,0-1.26-.49-1.36-1.16l-2.23-14.32c-.13-.83.52-1.59,1.36-1.59Z"/>
        <path class="cls-2" d="m16.02,88l-8.56-9.91c-.07-.08-.06-.2.02-.26.08-.07.2-.06.26.02l8.29,9.6,9.17-9.17c.07-.07.19-.07.26,0,.07.07.07.19,0,.26l-9.46,9.46Z"/>
        <path class="cls-2" d="m16.02,107.28l-8.33-8.55c-.07-.07-.07-.19,0-.26.07-.07.19-.07.26,0l8.08,8.3,9.4-8.31c.08-.07.19-.06.26.02.07.08.06.2-.02.26l-9.67,8.54Z"/>
      </g>
      <g>
        <rect class="cls-12" x="45.47" y="82.88" width="36.56" height="17.79" rx="3.21" ry="3.21"/>
        <g>
          <path class="cls-3" d="m55.42,94.79v-5.79h2.94c.61,0,1.06.15,1.34.46.28.31.42.66.42,1.06,0,.29-.08.55-.24.78-.16.23-.4.39-.73.48.75.18,1.12.63,1.12,1.35,0,.43-.13.81-.4,1.15-.26.34-.83.51-1.69.51h-2.76Zm1.64-3.57h.82c.21,0,.35-.05.44-.16.09-.1.13-.22.13-.33,0-.32-.2-.48-.59-.48h-.79v.98Zm0,2.28h.86c.21,0,.37-.05.47-.16.1-.11.15-.23.15-.36s-.05-.26-.15-.37c-.1-.11-.28-.17-.54-.17h-.81v1.05Z"/>
          <path class="cls-3" d="m66.13,89v3.83c0,.73-.22,1.25-.65,1.57-.43.32-.99.48-1.69.48-.73,0-1.32-.15-1.76-.46-.44-.31-.66-.8-.66-1.49v-3.93h1.81v3.72c0,.28.06.48.18.61.12.13.3.19.56.19.21,0,.39-.05.53-.14s.22-.2.25-.31c.03-.12.04-.34.04-.68v-3.39h1.4Z"/>
          <path class="cls-3" d="m72.32,89l-1.81,3.34v2.45h-1.73v-2.45l-1.95-3.34h1.94l1.01,1.91.97-1.91h1.55Z"/>
        </g>
      </g>
      <g>
        <path class="cls-4" d="m70.92,65.98c0,3.96-3.21,7.17-7.17,7.17s-7.17-3.21-7.17-7.17,3.21-7.17,7.17-7.17,7.17,3.21,7.17,7.17Z"/>
        <path class="cls-3" d="m63.56,66.7c0-.45.02-.55-.43-.7-.87-.32-1.52-.92-1.52-1.87s.63-1.74,1.66-1.94c.17-.04.26-.07.27-.3,0-.19.3-.18.46-.18.18,0,.16.08.16.21,0,.24.31.2.57.25.14.03,1.06.18,1.06.39,0,.07-.35,1.1-.48,1.1-.21,0-.43-.36-.93-.36-.22,0-.18.3-.18.44v.77c0,.41.03.55.45.7,1.03.36,1.7,1.03,1.7,2.11,0,1.25-.81,2.09-1.84,2.09-.19,0-.27.14-.27.35s-.14.18-.33.18c-.17,0-.3.04-.31-.15,0-.29-.15-.38-.45-.38-.49,0-1.42-.43-1.42-.6,0-.2.3-1.39.46-1.39.33,0,.55.52,1.14.52.26,0,.24-.25.24-.42v-.82Zm0-2.97c0-.26.04-.43-.18-.43-.4,0-.59.39-.59.75,0,.4.44.76.61.76.13,0,.16-.33.16-.58v-.49Zm.63,3.87c0,.2,0,.34.26.34.42,0,.7-.32.7-.7,0-.34-.5-.79-.78-.79-.19,0-.18.17-.18.34v.8Z"/>
      </g>
      <g>
        <circle class="cls-7" cx="63.75" cy="46.56" r="7.17"/>
        <path class="cls-3" d="m63.56,47.28c0-.45.02-.55-.43-.7-.87-.32-1.52-.92-1.52-1.87s.63-1.74,1.66-1.94c.17-.03.26-.07.27-.3,0-.19.3-.18.46-.18.18,0,.16.08.16.21,0,.24.31.2.57.25.14.03,1.06.18,1.06.39,0,.07-.35,1.1-.48,1.1-.21,0-.43-.36-.93-.36-.22,0-.18.3-.18.44v.77c0,.41.03.55.45.7,1.03.36,1.7,1.03,1.7,2.11,0,1.25-.81,2.09-1.84,2.09-.19,0-.27.14-.27.35s-.14.18-.33.18c-.17,0-.3.04-.31-.15,0-.29-.15-.38-.45-.38-.49,0-1.42-.43-1.42-.6,0-.2.3-1.39.46-1.39.33,0,.55.52,1.14.52.26,0,.24-.25.24-.42v-.82Zm0-2.97c0-.26.04-.43-.18-.43-.4,0-.59.39-.59.75,0,.4.44.76.61.76.13,0,.16-.33.16-.58v-.49Zm.63,3.87c0,.2,0,.34.26.34.42,0,.7-.32.7-.7,0-.34-.5-.79-.78-.79-.19,0-.18.17-.18.34v.8Z"/>
      </g>
      <g>
        <circle class="cls-12" cx="63.75" cy="27.13" r="7.17"/>
        <path class="cls-3" d="m63.56,27.86c0-.45.02-.55-.43-.7-.87-.32-1.52-.92-1.52-1.87s.63-1.74,1.66-1.94c.17-.03.26-.07.27-.3,0-.19.3-.18.46-.18.18,0,.16.08.16.21,0,.24.31.2.57.25.14.03,1.06.18,1.06.39,0,.07-.35,1.1-.48,1.1-.21,0-.43-.36-.93-.36-.22,0-.18.3-.18.44v.77c0,.41.03.55.45.7,1.03.36,1.7,1.03,1.7,2.11,0,1.25-.81,2.09-1.84,2.09-.19,0-.27.14-.27.35s-.14.18-.33.18c-.17,0-.3.04-.31-.15,0-.29-.15-.38-.45-.38-.49,0-1.42-.43-1.42-.6,0-.2.3-1.39.46-1.39.33,0,.55.52,1.14.52.26,0,.24-.25.24-.42v-.82Zm0-2.97c0-.26.04-.43-.18-.43-.4,0-.59.39-.59.75,0,.4.44.76.61.76.13,0,.16-.33.16-.58v-.49Zm.63,3.87c0,.2,0,.34.26.34.42,0,.7-.32.7-.7,0-.34-.5-.79-.78-.79-.19,0-.18.17-.18.34v.8Z"/>
      </g>
    </g>
  </g>
</svg>