<?xml version="1.0" encoding="UTF-8"?>
<svg id="Layer_2" data-name="Layer 2" xmlns="http://www.w3.org/2000/svg" xmlns:xlink="http://www.w3.org/1999/xlink" viewBox="0 0 119.33 141.17">
  <defs>
    <style>
      .cls-1 {
        fill: #ffd3d2;
      }

      .cls-2 {
        fill: #fff;
      }

      .cls-3 {
        fill: #ff4f4f;
      }

      .cls-4 {
        fill: #f7682f;
      }

      .cls-5 {
        fill: #6855ef;
      }

      .cls-6 {
        clip-path: url(#clippath);
      }

      .cls-7 {
        fill: #6455f0;
      }

      .cls-8 {
        fill: #7c84ff;
      }

      .cls-9 {
        fill: #fe9249;
      }

      .cls-10 {
        fill: #2cbfc6;
      }

      .cls-11 {
        fill: #fe854e;
      }

      .cls-12 {
        fill: #5555f3;
      }
    </style>
    <clipPath id="clippath">
      <circle class="cls-7" cx="58.97" cy="102.65" r="31.86" transform="translate(-55.32 71.76) rotate(-45)"/>
    </clipPath>
  </defs>
  <g id="Layer_1-2" data-name="Layer 1">
    <g>
      <path class="cls-4" d="m119.33,141.17H0L6.18,57.94c.24-3.25,2.95-5.76,6.2-5.76h91.1c5.25,0,9.61,4.05,9.99,9.28l5.86,79.71Z"/>
      <path class="cls-11" d="m114.05,141.17H5.28l2.4-82.95c.1-3.36,2.85-6.04,6.22-6.04h87.84c5.42,0,9.86,4.31,10.01,9.73l2.3,79.26Z"/>
      <path class="cls-11" d="m76.44,58.55h-35.46v-15.07c0-9.64,7.84-17.49,17.49-17.49s17.47,7.83,17.49,17.46l.49,15.1Zm-31.92-3.54h28.27l-.37-11.53c0-7.69-6.26-13.95-13.95-13.95s-13.95,6.26-13.95,13.95v11.53Z"/>
      <g>
        <circle class="cls-7" cx="58.97" cy="102.65" r="31.86" transform="translate(-55.32 71.76) rotate(-45)"/>
        <g class="cls-6">
          <g>
            <path class="cls-2" d="m28.01,95.22c-1.15,1.29-2.63,8.17,0,9.01,2.63.84,4.75,1.82,5.31,4.08.56,2.25,2.55,9.97,4.05,12.31,1.5,2.35,5.43,3.26,6.5-.34.7-2.34.56-5.07,1.41-6.48.84-1.41-2.16-4.97.38-5.73,2.53-.75,5.44-2.06,3.85-4.13-1.6-2.06-3.66-1.22-4.41-3.75-.75-2.53-1.31-4.51-.66-4.51s.47,5.07,3.28,5.54,4.21.42,5.44-2.06c.27-.54-3.57-3.38-3-3.94.56-.56,1.78,1.22,4.04,1.41,2.25.19,4.41,1.03,4.6,2.63.19,1.6,2.16,5.48,3.19,5.35,2.68-.33-.66-3.85.84-5.07s2.16-1.97,3.94-.75c1.78,1.22,1.88,3.19,1.78,4.51-.09,1.31,1.02,4.48,2.05,5.52s2.92,3.02,4.61,2.18c1.69-.84-.19-1.3-1.6-2.24-1.41-.95-2.82-4.89-1.78-5.45,1.03-.56,3-.75,1.78-2.44-1.22-1.69-1.03-2.25-.09-2.72.94-.47,3.19-1.53,3-3.02-.19-1.49-2.06-3.36-1.13-4.11.94-.75,2.35,1.31,3.38,0,1.03-1.31.56-4.79,0-7.13-.56-2.35-5.16-2.25-4.51-3.85s.09-2.44-2.25-3.47c-2.35-1.03-4.97-1.13-7.23,0-2.25,1.13-3,.28-4.97.84-1.97.56-2.16,1.5-3.1,1.97-.94.47-2.25.84-4.22.56-1.97-.28-3.1-2.72-5.44-.66-2.35,2.06-1.13,6.1-5.16,5.54-4.04-.56-7.41-.38-7.6,1.5-.19,1.88.94,3.57-1.13,4.51-2.06.94-3.57,2.63-5.16,4.41Z"/>
            <path class="cls-2" d="m46.97,115.68c.61-1.25,1.97-3.29,2.44-2.53.47.75,1.6,4.79,0,5.44-1.6.66-2.97-1.82-2.44-2.91Z"/>
            <path class="cls-2" d="m73.58,118.43c1.27-1.25,2.44-1.13,3.85-2.82,1.41-1.69,2.06-3.28,3.38-2.72,1.31.56,2.72,1.78,4.13.94,1.41-.84,3.35.24,2.88,3.53-.47,3.28-1.9,6.2-3.22,7.89-1.31,1.69-4.64,2.56-5.3,1.06s-.47-3.1-1.31-3.75c-.84-.66-3.57,1.13-4.41.75-.84-.38-1.3-3.6,0-4.88Z"/>
            <path class="cls-2" d="m74.38,106.39c.22-.33,1.41-2.72,2.63-1.97,1.22.75,1.22,3.85,0,4.32-1.22.47-3.39-1.22-2.63-2.35Z"/>
            <path class="cls-2" d="m83.39,108.81c1.06-.08,3.92.39,4.35,2.27.43,1.88-.13,1.69-.79,1.22-.66-.47-5.01-3.38-3.57-3.49Z"/>
          </g>
        </g>
      </g>
      <g>
        <path class="cls-1" d="m53.73,7.8c0,3.35-2.72,6.07-6.07,6.07s-6.07-2.72-6.07-6.07,2.72-6.07,6.07-6.07,6.07,2.72,6.07,6.07Z"/>
        <path class="cls-2" d="m47.12,10.26c-.17,0-.35-.06-.49-.17l-2.21-1.77c-.34-.27-.39-.77-.12-1.11.27-.34.77-.39,1.11-.12l1.75,1.4,3.39-2.42c.35-.25.84-.17,1.1.18.25.35.17.84-.18,1.1l-3.87,2.76c-.14.1-.3.15-.46.15Z"/>
      </g>
      <g>
        <circle class="cls-10" cx="31.35" cy="41.8" r="7.18"/>
        <polygon class="cls-2" points="31.35 36.75 32.87 39.85 36.29 40.34 33.82 42.75 34.4 46.15 31.35 44.55 28.29 46.15 28.88 42.75 26.4 40.34 29.82 39.85 31.35 36.75"/>
      </g>
      <g>
        <circle class="cls-3" cx="58.76" cy="40.95" r="8.79" transform="translate(10.95 94.28) rotate(-83)"/>
        <path class="cls-2" d="m62.62,37.76c-1.32-.71-3.04.18-3.85,1.41-.81-1.23-2.62-2.11-3.94-1.41-1.39.75-1.72,2.2-.97,3.59.75,1.39,4.9,4.79,4.91,4.74,0,.04,4.16-3.35,4.91-4.74.75-1.39.33-2.84-1.06-3.59Z"/>
      </g>
      <g>
        <circle class="cls-12" cx="75.51" cy="25.45" r="6.37"/>
        <g>
          <rect class="cls-2" x="74.79" y="21.92" width="1.45" height="7.05"/>
          <rect class="cls-2" x="71.99" y="24.72" width="7.05" height="1.45"/>
        </g>
      </g>
      <g>
        <path class="cls-3" d="m62.23,3.56c0,1.68-1.36,3.04-3.04,3.04s-3.04-1.36-3.04-3.04,1.36-3.04,3.04-3.04,3.04,1.36,3.04,3.04Z"/>
        <g>
          <rect class="cls-2" x="58.84" y="1.87" width=".69" height="3.36"/>
          <rect class="cls-2" x="57.51" y="3.21" width="3.37" height=".69"/>
        </g>
      </g>
      <g>
        <path class="cls-8" d="m96.19,24.9c0,2.9-2.35,5.26-5.26,5.26s-5.26-2.35-5.26-5.26,2.35-5.26,5.26-5.26,5.26,2.35,5.26,5.26Z"/>
        <path class="cls-2" d="m93.86,27.6h-5.72c-.43,0-.79-.35-.79-.79v-3.66c0-.43.35-.79.79-.79h5.72c.43,0,.79.35.79.79v3.66c0,.43-.35.79-.79.79Zm-4.94-1.57h4.15v-2.09h-4.15v2.09Z"/>
        <path class="cls-2" d="m91.88,24.89c0,.45-.36.81-.81.81s-.81-.36-.81-.81.36-.81.81-.81.81.36.81.81Z"/>
        <path class="cls-2" d="m92.54,23.92c-.54,0-.98-.44-.98-.98v-.44c0-.54.44-.98.98-.98s.98.44.98.98v.44c0,.54-.44.98-.98.98Z"/>
      </g>
      <g>
        <circle class="cls-10" cx="60.76" cy="16.42" r="7.65" transform="translate(6.18 47.77) rotate(-45)"/>
        <g>
          <path class="cls-2" d="m66.35,16.9s-2.11,3.11-5.78,2.91c-3.37-.18-5.17-2.91-5.17-2.91,0,0,1.51-3.42,5.17-3.52,4.27-.12,5.78,3.52,5.78,3.52Z"/>
          <path class="cls-10" d="m63.29,16.65c0,1.28-1.03,2.31-2.31,2.31s-2.31-1.03-2.31-2.31,1.03-2.31,2.31-2.31,2.31,1.03,2.31,2.31Z"/>
        </g>
      </g>
      <g>
        <path class="cls-9" d="m74.55,4.84c0,2.67-2.17,4.84-4.84,4.84s-4.84-2.17-4.84-4.84,2.17-4.84,4.84-4.84,4.84,2.17,4.84,4.84Z"/>
        <path class="cls-2" d="m72.06,2.68c.23.08.39.57.22,1.35-.17.79-.44,2.58-.44,2.58h-.66s.31-1.92-.31-2.1c-.61-.17-1,2.1-2.4,2.1s-2.27.04-2.32-.35c-.04-.39,1.88-.74,2.66-1.75,1.16-1.48,2.84-1.97,3.23-1.83Z"/>
      </g>
      <g>
        <circle class="cls-5" cx="37.24" cy="22.59" r="10.56" transform="translate(-5.06 32.95) rotate(-45)"/>
        <g>
          <path class="cls-2" d="m42.84,26.99h-11.47c-.43,0-.79-.35-.79-.79v-7.33c0-.43.35-.79.79-.79h11.47c.43,0,.79.35.79.79v7.33c0,.43-.35.79-.79.79Zm-10.68-1.57h9.9v-5.76h-9.9v5.76Z"/>
          <path class="cls-2" d="m37.27,24.08c-.17,0-.33-.05-.47-.16l-5.9-4.43.94-1.26,5.41,4.06,5.1-4.05.98,1.23-5.57,4.43c-.14.11-.32.17-.49.17Z"/>
        </g>
      </g>
      <g>
        <path class="cls-3" d="m90.15,11.81c.06,3.91-3.05,7.13-6.96,7.19-3.91.06-7.13-3.05-7.19-6.96-.06-3.91,3.05-7.13,6.96-7.19,3.91-.06,7.13,3.05,7.19,6.96Z"/>
        <path class="cls-2" d="m83.07,17.2c-2.86,0-5.23-2.33-5.27-5.19-.02-1.41.51-2.74,1.49-3.76.98-1.01,2.3-1.58,3.71-1.6h.09c2.86,0,5.23,2.33,5.27,5.19.02,1.41-.51,2.74-1.49,3.76-.98,1.01-2.3,1.58-3.71,1.6h-.09Zm0-8.98h-.06c-.99.02-1.91.42-2.6,1.13-.69.71-1.06,1.65-1.04,2.64.03,2.01,1.69,3.64,3.7,3.64h.06c.99-.02,1.91-.42,2.6-1.13.69-.71,1.06-1.65,1.04-2.64-.03-2.01-1.69-3.64-3.7-3.64Z"/>
        <path class="cls-2" d="m83.08,12.71c-.12,0-.23-.03-.34-.08l-1.72-.83c-.39-.19-.55-.66-.36-1.05.19-.39.66-.55,1.05-.37l1.34.65,2.01-1.15c.38-.22.86-.09,1.07.29.22.38.09.86-.29,1.07l-2.37,1.36c-.12.07-.26.1-.39.1Z"/>
      </g>
      <path class="cls-9" d="m53.28,23.11c0,1.11-.9,2.01-2.01,2.01s-2.01-.9-2.01-2.01.9-2.02,2.01-2.02,2.01.9,2.01,2.02Z"/>
      <path class="cls-3" d="m39.71,8.39c0,.82-.66,1.48-1.48,1.48s-1.48-.66-1.48-1.48.66-1.48,1.48-1.48,1.48.66,1.48,1.48Z"/>
      <path class="cls-3" d="m28.05,32.25c0,1.02-.83,1.85-1.85,1.85s-1.85-.83-1.85-1.85.83-1.85,1.85-1.85,1.85.83,1.85,1.85Z"/>
      <circle class="cls-1" cx="72.05" cy="15.32" r="2.04"/>
      <g>
        <path class="cls-9" d="m94.96,40.91c0,4.88-3.96,8.84-8.84,8.84s-8.84-3.96-8.84-8.84,3.96-8.84,8.84-8.84,8.84,3.96,8.84,8.84Z"/>
        <g>
          <path class="cls-2" d="m82.22,46.16c-1.93,0-3.5-1.57-3.5-3.5s1.57-3.5,3.5-3.5,3.5,1.57,3.5,3.5-1.57,3.5-3.5,3.5Zm0-5.43c-1.06,0-1.93.86-1.93,1.93s.86,1.93,1.93,1.93,1.93-.86,1.93-1.93-.86-1.93-1.93-1.93Z"/>
          <path class="cls-2" d="m89.74,46.31c-1.93,0-3.5-1.57-3.5-3.5s1.57-3.5,3.5-3.5,3.5,1.57,3.5,3.5-1.57,3.5-3.5,3.5Zm0-5.43c-1.06,0-1.93.86-1.93,1.93s.86,1.93,1.93,1.93,1.93-.86,1.93-1.93-.86-1.93-1.93-1.93Z"/>
          <path class="cls-2" d="m87.11,43.35h0l-4.66-.06c-.28,0-.53-.15-.67-.39-.14-.24-.14-.53,0-.78l1.98-3.57c.13-.23.37-.39.64-.4.27-.02.53.1.68.32l2.69,3.62c.18.24.21.56.07.83-.13.26-.41.43-.7.43Zm-3.34-1.61l1.76.02-1.01-1.37-.75,1.35Z"/>
          <path class="cls-2" d="m85.69,37.97c-.08,0-.16-.01-.24-.04l-2.03-.66c-.41-.13-.64-.58-.51-.99.13-.41.58-.64.99-.51l2.03.66c.41.13.64.58.51.99-.11.33-.42.54-.75.54Z"/>
          <path class="cls-2" d="m89.74,43.35s-.06,0-.09,0c-.43-.05-.74-.44-.7-.87l.67-6.04c.05-.43.43-.74.87-.7.43.05.74.44.7.87l-.67,6.04c-.04.4-.39.7-.78.7Z"/>
          <path class="cls-2" d="m92.23,38.34c-.15,0-.31-.04-.44-.14l-3.22-2.19c-.36-.24-.45-.73-.21-1.09.24-.36.73-.45,1.09-.21l3.22,2.19c.36.24.45.73.21,1.09-.15.22-.4.34-.65.34Z"/>
          <rect class="cls-2" x="87.11" y="41.77" width="2.63" height="1.57"/>
          <path class="cls-2" d="m84.48,39.84c-.43,0-.79-.35-.79-.79v-2.03c0-.43.35-.79.79-.79s.79.35.79.79v2.03c0,.43-.35.79-.79.79Z"/>
        </g>
      </g>
    </g>
  </g>
</svg>