<?xml version="1.0" encoding="UTF-8"?>
<svg id="Layer_2" data-name="Layer 2" xmlns="http://www.w3.org/2000/svg" xmlns:xlink="http://www.w3.org/1999/xlink" viewBox="0 0 142.94 111.69">
  <defs>
    <style>
      .cls-1 {
        fill: #ffd3d2;
      }

      .cls-2 {
        fill: #fff;
      }

      .cls-3 {
        fill: #ff4f4f;
      }

      .cls-4 {
        clip-path: url(#clippath-2);
      }

      .cls-5 {
        clip-path: url(#clippath-1);
      }

      .cls-6 {
        fill: #fe924a;
      }

      .cls-7 {
        fill: #5756f2;
      }

      .cls-8 {
        fill: #6855ef;
      }

      .cls-9 {
        clip-path: url(#clippath);
      }

      .cls-10 {
        fill: #7c84ff;
      }

      .cls-11 {
        fill: none;
      }

      .cls-12 {
        clip-path: url(#clippath-3);
      }

      .cls-13 {
        fill: #2cc1c7;
      }

      .cls-14 {
        fill: #4035d8;
      }

      .cls-15 {
        fill: #5555f3;
      }
    </style>
    <clipPath id="clippath">
      <rect class="cls-11" y="18.35" width="27.41" height="58.92" rx="1.82" ry="1.82"/>
    </clipPath>
    <clipPath id="clippath-1">
      <rect class="cls-14" x="115.53" y="18.35" width="27.41" height="58.92" rx="1.82" ry="1.82"/>
    </clipPath>
    <clipPath id="clippath-2">
      <rect class="cls-8" x="62.55" y="36.91" width="16.3" height="22.34" rx="2.21" ry="2.21"/>
    </clipPath>
    <clipPath id="clippath-3">
      <circle class="cls-6" cx="71.02" cy="29.73" r="5.34"/>
    </clipPath>
  </defs>
  <g id="Layer_1-2" data-name="Layer 1">
    <g>
      <path class="cls-10" d="m93.11,97.34h-44.03c-2.21,0-3.99-1.92-3.99-4.28V4.28c0-2.36,1.79-4.28,3.99-4.28h44.03c2.21,0,3.99,1.92,3.99,4.28v88.79c0,2.36-1.79,4.28-3.99,4.28Z"/>
      <path class="cls-1" d="m89.87,89.25h-37.55c-1.88,0-3.41-1.69-3.41-3.77V7.24c0-2.08,1.52-3.77,3.41-3.77h37.55c1.88,0,3.41,1.69,3.41,3.77v78.24c0,2.08-1.52,3.77-3.41,3.77Z"/>
      <path class="cls-15" d="m78.65,93.14c0,.89-.72,1.62-1.62,1.62h-11.87c-.89,0-1.62-.72-1.62-1.62h0c0-.89.72-1.62,1.62-1.62h11.87c.89,0,1.62.72,1.62,1.62h0Z"/>
      <rect class="cls-2" x="57.39" y="18.35" width="27.41" height="58.92" rx="1.82" ry="1.82"/>
      <rect class="cls-13" y="18.99" width="27.41" height="58.92" rx="1.82" ry="1.82"/>
      <polygon class="cls-3" points="41.51 53.05 31.69 43.71 41.51 34.36 41.51 53.05"/>
      <polygon class="cls-3" points="100.54 53.05 110.36 43.71 100.54 34.36 100.54 53.05"/>
      <polygon class="cls-1" points="66.86 37.69 56.15 37.69 56.15 37.28 66.45 37.28 66.45 17.34 66.86 17.34 66.86 37.69"/>
      <rect class="cls-1" x="75.37" y="16.62" width=".41" height="65.62"/>
      <path class="cls-2" d="m74.69,20.4h-7.17c-.39,0-.7-.32-.7-.71v-4.27c0-.39.32-.71.7-.71h7.17c.39,0,.7.32.7.71v4.27c0,.39-.32.71-.7.71Z"/>
      <path class="cls-2" d="m73.64,16.78c0,.2-.12.37-.27.37h-4.53c-.15,0-.27-.17-.27-.37h0c0-.2.12-.37.27-.37h4.53c.15,0,.27.17.27.37h0Z"/>
      <path class="cls-1" d="m71.78,16.75c0,.4-.33.73-.73.73s-.73-.33-.73-.73.33-.73.73-.73.73.33.73.73Z"/>
      <path class="cls-13" d="m16.72,20.4h-7.17c-.39,0-.7-.32-.7-.71v-4.27c0-.39.32-.71.7-.71h7.17c.39,0,.7.32.7.71v4.27c0,.39-.32.71-.7.71Z"/>
      <path class="cls-13" d="m15.67,16.78c0,.2-.12.37-.27.37h-4.53c-.15,0-.27-.17-.27-.37h0c0-.2.12-.37.27-.37h4.53c.15,0,.27.17.27.37h0Z"/>
      <path class="cls-13" d="m13.81,16.75c0,.4-.33.73-.73.73s-.73-.33-.73-.73.33-.73.73-.73.73.33.73.73Z"/>
      <g class="cls-9">
        <rect class="cls-2" x="-2.4" y="24.04" width="36.98" height=".41"/>
        <rect class="cls-2" x="-2.4" y="60.88" width="36.98" height=".41"/>
        <rect class="cls-2" x="-2.4" y="68.36" width="36.98" height=".41"/>
      </g>
      <rect class="cls-7" x="115.53" y="18.35" width="27.41" height="58.92" rx="1.82" ry="1.82"/>
      <path class="cls-7" d="m132.24,20.4h-7.17c-.39,0-.7-.32-.7-.71v-4.27c0-.39.32-.71.7-.71h7.17c.39,0,.7.32.7.71v4.27c0,.39-.32.71-.7.71Z"/>
      <path class="cls-7" d="m131.19,16.78c0,.2-.12.37-.27.37h-4.53c-.15,0-.27-.17-.27-.37h0c0-.2.12-.37.27-.37h4.53c.15,0,.27.17.27.37h0Z"/>
      <path class="cls-7" d="m129.34,16.75c0,.4-.33.73-.73.73s-.73-.33-.73-.73.33-.73.73-.73.73.33.73.73Z"/>
      <path class="cls-3" d="m90.54,18.35c0,3.02-2.45,5.47-5.47,5.47s-5.47-2.45-5.47-5.47,2.45-5.47,5.47-5.47,5.47,2.45,5.47,5.47Z"/>
      <polygon class="cls-2" points="85.07 14.36 86.23 16.72 88.84 17.1 86.95 18.93 87.4 21.52 85.07 20.3 82.74 21.52 83.19 18.93 81.31 17.1 83.91 16.72 85.07 14.36"/>
      <rect class="cls-8" x="62.55" y="36.91" width="16.3" height="28.84" rx="2.21" ry="2.21"/>
      <g>
        <rect class="cls-14" x="115.53" y="18.35" width="27.41" height="58.92" rx="1.82" ry="1.82"/>
        <g class="cls-5">
          <polygon class="cls-2" points="133.68 83.1 133.27 83.1 133.27 24.45 125.19 24.45 125.19 81.08 124.78 81.08 124.78 24.04 133.68 24.04 133.68 83.1"/>
        </g>
      </g>
      <path class="cls-13" d="m62.18,63.54h16.66l1.48,24.47-1.37,20.61h-3.29l-1.34-21.61s-1.81-9.8-2.09-13.6h-2.28l-.79,14.44-12,16.17-2.51-2.71,8.85-15.46s-1.35-16.48-1.3-19.39c-.09-.51-.01-2.91-.01-2.91Z"/>
      <g>
        <rect class="cls-8" x="62.55" y="36.91" width="16.3" height="22.34" rx="2.21" ry="2.21"/>
        <g class="cls-4">
          <path class="cls-6" d="m75.18,36.64c0,2.35-1.91,4.26-4.26,4.26s-4.26-1.91-4.26-4.26,1.91-4.26,4.26-4.26,4.26,1.91,4.26,4.26Z"/>
        </g>
      </g>
      <path class="cls-6" d="m56.91,42.84s-6.64,6.06-6.75,7.25c-.11,1.19,12.25,12.5,12.28,13.05.11,1.73-2.81-.32-2.91.65-.04.39,1.92,2.31,2.81,2.27,1.63-.07,2.76-2.63,2.48-3.89-.43-1.94-8.2-10.56-8.4-11.58-.25-1.25,4.75-4.75,4.75-4.75l-4.25-3Z"/>
      <path class="cls-8" d="m68.02,42.79l-11.12,6.78-3.69-6.05,10.49-6.32c.61-.36,1.56-.16,1.94.43l2.38,5.16Z"/>
      <path class="cls-6" d="m85,43.06c.29,0,4.1,3.45,5.61,4.75,1.07.91-.02,1.64.77.78.53-.58,6.4-2.1,8.08-4.34.81-1.08,1.53-2.49,1.62-2.7.29-.65,1.8-3.74,2.3-3.24s-.79,2.37-.72,2.88c.07.5,1.08,1.26,1.01,1.76-.22,1.4-2.05,2.16-2.37,2.7-2.09,3.49-9.07,7.63-10.63,7.69-2.16.07-9.44-7.79-9.44-7.79l3.78-2.48Z"/>
      <path class="cls-8" d="m73.64,42.79l11.12,6.78,3.69-6.05-10.49-6.32c-.61-.36-1.55-.16-1.94.43l-2.38,5.16Z"/>
      <rect class="cls-6" x="69.03" y="33.56" width="3.67" height="4.96"/>
      <g>
        <circle class="cls-6" cx="71.02" cy="29.73" r="5.34"/>
        <g class="cls-12">
          <path class="cls-3" d="m75.07,28.01c0,2.95-2.39,5.34-5.34,5.34s-5.34-2.39-5.34-5.34,2.39-5.34,5.34-5.34,5.34,2.39,5.34,5.34Z"/>
        </g>
      </g>
      <path class="cls-6" d="m75.07,30.16c0-.75.6-1.35,1.35-1.35s1.35.6,1.35,1.35-.6,1.35-1.35,1.35-1.35-.6-1.35-1.35Z"/>
      <path class="cls-3" d="m70.16,25.69c-.54-.97-1.71-5.37-7.12-5.88-5.13-.49-9.34,2.37-9.01,7.12.32,4.75,1.29,5.67,1.67,9.39.17,1.72-.59,4.37-.59,4.37,0,0,5.61-2.59,6.04-7.45.43-4.86.81-7.23,3.78-8.36,2.4-.91,5.23.81,5.23.81Z"/>
      <path class="cls-13" d="m69.94,24.63c0,.49-.4.89-.89.89s-.89-.4-.89-.89.4-.89.89-.89.89.4.89.89Z"/>
      <path class="cls-14" d="m79.01,108.55h-3.35v3.14h7.79c.45,0,.6-1.23.21-1.5l-4.65-1.65Z"/>
      <path class="cls-14" d="m57.16,104l-2.51-2.71-2.56,3.08,6.87,4.79c.34.36,1.12-.44.97-.95l-2.76-4.21Z"/>
    </g>
  </g>
</svg>