<?xml version="1.0" encoding="UTF-8"?>
<svg id="Layer_2" data-name="Layer 2" xmlns="http://www.w3.org/2000/svg" viewBox="0 0 146.28 116.32">
  <defs>
    <style>
      .cls-1 {
        fill: #ffb6b6;
      }

      .cls-2 {
        fill: #5c55f0;
      }

      .cls-3 {
        fill: #ffd3d2;
      }

      .cls-4 {
        fill: #fff;
      }

      .cls-5 {
        fill: #ff4f4f;
      }

      .cls-6 {
        fill: #3287b2;
      }

      .cls-7 {
        opacity: .19;
      }

      .cls-8 {
        fill: #6855ef;
      }

      .cls-9 {
        fill: #7c84ff;
      }

      .cls-10 {
        fill: #fe9249;
      }

      .cls-11 {
        fill: #2cbfc6;
      }

      .cls-12 {
        fill: #2cc1c7;
      }

      .cls-13 {
        fill: #ff9149;
      }
    </style>
  </defs>
  <g id="Layer_1-2" data-name="Layer 1">
    <g>
      <g>
        <path class="cls-3" d="m79.41,42.44c0,2.8-2.27,5.08-5.08,5.08s-5.08-2.27-5.08-5.08,2.27-5.08,5.08-5.08,5.08,2.27,5.08,5.08Z"/>
        <path class="cls-4" d="m73.87,44.65c-.18,0-.36-.06-.51-.18l-1.85-1.48c-.35-.28-.41-.79-.13-1.14.28-.35.79-.41,1.14-.13l1.37,1.1,2.74-1.95c.36-.26.87-.18,1.13.19.26.36.18.87-.19,1.13l-3.24,2.31c-.14.1-.31.15-.47.15Z"/>
      </g>
      <g>
        <path class="cls-5" d="m77.55,5.32c0,2.94-2.38,5.32-5.32,5.32s-5.32-2.38-5.32-5.32,2.38-5.32,5.32-5.32,5.32,2.38,5.32,5.32Z"/>
        <polygon class="cls-4" points="72.23 1.57 73.37 3.87 75.89 4.23 74.06 6.02 74.5 8.54 72.23 7.35 69.97 8.54 70.4 6.02 68.57 4.23 71.1 3.87 72.23 1.57"/>
      </g>
      <g>
        <path class="cls-9" d="m97.3,55.4c0,3.89-3.15,7.04-7.04,7.04s-7.04-3.15-7.04-7.04,3.15-7.04,7.04-7.04,7.04,3.15,7.04,7.04Z"/>
        <path class="cls-4" d="m93.35,52.85c-1.06-.57-2.44.14-3.08,1.13-.65-.98-2.1-1.69-3.16-1.13-1.12.6-1.38,1.76-.78,2.88.6,1.12,3.93,3.83,3.94,3.8,0,.03,3.34-2.69,3.94-3.8.6-1.12.26-2.28-.85-2.88Z"/>
      </g>
      <g>
        <path class="cls-12" d="m36.85,50.51c1.52,2.06,1.09,4.96-.97,6.49-2.06,1.52-4.96,1.09-6.49-.97-1.52-2.06-1.09-4.96.97-6.49,2.06-1.52,4.96-1.09,6.49.97Z"/>
        <g>
          <rect class="cls-4" x="32.6" y="50.7" width="1.06" height="5.14" transform="translate(-25.2 30.18) rotate(-36.53)"/>
          <rect class="cls-4" x="30.56" y="52.74" width="5.14" height="1.06" transform="translate(-25.2 30.18) rotate(-36.52)"/>
        </g>
      </g>
      <g>
        <path class="cls-9" d="m27.11,104.35H10.1c-2.12,0-3.84-1.79-3.84-4v-37.83c0-2.21,1.72-4,3.84-4h17c2.12,0,3.84,1.79,3.84,4v37.83c0,2.21-1.72,4-3.84,4Z"/>
        <path class="cls-2" d="m24.85,100.74h-12.59c-2.2,0-3.98-1.56-3.98-3.49v-32.99c0-1.93,1.78-3.49,3.98-3.49h12.59c2.2,0,3.98,1.56,3.98,3.49v32.99c0,1.93-1.78,3.49-3.98,3.49Z"/>
        <path class="cls-6" d="m22.6,102.38c0,.42-.34.77-.77.77h-5.61c-.42,0-.76-.34-.76-.77h0c0-.42.34-.76.76-.76h5.61c.42,0,.77.34.77.76h0Z"/>
        <rect class="cls-5" x="10.63" y="76.68" width="15.69" height="7.63" rx="1.38" ry="1.38"/>
        <g>
          <path class="cls-10" d="m1.94,107.87c-1.15-2.43-2.72-16.11-1.5-18.43.5-.94,4.56-9.61,5.69-9.61.68,0-.4,10.51.68,10.29.64-.13,5.28-4.47,7.99-6.5,2.28-1.71,4.74,1.35,2.98,3.11-2.03,2.03-6.67,8.53-6.77,9.61-.54,6.23-.49,11.27-.49,11.27l-8.57.26Z"/>
          <path class="cls-5" d="m17.08,85.64c0,.74-.6,1.34-1.34,1.34s-1.34-.6-1.34-1.34.6-1.34,1.34-1.34,1.34.6,1.34,1.34Z"/>
          <path class="cls-3" d="m1.75,107.48h8.76v7.94c0,.49-.4.9-.9.9H2.64c-.49,0-.9-.4-.9-.9v-7.94Z"/>
          <path class="cls-1" d="m1.49,106.2h9.02v4.09H1.49c-.6,0-1.09-.49-1.09-1.09v-1.92c0-.6.49-1.09,1.09-1.09Z"/>
        </g>
        <g>
          <path class="cls-4" d="m15.02,81.79v-2.48h1.26c.26,0,.45.07.57.2.12.13.18.28.18.45,0,.12-.03.24-.1.34-.07.1-.17.17-.31.21.32.08.48.27.48.58,0,.18-.06.35-.17.49-.11.14-.36.22-.73.22h-1.18Zm.7-1.53h.35c.09,0,.15-.02.19-.07.04-.04.05-.09.05-.14,0-.14-.08-.21-.25-.21h-.34v.42Zm0,.98h.37c.09,0,.16-.02.2-.07.04-.05.06-.1.06-.15s-.02-.11-.06-.16c-.04-.05-.12-.07-.23-.07h-.35v.45Z"/>
          <path class="cls-4" d="m19.62,79.31v1.65c0,.31-.09.54-.28.67-.19.14-.43.2-.72.2-.31,0-.56-.07-.75-.2-.19-.13-.28-.34-.28-.64v-1.69h.78v1.6c0,.12.02.21.08.26.05.05.13.08.24.08.09,0,.17-.02.23-.06.06-.04.09-.08.11-.13.01-.05.02-.15.02-.29v-1.45h.6Z"/>
          <path class="cls-4" d="m22.27,79.31l-.78,1.43v1.05h-.74v-1.05l-.84-1.43h.83l.44.82.42-.82h.67Z"/>
        </g>
        <g class="cls-7">
          <path class="cls-4" d="m23.21,77.27c0,.64-.52,1.16-1.16,1.16h0c-.64,0-1.16-.52-1.16-1.16v-13.27c0-.64.52-1.16,1.16-1.16h0c.64,0,1.16.52,1.16,1.16v13.27Z"/>
        </g>
        <g class="cls-7">
          <path class="cls-4" d="m26.82,68.78c0,.64-.52,1.16-1.16,1.16h0c-.64,0-1.16-.52-1.16-1.16v-4.77c0-.64.52-1.16,1.16-1.16h0c.64,0,1.16.52,1.16,1.16v4.77Z"/>
        </g>
      </g>
      <g>
        <circle class="cls-8" cx="16.48" cy="46.24" r="9.97"/>
        <path class="cls-4" d="m22.04,50.68h-10.86c-.45,0-.81-.36-.81-.81v-6.94c0-.45.36-.81.81-.81h10.86c.45,0,.81.36.81.81v6.94c0,.45-.36.81-.81.81Zm-10.04-1.62h9.23v-5.32h-9.23v5.32Z"/>
        <path class="cls-4" d="m18.29,46.22c0,.85-.69,1.54-1.54,1.54s-1.54-.69-1.54-1.54.69-1.54,1.54-1.54,1.54.69,1.54,1.54Z"/>
        <path class="cls-4" d="m19.53,43.53c-.56,0-1.02-.45-1.02-1.02v-.83c0-.56.45-1.02,1.02-1.02s1.02.45,1.02,1.02v.83c0,.56-.45,1.02-1.02,1.02Z"/>
      </g>
      <g>
        <path class="cls-9" d="m47.77,36.9c0,5.62-4.56,10.18-10.18,10.18s-10.18-4.56-10.18-10.18,4.56-10.18,10.18-10.18,10.18,4.56,10.18,10.18Z"/>
        <path class="cls-4" d="m33.37,41.51c-.21,0-.42-.08-.58-.25-.31-.32-.31-.84.01-1.15l8.31-8.11c.32-.31.84-.31,1.15.01.31.32.31.84-.01,1.15l-8.31,8.11c-.16.15-.36.23-.57.23Z"/>
        <path class="cls-4" d="m36.55,33.51c0,1.08-.87,1.95-1.95,1.95s-1.95-.87-1.95-1.95.87-1.95,1.95-1.95,1.95.87,1.95,1.95Z"/>
        <path class="cls-4" d="m42.81,39.57c0,1.08-.87,1.95-1.95,1.95s-1.95-.87-1.95-1.95.87-1.95,1.95-1.95,1.95.87,1.95,1.95Z"/>
        <path class="cls-9" d="m41.68,39.57c0,.45-.36.81-.81.81s-.81-.36-.81-.81.36-.81.81-.81.81.36.81.81Z"/>
        <path class="cls-9" d="m35.42,33.51c0,.45-.36.81-.81.81s-.81-.36-.81-.81.36-.81.81-.81.81.36.81.81Z"/>
      </g>
      <g>
        <circle class="cls-11" cx="61.96" cy="24.72" r="14.51" transform="translate(15.23 72.33) rotate(-67.29)"/>
        <g>
          <path class="cls-4" d="m72.57,25.63s-4,5.91-10.96,5.53c-6.39-.35-9.81-5.53-9.81-5.53,0,0,2.86-6.48,9.81-6.67,8.1-.22,10.96,6.67,10.96,6.67Z"/>
          <path class="cls-11" d="m66.76,25.16c0,2.42-1.96,4.38-4.38,4.38s-4.38-1.96-4.38-4.38,1.96-4.38,4.38-4.38,4.38,1.96,4.38,4.38Z"/>
        </g>
      </g>
      <g>
        <path class="cls-5" d="m26.33,28.39c0,3.4-2.76,6.16-6.16,6.16s-6.16-2.76-6.16-6.16,2.76-6.16,6.16-6.16,6.16,2.76,6.16,6.16Z"/>
        <path class="cls-4" d="m20.01,29.01c0-.39.01-.47-.37-.61-.75-.27-1.31-.79-1.31-1.61s.54-1.5,1.43-1.66c.14-.03.23-.06.23-.26,0-.17.26-.15.39-.15.15,0,.14.07.14.18,0,.2.26.17.49.21.12.02.91.16.91.33,0,.06-.3.95-.41.95-.18,0-.37-.31-.8-.31-.19,0-.16.26-.16.38v.66c0,.36.02.47.39.61.89.31,1.46.89,1.46,1.82,0,1.07-.7,1.8-1.58,1.8-.17,0-.23.12-.23.3s-.12.15-.28.15c-.14,0-.26.04-.26-.13,0-.25-.13-.33-.39-.33-.42,0-1.22-.37-1.22-.51,0-.17.26-1.2.39-1.2.29,0,.48.45.98.45.23,0,.2-.21.2-.36v-.7Zm0-2.56c0-.22.04-.37-.15-.37-.34,0-.51.33-.51.64,0,.35.38.65.52.65.11,0,.14-.28.14-.5v-.42Zm.54,3.33c0,.17,0,.3.22.3.36,0,.61-.27.61-.6,0-.3-.43-.68-.67-.68-.17,0-.15.14-.15.3v.69Z"/>
      </g>
      <g>
        <path class="cls-13" d="m55.95,6.12c0,2.95-2.39,5.35-5.35,5.35s-5.35-2.39-5.35-5.35,2.39-5.35,5.35-5.35,5.35,2.39,5.35,5.35Z"/>
        <path class="cls-4" d="m53.2,3.74c.26.09.43.63.24,1.5-.19.87-.48,2.85-.48,2.85h-.72s.34-2.13-.34-2.32c-.68-.19-1.11,2.32-2.66,2.32s-2.51.05-2.56-.39c-.05-.43,2.08-.82,2.95-1.93,1.28-1.64,3.14-2.17,3.57-2.03Z"/>
      </g>
      <g>
        <path class="cls-8" d="m46.67,16.98c0,4.37-3.55,7.92-7.92,7.92s-7.92-3.55-7.92-7.92,3.55-7.92,7.92-7.92,7.92,3.55,7.92,7.92Z"/>
        <g>
          <path class="cls-4" d="m42.95,20.5h-8.6c-.45,0-.81-.36-.81-.81v-5.5c0-.45.36-.81.81-.81h8.6c.45,0,.81.36.81.81v5.5c0,.45-.36.81-.81.81Zm-7.79-1.62h6.98v-3.88h-6.98v3.88Z"/>
          <path class="cls-4" d="m38.77,18.32c-.17,0-.34-.05-.49-.16l-4.42-3.32.97-1.3,3.92,2.94,3.69-2.93,1.01,1.27-4.18,3.32c-.15.12-.33.18-.51.18Z"/>
        </g>
      </g>
      <g>
        <circle class="cls-8" cx="108.11" cy="24.5" r="8.76" transform="translate(63.28 125.88) rotate(-78.92)"/>
        <path class="cls-4" d="m108.11,30.87c-3.51,0-6.37-2.86-6.37-6.37s2.86-6.37,6.37-6.37,6.37,2.86,6.37,6.37-2.86,6.37-6.37,6.37Zm0-11.11c-2.61,0-4.74,2.13-4.74,4.74s2.13,4.74,4.74,4.74,4.74-2.13,4.74-4.74-2.13-4.74-4.74-4.74Z"/>
        <path class="cls-4" d="m108.11,25.31c-.13,0-.25-.03-.37-.09l-2.11-1.06c-.4-.2-.56-.69-.36-1.09.2-.4.69-.56,1.09-.36l1.72.87,2.58-1.43c.39-.22.89-.07,1.1.32.22.39.07.89-.32,1.1l-2.96,1.63c-.12.07-.26.1-.39.1Z"/>
      </g>
      <g>
        <circle class="cls-13" cx="87.74" cy="15.58" r="10.31"/>
        <g>
          <path class="cls-4" d="m90,22.2c-.21,0-.42-.08-.57-.24l-2.19-2.19-2.02,2.02c-.22.22-.54.29-.84.19-.29-.1-.5-.36-.54-.66l-1.3-9.93c-.06-.44.26-.85.7-.91.44-.06.85.25.91.7l1.08,8.3,1.42-1.42c.32-.32.83-.32,1.15,0l2.19,2.19,1.07-1.07c.32-.32.83-.32,1.15,0,.32.32.32.83,0,1.15l-1.64,1.64c-.16.16-.37.24-.57.24Z"/>
          <path class="cls-4" d="m91.9,20.3c-.21,0-.42-.08-.57-.24-.32-.32-.32-.83,0-1.15l1.07-1.07-2.19-2.19c-.32-.32-.32-.83,0-1.15l1.42-1.42-8.3-1.08c-.44-.06-.76-.47-.7-.91.06-.44.47-.76.91-.7l9.93,1.3c.31.04.56.25.66.54.1.29.02.62-.19.84l-2.02,2.02,2.19,2.19c.15.15.24.36.24.57s-.09.42-.24.57l-1.64,1.64c-.16.16-.37.24-.57.24Z"/>
        </g>
      </g>
      <g>
        <path class="cls-5" d="m115.79,103.62h-28.84c-.9,0-1.62-.73-1.62-1.62s.73-1.62,1.62-1.62h28.84c1.72,0,3.13-1.4,3.13-3.13v-.1c0-1.72-1.4-3.13-3.13-3.13h-28.84c-.9,0-1.62-.73-1.62-1.62s.73-1.62,1.62-1.62h28.84c3.52,0,6.38,2.86,6.38,6.38v.1c0,3.52-2.86,6.38-6.38,6.38Z"/>
        <path class="cls-5" d="m118.73,94c-.12,0-.24-.02-.35-.05-.64-.19-1.01-.87-.81-1.52l7.84-25.94h-42.83l5,26.07c.13.66-.31,1.3-.97,1.43-.67.13-1.3-.31-1.43-.97l-5.55-28.96h49.06l-8.79,29.08c-.16.53-.64.87-1.17.87Z"/>
        <path class="cls-5" d="m127.05,66.49c-.14,0-.27-.02-.41-.07-.63-.23-.96-.92-.74-1.56l3.4-9.54h8.11c.67,0,1.22.55,1.22,1.22s-.55,1.22-1.22,1.22h-6.39l-2.82,7.92c-.18.5-.65.81-1.15.81Z"/>
        <path class="cls-5" d="m144.25,58.57h-6.83c-1.12,0-2.03-.91-2.03-2.03s.91-2.03,2.03-2.03h6.83c1.12,0,2.03.91,2.03,2.03s-.91,2.03-2.03,2.03Z"/>
        <path class="cls-3" d="m110.79,110.52c0,3.19,2.59,5.78,5.78,5.78s5.78-2.59,5.78-5.78-2.59-5.78-5.78-5.78-5.78,2.59-5.78,5.78Z"/>
        <path class="cls-3" d="m83.6,110.52c0,3.19,2.59,5.78,5.78,5.78s5.78-2.59,5.78-5.78-2.59-5.78-5.78-5.78-5.78,2.59-5.78,5.78Z"/>
        <circle class="cls-4" cx="116.57" cy="110.52" r="2.7"/>
        <path class="cls-4" d="m86.4,110.52c0,1.49,1.21,2.7,2.7,2.7s2.7-1.21,2.7-2.7-1.21-2.7-2.7-2.7-2.7,1.21-2.7,2.7Z"/>
        <path class="cls-5" d="m112.93,93.31c-.07,0-.14,0-.21-.02-.66-.12-1.11-.75-.99-1.41l4.49-25.79c.12-.66.75-1.11,1.41-.99.66.12,1.11.75.99,1.41l-4.49,25.79c-.1.59-.62,1.01-1.2,1.01Z"/>
        <path class="cls-5" d="m106.62,92.75s-.05,0-.08,0c-.67-.04-1.18-.62-1.14-1.3l1.68-25.51c.04-.67.63-1.19,1.3-1.14.67.04,1.18.62,1.14,1.3l-1.68,25.51c-.04.64-.58,1.14-1.21,1.14Z"/>
        <path class="cls-5" d="m93.44,93.31c-.59,0-1.11-.43-1.2-1.03l-4.06-25.79c-.1-.66.35-1.29,1.01-1.39.66-.1,1.29.35,1.39,1.01l4.06,25.79c.1.66-.35,1.29-1.01,1.39-.06,0-.13.01-.19.01Z"/>
        <path class="cls-5" d="m100.17,92.75c-.65,0-1.18-.51-1.22-1.16l-1.26-25.51c-.03-.67.48-1.24,1.16-1.28.66-.04,1.24.48,1.28,1.16l1.26,25.51c.03.67-.48,1.24-1.16,1.28-.02,0-.04,0-.06,0Z"/>
        <path class="cls-5" d="m124.28,75.37h-40.36c-.67,0-1.22-.55-1.22-1.22s.55-1.22,1.22-1.22h40.36c.67,0,1.22.55,1.22,1.22s-.55,1.22-1.22,1.22Z"/>
        <path class="cls-5" d="m120.91,84.34h-35.6c-.67,0-1.22-.55-1.22-1.22s.55-1.22,1.22-1.22h35.6c.67,0,1.22.55,1.22,1.22s-.55,1.22-1.22,1.22Z"/>
      </g>
      <path class="cls-3" d="m25.87,17.02c0,1.34-1.08,2.42-2.42,2.42s-2.42-1.08-2.42-2.42,1.08-2.42,2.42-2.42,2.42,1.08,2.42,2.42Z"/>
      <path class="cls-11" d="m122.46,34.17c0,1.57-1.27,2.84-2.84,2.84s-2.84-1.27-2.84-2.84,1.27-2.84,2.84-2.84,2.84,1.27,2.84,2.84Z"/>
      <path class="cls-11" d="m63.39,4.43c0,1.12-.91,2.03-2.03,2.03s-2.03-.91-2.03-2.03.91-2.03,2.03-2.03,2.03.91,2.03,2.03Z"/>
      <path class="cls-3" d="m131.26,46.22c0,1.05-.85,1.89-1.9,1.89s-1.89-.85-1.89-1.89.85-1.9,1.89-1.9,1.9.85,1.9,1.9Z"/>
      <path class="cls-11" d="m81.73,50.65c0,1.2-.97,2.17-2.17,2.17s-2.17-.97-2.17-2.17.97-2.17,2.17-2.17,2.17.97,2.17,2.17Z"/>
      <g>
        <path class="cls-13" d="m122.82,49.41c0,6.8-5.51,12.32-12.32,12.32s-12.32-5.51-12.32-12.32,5.51-12.32,12.32-12.32,12.32,5.51,12.32,12.32Z"/>
        <g>
          <path class="cls-4" d="m105.06,56.44c-2.53,0-4.59-2.06-4.59-4.59s2.06-4.59,4.59-4.59,4.59,2.06,4.59,4.59-2.06,4.59-4.59,4.59Zm0-7.56c-1.64,0-2.97,1.33-2.97,2.97s1.33,2.97,2.97,2.97,2.97-1.33,2.97-2.97-1.33-2.97-2.97-2.97Z"/>
          <path class="cls-4" d="m115.54,56.65c-2.53,0-4.59-2.06-4.59-4.59s2.06-4.59,4.59-4.59,4.59,2.06,4.59,4.59-2.06,4.59-4.59,4.59Zm0-7.56c-1.64,0-2.97,1.33-2.97,2.97s1.33,2.97,2.97,2.97,2.97-1.33,2.97-2.97-1.33-2.97-2.97-2.97Z"/>
          <path class="cls-4" d="m111.88,52.52h0l-6.5-.08c-.29,0-.55-.16-.69-.4-.14-.25-.15-.55,0-.8l2.75-4.97c.13-.24.38-.4.66-.42.28-.02.54.1.71.33l3.75,5.05c.18.25.21.58.07.85-.14.27-.42.44-.72.44Zm-5.13-1.68l3.5.04-2.02-2.72-1.48,2.68Z"/>
          <path class="cls-4" d="m109.89,45.02c-.08,0-.17-.01-.25-.04l-2.83-.92c-.43-.14-.66-.6-.52-1.02.14-.43.6-.66,1.02-.52l2.83.92c.43.14.66.6.52,1.02-.11.34-.43.56-.77.56Z"/>
          <path class="cls-4" d="m115.54,52.52s-.06,0-.09,0c-.45-.05-.77-.45-.72-.9l.93-8.41c.05-.45.45-.76.9-.72.45.05.77.45.72.9l-.93,8.41c-.05.42-.4.72-.81.72Z"/>
          <path class="cls-4" d="m119.01,45.53c-.16,0-.32-.05-.46-.14l-4.49-3.06c-.37-.25-.47-.76-.21-1.13.25-.37.76-.47,1.13-.21l4.49,3.06c.37.25.47.76.21,1.13-.16.23-.41.35-.67.35Z"/>
          <rect class="cls-4" x="111.88" y="50.89" width="3.66" height="1.62"/>
          <path class="cls-4" d="m108.21,47.62c-.45,0-.81-.36-.81-.81v-2.83c0-.45.36-.81.81-.81s.81.36.81.81v2.83c0,.45-.36.81-.81.81Z"/>
        </g>
      </g>
      <g>
        <circle class="cls-5" cx="90.04" cy="37.11" r="9.07" transform="translate(-2.38 67.82) rotate(-40.78)"/>
        <g>
          <path class="cls-4" d="m86.17,40.36c-1.67,0-3.04-1.36-3.04-3.04s1.36-3.04,3.04-3.04,3.04,1.36,3.04,3.04-1.36,3.04-3.04,3.04Zm0-4.45c-.78,0-1.41.63-1.41,1.41s.63,1.41,1.41,1.41,1.41-.63,1.41-1.41-.63-1.41-1.41-1.41Z"/>
          <path class="cls-4" d="m93.37,40.36c-1.67,0-3.04-1.36-3.04-3.04s1.36-3.04,3.04-3.04,3.04,1.36,3.04,3.04-1.36,3.04-3.04,3.04Zm0-4.45c-.78,0-1.41.63-1.41,1.41s.63,1.41,1.41,1.41,1.41-.63,1.41-1.41-.63-1.41-1.41-1.41Z"/>
          <rect class="cls-4" x="88.66" y="36.51" width="2.22" height="1.62"/>
        </g>
      </g>
    </g>
  </g>
</svg>