<?xml version="1.0" encoding="UTF-8"?>
<svg id="Layer_2" data-name="Layer 2" xmlns="http://www.w3.org/2000/svg" xmlns:xlink="http://www.w3.org/1999/xlink" viewBox="0 0 100.23 111.17">
  <defs>
    <style>
      .cls-1 {
        fill: #ffd3d2;
      }

      .cls-2 {
        fill: #fff;
      }

      .cls-3 {
        fill: #ff4f4f;
      }

      .cls-4 {
        fill: #ff6e6e;
      }

      .cls-5 {
        fill: #4396ca;
      }

      .cls-6 {
        clip-path: url(#clippath-2);
      }

      .cls-7 {
        clip-path: url(#clippath-1);
      }

      .cls-8 {
        fill: #5f56f1;
      }

      .cls-9 {
        fill: #fc6262;
      }

      .cls-10 {
        fill: #fe924a;
      }

      .cls-11 {
        fill: #1a9f9c;
      }

      .cls-12 {
        clip-path: url(#clippath);
      }

      .cls-13 {
        fill: #7c84ff;
      }

      .cls-14 {
        fill: none;
      }

      .cls-15 {
        fill: #fe9249;
      }

      .cls-16 {
        fill: #2cbfc6;
      }

      .cls-17 {
        clip-path: url(#clippath-3);
      }

      .cls-18 {
        fill: #189f9b;
      }

      .cls-19 {
        fill: #7676ff;
      }

      .cls-20 {
        fill: #5958f2;
      }
    </style>
    <clipPath id="clippath">
      <path class="cls-14" d="m20.6,57.42l-13.26,1.92c-1.37.2-2.63-.79-2.82-2.2L.02,37.65c-.19-1.41.76-2.72,2.12-2.91l16.34-2.62c1.37-.2,3.81,1.59,4,3.01l.23,19.38c.19,1.41-.76,2.72-2.12,2.91Z"/>
    </clipPath>
    <clipPath id="clippath-1">
      <path class="cls-15" d="m14.83,24.41c-.52,3.38-3.67,5.7-7.05,5.18-3.38-.52-5.7-3.67-5.18-7.05.52-3.38,3.67-5.7,7.05-5.18,3.38.52,5.7,3.67,5.18,7.05Z"/>
    </clipPath>
    <clipPath id="clippath-2">
      <path class="cls-14" d="m77.61,62.12l12.23,1.78c1.26.18,2.42-.72,2.6-2.03l4.14-17.99c.18-1.3-.7-2.51-1.96-2.69l-15.07-2.41c-1.26-.18-3.52,1.47-3.69,2.77l-.21,17.88c-.18,1.3.7,2.51,1.96,2.69Z"/>
    </clipPath>
    <clipPath id="clippath-3">
      <rect class="cls-14" x="34.47" y="28.85" width="30.85" height="31.7" rx="3.28" ry="3.28"/>
    </clipPath>
  </defs>
  <g id="Layer_1-2" data-name="Layer 1">
    <g>
      <g>
        <path class="cls-1" d="m21.7,72.62c1-1.19,7.3-4.33,7.3-4.33,0,0-2,6.75-3,7.94-1,1.19-2.77,1.34-3.96.35-1.19-1-1.34-2.77-.35-3.96Z"/>
        <path class="cls-1" d="m53.1,2.81c0,1.55-2.81,8.01-2.81,8.01,0,0-2.81-6.46-2.81-8.01s1.26-2.81,2.81-2.81,2.81,1.26,2.81,2.81Z"/>
        <path class="cls-1" d="m39.03,4.23c.53,1.46.1,8.49.1,8.49,0,0-4.85-5.11-5.38-6.57-.53-1.46.22-3.07,1.68-3.6,1.46-.53,3.07.22,3.6,1.68Z"/>
        <path class="cls-1" d="m26.29,10.39c1,1.19,3,7.94,3,7.94,0,0-6.3-3.14-7.3-4.33-1-1.19-.84-2.96.35-3.96,1.19-1,2.96-.84,3.96.35Z"/>
        <path class="cls-1" d="m16.76,20.02c1.34.78,5.53,6.44,5.53,6.44,0,0-7-.8-8.34-1.57-1.34-.78-1.8-2.49-1.03-3.84.78-1.34,2.49-1.8,3.84-1.03Z"/>
        <path class="cls-1" d="m10.62,33.42c1.53.27,7.4,4.16,7.4,4.16,0,0-6.85,1.64-8.38,1.38-1.53-.27-2.55-1.73-2.28-3.25.27-1.53,1.73-2.55,3.25-2.28Z"/>
        <path class="cls-1" d="m9.58,47.53c1.53-.27,8.38,1.38,8.38,1.38,0,0-5.87,3.89-7.4,4.16-1.53.27-2.98-.75-3.25-2.28-.27-1.53.75-2.98,2.28-3.25Z"/>
        <path class="cls-1" d="m33.4,80.58c.53-1.46,5.38-6.57,5.38-6.57,0,0,.43,7.03-.1,8.49-.53,1.46-2.14,2.21-3.6,1.68-1.46-.53-2.21-2.14-1.68-3.6Z"/>
        <path class="cls-1" d="m47.11,84.05c0-1.55,2.81-8.01,2.81-8.01,0,0,2.81,6.46,2.81,8.01s-1.26,2.81-2.81,2.81-2.81-1.26-2.81-2.81Z"/>
        <path class="cls-1" d="m61.18,82.63c-.53-1.46-.1-8.49-.1-8.49,0,0,4.85,5.11,5.38,6.57.53,1.46-.22,3.07-1.68,3.6-1.46.53-3.07-.22-3.6-1.68Z"/>
        <path class="cls-1" d="m89.59,53.43c-1.53-.27-7.4-4.16-7.4-4.16,0,0,6.85-1.64,8.38-1.38,1.53.27,2.55,1.73,2.28,3.25-.27,1.53-1.73,2.55-3.25,2.28Z"/>
        <path class="cls-1" d="m86.78,25.71c-1.34.78-8.34,1.57-8.34,1.57,0,0,4.19-5.66,5.53-6.44,1.34-.78,3.06-.32,3.84,1.03.78,1.34.32,3.06-1.03,3.84Z"/>
        <path class="cls-1" d="m78.51,14.24c-1,1.19-7.3,4.33-7.3,4.33,0,0,2-6.75,3-7.94,1-1.19,2.77-1.34,3.96-.35,1.19,1,1.34,2.77.35,3.96Z"/>
        <path class="cls-1" d="m66.81,6.28c-.53,1.46-5.38,6.57-5.38,6.57,0,0-.43-7.03.1-8.49.53-1.46,2.14-2.21,3.6-1.68,1.46.53,2.21,2.14,1.68,3.6Z"/>
      </g>
      <path class="cls-13" d="m4.77,63.62l20.15-.72.13,45.23h-3.98s-3.01-22.39-4.15-34.77h-2.76l-.83,34.77h-3.98s-4.7-34.91-4.57-41.64c-.11-.5-.02-2.87-.02-2.87Z"/>
      <path class="cls-8" d="m25.11,108.07h-4.05v3.1h8.2c.54,0,.73-1.22.25-1.48l-4.41-1.62Z"/>
      <path class="cls-8" d="m13.22,108.07h-4.05v3.1h8.21c.54,0,.73-1.22.25-1.48l-4.41-1.62Z"/>
      <path class="cls-15" d="m74.75,72.4l-.17,35.88h3.78s2.86-21.28,3.94-33.04h2.62s.79,33.04.79,33.04h3.78s3.71-28.98,3.59-35.38c.1-.48-18.33-.5-18.33-.5Z"/>
      <path class="cls-9" d="m74.53,108.22h3.84v2.95s-7.8,0-7.8,0c-.51,0-.69-1.16-.24-1.41l4.19-1.54Z"/>
      <path class="cls-9" d="m85.83,108.22h3.84v2.95h-7.8c-.51,0-.69-1.16-.24-1.41l4.19-1.54Z"/>
      <polygon class="cls-18" points="75.92 61.9 91.09 62.73 100.23 93.67 68.26 93.67 75.92 61.9"/>
      <path class="cls-3" d="m79.69,35.61c.21-1.27,1.29-11.05,7.18-11.83,6.34-.85,9.44,1.55,9.86,7.04.42,5.49-.85,8.59-.85,8.59l-16.2-3.8Z"/>
      <path class="cls-15" d="m17.8,34.63c-.49.99.7,13.51,5.29,18.1,2.83,2.83,21.2,1.6,23.01,1.21,2.58-.56,6.63.91,8.78-1.2,1.41-1.38,1.19-2.67-4.09-1.84-5.28.83-4.37.6-6.98.49-8.49-.37-15.44-1.08-16.06-2.48-2.33-5.33-3.89-10.26-3.89-10.26l-6.07-4.01Z"/>
      <path class="cls-4" d="m12.79,36.58l8.95,11.66,5.86-4.34-6.12-9.95c-.49-.63-1.87-1.72-2.52-1.26l-6.16,3.89Z"/>
      <path class="cls-3" d="m23.63,66.22l-16.56.47c-1.37.19-2.63-.76-2.82-2.12L.02,38.36c-.19-1.37,1.76-3.46,3.11-3.72,3.83-.74,11.55-2.37,15.83-2.34,1.38.01,3.33,2.26,3.52,3.62l3.27,27.49c.19,1.37-.76,2.63-2.12,2.82Z"/>
      <path class="cls-15" d="m6.92,45.63c-.38,1.03,3.94,10.17,8.17,15.11,1,1.17,15.52-.57,17.33-.17,4.5,1,9.43,1.5,11.33-.83,1.25-1.53,1.99-5.74-3.17-4.33-5.16,1.41-4.4,2.02-7,1.83-11.33-.83-14.5,0-15.33-1.67-2.06-4.12-6.18-10.4-6.18-10.4l-5.15.46Z"/>
      <path class="cls-4" d="m7.03,35.78c3.83,1.19,7.67,12.26,7.67,12.26l-7.6,3.1s-4.72-7.7-5-12.72c-.11-2.03,3.21-3.17,4.93-2.63Z"/>
      <g class="cls-12">
        <path class="cls-15" d="m14.54,31.39c-.35,2.37-2.49,4-4.79,3.64-2.29-.36-3.87-2.58-3.52-4.95.35-2.37,2.49-4,4.79-3.64,2.29.36,3.87,2.58,3.52,4.95Z"/>
      </g>
      <rect class="cls-15" x="7.62" y="25.81" width="5.07" height="7.91" transform="translate(-5.56 2.52) rotate(-11.13)"/>
      <g>
        <path class="cls-15" d="m14.83,24.41c-.52,3.38-3.67,5.7-7.05,5.18-3.38-.52-5.7-3.67-5.18-7.05.52-3.38,3.67-5.7,7.05-5.18,3.38.52,5.7,3.67,5.18,7.05Z"/>
        <g class="cls-7">
          <path class="cls-16" d="m2.06,24.08l14.63-2.71s-3.53-8.26-11.66-4.56c-8.13,3.7-2.96,7.27-2.96,7.27Z"/>
        </g>
      </g>
      <path class="cls-15" d="m4.48,26.42c-.14.9-.97,1.51-1.87,1.38-.9-.14-1.51-.97-1.38-1.87.14-.9.97-1.51,1.87-1.38.9.14,1.51.97,1.38,1.87Z"/>
      <path class="cls-11" d="m14.62,21.75s6.34,1.51,4.65,3.41c-1.68,1.91-16.66-1.15-16.66-1.15l12.01-2.26Z"/>
      <path class="cls-5" d="m18.47,38.37c.11.55-.24,1.08-.78,1.19l-3.26.68c-.55.11-1.08-.24-1.19-.78h0c-.11-.55.24-1.08.78-1.19l3.26-.68c.55-.11,1.08.24,1.19.78h0Z"/>
      <path class="cls-10" d="m81.04,41.62c.39.94-6.46,14.28-7.96,15.78-2.33,2.33-17.62.74-19.27.27-2.34-.67-6.15.43-8-1.64-1.21-1.36-.93-2.53,3.88-1.44,4.81,1.09,3.98.82,6.39.87,7.83.17,11.83-.19,13.5-2.55,2-2.83,5.63-7.96,5.63-7.96l5.83-3.32Z"/>
      <path class="cls-19" d="m84.82,42.9l-6.4,12.58-7.71-6.31,6.1-8.69c.45-.58,1.73-1.59,2.32-1.16l5.68,3.59Z"/>
      <path class="cls-20" d="m77.09,63.9s9.58-.22,12.76,0c1.27.09,2.42-.7,2.6-1.96l3.44-14.63c.7-3.42-.92-5.96-2.17-6.2-3.53-.68-10.66-2.19-14.61-2.16-1.27,0-4.03,6.46-4.07,7.87-.05,1.63,1.24,5.26,1.53,6.84.26,1.48-.91,5.93-.91,5.93-.18,1.26.18,4.14,1.44,4.32Z"/>
      <path class="cls-10" d="m90.43,50.93c.26.98-5.59,13.17-8.5,14.3-3,1.17-12.17-1.33-16.87-2.11-2.41-.4-6.16-.4-7.71-2.7-1.02-1.51-.58-2.63,4.04-.91,4.62,1.72,1.84.68,4.22,1.06,7.74,1.23,12.47.9,13.5-.17,2.94-3.07,6.64-10.32,6.64-10.32l4.7.85Z"/>
      <path class="cls-19" d="m90.12,42.16c-3.53,1.1-7.08,11.3-7.08,11.3l7.01,2.86s4.35-7.1,4.62-11.73c.11-1.87-2.96-2.92-4.54-2.43Z"/>
      <g class="cls-6">
        <path class="cls-10" d="m83.19,38.11c.32,2.19,2.3,3.69,4.41,3.35,2.12-.33,3.57-2.38,3.25-4.56-.32-2.19-2.3-3.69-4.41-3.36-2.12.33-3.57,2.38-3.25,4.56Z"/>
      </g>
      <rect class="cls-10" x="83.59" y="34.28" width="7.29" height="4.67" transform="translate(34.47 115.14) rotate(-78.87)"/>
      <path class="cls-10" d="m82.93,31.67c.48,3.11,3.39,5.25,6.5,4.78,3.11-.48,5.25-3.39,4.78-6.5-.48-3.11-3.39-5.25-6.5-4.78-3.11.48-5.25,3.39-4.78,6.5Z"/>
      <path class="cls-10" d="m92.48,33.53c.13.83.9,1.39,1.73,1.27.83-.13,1.39-.9,1.27-1.73-.13-.83-.9-1.39-1.73-1.27-.83.13-1.39.9-1.27,1.73Z"/>
      <rect class="cls-16" x="34.47" y="28.85" width="30.85" height="31.7" rx="3.28" ry="3.28"/>
      <path class="cls-3" d="m85.32,25.05c-1.13.56-3.24,3.52-2.68,3.66.56.14,9.02,2.68,9.44,2.68s1.55-3.1,2.54-3.24c.99-.14.7-1.83-2.39-3.1-3.1-1.27-6.9,0-6.9,0Z"/>
      <g class="cls-17">
        <rect class="cls-2" x="27.92" y="34.24" width="45.49" height=".41" transform="translate(-.07 .1) rotate(-.11)"/>
      </g>
      <path class="cls-3" d="m56.21,45.23h3.64c.32,0,.57.26.57.57v7.09c0,.32-.26.57-.57.57h-3.64c-.32,0-.57-.26-.57-.57v-7.09c0-.32.26-.57.57-.57Z"/>
    </g>
  </g>
</svg>