<?xml version="1.0" encoding="UTF-8"?>
<svg id="Layer_2" data-name="Layer 2" xmlns="http://www.w3.org/2000/svg" xmlns:xlink="http://www.w3.org/1999/xlink" viewBox="0 0 104.82 130.47">
  <defs>
    <style>
      .cls-1 {
        fill: #fff;
      }

      .cls-2 {
        fill: #ff4f4f;
      }

      .cls-3 {
        fill: #4396ca;
      }

      .cls-4 {
        fill: #6e54ed;
      }

      .cls-5 {
        fill: #189d9a;
      }

      .cls-6 {
        fill: #7e84fc;
      }

      .cls-7 {
        fill: #7d85ff;
      }

      .cls-8 {
        fill: #fe924a;
      }

      .cls-9 {
        fill: #6855ef;
      }

      .cls-10 {
        clip-path: url(#clippath);
      }

      .cls-11 {
        fill: none;
      }

      .cls-12 {
        fill: #fe9249;
      }

      .cls-13 {
        fill: #5c55f1;
      }

      .cls-14 {
        fill: #2cc1c7;
      }

      .cls-15 {
        fill: #f27936;
      }

      .cls-16 {
        fill: #4035d8;
      }
    </style>
    <clipPath id="clippath">
      <path class="cls-11" d="m19.46,76.82l-11.82,1.12c-1.22.12-2.3-.78-2.41-1.99l-3.23-16.88c-.12-1.22.78-2.3,1.99-2.41l15.02-2.21c1.22-.12,2.86,2.13,2.97,3.35l-.53,16.61c.12,1.22-.78,2.3-1.99,2.41Z"/>
    </clipPath>
  </defs>
  <g id="Layer_1-2" data-name="Layer 1">
    <g>
      <path class="cls-7" d="m6.09,84.93l17.17,2.17.52,40.57h-3.62s-2.74-24.52-3.78-35.79h-2.51l-.76,35.79h-3.62s-3.84-31.78-3.73-37.91c-.1-.46.33-4.83.33-4.83Z"/>
      <path class="cls-15" d="m19.67,65.87l4.4-.14s-.27,1.96-1.56,5.08c-.8,1.94-5.35,5.21-2.98,6.63,2.37,1.42,4.79-8.27,6.46-8.85,1.62-.56,5.38.59,4.5,2.22-.88,1.62-3.25-.2-3.79.54-.54.74-2.37,9.68-7.44,10.02-5.08.34-7.11-2.23-6.09-4.74,1.02-2.5,6.5-10.76,6.5-10.76Z"/>
      <g>
        <circle class="cls-2" cx="68.04" cy="51.4" r="7.62" transform="translate(-14.45 29.79) rotate(-22.39)"/>
        <polygon class="cls-1" points="68.04 46.04 69.66 49.32 73.29 49.85 70.67 52.4 71.29 56.01 68.04 54.31 64.8 56.01 65.42 52.4 62.8 49.85 66.42 49.32 68.04 46.04"/>
      </g>
      <g>
        <circle class="cls-3" cx="42.11" cy="50.46" r="7.62"/>
        <path class="cls-1" d="m45.46,47.7c-1.14-.61-2.64.16-3.33,1.22-.7-1.06-2.27-1.83-3.41-1.22-1.21.65-1.49,1.91-.84,3.11.65,1.21,4.25,4.15,4.26,4.11,0,.04,3.61-2.91,4.26-4.11.65-1.21.28-2.47-.92-3.11Z"/>
      </g>
      <g>
        <circle class="cls-14" cx="54.71" cy="35.68" r="7.62"/>
        <g>
          <rect class="cls-1" x="53.84" y="31.46" width="1.74" height="8.44"/>
          <rect class="cls-1" x="50.49" y="34.81" width="8.44" height="1.74"/>
        </g>
      </g>
      <g>
        <circle class="cls-12" cx="55.71" cy="67.64" r="9.97" transform="translate(-21.75 26.67) rotate(-22.65)"/>
        <path class="cls-1" d="m61.27,72.08h-10.85c-.45,0-.81-.36-.81-.81v-6.94c0-.45.36-.81.81-.81h10.85c.45,0,.81.36.81.81v6.94c0,.45-.36.81-.81.81Zm-10.04-1.62h9.23v-5.32h-9.23v5.32Z"/>
        <path class="cls-1" d="m57.52,67.62c0,.85-.69,1.54-1.54,1.54s-1.54-.69-1.54-1.54.69-1.54,1.54-1.54,1.54.69,1.54,1.54Z"/>
        <path class="cls-1" d="m58.76,64.93c-.56,0-1.02-.45-1.02-1.02v-.83c0-.56.45-1.02,1.02-1.02s1.02.45,1.02,1.02v.83c0,.56-.45,1.02-1.02,1.02Z"/>
      </g>
      <g>
        <path class="cls-13" d="m82.93,31.31c0,5.1-4.13,9.23-9.23,9.23s-9.23-4.13-9.23-9.23,4.13-9.23,9.23-9.23,9.23,4.13,9.23,9.23Z"/>
        <path class="cls-1" d="m69.87,35.56c-.21,0-.42-.08-.58-.25-.31-.32-.31-.84.01-1.15l7.54-7.35c.32-.31.84-.31,1.15.01.31.32.31.84-.01,1.15l-7.54,7.35c-.16.15-.36.23-.57.23Z"/>
        <path class="cls-1" d="m72.76,28.24c0,.98-.79,1.77-1.77,1.77s-1.77-.79-1.77-1.77.79-1.77,1.77-1.77,1.77.79,1.77,1.77Z"/>
        <path class="cls-1" d="m78.43,33.73c0,.98-.79,1.77-1.77,1.77s-1.77-.79-1.77-1.77.79-1.77,1.77-1.77,1.77.79,1.77,1.77Z"/>
        <circle class="cls-3" cx="76.66" cy="33.73" r=".74"/>
        <circle class="cls-3" cx="70.99" cy="28.24" r=".74"/>
      </g>
      <g>
        <circle class="cls-14" cx="79.32" cy="67.94" r="9.23" transform="translate(-3.83 131.13) rotate(-77.81)"/>
        <g>
          <path class="cls-1" d="m86.07,68.51s-2.55,3.76-6.97,3.52c-4.06-.22-6.24-3.52-6.24-3.52,0,0,1.82-4.12,6.24-4.24,5.15-.14,6.97,4.24,6.97,4.24Z"/>
          <path class="cls-14" d="m82.38,68.22c0,1.54-1.25,2.79-2.79,2.79s-2.79-1.25-2.79-2.79,1.25-2.79,2.79-2.79,2.79,1.25,2.79,2.79Z"/>
        </g>
      </g>
      <g>
        <circle class="cls-2" cx="53.82" cy="14.38" r="10.22" transform="translate(8.47 46.73) rotate(-50.46)"/>
        <path class="cls-1" d="m53.56,15.41c0-.64.03-.78-.61-1-1.24-.45-2.17-1.31-2.17-2.67s.9-2.49,2.37-2.76c.24-.05.38-.1.39-.43.01-.28.43-.25.65-.25.25,0,.23.11.23.3,0,.34.44.29.82.35.2.04,1.51.26,1.51.55,0,.1-.5,1.57-.68,1.57-.3,0-.62-.51-1.33-.51-.31,0-.26.43-.26.63v1.09c0,.59.04.78.64,1,1.47.51,2.42,1.47,2.42,3.01,0,1.78-1.16,2.99-2.62,2.99-.28,0-.39.2-.39.5s-.2.25-.46.25c-.24,0-.43.06-.44-.21-.01-.41-.21-.54-.64-.54-.7,0-2.02-.61-2.02-.85,0-.29.43-1.98.65-1.98.48,0,.79.74,1.62.74.38,0,.34-.35.34-.6v-1.17Zm0-4.24c0-.36.06-.62-.25-.62-.56,0-.84.55-.84,1.07,0,.58.63,1.08.87,1.08.19,0,.23-.46.23-.83v-.7Zm.9,5.52c0,.29,0,.49.36.49.6,0,1-.45,1-.99,0-.49-.72-1.13-1.12-1.13-.28,0-.25.24-.25.49v1.14Z"/>
      </g>
      <g>
        <path class="cls-6" d="m104.5,46.96c0,6.15-4.99,11.14-11.14,11.14s-11.14-4.99-11.14-11.14,4.99-11.14,11.14-11.14,11.14,4.99,11.14,11.14Z"/>
        <path class="cls-1" d="m98.78,42c.54.18.9,1.31.5,3.12-.4,1.81-1.01,5.93-1.01,5.93h-1.51s.7-4.42-.7-4.83c-1.41-.4-2.31,4.83-5.53,4.83s-5.23.1-5.33-.8c-.1-.9,4.32-1.71,6.13-4.02,2.67-3.42,6.54-4.52,7.44-4.22Z"/>
      </g>
      <g>
        <circle class="cls-12" cx="94.6" cy="22.99" r="10.22" transform="translate(11.45 73.63) rotate(-45)"/>
        <g>
          <path class="cls-1" d="m100.02,27.31h-11.1c-.45,0-.81-.36-.81-.81v-7.1c0-.45.36-.81.81-.81h11.1c.45,0,.81.36.81.81v7.1c0,.45-.36.81-.81.81Zm-10.29-1.62h9.48v-5.47h-9.48v5.47Z"/>
          <path class="cls-1" d="m94.62,24.5c-.17,0-.34-.05-.49-.16l-5.71-4.28.97-1.3,5.21,3.91,4.9-3.89,1.01,1.27-5.39,4.28c-.15.12-.33.18-.51.18Z"/>
        </g>
      </g>
      <g>
        <path class="cls-9" d="m45.25,29.29c0,5.51-4.47,9.97-9.97,9.97s-9.97-4.47-9.97-9.97,4.47-9.97,9.97-9.97,9.97,4.47,9.97,9.97Z"/>
        <path class="cls-1" d="m35.28,36.42c-3.94,0-7.14-3.2-7.14-7.14s3.2-7.14,7.14-7.14,7.14,3.2,7.14,7.14-3.2,7.14-7.14,7.14Zm0-12.65c-3.04,0-5.51,2.47-5.51,5.51s2.47,5.51,5.51,5.51,5.51-2.47,5.51-5.51-2.47-5.51-5.51-5.51Z"/>
        <path class="cls-1" d="m35.28,30.1c-.13,0-.25-.03-.37-.09l-2.4-1.21c-.4-.2-.56-.69-.36-1.09.2-.4.69-.56,1.09-.36l2.02,1.02,2.99-1.65c.39-.22.89-.07,1.1.32.22.39.07.89-.32,1.1l-3.37,1.86c-.12.07-.26.1-.39.1Z"/>
      </g>
      <g>
        <path class="cls-6" d="m85.04,9.23c0,5.1-4.13,9.23-9.23,9.23s-9.23-4.13-9.23-9.23S70.71,0,75.81,0s9.23,4.13,9.23,9.23Z"/>
        <g>
          <path class="cls-1" d="m77.83,15.24c-.22,0-.42-.09-.57-.24l-1.9-1.9-1.74,1.74c-.22.22-.54.29-.84.19-.29-.1-.5-.36-.54-.66l-1.16-8.89c-.06-.45.26-.85.7-.91.44-.06.85.26.91.7l.95,7.25,1.15-1.15c.15-.15.36-.24.57-.24h0c.22,0,.42.09.57.24l1.9,1.9.89-.89c.32-.32.83-.32,1.15,0,.32.32.32.83,0,1.15l-1.47,1.47c-.15.15-.36.24-.57.24Z"/>
          <path class="cls-1" d="m79.53,13.54c-.21,0-.42-.08-.57-.24-.32-.32-.32-.83,0-1.15l.89-.89-1.9-1.9c-.32-.32-.32-.83,0-1.15l1.15-1.15-7.25-.95c-.45-.06-.76-.47-.7-.91.06-.45.47-.76.91-.7l8.89,1.16c.31.04.56.25.66.54.1.29.02.62-.19.84l-1.74,1.74,1.9,1.9c.32.32.32.83,0,1.15l-1.47,1.47c-.16.16-.37.24-.57.24Z"/>
        </g>
      </g>
      <path class="cls-9" d="m22.84,88.18l-15.34.24c-1.22.12-2.3-.78-2.41-1.99l-3.09-27.36c-.12-1.22.78-2.3,1.99-2.41l13.92-2.09c2.37-.07,3.96,2.01,4.08,3.22l2.84,27.98c.12,1.22-.78,2.3-1.99,2.41Z"/>
      <path class="cls-9" d="m15.34,55.04l.76,12.42,8.98-.91s-1.99-8.03-2.91-10.56c-.44-1.2-2.37-1.49-3.72-1.49-1.12,0-3.11.54-3.11.54Z"/>
      <rect class="cls-8" x="9.02" y="49.38" width="4.49" height="7.01" transform="translate(-7.76 2.27) rotate(-8.58)"/>
      <path class="cls-8" d="m15.8,48.63c-.59,2.97-3.47,4.9-6.44,4.31-2.97-.59-4.9-3.47-4.31-6.44.59-2.97,3.47-4.9,6.44-4.31,2.97.59,4.9,3.47,4.31,6.44Z"/>
      <path class="cls-8" d="m6.56,50.01c-.16.79-.92,1.3-1.71,1.14-.79-.16-1.3-.92-1.14-1.71.16-.79.92-1.3,1.71-1.14.79.16,1.3.92,1.14,1.71Z"/>
      <g>
        <path class="cls-5" d="m81.98,118.28h-27.86c-3.43,0-6.21-2.79-6.21-6.21v-.09c0-3.43,2.79-6.21,6.21-6.21h27.86c.9,0,1.62.73,1.62,1.62s-.73,1.62-1.62,1.62h-27.86c-1.63,0-2.96,1.33-2.96,2.96v.09c0,1.63,1.33,2.96,2.96,2.96h27.86c.9,0,1.62.73,1.62,1.62s-.73,1.62-1.62,1.62Z"/>
        <path class="cls-5" d="m51.29,108.98c-.52,0-1.01-.34-1.17-.87l-8.51-28.14h47.49l-5.37,28.02c-.13.66-.76,1.09-1.43.97-.66-.13-1.09-.77-.97-1.43l4.82-25.13h-41.26l7.56,25c.19.64-.17,1.32-.81,1.52-.12.04-.24.05-.35.05Z"/>
        <path class="cls-5" d="m43.25,82.4c-.5,0-.97-.31-1.15-.81l-2.72-7.62h-6.14c-.67,0-1.22-.55-1.22-1.22s.55-1.22,1.22-1.22h7.86l3.3,9.24c.23.63-.1,1.33-.74,1.56-.14.05-.27.07-.41.07Z"/>
        <path class="cls-5" d="m33.23,74.78h-6.59c-1.12,0-2.03-.91-2.03-2.03s.91-2.03,2.03-2.03h6.59c1.12,0,2.03.91,2.03,2.03s-.91,2.03-2.03,2.03Z"/>
        <path class="cls-2" d="m58.96,124.89c0,3.08-2.5,5.58-5.58,5.58s-5.58-2.5-5.58-5.58,2.5-5.58,5.58-5.58,5.58,2.5,5.58,5.58Z"/>
        <circle class="cls-2" cx="79.63" cy="124.89" r="5.58"/>
        <path class="cls-1" d="m55.98,124.89c0,1.44-1.17,2.61-2.61,2.61s-2.61-1.17-2.61-2.61,1.17-2.61,2.61-2.61,2.61,1.17,2.61,2.61Z"/>
        <path class="cls-1" d="m82.51,124.89c0,1.44-1.17,2.61-2.61,2.61s-2.61-1.17-2.61-2.61,1.17-2.61,2.61-2.61,2.61,1.17,2.61,2.61Z"/>
        <path class="cls-5" d="m56.89,108.31c-.58,0-1.1-.42-1.2-1.01l-4.33-24.91c-.12-.66.33-1.29.99-1.41.66-.12,1.29.33,1.41.99l4.33,24.91c.11.66-.33,1.29-.99,1.41-.07.01-.14.02-.21.02Z"/>
        <path class="cls-5" d="m62.98,107.77c-.64,0-1.17-.49-1.21-1.14l-1.62-24.64c-.04-.67.46-1.25,1.14-1.3.68-.05,1.25.46,1.3,1.14l1.62,24.64c.04.67-.46,1.25-1.14,1.3-.03,0-.05,0-.08,0Z"/>
        <path class="cls-5" d="m75.71,108.31c-.06,0-.13,0-.19-.01-.66-.11-1.12-.73-1.01-1.39l3.93-24.91c.1-.66.73-1.12,1.39-1.01.66.11,1.12.73,1.01,1.39l-3.93,24.91c-.09.6-.61,1.03-1.2,1.03Z"/>
        <path class="cls-5" d="m69.21,107.77s-.04,0-.06,0c-.67-.03-1.19-.6-1.16-1.28l1.22-24.64c.03-.67.61-1.2,1.28-1.16.67.03,1.19.6,1.16,1.28l-1.22,24.64c-.03.65-.57,1.16-1.22,1.16Z"/>
        <path class="cls-5" d="m84.91,90.98h-38.98c-.67,0-1.22-.55-1.22-1.22s.55-1.22,1.22-1.22h38.98c.67,0,1.22.55,1.22,1.22s-.55,1.22-1.22,1.22Z"/>
        <path class="cls-5" d="m83.56,99.65h-34.38c-.67,0-1.22-.55-1.22-1.22s.55-1.22,1.22-1.22h34.38c.67,0,1.22.55,1.22,1.22s-.55,1.22-1.22,1.22Z"/>
      </g>
      <path class="cls-8" d="m.76,64.1s4.97,2.11,4.97,2.58,3.29,8.28,5.2,10.25c1.07,1.1,9.75-7.1,11.66-7.61,2.03-.54,5.01,0,5.48,1.29s-.68,2.03-2.03,1.35c-1.35-.68-2.62-.72-3.11-.34-.51.4-8.07,10.82-11.33,9.98-4.61-1.19-11-9-10.83-17.5Z"/>
      <g class="cls-10">
        <path class="cls-8" d="m15.1,54.29c-.4,2.02-2.36,3.33-4.38,2.93s-3.33-2.36-2.93-4.38c.4-2.02,2.36-3.33,4.38-2.93,2.02.4,3.33,2.36,2.93,4.38Z"/>
      </g>
      <path class="cls-16" d="m6.16,57.58c2.45,2.88.92,11.68.92,11.68l-7.08-.31s.03-7.87.74-10.38c.67-2.37,4.4-2.21,5.42-1Z"/>
      <path class="cls-2" d="m4.98,48.21c0-1.62-1.08-6.16,3.72-7.04,3.47-.64,3.69.13,5.67-.74,2.18-.96,1.45-1.88,1.64-2.03.34-.27,1.08.63,1.35,2.18.26,1.47-.07,3.43-2.03,4.59-1.96,1.15-4.06.34-6.16,1.08-2.1.74-.32,2.83-.27,3.38s-1.34,1.17-1.62.14c-.68-2.44-2.3-1.56-2.3-1.56Z"/>
      <path class="cls-4" d="m23.82,127.62h-3.68v2.82h7.47c.49,0,.66-1.11.23-1.35l-4.02-1.48Z"/>
      <path class="cls-4" d="m13,127.62h-3.68v2.82h7.47c.49,0,.66-1.11.23-1.35l-4.02-1.48Z"/>
    </g>
  </g>
</svg>