<?xml version="1.0" encoding="UTF-8"?>
<svg id="Layer_2" data-name="Layer 2" xmlns="http://www.w3.org/2000/svg" xmlns:xlink="http://www.w3.org/1999/xlink" viewBox="0 0 136.44 96.21">
  <defs>
    <style>
      .cls-1 {
        fill: #ffd3d2;
      }

      .cls-2 {
        fill: #fff;
      }

      .cls-3 {
        fill: #f4efe9;
      }

      .cls-4 {
        fill: #4396ca;
      }

      .cls-5 {
        fill: #f7682f;
      }

      .cls-6 {
        fill: #776df2;
      }

      .cls-7 {
        clip-path: url(#clippath);
      }

      .cls-8 {
        fill: #5757f3;
      }

      .cls-9 {
        fill: #7c84ff;
      }

      .cls-10 {
        fill: none;
      }

      .cls-11 {
        fill: #fe9249;
      }

      .cls-12 {
        fill: #2cbfc6;
      }
    </style>
    <clipPath id="clippath">
      <path class="cls-10" d="m122.91,7.59c-.63-1.55-2.14-2.56-3.81-2.56H14.54L6.15,25.57h124.11l-7.35-17.98Z"/>
    </clipPath>
  </defs>
  <g id="Layer_1-2" data-name="Layer 1">
    <g>
      <polygon class="cls-9" points="0 86.04 13.81 73.26 124.26 73.26 136.44 86.04 0 86.04"/>
      <path class="cls-6" d="m122.53,74.71H13.91c-1.79,0-3.25-1.5-3.25-3.36V3.36c0-1.85,1.45-3.36,3.25-3.36h108.62c1.79,0,3.25,1.5,3.25,3.36v68c0,1.85-1.45,3.36-3.25,3.36Z"/>
      <rect class="cls-12" x="15.13" y="5.24" width="106.18" height="66.67" rx="2.99" ry="2.99"/>
      <g>
        <path class="cls-11" d="m122.6,6.83c-.44-1.09-1.5-1.8-2.67-1.8H16.85c-1.4,0-2.65.84-3.18,2.14l-7.52,18.4h124.11l-7.66-18.75Z"/>
        <path class="cls-5" d="m10.13,32.22h-.08c-2.16,0-3.9-1.75-3.9-3.9v-2.75h7.88v2.75c0,2.16-1.75,3.9-3.9,3.9Z"/>
        <path class="cls-5" d="m26.55,32.22h-.09c-2.35,0-4.26-1.75-4.26-3.9v-2.75h8.61v2.75c0,2.16-1.91,3.9-4.26,3.9Z"/>
        <path class="cls-5" d="m43.04,32.22h-.09c-2.45,0-4.44-1.75-4.44-3.9v-2.75h8.97v2.75c0,2.16-1.99,3.9-4.44,3.9Z"/>
        <path class="cls-5" d="m59.79,32.22h-.09c-2.49,0-4.51-1.75-4.51-3.9v-2.75h9.11v2.75c0,2.16-2.02,3.9-4.51,3.9Z"/>
        <path class="cls-5" d="m76.58,32.22h-.09c-2.44,0-4.42-1.75-4.42-3.9v-2.75h8.93v2.75c0,2.16-1.98,3.9-4.42,3.9Z"/>
        <path class="cls-5" d="m93.11,32.22h-.09c-2.44,0-4.42-1.75-4.42-3.9v-2.75h8.93v2.75c0,2.16-1.98,3.9-4.42,3.9Z"/>
        <path class="cls-5" d="m109.83,32.22h-.09c-2.39,0-4.33-1.75-4.33-3.9v-2.75h8.75v2.75c0,2.16-1.94,3.9-4.33,3.9Z"/>
        <path class="cls-5" d="m126.28,32.22h-.08c-2.21,0-4.01-1.75-4.01-3.9v-2.75h8.1v2.75c0,2.16-1.8,3.9-4.01,3.9Z"/>
        <path class="cls-3" d="m18.16,32.22h-.08c-2.23,0-4.05-1.75-4.05-3.9v-2.75h8.17v2.75c0,2.16-1.81,3.9-4.05,3.9Z"/>
        <path class="cls-3" d="m34.7,32.22h-.08c-2.11,0-3.81-1.75-3.81-3.9v-2.75h7.7v2.75c0,2.16-1.71,3.9-3.81,3.9Z"/>
        <path class="cls-3" d="m51.39,32.22h-.08c-2.13,0-3.85-1.75-3.85-3.9v-2.75h7.78v2.75c0,2.16-1.72,3.9-3.85,3.9Z"/>
        <path class="cls-3" d="m68.24,32.22h-.08c-2.13,0-3.85-1.75-3.85-3.9v-2.75h7.78v2.75c0,2.16-1.72,3.9-3.85,3.9Z"/>
        <path class="cls-3" d="m84.82,32.22h-.08c-2.08,0-3.76-1.75-3.76-3.9v-2.75h7.59v2.75c0,2.16-1.68,3.9-3.76,3.9Z"/>
        <path class="cls-3" d="m101.53,32.22h-.08c-2.17,0-3.94-1.75-3.94-3.9v-2.75h7.96v2.75c0,2.16-1.76,3.9-3.94,3.9Z"/>
        <path class="cls-3" d="m118.24,32.22h-.08c-2.21,0-4.01-1.75-4.01-3.9v-2.75h8.1v2.75c0,2.16-1.8,3.9-4.01,3.9Z"/>
        <g class="cls-7">
          <rect class="cls-2" x="64.3" y="2.43" width="7.81" height="33.27"/>
          <polygon class="cls-2" points="54.13 34.64 46.4 33.51 50.92 .69 58.22 1.49 54.13 34.64"/>
          <polygon class="cls-2" points="36.79 33.25 29.23 31.31 38.11 -.9 44.26 1.05 36.79 33.25"/>
          <polygon class="cls-2" points="82.15 34.64 89.88 33.51 84.48 .55 77.89 1.63 82.15 34.64"/>
          <polygon class="cls-2" points="116.71 33.13 124.05 30.44 112.6 -.79 105.96 1.7 116.71 33.13"/>
          <polygon class="cls-2" points="19.61 33.13 12.28 30.44 23.73 -.79 30.37 1.7 19.61 33.13"/>
          <polygon class="cls-2" points="99.49 33.25 107.05 31.31 98.15 -.76 91.2 1.03 99.49 33.25"/>
        </g>
      </g>
      <path class="cls-1" d="m69.44,2.19c0,.67-.55,1.22-1.22,1.22s-1.22-.55-1.22-1.22.55-1.22,1.22-1.22,1.22.55,1.22,1.22Z"/>
      <g>
        <path class="cls-2" d="m61.94,61.98h12.36c1.52,0,2.76-1.24,2.76-2.76v-.04c0-1.52-1.24-2.76-2.76-2.76h-12.36c-.4,0-.72.32-.72.72s.32.72.72.72h12.36c.73,0,1.32.59,1.32,1.32v.04c0,.73-.59,1.32-1.32,1.32h-12.36c-.4,0-.72.32-.72.72s.32.72.72.72Z"/>
        <path class="cls-2" d="m75.57,57.85c.23,0,.45-.15.52-.38l3.78-12.49h-21.08l2.39,12.44c.06.29.34.49.63.43.29-.06.49-.34.43-.63l-2.14-11.15h18.31l-3.36,11.1c-.09.29.08.59.36.67.05.02.1.02.16.02Z"/>
        <path class="cls-2" d="m79.13,46.05c.22,0,.43-.14.51-.36l1.21-3.38h2.73c.3,0,.54-.24.54-.54s-.24-.54-.54-.54h-3.49l-1.46,4.1c-.1.28.05.59.33.69.06.02.12.03.18.03Z"/>
        <path class="cls-2" d="m83.58,42.67h2.93c.5,0,.9-.4.9-.9s-.4-.9-.9-.9h-2.93c-.5,0-.9.4-.9.9s.4.9.9.9Z"/>
        <path class="cls-2" d="m72.16,64.91c0,1.37,1.11,2.48,2.48,2.48s2.48-1.11,2.48-2.48-1.11-2.48-2.48-2.48-2.48,1.11-2.48,2.48Z"/>
        <path class="cls-2" d="m60.5,64.91c0,1.37,1.11,2.48,2.48,2.48s2.48-1.11,2.48-2.48-1.11-2.48-2.48-2.48-2.48,1.11-2.48,2.48Z"/>
        <path class="cls-4" d="m73.48,64.91c0,.64.52,1.16,1.16,1.16s1.16-.52,1.16-1.16-.52-1.16-1.16-1.16-1.16.52-1.16,1.16Z"/>
        <path class="cls-4" d="m61.71,64.91c0,.64.52,1.16,1.16,1.16s1.16-.52,1.16-1.16-.52-1.16-1.16-1.16-1.16.52-1.16,1.16Z"/>
        <path class="cls-2" d="m73.08,57.55c.26,0,.49-.19.53-.45l1.92-11.06c.05-.29-.15-.57-.44-.63-.29-.05-.57.15-.63.44l-1.92,11.06c-.05.29.15.57.44.63.03,0,.06,0,.09,0Z"/>
        <path class="cls-2" d="m70.37,57.31c.28,0,.52-.22.54-.51l.72-10.94c.02-.3-.21-.56-.5-.58-.3-.02-.56.21-.57.5l-.72,10.93c-.02.3.21.56.5.58.01,0,.02,0,.04,0Z"/>
        <path class="cls-2" d="m64.72,57.55s.06,0,.08,0c.3-.05.5-.32.45-.62l-1.74-11.06c-.05-.3-.32-.5-.62-.45-.29.05-.5.32-.45.62l1.74,11.06c.04.27.27.46.53.46Z"/>
        <path class="cls-2" d="m67.61,57.31s.02,0,.03,0c.3-.01.53-.27.51-.57l-.54-10.93c-.01-.3-.27-.53-.57-.51-.3.01-.53.27-.51.57l.54,10.93c.01.29.25.51.54.51Z"/>
        <path class="cls-2" d="m60.64,49.86h17.3c.3,0,.54-.24.54-.54s-.24-.54-.54-.54h-17.3c-.3,0-.54.24-.54.54s.24.54.54.54Z"/>
        <path class="cls-2" d="m61.24,53.71h15.26c.3,0,.54-.24.54-.54s-.24-.54-.54-.54h-15.26c-.3,0-.54.24-.54.54s.24.54.54.54Z"/>
      </g>
      <path class="cls-8" d="m129.45,96.21H6.99c-3.86,0-6.99-3.13-6.99-6.99v-3.18h136.44v3.18c0,3.86-3.13,6.99-6.99,6.99Z"/>
      <path class="cls-1" d="m44.67,74.68c0,.67-.55,1.22-1.22,1.22h-13.81c-.67,0-1.22-.55-1.22-1.22h0c0-.67.55-1.22,1.22-1.22h13.81c.67,0,1.22.55,1.22,1.22h0Z"/>
      <path class="cls-1" d="m110.05,74.68c0,.67-.55,1.22-1.22,1.22h-13.81c-.67,0-1.22-.55-1.22-1.22h0c0-.67.55-1.22,1.22-1.22h13.81c.67,0,1.22.55,1.22,1.22h0Z"/>
      <polygon class="cls-2" points="52.18 84.21 56.72 80.01 80.26 80.01 84.26 84.21 52.18 84.21"/>
      <rect class="cls-2" x="64.67" y="77.43" width="7.61" height=".41"/>
      <g>
        <rect class="cls-2" x="9.14" y="82.89" width="8.53" height=".41"/>
        <rect class="cls-2" x="16.35" y="77.43" width="7.61" height=".41"/>
        <rect class="cls-2" x="13.1" y="79.92" width="7.61" height=".41"/>
        <rect class="cls-2" x="31.17" y="77.43" width="7.61" height=".41"/>
        <rect class="cls-2" x="27.31" y="79.92" width="7.61" height=".41"/>
        <rect class="cls-2" x="36.55" y="82.89" width="8.53" height=".41"/>
        <rect class="cls-2" x="45.59" y="77.43" width="7.61" height=".41"/>
        <rect class="cls-2" x="41.73" y="79.92" width="7.61" height=".41"/>
        <rect class="cls-2" x="22.94" y="83.5" width="8.53" height=".41"/>
      </g>
      <g>
        <rect class="cls-2" x="120.2" y="82.89" width="8.53" height=".41"/>
        <rect class="cls-2" x="113.9" y="77.43" width="7.61" height=".41"/>
        <rect class="cls-2" x="117.15" y="79.92" width="7.61" height=".41"/>
        <rect class="cls-2" x="99.08" y="77.43" width="7.61" height=".41"/>
        <rect class="cls-2" x="102.94" y="79.92" width="7.61" height=".41"/>
        <rect class="cls-2" x="92.79" y="82.89" width="8.53" height=".41"/>
        <rect class="cls-2" x="84.67" y="77.43" width="7.61" height=".41"/>
        <rect class="cls-2" x="88.52" y="79.92" width="7.61" height=".41"/>
        <rect class="cls-2" x="106.39" y="83.5" width="8.53" height=".41"/>
      </g>
    </g>
  </g>
</svg>