<?xml version="1.0" encoding="UTF-8"?>
<svg id="Layer_2" data-name="Layer 2" xmlns="http://www.w3.org/2000/svg" xmlns:xlink="http://www.w3.org/1999/xlink" viewBox="0 0 100.96 138.81">
  <defs>
    <style>
      .cls-1 {
        fill: #ffd3d2;
      }

      .cls-2 {
        fill: #fff;
      }

      .cls-3 {
        fill: #ff4f4f;
      }

      .cls-4 {
        fill: #4396ca;
      }

      .cls-5 {
        clip-path: url(#clippath-2);
      }

      .cls-6 {
        clip-path: url(#clippath-1);
      }

      .cls-7 {
        clip-path: url(#clippath-4);
      }

      .cls-8 {
        fill: #189d9a;
      }

      .cls-9 {
        fill: #fe924a;
      }

      .cls-10 {
        fill: #6855ef;
      }

      .cls-11 {
        clip-path: url(#clippath);
      }

      .cls-12 {
        fill: none;
      }

      .cls-13 {
        fill: #2cbfc6;
      }

      .cls-14 {
        clip-path: url(#clippath-3);
      }

      .cls-15 {
        fill: #2cc1c7;
      }

      .cls-16 {
        fill: #7b83ff;
      }

      .cls-17 {
        fill: #5555f3;
      }
    </style>
    <clipPath id="clippath">
      <path class="cls-12" d="m23.78,78.3l-11.37,3.4c-1.17.35-2.4-.31-2.75-1.49l-6.45-15.93c-.35-1.17.31-2.4,1.48-2.75l14.31-5.09c1.17-.35,3.22,1.53,3.57,2.7l2.71,16.4c.35,1.17-.31,2.4-1.49,2.75Z"/>
    </clipPath>
    <clipPath id="clippath-1">
      <path class="cls-9" d="m14.71,51.37c0,3.03-2.45,5.48-5.48,5.48s-5.48-2.45-5.48-5.48,2.45-5.48,5.48-5.48,5.48,2.45,5.48,5.48Z"/>
    </clipPath>
    <clipPath id="clippath-2">
      <rect class="cls-12" x="23.24" y="47.04" width="77.65" height="42.57" rx="3.72" ry="3.72"/>
    </clipPath>
    <clipPath id="clippath-3">
      <path class="cls-12" d="m81.65,47.3h-44.65c-1.31,0-2.36-1.02-2.36-2.27v-23.31c0-1.26,1.06-2.27,2.36-2.27h44.65c1.31,0,2.36,1.02,2.36,2.27v23.31c0,1.26-1.06,2.27-2.36,2.27Z"/>
    </clipPath>
    <clipPath id="clippath-4">
      <rect class="cls-12" x="56.64" width="20.59" height="19.59" rx="1.6" ry="1.6"/>
    </clipPath>
  </defs>
  <g id="Layer_1-2" data-name="Layer 1">
    <g>
      <path class="cls-16" d="m13.11,87.23l21.4-.03v48.37s-4.24,0-4.24,0c0,0-3.21-23.86-4.42-37.05h-2.94l.19,18.77-17.23,15.09-2.3-3.87,11.45-14.83s-2.16-19.17-2.1-22.48c-.11-.54.2-3.96.2-3.96Z"/>
      <path class="cls-15" d="m32.68,87.81l-18.87-.6c-1.17.35-2.4-.31-2.75-1.49l-7.85-21.44c-.35-1.17.31-2.4,1.48-2.75l14.31-5.09c1.17-.35,3.22,1.53,3.57,2.7l11.61,25.91c.35,1.17-.31,2.4-1.48,2.75Z"/>
      <path class="cls-15" d="m16.27,63.62l12.83,2.25,1.22-6.98-10.46-2.5c-.7-.12-1.51.42-1.65,1.11l-1.94,6.13Z"/>
      <path class="cls-17" d="m81.65,47.3h-44.65c-1.31,0-2.36-1.02-2.36-2.27v-23.31c0-1.26,1.06-2.27,2.36-2.27h44.65c1.31,0,2.36,1.02,2.36,2.27v23.31c0,1.26-1.06,2.27-2.36,2.27Z"/>
      <rect class="cls-13" x="56.64" width="20.59" height="19.59" rx="1.6" ry="1.6"/>
      <g>
        <path class="cls-3" d="m77.47,98.95c0,3.47-2.81,6.28-6.28,6.28s-6.28-2.81-6.28-6.28,2.81-6.28,6.28-6.28,6.28,2.81,6.28,6.28Z"/>
        <polygon class="cls-2" points="71.19 94.43 72.52 97.13 75.51 97.57 73.35 99.68 73.86 102.65 71.19 101.25 68.51 102.65 69.02 99.68 66.86 97.57 69.85 97.13 71.19 94.43"/>
      </g>
      <path class="cls-9" d="m.94,71.43c-.54.81,2.95,12.5,5.56,17.63,1.14,2.25,13.3,1.7,14.94,1.56,2.33-.2,5.55,1.29,7.85-.07,2.3-1.35,2.17-2.3-2.57-2.17-4.74.14-3.46.5-5.72,0-5.68-1.25-7.49-2.09-9.67-3.83-1.67-1.33-4.5-13.83-4.5-13.83l-5.9.71Z"/>
      <rect class="cls-3" x="23.24" y="47.04" width="77.65" height="42.57" rx="3.72" ry="3.72"/>
      <path class="cls-8" d="m10,65.06c.13,2.68-1,10.67-1,10.67l-9-.5s.73-7.96,2-10.5c1.11-2.21,2-3,4.83-2.83,2.58.15,3.11,2.05,3.17,3.17Z"/>
      <path class="cls-9" d="m23.47,88.49c2.36.26,4.06-1.32,3.86-.41-.18.79-2.33,1.73-2.33,1.73l-1.52-1.32Z"/>
      <path class="cls-4" d="m19.44,62.08c.12.48-.17.97-.64,1.09l-2.86.73c-.48.12-.97-.17-1.09-.64h0c-.12-.48.16-.97.64-1.09l2.86-.73c.48-.12.97.16,1.09.64h0Z"/>
      <g class="cls-11">
        <path class="cls-9" d="m15.11,57.05c0,2.06-1.67,3.72-3.72,3.72s-3.72-1.67-3.72-3.72,1.67-3.72,3.72-3.72,3.72,1.67,3.72,3.72Z"/>
      </g>
      <rect class="cls-9" x="8.84" y="52.91" width="4.49" height="7.01" transform="translate(-18.46 7.09) rotate(-19.81)"/>
      <g>
        <path class="cls-9" d="m14.71,51.37c0,3.03-2.45,5.48-5.48,5.48s-5.48-2.45-5.48-5.48,2.45-5.48,5.48-5.48,5.48,2.45,5.48,5.48Z"/>
        <g class="cls-6">
          <path class="cls-10" d="m3.47,52.79l12.45-4.33s-4.2-6.77-10.83-2.44c-6.63,4.33-1.62,6.77-1.62,6.77Z"/>
        </g>
      </g>
      <path class="cls-9" d="m5.91,54.51c0,.8-.65,1.46-1.46,1.46s-1.46-.65-1.46-1.46.65-1.46,1.46-1.46,1.46.65,1.46,1.46Z"/>
      <path class="cls-15" d="m14.17,49.07s5.75.47,4.53,2.37c-1.22,1.9-14.75,1.22-14.75,1.22l10.22-3.59Z"/>
      <g>
        <path class="cls-1" d="m100.96,32.85c0,3.54-2.87,6.42-6.42,6.42s-6.42-2.87-6.42-6.42,2.87-6.42,6.42-6.42,6.42,2.87,6.42,6.42Z"/>
        <path class="cls-2" d="m97.36,30.53c-.96-.52-2.22.13-2.81,1.03-.59-.89-1.91-1.54-2.87-1.03-1.02.55-1.26,1.61-.71,2.62.55,1.02,3.58,3.49,3.59,3.46,0,.03,3.04-2.45,3.59-3.46.55-1.02.24-2.08-.78-2.62Z"/>
      </g>
      <g>
        <path class="cls-15" d="m44.45,8.87c0,2.65-2.15,4.79-4.79,4.79s-4.79-2.15-4.79-4.79,2.15-4.79,4.79-4.79,4.79,2.15,4.79,4.79Z"/>
        <g>
          <rect class="cls-2" x="39.11" y="6.21" width="1.09" height="5.31"/>
          <rect class="cls-2" x="37.01" y="8.32" width="5.31" height="1.09"/>
        </g>
      </g>
      <g class="cls-5">
        <rect class="cls-2" x="21.07" y="53.53" width="89.88" height=".41"/>
        <rect class="cls-2" x="92.1" y="53.9" width=".41" height="43.04"/>
        <rect class="cls-2" x="32.17" y="53.9" width=".41" height="43.04"/>
      </g>
      <g class="cls-14">
        <rect class="cls-2" x="32.51" y="37.02" width="54.01" height=".41"/>
        <rect class="cls-2" x="32.51" y="39.05" width="54.01" height=".41"/>
      </g>
      <g class="cls-7">
        <rect class="cls-2" x="71.49" y="-3.79" width=".41" height="28.43"/>
      </g>
      <g>
        <path class="cls-2" d="m36.04,74.23v-7.14h2.76c1.2,0,2.1.36,2.69,1.07.6.71.89,1.53.89,2.47,0,1.07-.32,1.93-.96,2.6-.64.67-1.47,1-2.49,1h-2.9Zm2.19-1.64h.57c.36,0,.67-.18.92-.53.25-.35.37-.83.37-1.44,0-.52-.11-.97-.33-1.34-.22-.38-.54-.56-.96-.56h-.57v3.87Z"/>
        <path class="cls-2" d="m49,72.53v1.7h-5.37v-7.14h5.37v1.65h-3.22v1.03h2.6v1.58h-2.6v1.17h3.22Z"/>
        <path class="cls-2" d="m55.62,72.48v1.75h-5v-7.14h2.19v5.38h2.81Z"/>
        <path class="cls-2" d="m59.32,67.1v7.14h-2.19v-7.14h2.19Z"/>
        <path class="cls-2" d="m67.49,67.1l-2.21,7.14h-2.23l-2.32-7.14h2.31l1.13,3.89c.08.23.15.46.2.68l1.32-4.57h1.8Z"/>
        <path class="cls-2" d="m74.06,72.53v1.7h-5.37v-7.14h5.37v1.65h-3.22v1.03h2.6v1.58h-2.6v1.17h3.22Z"/>
        <path class="cls-2" d="m82.24,74.23h-2.43l-1.04-2.73h-.69v2.73h-2.19v-7.14h3.73c.82,0,1.46.19,1.92.58.45.39.68.89.68,1.52,0,.41-.08.77-.25,1.09-.17.32-.51.59-1.01.83l1.29,3.11Zm-4.16-4.26h.94c.28,0,.5-.06.66-.17.17-.11.25-.28.25-.51,0-.46-.28-.69-.84-.69h-1.01v1.36Z"/>
        <path class="cls-2" d="m89.3,67.1l-2.23,4.11v3.02h-2.13v-3.02l-2.4-4.11h2.4l1.25,2.35,1.2-2.35h1.92Z"/>
      </g>
      <path class="cls-17" d="m34.57,135.5h-4.31v3.31h8.74c.58,0,.78-1.3.27-1.58l-4.7-1.73Z"/>
      <path class="cls-17" d="m5.95,132.09l-2.39-3.59-2.75,1.83,4.84,7.28c.32.48,1.51-.07,1.46-.65l-1.16-4.87Z"/>
    </g>
  </g>
</svg>