<?xml version="1.0" encoding="UTF-8"?>
<svg id="Layer_2" data-name="Layer 2" xmlns="http://www.w3.org/2000/svg" viewBox="0 0 697.98 569.71">
  <defs>
    <style>
      .cls-1 {
        fill: #73c497;
      }

      .cls-2 {
        fill: #fde882;
      }

      .cls-3 {
        fill: #f9f38b;
      }

      .cls-4 {
        fill: #fdfad0;
      }

      .cls-5 {
        fill: #fad100;
      }

      .cls-6 {
        fill: #faf495;
      }

      .cls-7 {
        fill: #acd350;
      }

      .cls-8 {
        fill: #199e54;
      }

      .cls-9 {
        fill: #f6eb3a;
      }

      .cls-10 {
        fill: #87bf02;
      }

      .cls-11 {
        fill: #2e0f07;
      }

      .cls-12 {
        fill: #ee682f;
      }

      .cls-13 {
        fill: #fef2ba;
      }

      .cls-14 {
        fill: #e2f0c2;
      }

      .cls-15 {
        fill: #a5e9e7;
      }
    </style>
  </defs>
  <g id="Objects">
    <g id="Objects_5" data-name="Objects 5">
      <g>
        <path class="cls-15" d="m650.56,284.86c-6.49,379.84-571.49,379.78-577.92-.01,6.49-379.83,571.49-379.77,577.92.01Z"/>
        <g>
          <path class="cls-11" d="m68.88,507.46H29.75c-1.35,0-2.44-1.09-2.44-2.44s1.09-2.44,2.44-2.44h39.13c3.15-.05,3.17,4.92,0,4.87Z"/>
          <path class="cls-11" d="m312.4,507.46h-39.13c-1.35,0-2.44-1.09-2.44-2.44s1.09-2.44,2.44-2.44h39.13c3.15-.05,3.17,4.92,0,4.87Z"/>
          <path class="cls-11" d="m250.99,507.46H94.47c-1.35,0-2.44-1.09-2.44-2.44s1.09-2.44,2.44-2.44h156.52c3.12-.05,3.19,4.92,0,4.87Z"/>
          <path class="cls-11" d="m664.83,507.46c-2.57-2.41-380.63,4.63-380.2-2.43-.6-7.09,377.8-.02,380.2-2.45,3.05-.04,3.24,4.93,0,4.88Z"/>
        </g>
      </g>
      <path class="cls-9" d="m545.9,179.83c6.18-.79,5.51-9.45-3.81-7.92v-53c3.01.19,7.84.25,7.77-3.96.07-4.21-4.76-4.15-7.77-3.96.19-3.01.25-7.84-3.96-7.77-4.21-.07-4.15,4.76-3.96,7.77h-53c.19-3.01.25-7.84-3.96-7.77-4.21-.07-4.15,4.76-3.96,7.77h-53c.19-3.01.25-7.84-3.96-7.77-4.21-.07-4.15,4.76-3.96,7.77h-53c.19-3.01.25-7.84-3.96-7.77-4.21-.07-4.15,4.76-3.96,7.77h-53c.19-3.01.25-7.84-3.96-7.77-4.21-.07-4.15,4.76-3.96,7.77h-53c.19-3.01.25-7.84-3.96-7.77-4.21-.07-4.15,4.76-3.96,7.77h-53c.19-3.01.25-7.84-3.96-7.77-4.21-.07-4.15,4.76-3.96,7.77-3.01-.19-7.84-.25-7.77,3.96-.07,4.21,4.76,4.15,7.77,3.96v53c-3.01-.19-7.84-.25-7.77,3.96-.07,4.21,4.76,4.15,7.77,3.96v53c-3.01-.19-7.84-.25-7.77,3.96-.07,4.21,4.76,4.15,7.77,3.96v53c-3.01-.19-7.84-.25-7.77,3.96-.07,4.21,4.76,4.15,7.77,3.96v53c-3.01-.19-7.84-.25-7.77,3.96-.07,4.21,4.76,4.15,7.77,3.96v53c-3.01-.19-7.84-.25-7.77,3.96-.07,4.21,4.76,4.15,7.77,3.96v53c-3.01-.19-7.84-.25-7.77,3.96-.07,4.21,4.76,4.15,7.77,3.96-.19,3.01-.25,7.84,3.96,7.77,4.21.07,4.15-4.76,3.96-7.77h53c-.19,3.01-.25,7.84,3.96,7.77,4.21.07,4.15-4.76,3.96-7.77h53c-.19,3.01-.25,7.84,3.96,7.77,4.21.07,4.15-4.76,3.96-7.77h53c-.19,3.01-.25,7.84,3.96,7.77,4.21.07,4.15-4.76,3.96-7.77h53c-.19,3.01-.25,7.84,3.96,7.77,4.21.07,4.15-4.76,3.96-7.77h53c-.19,3.01-.25,7.84,3.96,7.77,4.21.07,4.15-4.76,3.96-7.77h53c-.19,3.01-.25,7.84,3.96,7.77,4.21.07,4.15-4.76,3.96-7.77,3.01.19,7.84.25,7.77-3.96.07-4.21-4.76-4.15-7.77-3.96v-53c3.01.19,7.84.25,7.77-3.96.07-4.21-4.76-4.15-7.77-3.96v-53c3.01.19,7.84.25,7.77-3.96.07-4.21-4.76-4.15-7.77-3.96v-53c3.01.19,7.84.25,7.77-3.96.07-4.21-4.76-4.15-7.77-3.96v-53c3.01.19,7.84.25,7.77-3.96.07-4.21-4.76-4.15-7.77-3.96v-53h3.81Zm-11.73-60.92v53h-53v-53h53Zm-60.92,0v53h-53v-53h53Zm-121.85,182.77v53h-53v-53h53Zm-53-7.92v-53h53v53h-53Zm60.92,7.92h53v53h-53v-53Zm0-7.92v-53h53v53h-53Zm0-60.92v-53h53v53h-53Zm-7.92,0h-53v-53h53v53Zm-60.92,0h-53v-53h53v53Zm0,7.92v53h-53v-53h53Zm0,60.92v53h-53v-53h53Zm0,60.92v53h-53v-53h53Zm7.92,0h53v53h-53v-53Zm60.92,0h53v53h-53v-53Zm60.92,0h53v53h-53v-53Zm0-7.92v-53h53v53h-53Zm0-60.92v-53h53v53h-53Zm0-60.92v-53h53v53h-53Zm-7.92-113.93v53h-53v-53h53Zm-60.92,0v53h-53v-53h53Zm-60.92,0v53h-53v-53h53Zm-113.93,0h53v53h-53v-53Zm0,60.92h53v53h-53v-53Zm0,60.92h53v53h-53v-53Zm0,60.92h53v53h-53v-53Zm0,60.92h53v53h-53v-53Zm0,113.93v-53h53v53h-53Zm60.92,0v-53h53v53h-53Zm60.92,0v-53h53v53h-53Zm60.92,0v-53h53v53h-53Zm60.92,0v-53h53v53h-53Zm113.93,0h-53v-53h53v53Zm0-60.92h-53v-53h53v53Zm0-60.92h-53v-53h53v53Zm0-60.92h-53v-53h53v53Zm0-60.92h-53v-53h53v53Z"/>
      <g>
        <g>
          <rect class="cls-5" x="456.33" y="417.58" width="139.73" height="28.58"/>
          <path class="cls-3" d="m528.1,417.58h-71.77v28.58h40.02c12.34-7.85,23.49-17.54,31.76-28.58Z"/>
          <path class="cls-9" d="m528.1,417.58c-8.27,11.04-19.42,20.73-31.76,28.58h54.15c9.28-8.51,17.55-18.1,24.54-28.58h-46.93Z"/>
          <path class="cls-11" d="m596.06,450.12h-139.73c-2.19,0-3.96-1.77-3.96-3.96v-28.58c0-2.19,1.77-3.96,3.96-3.96h139.73c2.19,0,3.96,1.77,3.96,3.96v28.58c0,2.19-1.77,3.96-3.96,3.96Zm-135.77-7.92h131.81v-20.66h-131.81v20.66Z"/>
        </g>
        <g>
          <rect class="cls-5" x="456.33" y="446.17" width="139.73" height="28.58"/>
          <path class="cls-3" d="m528.1,446.17h-71.77v28.58h40.02c12.34-7.85,23.49-17.54,31.76-28.58Z"/>
          <path class="cls-9" d="m528.1,446.17c-8.27,11.04-19.42,20.73-31.76,28.58h54.15c9.28-8.51,17.55-18.1,24.54-28.58h-46.93Z"/>
          <path class="cls-11" d="m596.06,478.71h-139.73c-2.19,0-3.96-1.77-3.96-3.96v-28.58c0-2.19,1.77-3.96,3.96-3.96h139.73c2.19,0,3.96,1.77,3.96,3.96v28.58c0,2.19-1.77,3.96-3.96,3.96Zm-135.77-7.92h131.81v-20.66h-131.81v20.66Z"/>
        </g>
        <g>
          <rect class="cls-5" x="434.88" y="474.76" width="139.73" height="28.58"/>
          <path class="cls-3" d="m506.65,474.76h-71.77v28.58h40.02c12.34-7.85,23.49-17.54,31.76-28.58Z"/>
          <path class="cls-9" d="m506.65,474.76c-8.27,11.04-19.42,20.73-31.76,28.58h54.15c9.28-8.51,17.55-18.1,24.54-28.58h-46.93Z"/>
          <path class="cls-11" d="m574.61,507.3h-139.73c-2.19,0-3.96-1.77-3.96-3.96v-28.58c0-2.19,1.77-3.96,3.96-3.96h139.73c2.19,0,3.96,1.77,3.96,3.96v28.58c0,2.19-1.77,3.96-3.96,3.96Zm-135.77-7.92h131.81v-20.66h-131.81v20.66Z"/>
        </g>
      </g>
      <g>
        <path class="cls-7" d="m594.39,137.24l-60.63,11.55c-6.94,1.32-9.16,9.87-4.14,15.9l6.99,8.39-150.4,116.98-89.16-93.11c-7.05-4.49-16.24-3.63-22.34,2.09l-104.8,98.45c-7.36,6.91-7.72,18.48-.81,25.83,6.92,7.37,18.49,7.71,25.83.81l94.44-88.72,88.05,92.4c6.52,4.15,14.94,3.76,21.04-.99l161.54-125.64,9.13,10.96c5.1,6.12,14.05,5.35,16.47-1.41l21.11-59c2.66-7.45-4.59-15.97-12.34-14.49Z"/>
        <path class="cls-14" d="m576.53,153.71c.19,12.56-19.77,12.56-19.58,0-.19-12.56,19.77-12.56,19.58,0Z"/>
        <path class="cls-14" d="m247.58,243.45c-32.76,29.82-36.72,25.46-3.84-4.23,32.76-29.82,36.72-25.46,3.84,4.23Z"/>
        <path class="cls-14" d="m484.06,230.52c-50.96,39.49-54.57,34.83-3.5-4.52,50.96-39.49,54.57-34.83,3.5,4.52Z"/>
        <path class="cls-10" d="m168.17,299.37c-9.76,11.16-.49,30.31,14.25,29.72,10.65,3.3,60.47-52.45,68.48-57.53-25.08,15.51-53.1,25.49-82.73,27.81Z"/>
        <path class="cls-10" d="m574.3,198.35c-3.85,2.24-7.78,4.15-11.73,5.91l6.5,7.81c1.35-1.3,2.69-2.62,4.01-3.96-1.32,1.34-2.66,2.66-4.01,3.96,5.05,6.18,14.11,5.48,16.54-1.33l11.12-31.07c-6.32,7.09-13.59,13.39-22.43,18.69Z"/>
        <path class="cls-10" d="m356.29,305.63l21.13,22.18c6.52,4.15,14.94,3.76,21.04-.99l62.61-48.69c-37.15,13.13-61.55,43.53-104.78,27.5Z"/>
        <path class="cls-11" d="m387.24,334.63c-9.2,8.24-91.53-90-98.02-93.63l-91.58,86.03c-13.5,13.62-38.76,2.26-37.45-16.9-7.33-10.84,106.63-105.78,111.8-113.96,7.42-6.97,18.6-8.01,27.18-2.54,1.01.44,86.56,90.49,87.42,91.13l144.35-112.27c-9.24-8.38-12.58-23.52,2.07-27.57,0,0,60.63-11.55,60.63-11.55,10.33-2.35,20.74,9.88,16.81,19.72,0,0-21.11,59-21.11,59-3.4,9.97-17.03,10.67-23.24,2.61,0,0-6.68-8.02-6.68-8.02-5.27,1.91-168.06,136.58-172.18,127.96Zm-7.3-9.92c5.04,2.99,11.45,2.61,16.1-1.01l161.54-125.64c1.68-1.31,4.11-1.05,5.47.59,2.76,2.78,10.6,15.44,15.45,13.61,4.07,3.17,22.83-60.68,24.49-61.87.91-2.54-.21-5.13-1.57-6.71-1.34-1.56-3.7-3.05-6.3-2.56-1.92,1.51-66.19,10.06-63.96,14.39-3.47,7.37,14.23,14.24,7.86,20.69,0,0-150.4,116.98-150.4,116.98-1.6,1.25-3.89,1.08-5.29-.39l-88.81-92.74c-5.47-3.25-12.45-2.51-17.12,1.87l-104.8,98.45c-9.39,8.25-2.83,25.23,9.81,24.75,1.04,8.74,102.18-92.09,104.24-92.6,1.59-1.49,4.08-1.42,5.58.15l87.7,92.03Zm214.45-187.47h0,0Z"/>
      </g>
      <g>
        <g>
          <rect class="cls-5" x="273.77" y="359.7" width="139.73" height="28.58"/>
          <path class="cls-3" d="m345.54,359.7h-71.77v28.58h40.02c12.34-7.85,23.49-17.54,31.76-28.58Z"/>
          <path class="cls-9" d="m345.54,359.7c-8.27,11.04-19.42,20.73-31.76,28.58h54.15c9.28-8.51,17.55-18.1,24.54-28.58h-46.93Z"/>
          <path class="cls-11" d="m413.5,392.24h-139.73c-2.19,0-3.96-1.77-3.96-3.96v-28.58c0-2.19,1.77-3.96,3.96-3.96h139.73c2.19,0,3.96,1.77,3.96,3.96v28.58c0,2.19-1.77,3.96-3.96,3.96Zm-135.77-7.92h131.81v-20.66h-131.81v20.66Z"/>
        </g>
        <g>
          <rect class="cls-5" x="260.91" y="389.72" width="139.73" height="28.58"/>
          <path class="cls-3" d="m332.68,389.72h-71.77v28.58h40.02c12.34-7.85,23.49-17.54,31.76-28.58Z"/>
          <path class="cls-9" d="m332.68,389.72c-8.27,11.04-19.42,20.73-31.76,28.58h54.15c9.28-8.51,17.55-18.1,24.54-28.58h-46.93Z"/>
          <path class="cls-11" d="m400.64,422.26h-139.73c-2.19,0-3.96-1.77-3.96-3.96v-28.58c0-2.19,1.77-3.96,3.96-3.96h139.73c2.19,0,3.96,1.77,3.96,3.96v28.58c0,2.19-1.77,3.96-3.96,3.96Zm-135.77-7.92h131.81v-20.66h-131.81v20.66Z"/>
        </g>
        <g>
          <rect class="cls-5" x="288.07" y="418.31" width="139.73" height="28.58"/>
          <path class="cls-3" d="m359.84,418.31h-71.77v28.58h40.02c12.34-7.85,23.49-17.54,31.76-28.58Z"/>
          <path class="cls-9" d="m359.84,418.31c-8.27,11.04-19.42,20.73-31.76,28.58h54.15c9.28-8.51,17.55-18.1,24.54-28.58h-46.93Z"/>
          <path class="cls-11" d="m427.8,450.85h-139.73c-2.19,0-3.96-1.77-3.96-3.96v-28.58c0-2.19,1.77-3.96,3.96-3.96h139.73c2.19,0,3.96,1.77,3.96,3.96v28.58c0,2.19-1.77,3.96-3.96,3.96Zm-135.77-7.92h131.81v-20.66h-131.81v20.66Z"/>
        </g>
        <g>
          <rect class="cls-5" x="288.07" y="446.9" width="139.73" height="28.58"/>
          <path class="cls-3" d="m359.84,446.9h-71.77v28.58h40.02c12.34-7.85,23.49-17.54,31.76-28.58Z"/>
          <path class="cls-9" d="m359.84,446.9c-8.27,11.04-19.42,20.73-31.76,28.58h54.15c9.28-8.51,17.55-18.1,24.54-28.58h-46.93Z"/>
          <path class="cls-11" d="m427.8,479.44h-139.73c-2.19,0-3.96-1.77-3.96-3.96v-28.58c0-2.19,1.77-3.96,3.96-3.96h139.73c2.19,0,3.96,1.77,3.96,3.96v28.58c0,2.19-1.77,3.96-3.96,3.96Zm-135.77-7.92h131.81v-20.66h-131.81v20.66Z"/>
        </g>
        <g>
          <rect class="cls-5" x="266.63" y="475.49" width="139.73" height="28.58"/>
          <path class="cls-3" d="m338.4,475.49h-71.77v28.58h40.02c12.34-7.85,23.49-17.54,31.76-28.58Z"/>
          <path class="cls-9" d="m338.4,475.49c-8.27,11.04-19.42,20.73-31.76,28.58h54.15c9.28-8.51,17.55-18.1,24.54-28.58h-46.93Z"/>
          <path class="cls-11" d="m406.36,508.03h-139.73c-2.19,0-3.96-1.77-3.96-3.96v-28.58c0-2.19,1.77-3.96,3.96-3.96h139.73c2.19,0,3.96,1.77,3.96,3.96v28.58c0,2.19-1.77,3.96-3.96,3.96Zm-135.77-7.92h131.81v-20.66h-131.81v20.66Z"/>
        </g>
      </g>
      <g>
        <path class="cls-9" d="m499.4,438.27c-1.48,86.46-131.59,86.45-133.06,0,1.48-86.46,131.59-86.44,133.06,0Z"/>
        <path class="cls-5" d="m481.89,393.8c-12.96,42.98-47.56,77.21-88.55,97.37,63.82,46.32,142.16-38.8,88.55-97.37Z"/>
        <g>
          <path class="cls-6" d="m475.45,438.27c-.95,55.33-84.22,55.33-85.16,0,.95-55.33,84.22-55.32,85.16,0Z"/>
          <path class="cls-11" d="m432.87,482.9c-59.29-1.06-59.28-88.21,0-89.26,59.29,1.06,59.28,88.21,0,89.26Zm0-84.2c-52.63.94-52.62,78.19,0,79.13,52.63-.94,52.62-78.19,0-79.13Z"/>
        </g>
        <path class="cls-4" d="m412.03,404.28c-.36,21.18-32.23,21.17-32.59,0,.36-21.18,32.23-21.17,32.59,0Z"/>
        <path class="cls-11" d="m428.93,470.39c-1.08-.83-.56-4.2-.68-5.47-7.02-.89-12.39-1.49-15.27-5.13.43-1.02,2.54-4.99,3.61-5.43,7.47,4.74,30.38,7.55,24.15-6.99-4.88-4.79-16.82-6.21-21.67-11.27-9.21-7.93-3.06-22.85,9.18-23.17.14-2.33-.91-6.84,2.86-6.47,6.07-.32,6.45.28,6.17,6.25,3.8.35,13.09,1.45,12.56,5.73-.52.57-2.34,4.37-3.16,4.39-5.12-3.1-14.8-4.97-20.05-1.67-3.49,2.39-3.2,9.51,1.32,11.08,4.38,2.08,13.74,5.07,17.34,7.59,11.52,7.1,5.85,24.95-8.01,25.1-.12,2.32.86,6.5-2.86,6.1-1.29-.1-4.61.36-5.49-.63Z"/>
        <path class="cls-11" d="m432.87,508.01c-92.65-1.66-92.63-137.83,0-139.48,92.64,1.66,92.63,137.83,0,139.48Zm0-131.56c-82.24,1.47-82.22,122.18,0,123.64,82.23-1.47,82.22-122.18,0-123.64Z"/>
      </g>
      <g>
        <path class="cls-10" d="m653.48,167.68c-3.03,0-5.48-2.45-5.48-5.48v-31.07c0-3.03,2.45-5.48,5.48-5.48s5.48,2.45,5.48,5.48v31.07c0,3.03-2.45,5.48-5.48,5.48Z"/>
        <path class="cls-10" d="m669.19,152.14h-31.43c-3.03,0-5.48-2.45-5.48-5.48s2.45-5.48,5.48-5.48h31.43c7.1-.1,7.12,11.07,0,10.97Z"/>
      </g>
      <g>
        <path class="cls-12" d="m572.88,102c-2.19,0-3.96-1.77-3.96-3.96v-20.98c0-2.19,1.77-3.96,3.96-3.96s3.96,1.77,3.96,3.96v20.98c0,2.19-1.77,3.96-3.96,3.96Z"/>
        <path class="cls-12" d="m583.86,91.51h-21.96c-2.19,0-3.96-1.77-3.96-3.96s1.77-3.96,3.96-3.96h21.96c5.13-.08,5.14,8,0,7.92Z"/>
      </g>
      <g>
        <path class="cls-12" d="m627.54,274.85c-2.19,0-3.96-1.77-3.96-3.96v-20.98c0-2.19,1.77-3.96,3.96-3.96s3.96,1.77,3.96,3.96v20.98c0,2.19-1.77,3.96-3.96,3.96Z"/>
        <path class="cls-12" d="m638.52,264.36h-21.96c-2.19,0-3.96-1.77-3.96-3.96s1.77-3.96,3.96-3.96h21.96c5.13-.08,5.14,8,0,7.92Z"/>
      </g>
      <g>
        <path class="cls-9" d="m137.75,168.5c-2.19,0-3.96-1.77-3.96-3.96v-20.98c0-2.19,1.77-3.96,3.96-3.96s3.96,1.77,3.96,3.96v20.98c0,2.19-1.77,3.96-3.96,3.96Z"/>
        <path class="cls-9" d="m148.73,158.01h-21.96c-2.19,0-3.96-1.77-3.96-3.96s1.77-3.96,3.96-3.96h21.96c5.13-.08,5.14,8,0,7.92Z"/>
      </g>
      <g>
        <path class="cls-9" d="m230.02,52.91c-2.19,0-3.96-1.77-3.96-3.96V13.54c0-2.19,1.77-3.96,3.96-3.96s3.96,1.77,3.96,3.96v35.41c0,2.19-1.77,3.96-3.96,3.96Z"/>
        <path class="cls-9" d="m248.55,35.2h-37.06c-5.13.08-5.15-8,0-7.92,0,0,37.06,0,37.06,0,5.13-.08,5.15,8,0,7.92Z"/>
      </g>
      <g>
        <g>
          <path class="cls-9" d="m611.87,401.01c-3.03,0-5.48-2.45-5.48-5.48v-44.51c0-3.03,2.45-5.48,5.48-5.48s5.48,2.45,5.48,5.48v44.51c0,3.03-2.45,5.48-5.48,5.48Z"/>
          <path class="cls-9" d="m634.38,378.76h-45.02c-7.1.1-7.12-11.07,0-10.97,0,0,45.02,0,45.02,0,7.1-.1,7.12,11.07,0,10.97Z"/>
        </g>
        <g>
          <path class="cls-9" d="m640.79,435.14c-2.19,0-3.96-1.77-3.96-3.96v-20.98c0-2.19,1.77-3.96,3.96-3.96s3.96,1.77,3.96,3.96v20.98c0,2.19-1.77,3.96-3.96,3.96Z"/>
          <path class="cls-9" d="m651.78,424.65h-21.96c-2.19,0-3.96-1.77-3.96-3.96s1.77-3.96,3.96-3.96h21.96c5.13-.08,5.14,8,0,7.92Z"/>
        </g>
      </g>
      <g>
        <path class="cls-10" d="m359.59,88.38c-2.19,0-3.96-1.77-3.96-3.96v-28.12c0-2.19,1.77-3.96,3.96-3.96s3.96,1.77,3.96,3.96v28.12c0,2.19-1.77,3.96-3.96,3.96Z"/>
        <path class="cls-10" d="m374.31,74.31h-29.44c-2.19,0-3.96-1.77-3.96-3.96s1.77-3.96,3.96-3.96h29.44c5.13-.08,5.14,8,0,7.92Z"/>
      </g>
      <g>
        <g>
          <rect class="cls-1" x="131.93" y="454.66" width="182.65" height="49.72" transform="translate(446.52 959.04) rotate(180)"/>
          <path class="cls-8" d="m291.54,489.83c7.76-.34,15.42-1.33,23.05-2.6v17.15h-182.65v-26.05c50.95,20.94,106.45,13.3,159.6,11.5Z"/>
          <path class="cls-11" d="m314.58,508.34h-182.65c-2.19,0-3.96-1.77-3.96-3.96v-49.72c0-2.19,1.77-3.96,3.96-3.96h182.65c2.19,0,3.96,1.77,3.96,3.96v49.72c0,2.19-1.77,3.96-3.96,3.96Zm-178.69-7.92h174.73v-41.8h-174.73v41.8Z"/>
          <rect class="cls-13" x="185.97" y="456.23" width="73.49" height="47.07" transform="translate(445.44 959.52) rotate(180)"/>
          <path class="cls-2" d="m259.46,491.43v11.87h-73.49v-13.44c24.35,2.52,49.26,5.01,73.49,1.58Z"/>
          <path class="cls-11" d="m259.46,507.26h-73.49c-2.19,0-3.96-1.77-3.96-3.96v-47.07c0-2.19,1.77-3.96,3.96-3.96h73.49c2.19,0,3.96,1.77,3.96,3.96v47.07c0,2.19-1.77,3.96-3.96,3.96Zm-69.53-7.92h65.57v-39.15h-65.57v39.15Z"/>
          <path class="cls-11" d="m244.3,502.81c-4.03,2.11-.89-46.43-1.83-47.15,0-1.01.82-1.83,1.83-1.83,4.03-2.11.89,46.43,1.83,47.15,0,1.01-.82,1.83-1.83,1.83Z"/>
          <path class="cls-11" d="m199.69,502.81c-4.03,2.11-.89-46.43-1.83-47.15,0-1.01.82-1.83,1.83-1.83,4.03-2.11.89,46.43,1.83,47.15,0,1.01-.82,1.83-1.83,1.83Z"/>
          <g>
            <path class="cls-11" d="m298.82,468.82h-21.95c-1.01,0-1.83-.82-1.83-1.83s.82-1.83,1.83-1.83h21.95c2.36-.03,2.38,3.69,0,3.66Z"/>
            <path class="cls-11" d="m291.74,483.69h-21.95c-1.01,0-1.83-.82-1.83-1.83s.82-1.83,1.83-1.83h21.95c2.36-.03,2.38,3.69,0,3.66Z"/>
            <path class="cls-11" d="m300.24,496.44h-21.95c-1.01,0-1.83-.82-1.83-1.83s.82-1.83,1.83-1.83h21.95c2.36-.03,2.38,3.69,0,3.66Z"/>
          </g>
          <g>
            <path class="cls-11" d="m169.25,468.82h-21.95c-1.01,0-1.83-.82-1.83-1.83s.82-1.83,1.83-1.83h21.95c2.36-.03,2.38,3.69,0,3.66Z"/>
            <path class="cls-11" d="m176.33,483.69h-21.95c-1.01,0-1.83-.82-1.83-1.83s.82-1.83,1.83-1.83h21.95c2.36-.03,2.38,3.69,0,3.66Z"/>
            <path class="cls-11" d="m167.84,496.44h-21.95c-1.01,0-1.83-.82-1.83-1.83s.82-1.83,1.83-1.83h21.95c2.36-.03,2.38,3.69,0,3.66Z"/>
          </g>
        </g>
        <g>
          <rect class="cls-1" x="108.12" y="404.64" width="182.65" height="49.72" transform="translate(398.88 859) rotate(180)"/>
          <path class="cls-8" d="m267.72,439.81c7.76-.34,15.42-1.33,23.05-2.6v17.15H108.12v-26.05c50.95,20.94,106.45,13.3,159.6,11.5Z"/>
          <path class="cls-11" d="m290.77,458.32H108.12c-2.19,0-3.96-1.77-3.96-3.96v-49.72c0-2.19,1.77-3.96,3.96-3.96h182.65c2.19,0,3.96,1.77,3.96,3.96v49.72c0,2.19-1.77,3.96-3.96,3.96Zm-178.69-7.92h174.73v-41.8H112.08v41.8Z"/>
          <rect class="cls-13" x="162.15" y="406.21" width="73.49" height="47.07" transform="translate(397.8 859.49) rotate(180)"/>
          <path class="cls-2" d="m235.65,441.41v11.87h-73.49v-13.44c24.35,2.52,49.26,5.01,73.49,1.58Z"/>
          <path class="cls-11" d="m235.65,457.24h-73.49c-2.19,0-3.96-1.77-3.96-3.96v-47.07c0-2.19,1.77-3.96,3.96-3.96h73.49c2.19,0,3.96,1.77,3.96,3.96v47.07c0,2.19-1.77,3.96-3.96,3.96Zm-69.53-7.92h65.57v-39.15h-65.57v39.15Z"/>
          <path class="cls-11" d="m220.48,452.8c-4.03,2.11-.89-46.44-1.83-47.15,0-1.01.82-1.83,1.83-1.83,4.03-2.11.89,46.44,1.83,47.15,0,1.01-.82,1.83-1.83,1.83Z"/>
          <path class="cls-11" d="m175.87,452.8c-4.03,2.11-.89-46.44-1.83-47.15,0-1.01.82-1.83,1.83-1.83,4.03-2.11.89,46.44,1.83,47.15,0,1.01-.82,1.83-1.83,1.83Z"/>
          <g>
            <path class="cls-11" d="m275.01,418.81h-21.95c-1.01,0-1.83-.82-1.83-1.83s.82-1.83,1.83-1.83h21.95c2.36-.03,2.38,3.69,0,3.66Z"/>
            <path class="cls-11" d="m267.92,433.68h-21.95c-1.01,0-1.83-.82-1.83-1.83s.82-1.83,1.83-1.83h21.95c2.36-.03,2.38,3.69,0,3.66Z"/>
            <path class="cls-11" d="m276.42,446.42h-21.95c-1.01,0-1.83-.82-1.83-1.83s.82-1.83,1.83-1.83h21.95c2.36-.03,2.38,3.69,0,3.66Z"/>
          </g>
          <g>
            <path class="cls-11" d="m145.44,418.81h-21.95c-1.01,0-1.83-.82-1.83-1.83s.82-1.83,1.83-1.83h21.95c2.36-.03,2.38,3.69,0,3.66Z"/>
            <path class="cls-11" d="m152.52,433.68h-21.95c-1.01,0-1.83-.82-1.83-1.83s.82-1.83,1.83-1.83h21.95c2.36-.03,2.38,3.69,0,3.66Z"/>
            <path class="cls-11" d="m144.02,446.42h-21.95c-1.01,0-1.83-.82-1.83-1.83s.82-1.83,1.83-1.83h21.95c2.36-.03,2.38,3.69,0,3.66Z"/>
          </g>
        </g>
        <g>
          <rect class="cls-1" x="125.58" y="354.63" width="182.65" height="49.72" transform="translate(433.81 758.97) rotate(180)"/>
          <path class="cls-8" d="m285.18,389.79c7.76-.34,15.42-1.33,23.05-2.6v17.15H125.58v-26.05c50.95,20.94,106.45,13.3,159.6,11.5Z"/>
          <path class="cls-11" d="m308.23,408.3H125.58c-2.19,0-3.96-1.77-3.96-3.96v-49.72c0-2.19,1.77-3.96,3.96-3.96h182.65c2.19,0,3.96,1.77,3.96,3.96v49.72c0,2.19-1.77,3.96-3.96,3.96Zm-178.69-7.92h174.73v-41.8h-174.73v41.8Z"/>
          <rect class="cls-13" x="179.62" y="356.19" width="73.49" height="47.07" transform="translate(432.73 759.45) rotate(180)"/>
          <path class="cls-2" d="m253.11,391.4v11.87h-73.49v-13.44c24.35,2.52,49.26,5.01,73.49,1.58Z"/>
          <path class="cls-11" d="m253.11,407.22h-73.49c-2.19,0-3.96-1.77-3.96-3.96v-47.07c0-2.19,1.77-3.96,3.96-3.96h73.49c2.19,0,3.96,1.77,3.96,3.96v47.07c0,2.19-1.77,3.96-3.96,3.96Zm-69.53-7.92h65.57v-39.15h-65.57v39.15Z"/>
          <path class="cls-11" d="m237.95,402.78c-4.03,2.11-.89-46.44-1.83-47.15,0-1.01.82-1.83,1.83-1.83,4.03-2.11.89,46.44,1.83,47.15,0,1.01-.82,1.83-1.83,1.83Z"/>
          <path class="cls-11" d="m193.34,402.78c-4.03,2.11-.89-46.44-1.83-47.15,0-1.01.82-1.83,1.83-1.83,4.03-2.11.89,46.44,1.83,47.15,0,1.01-.82,1.83-1.83,1.83Z"/>
          <g>
            <path class="cls-11" d="m292.47,368.79h-21.95c-1.01,0-1.83-.82-1.83-1.83s.82-1.83,1.83-1.83h21.95c2.36-.03,2.38,3.69,0,3.66Z"/>
            <path class="cls-11" d="m285.39,383.66h-21.95c-1.01,0-1.83-.82-1.83-1.83s.82-1.83,1.83-1.83h21.95c2.36-.03,2.38,3.69,0,3.66Z"/>
            <path class="cls-11" d="m293.89,396.41h-21.95c-1.01,0-1.83-.82-1.83-1.83s.82-1.83,1.83-1.83h21.95c2.36-.03,2.38,3.69,0,3.66Z"/>
          </g>
          <g>
            <path class="cls-11" d="m162.9,368.79h-21.95c-1.01,0-1.83-.82-1.83-1.83s.82-1.83,1.83-1.83h21.95c2.36-.03,2.38,3.69,0,3.66Z"/>
            <path class="cls-11" d="m169.98,383.66h-21.95c-1.01,0-1.83-.82-1.83-1.83s.82-1.83,1.83-1.83h21.95c2.36-.03,2.38,3.69,0,3.66Z"/>
            <path class="cls-11" d="m161.49,396.41h-21.95c-1.01,0-1.83-.82-1.83-1.83s.82-1.83,1.83-1.83h21.95c2.36-.03,2.38,3.69,0,3.66Z"/>
          </g>
        </g>
        <g>
          <rect class="cls-1" x="152.57" y="304.79" width="182.65" height="49.72" transform="translate(487.8 659.3) rotate(180)"/>
          <path class="cls-8" d="m312.18,339.96c7.76-.34,15.42-1.33,23.05-2.6v17.15h-182.65v-26.05c50.95,20.94,106.45,13.3,159.6,11.5Z"/>
          <path class="cls-11" d="m335.23,358.47h-182.65c-2.19,0-3.96-1.77-3.96-3.96v-49.72c0-2.19,1.77-3.96,3.96-3.96h182.65c2.19,0,3.96,1.77,3.96,3.96v49.72c0,2.19-1.77,3.96-3.96,3.96Zm-178.69-7.92h174.73v-41.8h-174.73v41.8Z"/>
          <rect class="cls-13" x="206.61" y="306.36" width="73.49" height="47.07" transform="translate(486.72 659.79) rotate(180)"/>
          <path class="cls-2" d="m280.11,341.56v11.87h-73.49v-13.44c24.35,2.52,49.26,5.01,73.49,1.58Z"/>
          <path class="cls-11" d="m280.11,357.39h-73.49c-2.19,0-3.96-1.77-3.96-3.96v-47.07c0-2.19,1.77-3.96,3.96-3.96h73.49c2.19,0,3.96,1.77,3.96,3.96v47.07c0,2.19-1.77,3.96-3.96,3.96Zm-69.53-7.92h65.57v-39.15h-65.57v39.15Z"/>
          <path class="cls-11" d="m264.94,352.95c-4.03,2.11-.89-46.44-1.83-47.15,0-1.01.82-1.83,1.83-1.83,4.03-2.11.89,46.44,1.83,47.15,0,1.01-.82,1.83-1.83,1.83Z"/>
          <path class="cls-11" d="m220.33,352.95c-4.03,2.11-.89-46.44-1.83-47.15,0-1.01.82-1.83,1.83-1.83,4.03-2.11.89,46.44,1.83,47.15,0,1.01-.82,1.83-1.83,1.83Z"/>
          <g>
            <path class="cls-11" d="m319.47,318.96h-21.95c-1.01,0-1.83-.82-1.83-1.83s.82-1.83,1.83-1.83h21.95c2.36-.03,2.38,3.69,0,3.66Z"/>
            <path class="cls-11" d="m312.38,333.83h-21.95c-1.01,0-1.83-.82-1.83-1.83s.82-1.83,1.83-1.83h21.95c2.36-.03,2.38,3.69,0,3.66Z"/>
            <path class="cls-11" d="m320.88,346.57h-21.95c-1.01,0-1.83-.82-1.83-1.83s.82-1.83,1.83-1.83h21.95c2.36-.03,2.38,3.69,0,3.66Z"/>
          </g>
          <g>
            <path class="cls-11" d="m189.9,318.96h-21.95c-1.01,0-1.83-.82-1.83-1.83s.82-1.83,1.83-1.83h21.95c2.36-.03,2.38,3.69,0,3.66Z"/>
            <path class="cls-11" d="m196.98,333.83h-21.95c-1.01,0-1.83-.82-1.83-1.83s.82-1.83,1.83-1.83h21.95c2.36-.03,2.38,3.69,0,3.66Z"/>
            <path class="cls-11" d="m188.48,346.57h-21.95c-1.01,0-1.83-.82-1.83-1.83s.82-1.83,1.83-1.83h21.95c2.36-.03,2.38,3.69,0,3.66Z"/>
          </g>
        </g>
      </g>
      <path class="cls-5" d="m78.23,408.08c-9.54,0-14.8-5.26-14.8-14.8.05-3.58-5.59-3.6-5.54,0-.55,19.7-16.54,10.96-17.57,17.57.96,6.57,17.05-2.1,17.57,17.57-.05,3.58,5.59,3.6,5.54,0,0-9.54,5.26-14.8,14.8-14.8,3.58.05,3.6-5.59,0-5.54Z"/>
      <path class="cls-12" d="m58.69,325.85c-14.78,0-22.91-8.14-22.91-22.92.08-5.55-8.66-5.57-8.57,0-.89,30.6-25.96,17.04-27.2,27.2,1.14,10.11,26.37-3.35,27.2,27.2-.08,5.55,8.66,5.57,8.57,0,0-14.78,8.14-22.91,22.91-22.91,5.55.08,5.57-8.66,0-8.57Z"/>
      <path class="cls-12" d="m693.82,315.35c-14.78,0-22.91-8.14-22.91-22.91.08-5.55-8.66-5.57-8.57,0-.89,30.6-25.96,17.04-27.2,27.2,1.14,10.11,26.37-3.35,27.2,27.2-.08,5.55,8.66,5.57,8.57,0,0-14.78,8.14-22.91,22.91-22.91,5.55.08,5.57-8.66,0-8.57Z"/>
    </g>
  </g>
</svg>