<?xml version="1.0" encoding="UTF-8"?>
<svg id="Layer_2" data-name="Layer 2" xmlns="http://www.w3.org/2000/svg" viewBox="0 0 196.07 148.47">
  <defs>
    <style>
      .cls-1 {
        fill: #e68b03;
      }

      .cls-1, .cls-2 {
        fill-rule: evenodd;
      }

      .cls-2, .cls-3 {
        fill: #f2a900;
      }

      .cls-4 {
        font-size: 18.14px;
      }

      .cls-4, .cls-5 {
        fill: #fff;
        font-family: Roboto-Black, Roboto;
        font-weight: 800;
      }

      .cls-6 {
        fill: #ffd573;
      }

      .cls-5 {
        font-size: 22.37px;
      }
    </style>
  </defs>
  <g id="Objects">
    <g>
      <g>
        <path class="cls-2" d="m4.45,51.25L145.56.4c3.48-1.26,7.36.57,8.62,4.05l30.33,84.16c1.26,3.48-.57,7.36-4.05,8.62l-141.11,50.85c-3.49,1.26-7.36-.57-8.62-4.05L.4,59.86c-1.26-3.48.57-7.36,4.05-8.62Z"/>
        <path class="cls-1" d="m8.27,54.9L144.96,5.64c2.24-.81,4.73.37,5.54,2.61l28.75,79.78c.81,2.24-.37,4.73-2.61,5.54l-136.69,49.25c-2.24.81-4.73-.37-5.54-2.61L5.66,60.44c-.81-2.24.37-4.73,2.61-5.54Z"/>
        <rect class="cls-3" x="16.3" y="78.1" width="163.46" height="23.22" transform="translate(-24.61 38.54) rotate(-19.82)"/>
      </g>
      <g>
        <path class="cls-6" d="m39.34,45.15h150c3.72,0,6.73,3.02,6.73,6.73v89.46c0,3.72-3.02,6.73-6.73,6.73H39.34c-3.72,0-6.73-3.02-6.73-6.73V51.88c0-3.72,3.02-6.73,6.73-6.73Z"/>
        <path class="cls-3" d="m41.69,49.88h145.29c2.39,0,4.33,1.94,4.33,4.33v84.8c0,2.39-1.94,4.33-4.33,4.33H41.69c-2.39,0-4.33-1.94-4.33-4.33V54.21c0-2.39,1.94-4.33,4.33-4.33Z"/>
        <text class="cls-5" transform="translate(45.7 77.2)"><tspan x="0" y="0">CREDIT CARD</tspan></text>
        <path class="cls-6" d="m49.6,85.78h35.31c.97,0,1.77.79,1.77,1.77v23.44c0,.97-.79,1.76-1.76,1.76h-35.31c-.97,0-1.76-.79-1.76-1.76v-23.44c0-.97.79-1.76,1.76-1.76Z"/>
        <text class="cls-4" transform="translate(45.7 135.49)"><tspan x="0" y="0">000 000 000 000</tspan></text>
      </g>
    </g>
  </g>
</svg>