<?xml version="1.0" encoding="UTF-8"?>
<svg id="Layer_2" data-name="Layer 2" xmlns="http://www.w3.org/2000/svg" viewBox="0 0 146.5 140.66">
  <defs>
    <style>
      .cls-1, .cls-2, .cls-3 {
        fill-rule: evenodd;
      }

      .cls-1, .cls-4 {
        fill: #b2daed;
      }

      .cls-5, .cls-2 {
        fill: #fff;
      }

      .cls-6 {
        fill: #68a2bd;
      }

      .cls-7, .cls-3 {
        fill: #7ab2cc;
      }
    </style>
  </defs>
  <g id="Objects">
    <g>
      <g>
        <path class="cls-4" d="m26.89,0h98.56c11.62,0,21.05,9.43,21.05,21.05v98.56c0,11.62-9.43,21.05-21.05,21.05H26.89c-11.62,0-21.05-9.43-21.05-21.05V21.05C5.84,9.43,15.27,0,26.89,0Z"/>
        <rect class="cls-7" x="12.81" y="6.97" width="126.73" height="126.73" rx="16.93" ry="16.93"/>
        <path class="cls-6" d="m76.17,5.15h46.43c5.16,0,9.84,2.11,13.24,5.5s5.5,8.08,5.5,13.24v92.87c0,5.16-2.11,9.84-5.5,13.24-3.4,3.4-8.08,5.5-13.24,5.5h-46.43v-3.63h46.43c4.16,0,7.93-1.7,10.67-4.44,2.74-2.74,4.44-6.52,4.44-10.67V23.9c0-4.16-1.7-7.93-4.44-10.67-2.74-2.74-6.52-4.44-10.67-4.44h-46.43v-3.63Zm-46.43,0h46.43v3.63H29.74c-4.16,0-7.93,1.7-10.67,4.44-2.74,2.74-4.44,6.52-4.44,10.67v92.87c0,4.16,1.7,7.93,4.44,10.67,2.74,2.74,6.52,4.44,10.67,4.44h46.43v3.63H29.74c-5.16,0-9.84-2.11-13.24-5.5-3.4-3.4-5.5-8.08-5.5-13.24V23.9c0-5.16,2.11-9.84,5.5-13.24,3.4-3.4,8.08-5.5,13.24-5.5Z"/>
        <path class="cls-6" d="m93.46,44.89c3.03,1.52,5.78,3.51,8.15,5.88,5.67,5.67,9.18,13.51,9.18,22.17s-3.51,16.49-9.18,22.17c-2.37,2.37-5.12,4.36-8.15,5.88v-7.21c1.34-.91,2.59-1.94,3.74-3.08,3.85-3.85,6.46-8.95,7.16-14.63h-10.9v-6.24h10.9c-.71-5.69-3.31-10.78-7.16-14.63-1.14-1.14-2.39-2.17-3.74-3.08v-7.21Zm-14.02-3.3c5.04,0,9.8,1.19,14.02,3.3v7.21c-3.19-2.15-6.9-3.59-10.9-4.08v21.79h10.9v6.24h-10.9v21.79c4-.5,7.71-1.93,10.9-4.08v7.21c-4.22,2.11-8.98,3.3-14.02,3.3s-9.8-1.19-14.02-3.3v-7.21c3.19,2.15,6.9,3.59,10.9,4.08v-21.79h-10.9v-6.24h10.9v-21.79c-4,.5-7.71,1.93-10.9,4.08v-7.21c4.22-2.11,8.98-3.3,14.02-3.3Zm-14.02,59.4c-3.03-1.52-5.78-3.51-8.15-5.88-5.67-5.67-9.18-13.51-9.18-22.17s3.51-16.49,9.18-22.17c2.37-2.37,5.12-4.36,8.15-5.88v7.21c-1.34.91-2.59,1.94-3.74,3.08-3.85,3.85-6.46,8.95-7.16,14.63h10.9v6.24h-10.9c.71,5.69,3.31,10.78,7.16,14.63,1.14,1.14,2.39,2.17,3.74,3.08v7.21Z"/>
        <path class="cls-4" d="m90.19,42.28c3.03,1.52,5.78,3.51,8.15,5.88,5.67,5.67,9.18,13.51,9.18,22.17s-3.51,16.49-9.18,22.17c-2.37,2.37-5.12,4.36-8.15,5.88v-7.21c1.34-.91,2.59-1.94,3.74-3.08,3.85-3.85,6.46-8.95,7.16-14.63h-10.9v-6.24h10.9c-.71-5.69-3.31-10.78-7.16-14.63-1.14-1.14-2.39-2.17-3.74-3.08v-7.21Zm-14.02-3.3c5.04,0,9.8,1.19,14.02,3.3v7.21c-3.19-2.15-6.9-3.59-10.9-4.08v21.79h10.9v6.24h-10.9v21.79c4-.5,7.71-1.93,10.9-4.08v7.21c-4.22,2.11-8.98,3.3-14.02,3.3s-9.8-1.19-14.02-3.3v-7.21c3.19,2.15,6.9,3.58,10.9,4.08v-21.79h-10.9v-6.24h10.9v-21.79c-4,.5-7.71,1.93-10.9,4.08v-7.21c4.22-2.11,8.98-3.3,14.02-3.3Zm-14.02,59.4c-3.03-1.52-5.78-3.51-8.15-5.88-5.67-5.67-9.18-13.51-9.18-22.17s3.51-16.49,9.18-22.17c2.37-2.37,5.12-4.36,8.15-5.88v7.21c-1.34.91-2.59,1.94-3.74,3.08-3.85,3.85-6.46,8.95-7.16,14.63h10.9v6.24h-10.9c.71,5.69,3.31,10.78,7.16,14.63,1.14,1.14,2.39,2.17,3.74,3.08v7.21Z"/>
        <path class="cls-2" d="m90.29,96.54c2.52-1.36,4.85-3.09,6.92-5.16,5.6-5.6,8.72-13.12,8.72-21.05s-3.12-15.44-8.72-21.05c-2.07-2.07-4.4-3.8-6.92-5.16v3.55c1.71,1.07,3.31,2.33,4.75,3.78,4.2,4.2,6.88,9.66,7.61,15.56l.22,1.78h-12.59v3.07h12.59l-.22,1.78c-.73,5.9-3.41,11.36-7.61,15.56-1.45,1.45-3.04,2.71-4.75,3.78v3.55Zm-14.12-55.97c-4.99,0-9.83,1.24-14.12,3.56v3.55c3.26-2.04,6.94-3.35,10.81-3.83l1.78-.22v25.17h-12.59v3.07h12.59v25.17l-1.78-.22c-3.87-.48-7.55-1.8-10.81-3.83v3.55c4.29,2.32,9.13,3.56,14.12,3.56s9.83-1.24,14.12-3.56v-3.55c-3.26,2.04-6.94,3.35-10.81,3.83l-1.78.22v-25.17h12.59v-3.07h-12.59v-25.17l1.78.22c3.87.48,7.55,1.8,10.81,3.83v-3.55c-4.29-2.32-9.13-3.56-14.12-3.56Zm-14.12,3.56c-2.52,1.36-4.85,3.09-6.93,5.16-5.6,5.6-8.72,13.12-8.72,21.05s3.12,15.45,8.72,21.05c2.07,2.07,4.41,3.8,6.93,5.16v-3.55c-1.71-1.07-3.31-2.33-4.75-3.78-4.2-4.2-6.88-9.66-7.61-15.56l-.22-1.78h12.59v-3.07h-12.59l.22-1.78c.73-5.9,3.41-11.36,7.61-15.56,1.45-1.45,3.04-2.71,4.75-3.78v-3.55Z"/>
        <path class="cls-3" d="m3.23,27.21h16.88v21.56H3.23c-1.77,0-3.23-1.45-3.23-3.23v-15.11c0-1.77,1.45-3.23,3.23-3.23Z"/>
        <path class="cls-3" d="m3.23,91.89h16.88v21.56H3.23c-1.77,0-3.23-1.45-3.23-3.23v-15.11c0-1.78,1.45-3.23,3.23-3.23Z"/>
        <path class="cls-1" d="m4.76,29.63h13.09v16.72H4.76c-1.38,0-2.5-1.13-2.5-2.5v-11.72c0-1.38,1.13-2.5,2.5-2.5Z"/>
        <path class="cls-1" d="m4.76,94.31h13.09v16.72H4.76c-1.38,0-2.5-1.13-2.5-2.5v-11.72c0-1.38,1.13-2.5,2.5-2.5Z"/>
      </g>
      <g>
        <path class="cls-1" d="m99.62,44.34c8.27,0,15.02-6.75,15.02-15.01s-6.75-15.01-15.02-15.01-15.01,6.75-15.01,15.01,6.74,15.01,15.01,15.01Z"/>
        <path class="cls-5" d="m99.11,16.24c0-.28.23-.51.51-.51s.51.23.51.51v26.17c0,.28-.23.51-.51.51s-.51-.23-.51-.51v-26.17Z"/>
        <path class="cls-5" d="m103.62,16.85c.1-.26.39-.4.65-.3.27.1.4.39.31.65l-8.95,24.59c-.1.26-.39.4-.65.31-.27-.1-.4-.39-.31-.65l8.95-24.59Z"/>
        <path class="cls-5" d="m104.57,41.45c.1.26-.04.56-.31.65-.26.1-.55-.04-.65-.31l-8.95-24.59c-.1-.26.04-.56.31-.65.26-.1.56.04.65.31l8.95,24.59Z"/>
        <path class="cls-5" d="m107.64,18.97c.18-.22.5-.24.72-.06.22.18.24.5.06.72l-16.82,20.05c-.18.22-.5.24-.72.06-.22-.18-.24-.5-.06-.72l16.82-20.05Z"/>
        <path class="cls-5" d="m110.7,22.34c.24-.14.56-.06.7.19.14.24.06.55-.19.69l-22.66,13.09c-.24.14-.55.06-.7-.19-.14-.24-.06-.55.19-.69l22.66-13.08Z"/>
        <path class="cls-5" d="m112.42,26.55c.28-.05.54.14.59.41.05.28-.14.54-.42.59l-25.77,4.54c-.28.05-.54-.14-.59-.41-.05-.28.14-.54.41-.59l25.77-4.54Z"/>
        <path class="cls-5" d="m112.59,31.09c.28.05.46.31.42.59-.05.28-.31.46-.59.41l-25.77-4.54c-.28-.05-.46-.31-.41-.59.05-.28.31-.46.59-.42l25.77,4.55Z"/>
        <path class="cls-5" d="m111.21,35.43c.24.14.33.45.19.7-.14.24-.45.33-.7.19l-22.66-13.09c-.24-.14-.33-.45-.19-.7.14-.24.45-.33.7-.19l22.66,13.09Z"/>
        <path class="cls-5" d="m108.42,39.02c.18.22.15.54-.06.72-.21.18-.54.15-.72-.06l-16.82-20.05c-.18-.22-.15-.54.06-.72.22-.18.54-.15.72.06l16.82,20.05Z"/>
        <circle class="cls-7" cx="99.62" cy="29.32" r="10.44" transform="translate(-4.04 23.15) rotate(-12.99)"/>
        <path class="cls-5" d="m103.62,16.85c.1-.26.39-.4.65-.3.27.1.4.39.31.65l-4.48,12.3c-.1.26-.39.4-.65.31-.26-.1-.4-.39-.3-.65l4.47-12.3Z"/>
        <circle class="cls-5" cx="99.62" cy="29.32" r="7.17"/>
      </g>
    </g>
  </g>
</svg>