<?xml version="1.0" encoding="UTF-8"?>
<svg id="Layer_2" data-name="Layer 2" xmlns="http://www.w3.org/2000/svg" viewBox="0 0 144.36 172.63">
  <defs>
    <style>
      .cls-1 {
        fill: #ffd573;
      }

      .cls-2 {
        fill: #a35450;
      }

      .cls-2, .cls-3, .cls-4, .cls-5 {
        fill-rule: evenodd;
      }

      .cls-6 {
        fill: #90c67b;
      }

      .cls-3 {
        fill: #c9928f;
      }

      .cls-4 {
        fill: #873834;
      }

      .cls-7, .cls-5 {
        fill: #76aa60;
      }

      .cls-8 {
        fill: #f2a900;
      }
    </style>
  </defs>
  <g id="Objects">
    <g>
      <path class="cls-4" d="m22.85,28.28h98.66c12.57,0,22.85,10.28,22.85,22.85v49.33H0v-49.33c0-12.57,10.28-22.85,22.85-22.85Z"/>
      <path class="cls-4" d="m144.36,100.45v49.33c0,12.57-10.28,22.85-22.85,22.85H22.85c-12.57,0-22.85-10.28-22.85-22.85v-49.33h144.36Z"/>
      <path class="cls-2" d="m16.93,46.97h110.5c9.31,0,16.93,7.62,16.93,16.93v36.55H0v-36.55c0-9.31,7.62-16.93,16.93-16.93Z"/>
      <path class="cls-3" d="m144.36,100.45v36.55c0,9.31-7.62,16.93-16.93,16.93H16.93c-9.31,0-16.93-7.62-16.93-16.93v-36.55h144.36Z"/>
      <path class="cls-4" d="m20.23,53.97h103.9c8.01,0,14.57,6.62,14.57,14.72v31.77H5.66v-31.77c0-8.09,6.56-14.72,14.57-14.72Z"/>
      <path class="cls-2" d="m138.7,100.45v31.77c0,8.09-6.56,14.71-14.57,14.71H20.23c-8.01,0-14.57-6.62-14.57-14.71v-31.77h133.04Z"/>
      <g>
        <path class="cls-4" d="m54.53,0h35.31c7.57,0,13.76,6.2,13.76,13.76v25.43h-6.41v-18c0-5.42-4.44-9.86-9.86-9.86h-30.29c-5.42,0-9.86,4.44-9.86,9.86v18h-6.41V13.76c0-7.57,6.19-13.76,13.76-13.76Z"/>
        <path class="cls-2" d="m54.53,6.11h35.31c7.57,0,13.76,6.2,13.76,13.76v19.33h-9.41v-14.52c0-5.42-4.44-9.86-9.86-9.86h-24.15c-5.42,0-9.86,4.44-9.86,9.86v14.52h-9.55v-19.33c0-7.57,6.19-13.76,13.76-13.76Z"/>
      </g>
      <g>
        <g>
          <rect class="cls-7" x="55.89" y="83.43" width="77.03" height="36.15"/>
          <rect class="cls-6" x="60.37" y="87.8" width="68.07" height="27.42"/>
          <path class="cls-5" d="m68.9,87.8c0,4.71-3.82,8.53-8.53,8.53v-8.53h8.53Z"/>
          <path class="cls-5" d="m119.92,87.8c0,4.71,3.82,8.53,8.53,8.53v-8.53h-8.53Z"/>
          <path class="cls-5" d="m68.9,115.92c0-4.71-3.82-8.53-8.53-8.53v8.53h8.53Z"/>
          <path class="cls-5" d="m119.92,115.92c0-4.71,3.82-8.53,8.53-8.53v8.53h-8.53Z"/>
          <path class="cls-5" d="m94.41,91.46c5.55,0,10.04,4.5,10.04,10.04s-4.5,10.04-10.04,10.04-10.04-4.5-10.04-10.04,4.49-10.04,10.04-10.04Z"/>
        </g>
        <rect class="cls-7" x="55.89" y="75.33" width="77.03" height="8.11"/>
        <g>
          <rect class="cls-6" x="55.89" y="83.04" width="77.03" height=".78"/>
          <rect class="cls-6" x="55.89" y="80.96" width="77.03" height=".78"/>
          <rect class="cls-6" x="55.89" y="78.87" width="77.03" height=".78"/>
          <rect class="cls-6" x="55.89" y="76.79" width="77.03" height=".78"/>
        </g>
        <rect class="cls-1" x="90.84" y="75.33" width="7.13" height="44.26"/>
        <rect class="cls-8" x="90.84" y="75.33" width="7.13" height="8.11"/>
      </g>
      <g>
        <g>
          <rect class="cls-7" x="13.34" y="103.03" width="77.03" height="36.15"/>
          <rect class="cls-6" x="17.82" y="107.4" width="68.07" height="27.42"/>
          <path class="cls-5" d="m26.35,107.4c0,4.71-3.82,8.53-8.53,8.53v-8.53h8.53Z"/>
          <path class="cls-5" d="m77.36,107.4c0,4.71,3.82,8.53,8.53,8.53v-8.53h-8.53Z"/>
          <path class="cls-5" d="m26.35,135.52c0-4.71-3.82-8.53-8.53-8.53v8.53h8.53Z"/>
          <path class="cls-5" d="m77.36,135.52c0-4.71,3.82-8.53,8.53-8.53v8.53h-8.53Z"/>
          <path class="cls-5" d="m51.85,111.07c5.55,0,10.04,4.5,10.04,10.04s-4.5,10.04-10.04,10.04-10.04-4.5-10.04-10.04,4.5-10.04,10.04-10.04Z"/>
        </g>
        <rect class="cls-7" x="13.34" y="94.93" width="77.03" height="8.11"/>
        <g>
          <rect class="cls-6" x="13.34" y="102.64" width="77.03" height=".78"/>
          <rect class="cls-6" x="13.34" y="100.56" width="77.03" height=".78"/>
          <rect class="cls-6" x="13.34" y="98.47" width="77.03" height=".78"/>
          <rect class="cls-6" x="13.34" y="96.39" width="77.03" height=".78"/>
        </g>
        <rect class="cls-1" x="48.29" y="94.93" width="7.13" height="44.26"/>
        <rect class="cls-8" x="48.29" y="94.93" width="7.13" height="8.11"/>
      </g>
    </g>
  </g>
</svg>