<?xml version="1.0" encoding="UTF-8"?>
<svg id="Layer_2" data-name="Layer 2" xmlns="http://www.w3.org/2000/svg" viewBox="0 0 132.17 187.25">
  <defs>
    <style>
      .cls-1 {
        fill: #fff;
      }

      .cls-2 {
        fill: #90c67b;
      }

      .cls-2, .cls-3, .cls-4 {
        fill-rule: evenodd;
      }

      .cls-5 {
        fill: none;
        stroke: #ffd573;
        stroke-linecap: round;
        stroke-linejoin: round;
        stroke-width: 4.8px;
      }

      .cls-3 {
        fill: #ffd573;
      }

      .cls-4 {
        fill: #75ad5f;
      }
    </style>
  </defs>
  <g id="Objects">
    <g>
      <path class="cls-4" d="m46.22,61.28c-.33-3.53-3.34-13.82-11.45-28.52-8.1-14.7-1.59-23.66,10.79-23.13,12.38.53,10.78-9.63,20.85-9.63s8.47,10.16,20.85,9.63c12.38-.53,18.9,8.43,10.79,23.13-8.1,14.7-11.11,24.99-11.45,28.52-2.94,31.25-37.46,31.25-40.4,0Z"/>
      <path class="cls-4" d="m66.09,56.09c36.49,0,66.07,29.36,66.07,65.58s3,65.58-66.07,65.58S.02,157.89.02,121.67,29.6,56.09,66.09,56.09Z"/>
      <path class="cls-2" d="m66.09,56.09c18.29,0,34.84,7.38,46.8,19.29,4.1,8.54,6.4,18.1,6.4,28.19,0,36.22,3,65.58-66.07,65.58-25.19,0-40.79-3.91-50.45-10.63C-.4,148.01.02,135.33.02,121.67.02,85.45,29.6,56.09,66.09,56.09Z"/>
      <path class="cls-3" d="m39.1,45.55h53.97c2.06,0,3.75,1.69,3.75,3.75h0c0,2.06-1.69,3.75-3.75,3.75h-53.97c-2.06,0-3.75-1.69-3.75-3.75h0c0-2.06,1.69-3.75,3.75-3.75Z"/>
      <path class="cls-3" d="m39.1,53.06h53.97c2.06,0,3.75,1.69,3.75,3.75h0c0,2.06-1.69,3.75-3.75,3.75h-53.97c-2.06,0-3.75-1.69-3.75-3.75h0c0-2.06,1.69-3.75,3.75-3.75Z"/>
      <path class="cls-1" d="m73.21,86.88c3.01.83,5.52,2.2,7.53,4.11,2.79,2.67,4.57,6.23,5.35,10.7l-11.29,1.48c-.31-1.58-.84-2.93-1.58-4.05v-12.24h0Zm0,27.74c5.12,1.75,8.73,3.88,10.82,6.38,2.59,3.08,3.88,7.02,3.88,11.85,0,5.38-1.63,9.92-4.87,13.61-2.52,2.86-5.8,4.85-9.83,6v-10.63c.61-.43,1.17-.95,1.68-1.54,1.4-1.66,2.1-3.6,2.1-5.84,0-2-.59-3.7-1.77-5.15-.52-.64-1.19-1.22-2.01-1.73v-12.96Zm-10.24,28.14v-18.7c-1.01-.29-1.97-.6-2.88-.94v-13.51c.8.66,1.75,1.24,2.88,1.72v-15.45c-1.11.37-2.06.91-2.88,1.61v-10.88c.92-.21,1.88-.36,2.88-.46v-4.42h6.46v4.42c1.34.16,2.6.41,3.78.74v12.24c-.92-1.38-2.18-2.41-3.78-3.1v17.45c1.34.36,2.6.75,3.78,1.15v12.96c-1.03-.64-2.29-1.17-3.78-1.59v17.4c1.43-.26,2.69-.78,3.78-1.55v10.63c-1.19.34-2.45.61-3.78.8v8.35h-6.46v-8.14c-1-.12-1.96-.29-2.88-.51v-12.25c.9.87,1.86,1.55,2.88,2.04Zm-2.88-19.64c-4.39-1.63-7.71-3.83-9.97-6.63-2.71-3.38-4.08-7.48-4.08-12.3s1.54-8.98,4.62-12.3c2.49-2.67,5.63-4.43,9.43-5.28v10.88c-.49.42-.93.89-1.33,1.42-1.04,1.43-1.56,3.02-1.56,4.74,0,1.57.47,3.05,1.42,4.39.4.57.89,1.09,1.46,1.57v13.51h0Zm0,29.84c-3.85-.91-7.08-2.66-9.68-5.25-3.22-3.2-5.26-7.74-6.16-13.61l11.66-1.25c.47,2.38,1.37,4.43,2.68,6.16.48.63.97,1.2,1.49,1.71v12.25Z"/>
      <path class="cls-5" d="m86.9,57.61c10.04,11.88,14.99,26.4,10.7,49.16"/>
      <path class="cls-5" d="m86.9,57.61c13.88,7.02,24.1,18.46,29.03,41.09"/>
      <path class="cls-2" d="m37.42,37.76c-.82-1.6-1.7-3.27-2.65-5-8.1-14.7-1.59-23.66,10.79-23.13,12.38.53,10.78-9.63,20.85-9.63s8.47,10.16,20.85,9.63c2.4-.1,4.58.15,6.48.74-1.57,4.6-2.39,7.97-3.25,10.12-7.59,18.93-34.03,24.05-53.08,17.28Z"/>
    </g>
  </g>
</svg>