<?xml version="1.0" encoding="UTF-8"?>
<svg id="Layer_2" data-name="Layer 2" xmlns="http://www.w3.org/2000/svg" viewBox="0 0 183.86 144.86">
  <defs>
    <style>
      .cls-1 {
        fill: #ffd573;
      }

      .cls-1, .cls-2, .cls-3, .cls-4 {
        fill-rule: evenodd;
      }

      .cls-2 {
        fill: #db9900;
      }

      .cls-3 {
        fill: #ffcc9a;
      }

      .cls-4 {
        fill: #ffc02e;
      }
    </style>
  </defs>
  <g id="Objects">
    <g>
      <path class="cls-1" d="m86.19,2.17c43.51,0,78.79,28.38,78.79,63.43s-35.28,63.43-78.79,63.43S7.4,100.61,7.4,65.6,42.68,2.17,86.19,2.17h0Z"/>
      <path class="cls-1" d="m10.16,41.1h1.52c5.59,0,10.16,4.58,10.16,10.17v30.14c0,5.59-4.58,10.16-10.16,10.16h-1.52c-5.59,0-10.16-4.58-10.16-10.16v-30.14c0-5.59,4.58-10.17,10.16-10.17h0Z"/>
      <path class="cls-1" d="m35.55,0c12.33,0,22.56,8.95,24.58,20.69-11.26.89-21.82,3.72-31.18,8,.83-1.34,1.57-2.76,2.17-4.28,3.09-8.05,1.72-16.73-2.88-23.3,2.32-.71,4.79-1.1,7.31-1.1h0Z"/>
      <path class="cls-3" d="m157.82,42.89c20.75,16.08,19.38-17.21,8.23-7.37-1.04.92-1.69,2.35-2.47,3.57h0c-1.43-1.43-1.4-1.07-1.52-2.67-.77-13.26,25.41-11.18,21.37,8.74-3.42,16.85-20.86,16.82-34.06,9.07-3.12-2.35-3.74-6.78-1.43-9.9,2.35-3.09,6.75-3.75,9.87-1.43h0Z"/>
      <path class="cls-2" d="m32.57,37.15c1.63,0,2.94,3.66,2.94,8.14s-1.31,8.14-2.94,8.14-2.97-3.66-2.97-8.14,1.34-8.14,2.97-8.14h0Z"/>
      <path class="cls-4" d="m86.19,7.28c10.7,0,20.83,1.87,29.96,5.23v10.19c-8.86-4.04-19.05-6.33-29.96-6.33-8.14,0-15.9,1.28-23,3.63v-9.69c7.22-1.96,14.98-3.03,23-3.03h0Z"/>
      <path class="cls-2" d="m86.19,12.36c10.79,0,20.98,2.08,29.96,5.77v6.75c-8.77-4.19-19.02-6.6-29.96-6.6-8.17,0-15.93,1.34-23,3.74v-6.36c7.16-2.14,14.92-3.3,23-3.3h0Z"/>
      <path class="cls-4" d="m148.31,26.57c10.46,10.76,16.67,24.31,16.67,39.02,0,35.01-35.28,63.43-78.79,63.43-26.45,0-49.87-10.52-64.17-26.63,53.88,24.7,131.9-18.69,126.29-75.82h0Z"/>
      <path class="cls-4" d="m157.82,42.89c20.75,16.08,19.38-17.21,8.23-7.37-1.04.92-1.69,2.35-2.47,3.57h0c-1.43-1.43-1.4-1.07-1.52-2.67-.77-13.26,25.41-11.18,21.37,8.74-3.42,16.85-20.86,16.82-34.06,9.07-3.12-2.35-3.74-6.78-1.43-9.9,2.35-3.09,6.75-3.75,9.87-1.43h0Z"/>
      <path class="cls-4" d="m65.48,111.49h0c7.46,0,13.55,6.09,13.55,13.52v6.3c0,7.46-6.09,13.55-13.55,13.55h0c-7.43,0-13.52-6.09-13.52-13.55v-6.3c0-7.43,6.09-13.52,13.52-13.52h0Z"/>
      <path class="cls-4" d="m110.86,111.49h0c7.46,0,13.55,6.09,13.55,13.52v6.3c0,7.46-6.09,13.55-13.55,13.55h0c-7.43,0-13.52-6.09-13.52-13.55v-6.3c0-7.43,6.09-13.52,13.52-13.52h0Z"/>
    </g>
  </g>
</svg>