<?xml version="1.0" encoding="UTF-8"?>
<svg id="Layer_2" data-name="Layer 2" xmlns="http://www.w3.org/2000/svg" viewBox="0 0 177.19 165.4">
  <defs>
    <style>
      .cls-1 {
        fill: #c9928f;
      }

      .cls-1, .cls-2 {
        fill-rule: evenodd;
      }

      .cls-2, .cls-3 {
        fill: #873834;
      }
    </style>
  </defs>
  <g id="Objects">
    <g>
      <rect class="cls-3" x="14.17" y="151.93" width="148.84" height="13.47"/>
      <rect class="cls-3" x="82.21" y="90.37" width="12.76" height="61.57"/>
      <rect class="cls-3" x="77.96" y="79.03" width="21.26" height="11.34"/>
      <rect class="cls-3" x="14.17" y="65.56" width="148.84" height="13.47"/>
      <rect class="cls-3" x="129.7" y="90.37" width="12.76" height="61.57"/>
      <rect class="cls-3" x="125.45" y="79.03" width="21.26" height="11.34"/>
      <rect class="cls-3" x="34.73" y="90.37" width="12.76" height="61.57"/>
      <rect class="cls-3" x="30.48" y="79.03" width="21.26" height="11.34"/>
      <polygon class="cls-2" points="0 65.56 177.19 65.56 88.59 0 0 65.56"/>
      <polygon class="cls-1" points="30.48 56.41 146.71 56.41 88.59 13.4 30.48 56.41"/>
      <path class="cls-3" d="m90.68,42.38c0-.85-.21-1.5-.61-1.96-.4-.46-1.12-.92-2.16-1.37-2.52-1-4.35-2.02-5.5-3.04-1.15-1.03-1.72-2.54-1.72-4.53,0-1.8.61-3.29,1.82-4.45,1.22-1.17,2.84-1.85,4.86-2.04v-3.37h2.54v3.44c1.91.27,3.44,1.06,4.56,2.36,1.12,1.3,1.66,2.96,1.63,4.97l-.03.08h-5.29c0-1.16-.22-2.03-.67-2.6-.45-.57-1.04-.86-1.79-.86s-1.31.23-1.68.7c-.36.47-.54,1.06-.54,1.79s.19,1.33.58,1.79c.39.46,1.11.92,2.18,1.39,2.47,1.05,4.29,2.11,5.45,3.16,1.16,1.05,1.74,2.55,1.74,4.5s-.58,3.35-1.75,4.48c-1.17,1.13-2.73,1.79-4.71,2v3.21h-2.54v-3.23c-2.06-.2-3.78-.92-5.15-2.17-1.36-1.24-2.02-3.06-1.98-5.46l.05-.1h5.26c0,1.32.29,2.28.87,2.85.57.58,1.32.87,2.24.87.77,0,1.35-.22,1.74-.67s.59-1.04.59-1.76Z"/>
    </g>
  </g>
</svg>