<?xml version="1.0" encoding="UTF-8"?>
<svg id="Layer_2" data-name="Layer 2" xmlns="http://www.w3.org/2000/svg" viewBox="0 0 236.37 143.45">
  <defs>
    <style>
      .cls-1 {
        fill: #90c67b;
      }

      .cls-2, .cls-3 {
        fill-rule: evenodd;
      }

      .cls-2, .cls-4 {
        fill: #873834;
      }

      .cls-5, .cls-3 {
        fill: #76aa60;
      }

      .cls-6 {
        fill: none;
        stroke: #c9928f;
        stroke-dasharray: 0 0 3.12 9.36;
        stroke-linecap: round;
        stroke-linejoin: round;
        stroke-width: 3.12px;
      }

      .cls-7 {
        fill: #c9928f;
      }
    </style>
  </defs>
  <g id="Objects">
    <g>
      <g>
        <g>
          <g>
            <rect class="cls-5" x="39.08" y="31.17" width="161.35" height="75.72" transform="translate(-18.08 58.58) rotate(-25.63)"/>
            <rect class="cls-1" x="48.46" y="40.32" width="142.59" height="57.43" transform="translate(-18.08 58.58) rotate(-25.63)"/>
            <path class="cls-3" d="m59.16,66.25c4.27,8.9.51,19.57-8.38,23.83l-7.73-16.11,16.11-7.73Z"/>
            <path class="cls-3" d="m155.51,20.03c4.27,8.9,14.94,12.65,23.83,8.38l-7.73-16.11-16.11,7.72Z"/>
            <path class="cls-3" d="m84.63,119.35c-4.27-8.89-14.94-12.65-23.83-8.38l7.73,16.11,16.11-7.73Z"/>
            <path class="cls-3" d="m180.99,73.14c-4.27-8.9-.52-19.56,8.38-23.83l7.73,16.11-16.11,7.73Z"/>
            <path class="cls-3" d="m110.66,50.06c10.47-5.02,23.04-.61,28.06,9.87,5.02,10.48.61,23.04-9.87,28.06-10.47,5.02-23.04.61-28.06-9.87-5.03-10.47-.61-23.04,9.87-28.06Z"/>
          </g>
          <g>
            <rect class="cls-5" x="88.93" y="14.86" width="75.72" height="161.35" transform="translate(15.76 209.01) rotate(-82.62)"/>
            <rect class="cls-1" x="98.08" y="24.24" width="57.43" height="142.59" transform="translate(15.76 209.02) rotate(-82.62)"/>
            <path class="cls-3" d="m77.49,60.2c-1.27,9.78-10.22,16.69-20.01,15.42l2.29-17.71,17.72,2.29Z"/>
            <path class="cls-3" d="m183.47,73.92c-1.27,9.78,5.64,18.74,15.42,20.01l2.29-17.71-17.71-2.29Z"/>
            <path class="cls-3" d="m69.93,118.61c1.27-9.78-5.64-18.74-15.42-20.01l-2.29,17.71,17.71,2.29Z"/>
            <path class="cls-3" d="m175.91,132.33c1.27-9.78,10.22-16.69,20.01-15.42l-2.29,17.72-17.71-2.29Z"/>
            <path class="cls-3" d="m129.49,74.68c11.52,1.49,19.65,12.04,18.16,23.56s-12.04,19.65-23.56,18.16c-11.52-1.49-19.65-12.04-18.16-23.56,1.49-11.52,12.04-19.65,23.56-18.16Z"/>
          </g>
          <g>
            <rect class="cls-5" x="68.74" y="43.65" width="161.35" height="75.72" transform="translate(-14.09 34.25) rotate(-12.49)"/>
            <rect class="cls-1" x="78.12" y="52.8" width="142.59" height="57.43" transform="translate(-14.09 34.25) rotate(-12.49)"/>
            <path class="cls-3" d="m91.04,65.03c2.13,9.63-3.94,19.17-13.58,21.3l-3.86-17.44,17.44-3.86Z"/>
            <path class="cls-3" d="m195.37,41.92c2.13,9.63,11.67,15.71,21.3,13.58l-3.86-17.44-17.44,3.86Z"/>
            <path class="cls-3" d="m103.78,122.54c-2.13-9.63-11.67-15.71-21.3-13.58l3.86,17.44,17.44-3.86Z"/>
            <path class="cls-3" d="m208.11,99.43c-2.13-9.63,3.94-19.17,13.58-21.3l3.86,17.44-17.44,3.86Z"/>
            <path class="cls-3" d="m144.87,60.98c11.34-2.51,22.57,4.65,25.09,15.99,2.51,11.34-4.64,22.57-15.99,25.09-11.34,2.51-22.57-4.64-25.09-15.99-2.51-11.34,4.65-22.57,15.99-25.09Z"/>
          </g>
        </g>
        <rect class="cls-4" y="40.22" width="167.09" height="101.89" rx="14.26" ry="14.26"/>
        <path class="cls-6" d="m18.34,48.92h130.41c5.06,0,9.17,4.11,9.17,9.17v66.15c0,5.06-4.11,9.17-9.17,9.17H18.34c-5.06,0-9.17-4.11-9.17-9.17V58.09c0-5.06,4.11-9.17,9.17-9.17Z"/>
        <path class="cls-7" d="m73.61,35.99h19.87c2.13,0,3.86,1.73,3.86,3.86v26.04c0,2.13-1.73,3.86-3.86,3.86h-19.87c-2.13,0-3.86-1.73-3.86-3.86v-26.04c0-2.13,1.73-3.86,3.86-3.86Z"/>
      </g>
      <path class="cls-2" d="m83.55,66.66c3.9,0,7.08-3.18,7.08-7.08s-3.18-7.08-7.08-7.08-7.08,3.18-7.08,7.08,3.18,7.08,7.08,7.08Z"/>
    </g>
  </g>
</svg>