<?xml version="1.0" encoding="UTF-8"?>
<svg id="Layer_2" data-name="Layer 2" xmlns="http://www.w3.org/2000/svg" viewBox="0 0 175.71 188.94">
  <defs>
    <style>
      .cls-1, .cls-2 {
        fill-rule: evenodd;
      }

      .cls-1, .cls-3 {
        fill: #f2a900;
      }

      .cls-4, .cls-2 {
        fill: #ffd573;
      }
    </style>
  </defs>
  <g id="Objects">
    <g>
      <ellipse class="cls-3" cx="52.18" cy="145.95" rx="46" ry="21.76"/>
      <rect class="cls-3" x="6.17" y="137" width="92" height="8.95"/>
      <g>
        <path class="cls-1" d="m52.18,158.76c25.34,0,46-9.78,46-21.76s-20.66-21.76-46-21.76-46,9.78-46,21.76,20.66,21.76,46,21.76Z"/>
        <path class="cls-2" d="m52.18,154.54c22.02,0,39.99-7.88,39.99-17.54s-17.96-17.54-39.99-17.54-39.99,7.88-39.99,17.54,17.96,17.54,39.99,17.54Z"/>
        <path class="cls-3" d="m56.64,126.69c1.88.25,3.45.65,4.71,1.22,1.75.79,2.86,1.85,3.35,3.17l-7.07.44c-.19-.47-.52-.87-.99-1.2v-3.63h0Zm0,8.22c3.2.52,5.46,1.15,6.77,1.89,1.62.91,2.43,2.08,2.43,3.51,0,1.59-1.02,2.94-3.05,4.03-1.58.85-3.63,1.44-6.15,1.78v-3.15c.38-.13.73-.28,1.05-.46.88-.49,1.32-1.07,1.32-1.73,0-.59-.37-1.1-1.11-1.53-.33-.19-.75-.36-1.26-.51v-3.84Zm-6.41,8.34v-5.54c-.63-.08-1.23-.18-1.8-.28v-4c.5.2,1.1.37,1.8.51v-4.58c-.69.11-1.29.27-1.8.48v-3.22c.58-.06,1.18-.11,1.8-.14v-1.31h4.05v1.31c.84.05,1.63.12,2.37.22v3.63c-.58-.41-1.37-.71-2.37-.92v5.17c.84.11,1.63.22,2.37.34v3.84c-.64-.19-1.43-.35-2.37-.47v5.16c.9-.08,1.69-.23,2.37-.46v3.15c-.75.1-1.54.18-2.37.24v2.47h-4.05v-2.41c-.62-.04-1.22-.09-1.8-.15v-3.63c.56.26,1.16.46,1.8.61Zm-1.8-5.82c-2.75-.48-4.83-1.14-6.24-1.96-1.7-1-2.56-2.22-2.56-3.64s.96-2.66,2.89-3.64c1.56-.79,3.53-1.31,5.91-1.57v3.22c-.31.12-.58.26-.83.42-.65.42-.97.89-.97,1.4,0,.46.3.9.89,1.3.25.17.56.32.92.46v4h0Zm0,8.84c-2.41-.27-4.43-.79-6.06-1.56-2.01-.95-3.29-2.29-3.85-4.03l7.3-.37c.3.7.86,1.31,1.68,1.82.3.19.61.36.93.5v3.63Z"/>
      </g>
      <path class="cls-1" d="m83.19,156.12c25.34,0,46-9.78,46-21.76s-20.66-21.76-46-21.76-46,9.78-46,21.76,20.66,21.76,46,21.76Z"/>
      <rect class="cls-3" x="37.19" y="125.41" width="92" height="8.95"/>
      <g>
        <ellipse class="cls-3" cx="83.19" cy="125.41" rx="46" ry="21.76"/>
        <ellipse class="cls-4" cx="83.19" cy="125.41" rx="39.99" ry="17.54"/>
        <path class="cls-3" d="m87.65,115.11c1.88.25,3.45.65,4.71,1.22,1.75.79,2.86,1.85,3.35,3.17l-7.07.44c-.19-.47-.52-.87-.99-1.2v-3.63h0Zm0,8.22c3.2.52,5.46,1.15,6.78,1.89,1.62.91,2.43,2.08,2.43,3.51,0,1.59-1.02,2.94-3.05,4.03-1.58.85-3.63,1.44-6.16,1.78v-3.15c.38-.13.73-.28,1.05-.46.88-.49,1.32-1.06,1.32-1.73,0-.59-.37-1.1-1.11-1.53-.33-.19-.75-.36-1.26-.51v-3.84Zm-6.41,8.34v-5.54c-.63-.08-1.23-.18-1.8-.28v-4c.5.2,1.1.37,1.8.51v-4.58c-.69.11-1.29.27-1.8.48v-3.22c.58-.06,1.18-.11,1.8-.14v-1.31h4.05v1.31c.84.05,1.63.12,2.37.22v3.63c-.58-.41-1.37-.71-2.37-.92v5.17c.84.11,1.63.22,2.37.34v3.84c-.64-.19-1.43-.35-2.37-.47v5.16c.9-.08,1.69-.23,2.37-.46v3.15c-.75.1-1.54.18-2.37.24v2.47h-4.05v-2.41c-.62-.04-1.22-.08-1.8-.15v-3.63c.56.26,1.16.46,1.8.6Zm-1.8-5.82c-2.75-.48-4.83-1.14-6.24-1.96-1.7-1-2.56-2.22-2.56-3.64s.96-2.66,2.89-3.64c1.56-.79,3.53-1.31,5.91-1.57v3.22c-.31.12-.58.26-.83.42-.65.42-.97.89-.97,1.4,0,.46.3.9.89,1.3.25.17.56.32.91.46v4h0Zm0,8.84c-2.41-.27-4.43-.79-6.06-1.56-2.01-.95-3.29-2.29-3.85-4.03l7.3-.37c.29.7.86,1.31,1.68,1.82.3.19.61.36.93.51v3.63Z"/>
      </g>
      <path class="cls-1" d="m46,137.37c25.34,0,46-9.78,46-21.76s-20.67-21.76-46-21.76S0,103.62,0,115.6s20.66,21.76,46,21.76Z"/>
      <rect class="cls-3" y="106.66" width="92.01" height="8.95"/>
      <g>
        <ellipse class="cls-3" cx="46" cy="106.66" rx="46" ry="21.76"/>
        <ellipse class="cls-4" cx="46" cy="106.66" rx="39.99" ry="17.54"/>
        <path class="cls-3" d="m50.46,96.35c1.88.25,3.45.65,4.71,1.22,1.75.79,2.86,1.85,3.35,3.17l-7.07.44c-.19-.47-.52-.87-.99-1.2v-3.63h0Zm0,8.22c3.2.52,5.46,1.15,6.77,1.89,1.62.91,2.43,2.08,2.43,3.51,0,1.59-1.02,2.94-3.05,4.03-1.58.85-3.63,1.44-6.15,1.78v-3.15c.38-.13.73-.28,1.05-.46.88-.49,1.32-1.07,1.32-1.73,0-.59-.37-1.1-1.11-1.53-.33-.19-.75-.36-1.26-.51v-3.84Zm-6.41,8.34v-5.54c-.63-.09-1.23-.18-1.8-.28v-4c.5.2,1.1.37,1.8.51v-4.58c-.69.11-1.29.27-1.8.48v-3.22c.58-.06,1.18-.11,1.8-.14v-1.31h4.05v1.31c.84.05,1.63.12,2.37.22v3.63c-.58-.41-1.37-.71-2.37-.92v5.17c.84.11,1.63.22,2.37.34v3.84c-.64-.19-1.43-.35-2.37-.47v5.16c.9-.08,1.69-.23,2.37-.46v3.15c-.75.1-1.54.18-2.37.24v2.47h-4.05v-2.41c-.62-.04-1.22-.09-1.8-.15v-3.63c.56.26,1.16.46,1.8.61Zm-1.8-5.82c-2.75-.48-4.83-1.13-6.24-1.96-1.7-1-2.56-2.22-2.56-3.64s.96-2.66,2.89-3.64c1.56-.79,3.53-1.31,5.91-1.57v3.22c-.31.12-.58.26-.83.42-.65.42-.97.89-.97,1.4,0,.46.3.9.89,1.3.25.17.56.32.92.46v4h0Zm0,8.84c-2.41-.27-4.44-.79-6.06-1.56-2.01-.95-3.29-2.29-3.85-4.03l7.3-.37c.3.7.86,1.31,1.68,1.82.3.19.61.36.94.5v3.63Z"/>
      </g>
      <ellipse class="cls-3" cx="78.92" cy="99.81" rx="46" ry="21.76"/>
      <rect class="cls-3" x="32.92" y="90.87" width="92" height="8.95"/>
      <g>
        <ellipse class="cls-3" cx="78.92" cy="90.87" rx="46" ry="21.76"/>
        <path class="cls-2" d="m78.92,108.4c22.02,0,39.99-7.88,39.99-17.54s-17.96-17.54-39.99-17.54-39.99,7.88-39.99,17.54,17.96,17.54,39.99,17.54Z"/>
        <path class="cls-3" d="m83.38,80.56c1.88.25,3.45.65,4.71,1.22,1.75.79,2.86,1.85,3.35,3.17l-7.07.44c-.19-.47-.52-.87-.99-1.2v-3.63h0Zm0,8.22c3.2.52,5.46,1.15,6.78,1.89,1.62.91,2.43,2.08,2.43,3.51,0,1.59-1.02,2.94-3.05,4.03-1.57.85-3.63,1.44-6.15,1.78v-3.15c.38-.13.73-.28,1.05-.46.88-.49,1.32-1.07,1.32-1.73,0-.59-.37-1.1-1.11-1.53-.33-.19-.75-.36-1.26-.51v-3.84Zm-6.41,8.34v-5.54c-.63-.09-1.23-.18-1.81-.28v-4c.5.2,1.1.37,1.81.51v-4.58c-.69.11-1.29.27-1.81.48v-3.22c.58-.06,1.18-.11,1.81-.14v-1.31h4.04v1.31c.84.05,1.63.12,2.37.22v3.63c-.58-.41-1.37-.71-2.37-.92v5.17c.84.11,1.63.22,2.37.34v3.84c-.64-.19-1.43-.35-2.37-.47v5.16c.9-.08,1.69-.23,2.37-.46v3.15c-.75.1-1.54.18-2.37.24v2.47h-4.04v-2.41c-.62-.04-1.23-.09-1.81-.15v-3.63c.56.26,1.16.46,1.81.61Zm-1.81-5.82c-2.75-.48-4.83-1.14-6.24-1.96-1.7-1-2.56-2.22-2.56-3.64s.96-2.66,2.89-3.64c1.56-.79,3.53-1.31,5.91-1.56v3.22c-.31.12-.58.26-.83.42-.65.42-.98.89-.98,1.4,0,.46.3.9.89,1.3.25.17.56.32.91.46v4h0Zm0,8.84c-2.41-.27-4.43-.79-6.06-1.56-2.01-.95-3.29-2.29-3.85-4.03l7.3-.37c.3.7.86,1.31,1.68,1.82.3.19.61.36.93.5v3.63Z"/>
      </g>
      <ellipse class="cls-3" cx="64.8" cy="84.01" rx="46" ry="21.76"/>
      <rect class="cls-3" x="18.8" y="75.07" width="92" height="8.95"/>
      <g>
        <path class="cls-1" d="m64.8,96.83c25.34,0,46-9.78,46-21.76s-20.67-21.76-46-21.76-46,9.78-46,21.76,20.67,21.76,46,21.76Z"/>
        <path class="cls-2" d="m64.8,92.6c22.02,0,39.99-7.88,39.99-17.54s-17.96-17.54-39.99-17.54-39.99,7.88-39.99,17.54,17.96,17.54,39.99,17.54Z"/>
        <path class="cls-3" d="m69.26,64.76c1.88.25,3.45.65,4.72,1.22,1.75.79,2.86,1.85,3.35,3.17l-7.07.44c-.19-.47-.52-.87-.99-1.2v-3.63h0Zm0,8.22c3.2.52,5.47,1.15,6.78,1.89,1.62.91,2.43,2.08,2.43,3.51,0,1.59-1.02,2.94-3.06,4.03-1.57.85-3.63,1.44-6.15,1.78v-3.15c.38-.13.73-.28,1.05-.46.88-.49,1.32-1.07,1.32-1.73,0-.59-.37-1.1-1.11-1.53-.33-.19-.75-.36-1.26-.51v-3.84Zm-6.41,8.34v-5.54c-.63-.09-1.23-.18-1.8-.28v-4c.5.2,1.1.37,1.8.51v-4.58c-.69.11-1.29.27-1.8.48v-3.22c.58-.06,1.18-.11,1.8-.14v-1.31h4.05v1.31c.84.05,1.63.12,2.37.22v3.63c-.58-.41-1.37-.71-2.37-.92v5.17c.84.11,1.63.22,2.37.34v3.84c-.64-.19-1.43-.35-2.37-.47v5.16c.9-.08,1.69-.23,2.37-.46v3.15c-.75.1-1.54.18-2.37.24v2.47h-4.05v-2.41c-.62-.04-1.22-.09-1.8-.15v-3.63c.56.26,1.16.46,1.8.61Zm-1.8-5.82c-2.75-.48-4.83-1.14-6.24-1.96-1.7-1-2.56-2.22-2.56-3.64s.96-2.66,2.89-3.64c1.56-.79,3.53-1.31,5.91-1.57v3.22c-.31.12-.58.26-.83.42-.65.42-.97.89-.97,1.4,0,.46.3.9.89,1.3.25.17.56.32.92.46v4h0Zm0,8.84c-2.41-.27-4.44-.79-6.06-1.56-2.01-.95-3.29-2.29-3.85-4.03l7.3-.37c.3.7.86,1.31,1.68,1.82.3.19.61.36.94.5v3.63Z"/>
      </g>
      <path class="cls-1" d="m76.56,93.32c25.34,0,46-9.78,46-21.76s-20.67-21.76-46-21.76-46,9.78-46,21.76,20.66,21.76,46,21.76Z"/>
      <rect class="cls-3" x="30.56" y="62.61" width="92.01" height="8.95"/>
      <g>
        <path class="cls-1" d="m76.56,84.37c25.34,0,46-9.78,46-21.76s-20.67-21.77-46-21.77-46,9.78-46,21.77,20.66,21.76,46,21.76Z"/>
        <path class="cls-2" d="m76.56,80.15c22.02,0,39.99-7.88,39.99-17.54s-17.96-17.54-39.99-17.54-39.99,7.88-39.99,17.54,17.96,17.54,39.99,17.54Z"/>
        <path class="cls-3" d="m81.02,52.3c1.88.25,3.45.65,4.71,1.22,1.75.79,2.86,1.85,3.35,3.17l-7.07.44c-.19-.47-.52-.87-.99-1.2v-3.63h0Zm0,8.22c3.2.52,5.46,1.15,6.78,1.89,1.62.91,2.43,2.08,2.43,3.51,0,1.59-1.02,2.94-3.05,4.03-1.58.85-3.63,1.44-6.15,1.78v-3.15c.38-.13.73-.28,1.05-.46.88-.49,1.32-1.07,1.32-1.73,0-.59-.37-1.1-1.11-1.53-.33-.19-.75-.36-1.26-.51v-3.84Zm-6.41,8.34v-5.54c-.63-.09-1.23-.18-1.8-.28v-4c.5.2,1.1.37,1.8.51v-4.58c-.69.11-1.29.27-1.8.48v-3.22c.58-.06,1.18-.11,1.8-.14v-1.31h4.05v1.31c.84.05,1.63.12,2.37.22v3.63c-.58-.41-1.37-.71-2.37-.92v5.17c.84.11,1.63.22,2.37.34v3.84c-.64-.19-1.43-.35-2.37-.47v5.16c.9-.08,1.69-.23,2.37-.46v3.15c-.75.1-1.54.18-2.37.24v2.47h-4.05v-2.41c-.62-.04-1.23-.09-1.8-.15v-3.63c.56.26,1.16.46,1.8.61Zm-1.8-5.82c-2.75-.48-4.83-1.14-6.24-1.96-1.7-1-2.56-2.22-2.56-3.64s.96-2.66,2.89-3.64c1.56-.79,3.53-1.31,5.91-1.56v3.22c-.31.12-.58.26-.83.42-.65.42-.97.89-.97,1.4,0,.47.3.9.89,1.3.25.17.56.32.92.46v4h0Zm0,8.84c-2.41-.27-4.43-.79-6.06-1.56-2.01-.95-3.29-2.29-3.85-4.03l7.3-.37c.29.7.86,1.31,1.68,1.82.3.19.61.36.94.5v3.63Z"/>
      </g>
      <ellipse class="cls-3" cx="60.76" cy="58.49" rx="46" ry="21.76"/>
      <rect class="cls-3" x="14.76" y="49.55" width="92" height="8.95"/>
      <g>
        <path class="cls-1" d="m60.76,71.31c25.34,0,46-9.78,46-21.76s-20.66-21.76-46-21.76S14.76,37.56,14.76,49.55s20.66,21.76,46,21.76Z"/>
        <path class="cls-2" d="m60.76,67.09c22.02,0,39.99-7.88,39.99-17.54s-17.96-17.54-39.99-17.54-39.99,7.88-39.99,17.54,17.96,17.54,39.99,17.54Z"/>
        <path class="cls-3" d="m65.22,39.24c1.88.25,3.45.65,4.71,1.22,1.75.79,2.86,1.85,3.35,3.17l-7.07.44c-.19-.47-.52-.87-.99-1.2v-3.63h0Zm0,8.22c3.2.52,5.46,1.15,6.77,1.89,1.62.91,2.43,2.08,2.43,3.51,0,1.59-1.02,2.94-3.05,4.03-1.58.85-3.63,1.44-6.16,1.78v-3.15c.38-.13.73-.28,1.05-.46.88-.49,1.32-1.07,1.32-1.73,0-.59-.37-1.1-1.11-1.53-.33-.19-.75-.36-1.26-.51v-3.84Zm-6.41,8.34v-5.54c-.63-.09-1.23-.18-1.8-.28v-4c.5.2,1.1.37,1.8.51v-4.58c-.69.11-1.29.27-1.8.48v-3.22c.58-.06,1.18-.11,1.8-.14v-1.31h4.05v1.31c.84.05,1.63.12,2.37.22v3.63c-.58-.41-1.37-.71-2.37-.92v5.17c.84.11,1.63.22,2.37.34v3.84c-.64-.19-1.43-.35-2.37-.47v5.16c.9-.08,1.69-.23,2.37-.46v3.15c-.75.1-1.54.18-2.37.24v2.47h-4.05v-2.41c-.62-.04-1.22-.09-1.8-.15v-3.63c.56.26,1.16.46,1.8.61Zm-1.8-5.82c-2.75-.48-4.83-1.14-6.24-1.96-1.7-1-2.56-2.22-2.56-3.64s.96-2.66,2.89-3.64c1.56-.79,3.53-1.31,5.91-1.56v3.22c-.31.12-.58.26-.83.42-.65.42-.97.89-.97,1.4,0,.46.3.9.89,1.3.25.17.56.32.92.46v4h0Zm0,8.84c-2.41-.27-4.44-.79-6.06-1.56-2.01-.95-3.29-2.29-3.85-4.03l7.3-.37c.3.7.86,1.31,1.68,1.82.3.19.61.36.94.5v3.63Z"/>
      </g>
      <ellipse class="cls-3" cx="49.3" cy="46.43" rx="46" ry="21.76"/>
      <rect class="cls-3" x="3.3" y="37.48" width="92" height="8.95"/>
      <g>
        <path class="cls-1" d="m49.3,59.24c25.34,0,46-9.78,46-21.76s-20.66-21.76-46-21.76S3.3,25.49,3.3,37.48s20.66,21.76,46,21.76Z"/>
        <path class="cls-2" d="m49.3,55.02c22.02,0,39.99-7.88,39.99-17.54s-17.96-17.54-39.99-17.54S9.31,27.82,9.31,37.48s17.96,17.54,39.99,17.54Z"/>
        <path class="cls-3" d="m53.76,27.17c1.88.25,3.45.65,4.71,1.22,1.75.79,2.86,1.85,3.35,3.17l-7.07.44c-.19-.47-.52-.87-.99-1.2v-3.63h0Zm0,8.22c3.2.52,5.46,1.15,6.77,1.89,1.62.91,2.43,2.08,2.43,3.51,0,1.59-1.02,2.94-3.05,4.03-1.58.85-3.63,1.44-6.15,1.78v-3.15c.38-.13.73-.28,1.05-.46.88-.49,1.32-1.07,1.32-1.73,0-.59-.37-1.1-1.11-1.53-.33-.19-.75-.36-1.26-.51v-3.84Zm-6.41,8.34v-5.54c-.63-.08-1.23-.18-1.8-.28v-4c.5.2,1.1.37,1.8.51v-4.58c-.69.11-1.29.27-1.8.48v-3.22c.58-.06,1.18-.11,1.8-.14v-1.31h4.05v1.31c.84.05,1.63.12,2.37.22v3.63c-.58-.41-1.37-.71-2.37-.92v5.17c.84.11,1.63.22,2.37.34v3.84c-.64-.19-1.43-.35-2.37-.47v5.16c.9-.08,1.69-.23,2.37-.46v3.15c-.75.1-1.54.18-2.37.24v2.47h-4.05v-2.41c-.62-.04-1.22-.09-1.8-.15v-3.63c.56.26,1.16.46,1.8.61Zm-1.8-5.82c-2.75-.48-4.83-1.14-6.24-1.96-1.7-1-2.56-2.22-2.56-3.64s.96-2.66,2.89-3.64c1.56-.79,3.53-1.31,5.91-1.57v3.22c-.31.12-.58.27-.83.42-.65.42-.97.89-.97,1.4,0,.46.3.9.89,1.3.25.17.56.32.92.46v4h0Zm0,8.84c-2.41-.27-4.44-.79-6.06-1.56-2.01-.95-3.29-2.29-3.85-4.03l7.3-.37c.3.7.86,1.31,1.68,1.82.3.19.61.36.94.5v3.63Z"/>
      </g>
      <ellipse class="cls-3" cx="70.11" cy="30.71" rx="46" ry="21.76"/>
      <rect class="cls-3" x="24.11" y="21.76" width="92.01" height="8.95"/>
      <g>
        <path class="cls-1" d="m70.11,43.53c25.34,0,46-9.78,46-21.76S95.45,0,70.11,0,24.11,9.78,24.11,21.76s20.66,21.76,46,21.76Z"/>
        <path class="cls-2" d="m70.11,39.3c22.02,0,39.99-7.88,39.99-17.54S92.14,4.23,70.11,4.23,30.12,12.1,30.12,21.76s17.96,17.54,39.99,17.54Z"/>
        <path class="cls-3" d="m74.57,11.46c1.88.25,3.45.65,4.71,1.22,1.75.79,2.86,1.85,3.35,3.17l-7.07.44c-.19-.47-.52-.87-.99-1.2v-3.63h0Zm0,8.22c3.2.52,5.46,1.15,6.77,1.89,1.62.91,2.43,2.08,2.43,3.51,0,1.59-1.02,2.94-3.05,4.03-1.58.85-3.63,1.44-6.15,1.78v-3.15c.38-.13.73-.28,1.05-.46.88-.49,1.32-1.07,1.32-1.73,0-.59-.37-1.1-1.11-1.53-.33-.19-.75-.36-1.26-.51v-3.84Zm-6.41,8.34v-5.54c-.63-.09-1.23-.18-1.8-.28v-4c.5.2,1.1.37,1.8.51v-4.58c-.69.11-1.29.27-1.8.48v-3.22c.58-.06,1.18-.11,1.8-.14v-1.31h4.05v1.31c.84.05,1.63.12,2.37.22v3.63c-.58-.41-1.37-.71-2.37-.92v5.17c.84.11,1.63.22,2.37.34v3.84c-.64-.19-1.43-.35-2.37-.47v5.16c.9-.08,1.69-.23,2.37-.46v3.15c-.75.1-1.54.18-2.37.24v2.47h-4.05v-2.41c-.62-.04-1.23-.09-1.8-.15v-3.63c.56.26,1.16.46,1.8.61Zm-1.8-5.82c-2.75-.48-4.83-1.13-6.24-1.96-1.7-1-2.56-2.22-2.56-3.64s.96-2.66,2.89-3.64c1.56-.79,3.53-1.31,5.91-1.56v3.22c-.31.12-.58.26-.83.42-.65.42-.97.89-.97,1.4,0,.46.3.9.89,1.3.25.17.56.32.92.46v4h0Zm0,8.84c-2.41-.27-4.44-.79-6.06-1.56-2.01-.95-3.29-2.29-3.85-4.03l7.3-.37c.3.7.86,1.31,1.68,1.82.3.19.61.36.94.5v3.63Z"/>
      </g>
      <g>
        <path class="cls-1" d="m129.71,188.94c25.34,0,46-20.67,46-46s-20.67-46-46-46-46,20.66-46,46,20.66,46,46,46Z"/>
        <path class="cls-2" d="m129.71,180.01c20.42,0,37.07-16.65,37.07-37.07s-16.65-37.07-37.07-37.07-37.07,16.65-37.07,37.07,16.65,37.07,37.07,37.07Z"/>
        <path class="cls-3" d="m134.17,121.15c1.88.52,3.45,1.37,4.71,2.57,1.75,1.67,2.86,3.9,3.35,6.7l-7.07.93c-.19-.99-.52-1.83-.99-2.53v-7.66h0Zm0,17.37c3.2,1.1,5.46,2.43,6.78,4,1.62,1.93,2.43,4.4,2.43,7.42,0,3.37-1.02,6.21-3.05,8.52-1.58,1.79-3.63,3.04-6.15,3.76v-6.66c.38-.27.73-.59,1.05-.96.88-1.04,1.32-2.25,1.32-3.65,0-1.25-.37-2.32-1.11-3.23-.33-.4-.75-.76-1.26-1.08v-8.11Zm-6.41,17.62v-11.71c-.63-.18-1.23-.38-1.8-.59v-8.46c.5.41,1.1.77,1.8,1.08v-9.68c-.69.23-1.29.57-1.8,1.01v-6.81c.58-.13,1.18-.23,1.8-.29v-2.77h4.04v2.77c.84.1,1.63.26,2.37.46v7.66c-.58-.86-1.37-1.51-2.37-1.94v10.93c.84.23,1.63.47,2.37.72v8.11c-.64-.4-1.43-.73-2.37-1v10.9c.9-.17,1.69-.49,2.37-.97v6.66c-.75.21-1.54.38-2.37.5v5.23h-4.04v-5.1c-.62-.08-1.23-.18-1.8-.32v-7.67c.56.54,1.16.97,1.8,1.28Zm-1.8-12.3c-2.75-1.02-4.83-2.4-6.24-4.15-1.7-2.12-2.56-4.69-2.56-7.7s.96-5.62,2.89-7.7c1.56-1.67,3.53-2.77,5.91-3.31v6.81c-.31.26-.58.56-.83.89-.65.9-.97,1.89-.97,2.97,0,.98.3,1.91.89,2.75.25.36.56.68.92.98v8.46h0Zm0,18.69c-2.41-.57-4.44-1.67-6.06-3.29-2.01-2-3.29-4.85-3.86-8.52l7.3-.78c.29,1.49.86,2.78,1.68,3.85.3.4.61.75.94,1.07v7.67Z"/>
      </g>
    </g>
  </g>
</svg>