<?xml version="1.0" encoding="UTF-8"?>
<svg id="Layer_2" data-name="Layer 2" xmlns="http://www.w3.org/2000/svg" xmlns:xlink="http://www.w3.org/1999/xlink" viewBox="0 0 408.11 470.16">
  <defs>
    <style>
      .cls-1, .cls-2, .cls-3, .cls-4 {
        fill: #fff;
      }

      .cls-5 {
        fill: #bfbfbf;
        stroke-miterlimit: 10;
      }

      .cls-5, .cls-6, .cls-7, .cls-8, .cls-4, .cls-9, .cls-10 {
        stroke: #263238;
      }

      .cls-6, .cls-7, .cls-8, .cls-4, .cls-9, .cls-10 {
        stroke-linecap: round;
        stroke-linejoin: round;
      }

      .cls-6, .cls-11 {
        fill: #757575;
      }

      .cls-12, .cls-2 {
        opacity: .4;
      }

      .cls-12, .cls-8, .cls-13 {
        fill: #92e3a9;
      }

      .cls-14 {
        clip-path: url(#clippath-2);
      }

      .cls-15 {
        opacity: .2;
      }

      .cls-7 {
        stroke-dasharray: 0 0 1 2;
      }

      .cls-7, .cls-9 {
        fill: none;
      }

      .cls-16 {
        clip-path: url(#clippath-1);
      }

      .cls-3 {
        opacity: .7;
      }

      .cls-17 {
        clip-path: url(#clippath);
      }

      .cls-10, .cls-18 {
        fill: #263238;
      }
    </style>
    <clipPath id="clippath">
      <path class="cls-8" d="m300.84,335.39c-.15.38-.31.66-.49.83-3.54,3.35-18.65,7.07-31.63,9.75-10.75,2.23-20.04,3.74-20.04,3.74,0,0-7.12-59.17-7.12-65.39s-11.48-106.92-11.48-106.92l27.52-1.19,36.57-1.58s.22,2.69.59,7.39c2.34,29.98,10.67,141.56,6.08,153.37Z"/>
    </clipPath>
    <clipPath id="clippath-1">
      <path class="cls-8" d="m283.83,161.97l73.34,19.32s-25.79,78.21-31.06,87.92l-8.74,68.17s-46.84-2.06-68.38-8.57c0,0,13.61-71.01,14.35-80.47.73-9.45,20.49-86.38,20.49-86.38Z"/>
    </clipPath>
    <clipPath id="clippath-2">
      <polygon class="cls-6" points="190.77 153.69 181.07 318.44 85.78 315.31 93.3 189.07 95.64 149.87 137.16 151.54 190.77 153.69"/>
    </clipPath>
  </defs>
  <g id="Hand_1" data-name="Hand 1">
    <g>
      <g>
        <path class="cls-13" d="m34.21,153.41c28.82-53.06,101.32-115,200.79-89.2,99.46,25.8,166.66,80.38,155.65,175.34-11.01,94.96-68.87,173.86-193.52,176.17S-28.98,269.76,34.21,153.41Z"/>
        <path class="cls-3" d="m34.21,153.41c28.82-53.06,101.32-115,200.79-89.2,99.46,25.8,166.66,80.38,155.65,175.34-11.01,94.96-68.87,173.86-193.52,176.17S-28.98,269.76,34.21,153.41Z"/>
      </g>
      <g>
        <rect class="cls-9" x="330.22" y="229.9" width="74.72" height="49.06" rx="4.54" ry="4.54" transform="translate(-34.6 59.23) rotate(-8.8)"/>
        <line class="cls-9" x1="328.59" y1="246.77" x2="402.42" y2="235.34"/>
        <rect class="cls-9" x="385.98" y="249.12" width="12.07" height="17.38" transform="translate(-34.83 63.01) rotate(-8.8)"/>
        <path class="cls-9" d="m389.57,252.99c2.52-2.97,6.65-.98,5.69,8.3l3.69,1.83.36,2.35-11.92,1.85-.48-3.13,4.5-1.76s-4.2-6.65-1.83-9.44Z"/>
        <path class="cls-9" d="m363.7,273.99s8.62.07,6.15-1.65c-2.47-1.72-2.84-3.46-.74-3.49,2.1-.03,5.62,3.96,5.34,1.54-.27-2.42,1.24-.85,1.53-.7.29.16,2.78-.83,2.9-.55.12.28-.05,1.11,8.06-.15"/>
        <line class="cls-9" x1="334.85" y1="254.44" x2="371.01" y2="248.84"/>
        <line class="cls-9" x1="335.49" y1="258.54" x2="356.79" y2="255.24"/>
        <line class="cls-9" x1="336.61" y1="265.77" x2="366.32" y2="261.17"/>
        <line class="cls-9" x1="345.83" y1="238.73" x2="382.09" y2="233.11"/>
      </g>
      <g>
        <polygon class="cls-9" points=".5 213.4 81.57 197.21 109.88 333.13 23.71 351.62 .5 213.4"/>
        <line class="cls-9" x1="20.45" y1="332.22" x2="106.45" y2="316.65"/>
        <line class="cls-9" x1="96.26" y1="305.09" x2="55.19" y2="312.67"/>
        <line class="cls-9" x1="90.17" y1="298.27" x2="78.17" y2="300.04"/>
        <line class="cls-9" x1="92" y1="284.39" x2="30.7" y2="295.89"/>
        <line class="cls-7" x1="11.1" y1="276.54" x2="95.01" y2="261.73"/>
        <line class="cls-9" x1="100.26" y1="328.73" x2="49.29" y2="339.41"/>
        <line class="cls-9" x1="98.74" y1="324.43" x2="74.77" y2="328.73"/>
        <line class="cls-9" x1="85.78" y1="252.77" x2="43.75" y2="261.1"/>
        <line class="cls-9" x1="82.46" y1="243.44" x2="69.07" y2="246.07"/>
        <line class="cls-9" x1="81.67" y1="236.96" x2="20.45" y2="248.76"/>
        <line class="cls-9" x1="76.1" y1="205.42" x2="59.58" y2="208.84"/>
        <line class="cls-9" x1="20.45" y1="217.17" x2="6.19" y2="219.94"/>
        <g>
          <path class="cls-9" d="m11.38,227.8c.58-2.04,2.04-3.74,3.96-4.64"/>
          <path class="cls-9" d="m17.72,236.96c-3.59-.47-6.61-3.45-6.61-7.16"/>
          <path class="cls-9" d="m23.28,235.26c-1.02.9-2.28,1.49-3.63,1.69"/>
          <path class="cls-9" d="m18.42,222.48c5.52.02,9.14,6.46,6.22,11.18"/>
        </g>
        <g>
          <path class="cls-9" d="m33,224.36c-1.33-.43-2.65-.91-4.02-1.21"/>
          <path class="cls-9" d="m44.34,225.32c-1.13,2.69-7.45.23-9.3-.32"/>
          <path class="cls-9" d="m33.52,218.18c3.94.94,7.88,1.87,11.82,2.81-.19.79-.34,1.58-.49,2.38"/>
          <path class="cls-9" d="m27.66,220.99c1.26-3.05.77-4.02,3.91-3.27"/>
        </g>
      </g>
      <g>
        <path class="cls-9" d="m171.9,433.23l15.65,4.8-11.63-13.7c6.4-7.37,10.18-16.38,10.3-25.74"/>
        <path class="cls-9" d="m152.91,439.27c5.42-1.74,10.35-4.26,14.67-7.37"/>
        <path class="cls-9" d="m92.52,410.17c4.61,22.2,29.15,35.89,54.82,30.56"/>
        <path class="cls-9" d="m96.26,385.13c-.99,1.88-1.82,3.83-2.5,5.82"/>
        <path class="cls-9" d="m185.47,390.89c-4.61-22.2-29.15-35.89-54.82-30.56-12.4,2.57-22.8,9.12-29.72,17.7"/>
        <path class="cls-9" d="m158.24,382.75c-7.39-8.05-17.46-2.47-21.65,5.7-6.92-6.03-18.35-7.47-22.21,2.76-6.52,17.24,15.79,27.74,26.1,31.55,1.17.44,2.14.8,2.94,1.08.64-.55,1.41-1.25,2.33-2.09,8.16-7.37,24.95-25.41,12.5-38.99Z"/>
      </g>
      <g>
        <path class="cls-9" d="m219.69,54.94l-15.11-6.28,10.25,14.75c-7.08,6.72-11.71,15.32-12.73,24.62"/>
        <path class="cls-9" d="m239.17,50.75c-5.56,1.21-10.71,3.25-15.31,5.92"/>
        <path class="cls-9" d="m296.48,85.53c-2.45-22.55-25.56-38.53-51.62-35.7"/>
        <path class="cls-9" d="m290.35,110.09c1.17-1.78,2.19-3.63,3.05-5.55"/>
        <path class="cls-9" d="m202.1,95.77c2.45,22.55,25.56,38.53,51.62,35.7,12.6-1.37,23.57-6.88,31.28-14.75"/>
        <circle class="cls-9" cx="249.07" cy="88.67" r="23.73" transform="translate(-12.37 128.03) rotate(-28.16)"/>
        <polyline class="cls-9" points="240.06 91.65 247.15 98.35 259 77.96"/>
      </g>
      <g>
        <path class="cls-15" d="m278.74,314.67s-3.56,43.08,1.58,53.52c5.14,10.44,7.73,81.85,5.42,90.83,0,0,16.58,4.18,23.15-1.76,6.56-5.94,16.65-.23,33.27-6.04,16.62-5.81,4.63-134.08,4.63-134.08l.51-46.67-27.42-24.42-41.14,68.6Z"/>
        <g>
          <path class="cls-13" d="m300.84,335.39c-.15.38-.31.66-.49.83-3.54,3.35-18.65,7.07-31.63,9.75-10.75,2.23-20.04,3.74-20.04,3.74,0,0-7.12-59.17-7.12-65.39s-11.48-106.92-11.48-106.92l27.52-1.19,36.57-1.58s.22,2.69.59,7.39c2.34,29.98,10.67,141.56,6.08,153.37Z"/>
          <g class="cls-17">
            <path class="cls-15" d="m300.84,335.39l-32.12,6.61-12.13,2.49c-3.29-3.23-5.8-3.29-5.8-3.29l-.96-9.05-1.57-14.81-13.82-130.3c3.02-2.07,4.48-6.6,4.48-6.6l18.5-.67,32.05-1.17,5.29,3.42c2.34,29.98,10.67,141.56,6.08,153.37Z"/>
            <path class="cls-9" d="m300.84,335.39l-32.12,6.61-12.13,2.49c-3.29-3.23-5.8-3.29-5.8-3.29l-.96-9.05-1.57-14.81-13.82-130.3c3.02-2.07,4.48-6.6,4.48-6.6l18.5-.67,32.05-1.17,5.29,3.42c2.34,29.98,10.67,141.56,6.08,153.37Z"/>
            <g>
              <polygon class="cls-8" points="252.49 297.03 263.21 297.01 263.22 300.36 260.24 301.42 253.37 302.17 252.49 297.03"/>
              <polygon class="cls-8" points="253.15 303.93 261.03 303.66 263.05 304.62 262.94 309.07 253.75 309.17 253.15 303.93"/>
              <polygon class="cls-8" points="254.41 311.04 263.41 310.39 263.31 313.76 258.96 315.3 254.36 315.04 254.41 311.04"/>
              <polygon class="cls-8" points="254.95 316.72 262.22 317.09 262.88 318.95 261.82 321 255.32 321.42 254.2 318.25 254.95 316.72"/>
              <path class="cls-8" d="m263.33,323.23c.35.97.69,1.94,1.04,2.91.23.65.45,1.42.05,1.98-.33.46-.96.59-1.52.54-.56-.05-1.11-.24-1.67-.27-1.69-.08-3.24,1.32-4.9,1.02-.65-1.8-2.28-4.43-.07-5.25.34-.12,7.32-.26,7.09-.92Z"/>
              <path class="cls-8" d="m263.3,331.42c.16.69.28,1.39.34,2.1.08.91.01,1.99-.74,2.51-.4.27-.9.33-1.39.37-1.93.17-3.85.35-5.78.52-.05,0-.13-2.97-.05-3.28.34-1.3.1-1.19,1.33-1.72,1.95-.83,4.29.49,6.29-.5Z"/>
            </g>
            <path class="cls-9" d="m242.28,189.99s2.18,21.08,2.28,25.24"/>
            <line class="cls-9" x1="246.98" y1="190.19" x2="248" y2="201.8"/>
            <polygon class="cls-8" points="263.27 185.8 264.59 199.41 266.44 199.59 265.83 185.93 263.27 185.8"/>
            <path class="cls-15" d="m300.84,335.39c-.15.38-.31.66-.49.83-3.54,3.35-18.65,7.07-31.63,9.75v-8.98l-18.89-4.84-2.85-.73,1.28-14.08,4.89-53.82,4.27-83.75.18-3.56,36.57-1.58s.22,2.69.59,7.39c2.34,29.98,10.67,141.56,6.08,153.37Z"/>
          </g>
          <path class="cls-9" d="m300.84,335.39c-.15.38-.31.66-.49.83-3.54,3.35-18.65,7.07-31.63,9.75-10.75,2.23-20.04,3.74-20.04,3.74,0,0-7.12-59.17-7.12-65.39s-11.48-106.92-11.48-106.92l27.52-1.19,36.57-1.58s.22,2.69.59,7.39c2.34,29.98,10.67,141.56,6.08,153.37Z"/>
        </g>
        <g>
          <path class="cls-1" d="m320.21,469.66c.23-2.11-3.09-32.38-3.15-35.67-.16-9.02-2.71-20.81-2.71-20.81-3.56-9.1-6.33-30.07-15.83-43.52-9.49-13.45-9.49-29.27-11.07-42.72-1.59-13.45-1.19-12.27-.79-24.19.39-11.93-.4-18.93-1.19-26.84-.79-7.92-2.37-21.85,0-28.34,2.37-6.48,8.57-7.98,15.36-1.5,6.79,6.49,9.56,33.15,9.56,36.44s0,13.57,2.38,17.53c0,0,13.45-6.88,13.45-8.78s-.4-18.69,1.58-19.59l-7.91-25.6,15.03-5.33s3.62,2.97,7.24,8.7c1.49,2.36,2.99,5.2,4.23,8.49,6.33,16.79,16.5,28.5,18.6,33.33,2.1,4.82,0,43.19,0,50.32s-4.6,40.03-4.48,45.53c.09,3.97,2.79,18.88,5.48,30.29,1.04,4.4,7.07,36.28,7.95,38.81l-53.73,13.45Z"/>
          <path class="cls-12" d="m332.05,270.03c-.1,2.15,2.47,19.29,2.47,19.29,1.78,4.27-7.94,18.83-7.94,18.83-2.1,1.19-3.01,8.51-3.01,8.51-6.58-1.46-21.65-16.61-21.65-16.61,0,0-1.81,6.21-3.79,21.58-1.98,15.36,10.68,51.88,16.08,77.09s2.85,35.28,2.85,35.28c-.16-9.02-2.71-20.81-2.71-20.81-3.56-9.1-6.33-30.07-15.83-43.52-9.49-13.45-9.49-29.27-11.07-42.72-1.59-13.45-1.19-12.27-.79-24.19.39-11.93-.4-18.93-1.19-26.84-.79-7.92-2.37-21.85,0-28.34,2.37-6.48,8.57-7.98,15.36-1.5,6.79,6.49,9.56,33.15,9.56,36.44s0,13.57,2.38,17.53c0,0,13.45-6.88,13.45-8.78s-.4-18.69,1.58-19.59l-7.91-25.6,15.03-5.33s3.62,2.97,7.24,8.7c-4.88,9.75-10.05,19.25-10.11,20.59Z"/>
          <path class="cls-12" d="m357.27,389.81c.66-5.99,2.63-20.26,3.88-29.16-1.53,6.95-3.98,10.47-3.98,10.47,0,0,4.26-51.03,4.68-54.11.42-3.09,4.72-17.09,3.14-25.75,2.1,4.82,0,43.19,0,50.32s-4.6,40.03-4.48,45.53c.09,3.97,4.38,29.49,7.07,40.9-5.8-8.4-10.97-32.17-10.31-38.2Z"/>
          <path class="cls-9" d="m373.94,456.21c-3.16-9.1-13.31-63.6-13.43-69.1-.12-5.5,4.48-38.41,4.48-45.54s2.1-45.49,0-50.32c-2.1-4.82-12.26-16.54-18.59-33.33-4.24-11.24-11.47-17.19-11.47-17.19l-15.03,5.34,7.91,25.59c-1.98.9-1.58,17.69-1.58,19.59s-13.45,8.78-13.45,8.78c-2.37-3.96-2.37-14.24-2.37-17.53s-2.77-29.94-9.56-36.43c-6.79-6.49-12.99-4.98-15.36,1.5-2.37,6.48-.79,20.42,0,28.33.79,7.91,1.58,14.91,1.19,26.84-.4,11.93-.79,10.74.79,24.19,1.58,13.45,1.58,29.27,11.08,42.73,9.49,13.45,12.26,34.42,15.82,43.52,0,0,6.73,48.57,5.86,56.48"/>
          <path class="cls-9" d="m312.76,300.04s2.37,11.08,7.71,16.62"/>
          <path class="cls-9" d="m314.21,305.09s10.03,3.05,14.18,3.25"/>
          <path class="cls-9" d="m326.21,291.26s7.12-3.29,11.67-1.31"/>
          <path class="cls-9" d="m327.8,271.67s5.54-.51,6.73-3.28"/>
          <path class="cls-9" d="m300.35,372.48s10.63,13.2,13.8,19.93"/>
          <path class="cls-9" d="m362.21,314.67c-1.78,10.48-4.15,39.16-4.94,44.31"/>
          <path class="cls-9" d="m365.62,294.89c.3,9.5-2.02,14.44-2.02,14.44"/>
        </g>
        <g>
          <path class="cls-13" d="m283.83,161.97l73.34,19.32s-25.79,78.21-31.06,87.92l-8.74,68.17s-46.84-2.06-68.38-8.57c0,0,13.61-71.01,14.35-80.47.73-9.45,20.49-86.38,20.49-86.38Z"/>
          <g class="cls-16">
            <path class="cls-15" d="m268.06,244.15l16.16-69.09s6.95-3.45,9.64-6.6l52.53,14.93s.16,5.15,3.16,8.45l-26.51,76.39-6.43,56.31s-8.55.69-9.37,7.02c0,0-27.72,1.5-46.31-3.41,0,0-2.19-6.83-5.54-11.15l12.66-72.86Z"/>
            <path class="cls-9" d="m268.06,244.15l16.16-69.09s6.95-3.45,9.64-6.6l52.53,14.93s.16,5.15,3.16,8.45l-26.51,76.39-6.43,56.31s-8.55.69-9.37,7.02c0,0-27.72,1.5-46.31-3.41,0,0-2.19-6.83-5.54-11.15l12.66-72.86Z"/>
            <path class="cls-8" d="m281.51,247.74s4.77-18.01,21.57-14.76,7.31,25.4,7.31,25.4c0,0,.1,17.9-13.53,15.43-11.81-2.14-18.12-8.62-15.35-26.07Z"/>
            <path class="cls-9" d="m290.61,181.63s-5.08,20.57-6.4,24.53"/>
            <line class="cls-9" x1="294.96" y1="183.41" x2="291.99" y2="194.69"/>
            <g>
              <polygon class="cls-8" points="332.05 191.32 342.16 194.88 341.05 198.05 337.88 198.05 331.16 196.47 332.05 191.32"/>
              <polygon class="cls-8" points="330.37 198.05 337.88 200.42 339.47 202 337.88 206.16 329.18 203.19 330.37 198.05"/>
              <polygon class="cls-8" points="329.18 205.17 337.88 207.57 336.66 210.71 332.05 210.71 327.8 208.93 329.18 205.17"/>
              <polygon class="cls-8" points="327.8 210.71 334.52 213.48 334.52 215.45 332.84 217.04 326.58 215.26 326.58 211.89 327.8 210.71"/>
              <path class="cls-8" d="m333.52,219.64c0,1.03,0,2.06,0,3.09,0,.69-.05,1.48-.61,1.88-.46.32-1.1.23-1.62,0-.51-.23-.96-.6-1.49-.81-1.56-.63-3.5.16-4.96-.68-.01-1.91-.67-4.94,1.69-4.97.36,0,6.99,2.2,6.99,1.49Z"/>
              <path class="cls-8" d="m330.76,227.35c-.08.71-.2,1.4-.38,2.09-.22.89-.65,1.88-1.54,2.12-.47.13-.96,0-1.43-.11-1.87-.48-3.75-.96-5.62-1.44-.05-.01.87-2.85,1.04-3.11.75-1.11.49-1.09,1.83-1.17,2.12-.13,3.88,1.89,6.1,1.63Z"/>
            </g>
            <polygon class="cls-8" points="311.77 184.8 308.41 198.05 310.09 198.84 314.15 185.78 311.77 184.8"/>
            <g>
              <polygon class="cls-8" points="269.55 273.79 279.93 276.47 279.09 279.72 275.94 279.99 269.1 278.99 269.55 273.79"/>
              <polygon class="cls-8" points="268.45 280.63 276.14 282.35 277.85 283.79 276.63 288.07 267.71 285.86 268.45 280.63"/>
              <polygon class="cls-8" points="267.88 287.83 276.75 289.47 275.8 292.7 271.21 293.1 266.82 291.69 267.88 287.83"/>
              <polygon class="cls-8" points="266.97 293.46 273.91 295.65 274.08 297.62 272.54 299.34 266.15 298.1 265.86 294.75 266.97 293.46"/>
              <path class="cls-8" d="m273.44,301.87c.09,1.02.18,2.05.27,3.07.06.68.08,1.48-.45,1.92-.43.36-1.08.33-1.61.14-.53-.19-1.01-.51-1.55-.68-1.61-.5-3.47.46-5-.25-.18-1.9-1.09-4.87,1.25-5.09.36-.04,7.15,1.59,7.09.89Z"/>
              <path class="cls-8" d="m271.35,309.79c-.02.71-.08,1.42-.2,2.12-.15.9-.49,1.93-1.35,2.24-.45.17-.96.09-1.43,0-1.91-.32-3.82-.63-5.72-.95-.05,0,.62-2.91.77-3.18.66-1.17.4-1.13,1.72-1.33,2.1-.32,4.03,1.55,6.22,1.1Z"/>
            </g>
            <path class="cls-9" d="m312.76,319.5s2.37-26.58,2.37-29.21"/>
            <path class="cls-9" d="m308.02,318.31s.99-13.81,1.19-16.2"/>
            <polygon class="cls-8" points="289.47 308.34 286.26 324.05 289.47 324.05 291.8 308.34 289.47 308.34"/>
            <path class="cls-15" d="m326.32,268.82c-6.94-1.45-13.13-3.58-17.71-6.65,0,0,3.32,9.54,15.09,25.8l-6.33,49.42s-30.57-1.34-53.67-5.29c7.1-20,19.98-57.9,18.47-65.41-2.07-10.31,5.24-22.48,5.24-22.48,23.11-4.16,45.52-21.63,60.9-36.4-7.83,23.18-18.52,54.17-21.99,61.01Z"/>
          </g>
          <path class="cls-9" d="m283.83,161.97l73.34,19.32s-25.79,78.21-31.06,87.92l-8.74,68.17s-46.84-2.06-68.38-8.57c0,0,13.61-71.01,14.35-80.47.73-9.45,20.49-86.38,20.49-86.38Z"/>
        </g>
        <g>
          <path class="cls-1" d="m324.48,317.65l-10.33,74.76c-2.3-4.89-8.57-13.23-11.81-17.4-1.2-1.56-1.99-2.53-1.99-2.53l-1.83-2.82c-9.49-13.45-9.49-29.27-11.07-42.72-1.59-13.45-1.19-12.27-.79-24.19.39-11.93-.4-18.93-1.19-26.84-.79-7.92-2.37-21.85,0-28.34,1.16-3.18,3.25-5.16,5.87-5.58,2.72-.45,6.03.78,9.49,4.08,6.79,6.49,9.56,33.15,9.56,36.44s0,13.57,2.38,17.53c0,0,6.37,12.07,11.71,17.61Z"/>
          <path class="cls-12" d="m297.73,364.33c2.16,2.76,3.63,6.74,4.61,10.68-1.2-1.56-1.99-2.53-1.99-2.53l-1.83-2.82c-9.49-13.45-9.49-29.27-11.07-42.72-1.59-13.45-1.19-12.27-.79-24.19.39-11.93-.4-18.93-1.19-26.84-.79-7.92-2.37-21.85,0-28.34,1.16-3.18,3.25-5.16,5.87-5.58,5.04,1.42,9.98,6.51,11.74,15.22,2.96,14.62-10.53,2.81-13.66,15.2-3.12,12.38,1.42,15.73,3.29,18.85,1.86,3.12-.52,9.99-3.29,19.24-2.76,9.26,2.38,46.24,8.31,53.83Z"/>
          <path class="cls-9" d="m324.48,317.65c-5.34-5.54-11.71-17.62-11.71-17.62-2.37-3.96-2.37-14.24-2.37-17.53s-2.77-29.94-9.56-36.43c-6.79-6.49-12.99-4.98-15.36,1.5-2.37,6.48-.79,20.42,0,28.33.79,7.91,1.58,14.91,1.19,26.84-.4,11.93-.79,10.74.79,24.19,1.58,13.45,1.58,29.27,11.08,42.73l1.83,2.82s10.63,13.2,13.8,19.93"/>
          <path class="cls-9" d="m289.47,286.01s9.08-4.69,13.62-4.29"/>
        </g>
      </g>
      <g>
        <path class="cls-15" d="m150.96,157.77s-22.95-25.26-24.53-26.84c-1.58-1.58-2.77-28.48-7.12-40.35-4.35-11.87-6.48-81.49-6.48-81.49,0,0-4.14-5.14-15.84-2.37-11.7,2.77-23.17-2.37-36.23,5.14-13.05,7.52,12.26,115.12,12.26,115.12l25.69,81.87,52.25-51.07Z"/>
        <g>
          <path class="cls-1" d="m166.72,157.95s-10.28,65.67-20.97,74.37c-6.19,5.05-15.84,7.3-24.4,6.99-6.2-.22-11.84-1.78-15.16-4.61-7.91-6.73-18.99-10.29-24.52-14.64-5.54-4.35-5.54-19.78-9.1-32.84-3.56-13.05-8.71-13.45-9.89-26.5-1.19-13.06-5.94-53.01-14.54-64.09-8.6-11.08-8.8-19.78-12.36-31.06C32.22,54.29,6.19,13.5,6.19,13.5L69.67.5s6.24,25.83,12.92,46.9c3.17,10,6.44,18.94,9.18,23.52,8.52,14.24,13.63,27.69,13.63,27.69,7.18,7.52,11.11,24.18,12.3,38.77h0s16.98,9.49,16.98,9.49c13.05,3.56,32.04,11.08,32.04,11.08Z"/>
          <path class="cls-12" d="m166.72,157.95s-10.28,65.67-20.97,74.37c-6.19,5.05-15.84,7.3-24.4,6.99-20.3-5.02-25.76-16.32-28.51-19.06-3.66-3.65-8.47-25.89-5.83-38.83,2.63-12.94.74-17.73-1.44-24.05-4.83-14,9.9-21.54,11.42-26.84,1.52-5.29.97-34.94-5.63-44.58-3.52-5.13-12.59-31.57-8.77-38.55,3.17,10,6.44,18.94,9.18,23.52,8.52,14.24,13.63,27.69,13.63,27.69,7.18,7.52,11.11,24.18,12.3,38.77h0s16.98,9.49,16.98,9.49c13.05,3.56,32.04,11.08,32.04,11.08Z"/>
          <path class="cls-9" d="m89.2,153.34s-3.57,4.21-6.74,4.21"/>
          <path class="cls-9" d="m96.99,167.57s-3.85,8.18-9.99,9.96"/>
          <path class="cls-9" d="m90.17,215.51s8.7-3.76,10.09-10.09"/>
          <path class="cls-9" d="m134.68,146.87s-2.18,2.77-2.18,4.95"/>
          <path class="cls-9" d="m69.67.5s13.58,56.17,22.1,70.42c8.52,14.24,13.63,27.69,13.63,27.69,7.18,7.52,11.11,24.19,12.3,38.78h0s0,0,0,0l16.98,9.48c13.05,3.56,32.04,11.08,32.04,11.08,0,0-10.28,65.67-20.97,74.37-10.68,8.71-31.64,9.1-39.56,2.38-7.91-6.73-18.99-10.29-24.52-14.64-5.54-4.35-5.54-19.78-9.1-32.84-3.56-13.05-8.71-13.45-9.89-26.5-1.19-13.06-5.94-53.01-14.54-64.09-8.6-11.08-8.8-19.78-12.36-31.06C32.22,54.29,6.19,13.5,6.19,13.5"/>
        </g>
        <g>
          <polygon class="cls-10" points="190.77 153.69 85.78 315.31 110.56 318.07 185.85 321.2 193.56 177.45 190.77 153.69"/>
          <g>
            <polygon class="cls-11" points="190.77 153.69 181.07 318.44 85.78 315.31 93.3 189.07 95.64 149.87 137.16 151.54 190.77 153.69"/>
            <g class="cls-14">
              <g>
                <circle class="cls-5" cx="166.81" cy="287.87" r="11.6"/>
                <line class="cls-9" x1="163.54" y1="280.17" x2="171.4" y2="281.2"/>
                <line class="cls-9" x1="161.43" y1="282.08" x2="173.24" y2="283.23"/>
                <line class="cls-9" x1="160.12" y1="293.72" x2="171.93" y2="294.87"/>
                <g>
                  <path class="cls-18" d="m165.29,284.71c1.01.11,1.29-.36,1.56-.9l.88.09-.89,8.35-1.31-.14.68-6.37-1.01-.11.1-.93Z"/>
                  <path class="cls-18" d="m169.66,285.06c.52.06.75.4.7.94v.11s-.52-.05-.52-.05l.02-.14c.03-.24-.06-.35-.23-.36-.17-.02-.28.06-.3.31-.03.25.06.44.38.79.41.44.52.74.48,1.13-.06.55-.36.83-.89.77-.53-.06-.77-.4-.71-.94l.02-.21.51.05-.03.24c-.03.24.07.34.24.36.17.02.29-.06.31-.3.03-.25-.06-.44-.38-.79-.41-.44-.52-.74-.47-1.13.06-.55.36-.83.88-.77Z"/>
                  <path class="cls-18" d="m170.6,285.2l1.66.18-.05.49-.56-.06-.31,2.92-.54-.06.31-2.92-.56-.06.05-.49Z"/>
                </g>
              </g>
              <g>
                <rect class="cls-4" x="121.34" y="158.81" width="20.82" height="13.65" rx=".89" ry=".89" transform="translate(38.33 -24.27) rotate(12.31)"/>
                <g>
                  <path class="cls-18" d="m127.12,168.38s-.03-.04-.07-.07c-.05-.04-.01-.12-.05-.17-.01-.02-.04-.03-.06-.04-.05-.04-.08-.1-.11-.16,0-.02-.02-.04-.01-.06,0-.04.05-.05.08-.07.05-.03.08-.08.09-.13,0-.02,0-.04.02-.05.02-.01.04-.01.06-.02.01-.01.01-.03.01-.04.02-.19-.12-.33-.24-.47-.29-.36-.35-.55-.3-.78.05-.24.17-.31.33-.27.17.04.24.15.19.39l-.03.14.5.11.02-.1c.1-.45-.03-.78-.38-.94l.05-.25-.43-.09-.05.25c-.39,0-.63.25-.73.7-.08.38,0,.68.36,1.11.29.35.35.55.3.78-.05.24-.18.3-.34.27-.17-.04-.25-.15-.2-.38l.06-.26-.5-.11-.05.23c-.1.45.03.79.39.94l-.05.24.43.09s.05-.24.05-.24c0,0,.24-.03.26-.04.08-.03.15-.07.21-.13.06-.06.12-.13.16-.21.04-.07.05-.1.03-.13Z"/>
                  <path class="cls-18" d="m129.9,168.22c0-.08-.03-.16-.06-.23-.01-.04-.03-.08-.02-.11.01-.03.04-.05.07-.08.27-.24-.06-.56-.31-.61-.21-.05-.38,0-.52.14l.22-.79.92.2.1-.48-1.38-.3c-.02.06-.06.15-.06.21,0,.07.08.09.08.17,0,.04-.02.07-.01.11,0,.06.06.1.11.14.05.04.1.09.09.15,0,.03-.02.05-.03.07-.05.09-.11.18-.2.21-.03.02-.08.03-.09.06,0,.02,0,.04,0,.06,0,.07-.07.12-.13.16-.2.13-.21.36-.27.58l.5.11.02-.1c.05-.24.18-.31.34-.27s.25.15.2.39l-.16.73c-.05.24-.18.3-.34.27-.17-.04-.25-.15-.2-.38l.07-.31-.5-.11-.06.28c-.12.53.08.9.6,1.01.52.11.85-.13.97-.67.04-.2.09-.4.07-.6Z"/>
                  <path class="cls-18" d="m136.43,169.62c0-.08-.03-.16-.06-.23-.01-.04-.03-.08-.02-.11.01-.03.04-.05.07-.08.27-.24-.06-.56-.31-.61-.21-.05-.38,0-.52.14l.22-.79.92.2.1-.48-1.38-.3c-.02.06-.06.15-.06.21,0,.07.08.09.08.17,0,.04-.02.07-.01.11,0,.06.06.1.11.14.05.04.1.09.09.15,0,.02-.02.05-.03.07-.05.09-.11.18-.2.21-.03.02-.08.03-.09.06,0,.02,0,.04,0,.06,0,.07-.07.12-.13.16-.2.13-.21.36-.27.58l.5.11.02-.1c.05-.24.18-.31.34-.27.17.04.25.15.2.39l-.16.73c-.05.24-.18.3-.34.27-.17-.04-.25-.15-.2-.38l.07-.31-.5-.11-.06.28c-.12.53.08.9.6,1.01.52.11.85-.13.97-.67.04-.2.09-.4.07-.6Z"/>
                  <path class="cls-18" d="m131.04,167.23c.05-.24.18-.31.34-.27.11.02.17.1.19.21.05.02.11.03.17.04,0,0,.02,0,.03.01.01.01.01.03.01.04,0,.06.05.11.09.14.07.05.15.07.22.12.17-.49-.11-.94-.6-1.04-.52-.11-.86.13-.98.67-.01.06-.03.13-.04.19-.03.16.03.1.16.17.06.03.21.14.07.2-.02,0-.03,0-.05.01-.01,0-.03.03-.02.04.03.01.07.03.1.05.03.03.04.07.03.1-.01.03-.04.05-.05.08,0,.03,0,.07-.03.08-.01,0-.03,0-.04.01-.02.01-.07.13-.09.16-.03.04-.07.09-.12.12-.14.07-.19.02-.23.2-.02.11-.05.21-.07.32-.12.53.1.9.61,1.01.52.11.86-.13.98-.67l.15-.7s-.04,0-.05-.01c-.12-.05-.23-.12-.34-.19-.03-.02-.06-.06-.1-.08l-.2.9c-.05.24-.18.31-.34.27s-.25-.15-.2-.39c0,0,.3-1.35.29-1.36,0-.09.02-.17.06-.24l.04-.2Z"/>
                  <path class="cls-18" d="m133.5,168.88s.03-.03.04-.05c.02-.05,0-.1.05-.17.08.02.14.02.22.02l.17-.77c.12-.53-.1-.9-.61-1.01-.52-.11-.86.13-.98.67l-.03.14c.07.06.12.16.18.21.06.05.18.04.16.17-.01.06-.06.13-.02.19.02.03.06.04.08.07.02.04,0,.08-.03.11-.03.03-.07.05-.08.09-.03.06,0,.14-.06.17-.09.04-.19-.13-.3-.11-.09.01-.13.09-.16.17-.06.16-.08.35-.11.52-.12.53.1.9.61,1.01.23.05.48.03.67-.11.09-.07.16-.17.22-.28.08-.17.08-.22-.03-.37,0-.01-.02-.03-.04-.03-.02,0-.04.02-.05.03s-.05.02-.05,0c-.02-.08-.05-.16-.07-.24,0-.01,0-.03,0-.04,0-.03.04-.04.07-.06.08-.06.04-.19.1-.27.02-.02.05-.04.07-.06Zm-.43.68c-.05.24-.18.31-.34.27-.17-.04-.25-.15-.2-.39l.39-1.8c.05-.24.18-.31.34-.27.17.04.25.15.2.39l-.39,1.8Z"/>
                  <path class="cls-18" d="m134.39,170.12l-.11.51-.51-.11.11-.51.51.11Z"/>
                  <path class="cls-18" d="m138.57,169.23c.06-.05.07-.24.08-.31.12-.53-.1-.9-.61-1.01-.52-.11-.86.13-.98.67-.05.22-.09.44-.15.66.13.12-.02.31.05.45.01.02.03.04.03.07,0,.08-.15.09-.15.17,0,.01,0,.03,0,.04.03.13-.09.12-.14.18-.03.04-.04.11-.05.16-.12.53.1.9.61,1.01.52.11.86-.13.98-.67.04-.18.08-.36.12-.55.03-.14.18-.51.03-.63-.03-.02-.08-.03-.1-.07-.03-.04-.02-.1,0-.15.06-.15.14.02.25-.04Zm-.61.88c-.04.06-.1.08-.15.16-.05.08-.05.21-.07.31-.05.24-.18.31-.34.27s-.25-.15-.2-.39c.02-.07.1-.27.07-.33-.02-.05-.1-.04-.13-.11-.04-.09-.01-.23,0-.32,0-.02.01-.05,0-.07,0-.05-.05-.09-.03-.13,0-.02.02-.02.04-.04.05-.05.02-.12.03-.22.01,0,.03,0,.04,0,.32.12.31-.37.35-.58.05-.24.18-.31.34-.27.17.04.25.15.2.39-.04.19-.14.44-.13.63.09,0,.16.07.16.16,0,.06-.02.12,0,.17.02.04.06.08.04.12-.02.03-.06.04-.1.05-.06.02-.1.07-.11.13,0,.03-.02.06-.03.07Z"/>
                </g>
                <path class="cls-9" d="m132.98,161.95c1.13.25,2.25.49,3.38.74"/>
                <path class="cls-9" d="m125.3,160.28c2.01.44,4.03.88,6.04,1.32"/>
                <line class="cls-9" x1="124.79" y1="162.6" x2="128.76" y2="163.46"/>
              </g>
              <path class="cls-2" d="m90.17,313.85s6.33-1.92,16.09-2.16c9.76-.24,15.98,1.61,24-2.35,8.02-3.96,13.19,3.16,20.84-.79,7.65-3.96,11.21-10.31,15.62-10.16,4.42.14,11.01-70.69,13.12-82.88,2.11-12.19,6.63-46.17,8.18-53.07l-8.7,153.57-89.14-2.16Z"/>
              <polygon class="cls-8" points="90.57 283.63 114.96 313.3 89.2 311.69 90.57 283.63"/>
              <g>
                <path class="cls-8" d="m155.3,224.92l-.39,11.29c-.23,6.6-5.82,11.8-12.41,11.57l-11.6-.41c-6.6-.23-11.8-5.82-11.57-12.41l.51-14.7c.23-6.6,5.82-11.8,12.41-11.57l11.6.41c.32.01.64.03.95.07-1.71,1.67-2.81,3.98-2.9,6.55-.19,5.32,3.97,9.77,9.29,9.96,1.46.05,2.86-.23,4.12-.77Z"/>
                <path class="cls-8" d="m157.38,215.21c-.11,3.03-2.65,5.4-5.68,5.29-3.03-.11-5.4-2.65-5.29-5.68.11-3.03,2.65-5.4,5.68-5.29,3.03.11,5.4,2.65,5.29,5.68Z"/>
              </g>
              <path class="cls-2" d="m122.62,236.36l17.05-14.57s-2.16-7.82,0-10.29l-8.19-.02c-4.09,0-7.48,3.17-7.74,7.25l-1.12,17.62Z"/>
              <path class="cls-2" d="m149.58,215.51l3.65-4.03s-2.27-1.53-3.65,0c-1.38,1.53,0,4.03,0,4.03Z"/>
              <line class="cls-9" x1="147.8" y1="302.62" x2="175.29" y2="303.81"/>
              <line class="cls-9" x1="138.28" y1="305.39" x2="175.29" y2="307.37"/>
              <line class="cls-9" x1="165.6" y1="313.3" x2="175.29" y2="313.3"/>
              <path class="cls-15" d="m131.91,212.33c-14.18,6.82-29.54-17.07-34.92-20.36-1.29-.79-2.54-1.81-3.69-2.9l2.34-39.2,41.52,1.67c-.27,5.84-.18,12.29,1.12,16.03,2.79,8.06,7.8,37.95-6.37,44.76Z"/>
              <path class="cls-2" d="m116.02,213.55s11.34,4.92,16.48,1.96c5.14-2.96,10.68-8.49,11.47-20.89,0,0,6.75,17.45-6.87,22.68-13.61,5.23-21.09-3.75-21.09-3.75Z"/>
              <path class="cls-2" d="m111.6,220.53s22.95,6.18,32.84-5.02c0,0-1.32,6.21-11.93,7.99-10.62,1.78-20.9-2.97-20.9-2.97Z"/>
              <path class="cls-2" d="m148.59,180.58c-1.75-3.11.4,24.85.4,24.85,0,0,3.16-18.52-.4-24.85Z"/>
            </g>
            <polygon class="cls-9" points="190.77 153.69 181.07 318.44 85.78 315.31 93.3 189.07 95.64 149.87 137.16 151.54 190.77 153.69"/>
          </g>
          <polygon class="cls-2" points="185.95 319.32 182.48 318.44 190.77 167.57 192.24 177.53 185.95 319.32"/>
        </g>
        <g>
          <path class="cls-1" d="m131.91,212.33c-2.46,1.4-5.78,1.47-8.54.13-1.9-.91-3.7-2.56-5.31-5.46-3.95-7.12-14.64-23.34-16.61-28.05-1.98-4.71-6.33-17.84-10.68-23.37-4.36-5.54-6.73-13.85-6.73-13.85l-1.58-80.7c2.37,11.67,8.9,24.92,8.9,24.92,9.69,5.14,14.04,12.66,14.04,12.66.97,1.02,1.88,2.2,2.73,3.53,6.46,10,9.59,27.99,9.93,41.96.4,15.83,5.54,22.95,13.85,36.79,8.31,13.85,5.4,28.37,0,31.44Z"/>
          <path class="cls-12" d="m131.91,212.33c-2.5,1.33-5.78,1.47-8.54.13,4.54-1.24,10.5-3.57,9.13-7.04-2.15-5.48-8.44,2.65-11.6,0-3.17-2.65-14.64-17.85-7.35-24.54,7.28-6.7,4.97-17.91,0-21.07-4.98-3.17-1.75-10.69-.17-22.54.96-7.17-2.43-23.41-5.25-35.13,6.46,10,9.59,27.99,9.93,41.96.4,15.83,5.54,22.95,13.85,36.79,8.31,13.85,5.4,28.56,0,31.44Z"/>
          <path class="cls-9" d="m82.46,61.03c2.37,11.67,8.9,24.92,8.9,24.92,9.69,5.14,14.04,12.66,14.04,12.66,8.31,8.7,12.26,29.67,12.66,45.49.4,15.82,5.54,22.95,13.85,36.79,8.31,13.85,6,28.16,0,31.44-4.18,2.28-9.89,1.79-13.85-5.33-3.96-7.12-14.64-23.34-16.62-28.05-1.98-4.71-6.33-17.84-10.68-23.38-4.35-5.54-6.73-13.85-6.73-13.85"/>
          <path class="cls-9" d="m108.13,177.53s6.46-.58,9.42-3.02"/>
          <path class="cls-9" d="m81.67,143.37s-1.25,3.04,5.34,5.98"/>
        </g>
      </g>
    </g>
  </g>
</svg>